<?xml version="1.0" encoding="UTF-8"?>
<!DOCTYPE svg PUBLIC "-//W3C//DTD SVG 1.1//EN" "http://www.w3.org/Graphics/SVG/1.1/DTD/svg11.dtd">
<svg xmlns="http://www.w3.org/2000/svg" xml:space="preserve" width="600px" height="600px" version="1.1" style="shape-rendering:geometricPrecision; text-rendering:geometricPrecision; image-rendering:optimizeQuality; fill-rule:evenodd; clip-rule:evenodd"
viewBox="0 0 600 600"
 xmlns:xlink="http://www.w3.org/1999/xlink">
 <defs>
  <style type="text/css">
   <![CDATA[
    .fil0 {fill:#CC33FF}
    .fil1 {fill:#F3F3EB}
    .fil3 {fill:white}
    .fil2 {fill:white;fill-rule:nonzero}
   ]]>
  </style>
 </defs>
 <g id="Layer_x0020_1">
  <metadata id="Wiki-Layer"/>
  <g id="_1323465042768">
   <polygon class="fil0" points="300,0 314.89,15.78 331.36,1.64 344.52,18.9 362.37,6.56 373.66,25.09 392.7,14.68 402,34.29 422.02,25.94 429.21,46.41 450,40.19 455.01,61.31 476.34,57.29 479.11,78.82 500.74,77.06 501.25,98.75 522.94,99.26 521.18,120.89 542.71,123.66 538.69,144.99 559.81,150 553.59,170.79 574.06,177.98 565.71,198 585.32,207.3 574.91,226.34 593.44,237.63 581.1,255.48 598.36,268.64 584.22,285.11 600,300 584.22,314.89 598.36,331.36 581.1,344.52 593.44,362.37 574.91,373.66 585.32,392.7 565.71,402 574.06,422.02 553.59,429.21 559.81,450 538.69,455.01 542.71,476.34 521.18,479.11 522.94,500.74 501.25,501.25 500.74,522.94 479.11,521.18 476.34,542.71 455.01,538.69 450,559.81 429.21,553.59 422.02,574.06 402,565.71 392.7,585.32 373.66,574.91 362.37,593.44 344.52,581.1 331.36,598.36 314.89,584.22 300,600 285.11,584.22 268.64,598.36 255.48,581.1 237.63,593.44 226.34,574.91 207.3,585.32 198,565.71 177.98,574.06 170.79,553.59 150,559.81 144.99,538.69 123.66,542.71 120.89,521.18 99.26,522.94 98.75,501.25 77.06,500.74 78.82,479.11 57.29,476.34 61.31,455.01 40.19,450 46.41,429.21 25.94,422.02 34.29,402 14.68,392.7 25.09,373.66 6.56,362.37 18.9,344.52 1.64,331.36 15.78,314.89 0,300 15.78,285.11 1.64,268.64 18.9,255.48 6.56,237.63 25.09,226.34 14.68,207.3 34.29,198 25.94,177.98 46.41,170.79 40.19,150 61.31,144.99 57.29,123.66 78.82,120.89 77.06,99.26 98.75,98.75 99.26,77.06 120.89,78.82 123.66,57.29 144.99,61.31 150,40.19 170.79,46.41 177.98,25.94 198,34.29 207.3,14.68 226.34,25.09 237.63,6.56 255.48,18.9 268.64,1.64 285.11,15.78 "/>
   <path class="fil1" d="M36.5 300c0,-145.53 117.97,-263.5 263.5,-263.5 145.53,0 263.5,117.97 263.5,263.5 0,145.53 -117.97,263.5 -263.5,263.5 -145.53,0 -263.5,-117.97 -263.5,-263.5zm263.5 -271c-149.67,0 -271,121.33 -271,271 0,149.67 121.33,271 271,271 149.67,0 271,-121.33 271,-271 0,-149.67 -121.33,-271 -271,-271z"/>
   <path class="fil1" d="M300 539.65c-132.36,0 -239.65,-107.29 -239.65,-239.65 0,-132.36 107.29,-239.65 239.65,-239.65 132.36,0 239.65,107.29 239.65,239.65 0,132.36 -107.29,239.65 -239.65,239.65zm0 -495.55c-141.33,0 -255.9,114.57 -255.9,255.9 0,141.33 114.57,255.9 255.9,255.9 141.33,0 255.9,-114.57 255.9,-255.9 0,-141.33 -114.57,-255.9 -255.9,-255.9z"/>
   <g>
    <path class="fil2" d="M269.66 182.07c-1.31,0.18 -2.05,0.26 -2.23,0.24 -0.05,-0.01 -0.07,-0.03 -0.07,-0.05 0.01,-0.07 0.53,-0.32 1.55,-0.75 0.96,-0.35 2.47,-1.1 4.52,-2.24 1.07,-0.78 2.6,-2.04 4.58,-3.77 1.37,-1.2 2.78,-2.2 4.25,-2.99 1.8,-0.95 3.51,-1.3 5.16,-1.06 0.39,0.06 0.89,0.24 1.49,0.55 0.61,0.31 1.14,0.5 1.6,0.57 0.84,0.12 1.58,-0.1 2.2,-0.66 0.5,-0.58 1,-1.16 1.51,-1.74 0.36,-0.41 0.66,-0.6 0.89,-0.57 0.11,0.02 0.15,0.13 0.12,0.34 -0.04,0.29 -0.25,0.76 -0.62,1.41 -0.19,0.32 0.58,0.61 2.32,0.86 0.18,0.03 0.29,0 0.33,-0.09 0.03,-0.04 -0.01,-0.49 -0.12,-1.34 -0.03,-0.24 0.12,-0.56 0.45,-0.95 0.57,-0.71 0.9,-1.01 0.98,-0.91 0.35,0.47 0.46,1.13 0.34,1.97 -0.11,0.71 -0.39,1.51 -0.86,2.4 -0.47,0.89 -0.87,1.41 -1.2,1.57 -0.85,0.41 -2.04,0.1 -3.56,-0.94 -1.59,1.24 -3.04,1.76 -4.36,1.56 -0.39,-0.05 -0.87,-0.23 -1.45,-0.52 -0.57,-0.3 -1.01,-0.47 -1.3,-0.51 -2.27,-0.33 -4.72,0.41 -7.36,2.21 -1.94,1.42 -3.88,2.84 -5.84,4.26 -1.14,0.62 -2.25,1.01 -3.32,1.15z"/>
    <path class="fil2" d="M218.29 96.61c0,0.44 -0.55,1.43 -1.67,2.99 -1.25,1.73 -2.43,3 -3.56,3.81 -0.73,0.51 -3.13,1.3 -7.21,2.38 -0.59,0.15 -0.94,0.23 -1.05,0.22l0 -0.06c0.09,-0.09 0.33,-0.29 0.72,-0.59 0.52,-0.4 1.97,-1.23 4.35,-2.48 2.28,-1.21 3.61,-1.99 4,-2.32 0.06,-0.07 0.1,-0.14 0.1,-0.21 0,-0.54 -2.03,-0.81 -6.07,-0.81 -0.02,0 -0.8,0.04 -2.33,0.11 -0.33,0.01 -0.59,0.01 -0.77,-0.01l0 -0.88 1.38 -2.33c0.42,-0.71 1.19,-1.15 2.3,-1.34 0.4,-0.06 1.34,-0.1 2.81,-0.1 4.67,0 7,0.54 7,1.62z"/>
    <path class="fil2" d="M384.6 172.96c-0.53,1.63 -1.34,3.48 -2.44,5.54 -4.13,3.45 -7.52,5.92 -10.17,7.4 -4.62,2.6 -9.24,3.91 -13.85,3.91 -2.36,0 -4.14,-0.25 -5.33,-0.73l-1.46 -7.3c-2.81,-3.57 -4.22,-7.01 -4.22,-10.31 0,-5.21 1.59,-9.2 4.77,-12 2.72,-2.38 6.1,-3.57 10.14,-3.57 5.34,0 10.12,1.76 14.32,5.29 0.71,0.58 1.06,0.98 1.06,1.2 0,0.15 -0.13,0.22 -0.4,0.22 -0.34,0 -0.87,-0.14 -1.6,-0.4 -2.82,-1.02 -5.33,-1.54 -7.51,-1.54 -3.21,0 -6.5,0.48 -9.86,1.44 -3.37,0.96 -5.83,2.14 -7.39,3.52 0,3.46 1.2,6.86 3.61,10.21 2.94,4.08 6.7,6.13 11.27,6.13 2.35,0 5.43,-1.09 9.22,-3.25 3.09,-1.77 5.94,-3.8 8.57,-6.09 0.53,-0.46 0.92,-0.7 1.16,-0.73 0.39,0 0.43,0.36 0.11,1.06z"/>
    <path class="fil2" d="M179.67 205.64c-2.68,0 -4.94,-2.09 -6.78,-6.27 -1.66,-3.67 -2.48,-7.51 -2.48,-11.52 0,-4.81 0.47,-8.65 1.42,-11.52 0.34,-1.02 0.61,-1.53 0.8,-1.53 0.32,0 0.39,0.64 0.22,1.93 -0.39,3.01 -0.59,5.6 -0.59,7.77 0,10.16 2.37,15.24 7.11,15.24 1.92,0 3.66,-1.49 5.22,-4.45 1.65,-3.55 3.29,-7.1 4.92,-10.65 1.46,-2.94 3.21,-5.42 5.25,-7.44 2.16,-2.14 4.12,-3.2 5.87,-3.2 1.68,0 3.5,1.83 5.47,5.5 1.84,3.43 3.59,5.53 5.25,6.31 2.11,1 5.87,1.88 10.9,2.66 6.44,0.97 13.88,1.46 22.32,1.46 13.36,0 27.19,-1.5 41.48,-4.49 14.51,-3.06 26.1,-6.96 34.75,-11.7 0.41,-0.22 0.69,-0.3 0.84,-0.25 0.17,0.07 0.22,0.34 0.14,0.8 -0.14,1.09 -0.22,2.05 -0.22,2.88 0,3.98 1.73,5.98 5.18,5.98 4.77,0 8.25,-1.46 10.17,-4.33 1.41,-2.09 2.11,-5.65 2.11,-10.68 0,-14.17 -0.61,-26.16 -1.82,-35.98 -0.58,-4.74 -1.33,-9.43 -2.22,-14.07 0.48,-3.07 0.94,-5.18 1.38,-6.35 0.2,-0.51 0.37,-0.76 0.51,-0.76 0.17,0 0.34,0.26 0.51,0.8 1.61,5.18 2.91,11.75 3.9,19.72 0.51,4.06 0.9,10.21 1.17,18.45 0.27,8.34 0.58,14.04 0.95,17.1 0.65,5.39 1.81,8.9 3.46,10.53 1.9,1.88 3.9,3.31 6.02,4.31l0 7.29c-3.16,-1.29 -5.59,-2.68 -7.3,-4.16 -2.65,-2.23 -4.39,-5.13 -5.25,-8.68 -0.41,5.33 -2.34,9.2 -5.79,11.63 -2.29,1.63 -4.98,2.47 -7.8,2.47 -2.28,0 -4.17,-0.8 -5.65,-2.41 -1.6,-1.72 -2.48,-4.14 -2.62,-7.25 -9.92,5 -21.82,9.03 -35.7,12.06 -13.36,2.92 -26,4.38 -37.91,4.38 -15.53,0 -26.83,-1.37 -33.51,-4.12 -2.17,-0.9 -4.04,-2.4 -5.62,-4.49 -0.17,-0.21 -1.2,-1.89 -3.1,-5.03 -0.94,-1.6 -1.87,-2.4 -2.77,-2.4 -2.72,0 -5.59,2.31 -8.6,6.92 -0.54,0.83 -1.49,2.98 -2.88,6.44 -1.39,3.46 -2.59,5.97 -3.61,7.53 -1.6,2.38 -3.31,3.57 -5.1,3.57z"/>
    <path class="fil2" d="M324.4 105.94c0,-2.33 -0.36,-4.25 -1.09,-5.76 0,-0.85 0.68,-2.86 2.04,-6.05 0.17,-0.39 0.31,-0.58 0.44,-0.58 0.14,0 0.31,0.21 0.51,0.62 0.38,0.82 1.28,3.11 2.69,6.85 1.49,3.89 2.35,6.29 2.59,7.18 0.2,0.68 0.29,1.19 0.29,1.54 0,1.06 -1.03,0.42 -3.1,-1.94 -0.24,-0.34 -0.36,-0.19 -0.36,0.44 0,0.22 0.53,7.69 1.6,22.42 1.07,14.73 1.61,23.02 1.61,24.87 0,5.66 -0.86,10.64 -2.59,14.94 -0.36,0.88 -0.66,1.51 -0.87,1.9l0 0c-0.35,0.58 -0.55,0.67 -0.63,0.25 -0.09,-0.43 -0.06,-1.36 0.11,-2.77 0.22,-1.94 0.33,-4.2 0.33,-6.78 0,-2.33 -0.59,-11.93 -1.78,-28.8 -1.19,-16.87 -1.79,-26.31 -1.79,-28.33z"/>
    <path class="fil2" d="M232.26 153.51c-0.54,4.57 -0.9,6.86 -1.1,6.86 -0.19,0 -0.56,-1.87 -1.09,-5.62 -0.92,-5.98 -5.35,-12.78 -13.27,-20.41 -9.72,-9.24 -16.82,-16.63 -21.29,-22.17 -1.17,-1.6 -2.72,-3.81 -4.67,-6.63 -0.63,-0.93 -1.29,-1.58 -1.97,-1.97 -0.39,-0.24 -0.58,-0.63 -0.58,-1.17l0 -4.88c0,-0.98 0.17,-1.46 0.51,-1.46 0.24,0 0.68,0.24 1.31,0.73l9.26 7.07c0.68,0.53 1.02,0.95 1.02,1.24 0,0.19 -0.27,0.29 -0.8,0.29 -0.78,0 -2.06,-0.19 -3.86,-0.58 1.5,2.04 5.17,6.03 11.01,11.95 4.22,4.23 8.45,8.44 12.68,12.62 8.61,8.75 12.91,16.24 12.91,22.46 0,0.58 -0.03,1.14 -0.07,1.67zm40.72 4.16c2.96,0 5.81,-1.08 8.53,-3.24 0.24,-0.2 1.36,-1.35 3.35,-3.47 1.85,-1.97 2.85,-2.95 2.99,-2.95 0.44,0 0.51,0.44 0.22,1.31 -0.39,1.14 -0.58,1.88 -0.58,2.23 0,0.82 0.35,1.77 1.06,2.84 0.92,1.41 2.13,2.11 3.64,2.11 3.99,0 7.4,-2.86 10.25,-8.6 0.29,-0.58 0.63,-0.87 1.02,-0.87 0.31,0 0.47,0.26 0.47,0.8 0,0.19 -0.03,0.51 -0.09,0.94 -0.06,0.44 -0.09,0.77 -0.09,0.99 0,1.68 0.51,3.04 1.55,4.08 1.03,1.05 2.35,1.57 3.95,1.57 2.34,0 4.79,-0.9 6.98,-2.7 0.63,-0.54 0.95,-2.48 0.95,-5.84 0,-2.04 -0.53,-10.24 -1.57,-24.6 -1.05,-14.37 -1.57,-22.84 -1.57,-25.41 0,-2.34 -0.36,-4.26 -1.1,-5.76 0,-0.83 0.69,-2.85 2.05,-6.06 0.14,-0.39 0.29,-0.58 0.44,-0.58 0.14,0 0.31,0.22 0.51,0.66 0.38,0.82 1.28,3.11 2.69,6.85 1.46,3.89 2.34,6.27 2.63,7.15 0.14,0.73 0.22,1.24 0.22,1.53 0,1.07 -1.02,0.43 -3.07,-1.9 -0.24,-0.34 -0.36,-0.19 -0.36,0.44 0,0.14 0.46,6.54 1.39,19.18 0.92,12.63 1.38,20.17 1.38,22.6 0,7.05 -1.26,12.59 -3.79,16.62 -2.14,3.41 -4.86,5.11 -7.78,5.11 -3.67,0 -6.29,-2.32 -7.87,-6.96 -0.2,-0.61 -0.42,-0.61 -0.66,0 -2.09,5.37 -5.04,8.06 -8.86,8.06 -3.89,0 -6.2,-2.46 -6.92,-7.37 -0.05,-0.41 -0.11,-0.62 -0.19,-0.62 -0.07,0.05 -0.22,0.26 -0.43,0.62 -0.93,1.53 -2.3,3.1 -4.12,4.7 -2.89,2.58 -5.76,3.87 -8.61,3.87 -3.16,0 -5.36,-0.95 -6.6,-2.85 -0.75,-1.19 -1.18,-2.95 -1.27,-5.28 -0.03,-0.27 -0.15,-0.4 -0.37,-0.4 -0.39,0 -0.77,0.23 -1.16,0.69 -2.43,2.82 -4,4.53 -4.71,5.14 -3.08,2.65 -6.44,3.97 -9.84,3.97 -3.65,0 -6.27,-1.4 -7.87,-4.22 -1.07,-1.85 -1.8,-4.84 -2.19,-8.97 -1.36,6.61 -2.68,10.81 -3.94,12.61 -2.87,4.13 -6.17,7.05 -9.92,8.75 -1.45,0.63 -3.96,1.41 -7.51,2.33 -3.54,0.93 -6.14,1.49 -7.8,1.68 -0.68,0.05 -1.02,-0.02 -1.02,-0.22 0,-0.19 0.32,-0.48 0.95,-0.87 3.31,-1.9 8.58,-5.06 15.82,-9.48 8.17,-5.35 12.25,-13.2 12.25,-23.55 0,-13.47 -0.63,-25.21 -1.89,-35.22 -0.34,-3.31 -1.02,-8 -2.04,-14.07 0.53,-3.5 0.94,-5.62 1.23,-6.35 0.2,-0.53 0.37,-0.8 0.51,-0.8 0.15,0 0.32,0.27 0.51,0.8 1.61,5.21 2.9,11.79 3.87,19.76 0.68,5.35 1.17,13.66 1.46,24.94 0.29,10.16 0.68,16.45 1.16,18.89 0.59,2.77 1.49,4.66 2.7,5.68 0.88,0.68 2.12,1.02 3.72,1.02 3.57,0 6.81,-0.93 9.48,-2.81 1.07,-0.75 3.49,-3.01 7.25,-6.77 0.47,-0.47 0.9,-0.7 1.32,-0.7 0.65,0 0.84,0.44 0.54,1.31 -0.29,0.88 -0.43,1.69 -0.43,2.45 0,1.67 0.69,2.97 2.07,3.9 1.32,0.87 3.02,1.31 5.11,1.31z"/>
    <path class="fil2" d="M209.87 150.56c0,-0.59 -1.13,-1.35 -3.39,-2.3 -2.26,-0.95 -3.93,-1.32 -5,-1.13 -0.38,0.1 -0.53,0.24 -0.43,0.44 0.39,1.07 1.21,2.84 2.48,5.32 3.3,-1.07 5.42,-1.85 6.34,-2.33zm-28.15 14.43c6.66,-5.25 13.06,-8.89 19.18,-10.93 -0.44,-0.73 -1.07,-1.95 -1.89,-3.65 -0.39,-0.83 -0.59,-1.82 -0.59,-2.99 0,-1.9 0.49,-3.5 1.46,-4.81 1.12,-1.61 2.79,-2.41 5.03,-2.41 1.75,0 4.25,1.14 7.51,3.43 3.45,2.33 5.18,4.28 5.18,5.83 -0.49,2.04 -1.1,3.96 -1.82,5.76 -2.78,0.83 -6.13,1.87 -10.07,3.14 0.15,2.23 -0.07,3.35 -0.65,3.35 -0.44,0 -0.9,-0.85 -1.39,-2.55 -1.8,0.63 -4.3,1.7 -7.51,3.21 -4.67,2.14 -8.19,4.15 -10.57,6.05 -3.65,2.87 -7.34,6.34 -11.08,10.43 -4.28,4.71 -6.76,7.36 -7.44,7.94 -2.33,2.1 -4.62,3.14 -6.86,3.14 -2.43,0 -4.56,-1.1 -6.41,-3.32 -1.85,-2.21 -2.77,-4.94 -2.77,-8.2 0,-4.52 1.84,-10.38 5.54,-17.57 0.39,-0.73 0.7,-1.1 0.95,-1.1 0.09,0 0.14,0.1 0.14,0.3 0,0.72 -0.8,3.24 -2.4,7.54 -1.61,4.3 -2.41,7.72 -2.41,10.25 0,1.89 0.46,3.44 1.39,4.63 0.92,1.19 2.23,1.78 3.93,1.78 2.34,0 4.89,-1.14 7.66,-3.42 1.46,-1.22 3.96,-3.8 7.51,-7.73 3.4,-3.75 6.2,-6.44 8.38,-8.1z"/>
    <path class="fil2" d="M265.82 207.51l1.86 -3.83c0.15,-0.29 0.31,-0.44 0.47,-0.44 0.25,0 1.29,0.63 3.14,1.9 1.85,1.26 2.77,2 2.77,2.22 0,0.83 -0.81,2.55 -2.44,5.18 -0.2,0.32 -0.4,0.4 -0.62,0.26 -1.61,-1.2 -3.42,-2.45 -5.43,-3.76 -0.68,1.53 -1.35,2.83 -2.01,3.9 -0.19,0.34 -0.4,0.43 -0.62,0.26 -1.82,-1.39 -3.71,-2.69 -5.65,-3.91 -0.1,-0.07 -0.1,-0.21 0,-0.43l2.33 -4.78c0.15,-0.29 0.31,-0.44 0.48,-0.44 0.22,0 1.1,0.53 2.66,1.57 1.55,1.05 2.58,1.81 3.06,2.3z"/>
    <path class="fil2" d="M247.54 119.16c18.76,-6.97 38.37,-14.23 58.83,-21.8 0.79,-0.3 1.27,-0.4 1.42,-0.3 0.19,0.15 0.14,0.57 -0.15,1.27 -0.9,2.19 -1.62,3.51 -2.17,3.96 -16.94,6.23 -36.78,13.95 -59.53,23.14l0 -2.64c0.44,-1.16 0.97,-2.37 1.6,-3.63z"/>
    <path class="fil2" d="M217.76 112.15c18.76,-6.96 38.37,-14.23 58.83,-21.8 0.79,-0.29 1.26,-0.39 1.41,-0.29 0.2,0.15 0.15,0.57 -0.15,1.26 -0.89,2.19 -1.61,3.51 -2.16,3.96 -16.94,6.24 -36.78,13.95 -59.53,23.14l0 -2.63c0.43,-1.16 0.97,-2.38 1.6,-3.64z"/>
    <path class="fil2" d="M281.42 126.15c0,0.92 -0.2,1.88 -0.6,2.87 -0.54,1.27 -1.24,1.91 -2.08,1.91 -1.35,0 -2.3,-0.92 -2.87,-2.76 -0.64,2.35 -1.8,3.53 -3.5,3.53 -0.64,0 -1.19,-0.31 -1.66,-0.95 -0.54,-0.76 -0.81,-1.75 -0.81,-2.97l0 -2.9c0,-0.24 -0.16,-0.4 -0.48,-0.5 -0.32,-0.09 -0.48,-0.34 -0.48,-0.74 0,-0.64 0.27,-1.26 0.81,-1.87 0.5,-0.55 0.88,-0.82 1.13,-0.82 0.34,0 0.5,0.64 0.5,1.91 0,0.66 -0.05,1.22 -0.16,1.66 -0.1,0.45 -0.16,0.84 -0.16,1.17 0,0.69 0.14,1.35 0.43,1.98 0.33,0.73 0.74,1.1 1.23,1.1 0.64,0 1.24,-0.29 1.79,-0.87 0.55,-0.58 0.83,-1.25 0.83,-2.03 0,-0.45 -0.13,-1.22 -0.39,-2.3 -0.26,-1.08 -0.39,-1.76 -0.39,-2.02 0,-0.23 0.12,-0.6 0.36,-1.11 0.23,-0.51 0.41,-0.76 0.53,-0.76 0.21,0 0.49,0.72 0.83,2.16 0.34,1.44 0.51,2.5 0.51,3.18 0,1.98 0.77,2.97 2.3,2.97 0.66,0 1.07,-0.33 1.24,-0.99 -1.32,-2.31 -1.98,-4.08 -1.98,-5.3 0,-0.71 0.17,-1.34 0.53,-1.88 0.23,-0.38 0.4,-0.57 0.49,-0.6 0.1,0 0.17,0.24 0.21,0.71 0.07,0.66 0.18,1.2 0.32,1.62 0.03,0.05 0.34,0.87 0.96,2.44 0.37,0.95 0.56,1.67 0.56,2.16z"/>
    <path class="fil2" d="M182.33 133.74c0.38,-1.2 0.46,-2.41 0.25,-3.61 -0.25,-1.32 -0.85,-1.98 -1.8,-1.98 -0.45,0 -1.07,0.21 -1.86,0.65 -0.79,0.43 -1.18,0.86 -1.18,1.27 0,0.95 1.53,2.17 4.59,3.67zm-2.36 5.33c-3.84,-1.98 -5.77,-4.07 -5.77,-6.27 0,-2.65 1.22,-5.07 3.66,-7.26 2.44,-2.2 4.47,-3 6.09,-2.42 1.36,0.49 2.05,1.96 2.05,4.41 0,2.19 -0.46,4.65 -1.37,7.38 1.95,1.12 3.17,2.07 3.66,2.86 0,1.03 -0.86,2.79 -2.6,5.28 -0.5,-0.79 -1.68,-1.74 -3.54,-2.86 -2.15,2.98 -4.89,5.69 -8.2,8.13 -3.76,2.78 -7.22,4.87 -10.37,6.28 -0.66,0.33 -4.3,1.71 -10.93,4.16 -1.03,0.37 -1.71,0.56 -2.04,0.56 -0.17,0 -0.25,-0.05 -0.25,-0.13 0,-0.25 0.58,-0.74 1.74,-1.49 4.88,-2.9 9.79,-5.81 14.71,-8.75 5.88,-3.56 10.27,-6.85 13.16,-9.88z"/>
    <path class="fil2" d="M356.17 144.68c2.58,0 5.36,-0.44 8.35,-1.33 0.83,-0.23 1.24,-0.3 1.24,-0.19 0,0.1 -0.31,0.43 -0.93,0.97 -2.6,2.34 -5.94,3.51 -10.02,3.51 -1.28,0 -2.31,-0.33 -3.12,-0.99 -0.81,-0.67 -1.21,-1.51 -1.21,-2.52 0,-2.7 1.16,-5.54 3.47,-8.5 -2.03,-0.6 -3.04,-1.66 -3.04,-3.2 0,-1.3 0.81,-2.86 2.44,-4.68 1.62,-1.82 2.93,-2.73 3.91,-2.73 0.27,0 0.53,0.21 0.81,0.63 0.27,0.41 0.4,0.86 0.4,1.32 0,0.21 -0.27,0.71 -0.81,1.49 -0.55,0.78 -0.85,1.09 -0.9,0.93 -0.21,-0.8 -0.66,-1.21 -1.37,-1.21 -0.36,0 -0.81,0.31 -1.34,0.94 -0.54,0.62 -0.8,1.14 -0.8,1.56 0.65,1.06 1.75,1.6 3.31,1.6 0.52,0 1.34,-0.48 2.46,-1.44 0.65,-0.6 1.31,-1.21 1.99,-1.84 0.23,-0.18 0.35,0 0.35,0.55 0,1.19 -0.44,2.4 -1.33,3.62 -3.43,2.32 -5.98,4.98 -7.64,8 -0.31,0.57 -0.47,1.08 -0.47,1.52 0,1.32 1.42,1.99 4.25,1.99z"/>
   </g>
   <path class="fil3" d="M511.33 326.26c0.96,1.04 1.09,1.94 0.9,2.92 -0.33,1.77 -0.49,3.59 -1.01,5.3 -0.92,3 -2.2,4.78 -5.68,5.01 -0.15,0 -0.3,0.01 -0.46,0.01 -1.85,0 -3.59,-0.85 -4.74,-2.3 -2.12,-2.51 -2.86,-5.53 -2.64,-8.74 0.21,-2.93 0.66,-5.83 1.01,-8.75 0.46,-3.95 1.03,-7.89 1.38,-11.85 0.54,-5.95 -1.75,-10.93 -5.56,-15.27 -1.11,-1.26 -2.25,-2.55 -3.71,-3.11 -0.71,0.03 -0.72,0.48 -0.89,0.79 -0.32,0.56 -0.83,0.82 -1.42,0.67 -2.19,-0.57 -4.3,-1.33 -6.08,-2.82 -0.5,-0.38 -0.79,-0.96 -0.79,-1.59 0,-0.05 0.01,-0.1 0.01,-0.15 0.24,-2.84 0.7,-5.62 1.65,-8.31 0.05,-0.16 0.25,-0.27 0.51,-0.53 0.35,0.11 0.8,0.19 1.18,0.4 2.54,1.42 5.11,2.79 7.59,4.3 3.75,2.29 6.22,5.7 7.88,9.73 0.54,1.31 0.93,2.68 1.4,4.01 0.11,0.32 0.31,0.59 0.47,0.9 0.79,-0.41 0.66,-1.05 0.65,-1.55 -0.07,-2.78 -0.16,-5.75 -0.25,-8.54 -0.15,-3.5 0.74,-6.78 2.11,-9.9 1.03,-2.35 3.41,-3.18 5.64,-1.94 1.71,0.94 3.23,2.26 4.75,3.51 0.37,0.3 0.64,1.04 0.58,1.51 -0.27,1.76 -0.31,3.59 -1.22,5.35 -0.55,-0.19 -1.1,-0.28 -1.54,-0.55 -1.04,-0.64 -1.99,-1.43 -3.05,-2.04 -0.89,-0.5 -1.84,-0.91 -2.83,-1.2 -0.83,-0.24 -1.7,0.47 -1.84,1.33 -0.07,0.47 -0.09,0.96 -0.05,1.42 0.53,5.64 -0.36,11.16 -1.43,16.65 -0.42,2.14 -0.66,4.31 -1.02,6.46 -0.58,3.45 -1.19,6.9 -1.78,10.35 -0.27,1.59 -0.59,3.18 -0.77,4.77 -0.31,2.64 0.31,5.09 1.74,7.32 0.68,1.05 1.63,1.81 2.78,2.31 2.23,0.97 4.39,-0.01 5.11,-2.34 0.26,-0.81 0.43,-1.66 0.69,-2.46 0.11,-0.32 0.38,-0.58 0.73,-1.08z"/>
   <path class="fil2" d="M184.87 292.38c-3.16,-2.29 -8.91,-3.44 -17.26,-3.44 -3.53,0 -6.8,0.31 -9.83,0.93 5.56,3.71 9.86,7.27 12.89,10.67 3.15,-2.04 7.89,-4.76 14.2,-8.16zm254.53 -19.49c0,17.93 -3.22,32.03 -9.65,42.3 -5.44,8.66 -12.06,13.48 -19.48,13.48 -5.62,0 -10.63,-1.8 -15.02,-5.38 -5.08,-4.21 -8.35,-10.3 -9.84,-18.28 -1.17,7.61 -3.58,13.64 -7.24,18.09 -3.33,4.15 -7.47,6.23 -11.43,6.23 -9.34,0 -16.02,-5.91 -20.04,-17.72 -0.49,-1.55 -1.05,-1.55 -1.67,0 -5.32,13.66 -12.83,20.5 -22.54,20.5 -9.9,0 -15.77,-6.25 -17.63,-18.74 -0.12,-1.05 -0.28,-1.58 -0.46,-1.58 -0.19,0.12 -0.56,0.65 -1.12,1.58 -2.35,3.9 -5.84,7.89 -10.48,11.96 -7.35,6.56 -14.65,9.84 -21.89,9.84 -8.04,0 -13.64,-2.41 -16.79,-7.24 -1.92,-3.03 -3,-7.51 -3.25,-13.45 -0.06,-0.68 -0.37,-1.02 -0.93,-1.02 -0.98,0 -1.97,0.59 -2.97,1.77 -6.18,7.17 -10.17,11.53 -11.96,13.07 -7.85,6.75 -16.16,10.55 -24.82,10.55 -14.41,0 -28.79,-6.34 -43.14,-19.02 -11.62,8.23 -21.67,19.7 -30.15,34.42 -9.09,15.71 -13.63,30.71 -13.63,44.99 0,15.65 4.82,28.14 14.47,37.48 12.25,11.81 31.72,17.72 58.44,17.72 7.55,0 18.31,-0.37 32.29,-1.12 17.25,-0.98 30.05,-2.13 38.4,-3.43 1.92,-0.31 3.46,-0.46 4.64,-0.46 1.54,0 2.32,0.25 2.32,0.74 0,0.81 -2.01,1.95 -6.03,3.43 -5.63,2.11 -23.16,7.98 -52.6,17.63 -6.8,1.36 -12.83,2.04 -18.09,2.04 -53.43,0 -80.15,-20.32 -80.15,-60.95 0,-25.11 4.86,-47.19 14.56,-66.23 6,-11.69 14.94,-23.59 26.81,-35.72 -4.51,-4.58 -9.27,-8.41 -14.28,-11.5 -4.52,-2.79 -7.83,-4.18 -9.93,-4.18 -2.35,0 -5.97,1.49 -10.85,4.46 -0.81,0.49 -1.45,0.74 -1.95,0.74 -1.05,0 -1.23,-1.11 -0.56,-3.34l4.27 -13.91c0.87,-2.79 5.75,-5.65 14.66,-8.59 8.9,-2.93 17.44,-4.4 25.6,-4.4 9.4,0 18.25,1.14 26.53,3.43 6.99,1.98 12.25,4.3 15.77,6.96 2.79,2.1 3.65,4.36 2.6,6.77 -1.18,3.77 -3.03,7.92 -5.57,12.43 -4.76,2.17 -12.34,5.94 -22.72,11.32 2.47,2.59 6.49,4.87 12.06,6.82 5.56,1.94 10.97,2.92 16.23,2.92 9.09,0 17.09,-2.82 23.89,-7.58 2.72,-1.92 8.87,-7.67 18.46,-17.25 1.18,-1.18 2.29,-1.77 3.34,-1.77 1.67,0 2.14,1.11 1.39,3.34 -0.74,2.23 -1.11,4.3 -1.11,6.22 0,4.26 1.76,7.57 5.29,9.92 3.34,2.23 7.67,3.34 12.99,3.34 7.54,0 14.78,-2.75 21.7,-8.25 0.62,-0.49 3.46,-3.44 8.54,-8.82 4.7,-5 7.23,-7.51 7.6,-7.51 1.12,0 1.3,1.11 0.56,3.34 -0.99,2.91 -1.48,4.79 -1.48,5.66 0,2.1 0.89,4.51 2.69,7.23 2.35,3.59 5.44,5.38 9.27,5.38 10.15,0 18.83,-7.29 26.07,-21.89 0.74,-1.48 1.61,-2.22 2.6,-2.22 0.8,0 1.2,0.68 1.2,2.04 0,0.49 -0.08,1.29 -0.23,2.41 -0.16,1.11 -0.23,1.95 -0.23,2.5 0,4.27 1.31,7.73 3.94,10.39 2.63,2.66 5.99,3.99 10.07,3.99 9.28,0 14.4,-4.15 14.4,-12.44 0,-1.97 -0.86,-6.95 -2.6,-14.93 -1.79,-8.47 -3.58,-15.49 -5.37,-21.06 -0.87,-2.72 -1.3,-4.17 -1.3,-4.36 0,-6.99 0.96,-12.58 2.87,-16.79 0.81,-1.73 1.36,-2.6 1.67,-2.6 0.31,0 0.77,0.59 1.39,1.76 4.27,8.23 8.1,22.15 11.51,41.75 2.04,11.87 5.07,19.85 9.09,23.93 2.72,2.73 6.68,4.08 11.87,4.08 5.94,0 11.88,-2.77 17.44,-7.35 1.61,-1.36 2.41,-6.31 2.41,-14.84 0,-5.2 -1.33,-26.07 -3.99,-62.62 -2.65,-36.55 -3.98,-58.1 -3.98,-64.66 0,-5.93 -0.93,-10.82 -2.79,-14.65 0,-2.11 1.74,-7.24 5.2,-15.4 0.37,-0.99 0.74,-1.49 1.11,-1.49 0.37,0 0.81,0.56 1.3,1.67 0.99,2.1 3.28,7.92 6.86,17.44 3.71,9.9 5.94,15.96 6.68,18.18 0.38,1.86 0.56,3.16 0.56,3.9 0,2.72 -2.6,1.11 -7.79,-4.82 -0.62,-0.87 -0.93,-0.5 -0.93,1.11 0,0.37 1.18,16.64 3.53,48.8 2.35,32.15 3.52,51.32 3.52,57.51z"/>
   <path class="fil2" d="M364.6 381.61l5.31 -10.93c0.42,-0.84 0.87,-1.25 1.35,-1.25 0.7,0 3.68,1.8 8.96,5.41 5.28,3.61 7.92,5.73 7.92,6.35 0,2.36 -2.33,7.29 -6.98,14.79 -0.56,0.9 -1.15,1.15 -1.77,0.73 -4.58,-3.4 -9.76,-6.97 -15.52,-10.72 -1.94,4.37 -3.85,8.08 -5.73,11.14 -0.55,0.97 -1.14,1.21 -1.77,0.73 -5.2,-3.96 -10.58,-7.68 -16.14,-11.14 -0.28,-0.21 -0.28,-0.63 0,-1.25l6.67 -13.65c0.41,-0.83 0.86,-1.25 1.35,-1.25 0.62,0 3.16,1.49 7.6,4.48 4.45,2.99 7.36,5.17 8.75,6.56z"/>
   <path class="fil2" d="M452.75 210.05c0,-6.01 -0.94,-10.96 -2.82,-14.84 0,-2.19 1.75,-7.39 5.26,-15.59 0.44,-1 0.82,-1.5 1.13,-1.5 0.37,0 0.81,0.53 1.31,1.59 1,2.13 3.32,8.02 6.95,17.66 3.82,10.02 6.04,16.19 6.67,18.5 0.5,1.76 0.75,3.07 0.75,3.95 0,2.75 -2.66,1.1 -7.98,-4.98 -0.63,-0.88 -0.94,-0.5 -0.94,1.13 0,0.56 1.38,19.82 4.13,57.76 2.76,37.94 4.13,59.29 4.13,64.05 0,14.59 -2.22,27.43 -6.66,38.51 -0.94,2.25 -1.69,3.88 -2.26,4.88l0 0c-0.87,1.51 -1.41,1.72 -1.6,0.66 -0.25,-1.13 -0.15,-3.51 0.29,-7.14 0.56,-5.01 0.84,-10.83 0.84,-17.47 0,-6.01 -1.53,-30.74 -4.6,-74.19 -3.07,-43.46 -4.6,-67.78 -4.6,-72.98z"/>
   <path class="fil2" d="M189.18 400.67c5.05,0 10.5,-0.87 16.35,-2.6 1.63,-0.46 2.45,-0.59 2.45,-0.38 0,0.2 -0.61,0.84 -1.84,1.9 -5.09,4.59 -11.63,6.88 -19.63,6.88 -2.5,0 -4.54,-0.65 -6.11,-1.95 -1.58,-1.3 -2.37,-2.94 -2.37,-4.93 0,-5.29 2.26,-10.84 6.8,-16.65 -3.98,-1.17 -5.96,-3.26 -5.96,-6.27 0,-2.54 1.59,-5.6 4.77,-9.17 3.19,-3.56 5.75,-5.34 7.68,-5.34 0.51,0 1.03,0.4 1.57,1.22 0.53,0.81 0.8,1.68 0.8,2.6 0,0.41 -0.53,1.37 -1.6,2.9 -1.08,1.53 -1.66,2.14 -1.76,1.83 -0.41,-1.57 -1.3,-2.36 -2.67,-2.36 -0.72,0 -1.6,0.61 -2.64,1.83 -1.05,1.22 -1.57,2.24 -1.57,3.06 1.28,2.08 3.44,3.13 6.5,3.13 1.01,0 2.62,-0.94 4.81,-2.83 1.27,-1.17 2.57,-2.37 3.9,-3.59 0.46,-0.36 0.68,0 0.68,1.07 0,2.34 -0.86,4.71 -2.59,7.1 -6.73,4.54 -11.72,9.76 -14.98,15.67 -0.61,1.12 -0.92,2.11 -0.92,2.98 0,2.6 2.78,3.9 8.33,3.9z"/>
   <path class="fil2" d="M248.23 400.78c-2.9,0.4 -4.55,0.57 -4.95,0.51 -0.1,-0.01 -0.15,-0.04 -0.14,-0.09 0.02,-0.15 1.16,-0.71 3.42,-1.67 2.12,-0.77 5.46,-2.43 10.02,-4.96 2.37,-1.72 5.75,-4.51 10.14,-8.36 3.02,-2.65 6.15,-4.86 9.41,-6.6 3.97,-2.1 7.78,-2.89 11.42,-2.35 0.86,0.12 1.97,0.53 3.31,1.21 1.34,0.69 2.52,1.11 3.53,1.26 1.88,0.27 3.5,-0.21 4.87,-1.46 1.11,-1.28 2.23,-2.56 3.35,-3.85 0.8,-0.91 1.46,-1.33 1.97,-1.26 0.25,0.04 0.34,0.29 0.27,0.74 -0.09,0.66 -0.55,1.7 -1.38,3.13 -0.42,0.71 1.3,1.35 5.14,1.92 0.4,0.06 0.65,-0.01 0.73,-0.21 0.06,-0.09 -0.02,-1.08 -0.26,-2.98 -0.08,-0.53 0.25,-1.23 1,-2.1 1.27,-1.57 1.98,-2.24 2.16,-2.01 0.77,1.05 1.02,2.51 0.75,4.38 -0.23,1.56 -0.86,3.33 -1.9,5.29 -1.04,1.97 -1.92,3.13 -2.64,3.49 -1.89,0.91 -4.53,0.22 -7.91,-2.09 -3.5,2.74 -6.72,3.9 -9.65,3.47 -0.86,-0.13 -1.92,-0.52 -3.2,-1.17 -1.27,-0.65 -2.24,-1.02 -2.89,-1.12 -5.01,-0.73 -10.44,0.9 -16.3,4.9 -4.28,3.14 -8.59,6.28 -12.92,9.42 -2.53,1.38 -4.98,2.24 -7.35,2.56z"/>
   <path class="fil2" d="M422.74 366.53c0.24,-0.48 0.48,-0.84 0.72,-1.07 0.24,-0.16 0.36,-0.12 0.36,0.12 0.08,0.23 0.08,0.63 0,1.19 -2.14,11.63 -5.63,17.45 -10.46,17.45 -5.14,0 -7.72,-4.27 -7.72,-12.82 0,-10.53 3.06,-21.58 9.15,-33.13 1.5,-2.86 2.41,-4.32 2.73,-4.4 0.08,0 0.12,0.04 0.12,0.12 0,0.56 -0.44,2.18 -1.31,4.87 -3.95,12.03 -5.93,20.46 -5.93,25.29 0,6.57 1.78,9.86 5.34,9.86 2.06,0 4.39,-2.5 7,-7.48z"/>
   <path class="fil2" d="M239.17 265.6c-0.52,1.25 -0.99,1.88 -1.4,1.88 -0.53,0 -0.61,-0.81 -0.24,-2.43 0.31,-1.41 0.47,-3.23 0.47,-5.48 0,-7.3 -4.12,-14.58 -12.37,-21.84 -0.52,-0.46 -0.6,-1.04 -0.23,-1.72l2.35 -4.15c0.21,-0.36 0.54,-0.36 1.01,0 8.09,6.01 12.14,14.2 12.14,24.58 0,3.24 -0.58,6.29 -1.73,9.16z"/>
   <path class="fil2" d="M305.98 432.89c3.55,0 6.75,2.11 9.57,6.34 2.82,4.22 4.81,9.73 5.95,16.53 0.13,0.7 0.19,1.11 0.19,1.23 0.13,0.19 0.23,0.19 0.29,0 0.07,-0.12 0.22,-0.53 0.48,-1.23 0.57,-4.07 1.97,-10.13 4.19,-18.2 2.41,-5.78 5.05,-8.67 7.9,-8.67 1.47,0 2.93,0.99 4.39,2.95 1.27,1.72 1.9,3.12 1.9,4.2 0,0.82 -0.22,1.9 -0.66,3.24 -0.58,1.77 -1.24,2.66 -2,2.66 -0.32,0 -1.02,-0.68 -2.1,-2.05 -1.08,-1.36 -2.19,-2.04 -3.33,-2.04 -2.54,0 -4.89,6 -7.05,18 -0.96,5.21 -2,8.89 -3.15,11.05 -0.82,1.46 -1.52,2.19 -2.09,2.19 -0.51,0 -0.77,-0.66 -0.77,-1.99 0,-2.1 -1.2,-6.18 -3.62,-12.25 -2.41,-6.07 -4.12,-9.1 -5.14,-9.1 -0.7,0 -1.14,0.22 -1.33,0.67 -0.19,0.44 -0.77,0.67 -1.72,0.67 -1.08,0 -2.49,-0.8 -4.24,-2.38 -1.74,-1.59 -2.62,-2.86 -2.62,-3.82 0,-0.44 0.73,-1.88 2.19,-4.33 1.46,-2.44 2.38,-3.67 2.77,-3.67z"/>
   <path class="fil2" d="M444.5 446.76c-0.38,0.65 -1.06,1.4 -2.02,2.24 -1.27,1.12 -2.21,1.51 -2.81,1.16 -0.24,-0.15 -0.48,-1.01 -0.69,-2.58 -0.21,-1.56 -0.77,-2.61 -1.67,-3.14 -1.99,-1.18 -6.6,2.44 -13.85,10.85 -3.15,3.64 -5.68,6.04 -7.57,7.21 -1.33,0.76 -2.21,1.01 -2.66,0.74 -0.4,-0.23 -0.29,-0.87 0.33,-1.92 0.97,-1.64 1.91,-5.39 2.82,-11.27 0.92,-5.87 0.97,-9.04 0.18,-9.51 -0.55,-0.32 -1,-0.35 -1.36,-0.09 -0.35,0.26 -0.9,0.17 -1.65,-0.27 -0.84,-0.5 -1.58,-1.78 -2.22,-3.83 -0.63,-2.05 -0.73,-3.45 -0.29,-4.19 0.2,-0.35 1.45,-1.15 3.72,-2.39 2.28,-1.24 3.57,-1.77 3.86,-1.6 2.79,1.65 4.32,4.78 4.58,9.4 0.26,4.61 -0.73,9.85 -2.98,15.71 -0.22,0.6 -0.37,0.96 -0.42,1.05 0.01,0.21 0.08,0.25 0.22,0.14 0.11,-0.07 0.43,-0.32 0.95,-0.75 2.33,-2.92 6.23,-7.03 11.7,-12.32 4.56,-3.42 7.97,-4.47 10.21,-3.14 1.14,0.67 1.83,2.12 2.06,4.34 0.21,1.93 0.06,3.32 -0.44,4.16zm-32.79 18.71c-4.06,2.91 -9.71,4.74 -16.94,5.51 -6.49,0.66 -12.13,0.72 -16.92,0.18 -1.03,-0.07 -6.39,-0.99 -16.09,-2.75 -1.51,-0.29 -2.49,-0.56 -2.93,-0.83 -0.2,-0.11 -0.27,-0.22 -0.21,-0.32 0.17,-0.3 1.24,-0.47 3.22,-0.52 8.74,0.2 21.47,-0.11 38.19,-0.92 4.42,-0.54 7.91,-1.3 10.5,-2.26 3.32,-1.19 5.1,-1.72 5.35,-1.57 0.05,0.03 0.05,0.1 -0.01,0.19 -0.21,0.35 -1.59,1.45 -4.16,3.29z"/>
   <path class="fil2" d="M496.99 242.7c-0.52,1.25 -0.99,1.88 -1.41,1.88 -0.52,0 -0.6,-0.81 -0.24,-2.43 0.32,-1.41 0.47,-3.24 0.47,-5.48 0,-7.31 -4.12,-14.59 -12.36,-21.84 -0.53,-0.47 -0.6,-1.04 -0.24,-1.72l2.35 -4.15c0.21,-0.36 0.55,-0.36 1.02,0 8.09,6 12.13,14.2 12.13,24.58 0,3.24 -0.58,6.29 -1.72,9.16z"/>
   <path class="fil2" d="M403.23 114.81c0,0.71 -0.91,2.33 -2.72,4.86 -2.03,2.83 -3.97,4.91 -5.81,6.22 -1.18,0.83 -5.1,2.12 -11.75,3.88 -0.96,0.25 -1.53,0.36 -1.71,0.36l0 -0.1c0.16,-0.15 0.55,-0.47 1.18,-0.96 0.85,-0.66 3.21,-2.01 7.09,-4.04 3.7,-1.98 5.88,-3.24 6.51,-3.79 0.11,-0.11 0.16,-0.22 0.16,-0.33 0,-0.88 -3.29,-1.32 -9.89,-1.32 -0.03,0 -1.29,0.05 -3.79,0.16 -0.54,0.03 -0.96,0.03 -1.26,-0.01l0 -1.43 2.25 -3.79c0.68,-1.16 1.94,-1.88 3.75,-2.19 0.66,-0.11 2.18,-0.16 4.57,-0.16 7.62,0 11.42,0.88 11.42,2.64z"/>
   <path class="fil2" d="M304.27 238.3c31.53,-11.71 64.49,-23.92 98.87,-36.64 1.34,-0.5 2.13,-0.67 2.38,-0.5 0.33,0.25 0.25,0.96 -0.25,2.13 -1.51,3.68 -2.72,5.9 -3.64,6.65 -28.47,10.48 -61.82,23.45 -100.05,38.89l0 -4.42c0.73,-1.96 1.63,-3.99 2.69,-6.11z"/>
   <path class="fil2" d="M101.96 312.43c0,-1.86 -3.34,-4.65 -10,-8.37 -2.06,3.91 -3.08,7.44 -3.08,10.58 0,1.99 0.93,2.98 2.79,2.98 1.67,0 3.59,-0.58 5.77,-1.73 2.18,-1.15 3.68,-2.31 4.52,-3.46zm-6.54 -17.12c6.73,4.94 9.87,9.87 9.42,14.81 -0.45,5.32 -1.18,8.65 -2.21,10 -2.95,3.97 -6.6,5.96 -10.96,5.96 -4.23,0 -6.35,-2.56 -6.35,-7.69 0,-1.16 0.13,-2.4 0.39,-3.75 0.7,-4.29 2.72,-10.38 6.05,-18.27 2.83,-6.73 4.24,-12.37 4.24,-16.92 0,-9.04 -4.17,-17.73 -12.51,-26.06 -0.64,-0.65 -0.73,-1.35 -0.28,-2.12l2.88 -5.09c0.26,-0.46 0.67,-0.46 1.25,0 8.34,6.85 12.5,16.69 12.5,29.51 0,6.03 -1.47,12.57 -4.42,19.62z"/>
   <path class="fil2" d="M157.23 220.23c-1.27,4.39 -2.44,6.74 -3.52,7.05l-0.47 -0.09c-0.89,-1.21 -1.88,-2.42 -3,-3.62l-0.43 0 -2.53 9.34c-0.19,2.28 -0.44,4.29 -0.75,6.06 -0.4,2.66 -1.45,4.7 -3.06,6.15l-0.74 -0.09c-0.25,-0.06 -2.04,-4.18 -5.44,-12.31 -1.49,-3.4 -2.72,-5.57 -3.71,-6.52 -0.28,1.33 -1.02,1.88 -2.17,1.73 -2.78,-2.26 -4.7,-5.01 -5.81,-8.26 2.13,-7.3 4.3,-10.79 6.52,-10.42l0.19 0.09c5.38,8.17 8.63,14.23 9.71,18.22 1.27,3.49 1.98,5.28 2.16,5.35 2.97,-12.28 5.48,-18.87 7.52,-19.76 1.64,0.24 3.12,1.76 4.45,4.54 0.9,0.47 1.27,1.33 1.08,2.54z"/>
  </g>
 </g>
</svg>
