<?xml version="1.0" encoding="utf-8"?>
<!DOCTYPE svg PUBLIC "-//W3C//DTD SVG 1.1//EN" "http://www.w3.org/Graphics/SVG/1.1/DTD/svg11.dtd">
<svg version="1.1" id="Layer_1" xmlns="http://www.w3.org/2000/svg" xmlns:xlink="http://www.w3.org/1999/xlink" x="0px" y="0px"
	 viewBox="0 0 600 600" enable-background="new 0 0 600 600" xml:space="preserve">
<g id="Layer_x0020_1">
	<polygon fill="#FF0066" points="300,0 314.9,15.8 331.4,1.6 344.5,18.9 362.4,6.6 373.7,25.1 392.7,14.7 402,34.3 422,25.9 
		429.2,46.4 450,40.2 455,61.3 476.3,57.3 479.1,78.8 500.7,77.1 501.3,98.8 522.9,99.3 521.2,120.9 542.7,123.7 538.7,145 
		559.8,150 553.6,170.8 574.1,178 565.7,198 585.3,207.3 574.9,226.3 593.4,237.6 581.1,255.5 598.4,268.6 584.2,285.1 600,300 
		584.2,314.9 598.4,331.4 581.1,344.5 593.4,362.4 574.9,373.7 585.3,392.7 565.7,402 574.1,422 553.6,429.2 559.8,450 538.7,455 
		542.7,476.3 521.2,479.1 522.9,500.7 501.3,501.3 500.7,522.9 479.1,521.2 476.3,542.7 455,538.7 450,559.8 429.2,553.6 422,574.1 
		402,565.7 392.7,585.3 373.7,574.9 362.4,593.4 344.5,581.1 331.4,598.4 314.9,584.2 300,600 285.1,584.2 268.6,598.4 255.5,581.1 
		237.6,593.4 226.3,574.9 207.3,585.3 198,565.7 178,574.1 170.8,553.6 150,559.8 145,538.7 123.7,542.7 120.9,521.2 99.3,522.9 
		98.8,501.3 77.1,500.7 78.8,479.1 57.3,476.3 61.3,455 40.2,450 46.4,429.2 25.9,422 34.3,402 14.7,392.7 25.1,373.7 6.6,362.4 
		18.9,344.5 1.6,331.4 15.8,314.9 0,300 15.8,285.1 1.6,268.6 18.9,255.5 6.6,237.6 25.1,226.3 14.7,207.3 34.3,198 25.9,178 
		46.4,170.8 40.2,150 61.3,145 57.3,123.7 78.8,120.9 77.1,99.3 98.8,98.8 99.3,77.1 120.9,78.8 123.7,57.3 145,61.3 150,40.2 
		170.8,46.4 178,25.9 198,34.3 207.3,14.7 226.3,25.1 237.6,6.6 255.5,18.9 268.6,1.6 285.1,15.8 	"/>
	<path fill="#F3F3EB" d="M36.5,300c0-145.5,118-263.5,263.5-263.5s263.5,118,263.5,263.5S445.5,563.5,300,563.5S36.5,445.5,36.5,300
		z M300,29C150.3,29,29,150.3,29,300s121.3,271,271,271s271-121.3,271-271S449.7,29,300,29z"/>
	<path fill="#F3F3EB" d="M300,539.7C167.6,539.7,60.4,432.4,60.4,300S167.6,60.4,300,60.4S539.7,167.6,539.7,300
		S432.4,539.7,300,539.7L300,539.7z M300,44.1C158.7,44.1,44.1,158.7,44.1,300S158.7,555.9,300,555.9S555.9,441.3,555.9,300
		S441.3,44.1,300,44.1L300,44.1z"/>
	<g id="_1323652853184">
		<path fill="#FFFFFF" d="M223.1,249c-1.3,0.2-2,0.3-2.2,0.2c-0.1,0-0.1,0-0.1-0.1c0-0.1,0.5-0.3,1.5-0.7c0.9-0.4,2.4-1.1,4.4-2.2
			c1.1-0.8,2.5-2,4.5-3.7c1.3-1.2,2.7-2.2,4.2-2.9c1.8-0.9,3.4-1.3,5.1-1c0.4,0.1,0.9,0.2,1.5,0.5c0.6,0.3,1.1,0.5,1.6,0.6
			c0.8,0.1,1.6-0.1,2.1-0.6c0.5-0.6,1-1.1,1.5-1.7c0.4-0.4,0.6-0.6,0.9-0.6c0.1,0,0.1,0.1,0.1,0.3c0,0.3-0.2,0.8-0.6,1.4
			c-0.2,0.3,0.6,0.6,2.3,0.9c0.2,0,0.3,0,0.3-0.1c0,0,0-0.5-0.1-1.3c0-0.2,0.1-0.6,0.4-0.9c0.6-0.7,0.9-1,0.9-0.9
			c0.4,0.5,0.5,1.1,0.3,1.9c-0.1,0.7-0.4,1.5-0.8,2.4c-0.5,0.9-0.9,1.4-1.2,1.5c-0.8,0.4-2,0.1-3.5-0.9c-1.6,1.2-3,1.7-4.3,1.5
			c-0.4-0.1-0.9-0.2-1.4-0.5c-0.6-0.3-1-0.5-1.3-0.5c-2.2-0.3-4.6,0.4-7.2,2.2c-1.9,1.4-3.8,2.8-5.7,4.2
			C225.3,248.5,224.2,248.9,223.1,249L223.1,249z"/>
		<path fill="#FFFFFF" d="M172.7,165.2c0,0.4-0.5,1.4-1.6,2.9c-1.2,1.7-2.4,2.9-3.5,3.7c-0.7,0.5-3.1,1.3-7.1,2.3
			c-0.6,0.1-0.9,0.2-1,0.2v-0.1c0.1-0.1,0.3-0.3,0.7-0.6c0.5-0.4,1.9-1.2,4.3-2.4c2.2-1.2,3.5-1.9,3.9-2.3c0.1-0.1,0.1-0.1,0.1-0.2
			c0-0.5-2-0.8-6-0.8c0,0-0.8,0-2.3,0.1c-0.3,0-0.6,0-0.8,0v-0.9l1.4-2.3c0.4-0.7,1.2-1.1,2.3-1.3c0.4-0.1,1.3-0.1,2.8-0.1
			C170.4,163.6,172.7,164.1,172.7,165.2L172.7,165.2z"/>
		<path fill="#FFFFFF" d="M335.9,240.1c-0.5,1.6-1.3,3.4-2.4,5.4c-4,3.4-7.4,5.8-10,7.3c-4.5,2.6-9.1,3.8-13.6,3.8
			c-2.3,0-4-0.2-5.2-0.7l-1.4-7.2c-2.8-3.5-4.1-6.9-4.1-10.1c0-5.1,1.6-9,4.7-11.8c2.7-2.3,6-3.5,9.9-3.5c5.3,0,9.9,1.7,14,5.2
			c0.7,0.6,1,1,1,1.2c0,0.1-0.1,0.2-0.4,0.2c-0.3,0-0.9-0.1-1.6-0.4c-2.8-1-5.2-1.5-7.4-1.5c-3.1,0-6.4,0.5-9.7,1.4
			s-5.7,2.1-7.2,3.4c0,3.4,1.2,6.7,3.5,10c2.9,4,6.6,6,11,6c2.3,0,5.3-1.1,9-3.2c3-1.7,5.8-3.7,8.4-6c0.5-0.5,0.9-0.7,1.1-0.7
			C336.2,239,336.2,239.4,335.9,240.1L335.9,240.1z"/>
		<path fill="#FFFFFF" d="M134.8,272.1c-2.6,0-4.8-2-6.6-6.1c-1.6-3.6-2.4-7.4-2.4-11.3c0-4.7,0.5-8.5,1.4-11.3
			c0.3-1,0.6-1.5,0.8-1.5c0.3,0,0.4,0.6,0.2,1.9c-0.4,2.9-0.6,5.5-0.6,7.6c0,10,2.3,15,7,15c1.9,0,3.6-1.5,5.1-4.4
			c1.6-3.5,3.2-7,4.8-10.4c1.4-2.9,3.1-5.3,5.1-7.3c2.1-2.1,4-3.1,5.8-3.1c1.6,0,3.4,1.8,5.4,5.4c1.8,3.4,3.5,5.4,5.1,6.2
			c2.1,1,5.8,1.9,10.7,2.6c6.3,1,13.6,1.4,21.9,1.4c13.1,0,26.7-1.5,40.7-4.4c14.2-3,25.6-6.8,34.1-11.5c0.4-0.2,0.7-0.3,0.8-0.3
			c0.2,0.1,0.2,0.3,0.1,0.8c-0.1,1.1-0.2,2-0.2,2.8c0,3.9,1.7,5.9,5.1,5.9c4.7,0,8.1-1.4,10-4.2c1.4-2.1,2.1-5.5,2.1-10.5
			c0-13.9-0.6-25.7-1.8-35.3c-0.6-4.6-1.3-9.3-2.2-13.8c0.5-3,0.9-5.1,1.4-6.2c0.2-0.5,0.4-0.8,0.5-0.8c0.2,0,0.3,0.3,0.5,0.8
			c1.6,5.1,2.9,11.5,3.8,19.4c0.5,4,0.9,10,1.1,18.1c0.3,8.2,0.6,13.8,0.9,16.8c0.6,5.3,1.8,8.7,3.4,10.3c1.9,1.8,3.8,3.2,5.9,4.2
			v7.1c-3.1-1.3-5.5-2.6-7.1-4.1c-2.6-2.2-4.3-5-5.1-8.5c-0.4,5.2-2.3,9-5.7,11.4c-2.2,1.6-4.9,2.4-7.6,2.4c-2.2,0-4.1-0.8-5.5-2.4
			c-1.6-1.7-2.4-4.1-2.6-7.1c-9.7,4.9-21.4,8.9-35,11.8c-13.1,2.9-25.5,4.3-37.2,4.3c-15.2,0-26.3-1.4-32.9-4
			c-2.1-0.9-4-2.4-5.5-4.4c-0.2-0.2-1.2-1.9-3-4.9c-0.9-1.6-1.8-2.4-2.7-2.4c-2.7,0-5.5,2.3-8.4,6.8c-0.5,0.8-1.5,2.9-2.8,6.3
			s-2.5,5.9-3.5,7.4C138.3,271,136.6,272.1,134.8,272.1L134.8,272.1z"/>
		<path fill="#FFFFFF" d="M276.8,174.3c0-2.3-0.4-4.2-1.1-5.6c0-0.8,0.7-2.8,2-5.9c0.2-0.4,0.3-0.6,0.4-0.6c0.1,0,0.3,0.2,0.5,0.6
			c0.4,0.8,1.3,3.1,2.6,6.7c1.5,3.8,2.3,6.2,2.5,7c0.2,0.7,0.3,1.2,0.3,1.5c0,1.1-1,0.4-3-1.9c-0.2-0.3-0.4-0.2-0.4,0.4
			c0,0.2,0.5,7.5,1.6,22c1,14.4,1.6,22.6,1.6,24.4c0,5.6-0.9,10.4-2.5,14.7c-0.4,0.9-0.6,1.5-0.9,1.9l0,0c-0.3,0.6-0.5,0.6-0.6,0.3
			c-0.1-0.4-0.1-1.3,0.1-2.7c0.2-1.9,0.3-4.1,0.3-6.6c0-2.3-0.6-11.7-1.8-28.3C277.4,185.6,276.8,176.3,276.8,174.3L276.8,174.3z"/>
		<path fill="#FFFFFF" d="M186.4,221c-0.5,4.5-0.9,6.7-1.1,6.7s-0.6-1.8-1.1-5.5c-0.9-5.9-5.3-12.5-13-20
			c-9.5-9.1-16.5-16.3-20.9-21.8c-1.1-1.6-2.7-3.7-4.6-6.5c-0.6-0.9-1.3-1.6-1.9-1.9c-0.4-0.2-0.6-0.6-0.6-1.1v-4.8
			c0-1,0.2-1.4,0.5-1.4c0.2,0,0.7,0.2,1.3,0.7l9.1,6.9c0.7,0.5,1,0.9,1,1.2c0,0.2-0.3,0.3-0.8,0.3c-0.8,0-2-0.2-3.8-0.6
			c1.5,2,5.1,5.9,10.8,11.7c4.1,4.1,8.3,8.3,12.4,12.4c8.4,8.6,12.7,15.9,12.7,22C186.5,219.9,186.5,220.5,186.4,221L186.4,221z
			 M226.4,225.1c2.9,0,5.7-1.1,8.4-3.2c0.2-0.2,1.3-1.3,3.3-3.4c1.8-1.9,2.8-2.9,2.9-2.9c0.4,0,0.5,0.4,0.2,1.3
			c-0.4,1.1-0.6,1.9-0.6,2.2c0,0.8,0.4,1.7,1,2.8c0.9,1.4,2.1,2.1,3.6,2.1c3.9,0,7.3-2.8,10.1-8.4c0.3-0.6,0.6-0.9,1-0.9
			c0.3,0,0.5,0.3,0.5,0.8c0,0.2,0,0.5-0.1,0.9s-0.1,0.8-0.1,1c0,1.6,0.5,3,1.5,4c1,1,2.3,1.5,3.9,1.5c2.3,0,4.7-0.9,6.8-2.6
			c0.6-0.5,0.9-2.4,0.9-5.7c0-2-0.5-10.1-1.5-24.1c-1-14.1-1.5-22.4-1.5-24.9c0-2.3-0.4-4.2-1.1-5.6c0-0.8,0.7-2.8,2-5.9
			c0.1-0.4,0.3-0.6,0.4-0.6c0.1,0,0.3,0.2,0.5,0.6c0.4,0.8,1.3,3.1,2.6,6.7c1.4,3.8,2.3,6.1,2.6,7c0.1,0.7,0.2,1.2,0.2,1.5
			c0,1.1-1,0.4-3-1.9c-0.2-0.3-0.4-0.2-0.4,0.4c0,0.1,0.5,6.4,1.4,18.8c0.9,12.4,1.4,19.8,1.4,22.2c0,6.9-1.2,12.4-3.7,16.3
			c-2.1,3.3-4.8,5-7.6,5c-3.6,0-6.2-2.3-7.7-6.8c-0.2-0.6-0.4-0.6-0.6,0c-2.1,5.3-4.9,7.9-8.7,7.9c-3.8,0-6.1-2.4-6.8-7.2
			c-0.1-0.4-0.1-0.6-0.2-0.6c-0.1,0-0.2,0.3-0.4,0.6c-0.9,1.5-2.3,3-4,4.6c-2.8,2.5-5.6,3.8-8.4,3.8c-3.1,0-5.3-0.9-6.5-2.8
			c-0.7-1.2-1.2-2.9-1.3-5.2c0-0.3-0.1-0.4-0.4-0.4c-0.4,0-0.8,0.2-1.1,0.7c-2.4,2.8-3.9,4.4-4.6,5c-3,2.6-6.3,3.9-9.7,3.9
			c-3.6,0-6.1-1.4-7.7-4.1c-1.1-1.8-1.8-4.7-2.1-8.8c-1.3,6.5-2.6,10.6-3.9,12.4c-2.8,4.1-6.1,6.9-9.7,8.6c-1.4,0.6-3.9,1.4-7.4,2.3
			c-3.5,0.9-6,1.5-7.7,1.6c-0.7,0-1,0-1-0.2s0.3-0.5,0.9-0.9c3.2-1.9,8.4-5,15.5-9.3c8-5.2,12-12.9,12-23.1
			c0-13.2-0.6-24.7-1.9-34.6c-0.3-3.2-1-7.8-2-13.8c0.5-3.4,0.9-5.5,1.2-6.2c0.2-0.5,0.4-0.8,0.5-0.8c0.1,0,0.3,0.3,0.5,0.8
			c1.6,5.1,2.8,11.6,3.8,19.4c0.7,5.2,1.1,13.4,1.4,24.5c0.3,10,0.7,16.1,1.1,18.5c0.6,2.7,1.4,4.6,2.6,5.6c0.9,0.7,2.1,1,3.6,1
			c3.5,0,6.7-0.9,9.3-2.8c1.1-0.7,3.4-2.9,7.1-6.6c0.4-0.4,0.9-0.7,1.3-0.7c0.6,0,0.8,0.4,0.5,1.3c-0.3,0.9-0.4,1.7-0.4,2.4
			c0,1.6,0.7,2.9,2,3.8C222.6,224.7,224.3,225.1,226.4,225.1L226.4,225.1z"/>
		<path fill="#FFFFFF" d="M164.5,218.1c0-0.6-1.1-1.3-3.3-2.3c-2.2-0.9-3.9-1.3-4.9-1.1c-0.4,0.1-0.5,0.2-0.4,0.4
			c0.4,1.1,1.2,2.8,2.4,5.2C161.5,219.3,163.6,218.6,164.5,218.1z M136.9,232.3c6.5-5.1,12.8-8.7,18.8-10.7
			c-0.4-0.7-1.1-1.9-1.9-3.6c-0.4-0.8-0.6-1.8-0.6-2.9c0-1.9,0.5-3.4,1.4-4.7c1.1-1.6,2.7-2.4,4.9-2.4c1.7,0,4.2,1.1,7.4,3.4
			c3.4,2.3,5.1,4.2,5.1,5.7c-0.5,2-1.1,3.9-1.8,5.6c-2.7,0.8-6,1.8-9.9,3.1c0.1,2.2-0.1,3.3-0.6,3.3c-0.4,0-0.9-0.8-1.4-2.5
			c-1.8,0.6-4.2,1.7-7.4,3.1c-4.6,2.1-8,4.1-10.4,5.9c-3.6,2.8-7.2,6.2-10.9,10.2c-4.2,4.6-6.6,7.2-7.3,7.8
			c-2.3,2.1-4.5,3.1-6.7,3.1c-2.4,0-4.5-1.1-6.3-3.3c-1.8-2.2-2.7-4.9-2.7-8c0-4.4,1.8-10.2,5.4-17.2c0.4-0.7,0.7-1.1,0.9-1.1
			c0.1,0,0.1,0.1,0.1,0.3c0,0.7-0.8,3.2-2.4,7.4c-1.6,4.2-2.4,7.6-2.4,10.1c0,1.9,0.5,3.4,1.4,4.6c0.9,1.2,2.2,1.8,3.9,1.8
			c2.3,0,4.8-1.1,7.5-3.4c1.4-1.2,3.9-3.7,7.4-7.6C132,236.5,134.7,233.9,136.9,232.3L136.9,232.3z"/>
		<path fill="#FFFFFF" d="M219.4,274l1.8-3.8c0.1-0.3,0.3-0.4,0.5-0.4c0.2,0,1.3,0.6,3.1,1.9c1.8,1.2,2.7,2,2.7,2.2
			c0,0.8-0.8,2.5-2.4,5.1c-0.2,0.3-0.4,0.4-0.6,0.3c-1.6-1.2-3.4-2.4-5.3-3.7c-0.7,1.5-1.3,2.8-2,3.8c-0.2,0.3-0.4,0.4-0.6,0.3
			c-1.8-1.4-3.6-2.6-5.5-3.8c-0.1-0.1-0.1-0.2,0-0.4l2.3-4.7c0.1-0.3,0.3-0.4,0.5-0.4c0.2,0,1.1,0.5,2.6,1.5
			C217.9,272.7,218.9,273.5,219.4,274L219.4,274z"/>
		<path fill="#FFFFFF" d="M201.4,187.3c18.4-6.8,37.6-14,57.7-21.4c0.8-0.3,1.2-0.4,1.4-0.3c0.2,0.1,0.1,0.6-0.1,1.3
			c-0.9,2.1-1.6,3.4-2.1,3.9c-16.6,6.1-36.1,13.7-58.4,22.7v-2.6C200.3,189.7,200.8,188.6,201.4,187.3L201.4,187.3z"/>
		<path fill="#FFFFFF" d="M172.2,180.4c18.4-6.8,37.6-14,57.7-21.4c0.8-0.3,1.2-0.4,1.4-0.3c0.2,0.1,0.1,0.6-0.1,1.2
			c-0.9,2.1-1.6,3.4-2.1,3.9c-16.6,6.1-36.1,13.7-58.4,22.7V184C171.1,182.9,171.6,181.7,172.2,180.4L172.2,180.4z"/>
		<path fill="#FFFFFF" d="M234.7,194.2c0,0.9-0.2,1.8-0.6,2.8c-0.5,1.3-1.2,1.9-2.1,1.9c-1.3,0-2.3-0.9-2.8-2.7
			c-0.6,2.3-1.8,3.5-3.4,3.5c-0.6,0-1.2-0.3-1.6-0.9c-0.5-0.7-0.8-1.7-0.8-2.9v-2.8c0-0.2-0.2-0.4-0.5-0.5c-0.3-0.1-0.5-0.3-0.5-0.7
			c0-0.6,0.3-1.2,0.8-1.8c0.5-0.5,0.9-0.8,1.1-0.8c0.3,0,0.5,0.6,0.5,1.9c0,0.6-0.1,1.2-0.1,1.6c-0.1,0.4-0.2,0.8-0.2,1.1
			c0,0.7,0.1,1.3,0.4,1.9c0.3,0.7,0.7,1.1,1.2,1.1c0.6,0,1.2-0.3,1.8-0.9c0.6-0.6,0.8-1.2,0.8-2c0-0.4-0.1-1.2-0.4-2.3
			c-0.3-1.1-0.4-1.7-0.4-2c0-0.2,0.1-0.6,0.3-1.1c0.2-0.5,0.4-0.8,0.5-0.8c0.2,0,0.5,0.7,0.8,2.1c0.3,1.4,0.5,2.4,0.5,3.1
			c0,1.9,0.8,2.9,2.3,2.9c0.6,0,1.1-0.3,1.2-1c-1.3-2.3-1.9-4-1.9-5.2c0-0.7,0.2-1.3,0.5-1.8c0.2-0.4,0.4-0.6,0.5-0.6
			c0.1,0,0.2,0.2,0.2,0.7c0.1,0.6,0.2,1.2,0.3,1.6c0,0.1,0.3,0.8,0.9,2.4C234.5,193,234.7,193.7,234.7,194.2L234.7,194.2z"/>
		<path fill="#FFFFFF" d="M137.4,201.6c0.4-1.2,0.4-2.4,0.2-3.5c-0.2-1.3-0.8-1.9-1.8-1.9c-0.4,0-1.1,0.2-1.8,0.6
			c-0.8,0.4-1.2,0.9-1.2,1.3C132.9,199,134.4,200.1,137.4,201.6L137.4,201.6z M135.1,206.9c-3.8-1.9-5.7-4-5.7-6.2
			c0-2.6,1.2-5,3.6-7.1c2.4-2.1,4.4-2.9,6-2.4c1.3,0.5,2,1.9,2,4.3c0,2.1-0.4,4.6-1.3,7.3c1.9,1.1,3.1,2,3.6,2.8
			c0,1-0.9,2.7-2.6,5.2c-0.5-0.8-1.6-1.7-3.5-2.8c-2.1,2.9-4.8,5.6-8.1,8c-3.7,2.7-7.1,4.8-10.2,6.1c-0.7,0.3-4.2,1.7-10.7,4.1
			c-1,0.4-1.7,0.5-2,0.5c-0.2,0-0.2,0-0.2-0.1c0-0.2,0.6-0.7,1.7-1.5c4.8-2.8,9.6-5.7,14.4-8.6C128,213,132.3,209.8,135.1,206.9
			L135.1,206.9z"/>
		<path fill="#FFFFFF" d="M307.5,214.3c3.1,0,6.5-0.5,10.1-1.6c1-0.3,1.5-0.4,1.5-0.2c0,0.1-0.4,0.5-1.1,1.2
			c-3.1,2.8-7.2,4.3-12.1,4.3c-1.5,0-2.8-0.4-3.8-1.2c-1-0.8-1.5-1.8-1.5-3.1c0-3.3,1.4-6.7,4.2-10.3c-2.5-0.7-3.7-2-3.7-3.9
			c0-1.6,1-3.5,3-5.7c2-2.2,3.5-3.3,4.7-3.3c0.3,0,0.6,0.3,1,0.8c0.3,0.5,0.5,1,0.5,1.6c0,0.3-0.3,0.9-1,1.8c-0.7,0.9-1,1.3-1.1,1.1
			c-0.3-1-0.8-1.5-1.6-1.5c-0.4,0-1,0.4-1.6,1.1c-0.6,0.8-1,1.4-1,1.9c0.8,1.3,2.1,1.9,4,1.9c0.6,0,1.6-0.6,3-1.8
			c0.8-0.7,1.6-1.5,2.4-2.2c0.3-0.2,0.4,0,0.4,0.7c0,1.4-0.5,2.9-1.6,4.4c-4.1,2.8-7.2,6-9.3,9.7c-0.4,0.7-0.6,1.3-0.6,1.8
			C302.4,213.5,304.1,214.3,307.5,214.3L307.5,214.3z"/>
	</g>
	<path fill="#FFFFFF" d="M398.3,146.8c-0.5,1.3-1,1.9-1.4,1.9c-0.5,0-0.6-0.8-0.2-2.4c0.3-1.4,0.5-3.2,0.5-5.5
		c0-7.3-4.1-14.6-12.4-21.8c-0.5-0.5-0.6-1-0.2-1.7l2.3-4.2c0.2-0.4,0.5-0.4,1,0c8.1,6,12.1,14.2,12.1,24.6
		C400,140.9,399.5,143.9,398.3,146.8L398.3,146.8z"/>
	<path fill="#FFFFFF" d="M261.9,101.1c-0.2,0.9-0.7,2-1.5,3.3c-1,1.8-1.9,2.5-2.7,2.4c-0.3-0.1-0.9-1-1.8-2.7
		c-0.8-1.7-1.9-2.7-3.1-2.9c-2.7-0.6-6.6,5.2-11.7,17.5c-2.2,5.3-4.2,9-5.9,11c-1.2,1.4-2.1,2-2.7,1.8c-0.5-0.1-0.6-0.9-0.3-2.3
		c0.5-2.2,0.1-6.8-1-13.8c-1.2-7-2.3-10.6-3.4-10.8c-0.7-0.2-1.3,0-1.6,0.4c-0.3,0.4-1,0.5-2,0.3c-1.2-0.3-2.6-1.5-4.3-3.8
		c-1.7-2.2-2.2-3.7-1.5-4.4c4.3-5,6.6-7.4,7.1-7.3c3.8,0.8,6.7,3.8,8.7,8.9c2,5.1,2.9,11.4,2.5,18.9c0,0.8-0.1,1.2-0.1,1.3
		c0.1,0.2,0.2,0.3,0.3,0.1c0.1-0.1,0.4-0.5,0.8-1.2c1.6-4.2,4.4-10.3,8.7-18.3c3.9-5.6,7.4-8,10.4-7.4c1.5,0.3,2.9,1.7,4,4.1
		C261.8,98.4,262.1,100,261.9,101.1z M157.9,124.5l0.3-1.4c0.5-0.2,1.1-0.5,1.9-0.7c10.1-3,24.4-8.1,42.9-15.3
		c7.7-3.7,12.9-7,15.4-10c1-1.1,1.6-1.7,2-1.6c0.1,0.1,0.2,0.2,0.1,0.4c-0.2,1-1.7,3.1-4.4,6.3c-4.5,5.3-10.3,9.5-17.1,12.6
		c-7.1,3.2-13.5,5.3-19.1,6.5c-1.1,0.3-7.5,1.2-19.3,2.9C159.5,124.4,158.6,124.5,157.9,124.5z"/>
	<path fill="#FFFFFF" d="M141.3,444.2c0.7-4.4,2.2-9.6,4.6-15.7c1.9-4.8,2.8-9.6,2.8-14.3c0-9-4.2-17.7-12.5-26
		c-0.6-0.6-0.7-1.3-0.3-2.1l2.9-5.1c0.3-0.5,0.7-0.5,1.3,0c8.3,6.8,12.5,16.7,12.5,29.5c0,6.1-1.3,12.6-4,19.5
		c-2.7,6.9-4,11.6-4,14.2c0,5.3,1.4,8,4.3,8c1.7,0,3.6-2,5.7-6c0.2-0.4,0.4-0.7,0.6-0.9c0.2-0.1,0.3-0.1,0.3,0.1
		c0.1,0.2,0.1,0.5,0,1c-1.7,9.4-4.5,14.1-8.4,14.1c-4,0-5.9-3.8-5.9-11.5C140.9,447.3,141,445.8,141.3,444.2L141.3,444.2z"/>
	<path fill="#FFFFFF" d="M391.2,275.9c-7.1-9.4-13.7-14-19.8-14c-9,0-13.4,2.3-13.4,7c0,5.9,6.2,8.9,18.6,8.9
		C381.1,277.7,385.9,277.1,391.2,275.9z M455.5,313.6c-3.7,6.5-5.5,7.9-5.5,4.3c0-0.9,0.3-2.1,0.8-3.7c3.3-10.6,4.9-17.3,4.9-20.1
		c0-4.2-2.6-5.8-7.8-4.9c-4.7,0.8-14.2,4.3-28.7,10.4l-0.7,0.4c0,5.9-1.4,13.2-4.3,22c-3.7,11.6-8.8,21.2-15.3,28.7
		c-15.3,17.7-31.8,33.4-49.8,47c-26.6,20.1-49.9,30.2-69.9,30.2c-16.7,0-29.6-6.2-38.8-18.6c-8.1-10.8-12.2-24.4-12.2-40.9
		c0-21.2,4.5-42.8,13.4-65c2-4.9,3.5-7.3,4.3-7.3c0.4,0.2,0.6,0.7,0.6,1.5c0,1.6-0.4,4-1.2,7c-6.3,22-9.5,38.7-9.5,50.1
		c0,10.4,2.6,19.3,7.9,26.9c7.7,10.6,20.2,15.9,37.5,15.9c15.1,0,33.2-6.4,54.3-19.2c17.3-10.4,33.8-23.1,49.4-38.1
		c14.2-13.6,21.4-22.7,21.4-27.2c0-3.3-0.6-6.6-1.8-10.1c-6.1,2-14.8,3-25.9,3c-24,0-36-8.2-36-24.7c0-12.6,4-23.7,11.9-33.3
		c7.5-8.9,15.5-13.4,23.8-13.4c6.3,0,13.1,4,20.5,11.9c6.5,7.1,12.3,16,17.4,26.5c0.4,0,1.3-0.3,2.9-0.8
		c18.3-7.7,31.2-11.5,38.6-11.5c8.1,0,12.2,4.3,12.2,12.8C469.9,282.7,465.1,296.1,455.5,313.6L455.5,313.6z"/>
	<path fill="#FFFFFF" d="M156.1,338.3c17.6,0,37.3-2.9,59.2-8.7c15.8-4.2,32.8-9.9,50.8-17.1c9.6-4,19.2-8.1,28.8-12.2
		c10.1-4,17.8-6,23-6c9.2,0,13.7,4.2,13.7,12.7c0,5.8-2.8,12.9-8.3,21.2c-1.4,2.1-5.5,7.4-12.4,16c-3.9,4.3-7.7,8.7-11.6,13.1
		c-4.9,5.5-8.6,10.7-11.2,15.6c-4.3,8-6.8,12-7.4,12c-0.2-0.1-0.2-0.2-0.2-0.5c0-1.3,1-5.1,2.9-11.6c2.9-9.6,9.8-20.6,20.6-32.8
		c9.9-11.1,14.8-17.8,14.8-20.3c0-1.6-1.5-2.4-4.5-2.4c-4.7,0-13.4,2.5-26.3,7.5c-28.8,11.2-46.1,17.7-52.1,19.6
		c-36.2,11.9-66.2,17.9-89.9,17.9c-25.1,0-43.2-6.6-54.4-19.9c-7.8-9.3-11.7-21.1-11.7-35.2c0-15,3.6-29,10.7-42
		c2.3-4.2,3.9-6.3,4.7-6.3c0.3,0.1,0.5,0.4,0.5,1c0,1.4-0.6,3.7-1.8,7.1c-1.8,4.7-3.5,9.3-5.3,13.9c-1.8,5.9-2.8,12.3-2.8,19
		c0,8.5,4.2,16.2,12.5,23C110.9,333.2,130,338.3,156.1,338.3L156.1,338.3z"/>
	<path fill="#FFFFFF" d="M179.4,389.8c-0.4-0.3-0.4-0.9,0-1.7l9-18.4c0.6-1.1,1.2-1.7,1.8-1.7c0.9,0,5,2.4,12.1,7.3
		s10.7,7.7,10.7,8.6c0,3.2-3.1,9.9-9.4,20c-0.8,1.3-1.6,1.6-2.4,1C194.2,399.5,187,394.4,179.4,389.8L179.4,389.8z"/>
	<path fill="#FFFFFF" d="M447.5,350.9l6.7-13.8c0.5-1.1,1.1-1.6,1.7-1.6c0.9,0,4.6,2.3,11.3,6.8c6.7,4.5,10,7.2,10,8
		c0,3-2.9,9.2-8.8,18.7c-0.7,1.1-1.5,1.4-2.2,0.9c-5.8-4.3-12.3-8.8-19.6-13.5c-2.5,5.5-4.9,10.2-7.2,14c-0.7,1.2-1.4,1.5-2.2,0.9
		c-6.6-5-13.4-9.7-20.4-14c-0.4-0.3-0.4-0.8,0-1.6l8.4-17.2c0.5-1,1.1-1.6,1.7-1.6c0.8,0,4,1.9,9.6,5.6
		C442.1,346.4,445.8,349.1,447.5,350.9L447.5,350.9z"/>
	<g id="_1.pdf">
		<path fill="#FFFFFF" d="M516.3,327.1c1.5-16.2-3.4-36.4-14.8-60.4c-2.5-5.3-10.2-19.2-23-41.8c-9-15.8-15.3-30-19-42.5
			c0.1-0.7,0.9-3.3,2.5-7.9c1.5-4.4,2.4-6.8,2.7-7.1c0.7-1.1,1.3-1.7,1.6-1.6c0.4,0,0.8,0.6,1.3,1.6c4.5,10.7,12.6,27,24.4,49
			c11.3,20.9,18.8,36.2,22.6,45.9c8.5,21.7,11.9,41.5,10.3,59.6c-2.3,24.8-11.9,47-28.9,66.6c-9,10.4-18.7,17.4-29.1,21.1
			c-4.1,1.5-11.1,3-21,4.6s-17.1,2.4-21.7,2.4c-1.9,0-2.8-0.2-2.7-0.8c0-0.5,1-1.2,2.9-2.2c9.2-4.1,24.4-11.4,45.4-21.8
			c12.9-6.7,23.4-15.5,31.5-26.4C510,353.9,515.1,341,516.3,327.1L516.3,327.1z"/>
	</g>
	<path fill="#FFFFFF" d="M440.2,223.9c0,1.8-0.4,3.6-1.2,5.5c-1,2.5-2.4,3.7-4,3.7c-2.6,0-4.4-1.8-5.5-5.3c-1.2,4.6-3.5,6.8-6.8,6.8
		c-1.2,0-2.3-0.6-3.2-1.8c-1-1.5-1.6-3.4-1.6-5.7v-5.6c0-0.5-0.3-0.8-0.9-1c-0.6-0.2-0.9-0.7-0.9-1.4c0-1.2,0.5-2.4,1.6-3.6
		c1-1.1,1.7-1.6,2.2-1.6c0.6,0,1,1.2,1,3.7c0,1.3-0.1,2.4-0.3,3.2c-0.2,0.9-0.3,1.6-0.3,2.3c0,1.3,0.3,2.6,0.8,3.8
		c0.6,1.4,1.4,2.1,2.4,2.1c1.2,0,2.4-0.6,3.5-1.7c1.1-1.1,1.6-2.4,1.6-3.9c0-0.9-0.3-2.3-0.8-4.4s-0.8-3.4-0.8-3.9
		c0-0.4,0.2-1.2,0.7-2.1c0.5-1,0.8-1.5,1-1.5c0.4,0,0.9,1.4,1.6,4.2s1,4.8,1,6.1c0,3.8,1.5,5.8,4.5,5.8c1.3,0,2.1-0.6,2.4-1.9
		c-2.5-4.5-3.8-7.9-3.8-10.3c0-1.4,0.3-2.6,1-3.6c0.5-0.7,0.8-1.1,1-1.2c0.2,0,0.3,0.5,0.4,1.4c0.1,1.3,0.3,2.3,0.6,3.1
		c0,0.1,0.7,1.7,1.8,4.7C439.8,221.6,440.2,223,440.2,223.9L440.2,223.9z"/>
	<path fill="#FFFFFF" d="M425.3,187.4c0.8-1.6,1.2-3.3,1.1-5.1c-0.1-1.9-0.8-3-2.2-3.2c-0.6-0.1-1.6,0.1-2.8,0.5
		c-1.2,0.5-1.9,1-2,1.6C419.3,182.5,421.2,184.6,425.3,187.4z M420.8,194.5c-5.1-3.7-7.4-7.1-7-10.2c0.6-3.8,2.8-7,6.8-9.6
		c4-2.6,7-3.4,9.2-2.2c1.9,1,2.5,3.3,2,6.8c-0.5,3.1-1.6,6.6-3.5,10.3c2.5,2,4.1,3.6,4.6,4.9c-0.2,1.5-1.8,3.8-4.9,7
		c-0.5-1.2-2-2.9-4.5-4.8c-3.7,3.8-8.2,7.1-13.5,9.9c-6,3.2-11.4,5.4-16.2,6.8c-1,0.3-6.5,1.6-16.5,3.6c-1.6,0.3-2.6,0.4-3.1,0.4
		c-0.2,0-0.4-0.1-0.3-0.2c0-0.4,1-0.9,2.8-1.8c7.6-3.1,15.3-6.3,23-9.4C409,202,416,198.2,420.8,194.5L420.8,194.5z"/>
	<path fill="#FFFFFF" d="M337.8,178.5c37.1-13.8,76-28.2,116.5-43.2c1.6-0.6,2.5-0.8,2.8-0.6c0.4,0.3,0.3,1.1-0.3,2.5
		c-1.8,4.3-3.2,6.9-4.3,7.8c-33.5,12.3-72.8,27.6-117.9,45.8v-5.2C335.5,183.4,336.6,181,337.8,178.5L337.8,178.5z"/>
	<path fill="#FFFFFF" d="M365.6,456.1c-0.4,0.6-1,1.4-2,2.2c-1.3,1.1-2.2,1.5-2.8,1.2c-0.3-0.1-0.5-1-0.7-2.6
		c-0.2-1.6-0.8-2.6-1.7-3.1c-2-1.2-6.6,2.4-13.9,10.9c-3.2,3.6-5.7,6-7.6,7.2c-1.3,0.8-2.2,1-2.6,0.7c-0.4-0.2-0.3-0.9,0.3-1.9
		c1-1.6,1.9-5.4,2.8-11.3c0.9-5.9,1-9,0.2-9.5c-0.5-0.3-1-0.4-1.4-0.1c-0.4,0.3-0.9,0.2-1.6-0.3c-0.9-0.5-1.6-1.8-2.2-3.8
		c-0.6-2-0.7-3.5-0.3-4.2c0.2-0.3,1.5-1.1,3.7-2.4c2.3-1.2,3.6-1.8,3.9-1.6c2.8,1.6,4.3,4.8,4.6,9.4c0.3,4.6-0.7,9.9-3,15.7
		c-0.2,0.6-0.4,1-0.4,1.1c0,0.2,0.1,0.3,0.2,0.1c0.1-0.1,0.4-0.3,0.9-0.8c2.3-2.9,6.2-7,11.7-12.3c4.6-3.4,8-4.5,10.2-3.1
		c1.1,0.7,1.8,2.1,2.1,4.3C366.2,453.9,366.1,455.3,365.6,456.1L365.6,456.1z M332.8,474.8c-4.1,2.9-9.7,4.7-16.9,5.5
		c-6.5,0.7-12.1,0.7-16.9,0.2c-1-0.1-6.4-1-16.1-2.8c-1.5-0.3-2.5-0.6-2.9-0.8c-0.2-0.1-0.3-0.2-0.2-0.3c0.2-0.3,1.3-0.5,3.2-0.5
		c8.8,0.2,21.5-0.1,38.2-0.9c4.4-0.5,7.9-1.3,10.5-2.3c3.3-1.2,5.1-1.7,5.4-1.6c0,0,0,0.1,0,0.2C336.7,471.9,335.4,473,332.8,474.8z
		"/>
	<path fill="#FFFFFF" d="M230.1,472.7c-0.5,1.3-1,1.9-1.4,1.9c-0.5,0-0.6-0.8-0.2-2.4c0.3-1.4,0.5-3.2,0.5-5.5
		c0-7.3-4.1-14.6-12.4-21.8c-0.5-0.5-0.6-1-0.2-1.7l2.4-4.1c0.2-0.4,0.5-0.4,1,0c8.1,6,12.1,14.2,12.1,24.6
		C231.8,466.8,231.2,469.8,230.1,472.7L230.1,472.7z"/>
	<path fill="#FFFFFF" d="M331.2,134.9c1,1,1.1,1.9,0.9,2.9c-0.3,1.8-0.5,3.6-1,5.3c-0.9,3-2.2,4.8-5.7,5c-0.1,0-0.3,0-0.5,0
		c-1.9,0-3.6-0.9-4.7-2.3c-2.1-2.5-2.9-5.5-2.6-8.8c0.2-2.9,0.7-5.8,1-8.7c0.5-3.9,1-7.9,1.4-11.8c0.5-5.9-1.8-10.9-5.6-15.3
		c-1.1-1.3-2.2-2.5-3.7-3.1c-0.7,0-0.7,0.5-0.9,0.8c-0.3,0.6-0.8,0.8-1.4,0.7c-2.2-0.6-4.3-1.3-6.1-2.8c-0.5-0.4-0.8-1-0.8-1.6
		c0-0.1,0-0.1,0-0.2c0.3-2.8,0.7-5.6,1.7-8.3c0-0.2,0.3-0.3,0.5-0.5c0.3,0.1,0.8,0.2,1.2,0.4c2.5,1.4,5.1,2.8,7.6,4.3
		c3.8,2.3,6.2,5.7,7.9,9.7c0.5,1.3,0.9,2.7,1.4,4c0.1,0.3,0.3,0.6,0.5,0.9c0.8-0.4,0.7-1.1,0.6-1.6c-0.1-2.8-0.2-5.8-0.3-8.5
		c-0.1-3.5,0.8-6.8,2.1-9.9c1-2.3,3.4-3.2,5.6-1.9c1.7,0.9,3.2,2.3,4.8,3.5c0.4,0.3,0.6,1,0.6,1.5c-0.3,1.8-0.3,3.6-1.2,5.3
		c-0.5-0.2-1.1-0.3-1.5-0.6c-1-0.6-2-1.4-3-2c-0.9-0.5-1.9-0.9-2.8-1.2c-0.8-0.2-1.7,0.5-1.8,1.3c-0.1,0.5-0.1,0.9,0,1.4
		c0.5,5.6-0.4,11.2-1.4,16.7c-0.4,2.1-0.6,4.3-1,6.4c-0.6,3.5-1.2,6.9-1.8,10.4c-0.3,1.6-0.6,3.2-0.8,4.8c-0.3,2.6,0.3,5.1,1.8,7.3
		c0.7,1.1,1.6,1.8,2.8,2.3c2.2,1,4.4,0,5.1-2.3c0.3-0.8,0.4-1.7,0.7-2.5C330.6,135.7,330.9,135.4,331.2,134.9L331.2,134.9z"/>
</g>
</svg>
