<?xml version="1.0" encoding="UTF-8"?>
<!DOCTYPE svg PUBLIC "-//W3C//DTD SVG 1.1//EN" "http://www.w3.org/Graphics/SVG/1.1/DTD/svg11.dtd">
<svg xmlns="http://www.w3.org/2000/svg" xml:space="preserve" width="600px" height="600px" version="1.1" style="shape-rendering:geometricPrecision; text-rendering:geometricPrecision; image-rendering:optimizeQuality; fill-rule:evenodd; clip-rule:evenodd"
viewBox="0 0 600 600"
 xmlns:xlink="http://www.w3.org/1999/xlink">
 <defs>
  <style type="text/css">
   <![CDATA[
    .fil0 {fill:#CC3399}
    .fil1 {fill:#F3F3EB}
    .fil3 {fill:white}
    .fil2 {fill:white;fill-rule:nonzero}
   ]]>
  </style>
 </defs>
 <g id="Layer_x0020_1">
  <metadata id="Wiki-Layer"/>
  <polygon class="fil0" points="300,0 314.89,15.78 331.36,1.64 344.52,18.9 362.37,6.56 373.66,25.09 392.7,14.68 402,34.29 422.02,25.94 429.21,46.41 450,40.19 455.01,61.31 476.34,57.29 479.11,78.82 500.74,77.06 501.25,98.75 522.94,99.26 521.18,120.89 542.71,123.66 538.69,144.99 559.81,150 553.59,170.79 574.06,177.98 565.71,198 585.32,207.3 574.91,226.34 593.44,237.63 581.1,255.48 598.36,268.64 584.22,285.11 600,300 584.22,314.89 598.36,331.36 581.1,344.52 593.44,362.37 574.91,373.66 585.32,392.7 565.71,402 574.06,422.02 553.59,429.21 559.81,450 538.69,455.01 542.71,476.34 521.18,479.11 522.94,500.74 501.25,501.25 500.74,522.94 479.11,521.18 476.34,542.71 455.01,538.69 450,559.81 429.21,553.59 422.02,574.06 402,565.71 392.7,585.32 373.66,574.91 362.37,593.44 344.52,581.1 331.36,598.36 314.89,584.22 300,600 285.11,584.22 268.64,598.36 255.48,581.1 237.63,593.44 226.34,574.91 207.3,585.32 198,565.71 177.98,574.06 170.79,553.59 150,559.81 144.99,538.69 123.66,542.71 120.89,521.18 99.26,522.94 98.75,501.25 77.06,500.74 78.82,479.11 57.29,476.34 61.31,455.01 40.19,450 46.41,429.21 25.94,422.02 34.29,402 14.68,392.7 25.09,373.66 6.56,362.37 18.9,344.52 1.64,331.36 15.78,314.89 0,300 15.78,285.11 1.64,268.64 18.9,255.48 6.56,237.63 25.09,226.34 14.68,207.3 34.29,198 25.94,177.98 46.41,170.79 40.19,150 61.31,144.99 57.29,123.66 78.82,120.89 77.06,99.26 98.75,98.75 99.26,77.06 120.89,78.82 123.66,57.29 144.99,61.31 150,40.19 170.79,46.41 177.98,25.94 198,34.29 207.3,14.68 226.34,25.09 237.63,6.56 255.48,18.9 268.64,1.64 285.11,15.78 "/>
  <path class="fil1" d="M36.5 300c0,-145.53 117.97,-263.5 263.5,-263.5 145.53,0 263.5,117.97 263.5,263.5 0,145.53 -117.97,263.5 -263.5,263.5 -145.53,0 -263.5,-117.97 -263.5,-263.5zm263.5 -271c-149.67,0 -271,121.33 -271,271 0,149.67 121.33,271 271,271 149.67,0 271,-121.33 271,-271 0,-149.67 -121.33,-271 -271,-271z"/>
  <path class="fil1" d="M300 539.65c-132.36,0 -239.65,-107.29 -239.65,-239.65 0,-132.36 107.29,-239.65 239.65,-239.65 132.36,0 239.65,107.29 239.65,239.65 0,132.36 -107.29,239.65 -239.65,239.65zm0 -495.55c-141.33,0 -255.9,114.57 -255.9,255.9 0,141.33 114.57,255.9 255.9,255.9 141.33,0 255.9,-114.57 255.9,-255.9 0,-141.33 -114.57,-255.9 -255.9,-255.9z"/>
  <g id="_1323380583200">
   <path class="fil2" d="M371.83 462.92c-16.45,0 -24.68,-10.86 -24.68,-32.6 0,-16.53 3.47,-33.34 10.39,-50.42 1.5,-3.7 2.6,-5.56 3.31,-5.56 0.32,0.09 0.47,0.48 0.47,1.18 0,1.19 -0.35,3 -1.06,5.44 -4.8,16.93 -7.2,29.8 -7.2,38.62 0,6.61 1.96,11.69 5.9,15.23 3.31,3 7.36,4.5 12.17,4.5 10.47,0 30.58,-9.69 60.34,-29.06 27.01,-17.56 42.64,-28.39 46.89,-32.48 1.66,-1.57 2.48,-3.07 2.48,-4.49 0,-2.12 -2.04,-4.76 -6.14,-7.91 -5.04,-3.86 -13.19,-8.46 -24.45,-13.82 -12.28,-5.74 -21.45,-10.66 -27.51,-14.76 -10.64,-7.25 -19.92,-16.3 -27.88,-27.16 -1.02,-1.34 -3.15,-2.96 -6.37,-4.85 -1.81,-1.02 -2.72,-3.38 -2.72,-7.08l0 -14.29c0,-1.34 0.16,-2.21 0.47,-2.6 0.48,-0.55 1.73,-0.31 3.78,0.71l24.33 11.69c0.95,0.47 1.81,0.9 2.6,1.3l0 0c3.94,2.28 5.39,4.01 4.37,5.19 -1.18,1.34 -5.71,1.78 -13.58,1.31 8.97,8.89 20.75,16.77 35.31,23.61 17.79,8.43 28.34,13.82 31.65,16.18 7.79,5.44 11.69,14.77 11.69,28 0,2.75 -0.24,5.47 -0.71,8.14 -1.18,7.33 -2.59,12.48 -4.25,15.47 -1.18,2.21 -3.7,5.08 -7.56,8.63 -7,6.46 -22.12,17.4 -45.35,32.83 -28.89,19.37 -47.79,29.05 -56.69,29.05z"/>
   <path class="fil2" d="M341.4 133.29c0,-9.09 -1.42,-16.57 -4.26,-22.44 0,-3.32 2.65,-11.17 7.95,-23.58 0.67,-1.51 1.23,-2.27 1.71,-2.27 0.56,0 1.23,0.81 1.98,2.41 1.52,3.22 5.02,12.12 10.51,26.7 5.78,15.16 9.14,24.48 10.09,27.99 0.76,2.65 1.14,4.64 1.14,5.96 0,4.17 -4.03,1.66 -12.08,-7.52 -0.95,-1.33 -1.42,-0.76 -1.42,1.7 0,0.85 2.08,29.97 6.25,87.35 4.17,57.38 6.25,89.67 6.25,96.87 0,22.06 -3.36,41.47 -10.08,58.23 -1.42,3.41 -2.56,5.88 -3.41,7.39l0 0c-1.33,2.27 -2.14,2.6 -2.42,0.99 -0.38,-1.7 -0.23,-5.3 0.43,-10.79 0.85,-7.58 1.28,-16.38 1.28,-26.42 0,-9.09 -2.32,-46.49 -6.96,-112.21 -4.64,-65.71 -6.96,-102.5 -6.96,-110.36z"/>
   <path class="fil2" d="M359.87 346.19c-1.58,-2.99 -3.86,-5.83 -6.86,-8.5 -3.62,-3 -6.84,-4.5 -9.68,-4.5 -6.93,0 -10.39,1.9 -10.39,5.68 0,4.4 4.56,6.61 13.7,6.61 6.93,0 11.33,0.23 13.23,0.71zm-80.55 91.88c10.71,0 23.7,-4.56 38.97,-13.7 12.44,-7.4 24.65,-16.46 36.61,-27.16 10.71,-9.77 16.78,-16.62 18.19,-20.55 -1.1,-6.3 -9.21,-9.45 -24.33,-9.45 -18.58,0 -27.87,-6.3 -27.87,-18.9 0,-9.76 3.15,-18.34 9.45,-25.74 5.83,-6.93 11.89,-10.4 18.19,-10.4 7.24,0 14.01,4.65 20.31,13.94 5.51,8.03 9.21,16.85 11.1,26.45 0.79,4.26 1.19,8.59 1.19,12.99 0,15.28 -3.94,27.4 -11.82,36.38 -10.55,11.81 -22.36,22.91 -35.43,33.31 -22.2,17.63 -40.94,26.45 -56.21,26.45 -12.92,0 -22.92,-4.8 -30,-14.41 -6.3,-8.5 -9.45,-19.05 -9.45,-31.65 0,-16.53 3.47,-33.38 10.39,-50.55 1.58,-3.62 2.68,-5.43 3.31,-5.43 0.32,0.16 0.47,0.55 0.47,1.18 0,1.1 -0.31,2.92 -0.94,5.43 -4.89,17.01 -7.33,29.85 -7.33,38.51 0,8.18 2.05,15.11 6.15,20.78 5.98,8.35 15.66,12.52 29.05,12.52z"/>
   <path class="fil2" d="M190.22 449.17c-16.46,0 -24.68,-10.87 -24.68,-32.6 0,-16.53 3.46,-33.34 10.39,-50.42 1.5,-3.71 2.6,-5.56 3.3,-5.56 0.32,0.09 0.48,0.48 0.48,1.18 0,1.19 -0.36,3 -1.06,5.44 -4.81,16.93 -7.21,29.8 -7.21,38.62 0,6.61 1.97,11.69 5.91,15.23 3.3,3 7.36,4.49 12.16,4.49 10.47,0 30.59,-9.68 60.35,-29.05 27.01,-17.56 42.64,-28.39 46.89,-32.48 1.65,-1.58 2.48,-3.07 2.48,-4.49 0,-2.12 -2.05,-4.76 -6.14,-7.91 -5.04,-3.86 -13.19,-8.46 -24.45,-13.82 -12.28,-5.74 -21.45,-10.67 -27.52,-14.76 -10.63,-7.25 -19.92,-16.3 -27.87,-27.16 -1.03,-1.34 -3.15,-2.96 -6.38,-4.85 -1.81,-1.02 -2.72,-3.38 -2.72,-7.08l0 -14.29c0,-1.34 0.16,-2.21 0.48,-2.6 0.47,-0.55 1.73,-0.32 3.78,0.71l24.33 11.69c0.94,0.47 1.81,0.9 2.59,1.3l0 0c3.94,2.28 5.4,4.01 4.38,5.19 -1.19,1.34 -5.71,1.78 -13.59,1.3 8.98,8.9 20.75,16.78 35.31,23.62 17.8,8.43 28.35,13.82 31.66,16.18 7.79,5.44 11.69,14.77 11.69,28 0,2.75 -0.24,5.47 -0.71,8.14 -1.18,7.33 -2.6,12.48 -4.25,15.47 -1.18,2.21 -3.7,5.08 -7.56,8.63 -7.01,6.46 -22.12,17.4 -45.35,32.83 -28.9,19.37 -47.8,29.05 -56.69,29.05z"/>
  </g>
  <g id="_1323380568640">
   <path class="fil2" d="M223.12 219.03c-1.28,0.18 -2.02,0.25 -2.19,0.23 -0.05,-0.01 -0.07,-0.02 -0.07,-0.05 0.01,-0.06 0.52,-0.31 1.52,-0.74 0.94,-0.34 2.42,-1.07 4.44,-2.19 1.05,-0.77 2.54,-2 4.49,-3.71 1.34,-1.17 2.73,-2.15 4.17,-2.92 1.76,-0.93 3.45,-1.28 5.06,-1.04 0.38,0.05 0.87,0.23 1.46,0.54 0.6,0.3 1.12,0.49 1.57,0.55 0.83,0.12 1.55,-0.09 2.15,-0.64 0.5,-0.57 0.99,-1.14 1.49,-1.71 0.36,-0.4 0.65,-0.59 0.87,-0.56 0.11,0.02 0.15,0.13 0.12,0.33 -0.04,0.29 -0.24,0.75 -0.61,1.39 -0.18,0.31 0.57,0.6 2.28,0.85 0.18,0.02 0.28,-0.01 0.32,-0.09 0.03,-0.04 -0.01,-0.49 -0.12,-1.33 -0.03,-0.23 0.12,-0.54 0.45,-0.92 0.56,-0.7 0.88,-1 0.95,-0.9 0.35,0.47 0.46,1.11 0.34,1.94 -0.11,0.7 -0.39,1.48 -0.84,2.35 -0.46,0.87 -0.85,1.38 -1.18,1.54 -0.83,0.41 -2,0.1 -3.5,-0.92 -1.55,1.21 -2.97,1.73 -4.27,1.54 -0.38,-0.06 -0.86,-0.23 -1.42,-0.52 -0.56,-0.29 -0.99,-0.46 -1.28,-0.5 -2.22,-0.32 -4.63,0.4 -7.22,2.17 -1.9,1.39 -3.8,2.78 -5.72,4.17 -1.12,0.62 -2.21,1 -3.26,1.14z"/>
   <path class="fil2" d="M172.72 135.19c0,0.43 -0.54,1.4 -1.63,2.93 -1.23,1.7 -2.4,2.95 -3.5,3.74 -0.71,0.5 -3.07,1.28 -7.07,2.33 -0.58,0.15 -0.93,0.22 -1.03,0.22l0 -0.06c0.09,-0.09 0.32,-0.28 0.7,-0.58 0.52,-0.39 1.94,-1.21 4.27,-2.43 2.23,-1.19 3.54,-1.95 3.92,-2.28 0.07,-0.07 0.1,-0.13 0.1,-0.2 0,-0.53 -1.98,-0.79 -5.96,-0.79 -0.01,0 -0.77,0.03 -2.28,0.1 -0.32,0.01 -0.58,0.01 -0.75,-0.01l0 -0.87 1.35 -2.28c0.41,-0.69 1.16,-1.13 2.26,-1.31 0.39,-0.07 1.31,-0.1 2.75,-0.1 4.58,0 6.87,0.53 6.87,1.59z"/>
   <path class="fil2" d="M335.88 210.09c-0.53,1.6 -1.32,3.41 -2.4,5.44 -4.05,3.38 -7.38,5.8 -9.98,7.26 -4.53,2.55 -9.06,3.82 -13.59,3.82 -2.31,0 -4.05,-0.24 -5.22,-0.71l-1.43 -7.16c-2.77,-3.5 -4.15,-6.88 -4.15,-10.12 0,-5.1 1.56,-9.02 4.69,-11.76 2.67,-2.34 5.98,-3.51 9.94,-3.51 5.25,0 9.93,1.73 14.05,5.19 0.7,0.57 1.04,0.96 1.04,1.18 0,0.14 -0.13,0.21 -0.39,0.21 -0.33,0 -0.86,-0.13 -1.57,-0.39 -2.77,-1 -5.23,-1.5 -7.37,-1.5 -3.15,0 -6.38,0.47 -9.68,1.41 -3.3,0.94 -5.71,2.09 -7.24,3.45 0,3.39 1.18,6.72 3.54,10.01 2.89,4.01 6.57,6.01 11.05,6.01 2.32,0 5.33,-1.06 9.05,-3.18 3.03,-1.74 5.83,-3.73 8.41,-5.97 0.52,-0.46 0.9,-0.69 1.14,-0.72 0.38,0 0.42,0.35 0.11,1.04z"/>
   <path class="fil2" d="M134.83 242.15c-2.62,0 -4.84,-2.05 -6.65,-6.15 -1.62,-3.6 -2.43,-7.37 -2.43,-11.3 0,-4.73 0.46,-8.49 1.39,-11.31 0.33,-1 0.6,-1.5 0.79,-1.5 0.31,0 0.38,0.63 0.21,1.9 -0.38,2.95 -0.57,5.49 -0.57,7.61 0,9.97 2.32,14.95 6.97,14.95 1.89,0 3.59,-1.45 5.12,-4.36 1.62,-3.48 3.23,-6.96 4.83,-10.44 1.43,-2.89 3.14,-5.32 5.15,-7.3 2.12,-2.1 4.04,-3.15 5.76,-3.15 1.64,0 3.43,1.8 5.36,5.4 1.81,3.37 3.53,5.43 5.15,6.19 2.07,0.98 5.76,1.85 10.7,2.61 6.32,0.96 13.62,1.43 21.89,1.43 13.11,0 26.68,-1.46 40.7,-4.4 14.23,-3 25.6,-6.83 34.08,-11.48 0.41,-0.21 0.68,-0.29 0.83,-0.25 0.16,0.07 0.21,0.34 0.14,0.79 -0.14,1.07 -0.22,2.02 -0.22,2.83 0,3.9 1.7,5.86 5.08,5.86 4.68,0 8.09,-1.43 9.98,-4.24 1.38,-2.05 2.07,-5.54 2.07,-10.48 0,-13.9 -0.59,-25.67 -1.79,-35.3 -0.57,-4.65 -1.3,-9.25 -2.18,-13.8 0.48,-3.01 0.93,-5.08 1.36,-6.23 0.19,-0.5 0.36,-0.75 0.5,-0.75 0.17,0 0.33,0.26 0.5,0.79 1.58,5.08 2.85,11.53 3.83,19.35 0.5,3.98 0.88,10.01 1.14,18.09 0.26,8.18 0.58,13.77 0.93,16.78 0.65,5.29 1.78,8.74 3.4,10.33 1.86,1.84 3.83,3.25 5.9,4.22l0 7.16c-3.1,-1.27 -5.48,-2.63 -7.15,-4.08 -2.6,-2.19 -4.32,-5.03 -5.15,-8.51 -0.41,5.22 -2.3,9.02 -5.69,11.41 -2.24,1.59 -4.88,2.41 -7.65,2.41 -2.24,0 -4.09,-0.78 -5.54,-2.36 -1.57,-1.69 -2.43,-4.06 -2.57,-7.11 -9.73,4.91 -21.4,8.85 -35.02,11.83 -13.11,2.87 -25.51,4.3 -37.19,4.3 -15.24,0 -26.32,-1.35 -32.88,-4.05 -2.12,-0.88 -3.96,-2.34 -5.51,-4.39 -0.16,-0.22 -1.18,-1.86 -3.04,-4.94 -0.93,-1.57 -1.83,-2.36 -2.72,-2.36 -2.67,0 -5.48,2.26 -8.44,6.79 -0.52,0.82 -1.46,2.92 -2.82,6.32 -1.36,3.4 -2.54,5.86 -3.54,7.38 -1.58,2.34 -3.24,3.51 -5.01,3.51z"/>
   <path class="fil2" d="M276.82 144.34c0,-2.29 -0.36,-4.17 -1.08,-5.65 0,-0.83 0.67,-2.81 2.01,-5.93 0.16,-0.39 0.31,-0.58 0.43,-0.58 0.14,0 0.31,0.21 0.5,0.61 0.38,0.81 1.26,3.05 2.64,6.72 1.46,3.82 2.3,6.17 2.54,7.05 0.19,0.67 0.29,1.17 0.29,1.5 0,1.05 -1.01,0.42 -3.04,-1.89 -0.24,-0.34 -0.36,-0.19 -0.36,0.43 0,0.21 0.52,7.54 1.57,21.99 1.05,14.45 1.58,22.58 1.58,24.4 0,5.55 -0.85,10.44 -2.54,14.66 -0.36,0.86 -0.65,1.48 -0.86,1.86l0 0c-0.33,0.57 -0.54,0.65 -0.61,0.25 -0.09,-0.43 -0.06,-1.34 0.11,-2.72 0.22,-1.91 0.32,-4.13 0.32,-6.65 0,-2.29 -0.58,-11.71 -1.75,-28.26 -1.17,-16.54 -1.75,-25.81 -1.75,-27.79z"/>
   <path class="fil2" d="M186.42 191.01c-0.52,4.48 -0.88,6.73 -1.07,6.73 -0.19,0 -0.55,-1.84 -1.07,-5.51 -0.91,-5.87 -5.25,-12.55 -13.02,-20.03 -9.54,-9.06 -16.5,-16.31 -20.89,-21.75 -1.14,-1.57 -2.67,-3.74 -4.58,-6.51 -0.62,-0.9 -1.26,-1.55 -1.93,-1.93 -0.38,-0.24 -0.57,-0.62 -0.57,-1.14l0 -4.79c0,-0.96 0.17,-1.43 0.5,-1.43 0.24,0 0.67,0.23 1.29,0.71l9.08 6.94c0.67,0.52 1,0.93 1,1.22 0,0.18 -0.26,0.28 -0.78,0.28 -0.77,0 -2.03,-0.19 -3.79,-0.57 1.47,2 5.07,5.91 10.8,11.73 4.15,4.15 8.29,8.27 12.44,12.38 8.44,8.58 12.66,15.92 12.66,22.03 0,0.57 -0.02,1.12 -0.07,1.64zm39.95 4.08c2.91,0 5.7,-1.06 8.37,-3.18 0.24,-0.19 1.33,-1.33 3.29,-3.4 1.81,-1.93 2.79,-2.9 2.93,-2.9 0.43,0 0.5,0.43 0.22,1.29 -0.38,1.12 -0.58,1.85 -0.58,2.18 0,0.81 0.35,1.74 1.04,2.79 0.91,1.38 2.1,2.07 3.58,2.07 3.91,0 7.26,-2.81 10.05,-8.44 0.29,-0.57 0.62,-0.85 1,-0.85 0.31,0 0.47,0.26 0.47,0.78 0,0.19 -0.03,0.5 -0.09,0.93 -0.06,0.43 -0.09,0.75 -0.09,0.97 0,1.64 0.5,2.98 1.52,4 1.01,1.03 2.3,1.54 3.88,1.54 2.29,0 4.69,-0.89 6.84,-2.65 0.62,-0.52 0.93,-2.43 0.93,-5.72 0,-2.01 -0.51,-10.05 -1.54,-24.14 -1.02,-14.1 -1.54,-22.4 -1.54,-24.93 0,-2.29 -0.35,-4.18 -1.07,-5.65 0,-0.81 0.67,-2.79 2,-5.94 0.15,-0.38 0.29,-0.57 0.43,-0.57 0.15,0 0.31,0.21 0.5,0.64 0.38,0.81 1.27,3.05 2.65,6.73 1.43,3.81 2.29,6.15 2.57,7.01 0.15,0.71 0.22,1.21 0.22,1.5 0,1.05 -1,0.43 -3.01,-1.86 -0.23,-0.34 -0.35,-0.19 -0.35,0.43 0,0.14 0.45,6.41 1.36,18.81 0.9,12.4 1.36,19.79 1.36,22.17 0,6.92 -1.24,12.36 -3.72,16.31 -2.1,3.34 -4.77,5.01 -7.63,5.01 -3.6,0 -6.18,-2.27 -7.73,-6.83 -0.19,-0.59 -0.4,-0.59 -0.64,0 -2.05,5.27 -4.95,7.91 -8.69,7.91 -3.82,0 -6.08,-2.41 -6.8,-7.23 -0.05,-0.4 -0.11,-0.61 -0.18,-0.61 -0.07,0.05 -0.21,0.26 -0.43,0.61 -0.9,1.5 -2.25,3.04 -4.04,4.62 -2.84,2.52 -5.65,3.79 -8.44,3.79 -3.1,0 -5.26,-0.93 -6.47,-2.79 -0.74,-1.17 -1.16,-2.9 -1.25,-5.19 -0.03,-0.26 -0.15,-0.39 -0.36,-0.39 -0.38,0 -0.76,0.22 -1.15,0.68 -2.38,2.76 -3.92,4.44 -4.61,5.04 -3.03,2.6 -6.32,3.9 -9.66,3.9 -3.57,0 -6.15,-1.38 -7.72,-4.15 -1.05,-1.81 -1.77,-4.74 -2.15,-8.8 -1.33,6.49 -2.62,10.61 -3.86,12.38 -2.81,4.05 -6.06,6.91 -9.73,8.58 -1.43,0.62 -3.88,1.38 -7.36,2.29 -3.49,0.91 -6.04,1.45 -7.66,1.64 -0.67,0.05 -1,-0.02 -1,-0.21 0,-0.19 0.31,-0.48 0.93,-0.86 3.24,-1.86 8.42,-4.96 15.52,-9.3 8.01,-5.24 12.02,-12.94 12.02,-23.1 0,-13.21 -0.62,-24.73 -1.86,-34.55 -0.33,-3.24 -1,-7.84 -2,-13.81 0.52,-3.43 0.93,-5.5 1.21,-6.22 0.19,-0.52 0.36,-0.79 0.5,-0.79 0.15,0 0.31,0.27 0.5,0.79 1.58,5.1 2.84,11.56 3.79,19.39 0.67,5.24 1.15,13.4 1.44,24.46 0.28,9.97 0.66,16.14 1.14,18.53 0.57,2.71 1.45,4.57 2.65,5.57 0.86,0.67 2.07,1.01 3.64,1.01 3.51,0 6.68,-0.92 9.3,-2.76 1.05,-0.74 3.42,-2.95 7.12,-6.65 0.45,-0.45 0.88,-0.68 1.29,-0.68 0.64,0 0.82,0.43 0.53,1.29 -0.28,0.86 -0.43,1.66 -0.43,2.39 0,1.65 0.69,2.92 2.04,3.83 1.29,0.86 2.96,1.29 5.01,1.29z"/>
   <path class="fil2" d="M164.46 188.11c0,-0.57 -1.11,-1.32 -3.33,-2.25 -2.21,-0.93 -3.85,-1.3 -4.9,-1.11 -0.38,0.09 -0.52,0.24 -0.42,0.43 0.38,1.05 1.19,2.79 2.43,5.22 3.24,-1.05 5.31,-1.81 6.22,-2.29zm-27.61 14.16c6.53,-5.15 12.8,-8.72 18.81,-10.73 -0.43,-0.71 -1.05,-1.9 -1.86,-3.57 -0.38,-0.81 -0.57,-1.79 -0.57,-2.94 0,-1.86 0.48,-3.43 1.43,-4.72 1.1,-1.57 2.74,-2.36 4.94,-2.36 1.71,0 4.17,1.12 7.36,3.36 3.39,2.29 5.08,4.2 5.08,5.73 -0.47,2 -1.07,3.88 -1.79,5.65 -2.71,0.81 -6,1.83 -9.87,3.07 0.15,2.2 -0.07,3.29 -0.64,3.29 -0.43,0 -0.88,-0.83 -1.36,-2.5 -1.76,0.62 -4.22,1.67 -7.37,3.15 -4.58,2.09 -8.03,4.07 -10.37,5.93 -3.58,2.82 -7.2,6.23 -10.87,10.23 -4.2,4.63 -6.63,7.23 -7.3,7.8 -2.29,2.05 -4.53,3.08 -6.72,3.08 -2.39,0 -4.48,-1.09 -6.3,-3.26 -1.81,-2.17 -2.71,-4.85 -2.71,-8.05 0,-4.43 1.81,-10.18 5.43,-17.24 0.38,-0.71 0.69,-1.07 0.93,-1.07 0.1,0 0.14,0.1 0.14,0.29 0,0.71 -0.78,3.18 -2.36,7.4 -1.57,4.22 -2.36,7.57 -2.36,10.05 0,1.86 0.46,3.38 1.36,4.54 0.91,1.17 2.2,1.76 3.87,1.76 2.28,0 4.79,-1.12 7.51,-3.36 1.43,-1.2 3.88,-3.72 7.36,-7.59 3.34,-3.67 6.08,-6.32 8.23,-7.94z"/>
   <path class="fil2" d="M219.35 243.98l1.82 -3.75c0.15,-0.29 0.3,-0.43 0.47,-0.43 0.24,0 1.26,0.62 3.08,1.86 1.81,1.24 2.71,1.96 2.71,2.18 0,0.81 -0.8,2.5 -2.39,5.08 -0.19,0.31 -0.4,0.39 -0.61,0.25 -1.57,-1.17 -3.35,-2.4 -5.33,-3.69 -0.67,1.51 -1.32,2.78 -1.97,3.83 -0.19,0.33 -0.39,0.42 -0.61,0.25 -1.78,-1.36 -3.63,-2.64 -5.54,-3.83 -0.09,-0.07 -0.09,-0.21 0,-0.43l2.29 -4.68c0.14,-0.29 0.3,-0.43 0.46,-0.43 0.22,0 1.09,0.51 2.62,1.54 1.52,1.02 2.52,1.77 3,2.25z"/>
   <path class="fil2" d="M201.42 157.31c18.4,-6.84 37.64,-13.97 57.71,-21.39 0.78,-0.29 1.24,-0.39 1.39,-0.29 0.19,0.15 0.14,0.56 -0.15,1.24 -0.88,2.15 -1.59,3.44 -2.12,3.89 -16.62,6.11 -36.08,13.68 -58.4,22.7l0 -2.59c0.42,-1.14 0.95,-2.32 1.57,-3.56z"/>
   <path class="fil2" d="M172.2 150.44c18.41,-6.84 37.64,-13.97 57.71,-21.39 0.78,-0.29 1.24,-0.39 1.39,-0.29 0.19,0.14 0.15,0.56 -0.15,1.24 -0.88,2.15 -1.58,3.44 -2.12,3.88 -16.62,6.12 -36.08,13.69 -58.4,22.7l0 -2.58c0.42,-1.14 0.95,-2.33 1.57,-3.56z"/>
   <path class="fil2" d="M234.66 164.17c0,0.9 -0.2,1.84 -0.59,2.81 -0.54,1.25 -1.22,1.87 -2.05,1.87 -1.32,0 -2.26,-0.9 -2.81,-2.7 -0.63,2.31 -1.77,3.46 -3.44,3.46 -0.62,0 -1.16,-0.31 -1.63,-0.93 -0.53,-0.74 -0.79,-1.71 -0.79,-2.92l0 -2.84c0,-0.23 -0.16,-0.39 -0.47,-0.49 -0.31,-0.09 -0.47,-0.33 -0.47,-0.73 0,-0.62 0.27,-1.23 0.8,-1.83 0.48,-0.54 0.85,-0.8 1.11,-0.8 0.32,0 0.48,0.62 0.48,1.87 0,0.65 -0.05,1.19 -0.15,1.63 -0.11,0.44 -0.16,0.82 -0.16,1.15 0,0.67 0.14,1.32 0.42,1.94 0.32,0.72 0.73,1.08 1.21,1.08 0.63,0 1.21,-0.29 1.75,-0.86 0.55,-0.56 0.82,-1.23 0.82,-1.99 0,-0.44 -0.13,-1.19 -0.38,-2.25 -0.26,-1.07 -0.38,-1.73 -0.38,-1.98 0,-0.23 0.11,-0.6 0.34,-1.09 0.23,-0.5 0.41,-0.75 0.52,-0.75 0.21,0 0.48,0.71 0.82,2.12 0.33,1.41 0.5,2.45 0.5,3.12 0,1.94 0.75,2.91 2.26,2.91 0.64,0 1.05,-0.32 1.21,-0.97 -1.29,-2.27 -1.94,-4 -1.94,-5.2 0,-0.7 0.17,-1.31 0.52,-1.84 0.23,-0.37 0.39,-0.57 0.48,-0.59 0.1,0 0.17,0.23 0.21,0.69 0.07,0.65 0.17,1.18 0.31,1.6 0.03,0.04 0.34,0.84 0.94,2.39 0.37,0.93 0.56,1.63 0.56,2.12z"/>
   <path class="fil2" d="M137.45 171.61c0.36,-1.18 0.44,-2.36 0.24,-3.54 -0.24,-1.3 -0.83,-1.95 -1.77,-1.95 -0.44,0 -1.05,0.22 -1.82,0.64 -0.77,0.43 -1.16,0.85 -1.16,1.25 0,0.94 1.5,2.13 4.51,3.6zm-2.32 5.24c-3.77,-1.95 -5.66,-4 -5.66,-6.16 0,-2.6 1.2,-4.97 3.59,-7.13 2.4,-2.15 4.39,-2.94 5.97,-2.37 1.34,0.49 2.01,1.93 2.01,4.33 0,2.15 -0.45,4.56 -1.34,7.24 1.91,1.1 3.11,2.03 3.59,2.81 0,1.01 -0.85,2.74 -2.55,5.17 -0.49,-0.77 -1.65,-1.7 -3.47,-2.8 -2.12,2.92 -4.8,5.59 -8.05,7.98 -3.69,2.72 -7.08,4.77 -10.17,6.15 -0.65,0.33 -4.22,1.69 -10.72,4.08 -1.01,0.37 -1.68,0.55 -2.01,0.55 -0.16,0 -0.24,-0.04 -0.24,-0.12 0,-0.24 0.57,-0.73 1.7,-1.46 4.8,-2.84 9.61,-5.71 14.44,-8.59 5.77,-3.49 10.07,-6.72 12.91,-9.68z"/>
   <path class="fil2" d="M307.54 184.25c3.11,0 6.48,-0.53 10.1,-1.6 1,-0.29 1.51,-0.36 1.51,-0.24 0,0.13 -0.38,0.52 -1.13,1.18 -3.15,2.84 -7.19,4.25 -12.13,4.25 -1.54,0 -2.8,-0.4 -3.78,-1.2 -0.97,-0.81 -1.46,-1.82 -1.46,-3.05 0,-3.27 1.4,-6.7 4.2,-10.28 -2.45,-0.73 -3.68,-2.02 -3.68,-3.87 0,-1.58 0.98,-3.46 2.95,-5.67 1.97,-2.2 3.55,-3.3 4.74,-3.3 0.32,0 0.64,0.25 0.97,0.76 0.33,0.5 0.5,1.03 0.5,1.6 0,0.25 -0.34,0.85 -1,1.79 -0.66,0.95 -1.02,1.32 -1.08,1.14 -0.25,-0.98 -0.8,-1.47 -1.65,-1.47 -0.44,0 -0.99,0.38 -1.63,1.14 -0.65,0.75 -0.97,1.38 -0.97,1.88 0.79,1.29 2.13,1.94 4.01,1.94 0.63,0 1.62,-0.58 2.98,-1.75 0.78,-0.72 1.58,-1.46 2.4,-2.22 0.29,-0.22 0.43,0 0.43,0.66 0,1.45 -0.54,2.92 -1.61,4.39 -4.15,2.8 -7.23,6.03 -9.25,9.68 -0.37,0.69 -0.56,1.3 -0.56,1.84 0,1.6 1.71,2.4 5.14,2.4z"/>
  </g>
  <path class="fil2" d="M187.86 260c0,1.18 -1.51,3.87 -4.52,8.07 -3.37,4.69 -6.58,8.13 -9.63,10.32 -1.96,1.36 -8.45,3.5 -19.48,6.42 -1.6,0.41 -2.54,0.6 -2.84,0.59l0 -0.15c0.26,-0.25 0.91,-0.79 1.95,-1.6 1.41,-1.09 5.33,-3.33 11.75,-6.7 6.16,-3.28 9.76,-5.38 10.8,-6.29 0.19,-0.18 0.28,-0.36 0.28,-0.54 0,-1.46 -5.47,-2.19 -16.41,-2.19 -0.04,0 -2.14,0.09 -6.28,0.27 -0.9,0.04 -1.59,0.04 -2.09,-0.01l0 -2.39 3.73 -6.28c1.13,-1.91 3.21,-3.12 6.22,-3.62 1.09,-0.18 3.62,-0.28 7.58,-0.28 12.63,0 18.94,1.46 18.94,4.38z"/>
  <path class="fil2" d="M381.22 256.66c32.44,-12.05 66.34,-24.61 101.71,-37.69 1.37,-0.52 2.19,-0.69 2.45,-0.52 0.34,0.26 0.26,0.99 -0.26,2.19 -1.55,3.79 -2.8,6.07 -3.74,6.85 -29.29,10.77 -63.59,24.11 -102.93,40l0 -4.55c0.76,-2.01 1.68,-4.1 2.77,-6.28z"/>
  <path class="fil2" d="M330.86 250.12c0.74,-2.39 0.9,-4.79 0.49,-7.18 -0.49,-2.64 -1.69,-3.96 -3.59,-3.96 -0.9,0 -2.14,0.44 -3.71,1.3 -1.56,0.87 -2.35,1.71 -2.35,2.54 0,1.9 3.05,4.33 9.16,7.3zm-4.71 10.64c-7.66,-3.96 -11.5,-8.13 -11.5,-12.5 0,-5.28 2.43,-10.1 7.3,-14.47 4.86,-4.37 8.9,-5.98 12.12,-4.83 2.72,0.99 4.08,3.92 4.08,8.79 0,4.37 -0.9,9.28 -2.72,14.72 3.88,2.22 6.31,4.12 7.3,5.69 0,2.06 -1.73,5.56 -5.2,10.51 -0.98,-1.56 -3.34,-3.46 -7.04,-5.69 -4.29,5.94 -9.74,11.34 -16.34,16.21 -7.5,5.52 -14.39,9.69 -20.66,12.49 -1.31,0.66 -8.57,3.42 -21.77,8.29 -2.06,0.74 -3.42,1.11 -4.08,1.11 -0.33,0 -0.49,-0.08 -0.49,-0.24 0,-0.5 1.15,-1.49 3.46,-2.97 9.73,-5.77 19.51,-11.59 29.32,-17.44 11.71,-7.1 20.45,-13.65 26.22,-19.67z"/>
  <path class="fil2" d="M192.95 336.23c0.36,-0.71 0.71,-1.24 1.06,-1.59 0.35,-0.23 0.53,-0.17 0.53,0.18 0.12,0.35 0.12,0.94 0,1.77 -3.17,17.25 -8.34,25.88 -15.5,25.88 -7.63,0 -11.45,-6.34 -11.45,-19.02 0,-15.61 4.53,-31.99 13.57,-49.13 2.23,-4.23 3.57,-6.4 4.05,-6.51 0.11,0 0.17,0.05 0.17,0.17 0,0.83 -0.65,3.23 -1.94,7.22 -5.86,17.85 -8.8,30.35 -8.8,37.51 0,9.74 2.64,14.61 7.92,14.61 3.06,0 6.52,-3.7 10.39,-11.09z"/>
  <path class="fil2" d="M319.72 85.46c0,5.03 -2.07,10.75 -6.22,17.16 -4.23,6.72 -9.71,12.44 -16.42,17.17 -1.36,0.96 -2.44,1.67 -3.23,2.14l0 -1.81c0.48,-0.56 1.06,-1.21 1.75,-1.96 11.05,-12.03 16.58,-20.07 16.58,-24.12 0,-3.85 -1.78,-5.77 -5.33,-5.77 -1.98,0 -3.75,0.54 -5.33,1.63 -1.18,0.79 -1.92,1.23 -2.22,1.33 -0.19,-0.2 -0.44,-0.34 -0.74,-0.44 0.1,-0.4 0.3,-1.43 0.59,-3.11 1.78,-8.29 5.92,-12.43 12.43,-12.43 5.43,0 8.14,3.4 8.14,10.21z"/>
  <path class="fil2" d="M280.54 283.34c-0.52,1.25 -0.99,1.88 -1.4,1.88 -0.53,0 -0.61,-0.81 -0.24,-2.43 0.31,-1.41 0.47,-3.24 0.47,-5.48 0,-7.3 -4.12,-14.58 -12.37,-21.84 -0.52,-0.47 -0.6,-1.04 -0.23,-1.72l2.35 -4.15c0.2,-0.36 0.54,-0.36 1.01,0 8.09,6 12.14,14.2 12.14,24.58 0,3.24 -0.58,6.29 -1.73,9.16z"/>
  <path class="fil2" d="M432.17 227.45c-0.52,1.26 -0.99,1.88 -1.4,1.88 -0.53,0 -0.61,-0.81 -0.24,-2.42 0.31,-1.42 0.47,-3.24 0.47,-5.49 0,-7.3 -4.12,-14.58 -12.37,-21.83 -0.52,-0.47 -0.6,-1.04 -0.23,-1.72l2.35 -4.15c0.2,-0.37 0.54,-0.37 1.01,0 8.09,6 12.14,14.19 12.14,24.57 0,3.24 -0.58,6.29 -1.73,9.16z"/>
  <path class="fil2" d="M351.07 481.57c-0.43,0.73 -1.2,1.58 -2.3,2.54 -1.45,1.29 -2.52,1.73 -3.2,1.33 -0.28,-0.17 -0.55,-1.15 -0.79,-2.94 -0.25,-1.79 -0.88,-2.99 -1.9,-3.59 -2.27,-1.34 -7.54,2.79 -15.81,12.38 -3.6,4.16 -6.48,6.9 -8.65,8.23 -1.5,0.87 -2.51,1.15 -3.03,0.85 -0.45,-0.27 -0.33,-1 0.38,-2.19 1.1,-1.88 2.18,-6.16 3.22,-12.86 1.04,-6.7 1.11,-10.32 0.2,-10.85 -0.62,-0.37 -1.14,-0.41 -1.54,-0.11 -0.41,0.3 -1.04,0.19 -1.89,-0.31 -0.96,-0.57 -1.81,-2.03 -2.53,-4.37 -0.73,-2.34 -0.84,-3.93 -0.34,-4.79 0.24,-0.39 1.66,-1.3 4.25,-2.72 2.6,-1.41 4.07,-2.02 4.41,-1.82 3.18,1.88 4.92,5.45 5.22,10.72 0.3,5.27 -0.84,11.25 -3.4,17.93 -0.26,0.69 -0.42,1.09 -0.48,1.2 0.01,0.24 0.09,0.29 0.25,0.15 0.13,-0.07 0.49,-0.36 1.08,-0.85 2.66,-3.33 7.11,-8.02 13.36,-14.06 5.2,-3.9 9.09,-5.09 11.64,-3.58 1.31,0.77 2.1,2.42 2.36,4.95 0.23,2.21 0.06,3.79 -0.51,4.76zm-37.41 21.34c-4.63,3.32 -11.08,5.41 -19.33,6.28 -7.41,0.76 -13.85,0.83 -19.3,0.21 -1.18,-0.08 -7.3,-1.12 -18.37,-3.14 -1.72,-0.32 -2.84,-0.64 -3.35,-0.94 -0.23,-0.13 -0.3,-0.26 -0.24,-0.37 0.2,-0.34 1.43,-0.54 3.68,-0.59 9.98,0.22 24.51,-0.12 43.58,-1.04 5.04,-0.63 9.03,-1.49 11.98,-2.59 3.79,-1.36 5.83,-1.96 6.11,-1.79 0.06,0.04 0.05,0.11 -0.01,0.22 -0.24,0.4 -1.82,1.65 -4.75,3.75z"/>
  <path class="fil2" d="M399.14 133.64c3.56,0 6.75,2.11 9.58,6.33 2.82,4.22 4.81,9.74 5.95,16.53 0.13,0.7 0.19,1.11 0.19,1.24 0.13,0.19 0.22,0.19 0.29,0 0.06,-0.13 0.22,-0.54 0.47,-1.24 0.58,-4.07 1.97,-10.13 4.19,-18.19 2.42,-5.79 5.05,-8.67 7.91,-8.67 1.46,0 2.92,0.98 4.39,2.95 1.26,1.71 1.9,3.11 1.9,4.19 0,0.82 -0.22,1.91 -0.67,3.24 -0.57,1.78 -1.23,2.67 -2,2.67 -0.32,0 -1.01,-0.69 -2.09,-2.05 -1.08,-1.37 -2.2,-2.05 -3.34,-2.05 -2.54,0 -4.89,6 -7.05,18.01 -0.95,5.2 -2,8.89 -3.14,11.05 -0.83,1.46 -1.53,2.19 -2.1,2.19 -0.51,0 -0.76,-0.67 -0.76,-2 0,-2.1 -1.21,-6.18 -3.62,-12.25 -2.41,-6.06 -4.13,-9.09 -5.14,-9.09 -0.7,0 -1.15,0.22 -1.34,0.66 -0.19,0.45 -0.76,0.67 -1.71,0.67 -1.08,0 -2.5,-0.79 -4.24,-2.38 -1.75,-1.59 -2.62,-2.86 -2.62,-3.81 0,-0.45 0.73,-1.89 2.19,-4.34 1.46,-2.44 2.38,-3.66 2.76,-3.66z"/>
  <path class="fil2" d="M500.68 329.72c0.89,-5.49 2.83,-12.1 5.81,-19.84 2.34,-6.05 3.51,-12.06 3.51,-18.02 0,-11.37 -5.25,-22.3 -15.73,-32.78 -0.81,-0.81 -0.93,-1.69 -0.36,-2.66l3.63 -6.41c0.32,-0.57 0.84,-0.57 1.57,0 10.48,8.62 15.72,21 15.72,37.13 0,7.74 -1.69,15.94 -5.08,24.62 -3.38,8.66 -5.08,14.65 -5.08,17.96 0,6.69 1.82,10.04 5.45,10.04 2.09,0 4.47,-2.55 7.13,-7.62 0.24,-0.49 0.49,-0.85 0.73,-1.09 0.24,-0.16 0.36,-0.12 0.36,0.12 0.08,0.24 0.08,0.64 0,1.21 -2.17,11.85 -5.72,17.78 -10.64,17.78 -5,0 -7.5,-4.84 -7.5,-14.52 0,-1.93 0.16,-3.91 0.48,-5.92z"/>
  <path class="fil2" d="M156.73 231.34c0.04,0.07 0.06,0.16 0.06,0.28 0,0.37 -0.12,0.8 -0.35,1.29 -0.24,0.49 -0.46,0.73 -0.68,0.73 0.17,0 -0.47,-0.11 -1.92,-0.33 -0.53,0.92 -1.07,1.63 -1.64,2.12 -0.49,0.41 -1.23,0.86 -2.2,1.32 -0.26,0.13 -0.39,0.26 -0.39,0.39 0,0.11 0.09,0.19 0.26,0.24 0.61,0.17 1.51,0.2 2.69,0.07 0.51,-0.06 1.73,-0.31 3.65,-0.77 0.24,-0.06 0.37,-0.07 0.37,-0.05 0,0.03 -0.37,0.31 -1.1,0.82 -0.33,0.23 -0.9,0.49 -1.73,0.79 -1.13,0.4 -2.15,0.61 -3.06,0.61 -1.09,0 -1.63,-0.36 -1.63,-1.07 0,-0.72 0.31,-1.35 0.94,-1.88 0.52,-0.36 1.04,-0.73 1.57,-1.1 0.74,-0.52 1.31,-1.05 1.69,-1.61 -1.16,-0.2 -1.74,-0.64 -1.74,-1.33 0,-0.51 0.15,-1.08 0.47,-1.71 -0.21,-0.72 -0.17,-1.23 0.14,-1.53 0.23,-0.23 0.5,-0.35 0.82,-0.35 0.3,0 0.65,0.1 1.04,0.31 1.38,0.76 2.29,1.68 2.74,2.76zm-0.75 0.68c-0.29,-0.63 -0.8,-1.1 -1.53,-1.41 0,0.66 -0.06,1.17 -0.18,1.52 0.12,0.03 0.67,0.11 1.64,0.24 0.06,0.01 0.1,0.01 0.13,-0.02 0.04,-0.04 0.02,-0.15 -0.06,-0.33zm-2.28 0c0.07,-0.35 0.05,-0.71 -0.04,-1.08 -0.1,-0.42 -0.28,-0.63 -0.52,-0.63 -0.15,0 -0.36,0.13 -0.63,0.4 -0.27,0.27 -0.4,0.47 -0.4,0.61 0,0.33 0.53,0.56 1.59,0.7z"/>
  <path class="fil3" d="M127.37 360.99c1.33,1.43 1.5,2.66 1.24,4 -0.45,2.42 -0.66,4.9 -1.38,7.25 -1.25,4.11 -3.01,6.54 -7.76,6.84 -0.21,0.02 -0.42,0.02 -0.64,0.02 -2.52,0 -4.91,-1.16 -6.48,-3.14 -2.9,-3.44 -3.92,-7.57 -3.61,-11.96 0.29,-4.01 0.9,-7.97 1.38,-11.96 0.63,-5.41 1.4,-10.8 1.89,-16.21 0.73,-8.14 -2.39,-14.96 -7.61,-20.89 -1.51,-1.72 -3.07,-3.49 -5.08,-4.26 -0.96,0.04 -0.97,0.66 -1.21,1.09 -0.43,0.76 -1.13,1.12 -1.94,0.91 -3,-0.78 -5.89,-1.81 -8.32,-3.86 -0.68,-0.51 -1.07,-1.32 -1.07,-2.17 0,-0.06 0,-0.14 0,-0.2 0.34,-3.89 0.97,-7.7 2.26,-11.38 0.08,-0.21 0.35,-0.36 0.7,-0.72 0.47,0.16 1.09,0.26 1.61,0.56 3.48,1.93 6.99,3.81 10.39,5.87 5.13,3.13 8.51,7.79 10.77,13.31 0.74,1.8 1.27,3.66 1.92,5.49 0.15,0.43 0.42,0.8 0.65,1.22 1.08,-0.56 0.89,-1.43 0.88,-2.12 -0.09,-3.79 -0.22,-7.86 -0.35,-11.68 -0.19,-4.78 1.02,-9.26 2.9,-13.54 1.41,-3.21 4.66,-4.35 7.71,-2.65 2.34,1.29 4.42,3.1 6.5,4.8 0.51,0.42 0.87,1.42 0.78,2.07 -0.36,2.41 -0.41,4.9 -1.67,7.32 -0.75,-0.26 -1.5,-0.38 -2.1,-0.76 -1.42,-0.87 -2.72,-1.96 -4.16,-2.78 -1.23,-0.69 -2.53,-1.25 -3.87,-1.65 -1.14,-0.32 -2.34,0.64 -2.52,1.82 -0.09,0.64 -0.13,1.31 -0.07,1.95 0.72,7.71 -0.5,15.25 -1.97,22.77 -0.57,2.93 -0.89,5.89 -1.38,8.83 -0.8,4.72 -1.64,9.45 -2.44,14.16 -0.37,2.18 -0.8,4.34 -1.06,6.53 -0.42,3.61 0.44,6.95 2.39,10 0.93,1.45 2.22,2.49 3.81,3.17 3.05,1.32 5.99,-0.02 6.98,-3.21 0.35,-1.11 0.58,-2.26 0.95,-3.36 0.14,-0.44 0.52,-0.8 0.98,-1.48z"/>
 </g>
</svg>
