<?xml version="1.0" encoding="utf-8"?>
<!DOCTYPE svg PUBLIC "-//W3C//DTD SVG 1.1//EN" "http://www.w3.org/Graphics/SVG/1.1/DTD/svg11.dtd">
<svg version="1.1" id="Layer_1" xmlns="http://www.w3.org/2000/svg" xmlns:xlink="http://www.w3.org/1999/xlink" x="0px" y="0px"
	 viewBox="0 0 600 600" enable-background="new 0 0 600 600" xml:space="preserve">
<polygon fill-rule="evenodd" clip-rule="evenodd" fill="#8F684B" points="300,2 314.8,17.7 331.1,3.7 344.2,20.8 362,8.5 
	373.2,26.9 392.1,16.6 401.3,36.1 421.2,27.8 428.3,48.1 449,41.9 454,62.9 475.1,58.9 477.9,80.3 499.4,78.6 499.9,100.1 
	521.4,100.6 519.7,122.1 541.1,124.9 537.1,146 558.1,151 551.9,171.7 572.2,178.8 563.9,198.7 583.4,207.9 573.1,226.8 591.5,238 
	579.2,255.8 596.3,268.9 582.3,285.2 598,300 582.3,314.8 596.3,331.1 579.2,344.2 591.5,362 573.1,373.2 583.4,392.1 563.9,401.3 
	572.2,421.2 551.9,428.3 558.1,449 537.1,454 541.1,475.1 519.7,477.9 521.4,499.4 499.9,499.9 499.4,521.4 477.9,519.7 
	475.1,541.1 454,537.1 449,558.1 428.3,551.9 421.2,572.2 401.3,563.9 392.1,583.4 373.2,573.1 362,591.5 344.2,579.2 331.1,596.3 
	314.8,582.3 300,598 285.2,582.3 268.9,596.3 255.8,579.2 238,591.5 226.8,573.1 207.9,583.4 198.7,563.9 178.8,572.2 171.7,551.9 
	151,558.1 146,537.1 124.9,541.1 122.1,519.7 100.6,521.4 100.1,499.9 78.6,499.4 80.3,477.9 58.9,475.1 62.9,454 41.9,449 
	48.1,428.3 27.8,421.2 36.1,401.3 16.6,392.1 26.9,373.2 8.5,362 20.8,344.2 3.7,331.1 17.7,314.8 2,300 17.7,285.2 3.7,268.9 
	20.8,255.8 8.5,238 26.9,226.8 16.6,207.9 36.1,198.7 27.8,178.8 48.1,171.7 41.9,151 62.9,146 58.9,124.9 80.3,122.1 78.6,100.6 
	100.1,100.1 100.6,78.6 122.1,80.3 124.9,58.9 146,62.9 151,41.9 171.7,48.1 178.8,27.8 198.7,36.1 207.9,16.6 226.8,26.9 238,8.5 
	255.8,20.8 268.9,3.7 285.2,17.7 "/>
<path fill-rule="evenodd" clip-rule="evenodd" fill="#F3F3EB" d="M300,30.8C151.3,30.8,30.8,151.3,30.8,300S151.3,569.2,300,569.2
	S569.2,448.7,569.2,300S448.7,30.8,300,30.8 M38.3,300C38.3,155.5,155.5,38.3,300,38.3S561.7,155.5,561.7,300S444.5,561.7,300,561.7
	S38.3,444.5,38.3,300z"/>
<path fill-rule="evenodd" clip-rule="evenodd" fill="#F3F3EB" d="M300,45.8C159.6,45.8,45.8,159.6,45.8,300S159.6,554.2,300,554.2
	S554.2,440.4,554.2,300S440.4,45.8,300,45.8 M300,538C168.5,538,62,431.5,62,300S168.5,62,300,62s238,106.6,238,238
	S431.5,538,300,538z"/>
<path fill="#FFFFFF" d="M309.4,149.6c-1,0.1-1.6,0.2-1.7,0.2c0,0-0.1,0,0,0c0-0.1,0.4-0.2,1.2-0.6c0.7-0.3,1.9-0.8,3.5-1.7
	c0.8-0.6,2-1.6,3.5-2.9c1-0.9,2.1-1.7,3.2-2.3c1.4-0.7,2.7-1,3.9-0.8c0.3,0,0.7,0.2,1.1,0.4c0.5,0.2,0.9,0.4,1.2,0.4
	c0.6,0.1,1.2-0.1,1.7-0.5c0.4-0.4,0.8-0.9,1.2-1.3c0.3-0.3,0.5-0.5,0.7-0.4c0.1,0,0.1,0.1,0.1,0.3c0,0.2-0.2,0.6-0.5,1.1
	c-0.1,0.2,0.4,0.5,1.8,0.7c0.1,0,0.2,0,0.2-0.1c0,0,0-0.4-0.1-1c0-0.2,0.1-0.4,0.3-0.7c0.4-0.5,0.7-0.8,0.7-0.7
	c0.3,0.4,0.4,0.9,0.3,1.5c-0.1,0.5-0.3,1.1-0.7,1.8c-0.4,0.7-0.7,1.1-0.9,1.2c-0.7,0.3-1.6,0.1-2.7-0.7c-1.2,0.9-2.3,1.3-3.3,1.2
	c-0.3,0-0.7-0.2-1.1-0.4c-0.4-0.2-0.8-0.4-1-0.4c-1.7-0.3-3.6,0.3-5.6,1.7c-1.5,1.1-3,2.2-4.5,3.2
	C311.1,149.2,310.2,149.5,309.4,149.6"/>
<path fill="#FFFFFF" d="M143.2,442c0.4-2.6,1.3-5.7,2.7-9.3c1.1-2.8,1.7-5.7,1.7-8.5c0-5.4-2.5-10.5-7.4-15.4
	c-0.4-0.4-0.4-0.8-0.2-1.3l1.7-3c0.2-0.3,0.4-0.3,0.7,0c4.9,4.1,7.4,9.9,7.4,17.5c0,3.6-0.8,7.5-2.4,11.6c-1.6,4.1-2.4,6.9-2.4,8.5
	c0,3.2,0.9,4.7,2.6,4.7c1,0,2.1-1.2,3.4-3.6c0.1-0.2,0.2-0.4,0.3-0.5c0.1-0.1,0.2-0.1,0.2,0.1c0,0.1,0,0.3,0,0.6
	c-1,5.6-2.7,8.4-5,8.4c-2.4,0-3.5-2.3-3.5-6.8C143,443.9,143.1,443,143.2,442"/>
<path fill="#FFFFFF" d="M116.5,418.9c-0.4,0.9-0.7,1.4-1,1.4c-0.4,0-0.4-0.6-0.2-1.8c0.2-1,0.3-2.4,0.3-4c0-5.3-3-10.6-9-15.9
	c-0.4-0.3-0.4-0.8-0.2-1.3l1.7-3c0.2-0.3,0.4-0.3,0.7,0c5.9,4.4,8.8,10.3,8.8,17.9C117.7,414.6,117.3,416.8,116.5,418.9"/>
<path fill="#FFFFFF" d="M270.2,84.4c0,0.3-0.4,1.1-1.3,2.3c-1,1.3-1.9,2.3-2.7,2.9c-0.6,0.4-2.4,1-5.5,1.8c-0.5,0.1-0.7,0.2-0.8,0.2
	v0c0.1-0.1,0.3-0.2,0.6-0.5c0.4-0.3,1.5-0.9,3.3-1.9c1.7-0.9,2.8-1.5,3-1.8c0.1-0.1,0.1-0.1,0.1-0.2c0-0.4-1.5-0.6-4.6-0.6
	c0,0-0.6,0-1.8,0.1c-0.3,0-0.4,0-0.6,0V86l1.1-1.8c0.3-0.5,0.9-0.9,1.8-1c0.3-0.1,1-0.1,2.1-0.1C268.5,83.2,270.2,83.6,270.2,84.4"
	/>
<path fill="#FFFFFF" d="M194.7,437.2c-1.3,3-3.9,5.9-7.7,8.8c-3.5,2.5-6.6,4.5-9.5,5.8c-0.6,0.3-3.9,1.6-10,3.8
	c-0.9,0.3-1.6,0.5-1.9,0.5c-0.2,0-0.2,0-0.2-0.1c0-0.2,0.5-0.7,1.7-1.4c5-2.8,12.1-7.2,21.3-13.3c2.3-1.8,4-3.4,5.2-4.8
	c1.5-1.8,2.3-2.7,2.5-2.7c0,0,0.1,0,0.1,0.1C196,434.2,195.6,435.3,194.7,437.2 M207,415.7c0,0.5-0.1,1.1-0.4,1.9
	c-0.3,1.1-0.7,1.6-1.2,1.6c-0.2,0-0.6-0.4-1.3-1.2c-0.6-0.8-1.3-1.2-2-1.2c-1.5,0-2.9,3.6-4.2,10.8c-0.6,3.1-1.2,5.3-1.9,6.6
	c-0.5,0.9-0.9,1.3-1.3,1.3c-0.3,0-0.5-0.4-0.5-1.2c0-1.3-0.7-3.7-2.2-7.3c-1.4-3.6-2.5-5.4-3.1-5.4c-0.4,0-0.7,0.1-0.8,0.4
	c-0.1,0.3-0.5,0.4-1,0.4c-0.6,0-1.5-0.5-2.5-1.4c-1-0.9-1.6-1.7-1.6-2.3c0-0.3,0.4-1.1,1.3-2.6c0.9-1.5,1.4-2.2,1.7-2.2
	c2.1,0,4,1.3,5.7,3.8c1.7,2.5,2.9,5.8,3.6,9.9c0.1,0.4,0.1,0.7,0.1,0.7c0.1,0.1,0.1,0.1,0.2,0c0-0.1,0.1-0.3,0.3-0.7
	c0.3-2.4,1.2-6.1,2.5-10.9c1.4-3.5,3-5.2,4.7-5.2c0.9,0,1.7,0.6,2.6,1.8C206.7,414.2,207,415,207,415.7z"/>
<path fill="#FFFFFF" d="M276,502.9c-0.1-1-1.1-1.8-2.8-2.2c-1.7-0.4-4.6,0.6-8.8,3.1c0.4,0.2,0.7,0.3,1.2,0.4
	c1.8,0.4,3.8,0.4,6.1,0.1C273.9,504,275.3,503.5,276,502.9 M278.2,501.8c-0.7,2.7-2.6,4.8-5.8,6.2c-3.2,1.4-6.5,1.7-10,0.9
	c-0.6-0.2-1.4-0.5-2.3-1c-0.9-0.5-1.6-0.8-2.1-0.9c-3.7-0.9-7.8,0-12.4,2.7c-3.4,2.1-6.8,4.2-10.2,6.3c-2,0.9-3.8,1.3-5.6,1.4
	c-2.2,0.1-3.4,0.1-3.7,0.1c-0.1,0-0.1,0-0.1-0.1c0-0.1,0.9-0.4,2.6-1c1.6-0.4,4.2-1.4,7.7-3c1.8-1.1,4.5-2.9,8-5.5
	c2.5-1.8,4.9-3.2,7.5-4.3c2.9-1.2,5.4-1.7,7.6-1.5c-0.3,0,1,0.3,3.9,1c2.1-1.3,4.1-2.5,6.2-3.7c2.7-1.4,4.7-2,6.2-1.6
	C277.9,498.1,278.7,499.5,278.2,501.8z"/>
<path fill="#FFFFFF" d="M417.7,496.5c-3.8,3.4-8.7,5.1-14.6,5.1c-1.9,0-3.4-0.5-4.6-1.5c-1.2-1-1.8-2.2-1.8-3.7
	c0-2.6,1.1-5.2,3.3-7.9c2.2-2.3,4.3-4.6,6.5-6.9c0.5-0.5,0.3-0.9-0.4-1.1c-1.6-0.6-3.4-0.9-5.2-0.9c-1,0-2.1,0.3-3.4,0.9
	c-0.3,0.1-0.4,0.1-0.5,0.1c-0.1-0.1-0.1-0.3,0.1-0.6c0.8-1.8,1.5-3,2.3-3.6c1-0.8,2.4-1.1,4.4-1.1c4.4,0,6.7,1.1,6.7,3.2
	c0,1.6-1.4,3.9-4.3,6.9c-2,2.1-4,4.1-6,6.2c-0.9,1.1-1.3,2.1-1.3,2.9c0,1.8,2.1,2.7,6.2,2.7c3.8,0,7.8-0.6,12.2-1.9
	c1.2-0.3,1.8-0.4,1.8-0.3C419.1,495.3,418.7,495.8,417.7,496.5"/>
<path fill="#FFFFFF" d="M316.7,430.5c-0.2-1.3-2.4-3.2-6.7-5.7c-5.1-3-10-4.3-14.5-3.7c-9.4,1.1-17.7,10-24.9,26.7
	c3.9,0.7,7.5,0.9,10.8,0.5c5.6-0.7,11.5-2.4,17.5-5.2c4.7-2.2,9.1-4.8,12.9-7.7C315.1,432.8,316.8,431.2,316.7,430.5 M246.8,450.2
	c-6.3,0.8-13.4,4.5-19.8,11.5c-4.8,6.1-9.7,12.1-14.5,18.2c-4.5,5.4-8.4,9.2-11.6,11.5c-2.2,1.6-6.3,3.8-12.4,6.6
	c-5.3,2.5-8.6,3.8-10.2,4c-0.5,0.1-0.8,0-0.8-0.2c-0.1-0.6,1.4-2,4.3-4.4c4.9-3.9,7.5-5.9,7.8-6.2c4.2-3.4,7.8-6.7,10.8-9.8
	c3-3.1,7.8-9,14.6-17.6c6-7.6,10.7-13,14.2-16.3c5.3-4.9,11.2-7.4,16.2-8c3.9-0.5,8,0.3,12.2,2.2c3.2,1.7,6.4,3.4,9.6,5.1
	c5.3-11.3,9.1-18.6,11.3-22c5.8-9,11.9-13.8,18.4-14.6c5.6-0.7,11,1,16.1,5.1c4.3,3.5,6.7,6.6,7,9.5c0.1,1-0.2,3.2-0.9,6.6
	c-0.8,3.6-1.7,6.1-2.6,7.5c-2,3.1-5.8,6.6-11.3,10.4c-7.9,5.5-16.3,8.8-25.2,9.8c-3.3,0.4-7.5,0-12.6-1.3c-0.6,2.3-0.8,4.4-0.6,6.3
	c0.5,3.9,2.7,6.6,6.8,7.9c15.7,5.3,35.8,6.2,60.6,3.3c16.9-2,38.8-7.9,65.7-17.5c18.1-6.5,32.4-12.3,43-17.3l-24.4-3.7
	c-2.3-0.3-3.8-0.4-4.5-0.3c-0.6,0.1-1.1,0.5-1.5,1.1c-0.4,0.7-1.2,1-2.5,1c-4.2,0.3-8.8,0.6-13.8,0.8c-1.2-0.1-1.8-0.5-1.9-1
	c0-0.3,0.1-0.8,0.4-1.5l2.7-7.4c0.4-1.1,1-1.7,1.9-1.9c6.1-1.6,11-2.5,14.7-2.7c14.4,2.1,25,3.6,31.9,4.4c15,1.6,27.7,2.2,38.1,1.7
	c2-0.1,3,0.1,3.1,0.6c0,0.1,0,0.4-0.1,0.7l-2.9,7.9c-0.3,0.8-0.7,1.3-1.3,1.4c0,0-1.4,0.1-4.4,0.3c-3,0.2-5.8,0.5-8.4,0.8
	c-9.7,1.2-17.7,3.1-23.8,5.8c-49.9,22-86.9,34.5-111.1,37.4c-14.2,1.7-26.4,2.1-36.7,1.3c-7.2-0.6-14.9-1.7-23.3-4.1
	c-6.3-1.7-9.9-6.6-10.8-14.6c-0.5-3.8-0.2-7.6,0.7-11.4c-4.6-2.6-7.4-4.2-8.4-4.6C252.8,450.5,249.6,449.9,246.8,450.2z"/>
<path fill="#FFFFFF" d="M463.2,379.7c-19.4,5.3-43.3,9.8-71.5,13.6c-38.3,5.3-76.8,7.9-115.5,7.9c-17.8,0-43-1-75.6-2.9
	c-35-2.1-54.8-4.1-59.6-6c-14.4-5.6-29.7-12.6-45.8-20.9c-7-3.6-10.5-5.9-10.5-6.8c0-0.4,0.6-0.6,1.7-0.6c1.9,0,5.5,0.6,10.8,1.7
	c6.6,1.4,13.2,2.9,19.7,4.3c12.6,2.5,25.6,4.5,39,6c22.2,2.5,37.6,4,46,4.6c22.6,1.6,49.9,2.4,81.9,2.4c54.3,0,104.9-4.3,151.7-13
	c10.9-2,23.6-5,37.9-9.1c11.4-3.2,19.2-4.9,23.6-5.2c1.1-0.1,2.1-0.1,3.1-0.1c9.2,0,13.8,2.1,13.8,6.2c0,8.2-5.2,18.7-15.6,31.6
	c-4.5,5.1-10.2,12.3-17.1,21.6c-2.5,4.2-4.1,6.3-4.8,6.3c-0.2-0.1-0.4-0.3-0.4-0.6c0-1.2,0.8-4,2.5-8.3c2.5-6.6,7.6-14.3,15.3-22.9
	c6.7-7.6,10.1-12.3,10.1-14c0-1.5-3.1-2.3-9.2-2.3C489.6,373.2,479.1,375.4,463.2,379.7"/>
<path fill="#FFFFFF" d="M227.4,358.2l4.2-8.7c0.3-0.7,0.7-1,1.1-1c0.5,0,2.9,1.4,7.1,4.3c4.2,2.9,6.3,4.5,6.3,5
	c0,1.9-1.8,5.8-5.5,11.7c-0.4,0.7-0.9,0.9-1.4,0.6c-3.6-2.7-7.7-5.5-12.3-8.5c-1.5,3.5-3.1,6.4-4.5,8.8c-0.4,0.8-0.9,1-1.4,0.6
	c-4.1-3.1-8.4-6.1-12.8-8.8c-0.2-0.2-0.2-0.5,0-1l5.3-10.8c0.3-0.7,0.7-1,1.1-1c0.5,0,2.5,1.2,6,3.5
	C224,355.4,226.3,357.1,227.4,358.2"/>
<path fill="#FFFFFF" d="M247.7,420.9c-0.2-0.2-0.2-0.5,0-0.9l4.9-10c0.3-0.6,0.6-0.9,1-0.9c0.5,0,2.7,1.3,6.6,4
	c3.9,2.6,5.8,4.2,5.8,4.7c0,1.7-1.7,5.3-5.1,10.8c-0.4,0.7-0.8,0.9-1.3,0.5C255.7,426.1,251.8,423.4,247.7,420.9"/>
<path fill="#FFFFFF" d="M397.1,142.6c-0.4,1.2-1,2.6-1.9,4.2c-3.2,2.6-5.7,4.5-7.8,5.6c-3.5,2-7,3-10.6,3c-1.8,0-3.2-0.2-4.1-0.6
	l-1.1-5.6c-2.2-2.7-3.2-5.3-3.2-7.9c0-4,1.2-7,3.6-9.1c2.1-1.8,4.7-2.7,7.7-2.7c4.1,0,7.7,1.3,10.9,4c0.5,0.4,0.8,0.8,0.8,0.9
	c0,0.1-0.1,0.2-0.3,0.2c-0.3,0-0.7-0.1-1.2-0.3c-2.2-0.8-4.1-1.2-5.7-1.2c-2.4,0-5,0.4-7.5,1.1c-2.6,0.7-4.4,1.6-5.6,2.7
	c0,2.6,0.9,5.2,2.8,7.8c2.2,3.1,5.1,4.7,8.6,4.7c1.8,0,4.1-0.8,7-2.5c2.4-1.4,4.5-2.9,6.5-4.6c0.4-0.4,0.7-0.5,0.9-0.6
	C397.3,141.8,397.3,142.1,397.1,142.6"/>
<path fill="#FFFFFF" d="M240.8,167.6c-2,0-3.8-1.6-5.2-4.8c-1.3-2.8-1.9-5.7-1.9-8.8c0-3.7,0.4-6.6,1.1-8.8c0.3-0.8,0.5-1.2,0.6-1.2
	c0.2,0,0.3,0.5,0.2,1.5c-0.3,2.3-0.4,4.3-0.4,5.9c0,7.7,1.8,11.6,5.4,11.6c1.5,0,2.8-1.1,4-3.4c1.3-2.7,2.5-5.4,3.8-8.1
	c1.1-2.2,2.4-4.1,4-5.7c1.7-1.6,3.1-2.4,4.5-2.4c1.3,0,2.7,1.4,4.2,4.2c1.4,2.6,2.7,4.2,4,4.8c1.6,0.8,4.5,1.4,8.3,2
	c4.9,0.7,10.6,1.1,17,1.1c10.2,0,20.7-1.1,31.6-3.4c11.1-2.3,19.9-5.3,26.5-8.9c0.3-0.2,0.5-0.2,0.6-0.2c0.1,0.1,0.2,0.3,0.1,0.6
	c-0.1,0.8-0.2,1.6-0.2,2.2c0,3,1.3,4.6,3.9,4.6c3.6,0,6.3-1.1,7.8-3.3c1.1-1.6,1.6-4.3,1.6-8.1c0-10.8-0.5-20-1.4-27.4
	c-0.4-3.6-1-7.2-1.7-10.7c0.4-2.3,0.7-3.9,1.1-4.8c0.1-0.4,0.3-0.6,0.4-0.6c0.1,0,0.3,0.2,0.4,0.6c1.2,3.9,2.2,9,3,15
	c0.4,3.1,0.7,7.8,0.9,14.1c0.2,6.4,0.4,10.7,0.7,13c0.5,4.1,1.4,6.8,2.6,8c1.4,1.4,3,2.5,4.6,3.3v5.6c-2.4-1-4.3-2-5.6-3.2
	c-2-1.7-3.4-3.9-4-6.6c-0.3,4.1-1.8,7-4.4,8.9c-1.7,1.2-3.8,1.9-5.9,1.9c-1.7,0-3.2-0.6-4.3-1.8c-1.2-1.3-1.9-3.2-2-5.5
	c-7.6,3.8-16.6,6.9-27.2,9.2c-10.2,2.2-19.8,3.3-28.9,3.3c-11.8,0-20.5-1-25.6-3.1c-1.7-0.7-3.1-1.8-4.3-3.4
	c-0.1-0.2-0.9-1.4-2.4-3.8c-0.7-1.2-1.4-1.8-2.1-1.8c-2.1,0-4.3,1.8-6.6,5.3c-0.4,0.6-1.1,2.3-2.2,4.9c-1.1,2.6-2,4.6-2.8,5.7
	C243.5,166.7,242.2,167.6,240.8,167.6"/>
<path fill="#FFFFFF" d="M351.2,91.5c0-1.8-0.3-3.2-0.8-4.4c0-0.6,0.5-2.2,1.6-4.6c0.1-0.3,0.2-0.4,0.3-0.4c0.1,0,0.2,0.2,0.4,0.5
	c0.3,0.6,1,2.4,2.1,5.2c1.1,3,1.8,4.8,2,5.5c0.1,0.5,0.2,0.9,0.2,1.2c0,0.8-0.8,0.3-2.4-1.5c-0.2-0.3-0.3-0.1-0.3,0.3
	c0,0.2,0.4,5.9,1.2,17.1c0.8,11.2,1.2,17.6,1.2,19c0,4.3-0.7,8.1-2,11.4c-0.3,0.7-0.5,1.1-0.7,1.4c-0.3,0.4-0.4,0.5-0.5,0.2
	c-0.1-0.3,0-1,0.1-2.1c0.2-1.5,0.2-3.2,0.2-5.2c0-1.8-0.5-9.1-1.4-22C351.6,100.3,351.2,93.1,351.2,91.5"/>
<path fill="#FFFFFF" d="M312,131c2.3,0,4.4-0.8,6.5-2.5c0.2-0.1,1-1,2.6-2.6c1.4-1.5,2.2-2.3,2.3-2.3c0.3,0,0.4,0.3,0.2,1
	c-0.3,0.9-0.4,1.4-0.4,1.7c0,0.6,0.3,1.4,0.8,2.2c0.7,1.1,1.6,1.6,2.8,1.6c3,0,5.6-2.2,7.8-6.6c0.2-0.4,0.5-0.7,0.8-0.7
	c0.2,0,0.4,0.2,0.4,0.6c0,0.1,0,0.4-0.1,0.7c0,0.3-0.1,0.6-0.1,0.8c0,1.3,0.4,2.3,1.2,3.1c0.8,0.8,1.8,1.2,3,1.2
	c1.8,0,3.7-0.7,5.3-2.1c0.5-0.4,0.7-1.9,0.7-4.4c0-1.6-0.4-7.8-1.2-18.8c-0.8-11-1.2-17.4-1.2-19.4c0-1.8-0.3-3.2-0.8-4.4
	c0-0.6,0.5-2.2,1.6-4.6c0.1-0.3,0.2-0.4,0.3-0.4c0.1,0,0.2,0.2,0.4,0.5c0.3,0.6,1,2.4,2.1,5.2c1.1,3,1.8,4.8,2,5.4
	c0.1,0.6,0.2,0.9,0.2,1.2c0,0.8-0.8,0.3-2.3-1.4c-0.2-0.3-0.3-0.1-0.3,0.3c0,0.1,0.4,5,1.1,14.6c0.7,9.6,1.1,15.4,1.1,17.2
	c0,5.4-1,9.6-2.9,12.7c-1.6,2.6-3.7,3.9-5.9,3.9c-2.8,0-4.8-1.8-6-5.3c-0.1-0.5-0.3-0.5-0.5,0c-1.6,4.1-3.8,6.1-6.8,6.1
	c-3,0-4.7-1.9-5.3-5.6c0-0.3-0.1-0.5-0.1-0.5c-0.1,0-0.2,0.2-0.3,0.5c-0.7,1.2-1.8,2.4-3.1,3.6c-2.2,2-4.4,2.9-6.6,2.9
	c-2.4,0-4.1-0.7-5-2.2c-0.6-0.9-0.9-2.3-1-4c0-0.2-0.1-0.3-0.3-0.3c-0.3,0-0.6,0.2-0.9,0.5c-1.9,2.1-3,3.5-3.6,3.9
	c-2.4,2-4.9,3-7.5,3c-2.8,0-4.8-1.1-6-3.2c-0.8-1.4-1.4-3.7-1.7-6.8c-1,5-2,8.2-3,9.6c-2.2,3.2-4.7,5.4-7.6,6.7
	c-1.1,0.5-3,1.1-5.7,1.8c-2.7,0.7-4.7,1.1-6,1.3c-0.5,0-0.8,0-0.8-0.2s0.2-0.4,0.7-0.7c2.5-1.4,6.5-3.9,12.1-7.2
	c6.2-4.1,9.3-10.1,9.3-18c0-10.3-0.5-19.2-1.4-26.9c-0.3-2.5-0.8-6.1-1.6-10.7c0.4-2.7,0.7-4.3,0.9-4.8c0.1-0.4,0.3-0.6,0.4-0.6
	c0.1,0,0.2,0.2,0.4,0.6c1.2,4,2.2,9,2.9,15.1c0.5,4.1,0.9,10.4,1.1,19c0.2,7.7,0.5,12.6,0.9,14.4c0.4,2.1,1.1,3.6,2.1,4.3
	c0.7,0.5,1.6,0.8,2.8,0.8c2.7,0,5.2-0.7,7.2-2.1c0.8-0.6,2.7-2.3,5.5-5.2c0.4-0.4,0.7-0.5,1-0.5c0.5,0,0.6,0.3,0.4,1
	c-0.2,0.7-0.3,1.3-0.3,1.9c0,1.3,0.5,2.3,1.6,3C309.1,130.6,310.4,131,312,131 M280.9,127.8c-0.4,3.5-0.7,5.2-0.8,5.2
	c-0.1,0-0.4-1.4-0.8-4.3c-0.7-4.6-4.1-9.8-10.1-15.6c-7.4-7-12.8-12.7-16.2-16.9c-0.9-1.2-2.1-2.9-3.6-5.1c-0.5-0.7-1-1.2-1.5-1.5
	c-0.3-0.2-0.4-0.5-0.4-0.9v-3.7c0-0.7,0.1-1.1,0.4-1.1c0.2,0,0.5,0.2,1,0.6l7.1,5.4c0.5,0.4,0.8,0.7,0.8,0.9c0,0.1-0.2,0.2-0.6,0.2
	c-0.6,0-1.6-0.2-2.9-0.4c1.1,1.6,3.9,4.6,8.4,9.1c3.2,3.2,6.5,6.4,9.7,9.6c6.6,6.7,9.8,12.4,9.8,17.1
	C281,127,280.9,127.4,280.9,127.8z"/>
<path fill="#FFFFFF" d="M242.4,136.6c5.1-4,10-6.8,14.6-8.3c-0.3-0.6-0.8-1.5-1.4-2.8c-0.3-0.6-0.4-1.4-0.4-2.3
	c0-1.4,0.4-2.7,1.1-3.7c0.9-1.2,2.1-1.8,3.8-1.8c1.3,0,3.2,0.9,5.7,2.6c2.6,1.8,3.9,3.3,3.9,4.4c-0.4,1.6-0.8,3-1.4,4.4
	c-2.1,0.6-4.7,1.4-7.7,2.4c0.1,1.7-0.1,2.6-0.5,2.6c-0.3,0-0.7-0.6-1.1-1.9c-1.4,0.5-3.3,1.3-5.7,2.4c-3.6,1.6-6.2,3.2-8.1,4.6
	c-2.8,2.2-5.6,4.8-8.5,8c-3.3,3.6-5.2,5.6-5.7,6.1c-1.8,1.6-3.5,2.4-5.2,2.4c-1.9,0-3.5-0.8-4.9-2.5c-1.4-1.7-2.1-3.8-2.1-6.3
	c0-3.4,1.4-7.9,4.2-13.4c0.3-0.6,0.5-0.8,0.7-0.8c0.1,0,0.1,0.1,0.1,0.2c0,0.6-0.6,2.5-1.8,5.8c-1.2,3.3-1.8,5.9-1.8,7.8
	c0,1.4,0.4,2.6,1.1,3.5c0.7,0.9,1.7,1.4,3,1.4c1.8,0,3.7-0.9,5.8-2.6c1.1-0.9,3-2.9,5.7-5.9C238.6,139.9,240.7,137.8,242.4,136.6
	 M263.8,125.5c0-0.4-0.9-1-2.6-1.8c-1.7-0.7-3-1-3.8-0.9c-0.3,0.1-0.4,0.2-0.3,0.3c0.3,0.8,0.9,2.2,1.9,4.1
	C261.5,126.5,263.1,125.9,263.8,125.5z"/>
<path fill="#FFFFFF" d="M306.5,169l1.4-2.9c0.1-0.2,0.2-0.3,0.4-0.3c0.2,0,1,0.5,2.4,1.4c1.4,1,2.1,1.5,2.1,1.7
	c0,0.6-0.6,1.9-1.9,3.9c-0.1,0.2-0.3,0.3-0.5,0.2c-1.2-0.9-2.6-1.9-4.1-2.9c-0.5,1.2-1,2.2-1.5,3c-0.1,0.3-0.3,0.3-0.5,0.2
	c-1.4-1.1-2.8-2-4.3-3c-0.1-0.1-0.1-0.2,0-0.3l1.8-3.6c0.1-0.2,0.2-0.3,0.4-0.3c0.2,0,0.8,0.4,2,1.2
	C305.3,168,306.1,168.6,306.5,169"/>
<path fill="#FFFFFF" d="M292.6,101.6c14.3-5.3,29.3-10.9,44.9-16.6c0.6-0.2,1-0.3,1.1-0.2c0.2,0.1,0.1,0.4-0.1,1
	c-0.7,1.7-1.2,2.7-1.7,3c-12.9,4.8-28.1,10.6-45.4,17.6v-2C291.7,103.5,292.1,102.6,292.6,101.6"/>
<path fill="#FFFFFF" d="M269.8,96.3c14.3-5.3,29.3-10.9,44.9-16.6c0.6-0.2,1-0.3,1.1-0.2c0.2,0.1,0.1,0.4-0.1,1
	c-0.7,1.7-1.2,2.7-1.7,3C301.1,88.1,286,94,268.6,101v-2C268.9,98.1,269.4,97.2,269.8,96.3"/>
<path fill="#FFFFFF" d="M241.5,175.5c8.2-3,16.8-6.2,25.7-9.5c0.3-0.1,0.6-0.2,0.6-0.1c0.1,0.1,0.1,0.2-0.1,0.6
	c-0.4,1-0.7,1.5-0.9,1.7c-7.4,2.7-16.1,6.1-26,10.1v-1.2C241,176.6,241.2,176.1,241.5,175.5"/>
<path fill="#FFFFFF" d="M318.4,106.9c0,0.7-0.2,1.4-0.5,2.2c-0.4,1-0.9,1.5-1.6,1.5c-1,0-1.8-0.7-2.2-2.1c-0.5,1.8-1.4,2.7-2.7,2.7
	c-0.5,0-0.9-0.2-1.3-0.7c-0.4-0.6-0.6-1.3-0.6-2.3V106c0-0.2-0.1-0.3-0.4-0.4c-0.2-0.1-0.4-0.3-0.4-0.6c0-0.5,0.2-1,0.6-1.4
	c0.4-0.4,0.7-0.6,0.9-0.6c0.3,0,0.4,0.5,0.4,1.5c0,0.5,0,0.9-0.1,1.3c-0.1,0.3-0.1,0.6-0.1,0.9c0,0.5,0.1,1,0.3,1.5
	c0.3,0.6,0.6,0.8,0.9,0.8c0.5,0,0.9-0.2,1.4-0.7c0.4-0.4,0.6-1,0.6-1.6c0-0.3-0.1-0.9-0.3-1.8c-0.2-0.8-0.3-1.3-0.3-1.5
	c0-0.2,0.1-0.5,0.3-0.8c0.2-0.4,0.3-0.6,0.4-0.6c0.2,0,0.4,0.5,0.6,1.6c0.3,1.1,0.4,1.9,0.4,2.4c0,1.5,0.6,2.3,1.8,2.3
	c0.5,0,0.8-0.3,0.9-0.8c-1-1.8-1.5-3.1-1.5-4c0-0.5,0.1-1,0.4-1.4c0.2-0.3,0.3-0.4,0.4-0.5c0.1,0,0.1,0.2,0.2,0.5
	c0.1,0.5,0.1,0.9,0.2,1.2c0,0,0.3,0.7,0.7,1.9C318.3,106,318.4,106.6,318.4,106.9"/>
<path fill="#FFFFFF" d="M241,116.8c-2.9-1.5-4.4-3.1-4.4-4.8c0-2,0.9-3.9,2.8-5.5c1.9-1.7,3.4-2.3,4.6-1.8c1,0.4,1.6,1.5,1.6,3.4
	c0,1.7-0.3,3.6-1,5.6c1.5,0.9,2.4,1.6,2.8,2.2c0,0.8-0.7,2.1-2,4c-0.4-0.6-1.3-1.3-2.7-2.2c-1.6,2.3-3.7,4.3-6.3,6.2
	c-2.9,2.1-5.5,3.7-7.9,4.8c-0.5,0.3-3.3,1.3-8.3,3.2c-0.8,0.3-1.3,0.4-1.6,0.4c-0.1,0-0.2,0-0.2-0.1c0-0.2,0.4-0.6,1.3-1.1
	c3.7-2.2,7.5-4.4,11.2-6.7C235.5,121.6,238.8,119.1,241,116.8 M242.8,112.7c0.3-0.9,0.3-1.8,0.2-2.7c-0.2-1-0.6-1.5-1.4-1.5
	c-0.3,0-0.8,0.2-1.4,0.5c-0.6,0.3-0.9,0.7-0.9,1C239.3,110.7,240.5,111.6,242.8,112.7z"/>
<path fill="#FFFFFF" d="M373.2,123.7c1.4,0,2.8-0.2,4.4-0.7c0.4-0.1,0.7-0.2,0.7-0.1c0,0.1-0.2,0.2-0.5,0.5
	c-1.4,1.2-3.1,1.8-5.3,1.8c-0.7,0-1.2-0.2-1.6-0.5c-0.4-0.3-0.6-0.8-0.6-1.3c0-1.4,0.6-2.9,1.8-4.5c-1.1-0.3-1.6-0.9-1.6-1.7
	c0-0.7,0.4-1.5,1.3-2.5c0.9-1,1.5-1.4,2.1-1.4c0.1,0,0.3,0.1,0.4,0.3c0.1,0.2,0.2,0.5,0.2,0.7c0,0.1-0.1,0.4-0.4,0.8
	c-0.3,0.4-0.4,0.6-0.5,0.5c-0.1-0.4-0.3-0.6-0.7-0.6c-0.2,0-0.4,0.2-0.7,0.5c-0.3,0.3-0.4,0.6-0.4,0.8c0.3,0.6,0.9,0.8,1.7,0.8
	c0.3,0,0.7-0.3,1.3-0.8c0.3-0.3,0.7-0.6,1-1c0.1-0.1,0.2,0,0.2,0.3c0,0.6-0.2,1.3-0.7,1.9c-1.8,1.2-3.2,2.6-4,4.2
	c-0.2,0.3-0.2,0.6-0.2,0.8C370.9,123.3,371.7,123.7,373.2,123.7"/>
<path fill="#FFFFFF" d="M352.3,428.8c18.4-6.8,37.5-13.9,57.5-21.3c0.8-0.3,1.2-0.4,1.4-0.3c0.2,0.1,0.1,0.6-0.1,1.2
	c-0.9,2.1-1.6,3.4-2.1,3.9c-16.6,6.1-36,13.6-58.2,22.6v-2.6C351.2,431.2,351.7,430.1,352.3,428.8"/>
<path fill="#FFFFFF" d="M409.2,121.7c-0.2,1.2-0.5,1.8-0.9,1.8c-0.4,0.1-0.6-0.6-0.6-2c0-1.3-0.1-2.8-0.5-4.8
	c-1.2-6.2-5.9-11.8-14.1-16.7c-0.5-0.3-0.7-0.8-0.5-1.4l1.3-3.9c0.1-0.3,0.4-0.4,0.9-0.2c7.9,3.8,12.7,10.2,14.4,19.1
	C409.7,116.4,409.7,119.1,409.2,121.7"/>
<path fill="#FFFFFF" d="M138.4,180.2c-1.5,3.5-4.5,6.9-9,10.2c-4,3-7.7,5.2-11.1,6.7c-0.7,0.4-4.6,1.8-11.7,4.4
	c-1.1,0.4-1.9,0.6-2.3,0.6c-0.2,0-0.3,0-0.3-0.1c0-0.3,0.6-0.8,1.9-1.6c5.8-3.3,14.1-8.4,24.8-15.4c2.7-2.1,4.7-3.9,6-5.6
	c1.7-2.1,2.7-3.1,2.9-3.1c0,0,0.1,0,0.1,0.1C139.9,176.8,139.4,178,138.4,180.2 M152.7,155.2c0,0.6-0.2,1.3-0.5,2.3
	c-0.4,1.2-0.9,1.9-1.4,1.9c-0.2,0-0.7-0.5-1.5-1.4c-0.7-0.9-1.5-1.4-2.3-1.4c-1.8,0-3.4,4.2-4.9,12.5c-0.7,3.6-1.4,6.2-2.2,7.7
	c-0.6,1-1.1,1.5-1.5,1.5c-0.4,0-0.5-0.5-0.5-1.4c0-1.5-0.8-4.3-2.5-8.5c-1.7-4.2-2.9-6.3-3.6-6.3c-0.5,0-0.8,0.2-0.9,0.5
	c-0.1,0.3-0.5,0.5-1.2,0.5c-0.7,0-1.7-0.6-2.9-1.7c-1.2-1.1-1.8-2-1.8-2.6c0-0.3,0.5-1.3,1.5-3c1-1.7,1.7-2.6,1.9-2.6
	c2.5,0,4.7,1.5,6.7,4.4c2,2.9,3.3,6.8,4.1,11.5c0.1,0.5,0.1,0.8,0.1,0.9c0.1,0.1,0.2,0.1,0.2,0c0-0.1,0.2-0.4,0.3-0.9
	c0.4-2.8,1.4-7,2.9-12.7c1.7-4,3.5-6,5.5-6c1,0,2,0.7,3,2.1C152.3,153.5,152.7,154.4,152.7,155.2z"/>
<path fill="#FFFFFF" d="M199.9,133.9c0,4.4-1.8,9.3-5.4,14.8c-3.7,5.8-8.4,10.8-14.2,14.8c-1.2,0.8-2.1,1.4-2.8,1.8v-1.6
	c0.4-0.5,0.9-1,1.5-1.7c9.6-10.4,14.3-17.4,14.3-20.9c0-3.3-1.5-5-4.6-5c-1.7,0-3.2,0.5-4.6,1.4c-1,0.7-1.7,1.1-1.9,1.1
	c-0.2-0.2-0.4-0.3-0.6-0.4c0.1-0.3,0.3-1.2,0.5-2.7c1.5-7.2,5.1-10.7,10.8-10.7C197.6,125,199.9,128,199.9,133.9"/>
<path fill="#FFFFFF" d="M423.8,133.5c2.4,0,4.6,1.4,6.5,4.3c1.9,2.9,3.3,6.7,4.1,11.3c0.1,0.5,0.1,0.8,0.1,0.8
	c0.1,0.1,0.2,0.1,0.2,0c0-0.1,0.2-0.4,0.3-0.8c0.4-2.8,1.3-6.9,2.9-12.4c1.6-3.9,3.5-5.9,5.4-5.9c1,0,2,0.7,3,2
	c0.9,1.2,1.3,2.1,1.3,2.9c0,0.6-0.1,1.3-0.5,2.2c-0.4,1.2-0.8,1.8-1.4,1.8c-0.2,0-0.7-0.5-1.4-1.4c-0.7-0.9-1.5-1.4-2.3-1.4
	c-1.7,0-3.3,4.1-4.8,12.3c-0.7,3.6-1.4,6.1-2.1,7.5c-0.6,1-1,1.5-1.4,1.5c-0.3,0-0.5-0.5-0.5-1.4c0-1.4-0.8-4.2-2.5-8.4
	c-1.6-4.1-2.8-6.2-3.5-6.2c-0.5,0-0.8,0.2-0.9,0.5c-0.1,0.3-0.5,0.5-1.2,0.5c-0.7,0-1.7-0.5-2.9-1.6c-1.2-1.1-1.8-2-1.8-2.6
	c0-0.3,0.5-1.3,1.5-3C422.9,134.3,423.5,133.5,423.8,133.5"/>
<path fill="#FFFFFF" d="M347.7,461.9c-0.4,0.9-0.7,1.4-1,1.4c-0.4,0-0.4-0.6-0.2-1.8c0.2-1,0.3-2.4,0.3-4c0-5.3-3-10.6-9-15.9
	c-0.4-0.3-0.4-0.8-0.2-1.3l1.7-3c0.2-0.3,0.4-0.3,0.7,0c5.9,4.4,8.8,10.3,8.8,17.9C348.9,457.6,348.5,459.8,347.7,461.9"/>
<path fill="#FFFFFF" d="M320.1,497.2c2.4,0,4.6,1.4,6.5,4.3c1.9,2.9,3.3,6.7,4.1,11.3c0.1,0.5,0.1,0.8,0.1,0.8
	c0.1,0.1,0.2,0.1,0.2,0c0-0.1,0.2-0.4,0.3-0.8c0.4-2.8,1.3-6.9,2.9-12.4c1.6-3.9,3.4-5.9,5.4-5.9c1,0,2,0.7,3,2
	c0.9,1.2,1.3,2.1,1.3,2.9c0,0.6-0.2,1.3-0.5,2.2c-0.4,1.2-0.8,1.8-1.4,1.8c-0.2,0-0.7-0.5-1.4-1.4c-0.7-0.9-1.5-1.4-2.3-1.4
	c-1.7,0-3.3,4.1-4.8,12.3c-0.7,3.6-1.4,6.1-2.1,7.5c-0.6,1-1,1.5-1.4,1.5c-0.3,0-0.5-0.5-0.5-1.4c0-1.4-0.8-4.2-2.5-8.4
	c-1.6-4.1-2.8-6.2-3.5-6.2c-0.5,0-0.8,0.2-0.9,0.5c-0.1,0.3-0.5,0.5-1.2,0.5c-0.7,0-1.7-0.5-2.9-1.6c-1.2-1.1-1.8-2-1.8-2.6
	c0-0.3,0.5-1.3,1.5-3C319.2,498,319.8,497.2,320.1,497.2"/>
<path fill="#FFFFFF" d="M453.5,335.2c-10.2,0-15.3-6.7-15.3-20.2c0-10.2,2.1-20.7,6.4-31.3c0.9-2.3,1.6-3.4,2-3.4
	c0.2,0.1,0.3,0.3,0.3,0.7c0,0.7-0.2,1.9-0.7,3.4c-3,10.5-4.5,18.5-4.5,23.9c0,4.1,1.2,7.2,3.7,9.4c2.1,1.9,4.6,2.8,7.5,2.8
	c6.5,0,19-6,37.4-18c16.7-10.9,26.4-17.6,29.1-20.1c1-1,1.5-1.9,1.5-2.8c0-1.3-1.3-3-3.8-4.9c-3.1-2.4-8.2-5.2-15.2-8.6
	c-7.6-3.6-13.3-6.6-17.1-9.2c-6.6-4.5-12.3-10.1-17.3-16.8c-0.6-0.8-2-1.8-4-3c-1.1-0.6-1.7-2.1-1.7-4.4V224c0-0.8,0.1-1.4,0.3-1.6
	c0.3-0.3,1.1-0.2,2.3,0.4l15.1,7.2c0.6,0.3,1.1,0.6,1.6,0.8c2.4,1.4,3.3,2.5,2.7,3.2c-0.7,0.8-3.5,1.1-8.4,0.8
	c5.6,5.5,12.9,10.4,21.9,14.6c11,5.2,17.6,8.6,19.6,10c4.8,3.4,7.2,9.2,7.2,17.3c0,1.7-0.1,3.4-0.4,5.1c-0.7,4.5-1.6,7.7-2.6,9.6
	c-0.7,1.4-2.3,3.1-4.7,5.3c-4.3,4-13.7,10.8-28.1,20.3C470.7,329.2,459,335.2,453.5,335.2"/>
<path fill="#FFFFFF" d="M440,258.3c-3.1-4.1-5.8-6.1-8.4-6.1c-3.8,0-5.8,1-5.8,3.1c0,2.4,2.7,3.7,8,3.7
	C435.8,259,437.8,258.7,440,258.3 M451.9,267.6c0,10.3-2.4,18.2-7.3,23.8c-5.6,6.3-15.4,13.3-29.3,21.2
	c-12.3,7.1-19.5,10.6-21.6,10.6c-0.5,0-6.8,1.5-19,4.4c-12.9,3.1-21,5-24.2,5.5c-3.5,0.5-5.6,0.8-6.4,0.8c-0.3,0-0.6-0.1-0.7-0.3
	c0-0.3,2.4-1.5,7.2-3.7c1.7-0.8,11.6-5.1,29.8-12.8c12.6-5.3,23.1-10.3,31.5-14.8c12.6-6.8,22.1-12.8,28.7-17.9
	c5-3.8,7.5-6.6,7.5-8.2c-1-1.8-2.2-3.1-3.4-3.7c-1.9-1-5.3-1.6-10.1-1.6c-10.3,0-15.4-3.5-15.4-10.5c0-5.4,1.7-10.2,5.2-14.3
	c3.2-3.8,6.6-5.8,10.1-5.8c4.6,0,8.8,3.4,12.6,10.2C450.3,256.7,451.9,262.3,451.9,267.6z"/>
<path fill="#FFFFFF" d="M386.9,258.2c0-3.3-0.5-6-1.5-8.1c0-1.2,1-4,2.9-8.5c0.2-0.5,0.4-0.8,0.6-0.8c0.2,0,0.4,0.3,0.7,0.9
	c0.5,1.2,1.8,4.4,3.8,9.7c2.1,5.5,3.3,8.9,3.7,10.1c0.3,1,0.4,1.7,0.4,2.2c0,1.5-1.5,0.6-4.4-2.7c-0.3-0.5-0.5-0.3-0.5,0.6
	c0,0.3,0.8,10.9,2.3,31.6c1.5,20.8,2.3,32.5,2.3,35.1c0,8-1.2,15-3.7,21.1c-0.5,1.2-0.9,2.1-1.2,2.7c-0.5,0.8-0.8,0.9-0.9,0.4
	c-0.1-0.6-0.1-1.9,0.2-3.9c0.3-2.7,0.5-5.9,0.5-9.6c0-3.3-0.8-16.8-2.5-40.6C387.8,274.3,386.9,261,386.9,258.2"/>
<path fill="#FFFFFF" d="M102.6,343c-8.3,0-14.1-3.4-17.7-10.1c-2.3-4.5-3.5-10.1-3.5-16.9c0-7.7,1.3-14.1,3.9-19.2
	c1-1.9,1.6-2.9,2-2.9c0.1,0,0.2,0.1,0.2,0.4c0,0.7-0.3,1.7-0.8,3.1c-2,5.4-3,10.3-3,14.8c0,4.8,1,9,3.1,12.5
	c3.2,5.5,8.6,8.2,16.3,8.2c8,0,17.5-3.6,28.4-10.9c8.5-5.6,14.9-10.9,19-15.9c1-1.2,1.6-2.8,1.8-5c0.3-2.1,0.4-6.8,0.4-14.1
	c0-17.1-0.9-32.4-2.6-45.9c-0.5-4.6-1.4-11.2-2.9-19.7c0.7-4.9,1.3-7.9,1.7-8.9c0.3-0.8,0.5-1.1,0.7-1.1c0.2,0,0.4,0.4,0.7,1.1
	c2.2,7.2,4,16.5,5.4,27.7c0.6,5.1,1.2,13.5,1.6,25.2c0.4,11.4,1,19.5,1.6,24.2c1.1,7.8,2.9,12.9,5.5,15.5c2.5,2.5,5.3,4.5,8.2,5.9
	c2.7,1.3,8.1,2.6,16.2,3.7c8.1,1.1,15.6,1.7,22.4,1.7c15.2,0,29.9-1.5,44.1-4.4c14-2.9,25.7-6.8,34.8-11.8
	c-1.6-5.7-2.4-9.3-2.4-10.8c0-5,0.8-9.1,2.5-12.3c1.7-3.1,3.8-4.7,6.3-4.7c2.2,0,4.3,1.8,6.2,5.5c1.7,3.3,2.6,6.2,2.6,8.9
	c0,3.9-0.8,7.6-2.4,11.3c-1.5,3.3-3.1,5.6-4.8,6.9c2.3,3.5,6.8,5.3,13.3,5.3c4.3,0,8.8-0.8,13-2.9c3.4-1.7,6-3.5,7.8-5.6
	c0.6-0.7,0.8-1.3,0.6-1.8c-1.6-4.4-6.1-9.7-13.7-15.8c-8.7-6.8-17.3-13.5-25.9-20.3c-0.3-0.2-0.4-0.9-0.4-2c0-2.1,0.4-4.7,1.2-7.7
	c0.8-3.2,1.7-5.3,2.7-6.1c15.9-14.3,35.7-28.3,59.4-42.1c23-13.3,38.4-20,46-20c1.8,0,3.1,0.4,3.8,1.1c0.7,0.7,1,2,1,3.8
	c0,4.1-2.4,9.1-7.3,15.1c-1.8,2-3.6,4.1-5.5,6.2c-2.9,3.4-4.9,6.1-5.9,8.2c-0.7,1.4-1.1,2.1-1.3,2.1c-0.2,0-0.1-1,0.3-2.9
	c0.2-1.1,1-2.9,2.4-5.5c1.3-2.4,2.2-3.9,2.9-4.7c5.5-6.2,8.7-10.3,9.8-12.2c0.1-0.2,0.2-0.4,0.2-0.6c0-1.3-1-1.9-2.9-1.9
	c-0.5,0-1.1,0.1-1.7,0.2c-10.4,2.2-25.4,9.3-45.1,21.3c-19.3,11.7-38.2,25.2-56.8,40.3c-0.4,0.4-0.4,0.7,0.2,1
	c4.8,2.3,9.5,4.7,14.2,7.4c11.2,6.3,21,13,29.6,20c5.4,4.5,8.9,7.2,10.5,8.2c4.3,2.7,8.1,4.2,11.9,4.2c3.3,0,6.4-1.3,9.5-3.8
	c0.9-0.7,1.3-3.5,1.3-8.2c0-3-0.6-12.5-1.7-28.6c-1.2-16.1-1.7-25.5-1.7-28.4c0-3.3-0.5-6-1.5-8.1c0-1.2,1-4.1,2.9-8.5
	c0.2-0.5,0.4-0.8,0.6-0.8c0.2,0,0.4,0.3,0.7,0.8c0.5,1.2,1.8,4.4,3.8,9.6c2,5.5,3.3,8.8,3.7,10.1c0.2,1,0.3,1.7,0.3,2.1
	c0,1.5-1.4,0.6-4.3-2.8c-0.3-0.5-0.5-0.3-0.5,0.6c0,0.2,0.5,7,1.5,20.4c1,13.4,1.5,21.7,1.5,25.2c0,9.9-1.8,17.7-5.3,23.3
	c-3,4.8-6.5,7.2-10.6,7.2c-3.9,0-7.2-1-10.2-2.7c-1.9-1.1-4.6-3.2-8.1-6.4c-3.9-3.6-7.3-6.4-10.1-8.3c-0.7-0.4-1.1-0.7-1.2-0.7
	c-0.1,0-0.1,0-0.1,0.1c0,0.2,0.2,0.6,0.6,1.3c1.5,2.9,2.2,5.5,2.2,7.7c0,7.1-3.2,12.8-9.7,17.1c-5,3.3-10,4.8-14.5,4.8
	c-8.3,0-14.5-4.2-18.7-12.5c-24.5,12.4-52.8,18.6-84.8,18.6c-15,0-26.8-1.8-35.5-5.3c-4.8-2-8.5-4.1-11-6.6c-3.7-3.5-6-8-7-13.7
	c-1,6.5-2.1,10.7-3.4,12.7c-1.3,2-4.5,5.2-9.6,9.5c-6.3,5.3-12.5,9.7-18.6,13.1C115.5,340.8,108.5,343,102.6,343 M302.2,292.3
	c0-1.2-0.8-3.2-2.5-5.8c-1.8-2.8-3.3-4.2-4.6-4.2c-1.1,0-2.2,0.7-3.1,2.1c-1,1.4-1.5,2.8-1.5,4.1c0,2.8,1.1,6.2,3.4,10.1
	C299.4,295.5,302.2,293.4,302.2,292.3z"/>
<path fill="#FFFFFF" d="M491.1,218.5c-0.2-0.1-0.2-0.4,0-0.7l3.8-7.8c0.2-0.5,0.5-0.7,0.8-0.7c0.4,0,2.1,1,5.1,3.1
	c3,2.1,4.5,3.3,4.5,3.6c0,1.3-1.3,4.2-4,8.4c-0.3,0.6-0.7,0.7-1,0.4C497.3,222.6,494.2,220.4,491.1,218.5"/>
<path fill="#FFFFFF" d="M217.8,271.8c-0.2-0.1-0.2-0.4,0-0.8l4-8.3c0.3-0.5,0.5-0.8,0.8-0.8c0.4,0,2.2,1.1,5.4,3.3
	c3.2,2.2,4.8,3.5,4.8,3.9c0,1.4-1.4,4.4-4.2,9c-0.3,0.6-0.7,0.7-1.1,0.4C224.4,276.1,221.2,273.9,217.8,271.8"/>
<path fill="#FFFFFF" d="M93.4,282.7c0.2-0.4,0.4-0.7,0.6-0.9c0.2-0.1,0.3-0.1,0.3,0.1c0.1,0.2,0.1,0.6,0,1.1
	c-1.9,10.3-5,15.4-9.2,15.4c-4.5,0-6.8-3.8-6.8-11.3c0-9.3,2.7-19.1,8.1-29.3c1.3-2.5,2.1-3.8,2.4-3.9c0.1,0,0.1,0,0.1,0.1
	c0,0.5-0.4,1.9-1.2,4.3c-3.5,10.6-5.2,18.1-5.2,22.4c0,5.8,1.6,8.7,4.7,8.7C89.1,289.3,91.1,287.1,93.4,282.7"/>
<path fill="#FFFFFF" d="M471,196.5c-5.2-2.7-7.8-5.5-7.8-8.4c0-3.6,1.6-6.8,4.9-9.8c3.3-2.9,6-4,8.2-3.2c1.8,0.7,2.8,2.6,2.8,5.9
	c0,2.9-0.6,6.3-1.8,9.9c2.6,1.5,4.3,2.8,4.9,3.8c0,1.4-1.2,3.8-3.5,7.1c-0.7-1.1-2.3-2.3-4.8-3.8c-2.9,4-6.6,7.6-11,10.9
	c-5.1,3.7-9.7,6.5-13.9,8.4c-0.9,0.4-5.8,2.3-14.7,5.6c-1.4,0.5-2.3,0.8-2.8,0.8c-0.2,0-0.3-0.1-0.3-0.2c0-0.3,0.8-1,2.3-2
	c6.6-3.9,13.2-7.8,19.8-11.8C461.2,204.9,467.1,200.5,471,196.5 M474.1,189.3c0.5-1.6,0.6-3.2,0.3-4.8c-0.3-1.8-1.1-2.7-2.4-2.7
	c-0.6,0-1.4,0.3-2.5,0.9c-1.1,0.6-1.6,1.2-1.6,1.7C468,185.6,470,187.3,474.1,189.3z"/>
<path fill="#FFFFFF" d="M442.1,188.7c0,0.7-0.9,2.3-2.7,4.8c-2,2.8-3.9,4.9-5.7,6.2c-1.2,0.8-5,2.1-11.6,3.8c-1,0.2-1.5,0.4-1.7,0.4
	v-0.1c0.2-0.2,0.5-0.5,1.2-1c0.8-0.7,3.2-2,7-4c3.7-2,5.8-3.2,6.4-3.8c0.1-0.1,0.2-0.2,0.2-0.3c0-0.9-3.3-1.3-9.8-1.3
	c0,0-1.3,0.1-3.7,0.2c-0.5,0-1,0-1.2,0v-1.4l2.2-3.7c0.7-1.1,1.9-1.9,3.7-2.2c0.7-0.1,2.2-0.2,4.5-0.2
	C438.3,186.1,442.1,187,442.1,188.7"/>
<path fill="#FFFFFF" d="M357.1,242.7c0,0.7-0.9,2.3-2.7,4.8c-2,2.8-3.9,4.9-5.7,6.2c-1.2,0.8-5,2.1-11.6,3.8c-1,0.2-1.5,0.4-1.7,0.4
	v-0.1c0.2-0.2,0.5-0.5,1.2-1c0.8-0.7,3.2-2,7-4c3.7-2,5.8-3.2,6.4-3.8c0.1-0.1,0.2-0.2,0.2-0.3c0-0.9-3.3-1.3-9.8-1.3
	c0,0-1.3,0.1-3.7,0.2c-0.5,0-1,0-1.2,0v-1.4l2.2-3.7c0.7-1.1,1.9-1.9,3.7-2.2c0.7-0.1,2.2-0.2,4.5-0.2
	C353.3,240,357.1,240.9,357.1,242.7"/>
<path fill="#FFFFFF" d="M261.1,359.5c23.7-8.8,48.5-18,74.3-27.5c1-0.4,1.6-0.5,1.8-0.4c0.3,0.2,0.2,0.7-0.2,1.6
	c-1.1,2.8-2,4.4-2.7,5c-21.4,7.9-46.5,17.6-75.2,29.2v-3.3C259.6,362.6,260.3,361.1,261.1,359.5"/>
<path fill="#FFFFFF" d="M346.6,341.5c1.8,0,2.5,0.7,2.1,2.2c-0.5,1.7-0.9,2.5-1.2,2.5c-0.1,0-0.3-0.2-0.6-0.6
	c-0.3-0.4-0.8-0.6-1.4-0.6c-0.7,0-2.1,0.7-4.2,2.1c-2.2,1.5-3.9,2.9-5,4.2c-0.2,0.3-0.4,0.5-0.4,0.8c0,0.6,1.1,0.8,3.4,0.8
	c1.6,0,3.5-0.2,5.7-0.6c2.2-0.4,3.6-0.6,4.1-0.6c3,0,4.9,0.9,5.8,2.7c0.2,0.5,0.3,1,0.3,1.7c0,1-0.3,2.1-0.8,3.2
	c-0.5,1.1-0.9,1.7-1.3,1.9c-7.3,2.2-12.8,3.3-16.5,3.3c-2,0-3.6-0.6-5-1.7c-1.1-0.9-1.8-2-2.1-3.2c1.3,0.8,3.6,1.2,6.7,1.2
	c1.3,0,4.5-0.5,9.4-1.4c4.4-0.8,7.1-1.4,8-1.7c-0.4-1.4-2.3-2.1-5.8-2.1c-0.7,0-2.2,0.2-4.5,0.6c-2.2,0.4-3.8,0.6-4.7,0.6
	c-3.4,0-5.1-0.8-5.1-2.3c0-0.7,0.3-1.6,0.9-2.7c1.6-3.2,3.8-5.7,6.5-7.8C343.2,342.4,345.1,341.5,346.6,341.5"/>
<path fill="#FFFFFF" d="M240.3,230.1v-1.2c0.4-0.3,0.9-0.6,1.5-1c7.9-4.4,19-11.3,33.3-20.8c5.8-4.5,9.5-8.3,11.1-11.2
	c0.6-1.1,1.1-1.7,1.4-1.7c0.1,0.1,0.2,0.2,0.2,0.4c0,0.9-0.9,2.9-2.6,6.1c-2.9,5.3-6.9,9.9-12.1,13.7c-5.4,4-10.4,7-14.9,9
	c-0.9,0.4-6.1,2.4-15.7,6C241.7,229.8,240.9,230,240.3,230.1 M323.5,191.4c0,0.8-0.2,1.8-0.6,3c-0.5,1.7-1.2,2.5-1.9,2.5
	c-0.3,0-1-0.6-2-1.9c-1-1.3-2-1.9-3.1-1.9c-2.4,0-4.6,5.6-6.6,16.8c-0.9,4.9-1.9,8.3-2.9,10.3c-0.8,1.4-1.4,2-2,2
	c-0.5,0-0.7-0.6-0.7-1.9c0-2-1.1-5.8-3.4-11.4c-2.3-5.7-3.9-8.5-4.8-8.5c-0.7,0-1.1,0.2-1.2,0.6c-0.2,0.4-0.7,0.6-1.6,0.6
	c-1.1,0-2.5-0.8-4.3-2.4c-1.8-1.6-2.5-2.7-2.1-3.4c2.7-5,4.2-7.5,4.6-7.5c3.3,0,6.3,2,9,5.9c2.6,4,4.5,9.1,5.6,15.5
	c0.1,0.7,0.2,1,0.2,1.2c0.1,0.2,0.2,0.2,0.3,0c0.1-0.1,0.2-0.5,0.4-1.2c0.5-3.8,1.8-9.5,3.9-17c2.3-5.4,4.7-8.1,7.4-8.1
	c1.4,0,2.7,0.9,4.1,2.8C322.9,189,323.5,190.4,323.5,191.4z"/>
<path fill="#FFFFFF" d="M108.2,237.5c2.4,0,4.6,1.4,6.5,4.3c1.9,2.9,3.3,6.7,4.1,11.3c0.1,0.5,0.1,0.8,0.1,0.8
	c0.1,0.1,0.2,0.1,0.2,0c0-0.1,0.2-0.4,0.3-0.8c0.4-2.8,1.3-6.9,2.9-12.4c1.6-3.9,3.5-5.9,5.4-5.9c1,0,2,0.7,3,2
	c0.9,1.2,1.3,2.1,1.3,2.9c0,0.6-0.2,1.3-0.5,2.2c-0.4,1.2-0.8,1.8-1.4,1.8c-0.2,0-0.7-0.5-1.4-1.4c-0.7-0.9-1.5-1.4-2.3-1.4
	c-1.7,0-3.3,4.1-4.8,12.3c-0.7,3.6-1.4,6.1-2.1,7.5c-0.6,1-1,1.5-1.4,1.5c-0.3,0-0.5-0.5-0.5-1.4c0-1.4-0.8-4.2-2.5-8.4
	c-1.6-4.1-2.8-6.2-3.5-6.2c-0.5,0-0.8,0.2-0.9,0.5c-0.1,0.3-0.5,0.5-1.2,0.5c-0.7,0-1.7-0.5-2.9-1.6c-1.2-1.1-1.8-2-1.8-2.6
	c0-0.3,0.5-1.3,1.5-3C107.3,238.4,107.9,237.5,108.2,237.5"/>
<path fill="#FFFFFF" d="M225.9,223.4c-0.2,1.2-0.5,1.8-0.9,1.8c-0.4,0.1-0.6-0.6-0.6-2c0-1.3-0.1-2.8-0.5-4.8
	c-1.2-6.2-5.9-11.8-14.1-16.7c-0.5-0.3-0.7-0.8-0.5-1.4l1.3-3.9c0.1-0.3,0.4-0.4,0.9-0.2c7.9,3.8,12.7,10.2,14.4,19.1
	C226.5,218,226.5,220.7,225.9,223.4"/>
<path fill="#FFFFFF" d="M160.7,348.8c0.1-0.3,0.3-0.5,0.4-0.6c0.1-0.1,0.2-0.1,0.2,0.1c0,0.1,0,0.4,0,0.7
	c-1.3,6.9-3.4,10.4-6.2,10.4c-3.1,0-4.6-2.5-4.6-7.6c0-6.3,1.8-12.9,5.4-19.7c0.9-1.7,1.4-2.6,1.6-2.6c0,0,0.1,0,0.1,0.1
	c0,0.3-0.3,1.3-0.8,2.9c-2.4,7.2-3.5,12.2-3.5,15.1c0,3.9,1.1,5.9,3.2,5.9C157.8,353.2,159.2,351.7,160.7,348.8"/>
<path fill="#FFFFFF" d="M276.7,254.8c0,4.4-1.8,9.3-5.4,14.8c-3.7,5.8-8.4,10.8-14.2,14.8c-1.2,0.8-2.1,1.4-2.8,1.8v-1.6
	c0.4-0.5,0.9-1,1.5-1.7c9.6-10.4,14.3-17.4,14.3-20.9c0-3.3-1.5-5-4.6-5c-1.7,0-3.2,0.5-4.6,1.4c-1,0.7-1.7,1.1-1.9,1.1
	c-0.2-0.2-0.4-0.3-0.6-0.4c0.1-0.3,0.3-1.2,0.5-2.7c1.5-7.2,5.1-10.7,10.8-10.7C274.4,246,276.7,248.9,276.7,254.8"/>
<path fill="#FFFFFF" d="M521.1,331.1c0.1-0.3,0.3-0.5,0.4-0.6c0.1-0.1,0.2-0.1,0.2,0.1c0,0.1,0,0.4,0,0.7
	c-1.3,6.9-3.4,10.4-6.2,10.4c-3.1,0-4.6-2.5-4.6-7.6c0-6.3,1.8-12.9,5.4-19.7c0.9-1.7,1.4-2.6,1.6-2.6c0,0,0.1,0,0.1,0.1
	c0,0.3-0.3,1.3-0.8,2.9c-2.4,7.2-3.5,12.2-3.5,15.1c0,3.9,1.1,5.9,3.2,5.9C518.2,335.5,519.6,334,521.1,331.1"/>
<path fill="#FFFFFF" d="M186.9,251.4c6.2,4.5,9,9,8.6,13.6c-0.4,4.9-1.1,7.9-2,9.2c-2.7,3.6-6.1,5.5-10,5.5c-3.9,0-5.8-2.4-5.8-7.1
	c0-1.1,0.1-2.2,0.4-3.4c0.6-3.9,2.5-9.5,5.6-16.7c2.6-6.2,3.9-11.3,3.9-15.5c0-8.3-3.8-16.2-11.5-23.9c-0.6-0.6-0.7-1.2-0.3-1.9
	l2.6-4.7c0.2-0.4,0.6-0.4,1.1,0c7.6,6.3,11.5,15.3,11.5,27.1C191,238.9,189.6,244.9,186.9,251.4 M192.9,267.1c0-1.7-3.1-4.3-9.2-7.7
	c-1.9,3.6-2.8,6.8-2.8,9.7c0,1.8,0.9,2.7,2.6,2.7c1.5,0,3.3-0.5,5.3-1.6C190.8,269.2,192.2,268.1,192.9,267.1z"/>
</svg>
