<?xml version="1.0" encoding="UTF-8"?>
<!DOCTYPE svg PUBLIC "-//W3C//DTD SVG 1.1//EN" "http://www.w3.org/Graphics/SVG/1.1/DTD/svg11.dtd">
<svg xmlns="http://www.w3.org/2000/svg" xml:space="preserve" width="600px" height="600px" version="1.1" style="shape-rendering:geometricPrecision; text-rendering:geometricPrecision; image-rendering:optimizeQuality; fill-rule:evenodd; clip-rule:evenodd"
viewBox="0 0 600 600"
 xmlns:xlink="http://www.w3.org/1999/xlink">
 <defs>
  <style type="text/css">
   <![CDATA[
    .fil0 {fill:#CC33FF}
    .fil1 {fill:#F3F3EB}
    .fil3 {fill:white}
    .fil2 {fill:white;fill-rule:nonzero}
   ]]>
  </style>
 </defs>
 <g id="Layer_x0020_1">
  <metadata id="Wiki-Layer"/>
  <g id="_1323453873888">
   <polygon class="fil0" points="300,0 314.89,15.78 331.36,1.64 344.52,18.9 362.37,6.56 373.66,25.09 392.7,14.68 402,34.29 422.02,25.94 429.21,46.41 450,40.19 455.01,61.31 476.34,57.29 479.11,78.82 500.74,77.06 501.25,98.75 522.94,99.26 521.18,120.89 542.71,123.66 538.69,144.99 559.81,150 553.59,170.79 574.06,177.98 565.71,198 585.32,207.3 574.91,226.34 593.44,237.63 581.1,255.48 598.36,268.64 584.22,285.11 600,300 584.22,314.89 598.36,331.36 581.1,344.52 593.44,362.37 574.91,373.66 585.32,392.7 565.71,402 574.06,422.02 553.59,429.21 559.81,450 538.69,455.01 542.71,476.34 521.18,479.11 522.94,500.74 501.25,501.25 500.74,522.94 479.11,521.18 476.34,542.71 455.01,538.69 450,559.81 429.21,553.59 422.02,574.06 402,565.71 392.7,585.32 373.66,574.91 362.37,593.44 344.52,581.1 331.36,598.36 314.89,584.22 300,600 285.11,584.22 268.64,598.36 255.48,581.1 237.63,593.44 226.34,574.91 207.3,585.32 198,565.71 177.98,574.06 170.79,553.59 150,559.81 144.99,538.69 123.66,542.71 120.89,521.18 99.26,522.94 98.75,501.25 77.06,500.74 78.82,479.11 57.29,476.34 61.31,455.01 40.19,450 46.41,429.21 25.94,422.02 34.29,402 14.68,392.7 25.09,373.66 6.56,362.37 18.9,344.52 1.64,331.36 15.78,314.89 0,300 15.78,285.11 1.64,268.64 18.9,255.48 6.56,237.63 25.09,226.34 14.68,207.3 34.29,198 25.94,177.98 46.41,170.79 40.19,150 61.31,144.99 57.29,123.66 78.82,120.89 77.06,99.26 98.75,98.75 99.26,77.06 120.89,78.82 123.66,57.29 144.99,61.31 150,40.19 170.79,46.41 177.98,25.94 198,34.29 207.3,14.68 226.34,25.09 237.63,6.56 255.48,18.9 268.64,1.64 285.11,15.78 "/>
   <path class="fil1" d="M36.5 300c0,-145.53 117.97,-263.5 263.5,-263.5 145.53,0 263.5,117.97 263.5,263.5 0,145.53 -117.97,263.5 -263.5,263.5 -145.53,0 -263.5,-117.97 -263.5,-263.5zm263.5 -271c-149.67,0 -271,121.33 -271,271 0,149.67 121.33,271 271,271 149.67,0 271,-121.33 271,-271 0,-149.67 -121.33,-271 -271,-271z"/>
   <path class="fil1" d="M300 539.65c-132.36,0 -239.65,-107.29 -239.65,-239.65 0,-132.36 107.29,-239.65 239.65,-239.65 132.36,0 239.65,107.29 239.65,239.65 0,132.36 -107.29,239.65 -239.65,239.65zm0 -495.55c-141.33,0 -255.9,114.57 -255.9,255.9 0,141.33 114.57,255.9 255.9,255.9 141.33,0 255.9,-114.57 255.9,-255.9 0,-141.33 -114.57,-255.9 -255.9,-255.9z"/>
   <path class="fil2" d="M449.96 398.85c-1.67,2.82 -2.8,4.41 -3.41,4.74 -10.09,1.9 -65.91,12.11 -80.57,15.64 -4.48,1.53 -6.82,2.89 -7.01,4.1 -0.19,1.2 2.49,3.22 8.04,6.05 0.51,0.26 0.6,1.47 0.27,3.64 -0.29,1.87 -0.55,2.95 -0.78,3.26 -0.24,0.3 -0.9,0.24 -2.01,-0.17 -7.07,-2.51 -10.32,-5.63 -9.74,-9.36 0.32,-2.11 1.75,-4.67 4.28,-7.67 2.52,-3 5.01,-5.02 7.45,-6.06 2.18,-0.96 8.99,-2.53 20.42,-4.71 6.09,-1.15 55.62,-9.78 61.71,-10.87 1.15,-0.26 1.8,-0.31 1.97,-0.16 0.09,0.2 -0.12,0.72 -0.62,1.57z"/>
   <path class="fil2" d="M309.49 148.57c-1,0.14 -1.58,0.2 -1.72,0.18 -0.03,-0.01 -0.05,-0.02 -0.05,-0.04 0.01,-0.05 0.41,-0.24 1.19,-0.57 0.74,-0.27 1.9,-0.85 3.48,-1.73 0.82,-0.59 1.99,-1.56 3.51,-2.89 1.05,-0.92 2.14,-1.69 3.26,-2.29 1.38,-0.73 2.7,-1 3.97,-0.82 0.29,0.04 0.68,0.19 1.14,0.42 0.47,0.24 0.88,0.39 1.23,0.44 0.65,0.09 1.21,-0.08 1.69,-0.51 0.38,-0.44 0.77,-0.89 1.16,-1.33 0.28,-0.32 0.5,-0.46 0.68,-0.44 0.09,0.02 0.12,0.1 0.1,0.26 -0.04,0.23 -0.2,0.59 -0.48,1.08 -0.15,0.25 0.45,0.47 1.78,0.67 0.14,0.02 0.22,-0.01 0.25,-0.07 0.02,-0.04 -0.01,-0.38 -0.09,-1.04 -0.03,-0.18 0.09,-0.42 0.35,-0.73 0.44,-0.54 0.69,-0.77 0.75,-0.69 0.26,0.36 0.35,0.87 0.26,1.51 -0.08,0.55 -0.3,1.16 -0.66,1.84 -0.36,0.68 -0.67,1.09 -0.92,1.21 -0.65,0.32 -1.57,0.08 -2.74,-0.72 -1.21,0.95 -2.33,1.35 -3.35,1.2 -0.29,-0.05 -0.66,-0.18 -1.11,-0.41 -0.44,-0.22 -0.77,-0.35 -1,-0.39 -1.73,-0.25 -3.62,0.32 -5.65,1.7 -1.48,1.09 -2.98,2.18 -4.48,3.27 -0.88,0.48 -1.73,0.78 -2.55,0.89z"/>
   <path class="fil2" d="M151.59 447.79c0.42,-2.6 1.34,-5.74 2.76,-9.4 1.1,-2.87 1.66,-5.72 1.66,-8.55 0,-5.38 -2.49,-10.57 -7.46,-15.53 -0.38,-0.39 -0.44,-0.8 -0.17,-1.26l1.72 -3.04c0.16,-0.27 0.4,-0.27 0.75,0 4.97,4.09 7.45,9.95 7.45,17.6 0,3.67 -0.8,7.55 -2.41,11.66 -1.6,4.11 -2.4,6.95 -2.4,8.52 0,3.17 0.86,4.76 2.58,4.76 0.99,0 2.12,-1.21 3.38,-3.62 0.11,-0.22 0.23,-0.4 0.34,-0.51 0.12,-0.08 0.17,-0.06 0.17,0.06 0.04,0.11 0.04,0.3 0,0.57 -1.03,5.62 -2.71,8.43 -5.04,8.43 -2.37,0 -3.56,-2.3 -3.56,-6.88 0,-0.92 0.08,-1.86 0.23,-2.81z"/>
   <path class="fil2" d="M115.23 419.67c-0.38,0.92 -0.72,1.38 -1.03,1.38 -0.38,0 -0.44,-0.6 -0.17,-1.78 0.23,-1.03 0.34,-2.37 0.34,-4.01 0,-5.35 -3.02,-10.69 -9.06,-16 -0.38,-0.34 -0.43,-0.76 -0.17,-1.26l1.72 -3.04c0.16,-0.27 0.4,-0.27 0.75,0 5.92,4.4 8.89,10.4 8.89,18 0,2.37 -0.43,4.61 -1.27,6.71z"/>
   <path class="fil2" d="M270.04 82.94c0,0.34 -0.43,1.1 -1.28,2.29 -0.96,1.34 -1.87,2.31 -2.74,2.94 -0.55,0.38 -2.4,0.99 -5.53,1.82 -0.46,0.12 -0.72,0.17 -0.81,0.17l0 -0.04c0.07,-0.08 0.26,-0.23 0.55,-0.46 0.41,-0.31 1.52,-0.94 3.34,-1.9 1.75,-0.93 2.78,-1.53 3.07,-1.79 0.06,-0.05 0.08,-0.1 0.08,-0.15 0,-0.42 -1.55,-0.63 -4.66,-0.63 -0.01,0 -0.61,0.03 -1.79,0.08 -0.25,0.01 -0.45,0.01 -0.59,0l0 -0.68 1.06 -1.78c0.32,-0.55 0.91,-0.89 1.77,-1.03 0.31,-0.06 1.03,-0.08 2.15,-0.08 3.59,0 5.38,0.41 5.38,1.24z"/>
   <path class="fil2" d="M210.2 433.59c0,0.5 -0.13,1.15 -0.4,1.95 -0.34,1.07 -0.74,1.61 -1.2,1.61 -0.19,0 -0.61,-0.41 -1.26,-1.23 -0.65,-0.83 -1.32,-1.24 -2.01,-1.24 -1.53,0 -2.94,3.61 -4.24,10.84 -0.58,3.13 -1.21,5.35 -1.89,6.65 -0.5,0.88 -0.92,1.32 -1.26,1.32 -0.31,0 -0.46,-0.4 -0.46,-1.21 0,-1.26 -0.73,-3.71 -2.18,-7.37 -1.46,-3.64 -2.49,-5.47 -3.1,-5.47 -0.42,0 -0.69,0.13 -0.8,0.4 -0.12,0.27 -0.46,0.4 -1.03,0.4 -0.65,0 -1.5,-0.48 -2.55,-1.43 -1.06,-0.96 -1.58,-1.72 -1.58,-2.29 0,-0.27 0.44,-1.14 1.32,-2.61 0.88,-1.47 1.43,-2.21 1.66,-2.21 2.14,0 4.06,1.27 5.76,3.81 1.7,2.55 2.9,5.86 3.58,9.95 0.08,0.42 0.12,0.67 0.12,0.74 0.08,0.12 0.13,0.12 0.17,0 0.04,-0.07 0.14,-0.32 0.29,-0.74 0.34,-2.45 1.18,-6.1 2.52,-10.95 1.45,-3.48 3.04,-5.22 4.76,-5.22 0.88,0 1.76,0.6 2.64,1.78 0.76,1.03 1.14,1.87 1.14,2.52zm-12.38 21.67c-1.34,3.02 -3.94,5.97 -7.8,8.83 -3.47,2.56 -6.66,4.49 -9.57,5.79 -0.61,0.31 -3.98,1.59 -10.09,3.84 -0.96,0.35 -1.61,0.52 -1.95,0.52 -0.15,0 -0.23,-0.04 -0.23,-0.11 0,-0.23 0.55,-0.69 1.66,-1.38 5.05,-2.83 12.2,-7.28 21.44,-13.36 2.33,-1.8 4.07,-3.4 5.22,-4.81 1.49,-1.8 2.33,-2.7 2.53,-2.7 0.03,0 0.05,0.04 0.05,0.11 0,0.27 -0.42,1.36 -1.26,3.27z"/>
   <path class="fil2" d="M278.04 503.13c-0.65,2.76 -2.59,4.83 -5.79,6.25 -3.21,1.41 -6.56,1.71 -10.05,0.87 -0.64,-0.15 -1.41,-0.47 -2.34,-0.97 -0.92,-0.49 -1.62,-0.8 -2.11,-0.91 -3.67,-0.88 -7.84,0.01 -12.48,2.67 -3.42,2.13 -6.85,4.24 -10.29,6.33 -1.98,0.86 -3.86,1.33 -5.65,1.42 -2.19,0.1 -3.43,0.12 -3.72,0.05 -0.08,-0.02 -0.11,-0.05 -0.1,-0.08 0.02,-0.11 0.91,-0.45 2.66,-1.02 1.63,-0.43 4.23,-1.44 7.79,-3.03 1.83,-1.09 4.51,-2.93 8.04,-5.5 2.47,-1.81 4.98,-3.26 7.52,-4.34 2.92,-1.23 5.46,-1.74 7.62,-1.54 -0.27,-0.02 1.02,0.31 3.88,0.99 2.08,-1.27 4.16,-2.52 6.26,-3.75 2.7,-1.44 4.78,-1.98 6.23,-1.64 2.23,0.54 3.07,1.94 2.53,4.2zm-2.21 1.13c-0.14,-1.06 -1.07,-1.79 -2.78,-2.2 -1.71,-0.41 -4.65,0.64 -8.82,3.14 0.35,0.16 0.75,0.29 1.2,0.4 1.78,0.43 3.84,0.45 6.17,0.06 2.16,-0.31 3.57,-0.78 4.23,-1.4z"/>
   <path class="fil2" d="M418.54 497.88c-3.82,3.44 -8.73,5.16 -14.73,5.16 -1.88,0 -3.41,-0.49 -4.59,-1.46 -1.18,-0.98 -1.77,-2.21 -1.77,-3.7 0,-2.64 1.1,-5.27 3.32,-7.91 2.18,-2.33 4.38,-4.66 6.59,-6.99 0.46,-0.5 0.33,-0.88 -0.4,-1.15 -1.64,-0.57 -3.4,-0.86 -5.27,-0.86 -1.04,0 -2.16,0.29 -3.39,0.86 -0.26,0.11 -0.44,0.13 -0.51,0.06 -0.08,-0.08 -0.06,-0.27 0.06,-0.58 0.76,-1.83 1.54,-3.05 2.35,-3.67 0.95,-0.76 2.42,-1.14 4.41,-1.14 4.47,0 6.71,1.09 6.71,3.26 0,1.65 -1.43,3.98 -4.3,7 -2.03,2.06 -4.05,4.15 -6.08,6.25 -0.88,1.15 -1.32,2.12 -1.32,2.92 0,1.84 2.07,2.76 6.19,2.76 3.79,0 7.88,-0.66 12.27,-1.95 1.23,-0.35 1.84,-0.44 1.84,-0.29 0,0.15 -0.46,0.63 -1.38,1.43z"/>
   <path class="fil2" d="M246.42 451.26c-6.38,0.76 -13.51,4.55 -19.89,11.57 -4.86,6.1 -9.72,12.2 -14.58,18.3 -4.58,5.4 -8.46,9.25 -11.64,11.54 -2.16,1.58 -6.31,3.81 -12.44,6.68 -5.3,2.47 -8.71,3.8 -10.23,3.98 -0.51,0.06 -0.78,-0.02 -0.8,-0.23 -0.07,-0.59 1.37,-2.05 4.33,-4.39 4.98,-3.9 7.6,-5.98 7.86,-6.23 4.22,-3.45 7.84,-6.75 10.84,-9.91 3.01,-3.15 7.89,-9.07 14.65,-17.75 6.01,-7.64 10.76,-13.1 14.27,-16.39 5.29,-4.9 11.25,-7.45 16.33,-8.05 3.95,-0.48 8.05,0.27 12.29,2.22 3.23,1.71 6.44,3.43 9.67,5.14 5.37,-11.39 9.16,-18.76 11.37,-22.11 5.83,-9.01 12,-13.91 18.49,-14.68 5.66,-0.68 11.07,1.04 16.23,5.17 4.36,3.49 6.71,6.69 7.06,9.59 0.12,1.05 -0.19,3.26 -0.92,6.62 -0.82,3.63 -1.68,6.14 -2.58,7.53 -2.01,3.15 -5.79,6.64 -11.33,10.47 -7.98,5.51 -16.45,8.81 -25.41,9.88 -3.37,0.4 -7.6,-0.05 -12.69,-1.35 -0.64,2.28 -0.85,4.38 -0.62,6.31 0.47,3.95 2.74,6.6 6.8,7.95 15.83,5.36 36.09,6.28 61,3.3 17.01,-2.04 39.06,-7.91 66.15,-17.63 18.23,-6.56 32.66,-12.37 43.27,-17.43l-24.56 -3.73c-2.28,-0.32 -3.78,-0.42 -4.5,-0.29 -0.58,0.1 -1.06,0.48 -1.46,1.14 -0.4,0.65 -1.23,0.98 -2.48,0.98 -4.23,0.33 -8.87,0.59 -13.92,0.79 -1.2,-0.15 -1.83,-0.5 -1.89,-1.05 -0.04,-0.29 0.09,-0.8 0.37,-1.53l2.69 -7.44c0.39,-1.08 1.01,-1.72 1.87,-1.94 6.13,-1.61 11.06,-2.53 14.79,-2.76 14.49,2.17 25.19,3.63 32.08,4.39 15.09,1.61 27.87,2.18 38.34,1.7 2.01,-0.09 3.04,0.09 3.1,0.57 0.01,0.14 -0.03,0.37 -0.14,0.68l-2.97 7.97c-0.3,0.84 -0.74,1.3 -1.32,1.37 0.04,-0.01 -1.45,0.1 -4.46,0.31 -3.01,0.21 -5.82,0.47 -8.43,0.79 -9.79,1.17 -17.78,3.12 -23.97,5.84 -50.2,22.2 -87.49,34.75 -111.86,37.67 -14.25,1.7 -26.57,2.13 -36.93,1.27 -7.24,-0.57 -14.98,-1.75 -23.47,-4.08 -6.31,-1.75 -9.95,-6.65 -10.92,-14.7 -0.45,-3.81 -0.23,-7.62 0.68,-11.45 -4.63,-2.64 -7.46,-4.2 -8.51,-4.66 -3.58,-1.64 -6.78,-2.28 -9.61,-1.94zm70.4 -19.85c-0.15,-1.27 -2.4,-3.19 -6.75,-5.76 -5.15,-3.06 -10.03,-4.31 -14.63,-3.76 -9.43,1.13 -17.8,10.07 -25.1,26.84 3.91,0.74 7.52,0.92 10.82,0.52 5.66,-0.68 11.54,-2.43 17.64,-5.25 4.77,-2.23 9.11,-4.81 13.03,-7.74 3.41,-2.54 5.08,-4.16 4.99,-4.85z"/>
   <path class="fil2" d="M464.29 380.2c-19.58,5.29 -43.57,9.85 -71.96,13.68 -38.61,5.29 -77.37,7.94 -116.28,7.94 -17.94,0 -43.32,-0.98 -76.15,-2.92 -35.21,-2.13 -55.21,-4.14 -60.01,-6.02 -14.47,-5.66 -29.86,-12.68 -46.15,-21.07 -7.05,-3.65 -10.58,-5.92 -10.58,-6.84 0,-0.42 0.58,-0.64 1.73,-0.64 1.89,0 5.5,0.58 10.85,1.74 6.63,1.46 13.26,2.91 19.89,4.37 12.7,2.5 25.78,4.5 39.21,6.02 22.38,2.5 37.82,4.05 46.33,4.65 22.8,1.65 50.28,2.47 82.45,2.47 54.72,0 105.64,-4.35 152.76,-13.05 11,-2 23.71,-5.04 38.12,-9.12 11.43,-3.22 19.34,-4.95 23.71,-5.19 1.1,-0.06 2.13,-0.09 3.1,-0.09 9.25,0 13.87,2.06 13.87,6.2 0,8.2 -5.23,18.81 -15.69,31.83 -4.5,5.1 -10.25,12.34 -17.24,21.7 -2.49,4.26 -4.1,6.39 -4.83,6.39 -0.25,-0.06 -0.37,-0.28 -0.37,-0.64 0,-1.22 0.86,-4.02 2.56,-8.39 2.55,-6.69 7.69,-14.38 15.41,-23.08 6.75,-7.66 10.12,-12.37 10.12,-14.13 0,-1.52 -3.1,-2.28 -9.3,-2.28 -4.99,0 -15.5,2.15 -31.55,6.47z"/>
   <path class="fil2" d="M247.38 421.69c-0.21,-0.15 -0.21,-0.46 0,-0.92l4.91 -10.08c0.31,-0.61 0.65,-0.92 1.01,-0.92 0.51,0 2.71,1.33 6.61,4 3.89,2.66 5.84,4.23 5.84,4.69 0,1.74 -1.72,5.38 -5.15,10.92 -0.41,0.71 -0.85,0.9 -1.31,0.54 -3.84,-2.93 -7.81,-5.67 -11.91,-8.23z"/>
   <path class="fil2" d="M397.76 141.57c-0.42,1.25 -1.04,2.67 -1.88,4.26 -3.17,2.65 -5.78,4.54 -7.81,5.68 -3.55,2 -7.09,3 -10.64,3 -1.81,0 -3.17,-0.19 -4.09,-0.57l-1.12 -5.59c-2.16,-2.75 -3.24,-5.39 -3.24,-7.93 0,-3.99 1.22,-7.06 3.66,-9.21 2.09,-1.83 4.69,-2.74 7.78,-2.74 4.11,0 7.78,1.35 11.01,4.06 0.54,0.45 0.81,0.75 0.81,0.92 0,0.11 -0.1,0.17 -0.31,0.17 -0.26,0 -0.67,-0.1 -1.23,-0.31 -2.17,-0.78 -4.09,-1.17 -5.77,-1.17 -2.46,0 -4.99,0.36 -7.57,1.1 -2.59,0.74 -4.48,1.64 -5.67,2.7 0,2.65 0.92,5.27 2.77,7.84 2.26,3.14 5.14,4.71 8.65,4.71 1.81,0 4.17,-0.83 7.09,-2.5 2.37,-1.36 4.56,-2.92 6.57,-4.67 0.42,-0.36 0.71,-0.54 0.9,-0.56 0.3,0 0.33,0.27 0.09,0.81z"/>
   <path class="fil2" d="M240.38 166.67c-2.05,0 -3.79,-1.61 -5.2,-4.82 -1.27,-2.82 -1.91,-5.77 -1.91,-8.85 0,-3.69 0.37,-6.64 1.09,-8.84 0.26,-0.79 0.47,-1.18 0.62,-1.18 0.24,0 0.3,0.5 0.17,1.49 -0.3,2.31 -0.45,4.3 -0.45,5.96 0,7.8 1.82,11.7 5.46,11.7 1.47,0 2.81,-1.14 4,-3.41 1.27,-2.73 2.53,-5.46 3.78,-8.18 1.12,-2.26 2.46,-4.16 4.03,-5.71 1.66,-1.64 3.17,-2.46 4.51,-2.46 1.29,0 2.69,1.4 4.2,4.22 1.42,2.63 2.76,4.25 4.03,4.85 1.62,0.76 4.51,1.44 8.38,2.04 4.94,0.75 10.65,1.12 17.13,1.12 10.26,0 20.88,-1.15 31.86,-3.44 11.14,-2.36 20.03,-5.35 26.68,-8.99 0.31,-0.17 0.53,-0.23 0.64,-0.2 0.13,0.06 0.17,0.26 0.11,0.62 -0.11,0.84 -0.16,1.58 -0.16,2.21 0,3.06 1.32,4.59 3.97,4.59 3.66,0 6.33,-1.11 7.81,-3.32 1.08,-1.6 1.62,-4.34 1.62,-8.2 0,-10.88 -0.46,-20.09 -1.4,-27.63 -0.45,-3.64 -1.01,-7.24 -1.71,-10.81 0.38,-2.35 0.73,-3.97 1.07,-4.87 0.15,-0.39 0.28,-0.59 0.39,-0.59 0.13,0 0.26,0.21 0.39,0.62 1.23,3.97 2.23,9.02 3,15.14 0.39,3.12 0.69,7.84 0.89,14.17 0.21,6.4 0.45,10.78 0.73,13.13 0.51,4.14 1.39,6.84 2.66,8.09 1.46,1.44 3,2.54 4.62,3.3l0 5.6c-2.43,-0.99 -4.29,-2.05 -5.6,-3.19 -2.03,-1.71 -3.38,-3.94 -4.03,-6.66 -0.32,4.09 -1.8,7.06 -4.45,8.93 -1.76,1.25 -3.82,1.89 -5.99,1.89 -1.75,0 -3.2,-0.62 -4.34,-1.85 -1.23,-1.32 -1.9,-3.18 -2.01,-5.57 -7.62,3.85 -16.76,6.94 -27.41,9.27 -10.27,2.24 -19.97,3.36 -29.12,3.36 -11.92,0 -20.6,-1.06 -25.73,-3.17 -1.66,-0.69 -3.1,-1.83 -4.31,-3.44 -0.13,-0.17 -0.92,-1.45 -2.38,-3.86 -0.73,-1.23 -1.44,-1.85 -2.13,-1.85 -2.09,0 -4.29,1.77 -6.61,5.32 -0.41,0.64 -1.14,2.28 -2.21,4.94 -1.06,2.66 -1.98,4.59 -2.77,5.78 -1.23,1.83 -2.54,2.75 -3.92,2.75z"/>
   <path class="fil2" d="M351.52 90.11c0,-1.79 -0.28,-3.27 -0.84,-4.42 0,-0.66 0.53,-2.21 1.57,-4.65 0.13,-0.3 0.24,-0.45 0.34,-0.45 0.11,0 0.24,0.16 0.39,0.47 0.3,0.64 0.99,2.39 2.07,5.27 1.14,2.98 1.8,4.82 1.99,5.51 0.15,0.53 0.22,0.92 0.22,1.18 0,0.82 -0.79,0.33 -2.38,-1.48 -0.18,-0.27 -0.28,-0.15 -0.28,0.33 0,0.17 0.41,5.91 1.23,17.22 0.83,11.31 1.24,17.67 1.24,19.09 0,4.35 -0.67,8.18 -1.99,11.48 -0.28,0.67 -0.5,1.16 -0.67,1.46l0 0c-0.26,0.44 -0.42,0.51 -0.48,0.19 -0.07,-0.33 -0.05,-1.04 0.09,-2.13 0.16,-1.49 0.25,-3.22 0.25,-5.2 0,-1.79 -0.46,-9.17 -1.37,-22.12 -0.92,-12.95 -1.38,-20.2 -1.38,-21.75z"/>
   <path class="fil2" d="M280.77 126.64c-0.42,3.51 -0.69,5.26 -0.84,5.26 -0.15,0 -0.43,-1.44 -0.84,-4.31 -0.71,-4.59 -4.11,-9.82 -10.19,-15.68 -7.47,-7.09 -12.92,-12.76 -16.35,-17.02 -0.9,-1.23 -2.09,-2.93 -3.59,-5.09 -0.48,-0.71 -0.99,-1.22 -1.51,-1.52 -0.3,-0.18 -0.45,-0.48 -0.45,-0.89l0 -3.75c0,-0.75 0.13,-1.12 0.39,-1.12 0.19,0 0.53,0.18 1.01,0.56l7.11 5.43c0.53,0.41 0.79,0.73 0.79,0.95 0,0.15 -0.21,0.22 -0.62,0.22 -0.59,0 -1.58,-0.15 -2.97,-0.44 1.16,1.56 3.98,4.62 8.46,9.18 3.25,3.25 6.49,6.47 9.74,9.69 6.61,6.71 9.91,12.46 9.91,17.24 0,0.45 -0.02,0.88 -0.05,1.29zm31.27 3.19c2.27,0 4.46,-0.83 6.55,-2.49 0.18,-0.15 1.04,-1.04 2.57,-2.66 1.42,-1.51 2.19,-2.27 2.3,-2.27 0.33,0 0.39,0.34 0.17,1.01 -0.3,0.88 -0.45,1.44 -0.45,1.71 0,0.63 0.27,1.36 0.81,2.18 0.71,1.08 1.64,1.62 2.8,1.62 3.06,0 5.68,-2.2 7.87,-6.6 0.22,-0.45 0.48,-0.68 0.78,-0.68 0.24,0 0.36,0.21 0.36,0.62 0,0.15 -0.02,0.39 -0.07,0.73 -0.04,0.33 -0.07,0.59 -0.07,0.75 0,1.29 0.4,2.34 1.2,3.14 0.79,0.8 1.8,1.2 3.03,1.2 1.79,0 3.68,-0.69 5.36,-2.07 0.48,-0.41 0.73,-1.91 0.73,-4.48 0,-1.57 -0.41,-7.87 -1.21,-18.9 -0.8,-11.03 -1.2,-17.53 -1.2,-19.51 0,-1.79 -0.28,-3.27 -0.84,-4.42 0,-0.64 0.52,-2.19 1.57,-4.65 0.11,-0.3 0.22,-0.45 0.33,-0.45 0.11,0 0.24,0.17 0.39,0.51 0.3,0.63 0.99,2.38 2.08,5.26 1.11,2.98 1.79,4.81 2.01,5.48 0.11,0.57 0.17,0.96 0.17,1.18 0,0.82 -0.79,0.34 -2.35,-1.45 -0.19,-0.27 -0.28,-0.15 -0.28,0.33 0,0.11 0.35,5.02 1.06,14.73 0.71,9.7 1.06,15.49 1.06,17.35 0,5.42 -0.96,9.67 -2.91,12.77 -1.64,2.61 -3.73,3.92 -5.97,3.92 -2.82,0 -4.83,-1.78 -6.05,-5.34 -0.14,-0.47 -0.31,-0.47 -0.5,0 -1.6,4.12 -3.87,6.18 -6.8,6.18 -2.99,0 -4.76,-1.88 -5.32,-5.65 -0.04,-0.32 -0.09,-0.48 -0.14,-0.48 -0.06,0.04 -0.17,0.2 -0.34,0.48 -0.71,1.17 -1.76,2.38 -3.16,3.61 -2.22,1.98 -4.42,2.97 -6.61,2.97 -2.42,0 -4.11,-0.73 -5.07,-2.19 -0.57,-0.91 -0.9,-2.27 -0.97,-4.06 -0.02,-0.2 -0.12,-0.31 -0.28,-0.31 -0.3,0 -0.6,0.18 -0.9,0.54 -1.87,2.16 -3.07,3.48 -3.61,3.95 -2.37,2.03 -4.95,3.05 -7.56,3.05 -2.8,0 -4.82,-1.09 -6.05,-3.25 -0.82,-1.42 -1.38,-3.72 -1.68,-6.89 -1.04,5.08 -2.05,8.31 -3.02,9.69 -2.2,3.17 -4.74,5.41 -7.62,6.72 -1.11,0.48 -3.04,1.08 -5.76,1.79 -2.73,0.71 -4.72,1.14 -5.99,1.29 -0.53,0.03 -0.79,-0.02 -0.79,-0.17 0,-0.15 0.25,-0.37 0.73,-0.67 2.54,-1.46 6.59,-3.89 12.15,-7.28 6.27,-4.11 9.41,-10.14 9.41,-18.09 0,-10.34 -0.49,-19.35 -1.46,-27.04 -0.26,-2.54 -0.78,-6.14 -1.57,-10.81 0.41,-2.68 0.73,-4.31 0.96,-4.87 0.14,-0.41 0.28,-0.62 0.39,-0.62 0.11,0 0.24,0.21 0.39,0.62 1.23,4 2.22,9.05 2.97,15.18 0.52,4.1 0.89,10.48 1.12,19.14 0.22,7.81 0.52,12.64 0.89,14.51 0.45,2.12 1.14,3.58 2.07,4.36 0.68,0.53 1.63,0.79 2.86,0.79 2.74,0 5.23,-0.72 7.28,-2.16 0.82,-0.58 2.68,-2.31 5.57,-5.21 0.35,-0.35 0.69,-0.53 1.01,-0.53 0.5,0 0.64,0.34 0.42,1.01 -0.23,0.67 -0.34,1.3 -0.34,1.88 0,1.28 0.53,2.28 1.6,2.99 1.01,0.67 2.31,1.01 3.92,1.01z"/>
   <path class="fil2" d="M263.58 124.37c0,-0.45 -0.87,-1.04 -2.61,-1.77 -1.73,-0.72 -3.01,-1.01 -3.83,-0.86 -0.3,0.07 -0.41,0.18 -0.34,0.33 0.3,0.82 0.93,2.18 1.91,4.09 2.53,-0.82 4.16,-1.42 4.87,-1.79zm-21.62 11.08c5.12,-4.03 10.03,-6.83 14.73,-8.4 -0.34,-0.56 -0.82,-1.49 -1.46,-2.8 -0.29,-0.63 -0.44,-1.4 -0.44,-2.29 0,-1.46 0.37,-2.69 1.11,-3.7 0.86,-1.23 2.15,-1.84 3.87,-1.84 1.34,0 3.27,0.87 5.76,2.63 2.65,1.79 3.98,3.28 3.98,4.48 -0.37,1.56 -0.84,3.04 -1.4,4.42 -2.13,0.63 -4.7,1.44 -7.73,2.41 0.12,1.71 -0.05,2.57 -0.5,2.57 -0.34,0 -0.69,-0.65 -1.06,-1.96 -1.38,0.49 -3.31,1.31 -5.77,2.47 -3.58,1.64 -6.29,3.19 -8.12,4.64 -2.8,2.21 -5.64,4.88 -8.51,8.01 -3.29,3.62 -5.19,5.66 -5.71,6.1 -1.79,1.61 -3.55,2.41 -5.26,2.41 -1.87,0 -3.51,-0.85 -4.93,-2.55 -1.42,-1.69 -2.13,-3.79 -2.13,-6.29 0,-3.48 1.42,-7.97 4.26,-13.5 0.29,-0.56 0.54,-0.84 0.72,-0.84 0.08,0 0.12,0.08 0.12,0.23 0,0.56 -0.62,2.49 -1.85,5.79 -1.23,3.3 -1.85,5.93 -1.85,7.87 0,1.45 0.35,2.64 1.06,3.55 0.71,0.92 1.72,1.37 3.03,1.37 1.79,0 3.75,-0.87 5.88,-2.63 1.12,-0.93 3.04,-2.91 5.76,-5.93 2.62,-2.88 4.76,-4.95 6.44,-6.22z"/>
   <path class="fil2" d="M306.54 168.1l1.43 -2.94c0.11,-0.22 0.23,-0.34 0.36,-0.34 0.19,0 0.99,0.49 2.41,1.46 1.42,0.97 2.13,1.54 2.13,1.71 0,0.63 -0.63,1.96 -1.88,3.97 -0.15,0.25 -0.31,0.31 -0.47,0.2 -1.24,-0.92 -2.63,-1.88 -4.18,-2.88 -0.52,1.17 -1.03,2.17 -1.54,2.99 -0.14,0.26 -0.3,0.33 -0.47,0.2 -1.4,-1.07 -2.85,-2.07 -4.34,-3 -0.07,-0.05 -0.07,-0.17 0,-0.33l1.79 -3.67c0.11,-0.23 0.23,-0.34 0.37,-0.34 0.16,0 0.85,0.4 2.04,1.21 1.19,0.8 1.98,1.39 2.35,1.76z"/>
   <path class="fil2" d="M292.5 100.26c14.41,-5.35 29.47,-10.93 45.18,-16.74 0.61,-0.23 0.97,-0.31 1.08,-0.23 0.16,0.11 0.12,0.44 -0.11,0.97 -0.69,1.68 -1.24,2.7 -1.66,3.04 -13.01,4.79 -28.25,10.71 -45.72,17.77l0 -2.02c0.34,-0.9 0.75,-1.82 1.23,-2.79z"/>
   <path class="fil2" d="M269.63 94.88c14.41,-5.35 29.47,-10.93 45.18,-16.74 0.61,-0.23 0.97,-0.31 1.08,-0.23 0.16,0.11 0.12,0.44 -0.11,0.97 -0.69,1.68 -1.24,2.7 -1.66,3.04 -13.01,4.79 -28.25,10.71 -45.72,17.77l0 -2.02c0.34,-0.9 0.75,-1.82 1.23,-2.79z"/>
   <path class="fil2" d="M241.09 174.66c8.26,-3.07 16.89,-6.27 25.89,-9.6 0.35,-0.13 0.56,-0.17 0.62,-0.13 0.09,0.07 0.07,0.25 -0.06,0.56 -0.4,0.96 -0.72,1.54 -0.96,1.74 -7.45,2.74 -16.18,6.14 -26.19,10.18l0 -1.16c0.19,-0.51 0.42,-1.04 0.7,-1.59z"/>
   <path class="fil2" d="M318.52 105.63c0,0.7 -0.15,1.44 -0.46,2.2 -0.42,0.97 -0.95,1.46 -1.6,1.46 -1.03,0 -1.77,-0.7 -2.2,-2.12 -0.49,1.81 -1.39,2.72 -2.69,2.72 -0.49,0 -0.91,-0.24 -1.28,-0.73 -0.41,-0.58 -0.62,-1.34 -0.62,-2.29l0 -2.22c0,-0.18 -0.12,-0.31 -0.37,-0.38 -0.24,-0.07 -0.36,-0.26 -0.36,-0.57 0,-0.49 0.2,-0.97 0.62,-1.44 0.38,-0.42 0.67,-0.63 0.87,-0.63 0.25,0 0.38,0.49 0.38,1.47 0,0.51 -0.04,0.93 -0.12,1.28 -0.08,0.34 -0.12,0.64 -0.12,0.89 0,0.53 0.1,1.04 0.32,1.52 0.25,0.57 0.57,0.85 0.95,0.85 0.49,0 0.95,-0.23 1.37,-0.67 0.43,-0.44 0.64,-0.96 0.64,-1.56 0,-0.35 -0.1,-0.93 -0.3,-1.77 -0.2,-0.83 -0.3,-1.34 -0.3,-1.54 0,-0.19 0.09,-0.47 0.27,-0.86 0.19,-0.39 0.32,-0.58 0.41,-0.58 0.17,0 0.38,0.55 0.64,1.65 0.26,1.11 0.39,1.92 0.39,2.45 0,1.52 0.59,2.28 1.77,2.28 0.51,0 0.82,-0.26 0.95,-0.76 -1.01,-1.78 -1.52,-3.13 -1.52,-4.08 0,-0.54 0.13,-1.02 0.41,-1.44 0.18,-0.28 0.3,-0.44 0.38,-0.46 0.07,0 0.12,0.18 0.16,0.55 0.05,0.5 0.14,0.92 0.24,1.25 0.02,0.03 0.27,0.66 0.74,1.87 0.29,0.72 0.43,1.28 0.43,1.66z"/>
   <path class="fil2" d="M242.43 111.45c0.29,-0.92 0.35,-1.84 0.19,-2.77 -0.19,-1.01 -0.65,-1.52 -1.38,-1.52 -0.35,0 -0.83,0.16 -1.43,0.5 -0.6,0.33 -0.91,0.66 -0.91,0.98 0,0.73 1.18,1.66 3.53,2.81zm-1.81 4.1c-2.96,-1.53 -4.43,-3.13 -4.43,-4.82 0,-2.03 0.93,-3.89 2.81,-5.58 1.87,-1.68 3.43,-2.3 4.67,-1.85 1.05,0.38 1.57,1.51 1.57,3.38 0,1.68 -0.35,3.58 -1.04,5.67 1.49,0.86 2.43,1.59 2.81,2.2 0,0.79 -0.67,2.14 -2,4.05 -0.39,-0.6 -1.29,-1.34 -2.72,-2.19 -1.65,2.29 -3.75,4.37 -6.3,6.24 -2.89,2.13 -5.54,3.74 -7.96,4.82 -0.51,0.25 -3.3,1.32 -8.39,3.19 -0.79,0.29 -1.32,0.43 -1.57,0.43 -0.13,0 -0.19,-0.03 -0.19,-0.09 0,-0.19 0.44,-0.57 1.33,-1.15 3.75,-2.22 7.52,-4.46 11.3,-6.72 4.51,-2.73 7.88,-5.26 10.11,-7.58z"/>
   <path class="fil2" d="M373.67 122.48c1.37,0 2.84,-0.23 4.43,-0.7 0.44,-0.12 0.66,-0.16 0.66,-0.1 0,0.05 -0.16,0.23 -0.5,0.51 -1.37,1.25 -3.15,1.87 -5.31,1.87 -0.68,0 -1.23,-0.18 -1.66,-0.53 -0.42,-0.35 -0.64,-0.8 -0.64,-1.34 0,-1.43 0.62,-2.93 1.84,-4.5 -1.07,-0.32 -1.61,-0.89 -1.61,-1.7 0,-0.69 0.43,-1.52 1.29,-2.48 0.86,-0.97 1.56,-1.45 2.08,-1.45 0.14,0 0.28,0.11 0.43,0.33 0.14,0.22 0.21,0.45 0.21,0.7 0,0.11 -0.14,0.37 -0.43,0.79 -0.29,0.41 -0.45,0.58 -0.48,0.5 -0.11,-0.43 -0.35,-0.65 -0.72,-0.65 -0.19,0 -0.43,0.17 -0.71,0.5 -0.29,0.33 -0.43,0.61 -0.43,0.83 0.35,0.56 0.93,0.85 1.76,0.85 0.28,0 0.71,-0.26 1.3,-0.77 0.35,-0.32 0.7,-0.64 1.06,-0.97 0.12,-0.1 0.18,0 0.18,0.29 0,0.63 -0.23,1.27 -0.7,1.92 -1.82,1.23 -3.17,2.64 -4.05,4.24 -0.17,0.31 -0.25,0.57 -0.25,0.81 0,0.7 0.75,1.05 2.25,1.05z"/>
   <path class="fil2" d="M409.94 120.53c-0.25,1.16 -0.55,1.78 -0.91,1.85 -0.45,0.08 -0.65,-0.6 -0.6,-2.05 0.04,-1.27 -0.12,-2.87 -0.49,-4.8 -1.19,-6.29 -5.93,-11.88 -14.21,-16.78 -0.53,-0.32 -0.69,-0.8 -0.48,-1.45l1.34 -3.95c0.12,-0.35 0.41,-0.41 0.88,-0.17 7.94,3.85 12.76,10.24 14.46,19.18 0.52,2.79 0.53,5.51 0.01,8.17z"/>
   <path class="fil2" d="M199.22 132.74c0,4.38 -1.8,9.36 -5.41,14.95 -3.69,5.85 -8.46,10.82 -14.31,14.95 -1.18,0.83 -2.12,1.45 -2.81,1.86l0 -1.58c0.42,-0.48 0.93,-1.05 1.53,-1.7 9.62,-10.48 14.43,-17.48 14.43,-21 0,-3.36 -1.54,-5.03 -4.64,-5.03 -1.72,0 -3.27,0.47 -4.64,1.42 -1.03,0.68 -1.67,1.07 -1.93,1.16 -0.17,-0.18 -0.39,-0.3 -0.65,-0.39 0.09,-0.34 0.26,-1.24 0.52,-2.71 1.55,-7.21 5.16,-10.82 10.83,-10.82 4.72,0 7.08,2.96 7.08,8.89z"/>
   <path class="fil2" d="M430.1 145.04c3.67,0 6.96,2.18 9.87,6.53 2.91,4.35 4.95,10.03 6.13,17.03 0.13,0.72 0.2,1.15 0.2,1.27 0.13,0.2 0.23,0.2 0.29,0 0.07,-0.12 0.23,-0.55 0.49,-1.27 0.59,-4.19 2.03,-10.44 4.32,-18.75 2.49,-5.95 5.2,-8.93 8.15,-8.93 1.51,0 3.01,1.02 4.52,3.04 1.3,1.77 1.96,3.21 1.96,4.32 0,0.85 -0.23,1.97 -0.69,3.34 -0.59,1.83 -1.27,2.75 -2.06,2.75 -0.33,0 -1.05,-0.71 -2.16,-2.11 -1.11,-1.41 -2.26,-2.11 -3.43,-2.11 -2.62,0 -5.04,6.18 -7.27,18.55 -0.98,5.36 -2.06,9.16 -3.24,11.39 -0.85,1.5 -1.57,2.25 -2.16,2.25 -0.52,0 -0.78,-0.69 -0.78,-2.06 0,-2.16 -1.25,-6.36 -3.73,-12.61 -2.49,-6.25 -4.25,-9.38 -5.3,-9.38 -0.72,0 -1.18,0.23 -1.38,0.69 -0.19,0.46 -0.78,0.69 -1.76,0.69 -1.12,0 -2.57,-0.82 -4.37,-2.46 -1.8,-1.63 -2.7,-2.94 -2.7,-3.92 0,-0.46 0.75,-1.95 2.26,-4.47 1.5,-2.52 2.45,-3.78 2.84,-3.78z"/>
   <path class="fil2" d="M348 463.02c-0.38,0.92 -0.72,1.38 -1.03,1.38 -0.38,0 -0.44,-0.59 -0.17,-1.78 0.23,-1.03 0.34,-2.37 0.34,-4.01 0,-5.35 -3.02,-10.69 -9.06,-16 -0.38,-0.34 -0.43,-0.76 -0.17,-1.26l1.72 -3.04c0.16,-0.26 0.4,-0.26 0.75,0 5.92,4.4 8.88,10.4 8.88,18 0,2.38 -0.42,4.61 -1.26,6.71z"/>
   <path class="fil2" d="M320.23 498.49c2.45,0 4.64,1.45 6.58,4.35 1.95,2.91 3.31,6.7 4.1,11.37 0.09,0.48 0.13,0.77 0.13,0.85 0.09,0.14 0.15,0.14 0.2,0 0.04,-0.08 0.15,-0.37 0.32,-0.85 0.4,-2.79 1.36,-6.96 2.89,-12.51 1.66,-3.98 3.47,-5.96 5.43,-5.96 1.01,0 2.01,0.67 3.02,2.03 0.87,1.18 1.31,2.14 1.31,2.88 0,0.57 -0.15,1.31 -0.46,2.23 -0.39,1.22 -0.85,1.83 -1.38,1.83 -0.22,0 -0.7,-0.47 -1.44,-1.41 -0.74,-0.93 -1.5,-1.4 -2.29,-1.4 -1.75,0 -3.36,4.12 -4.85,12.38 -0.65,3.58 -1.37,6.11 -2.16,7.6 -0.57,1 -1.05,1.5 -1.44,1.5 -0.35,0 -0.53,-0.45 -0.53,-1.37 0,-1.44 -0.83,-4.25 -2.49,-8.42 -1.65,-4.17 -2.83,-6.26 -3.53,-6.26 -0.48,0 -0.79,0.16 -0.92,0.46 -0.13,0.31 -0.52,0.46 -1.18,0.46 -0.74,0 -1.72,-0.54 -2.92,-1.64 -1.2,-1.09 -1.8,-1.96 -1.8,-2.62 0,-0.3 0.51,-1.3 1.51,-2.98 1,-1.68 1.64,-2.52 1.9,-2.52z"/>
   <path class="fil2" d="M156.88 151.63c0.08,0.55 0.04,1.29 -0.12,2.22 -0.2,1.24 -0.56,1.9 -1.06,1.98 -0.21,0.03 -0.75,-0.36 -1.6,-1.16 -0.86,-0.8 -1.67,-1.14 -2.43,-1.03 -1.69,0.26 -2.65,4.49 -2.89,12.69 -0.11,3.56 -0.44,6.12 -0.98,7.67 -0.41,1.06 -0.8,1.61 -1.18,1.67 -0.34,0.05 -0.57,-0.37 -0.71,-1.26 -0.21,-1.39 -1.42,-3.99 -3.63,-7.78 -2.21,-3.8 -3.66,-5.64 -4.34,-5.54 -0.46,0.07 -0.73,0.26 -0.82,0.57 -0.08,0.32 -0.44,0.53 -1.07,0.62 -0.76,0.12 -1.87,-0.29 -3.33,-1.22 -1.46,-0.92 -2.08,-1.66 -1.86,-2.21 1.37,-3.84 2.21,-5.78 2.5,-5.83 2.37,-0.35 4.7,0.73 7.01,3.26 2.3,2.53 4.17,6 5.61,10.41 0.16,0.45 0.24,0.72 0.25,0.8 0.11,0.12 0.17,0.11 0.19,-0.03 0.03,-0.09 0.1,-0.38 0.2,-0.87 -0.03,-2.76 0.29,-6.94 0.97,-12.53 1.03,-4.09 2.49,-6.27 4.39,-6.56 0.98,-0.14 2.05,0.37 3.21,1.53 1.02,1.01 1.58,1.88 1.69,2.6zm-55.04 36.47l-0.14 -0.89c0.25,-0.24 0.56,-0.52 0.95,-0.85 5.15,-3.97 12.31,-10.08 21.49,-18.33 3.66,-3.84 5.9,-6.9 6.72,-9.18 0.31,-0.87 0.58,-1.32 0.84,-1.36 0.09,0.03 0.14,0.11 0.16,0.23 0.1,0.64 -0.3,2.19 -1.18,4.65 -1.46,4.07 -3.85,7.76 -7.15,11.07 -3.43,3.4 -6.63,6.07 -9.63,7.99 -0.59,0.39 -4.1,2.36 -10.52,5.92 -0.64,0.35 -1.16,0.6 -1.54,0.75z"/>
   <path class="fil2" d="M239.98 357.16l4.24 -8.71c0.33,-0.67 0.69,-1 1.07,-1 0.56,0 2.94,1.44 7.14,4.31 4.21,2.88 6.31,4.57 6.31,5.07 0,1.88 -1.85,5.81 -5.56,11.78 -0.44,0.72 -0.91,0.92 -1.41,0.58 -3.65,-2.71 -7.78,-5.56 -12.37,-8.55 -1.54,3.49 -3.07,6.45 -4.56,8.89 -0.44,0.77 -0.92,0.96 -1.41,0.58 -4.15,-3.16 -8.44,-6.12 -12.87,-8.88 -0.22,-0.17 -0.22,-0.5 0,-1l5.32 -10.87c0.33,-0.67 0.69,-1 1.07,-1 0.5,0 2.52,1.19 6.06,3.57 3.54,2.38 5.87,4.12 6.97,5.23z"/>
   <g>
    <path class="fil3" d="M317.5 219.08c10.73,-16.7 29.38,-27.26 48.93,-29.53 -2.62,3.19 -4.39,8.22 -9.71,7.29 -12.84,1.77 -27.73,7.1 -33.01,19.96 2.89,-0.6 5.78,-1.27 8.67,-1.92 0.77,8.31 -6.97,13.95 -14.39,15.22 -0.52,-3.58 -2.49,-7.66 -0.49,-11.02z"/>
    <path class="fil3" d="M294.94 223.71c3.18,-2.31 7.41,-0.49 11.02,-0.3 0.15,13.14 -7.09,24.82 -16.76,33.09 3.59,-6.59 7.72,-13.05 9.61,-20.39 -3.46,1.54 -6.91,3.08 -10.53,4.2 -0.74,-6.28 1.79,-12.6 6.66,-16.6z"/>
    <path class="fil3" d="M318.52 239.29c3.91,-3.08 12.28,-5.84 14.41,0.47 2.16,7.08 -5.53,12.61 -10.9,15.63 -0.71,-0.36 -2.11,-1.11 -2.81,-1.48 0.67,-2.83 1.41,-5.63 2.11,-8.45 -10.73,1.41 -16.93,11.33 -25.2,17.16 6.47,-8.59 13.75,-16.86 22.39,-23.33z"/>
   </g>
   <path class="fil3" d="M144.07 243.97c-1.06,-1.05 0.6,-2.48 1.13,-3.01 0.15,-0.45 0.3,-0.9 0.45,-1.27 3.91,-6.55 8.27,-15.57 7.07,-23.02 -0.45,-0.97 -0.91,-1.88 -1.28,-2.78 -3.31,-4.21 -7.3,-3.31 -11.43,-3.31 -2.41,0.38 -4.82,1.21 -6.62,1.51 -2.41,0.9 -4.74,1.88 -7.07,2.85 -1.13,0.53 -2.26,1.06 -3.31,1.66 -5.11,3.31 -10.38,5.56 -14.51,9.7 -0.45,0.53 -0.91,1.13 -1.28,1.73 -0.98,0.75 -2.56,2.56 -2.56,4.06 2.03,2.26 6.24,2.48 9.7,1.58 0.91,-0.45 2.33,-1.28 3.09,-2.03 2.48,0 0.07,6.62 -0.38,7.9 -0.6,0.6 -1.13,1.2 -1.65,1.87 -1.51,0.61 -3.01,1.21 -4.44,1.81 -2.48,0 -4.59,0.08 -6.47,-0.38 -0.9,-0.52 -1.8,-0.97 -2.63,-1.43 -1.65,-0.82 -2.18,-3.08 -2.48,-3.83 0.07,-2.03 0.22,-4.06 0.37,-6.09 0.98,-1.96 1.96,-3.91 3.01,-5.87 2.26,-3.38 4.74,-6.09 7.6,-8.87 2.55,-1.96 4.66,-3.31 7.44,-5.04 1.81,-1.05 3.69,-2.03 5.57,-3.01 9.7,-4.36 18.42,-8.49 29.55,-6.01 0.9,0.6 1.81,1.27 2.78,1.95 2.71,3.31 3.39,8.27 1.96,13.09 -0.15,1.73 -0.45,3.46 -1.2,5.56 -0.76,2.03 -1.51,4.06 -2.26,6.09 -1.05,1.81 -2.03,3.69 -3.01,5.57 -1.5,2.33 -3.83,5.11 -5.26,7.97 -0.6,0.6 -1.2,0.9 -1.88,1.05z"/>
   <path class="fil2" d="M506.83 281.36c0.1,-0.45 0.15,-0.9 0.15,-1.35 0,-2.16 -0.88,-4.04 -2.63,-5.64 -1.51,-1.41 -2.91,-2.11 -4.22,-2.11 -2.36,0 -4.59,1.3 -6.7,3.91 -1.95,2.31 -2.93,4.37 -2.93,6.17 0,3.01 1.96,4.52 5.87,4.52 2.16,0 4.29,-0.5 6.4,-1.51 2.41,-1.1 3.76,-2.43 4.06,-3.99zm-181.28 68.9c-27.94,0 -48.34,-3.31 -61.18,-9.94 -14.95,-7.67 -22.43,-20.82 -22.43,-39.43 0,-11.14 1.93,-31.69 5.8,-61.64 1.05,-3.91 3.83,-12.07 8.35,-24.46 0.25,-0.75 0.58,-1.13 0.98,-1.13 0.45,0 0.62,0.53 0.53,1.58 -3.62,32.16 -5.42,54.44 -5.42,66.83 0,28.5 24.45,42.75 73.37,42.75 27.65,0 55.45,-2.46 84.5,-7.78 30.4,-5.57 55.06,-12.9 73.98,-21.98 -0.66,-0.65 -0.98,-2.05 -0.98,-4.21 0,-1.66 0.32,-3.36 0.98,-5.12 1.7,-4.67 5.44,-10.49 11.21,-17.46 -1.15,-0.5 -1.73,-1.35 -1.73,-2.56 0,-1.6 1.48,-4.99 4.44,-10.16 0.8,-1.45 1.55,-2.18 2.26,-2.18 0.95,0 2.13,1.18 3.53,3.54 1.81,2.96 4.14,5.12 7.01,6.47 0.09,0 2.55,0.78 7.37,2.33 3.51,0.8 7.02,1.61 10.53,2.41 4.32,1.5 6.48,4.11 6.48,7.83 0,3.56 -1.33,7.64 -3.99,12.22 -2.66,4.6 -5.57,7.62 -8.73,9.07 -1.21,0.56 -3.06,0.76 -5.57,0.61 -4.77,-0.31 -7.3,-0.46 -7.6,-0.46 -5.52,0 -9.51,0.83 -11.97,2.49 -24.58,16.71 -55.51,29.78 -92.79,39.21 -29.91,7.58 -55.85,11.17 -78.93,11.17zm201.45 -64.15c0,-2.81 -1.96,-5 -5.87,-6.55 -1.56,-0.6 -4.97,-1.46 -10.23,-2.56 0,2.81 -0.93,6.42 -2.79,10.84 4.21,0.6 7.88,0.9 10.99,0.9 5.27,0 7.9,-0.88 7.9,-2.63z"/>
   <path class="fil2" d="M236.29 284.95c-4.22,16.38 -8.72,28.89 -13.48,37.51 -3.4,6.13 -6.97,10.3 -10.69,12.53 -3.49,2.08 -9.26,3.6 -17.29,4.56 -0.5,0.05 -0.96,0.07 -1.36,0.07 -1.59,0 -2.39,-0.41 -2.39,-1.23 0,-0.91 0.93,-1.95 2.79,-3.13 5.27,-3.31 9.33,-6.04 12.19,-8.17 5.13,-3.81 9.01,-7.44 11.64,-10.89 5.72,-7.45 11.08,-18.09 16.07,-31.93 0.5,-1.36 1.11,-2.04 1.84,-2.04 0.59,0 0.88,0.45 0.88,1.36 0,0.41 -0.07,0.86 -0.2,1.36z"/>
   <path class="fil2" d="M217.62 265.26c0,7.53 -2.08,14.79 -6.26,21.78 -3.09,5.04 -6.19,8.65 -9.33,10.83 -2.31,1.59 -5.76,3.2 -10.34,4.83 -4.81,1.73 -8.54,2.59 -11.17,2.59 -1.4,0 -2.11,-0.39 -2.11,-1.16 0,-0.77 0.75,-1.59 2.25,-2.45 13.03,-7.4 22.05,-14.3 27.09,-20.69 0.36,-0.46 0.55,-0.87 0.55,-1.23 0,-0.41 -0.25,-0.61 -0.75,-0.61 -0.41,0 -0.91,0.11 -1.5,0.34 -1.72,0.68 -3.36,1.02 -4.9,1.02 -2.63,0 -4.72,-0.91 -6.26,-2.73 -1.55,-1.81 -2.32,-4.1 -2.32,-6.87 0,-2.18 1.27,-6.17 3.81,-11.98 3.04,-6.9 6.04,-10.35 8.99,-10.35 3.31,0 6.18,1.69 8.61,5.07 2.43,3.38 3.64,7.25 3.64,11.61z"/>
   <path class="fil2" d="M178.68 263.18c-1.31,23.69 -8.8,44.09 -22.47,61.2 -13.25,16.71 -27.95,25.06 -44.11,25.06 -10.08,0 -17.77,-2.98 -23.08,-8.92 -4.76,-5.4 -7.14,-12.66 -7.14,-21.79 0,-13.84 4.69,-29.39 14.09,-46.63 1.04,-1.95 1.93,-2.93 2.65,-2.93 0.36,0 0.55,0.27 0.55,0.82 0,0.63 -0.28,1.52 -0.82,2.65 -5.95,12.76 -8.92,22.74 -8.92,29.96 0,8.21 3.27,14.29 9.8,18.24 5,3 11.26,4.5 18.79,4.5 9.85,0 19.32,-2.64 28.39,-7.9 10.21,-5.95 17.29,-13.93 21.24,-23.97 1.36,-3.45 2.04,-8.05 2.04,-13.81 0,-2.18 -0.12,-5.24 -0.37,-9.16 -0.25,-3.93 -0.38,-6.62 -0.38,-8.07 0,-1.59 0.1,-2.9 0.28,-3.95 0.27,-1.59 1.22,-4.67 2.86,-9.26 1.54,-4.22 2.74,-7.24 3.61,-9.05 1.31,-2.72 2.36,-4.09 3.13,-4.09 0.54,0 0.81,0.75 0.81,2.25 0,0.82 -0.08,1.84 -0.27,3.07 -0.04,4.35 -0.27,11.61 -0.68,21.78zm-57.18 23.28c0,1.09 1.92,2.66 5.78,4.7 0.27,0.14 1.66,1 4.15,2.59 1.46,0.91 2.55,1.36 3.27,1.36 1.41,0 3.35,-1.98 5.82,-5.93 2.48,-3.94 3.71,-7.19 3.71,-9.73 0,-2.54 -1.45,-5.18 -4.35,-7.93 -2.91,-2.75 -5.84,-4.12 -8.78,-4.12 -1.05,0 -2.89,2.45 -5.52,7.35 -2.72,5.13 -4.08,9.03 -4.08,11.71z"/>
   <path class="fil3" d="M511.37 343.35c-1.2,-0.41 -2.46,-0.8 -3.59,-1.2 -0.67,-0.2 -1.34,-0.34 -2,-0.47 -1.6,0 -2.93,0.73 -3.99,0.93 -2,0 -3.67,-0.53 -4.6,-1.79 -1.26,-0.8 -1.33,-2.87 -1.46,-3.53 0,-0.67 0,-1.4 0,-2.07 0.6,-5.46 2.66,-10.78 5.92,-14.84 -0.13,-0.6 -0.33,-1.27 -0.46,-1.8 0,-0.53 0,-1.06 0,-1.53 0.66,-3.86 2.39,-6.86 4.66,-9.85 1.13,-1.13 1.79,-2.46 3.39,-3 -0.27,0.54 -0.53,1.13 -0.8,1.73 -0.86,0.93 -1.46,1.87 -2.33,3.13 -0.4,0.8 -0.8,1.67 -1.26,2.53 -0.14,0.47 -1.07,4 0.6,4.26 0.2,-0.33 0.46,-0.73 0.66,-1.13 0.2,0 0.33,0 0.53,0 0.2,0.27 0.4,0.47 0.6,0.73 0,1.8 -1.13,4.66 -2.73,6.13 -0.86,0.33 -1.73,-0.27 -2.19,-0.34 -0.8,1.4 -1.8,3 -2.6,4.53 -0.2,0.53 -0.46,1.07 -0.66,1.6 -0.67,2.46 -1.6,4.32 -0.6,7.05 0.73,1.07 1.66,2.4 3.86,2.4 0.06,-0.07 0.13,-0.07 0.2,-0.07 0.4,-1.13 0.8,-2.26 1.26,-3.46 0.33,-0.66 0.67,-1.33 1,-1.99 0,-1.93 0.67,-3.47 0.93,-4.93 0.07,-0.2 0.2,-0.4 0.34,-0.53 0.39,-0.07 0.86,-0.07 1.33,-0.07 3.19,1 6.99,4.59 7.59,8.52 0,1.33 -0.07,2.66 -0.14,4.06 -0.4,1.33 -0.86,2.73 -1.26,4.06 -0.67,0.94 -1.4,0.87 -2.2,0.94zm0.53 -6.06c-0.8,-0.34 -1.73,-0.67 -2.59,-0.93 0,-0.8 0.4,-1.27 0.6,-1.94 0.06,0 0.2,0 0.26,0 0.73,0.74 1.2,1.47 2,2.8 -0.07,0 -0.2,0.07 -0.27,0.07zm-5.79 -1.53c-0.33,-0.34 -0.73,-0.6 -1.06,-0.87 0,-0.8 0.73,-1.6 1.39,-1.86 0.94,0 1.47,0.26 1.47,1.79 -0.6,0.27 -1.2,0.6 -1.8,0.94z"/>
   <path class="fil2" d="M494.05 215.02c0.91,-0.31 -0.2,1.88 -3.47,6.05 -1.14,0.79 -82.93,28.05 -90.62,30.84 -7.69,2.8 -12.93,4.94 -15.75,6.44 -1.12,-0.09 -0.25,-2.25 2.68,-6.54 7.86,-3.38 95.11,-32.77 107.16,-36.79z"/>
   <path class="fil2" d="M230.91 204.5c-0.25,0.5 -0.32,1 -0.26,1.48 0.09,0.46 0.28,0.91 0.6,1.34 0.3,0.42 0.67,0.75 1.11,1 0.44,0.25 0.78,0.4 1.02,0.46 0.94,-0.69 1.61,-1.55 2,-2.57 0.4,-1.02 0.08,-1.8 -0.96,-2.35 -1.03,-0.55 -2.18,-0.33 -3.51,0.64zm-25.91 22.26c-0.45,-0.04 -0.77,-0.12 -1,-0.26 -0.22,-0.14 -0.46,-0.32 -0.69,-0.52 -0.25,-0.22 -0.28,-0.5 -0.12,-0.81 0.16,-0.33 0.54,-0.56 1.1,-0.66 2.3,-0.01 4.72,-0.34 7.3,-0.98 2.57,-0.61 5.05,-1.39 7.37,-2.34 2.34,-0.93 4.45,-1.98 6.34,-3.15 1.88,-1.13 3.26,-2.22 4.13,-3.3 -0.45,-0.23 -1.03,-0.61 -1.7,-1.12 -0.66,-0.52 -1.24,-1.2 -1.7,-2.05 -0.5,-0.85 -0.8,-1.8 -0.97,-2.87 -0.15,-1.06 0.06,-2.14 0.67,-3.23 0.7,-1.17 1.74,-2.28 3.14,-3.3 1.4,-1.06 2.98,-1.84 4.69,-2.35 1.75,-0.52 3.42,-0.81 5.03,-0.89 1.61,-0.05 2.92,0.3 3.91,1.1 0.67,0.52 1.14,1.29 1.4,2.31 0.26,1.02 -0.07,2.4 -1.04,4.09 -0.98,1.71 -2.72,3.81 -5.22,6.36 -2.5,2.55 -5.4,4.88 -8.71,6.96 -3.33,2.08 -7.04,3.78 -11.16,5.1 -4.13,1.35 -8.39,1.97 -12.77,1.91z"/>
   <path class="fil2" d="M435.66 219.88c-0.25,1.16 -0.55,1.78 -0.91,1.85 -0.45,0.08 -0.65,-0.6 -0.6,-2.05 0.04,-1.27 -0.12,-2.87 -0.49,-4.8 -1.19,-6.29 -5.92,-11.89 -14.21,-16.79 -0.52,-0.31 -0.68,-0.79 -0.48,-1.44l1.34 -3.95c0.12,-0.35 0.42,-0.41 0.88,-0.17 7.94,3.85 12.76,10.24 14.46,19.18 0.53,2.79 0.53,5.51 0.01,8.17z"/>
   <path class="fil2" d="M412.41 263.29c2.45,0 4.64,1.45 6.59,4.35 1.94,2.91 3.3,6.7 4.09,11.37 0.09,0.48 0.13,0.77 0.13,0.85 0.09,0.13 0.15,0.13 0.2,0 0.04,-0.08 0.15,-0.37 0.32,-0.85 0.4,-2.8 1.36,-6.97 2.89,-12.51 1.66,-3.98 3.47,-5.97 5.43,-5.97 1.01,0 2.01,0.68 3.02,2.03 0.87,1.18 1.31,2.15 1.31,2.89 0,0.56 -0.15,1.31 -0.46,2.23 -0.39,1.22 -0.85,1.83 -1.37,1.83 -0.22,0 -0.7,-0.47 -1.45,-1.41 -0.74,-0.94 -1.5,-1.41 -2.29,-1.41 -1.74,0 -3.36,4.13 -4.85,12.39 -0.65,3.58 -1.37,6.11 -2.16,7.6 -0.57,1 -1.05,1.5 -1.44,1.5 -0.35,0 -0.53,-0.46 -0.53,-1.37 0,-1.45 -0.82,-4.25 -2.48,-8.42 -1.66,-4.17 -2.84,-6.26 -3.54,-6.26 -0.48,0 -0.79,0.15 -0.92,0.46 -0.13,0.3 -0.52,0.46 -1.18,0.46 -0.74,0 -1.71,-0.55 -2.91,-1.64 -1.2,-1.09 -1.8,-1.97 -1.8,-2.62 0,-0.31 0.5,-1.3 1.5,-2.98 1,-1.68 1.64,-2.52 1.9,-2.52z"/>
  </g>
 </g>
</svg>
