<?xml version="1.0" encoding="UTF-8"?>
<!DOCTYPE svg PUBLIC "-//W3C//DTD SVG 1.1//EN" "http://www.w3.org/Graphics/SVG/1.1/DTD/svg11.dtd">
<svg xmlns="http://www.w3.org/2000/svg" xml:space="preserve" width="600px" height="600px" version="1.1" style="shape-rendering:geometricPrecision; text-rendering:geometricPrecision; image-rendering:optimizeQuality; fill-rule:evenodd; clip-rule:evenodd"
viewBox="0 0 600 600"
 xmlns:xlink="http://www.w3.org/1999/xlink">
 <defs>
  <style type="text/css">
   <![CDATA[
    .fil0 {fill:#8F684B}
    .fil1 {fill:#F3F3EB}
    .fil2 {fill:white;fill-rule:nonzero}
   ]]>
  </style>
 </defs>
 <g id="Layer_x0020_1">
  <metadata id="WikiLayer"/>
  <polygon class="fil0" points="300,0 314.89,15.78 331.36,1.64 344.52,18.9 362.37,6.56 373.66,25.09 392.7,14.68 402,34.29 422.02,25.94 429.21,46.41 450,40.19 455.01,61.31 476.34,57.29 479.11,78.82 500.74,77.06 501.25,98.75 522.94,99.26 521.18,120.89 542.71,123.66 538.69,144.99 559.81,150 553.59,170.79 574.06,177.98 565.71,198 585.32,207.3 574.91,226.34 593.44,237.63 581.1,255.48 598.36,268.64 584.22,285.11 600,300 584.22,314.89 598.36,331.36 581.1,344.52 593.44,362.37 574.91,373.66 585.32,392.7 565.71,402 574.06,422.02 553.59,429.21 559.81,450 538.69,455.01 542.71,476.34 521.18,479.11 522.94,500.74 501.25,501.25 500.74,522.94 479.11,521.18 476.34,542.71 455.01,538.69 450,559.81 429.21,553.59 422.02,574.06 402,565.71 392.7,585.32 373.66,574.91 362.37,593.44 344.52,581.1 331.36,598.36 314.89,584.22 300,600 285.11,584.22 268.64,598.36 255.48,581.1 237.63,593.44 226.34,574.91 207.3,585.32 198,565.71 177.98,574.06 170.79,553.59 150,559.81 144.99,538.69 123.66,542.71 120.89,521.18 99.26,522.94 98.75,501.25 77.06,500.74 78.82,479.11 57.29,476.34 61.31,455.01 40.19,450 46.41,429.21 25.94,422.02 34.29,402 14.68,392.7 25.09,373.66 6.56,362.37 18.9,344.52 1.64,331.36 15.78,314.89 0,300 15.78,285.11 1.64,268.64 18.9,255.48 6.56,237.63 25.09,226.34 14.68,207.3 34.29,198 25.94,177.98 46.41,170.79 40.19,150 61.31,144.99 57.29,123.66 78.82,120.89 77.06,99.26 98.75,98.75 99.26,77.06 120.89,78.82 123.66,57.29 144.99,61.31 150,40.19 170.79,46.41 177.98,25.94 198,34.29 207.3,14.68 226.34,25.09 237.63,6.56 255.48,18.9 268.64,1.64 285.11,15.78 "/>
  <path class="fil1" d="M36.5 300c0,-145.53 117.97,-263.5 263.5,-263.5 145.53,0 263.5,117.97 263.5,263.5 0,145.53 -117.97,263.5 -263.5,263.5 -145.53,0 -263.5,-117.97 -263.5,-263.5zm263.5 -271c-149.67,0 -271,121.33 -271,271 0,149.67 121.33,271 271,271 149.67,0 271,-121.33 271,-271 0,-149.67 -121.33,-271 -271,-271z"/>
  <path class="fil1" d="M300 539.65c-132.36,0 -239.65,-107.29 -239.65,-239.65 0,-132.36 107.29,-239.65 239.65,-239.65 132.36,0 239.65,107.29 239.65,239.65 0,132.36 -107.29,239.65 -239.65,239.65zm0 -495.55c-141.33,0 -255.9,114.57 -255.9,255.9 0,141.33 114.57,255.9 255.9,255.9 141.33,0 255.9,-114.57 255.9,-255.9 0,-141.33 -114.57,-255.9 -255.9,-255.9z"/>
  <g id="_1323647771024">
   <path class="fil2" d="M309.49 148.57c-1,0.14 -1.58,0.2 -1.72,0.18 -0.03,-0.01 -0.05,-0.02 -0.05,-0.04 0.01,-0.05 0.41,-0.24 1.19,-0.57 0.74,-0.27 1.9,-0.85 3.48,-1.73 0.82,-0.59 1.99,-1.56 3.51,-2.89 1.05,-0.92 2.14,-1.69 3.26,-2.29 1.38,-0.73 2.7,-1 3.97,-0.82 0.29,0.04 0.68,0.19 1.14,0.42 0.47,0.24 0.88,0.39 1.23,0.44 0.65,0.09 1.21,-0.08 1.69,-0.51 0.38,-0.44 0.77,-0.89 1.16,-1.33 0.28,-0.32 0.5,-0.46 0.68,-0.44 0.09,0.02 0.12,0.1 0.1,0.26 -0.04,0.23 -0.2,0.59 -0.48,1.08 -0.15,0.25 0.45,0.47 1.78,0.67 0.14,0.02 0.22,-0.01 0.25,-0.07 0.02,-0.04 -0.01,-0.38 -0.09,-1.04 -0.03,-0.18 0.09,-0.42 0.35,-0.73 0.44,-0.54 0.69,-0.77 0.75,-0.69 0.26,0.36 0.35,0.87 0.26,1.51 -0.08,0.55 -0.3,1.16 -0.66,1.84 -0.36,0.68 -0.67,1.09 -0.92,1.21 -0.65,0.32 -1.57,0.08 -2.74,-0.72 -1.21,0.95 -2.33,1.35 -3.35,1.2 -0.29,-0.05 -0.66,-0.18 -1.11,-0.41 -0.44,-0.22 -0.77,-0.35 -1,-0.39 -1.73,-0.25 -3.62,0.32 -5.65,1.7 -1.48,1.09 -2.98,2.18 -4.48,3.27 -0.88,0.48 -1.73,0.78 -2.55,0.89z"/>
   <path class="fil2" d="M327.49 335.68c2.97,0 5.63,1.76 7.99,5.28 2.35,3.52 4.01,8.12 4.96,13.78 0.11,0.59 0.16,0.93 0.16,1.04 0.11,0.15 0.19,0.15 0.24,0 0.05,-0.11 0.18,-0.45 0.39,-1.04 0.48,-3.39 1.65,-8.44 3.5,-15.17 2.01,-4.82 4.21,-7.23 6.59,-7.23 1.22,0 2.44,0.83 3.66,2.47 1.06,1.43 1.58,2.59 1.58,3.49 0,0.69 -0.18,1.59 -0.55,2.7 -0.48,1.48 -1.03,2.22 -1.67,2.22 -0.27,0 -0.85,-0.56 -1.75,-1.7 -0.9,-1.14 -1.82,-1.71 -2.78,-1.71 -2.11,0 -4.07,5 -5.87,15.01 -0.8,4.34 -1.67,7.41 -2.63,9.22 -0.68,1.21 -1.26,1.82 -1.74,1.82 -0.43,0 -0.64,-0.55 -0.64,-1.66 0,-1.75 -1,-5.15 -3.02,-10.21 -2.01,-5.06 -3.44,-7.59 -4.28,-7.59 -0.59,0 -0.96,0.19 -1.12,0.56 -0.16,0.37 -0.63,0.56 -1.43,0.56 -0.9,0 -2.08,-0.67 -3.53,-1.99 -1.46,-1.32 -2.18,-2.38 -2.18,-3.18 0,-0.37 0.61,-1.57 1.82,-3.61 1.22,-2.04 1.99,-3.06 2.3,-3.06z"/>
   <path class="fil2" d="M142.17 443.01c0.42,-2.6 1.34,-5.73 2.75,-9.4 1.11,-2.87 1.67,-5.71 1.67,-8.54 0,-5.39 -2.49,-10.57 -7.46,-15.54 -0.38,-0.38 -0.44,-0.8 -0.17,-1.26l1.72 -3.04c0.16,-0.27 0.4,-0.27 0.75,0 4.97,4.09 7.45,9.96 7.45,17.6 0,3.67 -0.8,7.56 -2.41,11.67 -1.6,4.11 -2.41,6.94 -2.41,8.51 0,3.17 0.86,4.76 2.58,4.76 1,0 2.12,-1.21 3.38,-3.61 0.12,-0.23 0.24,-0.4 0.35,-0.52 0.11,-0.07 0.17,-0.05 0.17,0.06 0.04,0.11 0.04,0.3 0,0.57 -1.03,5.62 -2.71,8.43 -5.04,8.43 -2.37,0 -3.56,-2.29 -3.56,-6.88 0,-0.92 0.08,-1.85 0.23,-2.81z"/>
   <path class="fil2" d="M99.73 321.58c0,-1.58 -2.83,-3.94 -8.48,-7.09 -1.74,3.31 -2.61,6.3 -2.61,8.96 0,1.69 0.78,2.53 2.36,2.53 1.42,0 3.05,-0.49 4.89,-1.47 1.85,-0.98 3.13,-1.95 3.84,-2.93zm-5.55 -14.52c5.71,4.19 8.37,8.37 7.99,12.56 -0.38,4.51 -1,7.34 -1.87,8.48 -2.5,3.37 -5.6,5.06 -9.3,5.06 -3.59,0 -5.38,-2.18 -5.38,-6.53 0,-0.98 0.11,-2.04 0.33,-3.18 0.59,-3.64 2.31,-8.8 5.13,-15.49 2.39,-5.71 3.59,-10.49 3.59,-14.35 0,-7.66 -3.53,-15.03 -10.6,-22.1 -0.54,-0.54 -0.63,-1.14 -0.24,-1.79l2.44 -4.32c0.22,-0.38 0.57,-0.38 1.06,0 7.07,5.81 10.6,14.16 10.6,25.03 0,5.11 -1.25,10.66 -3.75,16.63z"/>
   <path class="fil2" d="M141.24 221.87c0.34,-0.65 0.67,-1.15 1,-1.48 0.33,-0.22 0.49,-0.16 0.49,0.17 0.11,0.33 0.11,0.88 0,1.65 -2.97,16.16 -7.8,24.23 -14.51,24.23 -7.15,0 -10.72,-5.93 -10.72,-17.8 0,-14.62 4.24,-29.96 12.7,-46.01 2.09,-3.96 3.35,-5.99 3.79,-6.1 0.11,0 0.17,0.06 0.17,0.17 0,0.77 -0.61,3.02 -1.82,6.76 -5.49,16.71 -8.24,28.41 -8.24,35.12 0,9.12 2.47,13.68 7.42,13.68 2.86,0 6.1,-3.46 9.72,-10.39z"/>
   <path class="fil2" d="M115.23 419.67c-0.38,0.92 -0.72,1.38 -1.03,1.38 -0.38,0 -0.44,-0.6 -0.17,-1.78 0.23,-1.03 0.34,-2.37 0.34,-4.01 0,-5.35 -3.02,-10.69 -9.06,-16 -0.38,-0.34 -0.43,-0.76 -0.17,-1.26l1.72 -3.04c0.16,-0.27 0.4,-0.27 0.75,0 5.92,4.4 8.89,10.4 8.89,18 0,2.37 -0.43,4.61 -1.27,6.71z"/>
   <path class="fil2" d="M270.04 82.94c0,0.34 -0.43,1.1 -1.28,2.29 -0.96,1.34 -1.87,2.31 -2.74,2.94 -0.55,0.38 -2.4,0.99 -5.53,1.82 -0.46,0.12 -0.72,0.17 -0.81,0.17l0 -0.04c0.07,-0.08 0.26,-0.23 0.55,-0.46 0.41,-0.31 1.52,-0.94 3.34,-1.9 1.75,-0.93 2.78,-1.53 3.07,-1.79 0.06,-0.05 0.08,-0.1 0.08,-0.15 0,-0.42 -1.55,-0.63 -4.66,-0.63 -0.01,0 -0.61,0.03 -1.79,0.08 -0.25,0.01 -0.45,0.01 -0.59,0l0 -0.68 1.06 -1.78c0.32,-0.55 0.91,-0.89 1.77,-1.03 0.31,-0.06 1.03,-0.08 2.15,-0.08 3.59,0 5.38,0.41 5.38,1.24z"/>
   <path class="fil2" d="M206.41 416.45c0,0.49 -0.13,1.15 -0.4,1.95 -0.34,1.07 -0.75,1.6 -1.2,1.6 -0.19,0 -0.62,-0.41 -1.26,-1.23 -0.65,-0.82 -1.32,-1.23 -2.01,-1.23 -1.53,0 -2.94,3.61 -4.24,10.83 -0.58,3.13 -1.21,5.35 -1.89,6.65 -0.5,0.88 -0.92,1.32 -1.27,1.32 -0.3,0 -0.46,-0.4 -0.46,-1.2 0,-1.27 -0.72,-3.72 -2.17,-7.37 -1.46,-3.65 -2.49,-5.48 -3.1,-5.48 -0.42,0 -0.69,0.14 -0.8,0.41 -0.12,0.26 -0.46,0.4 -1.03,0.4 -0.65,0 -1.5,-0.48 -2.56,-1.44 -1.05,-0.95 -1.57,-1.72 -1.57,-2.29 0,-0.27 0.44,-1.14 1.32,-2.61 0.88,-1.47 1.43,-2.2 1.66,-2.2 2.14,0 4.06,1.27 5.76,3.81 1.7,2.54 2.9,5.86 3.58,9.94 0.08,0.42 0.12,0.67 0.12,0.75 0.07,0.11 0.13,0.11 0.17,0 0.04,-0.08 0.13,-0.33 0.29,-0.75 0.34,-2.44 1.18,-6.09 2.52,-10.94 1.45,-3.48 3.04,-5.22 4.76,-5.22 0.88,0 1.76,0.59 2.63,1.77 0.77,1.04 1.15,1.88 1.15,2.53zm-12.38 21.67c-1.34,3.02 -3.94,5.96 -7.8,8.82 -3.48,2.57 -6.67,4.5 -9.57,5.8 -0.61,0.3 -3.98,1.58 -10.09,3.84 -0.96,0.34 -1.61,0.51 -1.95,0.51 -0.15,0 -0.23,-0.04 -0.23,-0.11 0,-0.23 0.55,-0.69 1.66,-1.38 5.05,-2.83 12.19,-7.28 21.44,-13.36 2.33,-1.79 4.07,-3.4 5.22,-4.81 1.49,-1.8 2.33,-2.7 2.52,-2.7 0.04,0 0.06,0.04 0.06,0.12 0,0.27 -0.42,1.36 -1.26,3.27z"/>
   <path class="fil2" d="M228.84 236.51c0,0.81 -0.22,1.87 -0.66,3.18 -0.56,1.74 -1.21,2.62 -1.96,2.62 -0.31,0 -1,-0.67 -2.06,-2.01 -1.06,-1.34 -2.15,-2.01 -3.27,-2.01 -2.49,0 -4.8,5.89 -6.92,17.67 -0.94,5.11 -1.96,8.73 -3.08,10.85 -0.81,1.43 -1.5,2.15 -2.06,2.15 -0.5,0 -0.75,-0.66 -0.75,-1.97 0,-2.05 -1.18,-6.06 -3.55,-12.01 -2.37,-5.96 -4.06,-8.93 -5.05,-8.93 -0.69,0 -1.13,0.22 -1.31,0.65 -0.19,0.44 -0.75,0.66 -1.69,0.66 -1.12,0 -2.63,-0.83 -4.53,-2.48 -1.9,-1.65 -2.64,-2.85 -2.2,-3.6 2.81,-5.24 4.43,-7.86 4.86,-7.86 3.49,0 6.63,2.08 9.4,6.22 2.78,4.15 4.72,9.56 5.85,16.23 0.12,0.68 0.18,1.09 0.18,1.21 0.13,0.19 0.22,0.19 0.28,0 0.07,-0.12 0.22,-0.53 0.47,-1.21 0.56,-4 1.93,-9.95 4.12,-17.86 2.37,-5.68 4.95,-8.51 7.76,-8.51 1.43,0 2.87,0.96 4.3,2.89 1.24,1.69 1.87,3.06 1.87,4.12zm-87.3 40.66l0 -1.3c0.41,-0.3 0.93,-0.64 1.55,-1.02 8.29,-4.61 19.95,-11.88 34.97,-21.79 6.11,-4.74 10.01,-8.66 11.69,-11.78 0.62,-1.19 1.12,-1.78 1.5,-1.78 0.12,0.06 0.18,0.19 0.18,0.37 0,0.94 -0.9,3.09 -2.71,6.46 -2.99,5.54 -7.23,10.35 -12.72,14.4 -5.67,4.17 -10.87,7.32 -15.61,9.44 -0.94,0.44 -6.42,2.53 -16.46,6.27 -1,0.36 -1.8,0.61 -2.39,0.73z"/>
   <path class="fil2" d="M498.04 328.52c-0.38,-3.24 -1.9,-5.99 -4.56,-8.27 -0.87,2.73 -1.88,4.84 -3.01,6.33 0.36,0.23 2.63,1.34 6.8,3.33 0.23,0.13 0.41,0.16 0.54,0.1 0.27,-0.14 0.34,-0.63 0.23,-1.49zm-9.74 -3.13c0.86,-1.31 1.35,-2.84 1.48,-4.6 0.13,-1.93 -0.37,-3.08 -1.51,-3.45 -0.65,-0.2 -1.73,0.08 -3.23,0.85 -1.51,0.78 -2.36,1.46 -2.55,2.06 -0.44,1.39 1.5,3.1 5.81,5.14zm-4.73 -10.29c0.1,-3.36 1,-5.48 2.7,-6.35 1.31,-0.67 2.63,-0.8 3.97,-0.37 1.29,0.42 2.63,1.34 4.03,2.78 4.82,5.1 7.45,10.26 7.9,15.49 0.05,0.34 0,0.77 -0.16,1.26 -0.51,1.59 -1.59,3.26 -3.25,5.03 -1.66,1.76 -2.96,2.49 -3.9,2.19 -0.35,-0.12 -2.99,-1.26 -7.92,-3.45 -3.72,2.74 -7.95,4.91 -12.67,6.51 -5.58,1.87 -10.52,3.05 -14.83,3.52 -0.92,0.14 -5.81,0.4 -14.68,0.78 -1.38,0.05 -2.3,0 -2.74,-0.14 -0.2,-0.07 -0.28,-0.15 -0.25,-0.24 0.08,-0.25 0.99,-0.62 2.73,-1.1 6.89,-1.56 13.79,-3.11 20.69,-4.67 7.89,-1.78 14.21,-3.83 18.95,-6.14 -4.28,-2.51 -5.92,-5.34 -4.91,-8.46 0.82,-2.57 2.27,-4.79 4.34,-6.64z"/>
   <path class="fil2" d="M274.24 493.01c-0.66,2.75 -2.59,4.83 -5.8,6.25 -3.21,1.41 -6.56,1.7 -10.05,0.87 -0.63,-0.15 -1.41,-0.47 -2.33,-0.97 -0.93,-0.5 -1.63,-0.8 -2.11,-0.92 -3.68,-0.88 -7.84,0.02 -12.49,2.68 -3.42,2.13 -6.85,4.24 -10.29,6.32 -1.98,0.87 -3.86,1.34 -5.65,1.42 -2.18,0.11 -3.42,0.13 -3.72,0.06 -0.08,-0.02 -0.11,-0.05 -0.1,-0.09 0.03,-0.11 0.91,-0.45 2.66,-1.01 1.64,-0.43 4.23,-1.44 7.8,-3.03 1.83,-1.1 4.51,-2.93 8.03,-5.51 2.47,-1.8 4.98,-3.25 7.52,-4.33 2.92,-1.23 5.47,-1.74 7.62,-1.54 -0.27,-0.03 1.02,0.3 3.89,0.99 2.07,-1.28 4.16,-2.53 6.26,-3.75 2.7,-1.44 4.77,-1.99 6.22,-1.64 2.23,0.53 3.08,1.93 2.54,4.2zm-2.22 1.12c-0.14,-1.05 -1.06,-1.78 -2.77,-2.19 -1.71,-0.41 -4.65,0.64 -8.83,3.13 0.36,0.17 0.76,0.3 1.2,0.41 1.79,0.43 3.84,0.45 6.18,0.06 2.15,-0.31 3.56,-0.78 4.22,-1.41z"/>
   <path class="fil2" d="M523.59 253.74c2.95,4.29 4.55,10.38 4.79,18.27 0.33,8.21 -0.97,16.3 -3.9,24.28 -0.6,1.61 -1.1,2.85 -1.5,3.71l-1.06 -1.54c0.08,-0.76 0.2,-1.65 0.34,-2.69 2.34,-16.74 2.32,-26.84 -0.06,-30.28 -2.26,-3.28 -4.9,-3.88 -7.93,-1.79 -1.68,1.16 -2.87,2.67 -3.58,4.52 -0.54,1.37 -0.91,2.18 -1.1,2.44 -0.29,-0.05 -0.58,-0.03 -0.9,0.06 -0.14,-0.4 -0.58,-1.4 -1.32,-3 -3.35,-8.09 -2.26,-14.06 3.28,-17.89 4.63,-3.19 8.94,-1.88 12.94,3.91z"/>
   <path class="fil2" d="M418.54 497.88c-3.82,3.44 -8.73,5.16 -14.73,5.16 -1.88,0 -3.41,-0.49 -4.59,-1.46 -1.18,-0.98 -1.77,-2.21 -1.77,-3.7 0,-2.64 1.1,-5.27 3.32,-7.91 2.18,-2.33 4.38,-4.66 6.59,-6.99 0.46,-0.5 0.33,-0.88 -0.4,-1.15 -1.64,-0.57 -3.4,-0.86 -5.27,-0.86 -1.04,0 -2.16,0.29 -3.39,0.86 -0.26,0.11 -0.44,0.13 -0.51,0.06 -0.08,-0.08 -0.06,-0.27 0.06,-0.58 0.76,-1.83 1.54,-3.05 2.35,-3.67 0.95,-0.76 2.42,-1.14 4.41,-1.14 4.47,0 6.71,1.09 6.71,3.26 0,1.65 -1.43,3.98 -4.3,7 -2.03,2.06 -4.05,4.15 -6.08,6.25 -0.88,1.15 -1.32,2.12 -1.32,2.92 0,1.84 2.07,2.76 6.19,2.76 3.79,0 7.88,-0.66 12.27,-1.95 1.23,-0.35 1.84,-0.44 1.84,-0.29 0,0.15 -0.46,0.63 -1.38,1.43z"/>
   <path class="fil2" d="M246.42 451.26c-6.38,0.76 -13.51,4.55 -19.89,11.57 -4.86,6.1 -9.72,12.2 -14.58,18.3 -4.58,5.4 -8.46,9.25 -11.64,11.54 -2.16,1.58 -6.31,3.81 -12.44,6.68 -5.3,2.47 -8.71,3.8 -10.23,3.98 -0.51,0.06 -0.78,-0.02 -0.8,-0.23 -0.07,-0.59 1.37,-2.05 4.33,-4.39 4.98,-3.9 7.6,-5.98 7.86,-6.23 4.22,-3.45 7.84,-6.75 10.84,-9.91 3.01,-3.15 7.89,-9.07 14.65,-17.75 6.01,-7.64 10.76,-13.1 14.27,-16.39 5.29,-4.9 11.25,-7.45 16.33,-8.05 3.95,-0.48 8.05,0.27 12.29,2.22 3.23,1.71 6.44,3.43 9.67,5.14 5.37,-11.39 9.16,-18.76 11.37,-22.11 5.83,-9.01 12,-13.91 18.49,-14.68 5.66,-0.68 11.07,1.04 16.23,5.17 4.36,3.49 6.71,6.69 7.06,9.59 0.12,1.05 -0.19,3.26 -0.92,6.62 -0.82,3.63 -1.68,6.14 -2.58,7.53 -2.01,3.15 -5.79,6.64 -11.33,10.47 -7.98,5.51 -16.45,8.81 -25.41,9.88 -3.37,0.4 -7.6,-0.05 -12.69,-1.35 -0.64,2.28 -0.85,4.38 -0.62,6.31 0.47,3.95 2.74,6.6 6.8,7.95 15.83,5.36 36.09,6.28 61,3.3 17.01,-2.04 39.06,-7.91 66.15,-17.63 18.23,-6.56 32.66,-12.37 43.27,-17.43l-24.56 -3.73c-2.28,-0.32 -3.78,-0.42 -4.5,-0.29 -0.58,0.1 -1.06,0.48 -1.46,1.14 -0.4,0.65 -1.23,0.98 -2.48,0.98 -4.23,0.33 -8.87,0.59 -13.92,0.79 -1.2,-0.15 -1.83,-0.5 -1.89,-1.05 -0.04,-0.29 0.09,-0.8 0.37,-1.53l2.69 -7.44c0.39,-1.08 1.01,-1.72 1.87,-1.94 6.13,-1.61 11.06,-2.53 14.79,-2.76 14.49,2.17 25.19,3.63 32.08,4.39 15.09,1.61 27.87,2.18 38.34,1.7 2.01,-0.09 3.04,0.09 3.1,0.57 0.01,0.14 -0.03,0.37 -0.14,0.68l-2.97 7.97c-0.3,0.84 -0.74,1.3 -1.32,1.37 0.04,-0.01 -1.45,0.1 -4.46,0.31 -3.01,0.21 -5.82,0.47 -8.43,0.79 -9.79,1.17 -17.78,3.12 -23.97,5.84 -50.2,22.2 -87.49,34.75 -111.86,37.67 -14.25,1.7 -26.57,2.13 -36.93,1.27 -7.24,-0.57 -14.98,-1.75 -23.47,-4.08 -6.31,-1.75 -9.95,-6.65 -10.92,-14.7 -0.45,-3.81 -0.23,-7.62 0.68,-11.45 -4.63,-2.64 -7.46,-4.2 -8.51,-4.66 -3.58,-1.64 -6.78,-2.28 -9.61,-1.94zm70.4 -19.85c-0.15,-1.27 -2.4,-3.19 -6.75,-5.76 -5.15,-3.06 -10.03,-4.31 -14.63,-3.76 -9.43,1.13 -17.8,10.07 -25.1,26.84 3.91,0.74 7.52,0.92 10.82,0.52 5.66,-0.68 11.54,-2.43 17.64,-5.25 4.77,-2.23 9.11,-4.81 13.03,-7.74 3.41,-2.54 5.08,-4.16 4.99,-4.85z"/>
   <path class="fil2" d="M464.29 380.2c-19.58,5.29 -43.57,9.85 -71.96,13.68 -38.61,5.29 -77.37,7.94 -116.28,7.94 -17.94,0 -43.32,-0.98 -76.15,-2.92 -35.21,-2.13 -55.21,-4.14 -60.01,-6.02 -14.47,-5.66 -29.86,-12.68 -46.15,-21.07 -7.05,-3.65 -10.58,-5.92 -10.58,-6.84 0,-0.42 0.58,-0.64 1.73,-0.64 1.89,0 5.5,0.58 10.85,1.74 6.63,1.46 13.26,2.91 19.89,4.37 12.7,2.5 25.78,4.5 39.21,6.02 22.38,2.5 37.82,4.05 46.33,4.65 22.8,1.65 50.28,2.47 82.45,2.47 54.72,0 105.64,-4.35 152.76,-13.05 11,-2 23.71,-5.04 38.12,-9.12 11.43,-3.22 19.34,-4.95 23.71,-5.19 1.1,-0.06 2.13,-0.09 3.1,-0.09 9.25,0 13.87,2.06 13.87,6.2 0,8.2 -5.23,18.81 -15.69,31.83 -4.5,5.1 -10.25,12.34 -17.24,21.7 -2.49,4.26 -4.1,6.39 -4.83,6.39 -0.25,-0.06 -0.37,-0.28 -0.37,-0.64 0,-1.22 0.86,-4.02 2.56,-8.39 2.55,-6.69 7.69,-14.38 15.41,-23.08 6.75,-7.66 10.12,-12.37 10.12,-14.13 0,-1.52 -3.1,-2.28 -9.3,-2.28 -4.99,0 -15.5,2.15 -31.55,6.47z"/>
   <path class="fil2" d="M397.65 344.58l5.31 -10.92c0.41,-0.83 0.86,-1.25 1.35,-1.25 0.69,0 3.67,1.81 8.94,5.41 5.27,3.61 7.91,5.72 7.91,6.35 0,2.35 -2.32,7.28 -6.97,14.77 -0.56,0.9 -1.15,1.14 -1.77,0.73 -4.58,-3.4 -9.74,-6.97 -15.5,-10.72 -1.94,4.37 -3.85,8.08 -5.72,11.13 -0.55,0.97 -1.14,1.22 -1.77,0.73 -5.2,-3.95 -10.57,-7.66 -16.12,-11.13 -0.28,-0.21 -0.28,-0.62 0,-1.25l6.66 -13.62c0.41,-0.84 0.87,-1.25 1.35,-1.25 0.62,0 3.15,1.49 7.59,4.47 4.44,2.98 7.36,5.17 8.74,6.55z"/>
   <path class="fil2" d="M247.38 421.69c-0.21,-0.15 -0.21,-0.46 0,-0.92l4.91 -10.08c0.31,-0.61 0.65,-0.92 1.01,-0.92 0.51,0 2.71,1.33 6.61,4 3.89,2.66 5.84,4.23 5.84,4.69 0,1.74 -1.72,5.38 -5.15,10.92 -0.41,0.71 -0.85,0.9 -1.31,0.54 -3.84,-2.93 -7.81,-5.67 -11.91,-8.23z"/>
   <path class="fil2" d="M396.94 239.81l-1.07 0.43c0,5.12 -1.14,11.47 -3.44,19.06 -3.18,10.07 -7.59,18.28 -13.24,24.63 -11.12,12.72 -30.81,27.11 -59.06,43.18 -24.89,14.12 -39.55,21.19 -43.96,21.19 -1.07,0 -13.87,3 -38.41,9 -26.13,6.36 -42.46,10.06 -49,11.12 -7.06,1.06 -11.38,1.59 -12.98,1.59 -0.7,0 -1.14,-0.09 -1.32,-0.26 0,-0.71 4.86,-3.18 14.57,-7.42 3.35,-1.59 23.48,-10.24 60.38,-25.95 25.43,-10.95 46.71,-20.93 63.83,-29.93 48.38,-26.14 72.57,-44.5 72.57,-55.09 0,-3 -0.62,-6 -1.85,-9 -5.3,1.76 -12.81,2.64 -22.52,2.64 -20.83,0 -31.25,-7.06 -31.25,-21.18 0,-10.95 3.53,-20.58 10.59,-28.87 6.54,-7.77 13.34,-11.66 20.4,-11.66 5.65,0 11.65,3.45 18.01,10.33 5.65,6.01 10.68,13.69 15.1,23.04 0.33,0 1.21,-0.23 2.65,-0.71l22.28 -7.76c4.24,-15.36 9.8,-33.9 16.69,-55.62 0.88,-3.53 3.88,-11.91 9,-25.16 0.89,-2.11 1.86,-3.17 2.91,-3.17 1.24,0 2.03,1.76 2.39,5.29 0.17,2.83 1.24,10.42 3.18,22.78 2.11,11.48 3.17,18.98 3.17,22.51 0,20.66 -3.26,35.75 -9.79,45.29 13.24,4.41 24.36,11.03 33.37,19.86 9,8.83 13.5,17.75 13.5,26.76 0,23.48 -8.38,35.22 -25.16,35.22 -10.59,0 -20.66,-5.21 -30.19,-15.63 -10.59,-11.3 -16.86,-25.51 -18.81,-42.64 -0.45,-3.62 -6.21,-8.82 -6.62,-8.74 -4.41,0.53 -10.8,2.57 -15.92,4.87zm52.47 -56.25c0,-5.47 -2.47,-14.48 -7.41,-27.02 -9.89,24.72 -15.27,41.23 -16.16,49.54 15.72,-6.18 23.57,-13.69 23.57,-22.52zm32.32 86.87c-3.36,-4.94 -9.72,-9.79 -19.07,-14.56 -8.48,-4.42 -15.54,-6.8 -21.19,-7.15 3,7.76 7.41,14.47 13.24,20.12 6.53,6.18 13.33,9.27 20.39,9.27 5.83,0 8.74,-1.06 8.74,-3.17 0,-0.89 -0.7,-2.39 -2.11,-4.51zm-109.43 -51.12c-6.17,-8.3 -11.83,-12.44 -16.95,-12.44 -7.76,0 -11.65,2.11 -11.65,6.35 0,4.95 5.38,7.42 16.15,7.42 3.89,0 8.04,-0.44 12.45,-1.33z"/>
   <path class="fil2" d="M142.11 352.3c-20.02,0 -30.04,-13.23 -30.04,-39.68 0,-20.12 4.22,-40.58 12.65,-61.37 1.82,-4.51 3.16,-6.76 4.02,-6.76 0.39,0.1 0.58,0.57 0.58,1.44 0,1.44 -0.43,3.64 -1.29,6.61 -5.85,20.61 -8.77,36.27 -8.77,47 0,8.05 2.39,14.23 7.19,18.55 4.02,3.64 8.96,5.46 14.8,5.46 12.75,0 37.23,-11.79 73.46,-35.36 32.87,-21.37 51.89,-34.55 57.06,-39.53 2.02,-1.92 3.02,-3.74 3.02,-5.46 0,-2.59 -2.49,-5.8 -7.47,-9.63 -6.14,-4.7 -16.06,-10.31 -29.76,-16.82 -14.95,-7 -26.11,-12.99 -33.49,-17.97 -12.94,-8.82 -24.25,-19.84 -33.93,-33.06 -1.24,-1.63 -3.83,-3.59 -7.75,-5.9 -2.21,-1.24 -3.31,-4.11 -3.31,-8.62l0 -17.39c0,-1.63 0.19,-2.68 0.57,-3.16 0.58,-0.67 2.11,-0.39 4.6,0.86l29.61 14.23c1.15,0.58 2.21,1.1 3.17,1.58l0 0c4.79,2.78 6.56,4.89 5.32,6.32 -1.44,1.63 -6.95,2.16 -16.54,1.59 10.93,10.82 25.26,20.41 42.98,28.74 21.66,10.26 34.5,16.82 38.53,19.7 9.48,6.61 14.23,17.97 14.23,34.06 0,3.36 -0.29,6.67 -0.87,9.92 -1.43,8.91 -3.16,15.19 -5.17,18.83 -1.44,2.68 -4.5,6.18 -9.2,10.5 -8.53,7.86 -26.93,21.17 -55.2,39.96 -35.17,23.57 -58.17,35.36 -69,35.36z"/>
   <g>
    <path class="fil2" d="M397.76 141.57c-0.42,1.25 -1.04,2.67 -1.88,4.26 -3.17,2.65 -5.78,4.54 -7.81,5.68 -3.55,2 -7.09,3 -10.64,3 -1.81,0 -3.17,-0.19 -4.09,-0.57l-1.12 -5.59c-2.16,-2.75 -3.24,-5.39 -3.24,-7.93 0,-3.99 1.22,-7.06 3.66,-9.21 2.09,-1.83 4.69,-2.74 7.78,-2.74 4.11,0 7.78,1.35 11.01,4.06 0.54,0.45 0.81,0.75 0.81,0.92 0,0.11 -0.1,0.17 -0.31,0.17 -0.26,0 -0.67,-0.1 -1.23,-0.31 -2.17,-0.78 -4.09,-1.17 -5.77,-1.17 -2.46,0 -4.99,0.36 -7.57,1.1 -2.59,0.74 -4.48,1.64 -5.67,2.7 0,2.65 0.92,5.27 2.77,7.84 2.26,3.14 5.14,4.71 8.65,4.71 1.81,0 4.17,-0.83 7.09,-2.5 2.37,-1.36 4.56,-2.92 6.57,-4.67 0.42,-0.36 0.71,-0.54 0.9,-0.56 0.3,0 0.33,0.27 0.09,0.81z"/>
    <path class="fil2" d="M240.38 166.67c-2.05,0 -3.79,-1.61 -5.2,-4.82 -1.27,-2.82 -1.91,-5.77 -1.91,-8.85 0,-3.69 0.37,-6.64 1.09,-8.84 0.26,-0.79 0.47,-1.18 0.62,-1.18 0.24,0 0.3,0.5 0.17,1.49 -0.3,2.31 -0.45,4.3 -0.45,5.96 0,7.8 1.82,11.7 5.46,11.7 1.47,0 2.81,-1.14 4,-3.41 1.27,-2.73 2.53,-5.46 3.78,-8.18 1.12,-2.26 2.46,-4.16 4.03,-5.71 1.66,-1.64 3.17,-2.46 4.51,-2.46 1.29,0 2.69,1.4 4.2,4.22 1.42,2.63 2.76,4.25 4.03,4.85 1.62,0.76 4.51,1.44 8.38,2.04 4.94,0.75 10.65,1.12 17.13,1.12 10.26,0 20.88,-1.15 31.86,-3.44 11.14,-2.36 20.03,-5.35 26.68,-8.99 0.31,-0.17 0.53,-0.23 0.64,-0.2 0.13,0.06 0.17,0.26 0.11,0.62 -0.11,0.84 -0.16,1.58 -0.16,2.21 0,3.06 1.32,4.59 3.97,4.59 3.66,0 6.33,-1.11 7.81,-3.32 1.08,-1.6 1.62,-4.34 1.62,-8.2 0,-10.88 -0.46,-20.09 -1.4,-27.63 -0.45,-3.64 -1.01,-7.24 -1.71,-10.81 0.38,-2.35 0.73,-3.97 1.07,-4.87 0.15,-0.39 0.28,-0.59 0.39,-0.59 0.13,0 0.26,0.21 0.39,0.62 1.23,3.97 2.23,9.02 3,15.14 0.39,3.12 0.69,7.84 0.89,14.17 0.21,6.4 0.45,10.78 0.73,13.13 0.51,4.14 1.39,6.84 2.66,8.09 1.46,1.44 3,2.54 4.62,3.3l0 5.6c-2.43,-0.99 -4.29,-2.05 -5.6,-3.19 -2.03,-1.71 -3.38,-3.94 -4.03,-6.66 -0.32,4.09 -1.8,7.06 -4.45,8.93 -1.76,1.25 -3.82,1.89 -5.99,1.89 -1.75,0 -3.2,-0.62 -4.34,-1.85 -1.23,-1.32 -1.9,-3.18 -2.01,-5.57 -7.62,3.85 -16.76,6.94 -27.41,9.27 -10.27,2.24 -19.97,3.36 -29.12,3.36 -11.92,0 -20.6,-1.06 -25.73,-3.17 -1.66,-0.69 -3.1,-1.83 -4.31,-3.44 -0.13,-0.17 -0.92,-1.45 -2.38,-3.86 -0.73,-1.23 -1.44,-1.85 -2.13,-1.85 -2.09,0 -4.29,1.77 -6.61,5.32 -0.41,0.64 -1.14,2.28 -2.21,4.94 -1.06,2.66 -1.98,4.59 -2.77,5.78 -1.23,1.83 -2.54,2.75 -3.92,2.75z"/>
    <path class="fil2" d="M351.52 90.11c0,-1.79 -0.28,-3.27 -0.84,-4.42 0,-0.66 0.53,-2.21 1.57,-4.65 0.13,-0.3 0.24,-0.45 0.34,-0.45 0.11,0 0.24,0.16 0.39,0.47 0.3,0.64 0.99,2.39 2.07,5.27 1.14,2.98 1.8,4.82 1.99,5.51 0.15,0.53 0.22,0.92 0.22,1.18 0,0.82 -0.79,0.33 -2.38,-1.48 -0.18,-0.27 -0.28,-0.15 -0.28,0.33 0,0.17 0.41,5.91 1.23,17.22 0.83,11.31 1.24,17.67 1.24,19.09 0,4.35 -0.67,8.18 -1.99,11.48 -0.28,0.67 -0.5,1.16 -0.67,1.46l0 0c-0.26,0.44 -0.42,0.51 -0.48,0.19 -0.07,-0.33 -0.05,-1.04 0.09,-2.13 0.16,-1.49 0.25,-3.22 0.25,-5.2 0,-1.79 -0.46,-9.17 -1.37,-22.12 -0.92,-12.95 -1.38,-20.2 -1.38,-21.75z"/>
    <path class="fil2" d="M280.77 126.64c-0.42,3.51 -0.69,5.26 -0.84,5.26 -0.15,0 -0.43,-1.44 -0.84,-4.31 -0.71,-4.59 -4.11,-9.82 -10.19,-15.68 -7.47,-7.09 -12.92,-12.76 -16.35,-17.02 -0.9,-1.23 -2.09,-2.93 -3.59,-5.09 -0.48,-0.71 -0.99,-1.22 -1.51,-1.52 -0.3,-0.18 -0.45,-0.48 -0.45,-0.89l0 -3.75c0,-0.75 0.13,-1.12 0.39,-1.12 0.19,0 0.53,0.18 1.01,0.56l7.11 5.43c0.53,0.41 0.79,0.73 0.79,0.95 0,0.15 -0.21,0.22 -0.62,0.22 -0.59,0 -1.58,-0.15 -2.97,-0.44 1.16,1.56 3.98,4.62 8.46,9.18 3.25,3.25 6.49,6.47 9.74,9.69 6.61,6.71 9.91,12.46 9.91,17.24 0,0.45 -0.02,0.88 -0.05,1.29zm31.27 3.19c2.27,0 4.46,-0.83 6.55,-2.49 0.18,-0.15 1.04,-1.04 2.57,-2.66 1.42,-1.51 2.19,-2.27 2.3,-2.27 0.33,0 0.39,0.34 0.17,1.01 -0.3,0.88 -0.45,1.44 -0.45,1.71 0,0.63 0.27,1.36 0.81,2.18 0.71,1.08 1.64,1.62 2.8,1.62 3.06,0 5.68,-2.2 7.87,-6.6 0.22,-0.45 0.48,-0.68 0.78,-0.68 0.24,0 0.36,0.21 0.36,0.62 0,0.15 -0.02,0.39 -0.07,0.73 -0.04,0.33 -0.07,0.59 -0.07,0.75 0,1.29 0.4,2.34 1.2,3.14 0.79,0.8 1.8,1.2 3.03,1.2 1.79,0 3.68,-0.69 5.36,-2.07 0.48,-0.41 0.73,-1.91 0.73,-4.48 0,-1.57 -0.41,-7.87 -1.21,-18.9 -0.8,-11.03 -1.2,-17.53 -1.2,-19.51 0,-1.79 -0.28,-3.27 -0.84,-4.42 0,-0.64 0.52,-2.19 1.57,-4.65 0.11,-0.3 0.22,-0.45 0.33,-0.45 0.11,0 0.24,0.17 0.39,0.51 0.3,0.63 0.99,2.38 2.08,5.26 1.11,2.98 1.79,4.81 2.01,5.48 0.11,0.57 0.17,0.96 0.17,1.18 0,0.82 -0.79,0.34 -2.35,-1.45 -0.19,-0.27 -0.28,-0.15 -0.28,0.33 0,0.11 0.35,5.02 1.06,14.73 0.71,9.7 1.06,15.49 1.06,17.35 0,5.42 -0.96,9.67 -2.91,12.77 -1.64,2.61 -3.73,3.92 -5.97,3.92 -2.82,0 -4.83,-1.78 -6.05,-5.34 -0.14,-0.47 -0.31,-0.47 -0.5,0 -1.6,4.12 -3.87,6.18 -6.8,6.18 -2.99,0 -4.76,-1.88 -5.32,-5.65 -0.04,-0.32 -0.09,-0.48 -0.14,-0.48 -0.06,0.04 -0.17,0.2 -0.34,0.48 -0.71,1.17 -1.76,2.38 -3.16,3.61 -2.22,1.98 -4.42,2.97 -6.61,2.97 -2.42,0 -4.11,-0.73 -5.07,-2.19 -0.57,-0.91 -0.9,-2.27 -0.97,-4.06 -0.02,-0.2 -0.12,-0.31 -0.28,-0.31 -0.3,0 -0.6,0.18 -0.9,0.54 -1.87,2.16 -3.07,3.48 -3.61,3.95 -2.37,2.03 -4.95,3.05 -7.56,3.05 -2.8,0 -4.82,-1.09 -6.05,-3.25 -0.82,-1.42 -1.38,-3.72 -1.68,-6.89 -1.04,5.08 -2.05,8.31 -3.02,9.69 -2.2,3.17 -4.74,5.41 -7.62,6.72 -1.11,0.48 -3.04,1.08 -5.76,1.79 -2.73,0.71 -4.72,1.14 -5.99,1.29 -0.53,0.03 -0.79,-0.02 -0.79,-0.17 0,-0.15 0.25,-0.37 0.73,-0.67 2.54,-1.46 6.59,-3.89 12.15,-7.28 6.27,-4.11 9.41,-10.14 9.41,-18.09 0,-10.34 -0.49,-19.35 -1.46,-27.04 -0.26,-2.54 -0.78,-6.14 -1.57,-10.81 0.41,-2.68 0.73,-4.31 0.96,-4.87 0.14,-0.41 0.28,-0.62 0.39,-0.62 0.11,0 0.24,0.21 0.39,0.62 1.23,4 2.22,9.05 2.97,15.18 0.52,4.1 0.89,10.48 1.12,19.14 0.22,7.81 0.52,12.64 0.89,14.51 0.45,2.12 1.14,3.58 2.07,4.36 0.68,0.53 1.63,0.79 2.86,0.79 2.74,0 5.23,-0.72 7.28,-2.16 0.82,-0.58 2.68,-2.31 5.57,-5.21 0.35,-0.35 0.69,-0.53 1.01,-0.53 0.5,0 0.64,0.34 0.42,1.01 -0.23,0.67 -0.34,1.3 -0.34,1.88 0,1.28 0.53,2.28 1.6,2.99 1.01,0.67 2.31,1.01 3.92,1.01z"/>
    <path class="fil2" d="M263.58 124.37c0,-0.45 -0.87,-1.04 -2.61,-1.77 -1.73,-0.72 -3.01,-1.01 -3.83,-0.86 -0.3,0.07 -0.41,0.18 -0.34,0.33 0.3,0.82 0.93,2.18 1.91,4.09 2.53,-0.82 4.16,-1.42 4.87,-1.79zm-21.62 11.08c5.12,-4.03 10.03,-6.83 14.73,-8.4 -0.34,-0.56 -0.82,-1.49 -1.46,-2.8 -0.29,-0.63 -0.44,-1.4 -0.44,-2.29 0,-1.46 0.37,-2.69 1.11,-3.7 0.86,-1.23 2.15,-1.84 3.87,-1.84 1.34,0 3.27,0.87 5.76,2.63 2.65,1.79 3.98,3.28 3.98,4.48 -0.37,1.56 -0.84,3.04 -1.4,4.42 -2.13,0.63 -4.7,1.44 -7.73,2.41 0.12,1.71 -0.05,2.57 -0.5,2.57 -0.34,0 -0.69,-0.65 -1.06,-1.96 -1.38,0.49 -3.31,1.31 -5.77,2.47 -3.58,1.64 -6.29,3.19 -8.12,4.64 -2.8,2.21 -5.64,4.88 -8.51,8.01 -3.29,3.62 -5.19,5.66 -5.71,6.1 -1.79,1.61 -3.55,2.41 -5.26,2.41 -1.87,0 -3.51,-0.85 -4.93,-2.55 -1.42,-1.69 -2.13,-3.79 -2.13,-6.29 0,-3.48 1.42,-7.97 4.26,-13.5 0.29,-0.56 0.54,-0.84 0.72,-0.84 0.08,0 0.12,0.08 0.12,0.23 0,0.56 -0.62,2.49 -1.85,5.79 -1.23,3.3 -1.85,5.93 -1.85,7.87 0,1.45 0.35,2.64 1.06,3.55 0.71,0.92 1.72,1.37 3.03,1.37 1.79,0 3.75,-0.87 5.88,-2.63 1.12,-0.93 3.04,-2.91 5.76,-5.93 2.62,-2.88 4.76,-4.95 6.44,-6.22z"/>
    <path class="fil2" d="M310.31 173.33l1.43 -2.94c0.11,-0.23 0.23,-0.34 0.36,-0.34 0.19,0 0.99,0.48 2.41,1.46 1.42,0.97 2.13,1.54 2.13,1.7 0,0.64 -0.63,1.96 -1.88,3.98 -0.15,0.24 -0.3,0.31 -0.47,0.2 -1.23,-0.92 -2.62,-1.88 -4.17,-2.89 -0.53,1.18 -1.04,2.18 -1.54,3 -0.15,0.26 -0.31,0.32 -0.48,0.19 -1.4,-1.06 -2.85,-2.06 -4.34,-2.99 -0.07,-0.06 -0.07,-0.17 0,-0.34l1.79 -3.67c0.11,-0.22 0.24,-0.33 0.37,-0.33 0.17,0 0.85,0.4 2.04,1.2 1.19,0.8 1.98,1.39 2.35,1.77z"/>
   </g>
   <path class="fil2" d="M292.5 100.26c14.41,-5.35 29.47,-10.93 45.18,-16.74 0.61,-0.23 0.97,-0.31 1.08,-0.23 0.16,0.11 0.12,0.44 -0.11,0.97 -0.69,1.68 -1.24,2.7 -1.66,3.04 -13.01,4.79 -28.25,10.71 -45.72,17.77l0 -2.02c0.34,-0.9 0.75,-1.82 1.23,-2.79z"/>
   <path class="fil2" d="M269.63 94.88c14.41,-5.35 29.47,-10.93 45.18,-16.74 0.61,-0.23 0.97,-0.31 1.08,-0.23 0.16,0.11 0.12,0.44 -0.11,0.97 -0.69,1.68 -1.24,2.7 -1.66,3.04 -13.01,4.79 -28.25,10.71 -45.72,17.77l0 -2.02c0.34,-0.9 0.75,-1.82 1.23,-2.79z"/>
   <path class="fil2" d="M241.09 174.66c8.26,-3.07 16.89,-6.27 25.89,-9.6 0.35,-0.13 0.56,-0.17 0.62,-0.13 0.09,0.07 0.07,0.25 -0.06,0.56 -0.4,0.96 -0.72,1.54 -0.96,1.74 -7.45,2.74 -16.18,6.14 -26.19,10.18l0 -1.16c0.19,-0.51 0.42,-1.04 0.7,-1.59z"/>
   <path class="fil2" d="M318.52 105.63c0,0.7 -0.15,1.44 -0.46,2.2 -0.42,0.97 -0.95,1.46 -1.6,1.46 -1.03,0 -1.77,-0.7 -2.2,-2.12 -0.49,1.81 -1.39,2.72 -2.69,2.72 -0.49,0 -0.91,-0.24 -1.28,-0.73 -0.41,-0.58 -0.62,-1.34 -0.62,-2.29l0 -2.22c0,-0.18 -0.12,-0.31 -0.37,-0.38 -0.24,-0.07 -0.36,-0.26 -0.36,-0.57 0,-0.49 0.2,-0.97 0.62,-1.44 0.38,-0.42 0.67,-0.63 0.87,-0.63 0.25,0 0.38,0.49 0.38,1.47 0,0.51 -0.04,0.93 -0.12,1.28 -0.08,0.34 -0.12,0.64 -0.12,0.89 0,0.53 0.1,1.04 0.32,1.52 0.25,0.57 0.57,0.85 0.95,0.85 0.49,0 0.95,-0.23 1.37,-0.67 0.43,-0.44 0.64,-0.96 0.64,-1.56 0,-0.35 -0.1,-0.93 -0.3,-1.77 -0.2,-0.83 -0.3,-1.34 -0.3,-1.54 0,-0.19 0.09,-0.47 0.27,-0.86 0.19,-0.39 0.32,-0.58 0.41,-0.58 0.17,0 0.38,0.55 0.64,1.65 0.26,1.11 0.39,1.92 0.39,2.45 0,1.52 0.59,2.28 1.77,2.28 0.51,0 0.82,-0.26 0.95,-0.76 -1.01,-1.78 -1.52,-3.13 -1.52,-4.08 0,-0.54 0.13,-1.02 0.41,-1.44 0.18,-0.28 0.3,-0.44 0.38,-0.46 0.07,0 0.12,0.18 0.16,0.55 0.05,0.5 0.14,0.92 0.24,1.25 0.02,0.03 0.27,0.66 0.74,1.87 0.29,0.72 0.43,1.28 0.43,1.66z"/>
   <path class="fil2" d="M242.43 111.45c0.29,-0.92 0.35,-1.84 0.19,-2.77 -0.19,-1.01 -0.65,-1.52 -1.38,-1.52 -0.35,0 -0.83,0.16 -1.43,0.5 -0.6,0.33 -0.91,0.66 -0.91,0.98 0,0.73 1.18,1.66 3.53,2.81zm-1.81 4.1c-2.96,-1.53 -4.43,-3.13 -4.43,-4.82 0,-2.03 0.93,-3.89 2.81,-5.58 1.87,-1.68 3.43,-2.3 4.67,-1.85 1.05,0.38 1.57,1.51 1.57,3.38 0,1.68 -0.35,3.58 -1.04,5.67 1.49,0.86 2.43,1.59 2.81,2.2 0,0.79 -0.67,2.14 -2,4.05 -0.39,-0.6 -1.29,-1.34 -2.72,-2.19 -1.65,2.29 -3.75,4.37 -6.3,6.24 -2.89,2.13 -5.54,3.74 -7.96,4.82 -0.51,0.25 -3.3,1.32 -8.39,3.19 -0.79,0.29 -1.32,0.43 -1.57,0.43 -0.13,0 -0.19,-0.03 -0.19,-0.09 0,-0.19 0.44,-0.57 1.33,-1.15 3.75,-2.22 7.52,-4.46 11.3,-6.72 4.51,-2.73 7.88,-5.26 10.11,-7.58z"/>
   <path class="fil2" d="M373.67 122.48c1.37,0 2.84,-0.23 4.43,-0.7 0.44,-0.12 0.66,-0.16 0.66,-0.1 0,0.05 -0.16,0.23 -0.5,0.51 -1.37,1.25 -3.15,1.87 -5.31,1.87 -0.68,0 -1.23,-0.18 -1.66,-0.53 -0.42,-0.35 -0.64,-0.8 -0.64,-1.34 0,-1.43 0.62,-2.93 1.84,-4.5 -1.07,-0.32 -1.61,-0.89 -1.61,-1.7 0,-0.69 0.43,-1.52 1.29,-2.48 0.86,-0.97 1.56,-1.45 2.08,-1.45 0.14,0 0.28,0.11 0.43,0.33 0.14,0.22 0.21,0.45 0.21,0.7 0,0.11 -0.14,0.37 -0.43,0.79 -0.29,0.41 -0.45,0.58 -0.48,0.5 -0.11,-0.43 -0.35,-0.65 -0.72,-0.65 -0.19,0 -0.43,0.17 -0.71,0.5 -0.29,0.33 -0.43,0.61 -0.43,0.83 0.35,0.56 0.93,0.85 1.76,0.85 0.28,0 0.71,-0.26 1.3,-0.77 0.35,-0.32 0.7,-0.64 1.06,-0.97 0.12,-0.1 0.18,0 0.18,0.29 0,0.63 -0.23,1.27 -0.7,1.92 -1.82,1.23 -3.17,2.64 -4.05,4.24 -0.17,0.31 -0.25,0.57 -0.25,0.81 0,0.7 0.75,1.05 2.25,1.05z"/>
   <path class="fil2" d="M420 144.97c0.28,-0.92 0.35,-1.84 0.19,-2.77 -0.19,-1.01 -0.65,-1.52 -1.38,-1.52 -0.35,0 -0.83,0.17 -1.43,0.5 -0.61,0.33 -0.91,0.66 -0.91,0.98 0,0.73 1.18,1.67 3.53,2.81zm-1.81 4.1c-2.96,-1.53 -4.44,-3.13 -4.44,-4.82 0,-2.03 0.94,-3.89 2.82,-5.58 1.87,-1.68 3.43,-2.3 4.67,-1.85 1.05,0.38 1.57,1.51 1.57,3.38 0,1.69 -0.35,3.58 -1.05,5.68 1.5,0.85 2.44,1.59 2.82,2.19 0,0.79 -0.67,2.14 -2.01,4.05 -0.38,-0.6 -1.28,-1.33 -2.71,-2.19 -1.66,2.29 -3.75,4.37 -6.3,6.24 -2.89,2.13 -5.54,3.74 -7.96,4.82 -0.51,0.25 -3.31,1.32 -8.39,3.19 -0.8,0.29 -1.32,0.43 -1.57,0.43 -0.13,0 -0.2,-0.03 -0.2,-0.09 0,-0.19 0.45,-0.57 1.34,-1.15 3.75,-2.22 7.52,-4.46 11.3,-6.72 4.51,-2.73 7.88,-5.26 10.11,-7.58z"/>
   <path class="fil2" d="M320.86 199.69c0,0.82 -1.05,2.7 -3.14,5.62 -2.35,3.27 -4.59,5.66 -6.71,7.19 -1.37,0.95 -5.89,2.44 -13.57,4.47 -1.11,0.28 -1.77,0.42 -1.98,0.41l0 -0.11c0.18,-0.17 0.63,-0.54 1.36,-1.11 0.98,-0.76 3.71,-2.32 8.19,-4.66 4.28,-2.29 6.79,-3.75 7.52,-4.38 0.13,-0.13 0.19,-0.26 0.19,-0.38 0,-1.02 -3.81,-1.53 -11.43,-1.53 -0.03,0 -1.49,0.06 -4.38,0.19 -0.62,0.03 -1.1,0.03 -1.45,-0.01l0 -1.66 2.6 -4.37c0.79,-1.34 2.24,-2.18 4.33,-2.53 0.76,-0.12 2.52,-0.19 5.28,-0.19 8.8,0 13.19,1.02 13.19,3.05z"/>
   <path class="fil2" d="M414.88 289.11c0.22,-0.45 0.45,-0.78 0.67,-1 0.22,-0.15 0.33,-0.11 0.33,0.11 0.08,0.22 0.08,0.59 0,1.11 -2,10.9 -5.26,16.35 -9.78,16.35 -4.82,0 -7.23,-4.01 -7.23,-12.01 0,-9.86 2.85,-20.2 8.56,-31.02 1.41,-2.67 2.26,-4.04 2.56,-4.12 0.07,0 0.11,0.04 0.11,0.11 0,0.52 -0.41,2.04 -1.22,4.56 -3.71,11.27 -5.56,19.16 -5.56,23.69 0,6.15 1.66,9.22 5,9.22 1.93,0 4.12,-2.33 6.56,-7z"/>
   <path class="fil2" d="M352.67 429.7c18.47,-6.86 37.78,-14.01 57.93,-21.46 0.78,-0.3 1.24,-0.39 1.39,-0.3 0.2,0.15 0.15,0.57 -0.15,1.25 -0.88,2.16 -1.59,3.46 -2.13,3.9 -16.68,6.14 -36.22,13.74 -58.62,22.79l0 -2.6c0.43,-1.14 0.95,-2.33 1.58,-3.58z"/>
   <path class="fil2" d="M341.23 523.59c-0.38,0.92 -0.72,1.38 -1.03,1.38 -0.38,0 -0.44,-0.59 -0.17,-1.78 0.23,-1.03 0.34,-2.37 0.34,-4.01 0,-5.35 -3.01,-10.69 -9.05,-16 -0.39,-0.34 -0.44,-0.76 -0.18,-1.26l1.73 -3.04c0.15,-0.26 0.4,-0.26 0.74,0 5.92,4.4 8.89,10.4 8.89,18 0,2.38 -0.42,4.61 -1.27,6.71z"/>
   <path class="fil2" d="M477.54 195.33c2.96,0 5.63,1.76 7.98,5.28 2.36,3.52 4.01,8.12 4.96,13.78 0.11,0.58 0.16,0.93 0.16,1.03 0.11,0.16 0.19,0.16 0.24,0 0.06,-0.1 0.19,-0.45 0.4,-1.03 0.48,-3.39 1.64,-8.45 3.49,-15.17 2.02,-4.82 4.21,-7.23 6.59,-7.23 1.22,0 2.44,0.82 3.66,2.47 1.06,1.43 1.59,2.59 1.59,3.49 0,0.69 -0.19,1.59 -0.56,2.7 -0.48,1.48 -1.03,2.22 -1.66,2.22 -0.27,0 -0.85,-0.56 -1.75,-1.7 -0.9,-1.14 -1.83,-1.71 -2.78,-1.71 -2.12,0 -4.08,5 -5.88,15.01 -0.79,4.34 -1.67,7.41 -2.62,9.22 -0.69,1.21 -1.27,1.82 -1.75,1.82 -0.42,0 -0.63,-0.55 -0.63,-1.67 0,-1.74 -1.01,-5.14 -3.02,-10.2 -2.01,-5.06 -3.44,-7.59 -4.29,-7.59 -0.58,0 -0.95,0.18 -1.11,0.56 -0.16,0.37 -0.64,0.55 -1.43,0.55 -0.9,0 -2.08,-0.66 -3.54,-1.98 -1.45,-1.33 -2.18,-2.38 -2.18,-3.18 0,-0.37 0.61,-1.58 1.83,-3.61 1.21,-2.04 1.98,-3.06 2.3,-3.06z"/>
   <path class="fil2" d="M482.73 179.05c-0.38,0.91 -0.72,1.37 -1.03,1.37 -0.38,0 -0.44,-0.59 -0.17,-1.77 0.23,-1.04 0.34,-2.38 0.34,-4.02 0,-5.35 -3.02,-10.68 -9.06,-15.99 -0.38,-0.35 -0.44,-0.77 -0.17,-1.26l1.72 -3.04c0.15,-0.27 0.4,-0.27 0.75,0 5.92,4.39 8.88,10.39 8.88,18 0,2.37 -0.42,4.61 -1.26,6.71z"/>
   <path class="fil2" d="M298.62 254.58c2.96,0 5.63,1.76 7.98,5.28 2.36,3.52 4.01,8.11 4.96,13.78 0.11,0.58 0.16,0.93 0.16,1.03 0.11,0.16 0.19,0.16 0.24,0 0.06,-0.1 0.19,-0.45 0.4,-1.03 0.48,-3.39 1.64,-8.45 3.49,-15.17 2.02,-4.82 4.21,-7.23 6.59,-7.23 1.22,0 2.44,0.82 3.66,2.46 1.06,1.43 1.59,2.6 1.59,3.5 0,0.68 -0.19,1.59 -0.56,2.7 -0.48,1.48 -1.03,2.22 -1.67,2.22 -0.26,0 -0.84,-0.57 -1.74,-1.71 -0.9,-1.13 -1.83,-1.7 -2.78,-1.7 -2.12,0 -4.08,5 -5.88,15.01 -0.79,4.34 -1.67,7.41 -2.62,9.21 -0.69,1.22 -1.27,1.83 -1.75,1.83 -0.42,0 -0.64,-0.56 -0.64,-1.67 0,-1.75 -1,-5.15 -3.01,-10.21 -2.01,-5.05 -3.44,-7.58 -4.29,-7.58 -0.58,0 -0.95,0.18 -1.11,0.55 -0.16,0.37 -0.64,0.56 -1.43,0.56 -0.9,0 -2.08,-0.66 -3.54,-1.98 -1.45,-1.33 -2.18,-2.39 -2.18,-3.18 0,-0.37 0.61,-1.58 1.82,-3.62 1.22,-2.03 1.99,-3.05 2.31,-3.05z"/>
   <path class="fil2" d="M214.7 104.09c0,0.82 -1.05,2.7 -3.14,5.62 -2.35,3.27 -4.59,5.66 -6.71,7.19 -1.37,0.95 -5.89,2.44 -13.57,4.47 -1.11,0.28 -1.77,0.42 -1.98,0.41l0 -0.11c0.18,-0.17 0.63,-0.54 1.36,-1.11 0.98,-0.76 3.71,-2.32 8.19,-4.66 4.28,-2.29 6.79,-3.75 7.52,-4.38 0.13,-0.13 0.19,-0.26 0.19,-0.38 0,-1.02 -3.81,-1.53 -11.43,-1.53 -0.03,0 -1.49,0.06 -4.37,0.19 -0.63,0.03 -1.11,0.03 -1.46,-0.01l0 -1.66 2.6 -4.37c0.79,-1.34 2.24,-2.18 4.33,-2.53 0.76,-0.12 2.52,-0.19 5.28,-0.19 8.8,0 13.19,1.02 13.19,3.05z"/>
   <path class="fil2" d="M409.94 120.53c-0.25,1.16 -0.55,1.78 -0.91,1.85 -0.45,0.08 -0.65,-0.6 -0.6,-2.05 0.04,-1.27 -0.12,-2.87 -0.49,-4.8 -1.19,-6.29 -5.93,-11.88 -14.21,-16.78 -0.53,-0.32 -0.69,-0.8 -0.48,-1.45l1.34 -3.95c0.12,-0.35 0.41,-0.41 0.88,-0.17 7.94,3.85 12.76,10.24 14.46,19.18 0.52,2.79 0.53,5.51 0.01,8.17z"/>
   <path class="fil2" d="M270.23 315.72c-0.38,0.92 -0.73,1.38 -1.03,1.38 -0.38,0 -0.44,-0.6 -0.17,-1.78 0.22,-1.03 0.34,-2.37 0.34,-4.02 0,-5.35 -3.02,-10.68 -9.06,-15.99 -0.38,-0.35 -0.44,-0.76 -0.17,-1.26l1.72 -3.04c0.15,-0.27 0.4,-0.27 0.74,0 5.93,4.4 8.89,10.4 8.89,18 0,2.37 -0.42,4.61 -1.26,6.71z"/>
  </g>
 </g>
</svg>
