<?xml version="1.0" encoding="UTF-8"?>
<!DOCTYPE svg PUBLIC "-//W3C//DTD SVG 1.1//EN" "http://www.w3.org/Graphics/SVG/1.1/DTD/svg11.dtd">
<svg xmlns="http://www.w3.org/2000/svg" xml:space="preserve" width="600px" height="600px" version="1.1" style="shape-rendering:geometricPrecision; text-rendering:geometricPrecision; image-rendering:optimizeQuality; fill-rule:evenodd; clip-rule:evenodd"
viewBox="0 0 600 600"
 xmlns:xlink="http://www.w3.org/1999/xlink">
 <defs>
  <style type="text/css">
   <![CDATA[
    .fil1 {fill:#F3F3EB}
    .fil0 {fill:#FF0066}
    .fil3 {fill:white}
    .fil2 {fill:white;fill-rule:nonzero}
   ]]>
  </style>
 </defs>
 <g id="Layer_x0020_1">
  <metadata id="Wiki-Layer"/>
  <g id="_1323645178368">
   <polygon class="fil0" points="300,0 314.89,15.78 331.36,1.64 344.52,18.9 362.37,6.56 373.66,25.09 392.7,14.68 402,34.29 422.02,25.94 429.21,46.41 450,40.19 455.01,61.31 476.34,57.29 479.11,78.82 500.74,77.06 501.25,98.75 522.94,99.26 521.18,120.89 542.71,123.66 538.69,144.99 559.81,150 553.59,170.79 574.06,177.98 565.71,198 585.32,207.3 574.91,226.34 593.44,237.63 581.1,255.48 598.36,268.64 584.22,285.11 600,300 584.22,314.89 598.36,331.36 581.1,344.52 593.44,362.37 574.91,373.66 585.32,392.7 565.71,402 574.06,422.02 553.59,429.21 559.81,450 538.69,455.01 542.71,476.34 521.18,479.11 522.94,500.74 501.25,501.25 500.74,522.94 479.11,521.18 476.34,542.71 455.01,538.69 450,559.81 429.21,553.59 422.02,574.06 402,565.71 392.7,585.32 373.66,574.91 362.37,593.44 344.52,581.1 331.36,598.36 314.89,584.22 300,600 285.11,584.22 268.64,598.36 255.48,581.1 237.63,593.44 226.34,574.91 207.3,585.32 198,565.71 177.98,574.06 170.79,553.59 150,559.81 144.99,538.69 123.66,542.71 120.89,521.18 99.26,522.94 98.75,501.25 77.06,500.74 78.82,479.11 57.29,476.34 61.31,455.01 40.19,450 46.41,429.21 25.94,422.02 34.29,402 14.68,392.7 25.09,373.66 6.56,362.37 18.9,344.52 1.64,331.36 15.78,314.89 0,300 15.78,285.11 1.64,268.64 18.9,255.48 6.56,237.63 25.09,226.34 14.68,207.3 34.29,198 25.94,177.98 46.41,170.79 40.19,150 61.31,144.99 57.29,123.66 78.82,120.89 77.06,99.26 98.75,98.75 99.26,77.06 120.89,78.82 123.66,57.29 144.99,61.31 150,40.19 170.79,46.41 177.98,25.94 198,34.29 207.3,14.68 226.34,25.09 237.63,6.56 255.48,18.9 268.64,1.64 285.11,15.78 "/>
   <path class="fil1" d="M36.5 300c0,-145.53 117.97,-263.5 263.5,-263.5 145.53,0 263.5,117.97 263.5,263.5 0,145.53 -117.97,263.5 -263.5,263.5 -145.53,0 -263.5,-117.97 -263.5,-263.5zm263.5 -271c-149.67,0 -271,121.33 -271,271 0,149.67 121.33,271 271,271 149.67,0 271,-121.33 271,-271 0,-149.67 -121.33,-271 -271,-271z"/>
   <path class="fil1" d="M300 539.65c-132.36,0 -239.65,-107.29 -239.65,-239.65 0,-132.36 107.29,-239.65 239.65,-239.65 132.36,0 239.65,107.29 239.65,239.65 0,132.36 -107.29,239.65 -239.65,239.65zm0 -495.55c-141.33,0 -255.9,114.57 -255.9,255.9 0,141.33 114.57,255.9 255.9,255.9 141.33,0 255.9,-114.57 255.9,-255.9 0,-141.33 -114.57,-255.9 -255.9,-255.9z"/>
   <path class="fil2" d="M449.96 398.85c-1.67,2.82 -2.8,4.41 -3.41,4.74 -10.09,1.9 -65.91,12.11 -80.57,15.64 -4.48,1.53 -6.82,2.89 -7.01,4.1 -0.19,1.2 2.49,3.22 8.04,6.05 0.51,0.26 0.6,1.47 0.27,3.64 -0.29,1.87 -0.55,2.95 -0.78,3.26 -0.24,0.3 -0.9,0.24 -2.01,-0.17 -7.07,-2.51 -10.32,-5.63 -9.74,-9.36 0.32,-2.11 1.75,-4.67 4.28,-7.67 2.52,-3 5.01,-5.02 7.45,-6.06 2.18,-0.96 8.99,-2.53 20.42,-4.71 6.09,-1.15 55.62,-9.78 61.71,-10.87 1.15,-0.26 1.8,-0.31 1.97,-0.16 0.09,0.2 -0.12,0.72 -0.62,1.57z"/>
   <path class="fil2" d="M309.49 148.57c-1,0.14 -1.58,0.2 -1.72,0.18 -0.03,-0.01 -0.05,-0.02 -0.05,-0.04 0.01,-0.05 0.41,-0.24 1.19,-0.57 0.74,-0.27 1.9,-0.85 3.48,-1.73 0.82,-0.59 1.99,-1.56 3.51,-2.89 1.05,-0.92 2.14,-1.69 3.26,-2.29 1.38,-0.73 2.7,-1 3.97,-0.82 0.29,0.04 0.68,0.19 1.14,0.42 0.47,0.24 0.88,0.39 1.23,0.44 0.65,0.09 1.21,-0.08 1.69,-0.51 0.38,-0.44 0.77,-0.89 1.16,-1.33 0.28,-0.32 0.5,-0.46 0.68,-0.44 0.09,0.02 0.12,0.1 0.1,0.26 -0.04,0.23 -0.2,0.59 -0.48,1.08 -0.15,0.25 0.45,0.47 1.78,0.67 0.14,0.02 0.22,-0.01 0.25,-0.07 0.02,-0.04 -0.01,-0.38 -0.09,-1.04 -0.03,-0.18 0.09,-0.42 0.35,-0.73 0.44,-0.54 0.69,-0.77 0.75,-0.69 0.26,0.36 0.35,0.87 0.26,1.51 -0.08,0.55 -0.3,1.16 -0.66,1.84 -0.36,0.68 -0.67,1.09 -0.92,1.21 -0.65,0.32 -1.57,0.08 -2.74,-0.72 -1.21,0.95 -2.33,1.35 -3.35,1.2 -0.29,-0.05 -0.66,-0.18 -1.11,-0.41 -0.44,-0.22 -0.77,-0.35 -1,-0.39 -1.73,-0.25 -3.62,0.32 -5.65,1.7 -1.48,1.09 -2.98,2.18 -4.48,3.27 -0.88,0.48 -1.73,0.78 -2.55,0.89z"/>
   <path class="fil2" d="M151.59 447.79c0.42,-2.6 1.34,-5.74 2.76,-9.4 1.1,-2.87 1.66,-5.72 1.66,-8.55 0,-5.38 -2.49,-10.57 -7.46,-15.53 -0.38,-0.39 -0.44,-0.8 -0.17,-1.26l1.72 -3.04c0.16,-0.27 0.4,-0.27 0.75,0 4.97,4.09 7.45,9.95 7.45,17.6 0,3.67 -0.8,7.55 -2.41,11.66 -1.6,4.11 -2.4,6.95 -2.4,8.52 0,3.17 0.86,4.76 2.58,4.76 0.99,0 2.12,-1.21 3.38,-3.62 0.11,-0.22 0.23,-0.4 0.34,-0.51 0.12,-0.08 0.17,-0.06 0.17,0.06 0.04,0.11 0.04,0.3 0,0.57 -1.03,5.62 -2.71,8.43 -5.04,8.43 -2.37,0 -3.56,-2.3 -3.56,-6.88 0,-0.92 0.08,-1.86 0.23,-2.81z"/>
   <path class="fil2" d="M115.23 419.67c-0.38,0.92 -0.72,1.38 -1.03,1.38 -0.38,0 -0.44,-0.6 -0.17,-1.78 0.23,-1.03 0.34,-2.37 0.34,-4.01 0,-5.35 -3.02,-10.69 -9.06,-16 -0.38,-0.34 -0.43,-0.76 -0.17,-1.26l1.72 -3.04c0.16,-0.27 0.4,-0.27 0.75,0 5.92,4.4 8.89,10.4 8.89,18 0,2.37 -0.43,4.61 -1.27,6.71z"/>
   <path class="fil2" d="M270.04 82.94c0,0.34 -0.43,1.1 -1.28,2.29 -0.96,1.34 -1.87,2.31 -2.74,2.94 -0.55,0.38 -2.4,0.99 -5.53,1.82 -0.46,0.12 -0.72,0.17 -0.81,0.17l0 -0.04c0.07,-0.08 0.26,-0.23 0.55,-0.46 0.41,-0.31 1.52,-0.94 3.34,-1.9 1.75,-0.93 2.78,-1.53 3.07,-1.79 0.06,-0.05 0.08,-0.1 0.08,-0.15 0,-0.42 -1.55,-0.63 -4.66,-0.63 -0.01,0 -0.61,0.03 -1.79,0.08 -0.25,0.01 -0.45,0.01 -0.59,0l0 -0.68 1.06 -1.78c0.32,-0.55 0.91,-0.89 1.77,-1.03 0.31,-0.06 1.03,-0.08 2.15,-0.08 3.59,0 5.38,0.41 5.38,1.24z"/>
   <path class="fil2" d="M210.2 433.59c0,0.5 -0.13,1.15 -0.4,1.95 -0.34,1.07 -0.74,1.61 -1.2,1.61 -0.19,0 -0.61,-0.41 -1.26,-1.23 -0.65,-0.83 -1.32,-1.24 -2.01,-1.24 -1.53,0 -2.94,3.61 -4.24,10.84 -0.58,3.13 -1.21,5.35 -1.89,6.65 -0.5,0.88 -0.92,1.32 -1.26,1.32 -0.31,0 -0.46,-0.4 -0.46,-1.21 0,-1.26 -0.73,-3.71 -2.18,-7.37 -1.46,-3.64 -2.49,-5.47 -3.1,-5.47 -0.42,0 -0.69,0.13 -0.8,0.4 -0.12,0.27 -0.46,0.4 -1.03,0.4 -0.65,0 -1.5,-0.48 -2.55,-1.43 -1.06,-0.96 -1.58,-1.72 -1.58,-2.29 0,-0.27 0.44,-1.14 1.32,-2.61 0.88,-1.47 1.43,-2.21 1.66,-2.21 2.14,0 4.06,1.27 5.76,3.81 1.7,2.55 2.9,5.86 3.58,9.95 0.08,0.42 0.12,0.67 0.12,0.74 0.08,0.12 0.13,0.12 0.17,0 0.04,-0.07 0.14,-0.32 0.29,-0.74 0.34,-2.45 1.18,-6.1 2.52,-10.95 1.45,-3.48 3.04,-5.22 4.76,-5.22 0.88,0 1.76,0.6 2.64,1.78 0.76,1.03 1.14,1.87 1.14,2.52zm-12.38 21.67c-1.34,3.02 -3.94,5.97 -7.8,8.83 -3.47,2.56 -6.66,4.49 -9.57,5.79 -0.61,0.31 -3.98,1.59 -10.09,3.84 -0.96,0.35 -1.61,0.52 -1.95,0.52 -0.15,0 -0.23,-0.04 -0.23,-0.11 0,-0.23 0.55,-0.69 1.66,-1.38 5.05,-2.83 12.2,-7.28 21.44,-13.36 2.33,-1.8 4.07,-3.4 5.22,-4.81 1.49,-1.8 2.33,-2.7 2.53,-2.7 0.03,0 0.05,0.04 0.05,0.11 0,0.27 -0.42,1.36 -1.26,3.27z"/>
   <path class="fil2" d="M278.04 503.13c-0.65,2.76 -2.59,4.83 -5.79,6.25 -3.21,1.41 -6.56,1.71 -10.05,0.87 -0.64,-0.15 -1.41,-0.47 -2.34,-0.97 -0.92,-0.49 -1.62,-0.8 -2.11,-0.91 -3.67,-0.88 -7.84,0.01 -12.48,2.67 -3.42,2.13 -6.85,4.24 -10.29,6.33 -1.98,0.86 -3.86,1.33 -5.65,1.42 -2.19,0.1 -3.43,0.12 -3.72,0.05 -0.08,-0.02 -0.11,-0.05 -0.1,-0.08 0.02,-0.11 0.91,-0.45 2.66,-1.02 1.63,-0.43 4.23,-1.44 7.79,-3.03 1.83,-1.09 4.51,-2.93 8.04,-5.5 2.47,-1.81 4.98,-3.26 7.52,-4.34 2.92,-1.23 5.46,-1.74 7.62,-1.54 -0.27,-0.02 1.02,0.31 3.88,0.99 2.08,-1.27 4.16,-2.52 6.26,-3.75 2.7,-1.44 4.78,-1.98 6.23,-1.64 2.23,0.54 3.07,1.94 2.53,4.2zm-2.21 1.13c-0.14,-1.06 -1.07,-1.79 -2.78,-2.2 -1.71,-0.41 -4.65,0.64 -8.82,3.14 0.35,0.16 0.75,0.29 1.2,0.4 1.78,0.43 3.84,0.45 6.17,0.06 2.16,-0.31 3.57,-0.78 4.23,-1.4z"/>
   <path class="fil2" d="M418.54 497.88c-3.82,3.44 -8.73,5.16 -14.73,5.16 -1.88,0 -3.41,-0.49 -4.59,-1.46 -1.18,-0.98 -1.77,-2.21 -1.77,-3.7 0,-2.64 1.1,-5.27 3.32,-7.91 2.18,-2.33 4.38,-4.66 6.59,-6.99 0.46,-0.5 0.33,-0.88 -0.4,-1.15 -1.64,-0.57 -3.4,-0.86 -5.27,-0.86 -1.04,0 -2.16,0.29 -3.39,0.86 -0.26,0.11 -0.44,0.13 -0.51,0.06 -0.08,-0.08 -0.06,-0.27 0.06,-0.58 0.76,-1.83 1.54,-3.05 2.35,-3.67 0.95,-0.76 2.42,-1.14 4.41,-1.14 4.47,0 6.71,1.09 6.71,3.26 0,1.65 -1.43,3.98 -4.3,7 -2.03,2.06 -4.05,4.15 -6.08,6.25 -0.88,1.15 -1.32,2.12 -1.32,2.92 0,1.84 2.07,2.76 6.19,2.76 3.79,0 7.88,-0.66 12.27,-1.95 1.23,-0.35 1.84,-0.44 1.84,-0.29 0,0.15 -0.46,0.63 -1.38,1.43z"/>
   <path class="fil2" d="M246.42 451.26c-6.38,0.76 -13.51,4.55 -19.89,11.57 -4.86,6.1 -9.72,12.2 -14.58,18.3 -4.58,5.4 -8.46,9.25 -11.64,11.54 -2.16,1.58 -6.31,3.81 -12.44,6.68 -5.3,2.47 -8.71,3.8 -10.23,3.98 -0.51,0.06 -0.78,-0.02 -0.8,-0.23 -0.07,-0.59 1.37,-2.05 4.33,-4.39 4.98,-3.9 7.6,-5.98 7.86,-6.23 4.22,-3.45 7.84,-6.75 10.84,-9.91 3.01,-3.15 7.89,-9.07 14.65,-17.75 6.01,-7.64 10.76,-13.1 14.27,-16.39 5.29,-4.9 11.25,-7.45 16.33,-8.05 3.95,-0.48 8.05,0.27 12.29,2.22 3.23,1.71 6.44,3.43 9.67,5.14 5.37,-11.39 9.16,-18.76 11.37,-22.11 5.83,-9.01 12,-13.91 18.49,-14.68 5.66,-0.68 11.07,1.04 16.23,5.17 4.36,3.49 6.71,6.69 7.06,9.59 0.12,1.05 -0.19,3.26 -0.92,6.62 -0.82,3.63 -1.68,6.14 -2.58,7.53 -2.01,3.15 -5.79,6.64 -11.33,10.47 -7.98,5.51 -16.45,8.81 -25.41,9.88 -3.37,0.4 -7.6,-0.05 -12.69,-1.35 -0.64,2.28 -0.85,4.38 -0.62,6.31 0.47,3.95 2.74,6.6 6.8,7.95 15.83,5.36 36.09,6.28 61,3.3 17.01,-2.04 39.06,-7.91 66.15,-17.63 18.23,-6.56 32.66,-12.37 43.27,-17.43l-24.56 -3.73c-2.28,-0.32 -3.78,-0.42 -4.5,-0.29 -0.58,0.1 -1.06,0.48 -1.46,1.14 -0.4,0.65 -1.23,0.98 -2.48,0.98 -4.23,0.33 -8.87,0.59 -13.92,0.79 -1.2,-0.15 -1.83,-0.5 -1.89,-1.05 -0.04,-0.29 0.09,-0.8 0.37,-1.53l2.69 -7.44c0.39,-1.08 1.01,-1.72 1.87,-1.94 6.13,-1.61 11.06,-2.53 14.79,-2.76 14.49,2.17 25.19,3.63 32.08,4.39 15.09,1.61 27.87,2.18 38.34,1.7 2.01,-0.09 3.04,0.09 3.1,0.57 0.01,0.14 -0.03,0.37 -0.14,0.68l-2.97 7.97c-0.3,0.84 -0.74,1.3 -1.32,1.37 0.04,-0.01 -1.45,0.1 -4.46,0.31 -3.01,0.21 -5.82,0.47 -8.43,0.79 -9.79,1.17 -17.78,3.12 -23.97,5.84 -50.2,22.2 -87.49,34.75 -111.86,37.67 -14.25,1.7 -26.57,2.13 -36.93,1.27 -7.24,-0.57 -14.98,-1.75 -23.47,-4.08 -6.31,-1.75 -9.95,-6.65 -10.92,-14.7 -0.45,-3.81 -0.23,-7.62 0.68,-11.45 -4.63,-2.64 -7.46,-4.2 -8.51,-4.66 -3.58,-1.64 -6.78,-2.28 -9.61,-1.94zm70.4 -19.85c-0.15,-1.27 -2.4,-3.19 -6.75,-5.76 -5.15,-3.06 -10.03,-4.31 -14.63,-3.76 -9.43,1.13 -17.8,10.07 -25.1,26.84 3.91,0.74 7.52,0.92 10.82,0.52 5.66,-0.68 11.54,-2.43 17.64,-5.25 4.77,-2.23 9.11,-4.81 13.03,-7.74 3.41,-2.54 5.08,-4.16 4.99,-4.85z"/>
   <path class="fil2" d="M464.29 380.2c-19.58,5.29 -43.57,9.85 -71.96,13.68 -38.61,5.29 -77.37,7.94 -116.28,7.94 -17.94,0 -43.32,-0.98 -76.15,-2.92 -35.21,-2.13 -55.21,-4.14 -60.01,-6.02 -14.47,-5.66 -29.86,-12.68 -46.15,-21.07 -7.05,-3.65 -10.58,-5.92 -10.58,-6.84 0,-0.42 0.58,-0.64 1.73,-0.64 1.89,0 5.5,0.58 10.85,1.74 6.63,1.46 13.26,2.91 19.89,4.37 12.7,2.5 25.78,4.5 39.21,6.02 22.38,2.5 37.82,4.05 46.33,4.65 22.8,1.65 50.28,2.47 82.45,2.47 54.72,0 105.64,-4.35 152.76,-13.05 11,-2 23.71,-5.04 38.12,-9.12 11.43,-3.22 19.34,-4.95 23.71,-5.19 1.1,-0.06 2.13,-0.09 3.1,-0.09 9.25,0 13.87,2.06 13.87,6.2 0,8.2 -5.23,18.81 -15.69,31.83 -4.5,5.1 -10.25,12.34 -17.24,21.7 -2.49,4.26 -4.1,6.39 -4.83,6.39 -0.25,-0.06 -0.37,-0.28 -0.37,-0.64 0,-1.22 0.86,-4.02 2.56,-8.39 2.55,-6.69 7.69,-14.38 15.41,-23.08 6.75,-7.66 10.12,-12.37 10.12,-14.13 0,-1.52 -3.1,-2.28 -9.3,-2.28 -4.99,0 -15.5,2.15 -31.55,6.47z"/>
   <path class="fil2" d="M247.38 421.69c-0.21,-0.15 -0.21,-0.46 0,-0.92l4.91 -10.08c0.31,-0.61 0.65,-0.92 1.01,-0.92 0.51,0 2.71,1.33 6.61,4 3.89,2.66 5.84,4.23 5.84,4.69 0,1.74 -1.72,5.38 -5.15,10.92 -0.41,0.71 -0.85,0.9 -1.31,0.54 -3.84,-2.93 -7.81,-5.67 -11.91,-8.23z"/>
   <path class="fil2" d="M397.76 141.57c-0.42,1.25 -1.04,2.67 -1.88,4.26 -3.17,2.65 -5.78,4.54 -7.81,5.68 -3.55,2 -7.09,3 -10.64,3 -1.81,0 -3.17,-0.19 -4.09,-0.57l-1.12 -5.59c-2.16,-2.75 -3.24,-5.39 -3.24,-7.93 0,-3.99 1.22,-7.06 3.66,-9.21 2.09,-1.83 4.69,-2.74 7.78,-2.74 4.11,0 7.78,1.35 11.01,4.06 0.54,0.45 0.81,0.75 0.81,0.92 0,0.11 -0.1,0.17 -0.31,0.17 -0.26,0 -0.67,-0.1 -1.23,-0.31 -2.17,-0.78 -4.09,-1.17 -5.77,-1.17 -2.46,0 -4.99,0.36 -7.57,1.1 -2.59,0.74 -4.48,1.64 -5.67,2.7 0,2.65 0.92,5.27 2.77,7.84 2.26,3.14 5.14,4.71 8.65,4.71 1.81,0 4.17,-0.83 7.09,-2.5 2.37,-1.36 4.56,-2.92 6.57,-4.67 0.42,-0.36 0.71,-0.54 0.9,-0.56 0.3,0 0.33,0.27 0.09,0.81z"/>
   <path class="fil2" d="M240.38 166.67c-2.05,0 -3.79,-1.61 -5.2,-4.82 -1.27,-2.82 -1.91,-5.77 -1.91,-8.85 0,-3.69 0.37,-6.64 1.09,-8.84 0.26,-0.79 0.47,-1.18 0.62,-1.18 0.24,0 0.3,0.5 0.17,1.49 -0.3,2.31 -0.45,4.3 -0.45,5.96 0,7.8 1.82,11.7 5.46,11.7 1.47,0 2.81,-1.14 4,-3.41 1.27,-2.73 2.53,-5.46 3.78,-8.18 1.12,-2.26 2.46,-4.16 4.03,-5.71 1.66,-1.64 3.17,-2.46 4.51,-2.46 1.29,0 2.69,1.4 4.2,4.22 1.42,2.63 2.76,4.25 4.03,4.85 1.62,0.76 4.51,1.44 8.38,2.04 4.94,0.75 10.65,1.12 17.13,1.12 10.26,0 20.88,-1.15 31.86,-3.44 11.14,-2.36 20.03,-5.35 26.68,-8.99 0.31,-0.17 0.53,-0.23 0.64,-0.2 0.13,0.06 0.17,0.26 0.11,0.62 -0.11,0.84 -0.16,1.58 -0.16,2.21 0,3.06 1.32,4.59 3.97,4.59 3.66,0 6.33,-1.11 7.81,-3.32 1.08,-1.6 1.62,-4.34 1.62,-8.2 0,-10.88 -0.46,-20.09 -1.4,-27.63 -0.45,-3.64 -1.01,-7.24 -1.71,-10.81 0.38,-2.35 0.73,-3.97 1.07,-4.87 0.15,-0.39 0.28,-0.59 0.39,-0.59 0.13,0 0.26,0.21 0.39,0.62 1.23,3.97 2.23,9.02 3,15.14 0.39,3.12 0.69,7.84 0.89,14.17 0.21,6.4 0.45,10.78 0.73,13.13 0.51,4.14 1.39,6.84 2.66,8.09 1.46,1.44 3,2.54 4.62,3.3l0 5.6c-2.43,-0.99 -4.29,-2.05 -5.6,-3.19 -2.03,-1.71 -3.38,-3.94 -4.03,-6.66 -0.32,4.09 -1.8,7.06 -4.45,8.93 -1.76,1.25 -3.82,1.89 -5.99,1.89 -1.75,0 -3.2,-0.62 -4.34,-1.85 -1.23,-1.32 -1.9,-3.18 -2.01,-5.57 -7.62,3.85 -16.76,6.94 -27.41,9.27 -10.27,2.24 -19.97,3.36 -29.12,3.36 -11.92,0 -20.6,-1.06 -25.73,-3.17 -1.66,-0.69 -3.1,-1.83 -4.31,-3.44 -0.13,-0.17 -0.92,-1.45 -2.38,-3.86 -0.73,-1.23 -1.44,-1.85 -2.13,-1.85 -2.09,0 -4.29,1.77 -6.61,5.32 -0.41,0.64 -1.14,2.28 -2.21,4.94 -1.06,2.66 -1.98,4.59 -2.77,5.78 -1.23,1.83 -2.54,2.75 -3.92,2.75z"/>
   <path class="fil2" d="M351.52 90.11c0,-1.79 -0.28,-3.27 -0.84,-4.42 0,-0.66 0.53,-2.21 1.57,-4.65 0.13,-0.3 0.24,-0.45 0.34,-0.45 0.11,0 0.24,0.16 0.39,0.47 0.3,0.64 0.99,2.39 2.07,5.27 1.14,2.98 1.8,4.82 1.99,5.51 0.15,0.53 0.22,0.92 0.22,1.18 0,0.82 -0.79,0.33 -2.38,-1.48 -0.18,-0.27 -0.28,-0.15 -0.28,0.33 0,0.17 0.41,5.91 1.23,17.22 0.83,11.31 1.24,17.67 1.24,19.09 0,4.35 -0.67,8.18 -1.99,11.48 -0.28,0.67 -0.5,1.16 -0.67,1.46l0 0c-0.26,0.44 -0.42,0.51 -0.48,0.19 -0.07,-0.33 -0.05,-1.04 0.09,-2.13 0.16,-1.49 0.25,-3.22 0.25,-5.2 0,-1.79 -0.46,-9.17 -1.37,-22.12 -0.92,-12.95 -1.38,-20.2 -1.38,-21.75z"/>
   <path class="fil2" d="M280.77 126.64c-0.42,3.51 -0.69,5.26 -0.84,5.26 -0.15,0 -0.43,-1.44 -0.84,-4.31 -0.71,-4.59 -4.11,-9.82 -10.19,-15.68 -7.47,-7.09 -12.92,-12.76 -16.35,-17.02 -0.9,-1.23 -2.09,-2.93 -3.59,-5.09 -0.48,-0.71 -0.99,-1.22 -1.51,-1.52 -0.3,-0.18 -0.45,-0.48 -0.45,-0.89l0 -3.75c0,-0.75 0.13,-1.12 0.39,-1.12 0.19,0 0.53,0.18 1.01,0.56l7.11 5.43c0.53,0.41 0.79,0.73 0.79,0.95 0,0.15 -0.21,0.22 -0.62,0.22 -0.59,0 -1.58,-0.15 -2.97,-0.44 1.16,1.56 3.98,4.62 8.46,9.18 3.25,3.25 6.49,6.47 9.74,9.69 6.61,6.71 9.91,12.46 9.91,17.24 0,0.45 -0.02,0.88 -0.05,1.29zm31.27 3.19c2.27,0 4.46,-0.83 6.55,-2.49 0.18,-0.15 1.04,-1.04 2.57,-2.66 1.42,-1.51 2.19,-2.27 2.3,-2.27 0.33,0 0.39,0.34 0.17,1.01 -0.3,0.88 -0.45,1.44 -0.45,1.71 0,0.63 0.27,1.36 0.81,2.18 0.71,1.08 1.64,1.62 2.8,1.62 3.06,0 5.68,-2.2 7.87,-6.6 0.22,-0.45 0.48,-0.68 0.78,-0.68 0.24,0 0.36,0.21 0.36,0.62 0,0.15 -0.02,0.39 -0.07,0.73 -0.04,0.33 -0.07,0.59 -0.07,0.75 0,1.29 0.4,2.34 1.2,3.14 0.79,0.8 1.8,1.2 3.03,1.2 1.79,0 3.68,-0.69 5.36,-2.07 0.48,-0.41 0.73,-1.91 0.73,-4.48 0,-1.57 -0.41,-7.87 -1.21,-18.9 -0.8,-11.03 -1.2,-17.53 -1.2,-19.51 0,-1.79 -0.28,-3.27 -0.84,-4.42 0,-0.64 0.52,-2.19 1.57,-4.65 0.11,-0.3 0.22,-0.45 0.33,-0.45 0.11,0 0.24,0.17 0.39,0.51 0.3,0.63 0.99,2.38 2.08,5.26 1.11,2.98 1.79,4.81 2.01,5.48 0.11,0.57 0.17,0.96 0.17,1.18 0,0.82 -0.79,0.34 -2.35,-1.45 -0.19,-0.27 -0.28,-0.15 -0.28,0.33 0,0.11 0.35,5.02 1.06,14.73 0.71,9.7 1.06,15.49 1.06,17.35 0,5.42 -0.96,9.67 -2.91,12.77 -1.64,2.61 -3.73,3.92 -5.97,3.92 -2.82,0 -4.83,-1.78 -6.05,-5.34 -0.14,-0.47 -0.31,-0.47 -0.5,0 -1.6,4.12 -3.87,6.18 -6.8,6.18 -2.99,0 -4.76,-1.88 -5.32,-5.65 -0.04,-0.32 -0.09,-0.48 -0.14,-0.48 -0.06,0.04 -0.17,0.2 -0.34,0.48 -0.71,1.17 -1.76,2.38 -3.16,3.61 -2.22,1.98 -4.42,2.97 -6.61,2.97 -2.42,0 -4.11,-0.73 -5.07,-2.19 -0.57,-0.91 -0.9,-2.27 -0.97,-4.06 -0.02,-0.2 -0.12,-0.31 -0.28,-0.31 -0.3,0 -0.6,0.18 -0.9,0.54 -1.87,2.16 -3.07,3.48 -3.61,3.95 -2.37,2.03 -4.95,3.05 -7.56,3.05 -2.8,0 -4.82,-1.09 -6.05,-3.25 -0.82,-1.42 -1.38,-3.72 -1.68,-6.89 -1.04,5.08 -2.05,8.31 -3.02,9.69 -2.2,3.17 -4.74,5.41 -7.62,6.72 -1.11,0.48 -3.04,1.08 -5.76,1.79 -2.73,0.71 -4.72,1.14 -5.99,1.29 -0.53,0.03 -0.79,-0.02 -0.79,-0.17 0,-0.15 0.25,-0.37 0.73,-0.67 2.54,-1.46 6.59,-3.89 12.15,-7.28 6.27,-4.11 9.41,-10.14 9.41,-18.09 0,-10.34 -0.49,-19.35 -1.46,-27.04 -0.26,-2.54 -0.78,-6.14 -1.57,-10.81 0.41,-2.68 0.73,-4.31 0.96,-4.87 0.14,-0.41 0.28,-0.62 0.39,-0.62 0.11,0 0.24,0.21 0.39,0.62 1.23,4 2.22,9.05 2.97,15.18 0.52,4.1 0.89,10.48 1.12,19.14 0.22,7.81 0.52,12.64 0.89,14.51 0.45,2.12 1.14,3.58 2.07,4.36 0.68,0.53 1.63,0.79 2.86,0.79 2.74,0 5.23,-0.72 7.28,-2.16 0.82,-0.58 2.68,-2.31 5.57,-5.21 0.35,-0.35 0.69,-0.53 1.01,-0.53 0.5,0 0.64,0.34 0.42,1.01 -0.23,0.67 -0.34,1.3 -0.34,1.88 0,1.28 0.53,2.28 1.6,2.99 1.01,0.67 2.31,1.01 3.92,1.01z"/>
   <path class="fil2" d="M263.58 124.37c0,-0.45 -0.87,-1.04 -2.61,-1.77 -1.73,-0.72 -3.01,-1.01 -3.83,-0.86 -0.3,0.07 -0.41,0.18 -0.34,0.33 0.3,0.82 0.93,2.18 1.91,4.09 2.53,-0.82 4.16,-1.42 4.87,-1.79zm-21.62 11.08c5.12,-4.03 10.03,-6.83 14.73,-8.4 -0.34,-0.56 -0.82,-1.49 -1.46,-2.8 -0.29,-0.63 -0.44,-1.4 -0.44,-2.29 0,-1.46 0.37,-2.69 1.11,-3.7 0.86,-1.23 2.15,-1.84 3.87,-1.84 1.34,0 3.27,0.87 5.76,2.63 2.65,1.79 3.98,3.28 3.98,4.48 -0.37,1.56 -0.84,3.04 -1.4,4.42 -2.13,0.63 -4.7,1.44 -7.73,2.41 0.12,1.71 -0.05,2.57 -0.5,2.57 -0.34,0 -0.69,-0.65 -1.06,-1.96 -1.38,0.49 -3.31,1.31 -5.77,2.47 -3.58,1.64 -6.29,3.19 -8.12,4.64 -2.8,2.21 -5.64,4.88 -8.51,8.01 -3.29,3.62 -5.19,5.66 -5.71,6.1 -1.79,1.61 -3.55,2.41 -5.26,2.41 -1.87,0 -3.51,-0.85 -4.93,-2.55 -1.42,-1.69 -2.13,-3.79 -2.13,-6.29 0,-3.48 1.42,-7.97 4.26,-13.5 0.29,-0.56 0.54,-0.84 0.72,-0.84 0.08,0 0.12,0.08 0.12,0.23 0,0.56 -0.62,2.49 -1.85,5.79 -1.23,3.3 -1.85,5.93 -1.85,7.87 0,1.45 0.35,2.64 1.06,3.55 0.71,0.92 1.72,1.37 3.03,1.37 1.79,0 3.75,-0.87 5.88,-2.63 1.12,-0.93 3.04,-2.91 5.76,-5.93 2.62,-2.88 4.76,-4.95 6.44,-6.22z"/>
   <path class="fil2" d="M306.54 168.1l1.43 -2.94c0.11,-0.22 0.23,-0.34 0.36,-0.34 0.19,0 0.99,0.49 2.41,1.46 1.42,0.97 2.13,1.54 2.13,1.71 0,0.63 -0.63,1.96 -1.88,3.97 -0.15,0.25 -0.31,0.31 -0.47,0.2 -1.24,-0.92 -2.63,-1.88 -4.18,-2.88 -0.52,1.17 -1.03,2.17 -1.54,2.99 -0.14,0.26 -0.3,0.33 -0.47,0.2 -1.4,-1.07 -2.85,-2.07 -4.34,-3 -0.07,-0.05 -0.07,-0.17 0,-0.33l1.79 -3.67c0.11,-0.23 0.23,-0.34 0.37,-0.34 0.16,0 0.85,0.4 2.04,1.21 1.19,0.8 1.98,1.39 2.35,1.76z"/>
   <path class="fil2" d="M292.5 100.26c14.41,-5.35 29.47,-10.93 45.18,-16.74 0.61,-0.23 0.97,-0.31 1.08,-0.23 0.16,0.11 0.12,0.44 -0.11,0.97 -0.69,1.68 -1.24,2.7 -1.66,3.04 -13.01,4.79 -28.25,10.71 -45.72,17.77l0 -2.02c0.34,-0.9 0.75,-1.82 1.23,-2.79z"/>
   <path class="fil2" d="M269.63 94.88c14.41,-5.35 29.47,-10.93 45.18,-16.74 0.61,-0.23 0.97,-0.31 1.08,-0.23 0.16,0.11 0.12,0.44 -0.11,0.97 -0.69,1.68 -1.24,2.7 -1.66,3.04 -13.01,4.79 -28.25,10.71 -45.72,17.77l0 -2.02c0.34,-0.9 0.75,-1.82 1.23,-2.79z"/>
   <path class="fil2" d="M241.09 174.66c8.26,-3.07 16.89,-6.27 25.89,-9.6 0.35,-0.13 0.56,-0.17 0.62,-0.13 0.09,0.07 0.07,0.25 -0.06,0.56 -0.4,0.96 -0.72,1.54 -0.96,1.74 -7.45,2.74 -16.18,6.14 -26.19,10.18l0 -1.16c0.19,-0.51 0.42,-1.04 0.7,-1.59z"/>
   <path class="fil2" d="M318.52 105.63c0,0.7 -0.15,1.44 -0.46,2.2 -0.42,0.97 -0.95,1.46 -1.6,1.46 -1.03,0 -1.77,-0.7 -2.2,-2.12 -0.49,1.81 -1.39,2.72 -2.69,2.72 -0.49,0 -0.91,-0.24 -1.28,-0.73 -0.41,-0.58 -0.62,-1.34 -0.62,-2.29l0 -2.22c0,-0.18 -0.12,-0.31 -0.37,-0.38 -0.24,-0.07 -0.36,-0.26 -0.36,-0.57 0,-0.49 0.2,-0.97 0.62,-1.44 0.38,-0.42 0.67,-0.63 0.87,-0.63 0.25,0 0.38,0.49 0.38,1.47 0,0.51 -0.04,0.93 -0.12,1.28 -0.08,0.34 -0.12,0.64 -0.12,0.89 0,0.53 0.1,1.04 0.32,1.52 0.25,0.57 0.57,0.85 0.95,0.85 0.49,0 0.95,-0.23 1.37,-0.67 0.43,-0.44 0.64,-0.96 0.64,-1.56 0,-0.35 -0.1,-0.93 -0.3,-1.77 -0.2,-0.83 -0.3,-1.34 -0.3,-1.54 0,-0.19 0.09,-0.47 0.27,-0.86 0.19,-0.39 0.32,-0.58 0.41,-0.58 0.17,0 0.38,0.55 0.64,1.65 0.26,1.11 0.39,1.92 0.39,2.45 0,1.52 0.59,2.28 1.77,2.28 0.51,0 0.82,-0.26 0.95,-0.76 -1.01,-1.78 -1.52,-3.13 -1.52,-4.08 0,-0.54 0.13,-1.02 0.41,-1.44 0.18,-0.28 0.3,-0.44 0.38,-0.46 0.07,0 0.12,0.18 0.16,0.55 0.05,0.5 0.14,0.92 0.24,1.25 0.02,0.03 0.27,0.66 0.74,1.87 0.29,0.72 0.43,1.28 0.43,1.66z"/>
   <path class="fil2" d="M242.43 111.45c0.29,-0.92 0.35,-1.84 0.19,-2.77 -0.19,-1.01 -0.65,-1.52 -1.38,-1.52 -0.35,0 -0.83,0.16 -1.43,0.5 -0.6,0.33 -0.91,0.66 -0.91,0.98 0,0.73 1.18,1.66 3.53,2.81zm-1.81 4.1c-2.96,-1.53 -4.43,-3.13 -4.43,-4.82 0,-2.03 0.93,-3.89 2.81,-5.58 1.87,-1.68 3.43,-2.3 4.67,-1.85 1.05,0.38 1.57,1.51 1.57,3.38 0,1.68 -0.35,3.58 -1.04,5.67 1.49,0.86 2.43,1.59 2.81,2.2 0,0.79 -0.67,2.14 -2,4.05 -0.39,-0.6 -1.29,-1.34 -2.72,-2.19 -1.65,2.29 -3.75,4.37 -6.3,6.24 -2.89,2.13 -5.54,3.74 -7.96,4.82 -0.51,0.25 -3.3,1.32 -8.39,3.19 -0.79,0.29 -1.32,0.43 -1.57,0.43 -0.13,0 -0.19,-0.03 -0.19,-0.09 0,-0.19 0.44,-0.57 1.33,-1.15 3.75,-2.22 7.52,-4.46 11.3,-6.72 4.51,-2.73 7.88,-5.26 10.11,-7.58z"/>
   <path class="fil2" d="M373.67 122.48c1.37,0 2.84,-0.23 4.43,-0.7 0.44,-0.12 0.66,-0.16 0.66,-0.1 0,0.05 -0.16,0.23 -0.5,0.51 -1.37,1.25 -3.15,1.87 -5.31,1.87 -0.68,0 -1.23,-0.18 -1.66,-0.53 -0.42,-0.35 -0.64,-0.8 -0.64,-1.34 0,-1.43 0.62,-2.93 1.84,-4.5 -1.07,-0.32 -1.61,-0.89 -1.61,-1.7 0,-0.69 0.43,-1.52 1.29,-2.48 0.86,-0.97 1.56,-1.45 2.08,-1.45 0.14,0 0.28,0.11 0.43,0.33 0.14,0.22 0.21,0.45 0.21,0.7 0,0.11 -0.14,0.37 -0.43,0.79 -0.29,0.41 -0.45,0.58 -0.48,0.5 -0.11,-0.43 -0.35,-0.65 -0.72,-0.65 -0.19,0 -0.43,0.17 -0.71,0.5 -0.29,0.33 -0.43,0.61 -0.43,0.83 0.35,0.56 0.93,0.85 1.76,0.85 0.28,0 0.71,-0.26 1.3,-0.77 0.35,-0.32 0.7,-0.64 1.06,-0.97 0.12,-0.1 0.18,0 0.18,0.29 0,0.63 -0.23,1.27 -0.7,1.92 -1.82,1.23 -3.17,2.64 -4.05,4.24 -0.17,0.31 -0.25,0.57 -0.25,0.81 0,0.7 0.75,1.05 2.25,1.05z"/>
   <path class="fil2" d="M409.94 120.53c-0.25,1.16 -0.55,1.78 -0.91,1.85 -0.45,0.08 -0.65,-0.6 -0.6,-2.05 0.04,-1.27 -0.12,-2.87 -0.49,-4.8 -1.19,-6.29 -5.93,-11.88 -14.21,-16.78 -0.53,-0.32 -0.69,-0.8 -0.48,-1.45l1.34 -3.95c0.12,-0.35 0.41,-0.41 0.88,-0.17 7.94,3.85 12.76,10.24 14.46,19.18 0.52,2.79 0.53,5.51 0.01,8.17z"/>
   <path class="fil2" d="M199.22 132.74c0,4.38 -1.8,9.36 -5.41,14.95 -3.69,5.85 -8.46,10.82 -14.31,14.95 -1.18,0.83 -2.12,1.45 -2.81,1.86l0 -1.58c0.42,-0.48 0.93,-1.05 1.53,-1.7 9.62,-10.48 14.43,-17.48 14.43,-21 0,-3.36 -1.54,-5.03 -4.64,-5.03 -1.72,0 -3.27,0.47 -4.64,1.42 -1.03,0.68 -1.67,1.07 -1.93,1.16 -0.17,-0.18 -0.39,-0.3 -0.65,-0.39 0.09,-0.34 0.26,-1.24 0.52,-2.71 1.55,-7.21 5.16,-10.82 10.83,-10.82 4.72,0 7.08,2.96 7.08,8.89z"/>
   <path class="fil2" d="M430.1 145.04c3.67,0 6.96,2.18 9.87,6.53 2.91,4.35 4.95,10.03 6.13,17.03 0.13,0.72 0.2,1.15 0.2,1.27 0.13,0.2 0.23,0.2 0.29,0 0.07,-0.12 0.23,-0.55 0.49,-1.27 0.59,-4.19 2.03,-10.44 4.32,-18.75 2.49,-5.95 5.2,-8.93 8.15,-8.93 1.51,0 3.01,1.02 4.52,3.04 1.3,1.77 1.96,3.21 1.96,4.32 0,0.85 -0.23,1.97 -0.69,3.34 -0.59,1.83 -1.27,2.75 -2.06,2.75 -0.33,0 -1.05,-0.71 -2.16,-2.11 -1.11,-1.41 -2.26,-2.11 -3.43,-2.11 -2.62,0 -5.04,6.18 -7.27,18.55 -0.98,5.36 -2.06,9.16 -3.24,11.39 -0.85,1.5 -1.57,2.25 -2.16,2.25 -0.52,0 -0.78,-0.69 -0.78,-2.06 0,-2.16 -1.25,-6.36 -3.73,-12.61 -2.49,-6.25 -4.25,-9.38 -5.3,-9.38 -0.72,0 -1.18,0.23 -1.38,0.69 -0.19,0.46 -0.78,0.69 -1.76,0.69 -1.12,0 -2.57,-0.82 -4.37,-2.46 -1.8,-1.63 -2.7,-2.94 -2.7,-3.92 0,-0.46 0.75,-1.95 2.26,-4.47 1.5,-2.52 2.45,-3.78 2.84,-3.78z"/>
   <path class="fil2" d="M348 463.02c-0.38,0.92 -0.72,1.38 -1.03,1.38 -0.38,0 -0.44,-0.59 -0.17,-1.78 0.23,-1.03 0.34,-2.37 0.34,-4.01 0,-5.35 -3.02,-10.69 -9.06,-16 -0.38,-0.34 -0.43,-0.76 -0.17,-1.26l1.72 -3.04c0.16,-0.26 0.4,-0.26 0.75,0 5.92,4.4 8.88,10.4 8.88,18 0,2.38 -0.42,4.61 -1.26,6.71z"/>
   <path class="fil2" d="M320.23 498.49c2.45,0 4.64,1.45 6.58,4.35 1.95,2.91 3.31,6.7 4.1,11.37 0.09,0.48 0.13,0.77 0.13,0.85 0.09,0.14 0.15,0.14 0.2,0 0.04,-0.08 0.15,-0.37 0.32,-0.85 0.4,-2.79 1.36,-6.96 2.89,-12.51 1.66,-3.98 3.47,-5.96 5.43,-5.96 1.01,0 2.01,0.67 3.02,2.03 0.87,1.18 1.31,2.14 1.31,2.88 0,0.57 -0.15,1.31 -0.46,2.23 -0.39,1.22 -0.85,1.83 -1.38,1.83 -0.22,0 -0.7,-0.47 -1.44,-1.41 -0.74,-0.93 -1.5,-1.4 -2.29,-1.4 -1.75,0 -3.36,4.12 -4.85,12.38 -0.65,3.58 -1.37,6.11 -2.16,7.6 -0.57,1 -1.05,1.5 -1.44,1.5 -0.35,0 -0.53,-0.45 -0.53,-1.37 0,-1.44 -0.83,-4.25 -2.49,-8.42 -1.65,-4.17 -2.83,-6.26 -3.53,-6.26 -0.48,0 -0.79,0.16 -0.92,0.46 -0.13,0.31 -0.52,0.46 -1.18,0.46 -0.74,0 -1.72,-0.54 -2.92,-1.64 -1.2,-1.09 -1.8,-1.96 -1.8,-2.62 0,-0.3 0.51,-1.3 1.51,-2.98 1,-1.68 1.64,-2.52 1.9,-2.52z"/>
   <path class="fil2" d="M156.88 151.63c0.08,0.55 0.04,1.29 -0.12,2.22 -0.2,1.24 -0.56,1.9 -1.06,1.98 -0.21,0.03 -0.75,-0.36 -1.6,-1.16 -0.86,-0.8 -1.67,-1.14 -2.43,-1.03 -1.69,0.26 -2.65,4.49 -2.89,12.69 -0.11,3.56 -0.44,6.12 -0.98,7.67 -0.41,1.06 -0.8,1.61 -1.18,1.67 -0.34,0.05 -0.57,-0.37 -0.71,-1.26 -0.21,-1.39 -1.42,-3.99 -3.63,-7.78 -2.21,-3.8 -3.66,-5.64 -4.34,-5.54 -0.46,0.07 -0.73,0.26 -0.82,0.57 -0.08,0.32 -0.44,0.53 -1.07,0.62 -0.76,0.12 -1.87,-0.29 -3.33,-1.22 -1.46,-0.92 -2.08,-1.66 -1.86,-2.21 1.37,-3.84 2.21,-5.78 2.5,-5.83 2.37,-0.35 4.7,0.73 7.01,3.26 2.3,2.53 4.17,6 5.61,10.41 0.16,0.45 0.24,0.72 0.25,0.8 0.11,0.12 0.17,0.11 0.19,-0.03 0.03,-0.09 0.1,-0.38 0.2,-0.87 -0.03,-2.76 0.29,-6.94 0.97,-12.53 1.03,-4.09 2.49,-6.27 4.39,-6.56 0.98,-0.14 2.05,0.37 3.21,1.53 1.02,1.01 1.58,1.88 1.69,2.6zm-55.04 36.47l-0.14 -0.89c0.25,-0.24 0.56,-0.52 0.95,-0.85 5.15,-3.97 12.31,-10.08 21.49,-18.33 3.66,-3.84 5.9,-6.9 6.72,-9.18 0.31,-0.87 0.58,-1.32 0.84,-1.36 0.09,0.03 0.14,0.11 0.16,0.23 0.1,0.64 -0.3,2.19 -1.18,4.65 -1.46,4.07 -3.85,7.76 -7.15,11.07 -3.43,3.4 -6.63,6.07 -9.63,7.99 -0.59,0.39 -4.1,2.36 -10.52,5.92 -0.64,0.35 -1.16,0.6 -1.54,0.75z"/>
   <path class="fil2" d="M330.21 356.85l4.23 -8.71c0.34,-0.66 0.69,-1 1.08,-1 0.55,0 2.93,1.44 7.14,4.32 4.2,2.88 6.31,4.57 6.31,5.06 0,1.88 -1.86,5.81 -5.56,11.79 -0.45,0.72 -0.92,0.91 -1.42,0.58 -3.65,-2.71 -7.77,-5.56 -12.36,-8.55 -1.55,3.49 -3.07,6.45 -4.57,8.88 -0.44,0.77 -0.91,0.97 -1.41,0.58 -4.14,-3.15 -8.43,-6.11 -12.86,-8.88 -0.22,-0.16 -0.22,-0.5 0,-0.99l5.31 -10.88c0.33,-0.66 0.69,-0.99 1.08,-0.99 0.5,0 2.52,1.19 6.06,3.57 3.54,2.38 5.86,4.12 6.97,5.22z"/>
   <path class="fil2" d="M499.25 253.18c0.46,-4.81 3.32,-12.61 8.56,-23.41 0.71,-1.49 1.3,-2.23 1.76,-2.23 0.28,0 0.41,0.29 0.41,0.88 0,0.43 -0.07,0.96 -0.23,1.58 -0.78,3.25 -1.7,10.41 -2.76,21.48 -1.56,15.73 -2.48,24.71 -2.76,26.94 -1.29,10.8 -4.36,19.69 -9.21,26.7 -0.47,0.67 -0.82,1.07 -1.06,1.23 -0.27,0.16 -0.43,0.06 -0.46,-0.29 -0.05,-0.32 0.03,-0.82 0.23,-1.53 1.02,-3.91 1.94,-10.62 2.76,-20.13 0.94,-10.4 1.85,-20.81 2.76,-31.22z"/>
   <path class="fil2" d="M287.47 331.99c-29.45,0 -50.94,-3.48 -64.48,-10.46 -15.75,-8.09 -23.63,-21.95 -23.63,-41.56 0,-11.74 2.03,-33.39 6.1,-64.96 1.11,-4.12 4.05,-12.72 8.81,-25.77 0.26,-0.8 0.61,-1.2 1.03,-1.2 0.47,0 0.66,0.56 0.55,1.67 -3.8,33.89 -5.71,57.37 -5.71,70.43 0,30.03 25.78,45.05 77.33,45.05 70.75,0 123.3,-11.93 156.88,-36.2 5.54,-4.02 9.19,-6.03 10.94,-6.03 1.64,0 4.28,0.93 7.93,2.78 3.65,1.85 6.42,2.78 8.33,2.78 1.11,0 2.38,-0.64 3.8,-1.91 2.59,-2.32 4.45,-7.03 5.14,-13.22 0.53,-7.35 1.05,-14.73 1.59,-22.13 0.68,-8.09 4.31,-18.69 10.86,-31.8 1.06,-2.07 1.91,-3.1 2.54,-3.1 0.42,0 0.63,0.43 0.63,1.27 0,0.48 -0.08,1.09 -0.23,1.83 -2.65,13.64 -4.23,23.92 -4.76,30.85 -0.96,12.16 -3.12,22.76 -6.51,31.8 -2.75,7.35 -5.98,13.02 -9.26,16.08 -3.12,2.75 -5.63,4.13 -7.53,4.13 -2.12,0 -4.97,-1.09 -8.57,-3.25 -3.59,-2.17 -5.79,-3.26 -6.58,-3.26 -1.21,0 -2.99,1.09 -5.31,3.26 -2.12,2.06 -4.26,4.12 -6.43,6.18 -37.16,32.95 -104.61,46.74 -153.46,46.74z"/>
   <path class="fil2" d="M161.54 257.19c0,-7.29 2.32,-10.93 6.96,-10.93 0.3,0 3.23,0.64 8.78,1.92 5.54,1.29 11.9,1.93 19.07,1.93 25.4,0 49.71,-4.92 72.92,-14.78 21.13,-8.94 44.55,-23.41 70.25,-43.42 1.88,-1.47 4.09,-2.88 6.62,-4.24 2.79,-1.47 4.77,-2.21 5.94,-2.21 0.69,0 1.02,0.27 1.02,0.8 0,1.73 -1.3,4.48 -3.9,8.23 -2.61,3.76 -4.72,5.93 -6.34,6.54 -3.51,1.28 -6.32,2.79 -8.44,4.53 -25.43,20.72 -49.19,36.19 -71.27,46.42 -24.75,11.51 -49.06,17.26 -72.91,17.26 -8.76,0 -15.42,-0.62 -19.98,-1.87 -0.46,-0.11 -0.89,-0.18 -1.31,-0.22 -1.32,0 -2.17,1.34 -2.54,4.02 -2.76,18.83 -9.38,34.29 -19.87,46.36 -10.16,11.66 -21.48,17.49 -33.97,17.49 -8.26,0 -14.53,-3.07 -18.79,-9.22 -3.48,-5.06 -5.21,-11.33 -5.21,-18.8 0,-9.39 3.36,-21.49 10.08,-36.28 0.56,-1.25 1.09,-1.87 1.58,-1.87 0.27,0 0.4,0.26 0.4,0.79 0,0.41 -0.1,0.92 -0.29,1.53 -1.2,3.24 -2.41,6.47 -3.62,9.68 -1.62,4.72 -2.43,9 -2.43,12.85 0,7.36 2.69,12.91 8.09,16.64 4.42,3.1 10.02,4.64 16.81,4.64 12.31,0 22.67,-5.2 31.08,-15.62 7.51,-9.32 11.27,-19.36 11.27,-30.12l0 -12.05z"/>
   <path class="fil2" d="M268.32 356.19c0,0.24 1.07,1.13 3.21,2.66 0.61,0.5 1.21,0.99 1.82,1.46 0.71,0.58 1.27,0.87 1.66,0.87 1.43,0 3.42,-2.29 5.98,-6.89 1.06,0.66 2.37,1.7 3.92,3.13 1.11,1 1.93,1.51 2.46,1.51 0.76,0 1.97,-1.07 3.6,-3.21 1.72,-2.24 2.58,-4.15 2.58,-5.71 0,-1.34 -0.85,-2.79 -2.54,-4.35 -1.61,-1.45 -2.99,-2.18 -4.16,-2.18 -0.31,0 -1.16,1.02 -2.53,3.05 -0.95,1.4 -1.89,2.81 -2.81,4.24 -0.58,-1.01 -1.67,-2.1 -3.25,-3.29 -1.58,-1.19 -2.79,-1.78 -3.6,-1.78 -0.4,0 -1.55,1.61 -3.47,4.83 -1.91,3.22 -2.87,5.11 -2.87,5.66z"/>
   <g>
    <path class="fil3" d="M379.46 224.11c10.72,-16.7 29.37,-27.26 48.92,-29.53 -2.62,3.19 -4.39,8.22 -9.71,7.29 -12.84,1.77 -27.73,7.09 -33.01,19.96 2.9,-0.6 5.78,-1.27 8.67,-1.92 0.78,8.31 -6.97,13.94 -14.39,15.22 -0.52,-3.58 -2.49,-7.66 -0.48,-11.02z"/>
    <path class="fil3" d="M356.89 228.74c3.19,-2.31 7.41,-0.49 11.02,-0.3 0.15,13.14 -7.09,24.82 -16.76,33.09 3.59,-6.59 7.73,-13.05 9.61,-20.39 -3.46,1.53 -6.91,3.08 -10.53,4.19 -0.74,-6.27 1.79,-12.59 6.66,-16.59z"/>
    <path class="fil3" d="M380.47 244.32c3.91,-3.08 12.28,-5.84 14.41,0.47 2.16,7.07 -5.53,12.61 -10.9,15.63 -0.71,-0.36 -2.11,-1.11 -2.81,-1.48 0.67,-2.83 1.41,-5.63 2.12,-8.46 -10.74,1.41 -16.94,11.34 -25.21,17.17 6.47,-8.59 13.75,-16.86 22.39,-23.33z"/>
   </g>
   <path class="fil2" d="M156.77 330.94c-1.83,0.54 -2.88,0.8 -3.15,0.8 -0.06,0 -0.1,-0.01 -0.1,-0.05 0,-0.1 0.68,-0.56 2.05,-1.39 1.3,-0.7 3.29,-2.08 5.99,-4.15 1.36,-1.33 3.27,-3.44 5.73,-6.33 1.7,-2 3.51,-3.71 5.44,-5.14 2.36,-1.73 4.74,-2.6 7.14,-2.6 0.56,0 1.31,0.16 2.24,0.48 0.93,0.31 1.73,0.47 2.4,0.47 1.23,0 2.23,-0.47 2.99,-1.4 0.6,-0.93 1.2,-1.86 1.8,-2.79 0.43,-0.67 0.81,-1 1.15,-1 0.16,0 0.24,0.15 0.24,0.45 0,0.43 -0.2,1.15 -0.59,2.15 -0.2,0.49 0.96,0.75 3.49,0.75 0.26,0 0.41,-0.07 0.45,-0.2 0.03,-0.07 -0.12,-0.7 -0.45,-1.9 -0.1,-0.33 0.05,-0.82 0.45,-1.45 0.66,-1.13 1.06,-1.63 1.2,-1.49 0.59,0.6 0.89,1.51 0.89,2.74 0,1.03 -0.24,2.23 -0.72,3.59 -0.48,1.37 -0.94,2.2 -1.37,2.5 -1.13,0.76 -2.9,0.56 -5.29,-0.6 -2,2.09 -3.96,3.14 -5.89,3.14 -0.57,0 -1.29,-0.15 -2.17,-0.45 -0.88,-0.3 -1.54,-0.45 -1.97,-0.45 -3.29,0 -6.64,1.57 -10.03,4.69 -2.46,2.43 -4.94,4.86 -7.43,7.29 -1.5,1.13 -3,1.91 -4.49,2.34z"/>
   <path class="fil2" d="M511.43 314.34c0,3.46 -1.88,6.77 -5.59,9.94 -6.48,2.5 -16.89,6.62 -31.28,12.36 0,-3.13 1.58,-6.15 4.75,-9.05 5.96,-2.43 16.67,-6.85 32.12,-13.25z"/>
   <g>
    <path class="fil3" d="M114.89 277.96l0 0 0 0 0 0c0,-3.45 -0.23,-6.9 -0.46,-10.35 -0.23,-4.6 -0.47,-14.27 -6.22,-15.65 -5.98,2.53 -6.9,-3.68 -3.68,-7.36 5.06,-3.45 9.43,5.52 10.82,9.43 0.92,-2.07 4.37,-12.88 8.28,-11.5 2.99,1.61 2.53,8.28 -0.46,10.12 -1.15,0.69 -2.3,0.69 -3.45,0.69 -1.84,7.36 -1.38,15.19 -3.45,22.55 -0.23,0.69 -0.46,1.61 -1.38,2.07z"/>
    <path class="fil3" d="M131.14 277.17c-1.23,-5.93 0.74,-12.35 1.73,-18.27 0.99,-13.84 1.98,-28.65 -1.98,-42.24 -2.71,-4.44 -6.17,-7.66 -11.6,-5.43 -5.43,3.21 -6.42,9.88 -4.45,15.81 3.21,2.46 7.91,4.44 3.7,8.64 -9.87,2.96 -9.13,-14.33 -8.39,-20.01 0.99,-8.39 8.15,-16.79 17.29,-12.59 7.9,4.2 8.89,12.59 9.88,20.99 1.23,13.34 0.74,26.92 -1.48,40.26 -0.75,4.2 -1.48,8.4 -3.96,12.1l-0.24 0.74c-0.25,0 -0.5,0 -0.5,0z"/>
   </g>
   <path class="fil3" d="M275.21 213.53c-0.65,-0.66 0.37,-1.54 0.7,-1.87 0.09,-0.28 0.19,-0.56 0.28,-0.79 2.42,-4.06 5.13,-9.66 4.38,-14.28 -0.28,-0.6 -0.56,-1.16 -0.79,-1.72 -2.05,-2.61 -4.52,-2.05 -7.09,-2.05 -1.49,0.23 -2.99,0.74 -4.1,0.93 -1.5,0.56 -2.94,1.16 -4.39,1.77 -0.7,0.33 -1.4,0.66 -2.05,1.03 -3.17,2.05 -6.44,3.45 -9,6.01 -0.28,0.33 -0.56,0.71 -0.8,1.08 -0.6,0.47 -1.58,1.58 -1.58,2.52 1.26,1.4 3.87,1.54 6.01,0.98 0.56,-0.28 1.45,-0.8 1.92,-1.26 1.54,0 0.04,4.1 -0.24,4.89 -0.37,0.38 -0.7,0.75 -1.02,1.17 -0.94,0.37 -1.87,0.75 -2.76,1.12 -1.53,0 -2.84,0.05 -4.01,-0.23 -0.56,-0.33 -1.12,-0.61 -1.63,-0.89 -1.03,-0.51 -1.35,-1.91 -1.54,-2.38 0.05,-1.26 0.14,-2.52 0.24,-3.78 0.6,-1.21 1.21,-2.42 1.86,-3.63 1.4,-2.1 2.94,-3.78 4.71,-5.51 1.59,-1.21 2.89,-2.05 4.62,-3.12 1.12,-0.66 2.28,-1.26 3.45,-1.87 6.02,-2.71 11.43,-5.27 18.33,-3.73 0.56,0.37 1.12,0.79 1.73,1.21 1.68,2.05 2.1,5.13 1.21,8.12 -0.09,1.07 -0.28,2.14 -0.74,3.45 -0.47,1.26 -0.94,2.52 -1.4,3.78 -0.66,1.12 -1.26,2.28 -1.87,3.45 -0.93,1.45 -2.38,3.17 -3.26,4.94 -0.38,0.38 -0.75,0.56 -1.17,0.66z"/>
   <path class="fil2" d="M462.68 314.55c0,0.55 -0.15,1.28 -0.44,2.17 -0.39,1.19 -0.84,1.79 -1.35,1.79 -0.21,0 -0.68,-0.46 -1.4,-1.37 -0.73,-0.92 -1.47,-1.37 -2.24,-1.37 -1.7,0 -3.28,4.02 -4.73,12.07 -0.63,3.49 -1.34,5.96 -2.1,7.41 -0.56,0.98 -1.03,1.47 -1.41,1.47 -0.34,0 -0.51,-0.45 -0.51,-1.34 0,-1.41 -0.81,-4.14 -2.43,-8.21 -1.62,-4.07 -2.77,-6.1 -3.45,-6.1 -0.47,0 -0.76,0.15 -0.89,0.44 -0.13,0.3 -0.51,0.45 -1.15,0.45 -0.77,0 -1.8,-0.56 -3.1,-1.69 -1.3,-1.13 -1.8,-1.95 -1.5,-2.46 1.91,-3.58 3.02,-5.37 3.32,-5.37 2.38,0 4.53,1.42 6.42,4.25 1.9,2.83 3.23,6.53 3.99,11.09 0.09,0.46 0.13,0.74 0.13,0.83 0.09,0.13 0.15,0.13 0.19,0 0.04,-0.09 0.15,-0.37 0.32,-0.83 0.39,-2.73 1.32,-6.8 2.81,-12.21 1.62,-3.87 3.39,-5.81 5.31,-5.81 0.98,0 1.96,0.66 2.93,1.98 0.86,1.15 1.28,2.09 1.28,2.81zm-59.64 27.78l0 -0.89c0.28,-0.2 0.63,-0.43 1.06,-0.7 5.66,-3.15 13.63,-8.11 23.89,-14.88 4.18,-3.24 6.84,-5.92 7.99,-8.05 0.42,-0.81 0.76,-1.21 1.02,-1.21 0.09,0.04 0.13,0.12 0.13,0.25 0,0.64 -0.62,2.11 -1.85,4.41 -2.05,3.79 -4.95,7.07 -8.69,9.84 -3.88,2.85 -7.44,5 -10.67,6.45 -0.64,0.3 -4.39,1.73 -11.25,4.28 -0.68,0.25 -1.22,0.42 -1.63,0.5z"/>
  </g>
 </g>
</svg>
