<?xml version="1.0" encoding="UTF-8"?>
<!DOCTYPE svg PUBLIC "-//W3C//DTD SVG 1.1//EN" "http://www.w3.org/Graphics/SVG/1.1/DTD/svg11.dtd">
<svg xmlns="http://www.w3.org/2000/svg" xml:space="preserve" width="600px" height="600px" version="1.1" style="shape-rendering:geometricPrecision; text-rendering:geometricPrecision; image-rendering:optimizeQuality; fill-rule:evenodd; clip-rule:evenodd"
viewBox="0 0 600 600"
 xmlns:xlink="http://www.w3.org/1999/xlink">
 <defs>
  <style type="text/css">
   <![CDATA[
    .fil0 {fill:#8F684B}
    .fil1 {fill:#F3F3EB}
    .fil2 {fill:white;fill-rule:nonzero}
   ]]>
  </style>
 </defs>
 <g id="Layer_x0020_1">
  <metadata id="WikiLayer"/>
  <polygon class="fil0" points="300,0 314.89,15.78 331.36,1.64 344.52,18.9 362.37,6.56 373.66,25.09 392.7,14.68 402,34.29 422.02,25.94 429.21,46.41 450,40.19 455.01,61.31 476.34,57.29 479.11,78.82 500.74,77.06 501.25,98.75 522.94,99.26 521.18,120.89 542.71,123.66 538.69,144.99 559.81,150 553.59,170.79 574.06,177.98 565.71,198 585.32,207.3 574.91,226.34 593.44,237.63 581.1,255.48 598.36,268.64 584.22,285.11 600,300 584.22,314.89 598.36,331.36 581.1,344.52 593.44,362.37 574.91,373.66 585.32,392.7 565.71,402 574.06,422.02 553.59,429.21 559.81,450 538.69,455.01 542.71,476.34 521.18,479.11 522.94,500.74 501.25,501.25 500.74,522.94 479.11,521.18 476.34,542.71 455.01,538.69 450,559.81 429.21,553.59 422.02,574.06 402,565.71 392.7,585.32 373.66,574.91 362.37,593.44 344.52,581.1 331.36,598.36 314.89,584.22 300,600 285.11,584.22 268.64,598.36 255.48,581.1 237.63,593.44 226.34,574.91 207.3,585.32 198,565.71 177.98,574.06 170.79,553.59 150,559.81 144.99,538.69 123.66,542.71 120.89,521.18 99.26,522.94 98.75,501.25 77.06,500.74 78.82,479.11 57.29,476.34 61.31,455.01 40.19,450 46.41,429.21 25.94,422.02 34.29,402 14.68,392.7 25.09,373.66 6.56,362.37 18.9,344.52 1.64,331.36 15.78,314.89 0,300 15.78,285.11 1.64,268.64 18.9,255.48 6.56,237.63 25.09,226.34 14.68,207.3 34.29,198 25.94,177.98 46.41,170.79 40.19,150 61.31,144.99 57.29,123.66 78.82,120.89 77.06,99.26 98.75,98.75 99.26,77.06 120.89,78.82 123.66,57.29 144.99,61.31 150,40.19 170.79,46.41 177.98,25.94 198,34.29 207.3,14.68 226.34,25.09 237.63,6.56 255.48,18.9 268.64,1.64 285.11,15.78 "/>
  <path class="fil1" d="M36.5 300c0,-145.53 117.97,-263.5 263.5,-263.5 145.53,0 263.5,117.97 263.5,263.5 0,145.53 -117.97,263.5 -263.5,263.5 -145.53,0 -263.5,-117.97 -263.5,-263.5zm263.5 -271c-149.67,0 -271,121.33 -271,271 0,149.67 121.33,271 271,271 149.67,0 271,-121.33 271,-271 0,-149.67 -121.33,-271 -271,-271z"/>
  <path class="fil1" d="M300 539.65c-132.36,0 -239.65,-107.29 -239.65,-239.65 0,-132.36 107.29,-239.65 239.65,-239.65 132.36,0 239.65,107.29 239.65,239.65 0,132.36 -107.29,239.65 -239.65,239.65zm0 -495.55c-141.33,0 -255.9,114.57 -255.9,255.9 0,141.33 114.57,255.9 255.9,255.9 141.33,0 255.9,-114.57 255.9,-255.9 0,-141.33 -114.57,-255.9 -255.9,-255.9z"/>
  <path class="fil2" d="M321.3 331.8c0.74,0 1.79,0.53 3.15,1.58 1.35,1.06 2.09,1.97 2.21,2.74 0.03,0.2 -0.15,0.72 -0.52,1.55 -0.37,0.83 -0.63,1.27 -0.78,1.32 -1.22,0.35 -2.44,0.68 -3.65,1 -1.52,0.5 -2.57,1.08 -3.17,1.76 1.69,5.11 2.53,10.17 2.53,15.16 0,1.46 -0.16,2.95 -0.48,4.47 -0.12,0.52 -0.22,0.79 -0.3,0.82 -0.15,0 -0.22,-0.87 -0.22,-2.61 0,-2.88 -0.42,-6.35 -1.27,-10.41 -0.23,-1.12 -0.43,-2.1 -0.6,-2.96l0 -7.17c0.27,-0.5 0.62,-0.94 1.05,-1.29 0.55,-0.45 1.58,-0.89 3.09,-1.34 -0.62,-0.62 -1.22,-0.93 -1.79,-0.93 -0.27,0 -0.66,0.32 -1.15,0.97 -0.5,0.64 -0.78,0.97 -0.86,0.97 -0.12,0 -0.16,-0.28 -0.11,-0.83 0.35,-3.2 1.3,-4.8 2.87,-4.8z"/>
  <path class="fil2" d="M309.49 148.57c-1,0.14 -1.58,0.2 -1.72,0.18 -0.03,-0.01 -0.05,-0.02 -0.05,-0.04 0.01,-0.05 0.41,-0.24 1.19,-0.57 0.74,-0.27 1.9,-0.85 3.48,-1.73 0.82,-0.59 1.99,-1.56 3.51,-2.89 1.05,-0.92 2.14,-1.69 3.26,-2.29 1.38,-0.73 2.7,-1 3.97,-0.82 0.29,0.04 0.68,0.19 1.14,0.42 0.47,0.24 0.88,0.39 1.23,0.44 0.65,0.09 1.21,-0.08 1.69,-0.51 0.38,-0.44 0.77,-0.89 1.16,-1.33 0.28,-0.32 0.5,-0.46 0.68,-0.44 0.09,0.02 0.12,0.1 0.1,0.26 -0.04,0.23 -0.2,0.59 -0.48,1.08 -0.15,0.25 0.45,0.47 1.78,0.67 0.14,0.02 0.22,-0.01 0.25,-0.07 0.02,-0.04 -0.01,-0.38 -0.09,-1.04 -0.03,-0.18 0.09,-0.42 0.35,-0.73 0.44,-0.54 0.69,-0.77 0.75,-0.69 0.26,0.36 0.35,0.87 0.26,1.51 -0.08,0.55 -0.3,1.16 -0.66,1.84 -0.36,0.68 -0.67,1.09 -0.92,1.21 -0.65,0.32 -1.57,0.08 -2.74,-0.72 -1.21,0.95 -2.33,1.35 -3.35,1.2 -0.29,-0.05 -0.66,-0.18 -1.11,-0.41 -0.44,-0.22 -0.77,-0.35 -1,-0.39 -1.73,-0.25 -3.62,0.32 -5.65,1.7 -1.48,1.09 -2.98,2.18 -4.48,3.27 -0.88,0.48 -1.73,0.78 -2.55,0.89z"/>
  <path class="fil2" d="M142.17 443.01c0.42,-2.6 1.34,-5.73 2.75,-9.4 1.11,-2.87 1.67,-5.71 1.67,-8.54 0,-5.39 -2.49,-10.57 -7.46,-15.54 -0.38,-0.38 -0.44,-0.8 -0.17,-1.26l1.72 -3.04c0.16,-0.27 0.4,-0.27 0.75,0 4.97,4.09 7.45,9.96 7.45,17.6 0,3.67 -0.8,7.56 -2.41,11.67 -1.6,4.11 -2.41,6.94 -2.41,8.51 0,3.17 0.86,4.76 2.58,4.76 1,0 2.12,-1.21 3.38,-3.61 0.12,-0.23 0.24,-0.4 0.35,-0.52 0.11,-0.07 0.17,-0.05 0.17,0.06 0.04,0.11 0.04,0.3 0,0.57 -1.03,5.62 -2.71,8.43 -5.04,8.43 -2.37,0 -3.56,-2.29 -3.56,-6.88 0,-0.92 0.08,-1.85 0.23,-2.81z"/>
  <path class="fil2" d="M115.23 419.67c-0.38,0.92 -0.72,1.38 -1.03,1.38 -0.38,0 -0.44,-0.6 -0.17,-1.78 0.23,-1.03 0.34,-2.37 0.34,-4.01 0,-5.35 -3.02,-10.69 -9.06,-16 -0.38,-0.34 -0.43,-0.76 -0.17,-1.26l1.72 -3.04c0.16,-0.27 0.4,-0.27 0.75,0 5.92,4.4 8.89,10.4 8.89,18 0,2.37 -0.43,4.61 -1.27,6.71z"/>
  <path class="fil2" d="M270.04 82.94c0,0.34 -0.43,1.1 -1.28,2.29 -0.96,1.34 -1.87,2.31 -2.74,2.94 -0.55,0.38 -2.4,0.99 -5.53,1.82 -0.46,0.12 -0.72,0.17 -0.81,0.17l0 -0.04c0.07,-0.08 0.26,-0.23 0.55,-0.46 0.41,-0.31 1.52,-0.94 3.34,-1.9 1.75,-0.93 2.78,-1.53 3.07,-1.79 0.06,-0.05 0.08,-0.1 0.08,-0.15 0,-0.42 -1.55,-0.63 -4.66,-0.63 -0.01,0 -0.61,0.03 -1.79,0.08 -0.25,0.01 -0.45,0.01 -0.59,0l0 -0.68 1.06 -1.78c0.32,-0.55 0.91,-0.89 1.77,-1.03 0.31,-0.06 1.03,-0.08 2.15,-0.08 3.59,0 5.38,0.41 5.38,1.24z"/>
  <path class="fil2" d="M206.41 416.45c0,0.49 -0.13,1.15 -0.4,1.95 -0.34,1.07 -0.75,1.6 -1.2,1.6 -0.19,0 -0.62,-0.41 -1.26,-1.23 -0.65,-0.82 -1.32,-1.23 -2.01,-1.23 -1.53,0 -2.94,3.61 -4.24,10.83 -0.58,3.13 -1.21,5.35 -1.89,6.65 -0.5,0.88 -0.92,1.32 -1.27,1.32 -0.3,0 -0.46,-0.4 -0.46,-1.2 0,-1.27 -0.72,-3.72 -2.17,-7.37 -1.46,-3.65 -2.49,-5.48 -3.1,-5.48 -0.42,0 -0.69,0.14 -0.8,0.41 -0.12,0.26 -0.46,0.4 -1.03,0.4 -0.65,0 -1.5,-0.48 -2.56,-1.44 -1.05,-0.95 -1.57,-1.72 -1.57,-2.29 0,-0.27 0.44,-1.14 1.32,-2.61 0.88,-1.47 1.43,-2.2 1.66,-2.2 2.14,0 4.06,1.27 5.76,3.81 1.7,2.54 2.9,5.86 3.58,9.94 0.08,0.42 0.12,0.67 0.12,0.75 0.07,0.11 0.13,0.11 0.17,0 0.04,-0.08 0.13,-0.33 0.29,-0.75 0.34,-2.44 1.18,-6.09 2.52,-10.94 1.45,-3.48 3.04,-5.22 4.76,-5.22 0.88,0 1.76,0.59 2.63,1.77 0.77,1.04 1.15,1.88 1.15,2.53zm-12.38 21.67c-1.34,3.02 -3.94,5.96 -7.8,8.82 -3.48,2.57 -6.67,4.5 -9.57,5.8 -0.61,0.3 -3.98,1.58 -10.09,3.84 -0.96,0.34 -1.61,0.51 -1.95,0.51 -0.15,0 -0.23,-0.04 -0.23,-0.11 0,-0.23 0.55,-0.69 1.66,-1.38 5.05,-2.83 12.19,-7.28 21.44,-13.36 2.33,-1.79 4.07,-3.4 5.22,-4.81 1.49,-1.8 2.33,-2.7 2.52,-2.7 0.04,0 0.06,0.04 0.06,0.12 0,0.27 -0.42,1.36 -1.26,3.27z"/>
  <path class="fil2" d="M278.04 503.13c-0.65,2.76 -2.59,4.83 -5.79,6.25 -3.21,1.41 -6.56,1.71 -10.05,0.87 -0.64,-0.15 -1.41,-0.47 -2.34,-0.97 -0.92,-0.49 -1.62,-0.8 -2.11,-0.91 -3.67,-0.88 -7.84,0.01 -12.48,2.67 -3.42,2.13 -6.85,4.24 -10.29,6.33 -1.98,0.86 -3.86,1.33 -5.65,1.42 -2.19,0.1 -3.43,0.12 -3.72,0.05 -0.08,-0.02 -0.11,-0.05 -0.1,-0.08 0.02,-0.11 0.91,-0.45 2.66,-1.02 1.63,-0.43 4.23,-1.44 7.79,-3.03 1.83,-1.09 4.51,-2.93 8.04,-5.5 2.47,-1.81 4.98,-3.26 7.52,-4.34 2.92,-1.23 5.46,-1.74 7.62,-1.54 -0.27,-0.02 1.02,0.31 3.88,0.99 2.08,-1.27 4.16,-2.52 6.26,-3.75 2.7,-1.44 4.78,-1.98 6.23,-1.64 2.23,0.54 3.07,1.94 2.53,4.2zm-2.21 1.13c-0.14,-1.06 -1.07,-1.79 -2.78,-2.2 -1.71,-0.41 -4.65,0.64 -8.82,3.14 0.35,0.16 0.75,0.29 1.2,0.4 1.78,0.43 3.84,0.45 6.17,0.06 2.16,-0.31 3.57,-0.78 4.23,-1.4z"/>
  <path class="fil2" d="M418.54 497.88c-3.82,3.44 -8.73,5.16 -14.73,5.16 -1.88,0 -3.41,-0.49 -4.59,-1.46 -1.18,-0.98 -1.77,-2.21 -1.77,-3.7 0,-2.64 1.1,-5.27 3.32,-7.91 2.18,-2.33 4.38,-4.66 6.59,-6.99 0.46,-0.5 0.33,-0.88 -0.4,-1.15 -1.64,-0.57 -3.4,-0.86 -5.27,-0.86 -1.04,0 -2.16,0.29 -3.39,0.86 -0.26,0.11 -0.44,0.13 -0.51,0.06 -0.08,-0.08 -0.06,-0.27 0.06,-0.58 0.76,-1.83 1.54,-3.05 2.35,-3.67 0.95,-0.76 2.42,-1.14 4.41,-1.14 4.47,0 6.71,1.09 6.71,3.26 0,1.65 -1.43,3.98 -4.3,7 -2.03,2.06 -4.05,4.15 -6.08,6.25 -0.88,1.15 -1.32,2.12 -1.32,2.92 0,1.84 2.07,2.76 6.19,2.76 3.79,0 7.88,-0.66 12.27,-1.95 1.23,-0.35 1.84,-0.44 1.84,-0.29 0,0.15 -0.46,0.63 -1.38,1.43z"/>
  <path class="fil2" d="M246.42 451.26c-6.38,0.76 -13.51,4.55 -19.89,11.57 -4.86,6.1 -9.72,12.2 -14.58,18.3 -4.58,5.4 -8.46,9.25 -11.64,11.54 -2.16,1.58 -6.31,3.81 -12.44,6.68 -5.3,2.47 -8.71,3.8 -10.23,3.98 -0.51,0.06 -0.78,-0.02 -0.8,-0.23 -0.07,-0.59 1.37,-2.05 4.33,-4.39 4.98,-3.9 7.6,-5.98 7.86,-6.23 4.22,-3.45 7.84,-6.75 10.84,-9.91 3.01,-3.15 7.89,-9.07 14.65,-17.75 6.01,-7.64 10.76,-13.1 14.27,-16.39 5.29,-4.9 11.25,-7.45 16.33,-8.05 3.95,-0.48 8.05,0.27 12.29,2.22 3.23,1.71 6.44,3.43 9.67,5.14 5.37,-11.39 9.16,-18.76 11.37,-22.11 5.83,-9.01 12,-13.91 18.49,-14.68 5.66,-0.68 11.07,1.04 16.23,5.17 4.36,3.49 6.71,6.69 7.06,9.59 0.12,1.05 -0.19,3.26 -0.92,6.62 -0.82,3.63 -1.68,6.14 -2.58,7.53 -2.01,3.15 -5.79,6.64 -11.33,10.47 -7.98,5.51 -16.45,8.81 -25.41,9.88 -3.37,0.4 -7.6,-0.05 -12.69,-1.35 -0.64,2.28 -0.85,4.38 -0.62,6.31 0.47,3.95 2.74,6.6 6.8,7.95 15.83,5.36 36.09,6.28 61,3.3 17.01,-2.04 39.06,-7.91 66.15,-17.63 18.23,-6.56 32.66,-12.37 43.27,-17.43l-24.56 -3.73c-2.28,-0.32 -3.78,-0.42 -4.5,-0.29 -0.58,0.1 -1.06,0.48 -1.46,1.14 -0.4,0.65 -1.23,0.98 -2.48,0.98 -4.23,0.33 -8.87,0.59 -13.92,0.79 -1.2,-0.15 -1.83,-0.5 -1.89,-1.05 -0.04,-0.29 0.09,-0.8 0.37,-1.53l2.69 -7.44c0.39,-1.08 1.01,-1.72 1.87,-1.94 6.13,-1.61 11.06,-2.53 14.79,-2.76 14.49,2.17 25.19,3.63 32.08,4.39 15.09,1.61 27.87,2.18 38.34,1.7 2.01,-0.09 3.04,0.09 3.1,0.57 0.01,0.14 -0.03,0.37 -0.14,0.68l-2.97 7.97c-0.3,0.84 -0.74,1.3 -1.32,1.37 0.04,-0.01 -1.45,0.1 -4.46,0.31 -3.01,0.21 -5.82,0.47 -8.43,0.79 -9.79,1.17 -17.78,3.12 -23.97,5.84 -50.2,22.2 -87.49,34.75 -111.86,37.67 -14.25,1.7 -26.57,2.13 -36.93,1.27 -7.24,-0.57 -14.98,-1.75 -23.47,-4.08 -6.31,-1.75 -9.95,-6.65 -10.92,-14.7 -0.45,-3.81 -0.23,-7.62 0.68,-11.45 -4.63,-2.64 -7.46,-4.2 -8.51,-4.66 -3.58,-1.64 -6.78,-2.28 -9.61,-1.94zm70.4 -19.85c-0.15,-1.27 -2.4,-3.19 -6.75,-5.76 -5.15,-3.06 -10.03,-4.31 -14.63,-3.76 -9.43,1.13 -17.8,10.07 -25.1,26.84 3.91,0.74 7.52,0.92 10.82,0.52 5.66,-0.68 11.54,-2.43 17.64,-5.25 4.77,-2.23 9.11,-4.81 13.03,-7.74 3.41,-2.54 5.08,-4.16 4.99,-4.85z"/>
  <path class="fil2" d="M464.29 380.2c-19.58,5.29 -43.57,9.85 -71.96,13.68 -38.61,5.29 -77.37,7.94 -116.28,7.94 -17.94,0 -43.32,-0.98 -76.15,-2.92 -35.21,-2.13 -55.21,-4.14 -60.01,-6.02 -14.47,-5.66 -29.86,-12.68 -46.15,-21.07 -7.05,-3.65 -10.58,-5.92 -10.58,-6.84 0,-0.42 0.58,-0.64 1.73,-0.64 1.89,0 5.5,0.58 10.85,1.74 6.63,1.46 13.26,2.91 19.89,4.37 12.7,2.5 25.78,4.5 39.21,6.02 22.38,2.5 37.82,4.05 46.33,4.65 22.8,1.65 50.28,2.47 82.45,2.47 54.72,0 105.64,-4.35 152.76,-13.05 11,-2 23.71,-5.04 38.12,-9.12 11.43,-3.22 19.34,-4.95 23.71,-5.19 1.1,-0.06 2.13,-0.09 3.1,-0.09 9.25,0 13.87,2.06 13.87,6.2 0,8.2 -5.23,18.81 -15.69,31.83 -4.5,5.1 -10.25,12.34 -17.24,21.7 -2.49,4.26 -4.1,6.39 -4.83,6.39 -0.25,-0.06 -0.37,-0.28 -0.37,-0.64 0,-1.22 0.86,-4.02 2.56,-8.39 2.55,-6.69 7.69,-14.38 15.41,-23.08 6.75,-7.66 10.12,-12.37 10.12,-14.13 0,-1.52 -3.1,-2.28 -9.3,-2.28 -4.99,0 -15.5,2.15 -31.55,6.47z"/>
  <path class="fil2" d="M356.92 356.89l4.23 -8.71c0.34,-0.66 0.69,-1 1.08,-1 0.55,0 2.93,1.44 7.14,4.32 4.2,2.88 6.31,4.56 6.31,5.06 0,1.88 -1.86,5.81 -5.56,11.79 -0.45,0.71 -0.92,0.91 -1.42,0.58 -3.65,-2.71 -7.77,-5.56 -12.36,-8.55 -1.55,3.48 -3.07,6.44 -4.57,8.88 -0.44,0.77 -0.91,0.97 -1.41,0.58 -4.14,-3.15 -8.43,-6.11 -12.86,-8.88 -0.22,-0.17 -0.22,-0.5 0,-0.99l5.31 -10.88c0.33,-0.66 0.69,-1 1.08,-1 0.5,0 2.52,1.2 6.06,3.57 3.54,2.38 5.87,4.13 6.97,5.23z"/>
  <path class="fil2" d="M247.38 421.69c-0.21,-0.15 -0.21,-0.46 0,-0.92l4.91 -10.08c0.31,-0.61 0.65,-0.92 1.01,-0.92 0.51,0 2.71,1.33 6.61,4 3.89,2.66 5.84,4.23 5.84,4.69 0,1.74 -1.72,5.38 -5.15,10.92 -0.41,0.71 -0.85,0.9 -1.31,0.54 -3.84,-2.93 -7.81,-5.67 -11.91,-8.23z"/>
  <path class="fil2" d="M397.76 141.57c-0.42,1.25 -1.04,2.67 -1.88,4.26 -3.17,2.65 -5.78,4.54 -7.81,5.68 -3.55,2 -7.09,3 -10.64,3 -1.81,0 -3.17,-0.19 -4.09,-0.57l-1.12 -5.59c-2.16,-2.75 -3.24,-5.39 -3.24,-7.93 0,-3.99 1.22,-7.06 3.66,-9.21 2.09,-1.83 4.69,-2.74 7.78,-2.74 4.11,0 7.78,1.35 11.01,4.06 0.54,0.45 0.81,0.75 0.81,0.92 0,0.11 -0.1,0.17 -0.31,0.17 -0.26,0 -0.67,-0.1 -1.23,-0.31 -2.17,-0.78 -4.09,-1.17 -5.77,-1.17 -2.46,0 -4.99,0.36 -7.57,1.1 -2.59,0.74 -4.48,1.64 -5.67,2.7 0,2.65 0.92,5.27 2.77,7.84 2.26,3.14 5.14,4.71 8.65,4.71 1.81,0 4.17,-0.83 7.09,-2.5 2.37,-1.36 4.56,-2.92 6.57,-4.67 0.42,-0.36 0.71,-0.54 0.9,-0.56 0.3,0 0.33,0.27 0.09,0.81z"/>
  <path class="fil2" d="M240.38 166.67c-2.05,0 -3.79,-1.61 -5.2,-4.82 -1.27,-2.82 -1.91,-5.77 -1.91,-8.85 0,-3.69 0.37,-6.64 1.09,-8.84 0.26,-0.79 0.47,-1.18 0.62,-1.18 0.24,0 0.3,0.5 0.17,1.49 -0.3,2.31 -0.45,4.3 -0.45,5.96 0,7.8 1.82,11.7 5.46,11.7 1.47,0 2.81,-1.14 4,-3.41 1.27,-2.73 2.53,-5.46 3.78,-8.18 1.12,-2.26 2.46,-4.16 4.03,-5.71 1.66,-1.64 3.17,-2.46 4.51,-2.46 1.29,0 2.69,1.4 4.2,4.22 1.42,2.63 2.76,4.25 4.03,4.85 1.62,0.76 4.51,1.44 8.38,2.04 4.94,0.75 10.65,1.12 17.13,1.12 10.26,0 20.88,-1.15 31.86,-3.44 11.14,-2.36 20.03,-5.35 26.68,-8.99 0.31,-0.17 0.53,-0.23 0.64,-0.2 0.13,0.06 0.17,0.26 0.11,0.62 -0.11,0.84 -0.16,1.58 -0.16,2.21 0,3.06 1.32,4.59 3.97,4.59 3.66,0 6.33,-1.11 7.81,-3.32 1.08,-1.6 1.62,-4.34 1.62,-8.2 0,-10.88 -0.46,-20.09 -1.4,-27.63 -0.45,-3.64 -1.01,-7.24 -1.71,-10.81 0.38,-2.35 0.73,-3.97 1.07,-4.87 0.15,-0.39 0.28,-0.59 0.39,-0.59 0.13,0 0.26,0.21 0.39,0.62 1.23,3.97 2.23,9.02 3,15.14 0.39,3.12 0.69,7.84 0.89,14.17 0.21,6.4 0.45,10.78 0.73,13.13 0.51,4.14 1.39,6.84 2.66,8.09 1.46,1.44 3,2.54 4.62,3.3l0 5.6c-2.43,-0.99 -4.29,-2.05 -5.6,-3.19 -2.03,-1.71 -3.38,-3.94 -4.03,-6.66 -0.32,4.09 -1.8,7.06 -4.45,8.93 -1.76,1.25 -3.82,1.89 -5.99,1.89 -1.75,0 -3.2,-0.62 -4.34,-1.85 -1.23,-1.32 -1.9,-3.18 -2.01,-5.57 -7.62,3.85 -16.76,6.94 -27.41,9.27 -10.27,2.24 -19.97,3.36 -29.12,3.36 -11.92,0 -20.6,-1.06 -25.73,-3.17 -1.66,-0.69 -3.1,-1.83 -4.31,-3.44 -0.13,-0.17 -0.92,-1.45 -2.38,-3.86 -0.73,-1.23 -1.44,-1.85 -2.13,-1.85 -2.09,0 -4.29,1.77 -6.61,5.32 -0.41,0.64 -1.14,2.28 -2.21,4.94 -1.06,2.66 -1.98,4.59 -2.77,5.78 -1.23,1.83 -2.54,2.75 -3.92,2.75z"/>
  <path class="fil2" d="M351.52 90.11c0,-1.79 -0.28,-3.27 -0.84,-4.42 0,-0.66 0.53,-2.21 1.57,-4.65 0.13,-0.3 0.24,-0.45 0.34,-0.45 0.11,0 0.24,0.16 0.39,0.47 0.3,0.64 0.99,2.39 2.07,5.27 1.14,2.98 1.8,4.82 1.99,5.51 0.15,0.53 0.22,0.92 0.22,1.18 0,0.82 -0.79,0.33 -2.38,-1.48 -0.18,-0.27 -0.28,-0.15 -0.28,0.33 0,0.17 0.41,5.91 1.23,17.22 0.83,11.31 1.24,17.67 1.24,19.09 0,4.35 -0.67,8.18 -1.99,11.48 -0.28,0.67 -0.5,1.16 -0.67,1.46l0 0c-0.26,0.44 -0.42,0.51 -0.48,0.19 -0.07,-0.33 -0.05,-1.04 0.09,-2.13 0.16,-1.49 0.25,-3.22 0.25,-5.2 0,-1.79 -0.46,-9.17 -1.37,-22.12 -0.92,-12.95 -1.38,-20.2 -1.38,-21.75z"/>
  <path class="fil2" d="M280.77 126.64c-0.42,3.51 -0.69,5.26 -0.84,5.26 -0.15,0 -0.43,-1.44 -0.84,-4.31 -0.71,-4.59 -4.11,-9.82 -10.19,-15.68 -7.47,-7.09 -12.92,-12.76 -16.35,-17.02 -0.9,-1.23 -2.09,-2.93 -3.59,-5.09 -0.48,-0.71 -0.99,-1.22 -1.51,-1.52 -0.3,-0.18 -0.45,-0.48 -0.45,-0.89l0 -3.75c0,-0.75 0.13,-1.12 0.39,-1.12 0.19,0 0.53,0.18 1.01,0.56l7.11 5.43c0.53,0.41 0.79,0.73 0.79,0.95 0,0.15 -0.21,0.22 -0.62,0.22 -0.59,0 -1.58,-0.15 -2.97,-0.44 1.16,1.56 3.98,4.62 8.46,9.18 3.25,3.25 6.49,6.47 9.74,9.69 6.61,6.71 9.91,12.46 9.91,17.24 0,0.45 -0.02,0.88 -0.05,1.29zm31.27 3.19c2.27,0 4.46,-0.83 6.55,-2.49 0.18,-0.15 1.04,-1.04 2.57,-2.66 1.42,-1.51 2.19,-2.27 2.3,-2.27 0.33,0 0.39,0.34 0.17,1.01 -0.3,0.88 -0.45,1.44 -0.45,1.71 0,0.63 0.27,1.36 0.81,2.18 0.71,1.08 1.64,1.62 2.8,1.62 3.06,0 5.68,-2.2 7.87,-6.6 0.22,-0.45 0.48,-0.68 0.78,-0.68 0.24,0 0.36,0.21 0.36,0.62 0,0.15 -0.02,0.39 -0.07,0.73 -0.04,0.33 -0.07,0.59 -0.07,0.75 0,1.29 0.4,2.34 1.2,3.14 0.79,0.8 1.8,1.2 3.03,1.2 1.79,0 3.68,-0.69 5.36,-2.07 0.48,-0.41 0.73,-1.91 0.73,-4.48 0,-1.57 -0.41,-7.87 -1.21,-18.9 -0.8,-11.03 -1.2,-17.53 -1.2,-19.51 0,-1.79 -0.28,-3.27 -0.84,-4.42 0,-0.64 0.52,-2.19 1.57,-4.65 0.11,-0.3 0.22,-0.45 0.33,-0.45 0.11,0 0.24,0.17 0.39,0.51 0.3,0.63 0.99,2.38 2.08,5.26 1.11,2.98 1.79,4.81 2.01,5.48 0.11,0.57 0.17,0.96 0.17,1.18 0,0.82 -0.79,0.34 -2.35,-1.45 -0.19,-0.27 -0.28,-0.15 -0.28,0.33 0,0.11 0.35,5.02 1.06,14.73 0.71,9.7 1.06,15.49 1.06,17.35 0,5.42 -0.96,9.67 -2.91,12.77 -1.64,2.61 -3.73,3.92 -5.97,3.92 -2.82,0 -4.83,-1.78 -6.05,-5.34 -0.14,-0.47 -0.31,-0.47 -0.5,0 -1.6,4.12 -3.87,6.18 -6.8,6.18 -2.99,0 -4.76,-1.88 -5.32,-5.65 -0.04,-0.32 -0.09,-0.48 -0.14,-0.48 -0.06,0.04 -0.17,0.2 -0.34,0.48 -0.71,1.17 -1.76,2.38 -3.16,3.61 -2.22,1.98 -4.42,2.97 -6.61,2.97 -2.42,0 -4.11,-0.73 -5.07,-2.19 -0.57,-0.91 -0.9,-2.27 -0.97,-4.06 -0.02,-0.2 -0.12,-0.31 -0.28,-0.31 -0.3,0 -0.6,0.18 -0.9,0.54 -1.87,2.16 -3.07,3.48 -3.61,3.95 -2.37,2.03 -4.95,3.05 -7.56,3.05 -2.8,0 -4.82,-1.09 -6.05,-3.25 -0.82,-1.42 -1.38,-3.72 -1.68,-6.89 -1.04,5.08 -2.05,8.31 -3.02,9.69 -2.2,3.17 -4.74,5.41 -7.62,6.72 -1.11,0.48 -3.04,1.08 -5.76,1.79 -2.73,0.71 -4.72,1.14 -5.99,1.29 -0.53,0.03 -0.79,-0.02 -0.79,-0.17 0,-0.15 0.25,-0.37 0.73,-0.67 2.54,-1.46 6.59,-3.89 12.15,-7.28 6.27,-4.11 9.41,-10.14 9.41,-18.09 0,-10.34 -0.49,-19.35 -1.46,-27.04 -0.26,-2.54 -0.78,-6.14 -1.57,-10.81 0.41,-2.68 0.73,-4.31 0.96,-4.87 0.14,-0.41 0.28,-0.62 0.39,-0.62 0.11,0 0.24,0.21 0.39,0.62 1.23,4 2.22,9.05 2.97,15.18 0.52,4.1 0.89,10.48 1.12,19.14 0.22,7.81 0.52,12.64 0.89,14.51 0.45,2.12 1.14,3.58 2.07,4.36 0.68,0.53 1.63,0.79 2.86,0.79 2.74,0 5.23,-0.72 7.28,-2.16 0.82,-0.58 2.68,-2.31 5.57,-5.21 0.35,-0.35 0.69,-0.53 1.01,-0.53 0.5,0 0.64,0.34 0.42,1.01 -0.23,0.67 -0.34,1.3 -0.34,1.88 0,1.28 0.53,2.28 1.6,2.99 1.01,0.67 2.31,1.01 3.92,1.01z"/>
  <path class="fil2" d="M263.58 124.37c0,-0.45 -0.87,-1.04 -2.61,-1.77 -1.73,-0.72 -3.01,-1.01 -3.83,-0.86 -0.3,0.07 -0.41,0.18 -0.34,0.33 0.3,0.82 0.93,2.18 1.91,4.09 2.53,-0.82 4.16,-1.42 4.87,-1.79zm-21.62 11.08c5.12,-4.03 10.03,-6.83 14.73,-8.4 -0.34,-0.56 -0.82,-1.49 -1.46,-2.8 -0.29,-0.63 -0.44,-1.4 -0.44,-2.29 0,-1.46 0.37,-2.69 1.11,-3.7 0.86,-1.23 2.15,-1.84 3.87,-1.84 1.34,0 3.27,0.87 5.76,2.63 2.65,1.79 3.98,3.28 3.98,4.48 -0.37,1.56 -0.84,3.04 -1.4,4.42 -2.13,0.63 -4.7,1.44 -7.73,2.41 0.12,1.71 -0.05,2.57 -0.5,2.57 -0.34,0 -0.69,-0.65 -1.06,-1.96 -1.38,0.49 -3.31,1.31 -5.77,2.47 -3.58,1.64 -6.29,3.19 -8.12,4.64 -2.8,2.21 -5.64,4.88 -8.51,8.01 -3.29,3.62 -5.19,5.66 -5.71,6.1 -1.79,1.61 -3.55,2.41 -5.26,2.41 -1.87,0 -3.51,-0.85 -4.93,-2.55 -1.42,-1.69 -2.13,-3.79 -2.13,-6.29 0,-3.48 1.42,-7.97 4.26,-13.5 0.29,-0.56 0.54,-0.84 0.72,-0.84 0.08,0 0.12,0.08 0.12,0.23 0,0.56 -0.62,2.49 -1.85,5.79 -1.23,3.3 -1.85,5.93 -1.85,7.87 0,1.45 0.35,2.64 1.06,3.55 0.71,0.92 1.72,1.37 3.03,1.37 1.79,0 3.75,-0.87 5.88,-2.63 1.12,-0.93 3.04,-2.91 5.76,-5.93 2.62,-2.88 4.76,-4.95 6.44,-6.22z"/>
  <path class="fil2" d="M306.54 168.1l1.43 -2.94c0.11,-0.22 0.23,-0.34 0.36,-0.34 0.19,0 0.99,0.49 2.41,1.46 1.42,0.97 2.13,1.54 2.13,1.71 0,0.63 -0.63,1.96 -1.88,3.97 -0.15,0.25 -0.31,0.31 -0.47,0.2 -1.24,-0.92 -2.63,-1.88 -4.18,-2.88 -0.52,1.17 -1.03,2.17 -1.54,2.99 -0.14,0.26 -0.3,0.33 -0.47,0.2 -1.4,-1.07 -2.85,-2.07 -4.34,-3 -0.07,-0.05 -0.07,-0.17 0,-0.33l1.79 -3.67c0.11,-0.23 0.23,-0.34 0.37,-0.34 0.16,0 0.85,0.4 2.04,1.21 1.19,0.8 1.98,1.39 2.35,1.76z"/>
  <path class="fil2" d="M292.5 100.26c14.41,-5.35 29.47,-10.93 45.18,-16.74 0.61,-0.23 0.97,-0.31 1.08,-0.23 0.16,0.11 0.12,0.44 -0.11,0.97 -0.69,1.68 -1.24,2.7 -1.66,3.04 -13.01,4.79 -28.25,10.71 -45.72,17.77l0 -2.02c0.34,-0.9 0.75,-1.82 1.23,-2.79z"/>
  <path class="fil2" d="M269.63 94.88c14.41,-5.35 29.47,-10.93 45.18,-16.74 0.61,-0.23 0.97,-0.31 1.08,-0.23 0.16,0.11 0.12,0.44 -0.11,0.97 -0.69,1.68 -1.24,2.7 -1.66,3.04 -13.01,4.79 -28.25,10.71 -45.72,17.77l0 -2.02c0.34,-0.9 0.75,-1.82 1.23,-2.79z"/>
  <path class="fil2" d="M241.09 174.66c8.26,-3.07 16.89,-6.27 25.89,-9.6 0.35,-0.13 0.56,-0.17 0.62,-0.13 0.09,0.07 0.07,0.25 -0.06,0.56 -0.4,0.96 -0.72,1.54 -0.96,1.74 -7.45,2.74 -16.18,6.14 -26.19,10.18l0 -1.16c0.19,-0.51 0.42,-1.04 0.7,-1.59z"/>
  <path class="fil2" d="M318.52 105.63c0,0.7 -0.15,1.44 -0.46,2.2 -0.42,0.97 -0.95,1.46 -1.6,1.46 -1.03,0 -1.77,-0.7 -2.2,-2.12 -0.49,1.81 -1.39,2.72 -2.69,2.72 -0.49,0 -0.91,-0.24 -1.28,-0.73 -0.41,-0.58 -0.62,-1.34 -0.62,-2.29l0 -2.22c0,-0.18 -0.12,-0.31 -0.37,-0.38 -0.24,-0.07 -0.36,-0.26 -0.36,-0.57 0,-0.49 0.2,-0.97 0.62,-1.44 0.38,-0.42 0.67,-0.63 0.87,-0.63 0.25,0 0.38,0.49 0.38,1.47 0,0.51 -0.04,0.93 -0.12,1.28 -0.08,0.34 -0.12,0.64 -0.12,0.89 0,0.53 0.1,1.04 0.32,1.52 0.25,0.57 0.57,0.85 0.95,0.85 0.49,0 0.95,-0.23 1.37,-0.67 0.43,-0.44 0.64,-0.96 0.64,-1.56 0,-0.35 -0.1,-0.93 -0.3,-1.77 -0.2,-0.83 -0.3,-1.34 -0.3,-1.54 0,-0.19 0.09,-0.47 0.27,-0.86 0.19,-0.39 0.32,-0.58 0.41,-0.58 0.17,0 0.38,0.55 0.64,1.65 0.26,1.11 0.39,1.92 0.39,2.45 0,1.52 0.59,2.28 1.77,2.28 0.51,0 0.82,-0.26 0.95,-0.76 -1.01,-1.78 -1.52,-3.13 -1.52,-4.08 0,-0.54 0.13,-1.02 0.41,-1.44 0.18,-0.28 0.3,-0.44 0.38,-0.46 0.07,0 0.12,0.18 0.16,0.55 0.05,0.5 0.14,0.92 0.24,1.25 0.02,0.03 0.27,0.66 0.74,1.87 0.29,0.72 0.43,1.28 0.43,1.66z"/>
  <path class="fil2" d="M242.43 111.45c0.29,-0.92 0.35,-1.84 0.19,-2.77 -0.19,-1.01 -0.65,-1.52 -1.38,-1.52 -0.35,0 -0.83,0.16 -1.43,0.5 -0.6,0.33 -0.91,0.66 -0.91,0.98 0,0.73 1.18,1.66 3.53,2.81zm-1.81 4.1c-2.96,-1.53 -4.43,-3.13 -4.43,-4.82 0,-2.03 0.93,-3.89 2.81,-5.58 1.87,-1.68 3.43,-2.3 4.67,-1.85 1.05,0.38 1.57,1.51 1.57,3.38 0,1.68 -0.35,3.58 -1.04,5.67 1.49,0.86 2.43,1.59 2.81,2.2 0,0.79 -0.67,2.14 -2,4.05 -0.39,-0.6 -1.29,-1.34 -2.72,-2.19 -1.65,2.29 -3.75,4.37 -6.3,6.24 -2.89,2.13 -5.54,3.74 -7.96,4.82 -0.51,0.25 -3.3,1.32 -8.39,3.19 -0.79,0.29 -1.32,0.43 -1.57,0.43 -0.13,0 -0.19,-0.03 -0.19,-0.09 0,-0.19 0.44,-0.57 1.33,-1.15 3.75,-2.22 7.52,-4.46 11.3,-6.72 4.51,-2.73 7.88,-5.26 10.11,-7.58z"/>
  <path class="fil2" d="M373.67 122.48c1.37,0 2.84,-0.23 4.43,-0.7 0.44,-0.12 0.66,-0.16 0.66,-0.1 0,0.05 -0.16,0.23 -0.5,0.51 -1.37,1.25 -3.15,1.87 -5.31,1.87 -0.68,0 -1.23,-0.18 -1.66,-0.53 -0.42,-0.35 -0.64,-0.8 -0.64,-1.34 0,-1.43 0.62,-2.93 1.84,-4.5 -1.07,-0.32 -1.61,-0.89 -1.61,-1.7 0,-0.69 0.43,-1.52 1.29,-2.48 0.86,-0.97 1.56,-1.45 2.08,-1.45 0.14,0 0.28,0.11 0.43,0.33 0.14,0.22 0.21,0.45 0.21,0.7 0,0.11 -0.14,0.37 -0.43,0.79 -0.29,0.41 -0.45,0.58 -0.48,0.5 -0.11,-0.43 -0.35,-0.65 -0.72,-0.65 -0.19,0 -0.43,0.17 -0.71,0.5 -0.29,0.33 -0.43,0.61 -0.43,0.83 0.35,0.56 0.93,0.85 1.76,0.85 0.28,0 0.71,-0.26 1.3,-0.77 0.35,-0.32 0.7,-0.64 1.06,-0.97 0.12,-0.1 0.18,0 0.18,0.29 0,0.63 -0.23,1.27 -0.7,1.92 -1.82,1.23 -3.17,2.64 -4.05,4.24 -0.17,0.31 -0.25,0.57 -0.25,0.81 0,0.7 0.75,1.05 2.25,1.05z"/>
  <path class="fil2" d="M352.67 429.7c18.47,-6.86 37.78,-14.01 57.93,-21.46 0.78,-0.3 1.24,-0.39 1.39,-0.3 0.2,0.15 0.15,0.57 -0.15,1.25 -0.88,2.16 -1.59,3.46 -2.13,3.9 -16.68,6.14 -36.22,13.74 -58.62,22.79l0 -2.6c0.43,-1.14 0.95,-2.33 1.58,-3.58z"/>
  <path class="fil2" d="M157.47 211.55c0,0.82 -1.05,2.7 -3.14,5.62 -2.35,3.27 -4.59,5.66 -6.71,7.19 -1.37,0.95 -5.89,2.44 -13.57,4.47 -1.11,0.28 -1.77,0.42 -1.98,0.41l0 -0.1c0.18,-0.18 0.63,-0.55 1.36,-1.12 0.98,-0.76 3.71,-2.32 8.19,-4.66 4.28,-2.29 6.79,-3.75 7.52,-4.38 0.13,-0.13 0.19,-0.26 0.19,-0.38 0,-1.02 -3.81,-1.53 -11.43,-1.53 -0.03,0 -1.49,0.07 -4.38,0.19 -0.62,0.03 -1.1,0.03 -1.45,-0.01l0 -1.66 2.6 -4.37c0.79,-1.34 2.24,-2.18 4.33,-2.53 0.76,-0.12 2.52,-0.19 5.28,-0.19 8.8,0 13.19,1.02 13.19,3.05z"/>
  <path class="fil2" d="M409.94 120.53c-0.25,1.16 -0.55,1.78 -0.91,1.85 -0.45,0.08 -0.65,-0.6 -0.6,-2.05 0.04,-1.27 -0.12,-2.87 -0.49,-4.8 -1.19,-6.29 -5.93,-11.88 -14.21,-16.78 -0.53,-0.32 -0.69,-0.8 -0.48,-1.45l1.34 -3.95c0.12,-0.35 0.41,-0.41 0.88,-0.17 7.94,3.85 12.76,10.24 14.46,19.18 0.52,2.79 0.53,5.51 0.01,8.17z"/>
  <path class="fil2" d="M517.82 276.62c0,-13 -5.39,-28.61 -16.16,-46.84 -2.38,-4.02 -9.49,-14.51 -21.32,-31.46 -8.3,-11.89 -14.35,-22.67 -18.15,-32.34 0,-0.53 0.47,-2.67 1.42,-6.42 0.9,-3.59 1.43,-5.55 1.59,-5.86 0.48,-0.96 0.87,-1.43 1.19,-1.43 0.32,0 0.69,0.4 1.11,1.19 4.33,8.13 11.99,20.5 22.98,37.09 10.46,15.74 17.57,27.34 21.32,34.79 8.35,16.59 12.52,32.1 12.52,46.52 0,19.81 -6.02,38.15 -18.07,55 -6.39,8.93 -13.58,15.22 -21.55,18.86 -3.17,1.48 -8.62,3.23 -16.33,5.23 -7.71,2.01 -13.39,3.17 -17.04,3.49 -1.48,0.16 -2.22,0.03 -2.22,-0.39 0,-0.38 0.72,-1.03 2.14,-1.99 7.03,-3.96 18.49,-10.83 34.4,-20.6 9.72,-6.29 17.41,-14.03 23.06,-23.22 6.08,-9.93 9.11,-20.48 9.11,-31.62z"/>
  <path class="fil2" d="M291.44 290.01c-2.59,-1.85 -7.44,-2.78 -14.52,-2.78 -2.6,0 -4.94,0.21 -7.03,0.63 4.41,2.96 7.67,5.63 9.8,7.99 3.66,-2.13 7.58,-4.08 11.75,-5.84zm152.97 10.74c0,4.44 3.31,6.67 9.94,6.67 5.74,0 10.45,-2.41 14.11,-7.23 2.36,-3.66 4.7,-7.32 7.02,-10.98 0.83,-0.93 1.52,-1.39 2.08,-1.39 0.65,0 0.97,0.51 0.97,1.53 0,0.42 -0.07,0.88 -0.21,1.39 -0.92,3.94 -1.38,5.72 -1.38,5.35 0,1.67 0.83,3.17 2.5,4.52 1.8,1.48 3.98,2.22 6.53,2.22 3.1,0 5.14,-0.83 6.12,-2.5 0,-0.14 -1.02,-1.92 -3.06,-5.35 0.32,-1.99 1.16,-5.17 2.5,-9.53 0.37,-1.34 0.79,-2.01 1.25,-2.01 0.37,0 0.86,0.42 1.46,1.25 1.95,2.69 2.92,5.82 2.92,9.38 0,5.75 -1.23,10.66 -3.68,14.74 -2.88,4.91 -6.95,7.36 -12.24,7.36 -3.7,0 -7.11,-2.75 -10.21,-8.27 -4.96,8.95 -11.47,13.42 -19.53,13.42 -8.57,0 -13.02,-4.17 -13.34,-12.51 -6.95,3.66 -14.67,6.88 -23.15,9.66 -12.46,4.12 -23.74,6.18 -33.84,6.18 -12.93,0 -22.39,-0.79 -27.62,-2.88 -0.93,-0.37 -1.81,-0.76 -2.64,-1.18 0,5.23 -0.61,9.26 -1.81,12.09 -0.65,1.49 -1.3,2.23 -1.95,2.23 -0.69,0 -1.92,-0.52 -3.68,-1.53 -5.51,-3.15 -9.31,-6.98 -11.4,-11.47 -1.2,-2.73 -2.08,-6.93 -2.64,-12.58 -0.09,-0.93 -0.23,-1.39 -0.41,-1.39 -0.24,0 -0.72,0.46 -1.46,1.39 -2.23,2.73 -4.43,5.47 -6.6,8.2 -4.04,3.8 -8.67,5.7 -13.91,5.7 -6.25,0 -10.86,-0.69 -14.15,-2.08 -4.12,-1.72 -9.69,-5.66 -16.68,-11.82 -8.8,5.93 -14.2,9.41 -16.19,10.43 -4.36,2.31 -9.02,3.27 -13.65,3.27 -8.25,0 -12.54,-4.78 -12.86,-14.32 0,-0.51 -0.23,-0.77 -0.7,-0.77 -0.73,0 -1.48,0.44 -2.22,1.32 -4.63,5.38 -7.62,8.65 -8.96,9.8 -5.89,5.05 -12.07,7.58 -18.56,7.58 -6.9,-0.03 -11.87,-2.72 -14.91,-8.06 -2.04,-3.43 -3.43,-9.32 -4.17,-17.66 -1.39,8.25 -2.78,13.44 -4.17,15.57 -1.67,2.59 -5.93,6.81 -12.79,12.65 -8.52,7.23 -16.95,13.16 -25.29,17.79 -10.84,6.12 -20.3,9.17 -28.36,9.17 -11.21,0 -19.22,-4.58 -24.04,-13.75 -3.15,-6.12 -4.73,-13.76 -4.73,-22.94 0,-10.47 1.76,-19.18 5.28,-26.13 1.3,-2.59 2.23,-3.89 2.78,-3.89 0.19,0 0.28,0.18 0.28,0.55 0,0.93 -0.37,2.32 -1.11,4.17 -2.69,7.33 -4.03,14.04 -4.03,20.16 0,6.58 1.39,12.23 4.17,16.96 4.35,7.41 11.72,11.12 22.1,11.12 10.84,0 23.72,-4.96 38.64,-14.88 11.58,-7.6 20.2,-14.78 25.85,-21.54 1.3,-1.58 2.13,-3.82 2.5,-6.74 0.37,-2.92 0.56,-9.29 0.56,-19.11 0,-23.26 -1.16,-44.07 -3.48,-62.41 -0.64,-6.3 -1.94,-15.24 -3.89,-26.83 1.02,-6.67 1.81,-10.7 2.36,-12.09 0.38,-1.02 0.7,-1.53 0.98,-1.53 0.28,0 0.6,0.51 0.97,1.53 3.06,9.91 5.51,22.47 7.37,37.67 1.29,10.19 2.22,26.04 2.78,47.53 0.55,19.37 1.3,31.37 2.22,36 1.11,5.28 2.83,8.9 5.14,10.84 1.65,1.29 3.98,1.93 6.99,1.95 6.76,0 12.72,-1.81 17.86,-5.42 2.04,-1.39 6.65,-5.68 13.83,-12.86 0.79,-0.79 1.6,-1.18 2.43,-1.18 0.88,0 1.32,0.44 1.32,1.32 0,0.42 -0.1,1.08 -0.31,1.98 -0.21,0.9 -0.31,1.61 -0.31,2.12 0,2.64 0.6,4.91 1.81,6.81 1.48,2.41 3.7,3.62 6.67,3.62 6.53,0 13.93,-2.3 21.85,-7.31 -2.5,-2.68 -5.59,-5.02 -9.25,-7.02 -3.28,-1.76 -5.74,-2.63 -7.36,-2.63 -3.34,0 -5.84,0.5 -7.51,1.52 -0.55,0.33 -1.04,0.49 -1.46,0.49 -0.55,0 -0.83,-0.3 -0.83,-0.9 0,-0.42 0.14,-0.93 0.42,-1.53l4.17 -9.73c0.74,-1.72 4.81,-3.41 12.23,-5.07 7.18,-1.63 13.97,-2.44 20.36,-2.44 12.51,0 22.42,2.76 29.74,8.27 1.86,1.39 2.78,2.37 2.78,2.92 0,0.37 -0.27,1.09 -0.83,2.16l-4.17 7.99c-4.31,1.57 -10.31,4.01 -18,7.3 4.31,4.12 10.38,6.18 18.53,6.18 7.09,0 13.19,-2.66 18.28,-7.99 2.83,-3.61 5.65,-7.21 8.48,-10.77 0.74,-0.65 1.37,-0.98 1.88,-0.98 0.74,0 1.36,0.88 1.87,2.64 1.81,6.21 7.14,11.42 15.99,15.64 4.4,2.09 13.98,2.88 27.97,2.88 19.45,0 39.91,-5.16 61.36,-15.49 0.88,-0.42 1.48,-0.63 1.81,-0.63 0.37,0 0.55,0.25 0.55,0.76 0,0.42 -0.13,1.23 -0.41,2.44 -0.28,1.2 -0.42,2.17 -0.42,2.92z"/>
  <path class="fil2" d="M207.11 348.79l3.51 -7.24c0.28,-0.55 0.57,-0.82 0.9,-0.82 0.45,0 2.43,1.19 5.92,3.58 3.49,2.39 5.24,3.79 5.24,4.2 0,1.57 -1.54,4.83 -4.62,9.79 -0.37,0.6 -0.75,0.76 -1.17,0.48 -3.03,-2.25 -6.46,-4.61 -10.27,-7.09 -1.28,2.89 -2.55,5.35 -3.79,7.37 -0.37,0.64 -0.76,0.8 -1.17,0.48 -3.45,-2.62 -7.01,-5.08 -10.68,-7.37 -0.19,-0.14 -0.19,-0.42 0,-0.83l4.41 -9.03c0.27,-0.55 0.57,-0.83 0.89,-0.83 0.42,0 2.09,0.99 5.04,2.97 2.94,1.97 4.87,3.42 5.79,4.34z"/>
  <path class="fil2" d="M317.98 194.93c0,-2.18 -0.34,-3.97 -1.02,-5.37 0,-0.8 0.64,-2.68 1.91,-5.65 0.16,-0.36 0.29,-0.54 0.41,-0.54 0.13,0 0.29,0.19 0.47,0.57 0.36,0.77 1.2,2.91 2.52,6.4 1.38,3.63 2.19,5.86 2.41,6.7 0.19,0.63 0.28,1.11 0.28,1.43 0,0.99 -0.97,0.39 -2.9,-1.8 -0.22,-0.32 -0.33,-0.19 -0.33,0.4 0,0.21 0.49,7.18 1.49,20.92 1,13.74 1.5,21.47 1.5,23.2 0,5.28 -0.81,9.93 -2.42,13.94 -0.34,0.82 -0.61,1.41 -0.81,1.77l0 0c-0.32,0.55 -0.51,0.63 -0.58,0.24 -0.09,-0.41 -0.06,-1.27 0.1,-2.58 0.2,-1.82 0.31,-3.93 0.31,-6.33 0,-2.18 -0.56,-11.13 -1.67,-26.87 -1.11,-15.74 -1.67,-24.55 -1.67,-26.43z"/>
  <path class="fil2" d="M302.59 226.1c-1.59,-4.81 -2.67,-9.31 -3.23,-13.49 -0.22,-1.62 -0.37,-2.62 -0.47,-3 -0.22,-0.87 -0.64,-1.73 -1.26,-2.57 0.43,-1.44 1.12,-3.45 2.06,-6.05 0.31,-0.75 0.59,-1.12 0.84,-1.12 0.22,0 0.61,0.37 1.17,1.12 2.47,3.44 4.55,6.51 6.23,9.23 0.69,1.13 1.03,1.92 1.03,2.39 0,0.34 -0.15,0.52 -0.47,0.52 -0.62,0 -1.74,-0.52 -3.37,-1.55 -0.15,0 -0.28,0.11 -0.37,0.33 0.56,2.03 1.46,4.82 2.71,8.38 2.81,8 4.22,13.82 4.22,17.47 0,3.66 -0.55,6.84 -1.64,9.56 -1.81,4.62 -4.95,6.93 -9.41,6.93 -4.75,0 -8.5,-2.06 -11.25,-6.18 -1.65,-2.47 -3.12,-6.17 -4.4,-11.1 -0.56,4.96 -2.14,9.24 -4.73,12.83 -3.19,4.34 -7.26,6.51 -12.22,6.51 -5.47,0 -9.3,-2.6 -11.48,-7.82 -1.22,-2.94 -1.83,-6.39 -1.83,-10.35 0,-5.25 0.63,-10.14 1.87,-14.66 0.35,-1.22 0.52,-2.03 0.52,-2.44 0,-0.22 -0.06,-0.33 -0.19,-0.33 -0.22,0 -0.72,0.61 -1.5,1.83 -1.21,1.9 -2.49,5.78 -3.84,11.62 -1.75,7.52 -2.89,12.07 -3.42,13.63 -0.71,2.15 -1.73,3.89 -3.04,5.2 -1.06,1.09 -1.98,1.64 -2.76,1.64 -3.5,0 -6.2,-2.22 -8.11,-6.65 -1.56,-3.69 -2.34,-8.14 -2.34,-13.36 0,-3.65 0.56,-7.61 1.69,-11.89 0.25,-0.97 0.5,-1.69 0.75,-2.16 0.34,-0.59 0.57,-0.67 0.7,-0.23 0.12,0.5 0.06,1.39 -0.19,2.67 -0.62,3.25 -0.94,6.23 -0.94,8.95 0,10.55 2.22,15.83 6.66,15.83 1.9,0 3.48,-1.42 4.73,-4.27 0.78,-1.78 1.73,-5.16 2.85,-10.16 1.28,-5.53 2.38,-9.57 3.28,-12.13 1.03,-2.94 2.31,-5.54 3.84,-7.82 1.66,-2.56 3.09,-3.84 4.31,-3.84 1,0 1.5,1.06 1.5,3.18 0,1.75 -0.5,5.3 -1.5,10.66 -1,5.35 -1.5,8.95 -1.5,10.79 0,4 0.84,7.12 2.51,9.37 1.67,2.25 3.99,3.37 6.96,3.37 5.37,0 9.4,-1.68 12.08,-5.05 2.12,-2.66 3.19,-5.94 3.19,-9.84 0,-3.75 -0.32,-7.37 -0.94,-10.87 -0.44,-2.46 -1.03,-4.81 -1.78,-7.02 -0.62,-1.94 -0.94,-2.85 -0.94,-2.72 0,-2.16 0.7,-5.09 2.11,-8.81 0.31,-0.81 0.56,-1.21 0.75,-1.21 0.22,0 0.58,0.53 1.08,1.59 2,4.15 3.57,10.52 4.73,19.11 1.09,8.02 2.66,13.76 4.71,17.21 2.04,3.45 5.16,5.18 9.34,5.18 3.5,0 5.79,-1.27 6.89,-3.8 0,-0.87 -0.74,-2.74 -2.21,-5.62 -1.87,-3.65 -3.2,-6.65 -3.98,-8.99z"/>
  <path class="fil2" d="M282.92 193.35c0,0.88 -0.19,1.78 -0.57,2.72 -0.52,1.2 -1.17,1.8 -1.98,1.8 -1.27,0 -2.17,-0.87 -2.71,-2.61 -0.6,2.24 -1.71,3.35 -3.32,3.35 -0.6,0 -1.12,-0.3 -1.57,-0.9 -0.51,-0.72 -0.77,-1.65 -0.77,-2.82l0 -2.74c0,-0.22 -0.15,-0.38 -0.45,-0.47 -0.3,-0.09 -0.46,-0.32 -0.46,-0.7 0,-0.61 0.26,-1.2 0.78,-1.78 0.47,-0.51 0.82,-0.77 1.07,-0.77 0.31,0 0.47,0.6 0.47,1.81 0,0.62 -0.05,1.15 -0.15,1.57 -0.1,0.43 -0.15,0.8 -0.15,1.11 0,0.65 0.13,1.27 0.4,1.87 0.31,0.7 0.7,1.04 1.17,1.04 0.6,0 1.17,-0.27 1.69,-0.82 0.53,-0.55 0.79,-1.19 0.79,-1.92 0,-0.43 -0.13,-1.15 -0.37,-2.18 -0.25,-1.03 -0.37,-1.66 -0.37,-1.91 0,-0.22 0.11,-0.57 0.34,-1.05 0.22,-0.48 0.39,-0.73 0.5,-0.73 0.2,0 0.46,0.69 0.79,2.05 0.32,1.36 0.48,2.37 0.48,3.01 0,1.88 0.73,2.82 2.18,2.82 0.62,0 1.01,-0.32 1.17,-0.94 -1.25,-2.19 -1.88,-3.86 -1.88,-5.03 0,-0.67 0.17,-1.26 0.51,-1.77 0.22,-0.36 0.38,-0.55 0.46,-0.57 0.09,0 0.16,0.22 0.21,0.67 0.06,0.63 0.16,1.14 0.3,1.54 0.02,0.04 0.32,0.81 0.9,2.31 0.36,0.89 0.54,1.58 0.54,2.04z"/>
  <path class="fil2" d="M254.08 261.9c-0.33,-0.73 -0.9,-1.27 -1.7,-1.61 0,0.71 -0.08,1.29 -0.23,1.73 0.1,0.02 0.72,0.11 1.86,0.27 0.06,0.01 0.11,0 0.13,-0.02 0.05,-0.05 0.03,-0.18 -0.06,-0.37zm-2.53 0c0.1,-0.37 0.1,-0.77 0,-1.2 -0.12,-0.46 -0.32,-0.7 -0.62,-0.7 -0.17,0 -0.4,0.15 -0.7,0.45 -0.29,0.3 -0.44,0.52 -0.44,0.68 0,0.36 0.59,0.62 1.76,0.77zm-1.9 -2.07c-0.23,-0.8 -0.18,-1.37 0.16,-1.7 0.26,-0.26 0.56,-0.39 0.91,-0.39 0.33,0 0.72,0.12 1.16,0.35 1.52,0.84 2.53,1.86 3.03,3.06 0.04,0.07 0.06,0.18 0.06,0.3 0,0.42 -0.13,0.9 -0.38,1.44 -0.26,0.54 -0.51,0.81 -0.76,0.81 -0.09,0 -0.8,-0.07 -2.13,-0.21 -0.67,0.92 -1.5,1.75 -2.49,2.49 -1.17,0.86 -2.25,1.51 -3.23,1.95 -0.21,0.11 -1.34,0.54 -3.4,1.3 -0.33,0.11 -0.54,0.17 -0.66,0.17 -0.05,0 -0.08,-0.01 -0.08,-0.04 0,-0.06 0.19,-0.22 0.56,-0.46 1.51,-0.89 3.02,-1.78 4.53,-2.67 1.73,-1.02 3.06,-1.98 4,-2.88 -1.2,-0.27 -1.8,-0.81 -1.8,-1.62 0,-0.67 0.18,-1.31 0.52,-1.9z"/>
  <path class="fil2" d="M393.58 257.24c-4.92,0 -7.37,-3.24 -7.37,-9.73 0,-4.94 1.03,-9.95 3.1,-15.05 0.45,-1.11 0.78,-1.66 0.99,-1.66 0.09,0.02 0.14,0.14 0.14,0.35 0,0.35 -0.11,0.9 -0.32,1.62 -1.43,5.06 -2.15,8.9 -2.15,11.53 0,1.98 0.59,3.49 1.76,4.55 0.99,0.9 2.2,1.34 3.64,1.34 3.12,0 9.13,-2.89 18.01,-8.67 8.06,-5.24 12.73,-8.48 14,-9.7 0.49,-0.47 0.74,-0.91 0.74,-1.34 0,-0.63 -0.61,-1.42 -1.83,-2.36 -1.51,-1.15 -3.94,-2.53 -7.3,-4.13 -3.67,-1.71 -6.41,-3.18 -8.22,-4.4 -3.17,-2.17 -5.94,-4.87 -8.32,-8.11 -0.3,-0.4 -0.94,-0.88 -1.9,-1.45 -0.54,-0.3 -0.81,-1.01 -0.81,-2.11l0 -4.27c0,-0.4 0.04,-0.66 0.14,-0.77 0.14,-0.17 0.52,-0.1 1.13,0.21l7.26 3.49c0.28,0.14 0.54,0.27 0.78,0.38l0 0c1.17,0.69 1.61,1.2 1.3,1.56 -0.35,0.4 -1.7,0.53 -4.06,0.38 2.69,2.66 6.2,5.01 10.55,7.06 5.31,2.51 8.46,4.12 9.45,4.83 2.32,1.62 3.49,4.4 3.49,8.35 0,0.83 -0.07,1.64 -0.21,2.44 -0.36,2.18 -0.78,3.72 -1.27,4.61 -0.36,0.66 -1.11,1.52 -2.26,2.58 -2.09,1.93 -6.6,5.19 -13.54,9.8 -8.63,5.78 -14.27,8.67 -16.92,8.67z"/>
  <path class="fil2" d="M381.8 200.8c-2.99,-0.04 -5.42,-0.88 -7.31,-2.54 -1.08,-0.94 -2.25,-2.51 -3.52,-4.72 -0.94,-1.7 -1.76,-2.54 -2.44,-2.54 -5.74,0 -15.12,4.88 -28.13,14.63l3.39 0c4.02,0 8.66,0.09 13.91,0.26 5.26,0.18 8.78,0.27 10.56,0.27 2.07,0 4.01,-0.06 5.82,-0.18 1.36,-0.09 2.04,0.05 2.04,0.42 0,0.05 0,0.09 0,0.11 -0.02,0.16 -0.1,0.45 -0.24,0.84l-1.73 4.66c-0.19,0.47 -0.56,0.79 -1.13,0.95 -5.03,1.39 -8.19,2.29 -9.48,2.72 -3.43,1.1 -6.87,2.5 -10.3,4.19 -4.68,2.28 -9.02,5.81 -13.04,10.58 -4.94,5.8 -7.41,11.55 -7.41,17.24 0,5.95 1.84,10.7 5.5,14.25 4.66,4.48 12.06,6.73 22.22,6.73 2.86,0 6.95,-0.14 12.27,-0.42 6.55,-0.38 11.42,-0.82 14.59,-1.31 0.73,-0.12 1.32,-0.18 1.77,-0.18 0.58,0 0.88,0.1 0.88,0.29 0,0.3 -0.77,0.74 -2.29,1.3 -2.14,0.8 -8.81,3.03 -20,6.7 -2.58,0.52 -4.87,0.78 -6.87,0.78 -20.31,0 -30.46,-7.73 -30.46,-23.17 0,-13.28 4.57,-24.01 13.71,-32.19 3.5,-3.12 7.11,-5.61 10.82,-7.44 -4.06,0 -8.09,-0.07 -12.07,-0.23 -3.99,-0.15 -7.61,-0.23 -10.88,-0.23 -1.67,0 -2.5,-0.19 -2.5,-0.56 0,-0.17 0.07,-0.44 0.21,-0.81 0.49,-1.58 1.15,-3.43 1.98,-5.57 0.42,-0.68 3.1,-2.41 8.13,-6.03 5.73,-4.09 11.08,-7.51 16.04,-10.26 6.42,-3.6 11.06,-5.39 13.93,-5.39 1.31,0 2.48,0.84 3.49,2.53 1.76,2.97 2.73,4.54 2.89,4.73 1.48,1.69 3.43,2.54 5.85,2.54l0 0.06c2.61,-0.03 4.34,-0.69 5.19,-1.97 0,-0.78 -0.47,-1.93 -1.41,-3.46 -0.42,-0.68 -0.63,-1.34 -0.63,-1.97 0,-0.35 0.45,-2.01 1.37,-4.97 0.16,-0.57 0.35,-0.85 0.57,-0.85 0.23,0 0.52,0.39 0.88,1.17 1.13,2.37 1.69,4.6 1.69,6.69 0,4.02 -0.87,7.19 -2.61,9.49 -1.48,1.95 -3.23,2.92 -5.25,2.92l0 -0.06z"/>
  <path class="fil2" d="M381.51 216.2c-0.08,-0.06 -0.08,-0.19 0,-0.39l2.08 -4.25c0.13,-0.26 0.27,-0.39 0.43,-0.39 0.21,0 1.14,0.56 2.79,1.69 1.64,1.12 2.47,1.78 2.47,1.98 0,0.73 -0.73,2.27 -2.18,4.61 -0.17,0.3 -0.36,0.38 -0.55,0.23 -1.63,-1.24 -3.3,-2.39 -5.04,-3.48z"/>
  <path class="fil2" d="M364.85 286.45l1.96 -4.02c0.15,-0.31 0.31,-0.46 0.49,-0.46 0.26,0 1.35,0.66 3.29,1.99 1.94,1.33 2.91,2.11 2.91,2.34 0,0.86 -0.85,2.67 -2.56,5.43 -0.21,0.33 -0.42,0.42 -0.65,0.27 -1.69,-1.25 -3.59,-2.57 -5.7,-3.94 -0.72,1.6 -1.42,2.97 -2.11,4.09 -0.2,0.36 -0.42,0.45 -0.65,0.27 -1.91,-1.46 -3.89,-2.82 -5.93,-4.1 -0.1,-0.07 -0.1,-0.23 0,-0.45l2.45 -5.02c0.15,-0.31 0.32,-0.46 0.49,-0.46 0.24,0 1.17,0.55 2.8,1.65 1.63,1.09 2.7,1.9 3.21,2.41z"/>
  <path class="fil2" d="M368.94 247.96c-2.08,1.88 -4.75,2.81 -8.02,2.81 -1.02,0 -1.85,-0.26 -2.49,-0.79 -0.65,-0.53 -0.97,-1.2 -0.97,-2.02 0,-1.43 0.6,-2.86 1.81,-4.3 1.18,-1.27 2.38,-2.54 3.59,-3.8 0.25,-0.27 0.17,-0.48 -0.22,-0.63 -0.9,-0.31 -1.85,-0.47 -2.87,-0.47 -0.56,0 -1.18,0.16 -1.84,0.47 -0.15,0.06 -0.24,0.08 -0.28,0.03 -0.04,-0.04 -0.03,-0.14 0.03,-0.31 0.41,-1 0.84,-1.66 1.28,-1.99 0.52,-0.42 1.32,-0.63 2.4,-0.63 2.43,0 3.65,0.59 3.65,1.78 0,0.89 -0.78,2.16 -2.34,3.8 -1.1,1.13 -2.2,2.26 -3.31,3.4 -0.47,0.63 -0.71,1.16 -0.71,1.59 0,1 1.12,1.5 3.36,1.5 2.06,0 4.29,-0.35 6.68,-1.06 0.66,-0.19 1,-0.24 1,-0.16 0,0.09 -0.25,0.35 -0.75,0.78z"/>
  <path class="fil2" d="M413.85 202.03c-0.09,-0.06 -0.09,-0.19 0,-0.39l2.08 -4.25c0.13,-0.26 0.27,-0.39 0.42,-0.39 0.22,0 1.15,0.56 2.79,1.69 1.65,1.12 2.47,1.78 2.47,1.98 0,0.74 -0.73,2.27 -2.17,4.61 -0.18,0.3 -0.36,0.38 -0.56,0.23 -1.62,-1.24 -3.3,-2.39 -5.03,-3.48z"/>
  <path class="fil2" d="M277.41 343.79c2.72,0 5.65,-0.47 8.8,-1.4 0.88,-0.25 1.32,-0.31 1.32,-0.2 0,0.11 -0.33,0.45 -0.99,1.02 -2.74,2.47 -6.26,3.71 -10.57,3.71 -1.34,0 -2.44,-0.35 -3.29,-1.05 -0.85,-0.7 -1.27,-1.59 -1.27,-2.66 0,-2.85 1.22,-5.84 3.66,-8.96 -2.14,-0.63 -3.21,-1.76 -3.21,-3.37 0,-1.38 0.86,-3.02 2.57,-4.94 1.71,-1.92 3.09,-2.88 4.13,-2.88 0.28,0 0.56,0.22 0.85,0.66 0.28,0.44 0.43,0.9 0.43,1.4 0,0.22 -0.29,0.74 -0.86,1.56 -0.58,0.82 -0.9,1.15 -0.95,0.99 -0.22,-0.85 -0.7,-1.28 -1.44,-1.28 -0.39,0 -0.86,0.33 -1.42,0.99 -0.56,0.66 -0.84,1.21 -0.84,1.65 0.68,1.12 1.85,1.68 3.49,1.68 0.55,0 1.42,-0.51 2.59,-1.52 0.69,-0.63 1.39,-1.28 2.1,-1.93 0.25,-0.2 0.37,0 0.37,0.57 0,1.26 -0.46,2.54 -1.4,3.83 -3.62,2.44 -6.3,5.25 -8.06,8.43 -0.33,0.6 -0.49,1.14 -0.49,1.6 0,1.4 1.49,2.1 4.48,2.1z"/>
  <path class="fil2" d="M151.73 154.2c0,0.57 -0.16,1.33 -0.47,2.27 -0.4,1.24 -0.87,1.86 -1.4,1.86 -0.22,0 -0.71,-0.48 -1.47,-1.43 -0.75,-0.96 -1.53,-1.44 -2.33,-1.44 -1.78,0 -3.43,4.21 -4.94,12.61 -0.67,3.65 -1.4,6.23 -2.2,7.74 -0.58,1.02 -1.07,1.54 -1.47,1.54 -0.35,0 -0.53,-0.47 -0.53,-1.41 0,-1.46 -0.85,-4.32 -2.54,-8.57 -1.69,-4.25 -2.89,-6.37 -3.6,-6.37 -0.49,0 -0.8,0.16 -0.93,0.47 -0.14,0.31 -0.54,0.46 -1.21,0.46 -0.75,0 -1.74,-0.55 -2.96,-1.66 -1.23,-1.12 -1.84,-2 -1.84,-2.67 0,-0.31 0.51,-1.33 1.54,-3.04 1.02,-1.71 1.66,-2.57 1.93,-2.57 2.49,0 4.73,1.48 6.7,4.44 1.98,2.96 3.37,6.82 4.17,11.58 0.09,0.48 0.14,0.77 0.14,0.86 0.09,0.14 0.15,0.14 0.2,0 0.04,-0.09 0.16,-0.38 0.33,-0.86 0.4,-2.85 1.38,-7.1 2.94,-12.74 1.69,-4.05 3.53,-6.08 5.53,-6.08 1.03,0 2.05,0.69 3.07,2.07 0.89,1.2 1.34,2.18 1.34,2.94zm-14.41 25.21c-1.56,3.52 -4.58,6.94 -9.08,10.28 -4.04,2.98 -7.75,5.22 -11.14,6.73 -0.71,0.36 -4.62,1.85 -11.74,4.47 -1.11,0.4 -1.87,0.61 -2.27,0.61 -0.17,0 -0.26,-0.05 -0.26,-0.14 0,-0.26 0.64,-0.8 1.93,-1.6 5.87,-3.29 14.19,-8.47 24.95,-15.54 2.71,-2.09 4.74,-3.96 6.07,-5.61 1.74,-2.09 2.72,-3.13 2.94,-3.13 0.04,0 0.07,0.04 0.07,0.13 0,0.31 -0.49,1.58 -1.47,3.8z"/>
  <path class="fil2" d="M99.32 282.3c0.23,-0.45 0.46,-0.79 0.68,-1.02 0.23,-0.15 0.34,-0.11 0.34,0.12 0.08,0.22 0.08,0.6 0,1.12 -2.03,11.04 -5.33,16.55 -9.91,16.55 -4.88,0 -7.32,-4.05 -7.32,-12.16 0,-9.98 2.89,-20.45 8.67,-31.41 1.43,-2.71 2.29,-4.09 2.59,-4.17 0.08,0 0.11,0.04 0.11,0.11 0,0.53 -0.41,2.07 -1.24,4.62 -3.75,11.41 -5.62,19.4 -5.62,23.98 0,6.23 1.68,9.35 5.06,9.35 1.96,0 4.17,-2.37 6.64,-7.09z"/>
  <path class="fil2" d="M475.01 234.42c0,0.82 -1.04,2.7 -3.14,5.62 -2.35,3.27 -4.58,5.66 -6.71,7.19 -1.36,0.95 -5.89,2.44 -13.57,4.47 -1.11,0.29 -1.77,0.42 -1.97,0.41l0 -0.1c0.17,-0.18 0.63,-0.55 1.35,-1.12 0.99,-0.76 3.72,-2.32 8.19,-4.66 4.29,-2.29 6.79,-3.75 7.52,-4.38 0.13,-0.13 0.19,-0.26 0.19,-0.38 0,-1.02 -3.8,-1.53 -11.42,-1.53 -0.03,0 -1.49,0.07 -4.38,0.19 -0.62,0.03 -1.11,0.03 -1.45,-0.01l0 -1.66 2.59 -4.37c0.79,-1.34 2.24,-2.18 4.33,-2.53 0.77,-0.12 2.53,-0.19 5.29,-0.19 8.79,0 13.18,1.02 13.18,3.05z"/>
  <path class="fil2" d="M447.67 336.84c-1.13,0.12 -1.78,0.16 -1.93,0.13 -0.04,0 -0.06,-0.02 -0.05,-0.04 0.01,-0.05 0.45,-0.26 1.34,-0.6 0.84,-0.27 2.15,-0.87 3.95,-1.8 0.94,-0.64 2.28,-1.68 4.03,-3.11 1.2,-0.99 2.44,-1.81 3.72,-2.45 1.57,-0.76 3.06,-1.02 4.46,-0.77 0.33,0.06 0.76,0.23 1.27,0.51 0.51,0.29 0.96,0.47 1.35,0.54 0.72,0.13 1.36,-0.04 1.9,-0.51 0.45,-0.48 0.9,-0.97 1.35,-1.45 0.32,-0.34 0.58,-0.5 0.78,-0.46 0.1,0.01 0.13,0.11 0.1,0.29 -0.05,0.25 -0.24,0.65 -0.58,1.19 -0.17,0.27 0.49,0.54 1.97,0.81 0.16,0.02 0.25,0 0.28,-0.07 0.03,-0.04 0.01,-0.42 -0.06,-1.16 -0.02,-0.21 0.11,-0.47 0.42,-0.8 0.51,-0.6 0.79,-0.85 0.86,-0.75 0.28,0.41 0.36,0.98 0.23,1.7 -0.1,0.6 -0.37,1.28 -0.8,2.03 -0.42,0.75 -0.78,1.19 -1.06,1.32 -0.75,0.33 -1.76,0.02 -3.04,-0.91 -1.39,1.02 -2.65,1.43 -3.78,1.23 -0.34,-0.06 -0.74,-0.23 -1.23,-0.5 -0.49,-0.26 -0.85,-0.42 -1.11,-0.47 -1.93,-0.34 -4.05,0.22 -6.37,1.7 -1.7,1.17 -3.41,2.33 -5.12,3.49 -1,0.51 -1.96,0.81 -2.88,0.91z"/>
  <path class="fil2" d="M397.79 189.4c8.91,-3.31 18.22,-6.76 27.94,-10.35 0.37,-0.14 0.6,-0.19 0.67,-0.14 0.09,0.07 0.07,0.27 -0.07,0.6 -0.43,1.04 -0.77,1.66 -1.03,1.88 -8.04,2.96 -17.46,6.62 -28.27,10.98l0 -1.25c0.21,-0.55 0.46,-1.12 0.76,-1.72z"/>
  <path class="fil2" d="M369.21 231.38c8.91,-3.31 18.22,-6.76 27.94,-10.35 0.37,-0.14 0.6,-0.19 0.67,-0.14 0.09,0.07 0.07,0.27 -0.07,0.6 -0.43,1.04 -0.77,1.66 -1.03,1.88 -8.04,2.96 -17.46,6.62 -28.27,10.98l0 -1.25c0.21,-0.55 0.46,-1.12 0.76,-1.72z"/>
  <path class="fil2" d="M348.72 173.61c0.2,-0.64 0.24,-1.28 0.13,-1.91 -0.13,-0.71 -0.45,-1.06 -0.95,-1.06 -0.24,0 -0.57,0.12 -0.99,0.35 -0.42,0.23 -0.63,0.45 -0.63,0.67 0,0.51 0.82,1.16 2.44,1.95zm-1.25 2.83c-2.04,-1.06 -3.06,-2.16 -3.06,-3.33 0,-1.4 0.64,-2.69 1.94,-3.85 1.29,-1.16 2.37,-1.59 3.22,-1.28 0.73,0.26 1.09,1.04 1.09,2.33 0,1.17 -0.24,2.47 -0.72,3.92 1.03,0.59 1.68,1.1 1.94,1.52 0,0.54 -0.46,1.48 -1.38,2.79 -0.27,-0.41 -0.89,-0.92 -1.88,-1.51 -1.14,1.58 -2.59,3.02 -4.35,4.31 -1.99,1.47 -3.82,2.58 -5.49,3.32 -0.35,0.18 -2.28,0.91 -5.79,2.21 -0.55,0.2 -0.91,0.3 -1.09,0.3 -0.09,0 -0.13,-0.03 -0.13,-0.07 0,-0.13 0.31,-0.39 0.92,-0.79 2.59,-1.54 5.19,-3.08 7.8,-4.64 3.12,-1.89 5.44,-3.63 6.98,-5.23z"/>
  <path class="fil2" d="M239.07 212.77c0.1,-0.2 0.2,-0.36 0.3,-0.46 0.11,-0.06 0.16,-0.05 0.16,0.05 0.03,0.1 0.03,0.27 0,0.51 -0.92,4.97 -2.4,7.45 -4.47,7.45 -2.2,0 -3.29,-1.82 -3.29,-5.47 0,-4.5 1.3,-9.22 3.9,-14.15 0.64,-1.22 1.03,-1.84 1.17,-1.88 0.03,0 0.05,0.02 0.05,0.05 0,0.24 -0.19,0.93 -0.56,2.08 -1.69,5.14 -2.53,8.74 -2.53,10.8 0,2.81 0.76,4.21 2.28,4.21 0.88,0 1.87,-1.06 2.99,-3.19z"/>
  <path class="fil2" d="M221.94 187.51c0,0.83 -1.05,2.7 -3.14,5.62 -2.35,3.27 -4.59,5.66 -6.72,7.19 -1.36,0.95 -5.88,2.44 -13.56,4.47 -1.11,0.29 -1.77,0.42 -1.98,0.41l0 -0.1c0.18,-0.18 0.63,-0.55 1.36,-1.12 0.98,-0.76 3.71,-2.31 8.19,-4.66 4.28,-2.29 6.79,-3.75 7.52,-4.38 0.13,-0.13 0.19,-0.26 0.19,-0.38 0,-1.02 -3.81,-1.53 -11.43,-1.53 -0.03,0 -1.49,0.07 -4.38,0.19 -0.62,0.03 -1.1,0.03 -1.45,0l0 -1.67 2.6 -4.37c0.79,-1.33 2.23,-2.18 4.33,-2.53 0.76,-0.12 2.52,-0.19 5.28,-0.19 8.79,0 13.19,1.02 13.19,3.05z"/>
  <path class="fil2" d="M198.75 244.28c2.44,0 4.64,1.45 6.58,4.36 1.94,2.9 3.31,6.69 4.09,11.36 0.09,0.49 0.14,0.77 0.14,0.86 0.08,0.13 0.15,0.13 0.19,0 0.05,-0.09 0.16,-0.37 0.33,-0.86 0.39,-2.79 1.36,-6.96 2.88,-12.51 1.66,-3.97 3.48,-5.96 5.44,-5.96 1.01,0 2.01,0.68 3.02,2.03 0.87,1.18 1.3,2.14 1.3,2.88 0,0.57 -0.15,1.31 -0.45,2.23 -0.4,1.22 -0.85,1.83 -1.38,1.83 -0.22,0 -0.7,-0.47 -1.44,-1.4 -0.74,-0.94 -1.51,-1.41 -2.29,-1.41 -1.75,0 -3.37,4.13 -4.85,12.38 -0.66,3.58 -1.38,6.12 -2.16,7.6 -0.57,1 -1.05,1.51 -1.45,1.51 -0.35,0 -0.52,-0.46 -0.52,-1.38 0,-1.44 -0.83,-4.25 -2.49,-8.42 -1.66,-4.17 -2.84,-6.26 -3.54,-6.26 -0.48,0 -0.78,0.16 -0.91,0.46 -0.13,0.31 -0.53,0.46 -1.18,0.46 -0.75,0 -1.72,-0.54 -2.92,-1.63 -1.2,-1.1 -1.8,-1.97 -1.8,-2.63 0,-0.3 0.5,-1.29 1.51,-2.98 1,-1.68 1.63,-2.52 1.9,-2.52z"/>
  <path class="fil2" d="M458.92 210.52c-0.38,0.92 -0.72,1.38 -1.03,1.38 -0.38,0 -0.44,-0.59 -0.17,-1.78 0.23,-1.03 0.34,-2.37 0.34,-4.01 0,-5.35 -3.02,-10.68 -9.06,-16 -0.38,-0.34 -0.44,-0.76 -0.17,-1.26l1.72 -3.04c0.16,-0.26 0.4,-0.26 0.75,0 5.92,4.4 8.88,10.4 8.88,18.01 0,2.37 -0.42,4.6 -1.26,6.7z"/>
  <path class="fil2" d="M109.09 238.09c-0.38,0.92 -0.72,1.37 -1.03,1.37 -0.38,0 -0.44,-0.59 -0.17,-1.77 0.23,-1.03 0.34,-2.37 0.34,-4.02 0,-5.35 -3.02,-10.68 -9.06,-15.99 -0.38,-0.35 -0.43,-0.76 -0.17,-1.26l1.72 -3.04c0.16,-0.27 0.4,-0.27 0.75,0 5.92,4.4 8.89,10.4 8.89,18 0,2.37 -0.43,4.61 -1.27,6.71z"/>
  <path class="fil2" d="M199.42 118.67c0,4.38 -1.8,9.36 -5.41,14.94 -3.69,5.85 -8.46,10.83 -14.31,14.95 -1.18,0.84 -2.12,1.46 -2.81,1.86l0 -1.57c0.42,-0.49 0.93,-1.06 1.52,-1.7 9.63,-10.48 14.44,-17.49 14.44,-21.01 0,-3.35 -1.54,-5.03 -4.64,-5.03 -1.72,0 -3.27,0.48 -4.64,1.42 -1.03,0.69 -1.67,1.07 -1.93,1.16 -0.17,-0.17 -0.39,-0.3 -0.65,-0.38 0.09,-0.35 0.26,-1.25 0.52,-2.71 1.55,-7.22 5.15,-10.83 10.83,-10.83 4.72,0 7.08,2.97 7.08,8.9z"/>
  <path class="fil2" d="M424.61 132.34c2.45,0 4.64,1.46 6.59,4.36 1.94,2.9 3.31,6.69 4.09,11.37 0.09,0.48 0.13,0.76 0.13,0.85 0.09,0.13 0.16,0.13 0.2,0 0.04,-0.09 0.15,-0.37 0.32,-0.85 0.4,-2.8 1.36,-6.97 2.89,-12.52 1.66,-3.97 3.47,-5.96 5.44,-5.96 1,0 2,0.68 3.01,2.03 0.87,1.18 1.31,2.14 1.31,2.89 0,0.56 -0.15,1.31 -0.46,2.22 -0.39,1.23 -0.85,1.84 -1.37,1.84 -0.22,0 -0.7,-0.47 -1.45,-1.41 -0.74,-0.94 -1.5,-1.41 -2.29,-1.41 -1.74,0 -3.36,4.13 -4.85,12.38 -0.65,3.58 -1.37,6.12 -2.16,7.6 -0.57,1.01 -1.05,1.51 -1.44,1.51 -0.35,0 -0.52,-0.46 -0.52,-1.38 0,-1.44 -0.83,-4.24 -2.49,-8.42 -1.66,-4.17 -2.84,-6.25 -3.54,-6.25 -0.48,0 -0.79,0.15 -0.92,0.46 -0.13,0.3 -0.52,0.46 -1.18,0.46 -0.74,0 -1.71,-0.55 -2.91,-1.64 -1.2,-1.1 -1.8,-1.97 -1.8,-2.62 0,-0.31 0.5,-1.3 1.5,-2.98 1.01,-1.69 1.64,-2.53 1.9,-2.53z"/>
  <path class="fil2" d="M497.13 267.21c0,-0.95 -1.7,-2.38 -5.11,-4.27 -1.04,1.99 -1.57,3.79 -1.57,5.4 0,1.01 0.48,1.52 1.43,1.52 0.85,0 1.83,-0.3 2.94,-0.89 1.11,-0.59 1.88,-1.17 2.31,-1.76zm-3.34 -8.74c3.44,2.52 5.04,5.04 4.81,7.56 -0.23,2.72 -0.6,4.42 -1.13,5.1 -1.5,2.03 -3.37,3.05 -5.59,3.05 -2.16,0 -3.24,-1.31 -3.24,-3.93 0,-0.59 0.06,-1.23 0.19,-1.91 0.36,-2.2 1.39,-5.3 3.1,-9.33 1.44,-3.43 2.16,-6.32 2.16,-8.64 0,-4.61 -2.13,-9.05 -6.38,-13.3 -0.33,-0.33 -0.38,-0.69 -0.15,-1.08l1.47 -2.6c0.13,-0.23 0.34,-0.23 0.64,0 4.25,3.5 6.38,8.52 6.38,15.07 0,3.07 -0.75,6.41 -2.26,10.01z"/>
  <path class="fil2" d="M348 463.02c-0.38,0.92 -0.72,1.38 -1.03,1.38 -0.38,0 -0.44,-0.59 -0.17,-1.78 0.23,-1.03 0.34,-2.37 0.34,-4.01 0,-5.35 -3.02,-10.69 -9.06,-16 -0.38,-0.34 -0.43,-0.76 -0.17,-1.26l1.72 -3.04c0.16,-0.26 0.4,-0.26 0.75,0 5.92,4.4 8.88,10.4 8.88,18 0,2.38 -0.42,4.61 -1.26,6.71z"/>
  <path class="fil2" d="M320.23 498.49c2.45,0 4.64,1.45 6.58,4.35 1.95,2.91 3.31,6.7 4.1,11.37 0.09,0.48 0.13,0.77 0.13,0.85 0.09,0.14 0.15,0.14 0.2,0 0.04,-0.08 0.15,-0.37 0.32,-0.85 0.4,-2.79 1.36,-6.96 2.89,-12.51 1.66,-3.98 3.47,-5.96 5.43,-5.96 1.01,0 2.01,0.67 3.02,2.03 0.87,1.18 1.31,2.14 1.31,2.88 0,0.57 -0.15,1.31 -0.46,2.23 -0.39,1.22 -0.85,1.83 -1.38,1.83 -0.22,0 -0.7,-0.47 -1.44,-1.41 -0.74,-0.93 -1.5,-1.4 -2.29,-1.4 -1.75,0 -3.36,4.12 -4.85,12.38 -0.65,3.58 -1.37,6.11 -2.16,7.6 -0.57,1 -1.05,1.5 -1.44,1.5 -0.35,0 -0.53,-0.45 -0.53,-1.37 0,-1.44 -0.83,-4.25 -2.49,-8.42 -1.65,-4.17 -2.83,-6.26 -3.53,-6.26 -0.48,0 -0.79,0.16 -0.92,0.46 -0.13,0.31 -0.52,0.46 -1.18,0.46 -0.74,0 -1.72,-0.54 -2.92,-1.64 -1.2,-1.09 -1.8,-1.96 -1.8,-2.62 0,-0.3 0.51,-1.3 1.51,-2.98 1,-1.68 1.64,-2.52 1.9,-2.52z"/>
  <path class="fil2" d="M421.49 285.43c-0.39,0.92 -0.73,1.38 -1.04,1.38 -0.38,0 -0.44,-0.6 -0.17,-1.78 0.23,-1.03 0.35,-2.37 0.35,-4.01 0,-5.35 -3.02,-10.69 -9.06,-16 -0.38,-0.34 -0.44,-0.76 -0.17,-1.26l1.72 -3.04c0.15,-0.27 0.4,-0.27 0.74,0 5.93,4.4 8.89,10.4 8.89,18 0,2.37 -0.42,4.61 -1.26,6.71z"/>
  <path class="fil2" d="M144.23 298.18c-0.38,0.92 -0.72,1.38 -1.03,1.38 -0.38,0 -0.44,-0.6 -0.17,-1.78 0.23,-1.03 0.34,-2.37 0.34,-4.01 0,-5.35 -3.02,-10.69 -9.06,-16 -0.38,-0.34 -0.44,-0.76 -0.17,-1.26l1.72 -3.04c0.15,-0.27 0.4,-0.27 0.75,0 5.92,4.4 8.88,10.4 8.88,18 0,2.37 -0.42,4.61 -1.26,6.71z"/>
 </g>
</svg>
