<?xml version="1.0" encoding="UTF-8"?>
<!DOCTYPE svg PUBLIC "-//W3C//DTD SVG 1.1//EN" "http://www.w3.org/Graphics/SVG/1.1/DTD/svg11.dtd">
<svg xmlns="http://www.w3.org/2000/svg" xml:space="preserve" width="600px" height="600px" version="1.1" style="shape-rendering:geometricPrecision; text-rendering:geometricPrecision; image-rendering:optimizeQuality; fill-rule:evenodd; clip-rule:evenodd"
viewBox="0 0 600 600"
 xmlns:xlink="http://www.w3.org/1999/xlink">
 <defs>
  <style type="text/css">
   <![CDATA[
    .fil0 {fill:#CC3399}
    .fil1 {fill:#F3F3EB}
    .fil3 {fill:white}
    .fil2 {fill:white;fill-rule:nonzero}
   ]]>
  </style>
 </defs>
 <g id="Layer_x0020_1">
  <metadata id="Wiki-Layer"/>
  <g id="_1323697513328">
   <polygon class="fil0" points="300,0 314.89,15.78 331.36,1.64 344.52,18.9 362.37,6.56 373.66,25.09 392.7,14.68 402,34.29 422.02,25.94 429.21,46.41 450,40.19 455.01,61.31 476.34,57.29 479.11,78.82 500.74,77.06 501.25,98.75 522.94,99.26 521.18,120.89 542.71,123.66 538.69,144.99 559.81,150 553.59,170.79 574.06,177.98 565.71,198 585.32,207.3 574.91,226.34 593.44,237.63 581.1,255.48 598.36,268.64 584.22,285.11 600,300 584.22,314.89 598.36,331.36 581.1,344.52 593.44,362.37 574.91,373.66 585.32,392.7 565.71,402 574.06,422.02 553.59,429.21 559.81,450 538.69,455.01 542.71,476.34 521.18,479.11 522.94,500.74 501.25,501.25 500.74,522.94 479.11,521.18 476.34,542.71 455.01,538.69 450,559.81 429.21,553.59 422.02,574.06 402,565.71 392.7,585.32 373.66,574.91 362.37,593.44 344.52,581.1 331.36,598.36 314.89,584.22 300,600 285.11,584.22 268.64,598.36 255.48,581.1 237.63,593.44 226.34,574.91 207.3,585.32 198,565.71 177.98,574.06 170.79,553.59 150,559.81 144.99,538.69 123.66,542.71 120.89,521.18 99.26,522.94 98.75,501.25 77.06,500.74 78.82,479.11 57.29,476.34 61.31,455.01 40.19,450 46.41,429.21 25.94,422.02 34.29,402 14.68,392.7 25.09,373.66 6.56,362.37 18.9,344.52 1.64,331.36 15.78,314.89 0,300 15.78,285.11 1.64,268.64 18.9,255.48 6.56,237.63 25.09,226.34 14.68,207.3 34.29,198 25.94,177.98 46.41,170.79 40.19,150 61.31,144.99 57.29,123.66 78.82,120.89 77.06,99.26 98.75,98.75 99.26,77.06 120.89,78.82 123.66,57.29 144.99,61.31 150,40.19 170.79,46.41 177.98,25.94 198,34.29 207.3,14.68 226.34,25.09 237.63,6.56 255.48,18.9 268.64,1.64 285.11,15.78 "/>
   <path class="fil1" d="M36.5 300c0,-145.53 117.97,-263.5 263.5,-263.5 145.53,0 263.5,117.97 263.5,263.5 0,145.53 -117.97,263.5 -263.5,263.5 -145.53,0 -263.5,-117.97 -263.5,-263.5zm263.5 -271c-149.67,0 -271,121.33 -271,271 0,149.67 121.33,271 271,271 149.67,0 271,-121.33 271,-271 0,-149.67 -121.33,-271 -271,-271z"/>
   <path class="fil1" d="M300 539.65c-132.36,0 -239.65,-107.29 -239.65,-239.65 0,-132.36 107.29,-239.65 239.65,-239.65 132.36,0 239.65,107.29 239.65,239.65 0,132.36 -107.29,239.65 -239.65,239.65zm0 -495.55c-141.33,0 -255.9,114.57 -255.9,255.9 0,141.33 114.57,255.9 255.9,255.9 141.33,0 255.9,-114.57 255.9,-255.9 0,-141.33 -114.57,-255.9 -255.9,-255.9z"/>
   <g>
    <path class="fil2" d="M223.12 219.03c-1.28,0.18 -2.02,0.25 -2.19,0.23 -0.05,-0.01 -0.07,-0.02 -0.07,-0.05 0.01,-0.06 0.52,-0.31 1.52,-0.74 0.94,-0.34 2.42,-1.07 4.44,-2.19 1.05,-0.77 2.54,-2 4.49,-3.71 1.34,-1.17 2.73,-2.15 4.17,-2.92 1.76,-0.93 3.45,-1.28 5.06,-1.04 0.38,0.05 0.87,0.23 1.46,0.54 0.6,0.3 1.12,0.49 1.57,0.55 0.83,0.12 1.55,-0.09 2.15,-0.64 0.5,-0.57 0.99,-1.14 1.49,-1.71 0.36,-0.4 0.65,-0.59 0.87,-0.56 0.11,0.02 0.15,0.13 0.12,0.33 -0.04,0.29 -0.24,0.75 -0.61,1.39 -0.18,0.31 0.57,0.6 2.28,0.85 0.18,0.02 0.28,-0.01 0.32,-0.09 0.03,-0.04 -0.01,-0.49 -0.12,-1.33 -0.03,-0.23 0.12,-0.54 0.45,-0.92 0.56,-0.7 0.88,-1 0.95,-0.9 0.35,0.47 0.46,1.11 0.34,1.94 -0.11,0.7 -0.39,1.48 -0.84,2.35 -0.46,0.87 -0.85,1.38 -1.18,1.54 -0.83,0.41 -2,0.1 -3.5,-0.92 -1.55,1.21 -2.97,1.73 -4.27,1.54 -0.38,-0.06 -0.86,-0.23 -1.42,-0.52 -0.56,-0.29 -0.99,-0.46 -1.28,-0.5 -2.22,-0.32 -4.63,0.4 -7.22,2.17 -1.9,1.39 -3.8,2.78 -5.72,4.17 -1.12,0.62 -2.21,1 -3.26,1.14z"/>
    <path class="fil2" d="M172.72 135.19c0,0.43 -0.54,1.4 -1.63,2.93 -1.23,1.7 -2.4,2.95 -3.5,3.74 -0.71,0.5 -3.07,1.28 -7.07,2.33 -0.58,0.15 -0.93,0.22 -1.03,0.22l0 -0.06c0.09,-0.09 0.32,-0.28 0.7,-0.58 0.52,-0.39 1.94,-1.21 4.27,-2.43 2.23,-1.19 3.54,-1.95 3.92,-2.28 0.07,-0.07 0.1,-0.13 0.1,-0.2 0,-0.53 -1.98,-0.79 -5.96,-0.79 -0.01,0 -0.77,0.03 -2.28,0.1 -0.32,0.01 -0.58,0.01 -0.75,-0.01l0 -0.87 1.35 -2.28c0.41,-0.69 1.16,-1.13 2.26,-1.31 0.39,-0.07 1.31,-0.1 2.75,-0.1 4.58,0 6.87,0.53 6.87,1.59z"/>
    <path class="fil2" d="M335.88 210.09c-0.53,1.6 -1.32,3.41 -2.4,5.44 -4.05,3.38 -7.38,5.8 -9.98,7.26 -4.53,2.55 -9.06,3.82 -13.59,3.82 -2.31,0 -4.05,-0.24 -5.22,-0.71l-1.43 -7.16c-2.77,-3.5 -4.15,-6.88 -4.15,-10.12 0,-5.1 1.56,-9.02 4.69,-11.76 2.67,-2.34 5.98,-3.51 9.94,-3.51 5.25,0 9.93,1.73 14.05,5.19 0.7,0.57 1.04,0.96 1.04,1.18 0,0.14 -0.13,0.21 -0.39,0.21 -0.33,0 -0.86,-0.13 -1.57,-0.39 -2.77,-1 -5.23,-1.5 -7.37,-1.5 -3.15,0 -6.38,0.47 -9.68,1.41 -3.3,0.94 -5.71,2.09 -7.24,3.45 0,3.39 1.18,6.72 3.54,10.01 2.89,4.01 6.57,6.01 11.05,6.01 2.32,0 5.33,-1.06 9.05,-3.18 3.03,-1.74 5.83,-3.73 8.41,-5.97 0.52,-0.46 0.9,-0.69 1.14,-0.72 0.38,0 0.42,0.35 0.11,1.04z"/>
    <path class="fil2" d="M134.83 242.15c-2.62,0 -4.84,-2.05 -6.65,-6.15 -1.62,-3.6 -2.43,-7.37 -2.43,-11.3 0,-4.73 0.46,-8.49 1.39,-11.31 0.33,-1 0.6,-1.5 0.79,-1.5 0.31,0 0.38,0.63 0.21,1.9 -0.38,2.95 -0.57,5.49 -0.57,7.61 0,9.97 2.32,14.95 6.97,14.95 1.89,0 3.59,-1.45 5.12,-4.36 1.62,-3.48 3.23,-6.96 4.83,-10.44 1.43,-2.89 3.14,-5.32 5.15,-7.3 2.12,-2.1 4.04,-3.15 5.76,-3.15 1.64,0 3.43,1.8 5.36,5.4 1.81,3.37 3.53,5.43 5.15,6.19 2.07,0.98 5.76,1.85 10.7,2.61 6.32,0.96 13.62,1.43 21.89,1.43 13.11,0 26.68,-1.46 40.7,-4.4 14.23,-3 25.6,-6.83 34.08,-11.48 0.41,-0.21 0.68,-0.29 0.83,-0.25 0.16,0.07 0.21,0.34 0.14,0.79 -0.14,1.07 -0.22,2.02 -0.22,2.83 0,3.9 1.7,5.86 5.08,5.86 4.68,0 8.09,-1.43 9.98,-4.24 1.38,-2.05 2.07,-5.54 2.07,-10.48 0,-13.9 -0.59,-25.67 -1.79,-35.3 -0.57,-4.65 -1.3,-9.25 -2.18,-13.8 0.48,-3.01 0.93,-5.08 1.36,-6.23 0.19,-0.5 0.36,-0.75 0.5,-0.75 0.17,0 0.33,0.26 0.5,0.79 1.58,5.08 2.85,11.53 3.83,19.35 0.5,3.98 0.88,10.01 1.14,18.09 0.26,8.18 0.58,13.77 0.93,16.78 0.65,5.29 1.78,8.74 3.4,10.33 1.86,1.84 3.83,3.25 5.9,4.22l0 7.16c-3.1,-1.27 -5.48,-2.63 -7.15,-4.08 -2.6,-2.19 -4.32,-5.03 -5.15,-8.51 -0.41,5.22 -2.3,9.02 -5.69,11.41 -2.24,1.59 -4.88,2.41 -7.65,2.41 -2.24,0 -4.09,-0.78 -5.54,-2.36 -1.57,-1.69 -2.43,-4.06 -2.57,-7.11 -9.73,4.91 -21.4,8.85 -35.02,11.83 -13.11,2.87 -25.51,4.3 -37.19,4.3 -15.24,0 -26.32,-1.35 -32.88,-4.05 -2.12,-0.88 -3.96,-2.34 -5.51,-4.39 -0.16,-0.22 -1.18,-1.86 -3.04,-4.94 -0.93,-1.57 -1.83,-2.36 -2.72,-2.36 -2.67,0 -5.48,2.26 -8.44,6.79 -0.52,0.82 -1.46,2.92 -2.82,6.32 -1.36,3.4 -2.54,5.86 -3.54,7.38 -1.58,2.34 -3.24,3.51 -5.01,3.51z"/>
    <path class="fil2" d="M276.82 144.34c0,-2.29 -0.36,-4.17 -1.08,-5.65 0,-0.83 0.67,-2.81 2.01,-5.93 0.16,-0.39 0.31,-0.58 0.43,-0.58 0.14,0 0.31,0.21 0.5,0.61 0.38,0.81 1.26,3.05 2.64,6.72 1.46,3.82 2.3,6.17 2.54,7.05 0.19,0.67 0.29,1.17 0.29,1.5 0,1.05 -1.01,0.42 -3.04,-1.89 -0.24,-0.34 -0.36,-0.19 -0.36,0.43 0,0.21 0.52,7.54 1.57,21.99 1.05,14.45 1.58,22.58 1.58,24.4 0,5.55 -0.85,10.44 -2.54,14.66 -0.36,0.86 -0.65,1.48 -0.86,1.86l0 0c-0.33,0.57 -0.54,0.65 -0.61,0.25 -0.09,-0.43 -0.06,-1.34 0.11,-2.72 0.22,-1.91 0.32,-4.13 0.32,-6.65 0,-2.29 -0.58,-11.71 -1.75,-28.26 -1.17,-16.54 -1.75,-25.81 -1.75,-27.79z"/>
    <path class="fil2" d="M186.42 191.01c-0.52,4.48 -0.88,6.73 -1.07,6.73 -0.19,0 -0.55,-1.84 -1.07,-5.51 -0.91,-5.87 -5.25,-12.55 -13.02,-20.03 -9.54,-9.06 -16.5,-16.31 -20.89,-21.75 -1.14,-1.57 -2.67,-3.74 -4.58,-6.51 -0.62,-0.9 -1.26,-1.55 -1.93,-1.93 -0.38,-0.24 -0.57,-0.62 -0.57,-1.14l0 -4.79c0,-0.96 0.17,-1.43 0.5,-1.43 0.24,0 0.67,0.23 1.29,0.71l9.08 6.94c0.67,0.52 1,0.93 1,1.22 0,0.18 -0.26,0.28 -0.78,0.28 -0.77,0 -2.03,-0.19 -3.79,-0.57 1.47,2 5.07,5.91 10.8,11.73 4.15,4.15 8.29,8.27 12.44,12.38 8.44,8.58 12.66,15.92 12.66,22.03 0,0.57 -0.02,1.12 -0.07,1.64zm39.95 4.08c2.91,0 5.7,-1.06 8.37,-3.18 0.24,-0.19 1.33,-1.33 3.29,-3.4 1.81,-1.93 2.79,-2.9 2.93,-2.9 0.43,0 0.5,0.43 0.22,1.29 -0.38,1.12 -0.58,1.85 -0.58,2.18 0,0.81 0.35,1.74 1.04,2.79 0.91,1.38 2.1,2.07 3.58,2.07 3.91,0 7.26,-2.81 10.05,-8.44 0.29,-0.57 0.62,-0.85 1,-0.85 0.31,0 0.47,0.26 0.47,0.78 0,0.19 -0.03,0.5 -0.09,0.93 -0.06,0.43 -0.09,0.75 -0.09,0.97 0,1.64 0.5,2.98 1.52,4 1.01,1.03 2.3,1.54 3.88,1.54 2.29,0 4.69,-0.89 6.84,-2.65 0.62,-0.52 0.93,-2.43 0.93,-5.72 0,-2.01 -0.51,-10.05 -1.54,-24.14 -1.02,-14.1 -1.54,-22.4 -1.54,-24.93 0,-2.29 -0.35,-4.18 -1.07,-5.65 0,-0.81 0.67,-2.79 2,-5.94 0.15,-0.38 0.29,-0.57 0.43,-0.57 0.15,0 0.31,0.21 0.5,0.64 0.38,0.81 1.27,3.05 2.65,6.73 1.43,3.81 2.29,6.15 2.57,7.01 0.15,0.71 0.22,1.21 0.22,1.5 0,1.05 -1,0.43 -3.01,-1.86 -0.23,-0.34 -0.35,-0.19 -0.35,0.43 0,0.14 0.45,6.41 1.36,18.81 0.9,12.4 1.36,19.79 1.36,22.17 0,6.92 -1.24,12.36 -3.72,16.31 -2.1,3.34 -4.77,5.01 -7.63,5.01 -3.6,0 -6.18,-2.27 -7.73,-6.83 -0.19,-0.59 -0.4,-0.59 -0.64,0 -2.05,5.27 -4.95,7.91 -8.69,7.91 -3.82,0 -6.08,-2.41 -6.8,-7.23 -0.05,-0.4 -0.11,-0.61 -0.18,-0.61 -0.07,0.05 -0.21,0.26 -0.43,0.61 -0.9,1.5 -2.25,3.04 -4.04,4.62 -2.84,2.52 -5.65,3.79 -8.44,3.79 -3.1,0 -5.26,-0.93 -6.47,-2.79 -0.74,-1.17 -1.16,-2.9 -1.25,-5.19 -0.03,-0.26 -0.15,-0.39 -0.36,-0.39 -0.38,0 -0.76,0.22 -1.15,0.68 -2.38,2.76 -3.92,4.44 -4.61,5.04 -3.03,2.6 -6.32,3.9 -9.66,3.9 -3.57,0 -6.15,-1.38 -7.72,-4.15 -1.05,-1.81 -1.77,-4.74 -2.15,-8.8 -1.33,6.49 -2.62,10.61 -3.86,12.38 -2.81,4.05 -6.06,6.91 -9.73,8.58 -1.43,0.62 -3.88,1.38 -7.36,2.29 -3.49,0.91 -6.04,1.45 -7.66,1.64 -0.67,0.05 -1,-0.02 -1,-0.21 0,-0.19 0.31,-0.48 0.93,-0.86 3.24,-1.86 8.42,-4.96 15.52,-9.3 8.01,-5.24 12.02,-12.94 12.02,-23.1 0,-13.21 -0.62,-24.73 -1.86,-34.55 -0.33,-3.24 -1,-7.84 -2,-13.81 0.52,-3.43 0.93,-5.5 1.21,-6.22 0.19,-0.52 0.36,-0.79 0.5,-0.79 0.15,0 0.31,0.27 0.5,0.79 1.58,5.1 2.84,11.56 3.79,19.39 0.67,5.24 1.15,13.4 1.44,24.46 0.28,9.97 0.66,16.14 1.14,18.53 0.57,2.71 1.45,4.57 2.65,5.57 0.86,0.67 2.07,1.01 3.64,1.01 3.51,0 6.68,-0.92 9.3,-2.76 1.05,-0.74 3.42,-2.95 7.12,-6.65 0.45,-0.45 0.88,-0.68 1.29,-0.68 0.64,0 0.82,0.43 0.53,1.29 -0.28,0.86 -0.43,1.66 -0.43,2.39 0,1.65 0.69,2.92 2.04,3.83 1.29,0.86 2.96,1.29 5.01,1.29z"/>
    <path class="fil2" d="M164.46 188.11c0,-0.57 -1.11,-1.32 -3.33,-2.25 -2.21,-0.93 -3.85,-1.3 -4.9,-1.11 -0.38,0.09 -0.52,0.24 -0.42,0.43 0.38,1.05 1.19,2.79 2.43,5.22 3.24,-1.05 5.31,-1.81 6.22,-2.29zm-27.61 14.16c6.53,-5.15 12.8,-8.72 18.81,-10.73 -0.43,-0.71 -1.05,-1.9 -1.86,-3.57 -0.38,-0.81 -0.57,-1.79 -0.57,-2.94 0,-1.86 0.48,-3.43 1.43,-4.72 1.1,-1.57 2.74,-2.36 4.94,-2.36 1.71,0 4.17,1.12 7.36,3.36 3.39,2.29 5.08,4.2 5.08,5.73 -0.47,2 -1.07,3.88 -1.79,5.65 -2.71,0.81 -6,1.83 -9.87,3.07 0.15,2.2 -0.07,3.29 -0.64,3.29 -0.43,0 -0.88,-0.83 -1.36,-2.5 -1.76,0.62 -4.22,1.67 -7.37,3.15 -4.58,2.09 -8.03,4.07 -10.37,5.93 -3.58,2.82 -7.2,6.23 -10.87,10.23 -4.2,4.63 -6.63,7.23 -7.3,7.8 -2.29,2.05 -4.53,3.08 -6.72,3.08 -2.39,0 -4.48,-1.09 -6.3,-3.26 -1.81,-2.17 -2.71,-4.85 -2.71,-8.05 0,-4.43 1.81,-10.18 5.43,-17.24 0.38,-0.71 0.69,-1.07 0.93,-1.07 0.1,0 0.14,0.1 0.14,0.29 0,0.71 -0.78,3.18 -2.36,7.4 -1.57,4.22 -2.36,7.57 -2.36,10.05 0,1.86 0.46,3.38 1.36,4.54 0.91,1.17 2.2,1.76 3.87,1.76 2.28,0 4.79,-1.12 7.51,-3.36 1.43,-1.2 3.88,-3.72 7.36,-7.59 3.34,-3.67 6.08,-6.32 8.23,-7.94z"/>
    <path class="fil2" d="M219.35 243.98l1.82 -3.75c0.15,-0.29 0.3,-0.43 0.47,-0.43 0.24,0 1.26,0.62 3.08,1.86 1.81,1.24 2.71,1.96 2.71,2.18 0,0.81 -0.8,2.5 -2.39,5.08 -0.19,0.31 -0.4,0.39 -0.61,0.25 -1.57,-1.17 -3.35,-2.4 -5.33,-3.69 -0.67,1.51 -1.32,2.78 -1.97,3.83 -0.19,0.33 -0.39,0.42 -0.61,0.25 -1.78,-1.36 -3.63,-2.64 -5.54,-3.83 -0.09,-0.07 -0.09,-0.21 0,-0.43l2.29 -4.68c0.14,-0.29 0.3,-0.43 0.46,-0.43 0.22,0 1.09,0.51 2.62,1.54 1.52,1.02 2.52,1.77 3,2.25z"/>
    <path class="fil2" d="M201.42 157.31c18.4,-6.84 37.64,-13.97 57.71,-21.39 0.78,-0.29 1.24,-0.39 1.39,-0.29 0.19,0.15 0.14,0.56 -0.15,1.24 -0.88,2.15 -1.59,3.44 -2.12,3.89 -16.62,6.11 -36.08,13.68 -58.4,22.7l0 -2.59c0.42,-1.14 0.95,-2.32 1.57,-3.56z"/>
    <path class="fil2" d="M172.2 150.44c18.41,-6.84 37.64,-13.97 57.71,-21.39 0.78,-0.29 1.24,-0.39 1.39,-0.29 0.19,0.14 0.15,0.56 -0.15,1.24 -0.88,2.15 -1.58,3.44 -2.12,3.88 -16.62,6.12 -36.08,13.69 -58.4,22.7l0 -2.58c0.42,-1.14 0.95,-2.33 1.57,-3.56z"/>
    <path class="fil2" d="M234.66 164.17c0,0.9 -0.2,1.84 -0.59,2.81 -0.54,1.25 -1.22,1.87 -2.05,1.87 -1.32,0 -2.26,-0.9 -2.81,-2.7 -0.63,2.31 -1.77,3.46 -3.44,3.46 -0.62,0 -1.16,-0.31 -1.63,-0.93 -0.53,-0.74 -0.79,-1.71 -0.79,-2.92l0 -2.84c0,-0.23 -0.16,-0.39 -0.47,-0.49 -0.31,-0.09 -0.47,-0.33 -0.47,-0.73 0,-0.62 0.27,-1.23 0.8,-1.83 0.48,-0.54 0.85,-0.8 1.11,-0.8 0.32,0 0.48,0.62 0.48,1.87 0,0.65 -0.05,1.19 -0.15,1.63 -0.11,0.44 -0.16,0.82 -0.16,1.15 0,0.67 0.14,1.32 0.42,1.94 0.32,0.72 0.73,1.08 1.21,1.08 0.63,0 1.21,-0.29 1.75,-0.86 0.55,-0.56 0.82,-1.23 0.82,-1.99 0,-0.44 -0.13,-1.19 -0.38,-2.25 -0.26,-1.07 -0.38,-1.73 -0.38,-1.98 0,-0.23 0.11,-0.6 0.34,-1.09 0.23,-0.5 0.41,-0.75 0.52,-0.75 0.21,0 0.48,0.71 0.82,2.12 0.33,1.41 0.5,2.45 0.5,3.12 0,1.94 0.75,2.91 2.26,2.91 0.64,0 1.05,-0.32 1.21,-0.97 -1.29,-2.27 -1.94,-4 -1.94,-5.2 0,-0.7 0.17,-1.31 0.52,-1.84 0.23,-0.37 0.39,-0.57 0.48,-0.59 0.1,0 0.17,0.23 0.21,0.69 0.07,0.65 0.17,1.18 0.31,1.6 0.03,0.04 0.34,0.84 0.94,2.39 0.37,0.93 0.56,1.63 0.56,2.12z"/>
    <path class="fil2" d="M137.45 171.61c0.36,-1.18 0.44,-2.36 0.24,-3.54 -0.24,-1.3 -0.83,-1.95 -1.77,-1.95 -0.44,0 -1.05,0.22 -1.82,0.64 -0.77,0.43 -1.16,0.85 -1.16,1.25 0,0.94 1.5,2.13 4.51,3.6zm-2.32 5.24c-3.77,-1.95 -5.66,-4 -5.66,-6.16 0,-2.6 1.2,-4.97 3.59,-7.13 2.4,-2.15 4.39,-2.94 5.97,-2.37 1.34,0.49 2.01,1.93 2.01,4.33 0,2.15 -0.45,4.56 -1.34,7.24 1.91,1.1 3.11,2.03 3.59,2.81 0,1.01 -0.85,2.74 -2.55,5.17 -0.49,-0.77 -1.65,-1.7 -3.47,-2.8 -2.12,2.92 -4.8,5.59 -8.05,7.98 -3.69,2.72 -7.08,4.77 -10.17,6.15 -0.65,0.33 -4.22,1.69 -10.72,4.08 -1.01,0.37 -1.68,0.55 -2.01,0.55 -0.16,0 -0.24,-0.04 -0.24,-0.12 0,-0.24 0.57,-0.73 1.7,-1.46 4.8,-2.84 9.61,-5.71 14.44,-8.59 5.77,-3.49 10.07,-6.72 12.91,-9.68z"/>
    <path class="fil2" d="M307.54 184.25c3.11,0 6.48,-0.53 10.1,-1.6 1,-0.29 1.51,-0.36 1.51,-0.24 0,0.13 -0.38,0.52 -1.13,1.18 -3.15,2.84 -7.19,4.25 -12.13,4.25 -1.54,0 -2.8,-0.4 -3.78,-1.2 -0.97,-0.81 -1.46,-1.82 -1.46,-3.05 0,-3.27 1.4,-6.7 4.2,-10.28 -2.45,-0.73 -3.68,-2.02 -3.68,-3.87 0,-1.58 0.98,-3.46 2.95,-5.67 1.97,-2.2 3.55,-3.3 4.74,-3.3 0.32,0 0.64,0.25 0.97,0.76 0.33,0.5 0.5,1.03 0.5,1.6 0,0.25 -0.34,0.85 -1,1.79 -0.66,0.95 -1.02,1.32 -1.08,1.14 -0.25,-0.98 -0.8,-1.47 -1.65,-1.47 -0.44,0 -0.99,0.38 -1.63,1.14 -0.65,0.75 -0.97,1.38 -0.97,1.88 0.79,1.29 2.13,1.94 4.01,1.94 0.63,0 1.62,-0.58 2.98,-1.75 0.78,-0.72 1.58,-1.46 2.4,-2.22 0.29,-0.22 0.43,0 0.43,0.66 0,1.45 -0.54,2.92 -1.61,4.39 -4.15,2.8 -7.23,6.03 -9.25,9.68 -0.37,0.69 -0.56,1.3 -0.56,1.84 0,1.6 1.71,2.4 5.14,2.4z"/>
   </g>
   <path class="fil2" d="M322.49 91.87c0,3.99 -1.65,8.52 -4.93,13.6 -3.36,5.31 -7.69,9.84 -13.01,13.59 -1.08,0.76 -1.93,1.32 -2.56,1.69l0 -1.43c0.38,-0.44 0.85,-0.96 1.39,-1.55 8.75,-9.53 13.13,-15.9 13.13,-19.1 0,-3.05 -1.41,-4.58 -4.22,-4.58 -1.57,0 -2.97,0.44 -4.22,1.3 -0.94,0.62 -1.52,0.97 -1.76,1.05 -0.15,-0.15 -0.35,-0.27 -0.59,-0.35 0.08,-0.31 0.24,-1.13 0.47,-2.46 1.41,-6.56 4.69,-9.84 9.85,-9.84 4.3,0 6.45,2.69 6.45,8.08z"/>
   <path class="fil2" d="M399.14 133.64c3.56,0 6.75,2.11 9.58,6.33 2.82,4.22 4.81,9.74 5.95,16.53 0.13,0.7 0.19,1.11 0.19,1.24 0.13,0.19 0.22,0.19 0.29,0 0.06,-0.13 0.22,-0.54 0.47,-1.24 0.58,-4.07 1.97,-10.13 4.19,-18.19 2.42,-5.79 5.05,-8.67 7.91,-8.67 1.46,0 2.92,0.98 4.39,2.95 1.26,1.71 1.9,3.11 1.9,4.19 0,0.82 -0.22,1.91 -0.67,3.24 -0.57,1.78 -1.23,2.67 -2,2.67 -0.32,0 -1.01,-0.69 -2.09,-2.05 -1.08,-1.37 -2.2,-2.05 -3.34,-2.05 -2.54,0 -4.89,6 -7.05,18.01 -0.95,5.2 -2,8.89 -3.14,11.05 -0.83,1.46 -1.53,2.19 -2.1,2.19 -0.51,0 -0.76,-0.67 -0.76,-2 0,-2.1 -1.21,-6.18 -3.62,-12.25 -2.41,-6.06 -4.13,-9.09 -5.14,-9.09 -0.7,0 -1.15,0.22 -1.34,0.66 -0.19,0.45 -0.76,0.67 -1.71,0.67 -1.08,0 -2.5,-0.79 -4.24,-2.38 -1.75,-1.59 -2.62,-2.86 -2.62,-3.81 0,-0.45 0.73,-1.89 2.19,-4.34 1.46,-2.44 2.38,-3.66 2.76,-3.66z"/>
   <path class="fil2" d="M372.4 128.76c-0.52,1.26 -0.99,1.88 -1.41,1.88 -0.52,0 -0.6,-0.81 -0.23,-2.42 0.31,-1.41 0.46,-3.24 0.46,-5.48 0,-7.31 -4.12,-14.59 -12.36,-21.84 -0.53,-0.47 -0.6,-1.04 -0.24,-1.72l2.35 -4.15c0.21,-0.37 0.55,-0.37 1.02,0 8.09,6 12.13,14.19 12.13,24.58 0,3.23 -0.57,6.28 -1.72,9.15z"/>
   <path class="fil2" d="M268.46 88.06c-0.13,0.6 -0.47,1.36 -1,2.26 -0.7,1.2 -1.33,1.74 -1.88,1.62 -0.23,-0.05 -0.63,-0.66 -1.2,-1.82 -0.57,-1.17 -1.27,-1.84 -2.1,-2.02 -1.85,-0.41 -4.52,3.59 -7.99,11.98 -1.52,3.64 -2.87,6.16 -4.05,7.55 -0.83,0.93 -1.45,1.35 -1.87,1.26 -0.37,-0.08 -0.45,-0.6 -0.24,-1.58 0.34,-1.52 0.11,-4.68 -0.69,-9.48 -0.79,-4.8 -1.56,-7.28 -2.3,-7.44 -0.51,-0.11 -0.87,-0.02 -1.08,0.27 -0.2,0.3 -0.66,0.37 -1.35,0.22 -0.83,-0.18 -1.82,-1.04 -2.96,-2.57 -1.15,-1.54 -1.5,-2.55 -1.05,-3.03 2.93,-3.43 4.55,-5.11 4.88,-5.04 2.58,0.57 4.57,2.61 5.96,6.13 1.39,3.52 1.96,7.85 1.71,12.98 -0.02,0.53 -0.04,0.84 -0.06,0.93 0.06,0.16 0.13,0.18 0.21,0.05 0.07,-0.09 0.25,-0.36 0.54,-0.83 1.07,-2.87 3.05,-7.06 5.94,-12.58 2.68,-3.82 5.05,-5.51 7.14,-5.06 1.06,0.24 1.97,1.18 2.72,2.85 0.65,1.45 0.89,2.57 0.72,3.35zm-71.32 16.05l0.21 -0.97c0.35,-0.15 0.79,-0.32 1.31,-0.51 6.9,-2.08 16.72,-5.58 29.47,-10.5 5.29,-2.53 8.82,-4.81 10.57,-6.85 0.65,-0.78 1.12,-1.14 1.4,-1.08 0.08,0.07 0.1,0.17 0.07,0.31 -0.15,0.7 -1.17,2.14 -3.05,4.35 -3.12,3.63 -7.04,6.51 -11.76,8.62 -4.88,2.18 -9.25,3.68 -13.11,4.48 -0.76,0.17 -5.17,0.84 -13.22,1.99 -0.8,0.1 -1.43,0.16 -1.89,0.16z"/>
   <path class="fil2" d="M384.29 281.22c-3.2,-2.32 -9.03,-3.48 -17.5,-3.48 -3.58,0 -6.9,0.31 -9.98,0.94 5.65,3.76 10.01,7.37 13.09,10.82 3.19,-2.07 7.99,-4.83 14.39,-8.28zm86.86 43.95c-8.16,0 -13.83,-2.45 -17.03,-7.34 -1.95,-3.08 -3.05,-7.63 -3.3,-13.65 -0.06,-0.69 -0.37,-1.03 -0.94,-1.03 -1,0 -2,0.59 -3.01,1.79 -6.27,7.27 -10.32,11.7 -12.13,13.26 -7.97,6.84 -15.98,10.16 -24.76,10.16 -14.62,0 -29.2,-6.43 -43.76,-19.29 -10.47,6.65 -19.51,14.87 -27.1,24.65 10.29,1.57 26.98,2.36 50.07,2.36 22.52,0 37.45,1.56 44.78,4.7 5.21,2.26 9.48,5.96 12.8,11.11 3.64,5.7 5.46,12.35 5.46,19.95 0,20.2 -8.5,38.39 -25.5,54.57 -16.75,15.87 -35.26,23.81 -55.52,23.81 -36.51,0 -54.77,-20.2 -54.77,-60.6 0,-14.93 2.27,-28.92 6.78,-41.97 -2.01,-0.5 -3.98,-1.13 -5.93,-1.88 -20.39,-8.47 -31.31,-21.84 -34.63,-39.65 -1.2,7.71 -3.64,13.83 -7.35,18.34 -3.38,4.21 -7.43,6.31 -11.44,6.31 -10.1,0 -16.88,-3.86 -20.33,-11.57 -1.75,-3.96 -2.63,-8.82 -2.63,-14.59 0,-0.5 -0.22,-0.66 -0.66,-0.47 -46.23,21.7 -84.91,32.56 -116.03,32.56 -19.56,0 -33.71,-5.18 -42.43,-15.53 -6.09,-7.28 -9.13,-16.43 -9.13,-27.47 0,-11.74 2.79,-22.65 8.38,-32.75 1.82,-3.26 3.04,-4.9 3.67,-4.9 0.25,0.07 0.37,0.32 0.37,0.76 0,1.06 -0.47,2.91 -1.41,5.55 -1.38,3.64 -2.76,7.24 -4.14,10.82 -1.44,4.64 -2.16,9.6 -2.16,14.87 0,6.65 3.26,12.64 9.78,17.97 9.6,7.91 24.56,11.86 44.89,11.86 29.23,0 66.15,-10.01 110.75,-30.02 2.51,-1.13 4.14,-1.69 4.89,-1.69 0.82,0 1.23,0.5 1.23,1.5 0,0.57 -0.1,1.32 -0.28,2.26 -0.38,2.45 -0.57,4.67 -0.57,6.68 0,10.23 5.27,15.34 15.81,15.34 9.41,0 14.46,-4.21 14.46,-12.61 0,-2.01 -0.88,-7.06 -2.64,-15.15 -1.81,-8.6 -3.63,-15.71 -5.45,-21.36 -0.88,-2.76 -1.32,-4.24 -1.32,-4.42 0,-7.09 0.97,-12.77 2.91,-17.03 0.82,-1.76 1.39,-2.64 1.7,-2.64 0.31,0 0.78,0.6 1.41,1.79 4.33,8.28 8.22,22.39 11.67,42.34 3.64,20.96 13.24,35.8 30.68,44.08 2.51,1.19 6.78,2.85 12.8,4.99 2.76,-5.34 7.15,-11.42 13.17,-18.26 5.21,-5.9 9.95,-10.57 14.21,-14.02 -4.58,-4.64 -9.44,-8.56 -14.58,-11.76 -4.58,-2.89 -7.94,-4.33 -10.07,-4.33 -2.38,0 -6.05,1.51 -11.01,4.52 -0.82,0.5 -1.47,0.75 -1.98,0.75 -1.06,0 -1.25,-1.13 -0.56,-3.39l4.33 -14.11c0.87,-2.83 5.83,-5.73 14.86,-8.71 9.04,-2.98 17.69,-4.47 25.98,-4.47 9.53,0 18.5,1.17 26.91,3.48 7.09,2.01 12.42,4.37 16,7.06 2.82,2.13 3.69,4.42 2.63,6.87 -1.19,3.83 -3.07,8.03 -5.65,12.61 -4.83,2.2 -12.51,6.02 -23.05,11.48 2.51,2.63 6.59,4.94 12.23,6.92 5.65,1.97 11.14,2.96 16.47,2.96 9.22,0 16.91,-2.31 23.81,-7.15 2.76,-1.94 9,-7.77 18.73,-17.5 1.19,-1.19 2.32,-1.79 3.39,-1.79 1.69,0 2.16,1.13 1.41,3.39 -0.76,2.26 -1.13,4.36 -1.13,6.31 0,4.32 1.79,7.68 5.36,10.06 3.39,2.26 7.78,3.39 13.18,3.39 7.78,0 14.21,-3.26 19.28,-9.79 3.2,-4.89 6.4,-9.81 9.6,-14.77 1.13,-1.25 2.07,-1.88 2.83,-1.88 0.87,0 1.31,0.69 1.31,2.07 0,0.57 -0.09,1.19 -0.28,1.88 -1.25,5.34 -1.88,7.75 -1.88,7.25 0,2.26 1.29,4.45 3.86,6.59 2.76,2.31 5.86,3.48 9.31,3.48 4.21,0 6.97,-1.13 8.28,-3.39 0,-0.44 -0.59,-1.22 -1.78,-2.35 -1.19,-1.13 -1.79,-1.98 -1.79,-2.54 0,-0.76 1.32,-5.18 3.95,-13.27 0.44,-1.38 0.91,-2.07 1.41,-2.07 1.19,0 2.39,1.69 3.58,5.08 1,2.95 1.5,5.17 1.5,6.68 0,7.84 -1.54,14.46 -4.61,19.85 -3.83,6.72 -9.47,10.07 -16.94,10.07 -5.27,0 -10.19,-4.04 -14.77,-12.13 -6.71,12.1 -15.53,18.16 -26.44,18.16zm-140.4 24.08c-5.4,12.49 -8.09,24.59 -8.09,36.32 0,30.56 17.15,45.83 51.47,45.83 11.42,0 23.12,-3.04 35.1,-9.13 10.73,-5.46 19.76,-12.2 27.1,-20.23 7.34,-8.03 11.01,-15.02 11.01,-20.98 0,-5.09 -1.79,-9.89 -5.37,-14.4 -4.01,-5.02 -9.44,-8.5 -16.28,-10.45 -7.59,-2.13 -26.85,-3.2 -57.77,-3.2 -11.17,0 -23.56,-1.25 -37.17,-3.76z"/>
   <path class="fil2" d="M485.09 245.15l4.8 -9.88c0.37,-0.75 0.78,-1.13 1.22,-1.13 0.63,0 3.33,1.63 8.09,4.89 4.77,3.27 7.16,5.18 7.16,5.75 0,2.13 -2.11,6.58 -6.31,13.36 -0.5,0.81 -1.04,1.03 -1.6,0.66 -4.14,-3.08 -8.82,-6.31 -14.02,-9.7 -1.76,3.96 -3.48,7.31 -5.18,10.07 -0.5,0.88 -1.03,1.1 -1.6,0.66 -4.7,-3.57 -9.56,-6.93 -14.58,-10.07 -0.25,-0.18 -0.25,-0.56 0,-1.12l6.02 -12.33c0.38,-0.76 0.79,-1.14 1.22,-1.14 0.57,0 2.86,1.35 6.87,4.05 4.02,2.7 6.65,4.68 7.91,5.93zm-16.94 -19.19c-0.25,-0.19 -0.25,-0.57 0,-1.14l6.02 -12.32c0.38,-0.75 0.78,-1.13 1.22,-1.13 0.63,0 3.33,1.63 8.1,4.89 4.77,3.26 7.15,5.18 7.15,5.74 0,2.14 -2.1,6.59 -6.31,13.37 -0.5,0.87 -1.03,1.09 -1.6,0.65 -4.7,-3.57 -9.56,-6.93 -14.58,-10.06z"/>
   <path class="fil2" d="M271.71 364.57l4.8 -9.88c0.37,-0.75 0.78,-1.13 1.22,-1.13 0.63,0 3.33,1.63 8.09,4.9 4.77,3.26 7.15,5.17 7.15,5.74 0,2.13 -2.1,6.58 -6.3,13.36 -0.5,0.81 -1.04,1.04 -1.6,0.66 -4.14,-3.08 -8.81,-6.31 -14.02,-9.69 -1.76,3.95 -3.48,7.3 -5.18,10.07 -0.5,0.87 -1.03,1.09 -1.6,0.65 -4.7,-3.57 -9.56,-6.93 -14.58,-10.06 -0.25,-0.19 -0.25,-0.57 0,-1.13l6.02 -12.33c0.38,-0.76 0.79,-1.13 1.22,-1.13 0.57,0 2.86,1.35 6.87,4.04 4.02,2.7 6.65,4.68 7.91,5.93z"/>
   <path class="fil2" d="M144.33 363.85c-0.26,-0.19 -0.26,-0.57 0,-1.13l6.01 -12.33c0.38,-0.75 0.79,-1.13 1.23,-1.13 0.63,0 3.32,1.63 8.09,4.89 4.77,3.27 7.15,5.18 7.15,5.74 0,2.14 -2.1,6.59 -6.3,13.37 -0.5,0.87 -1.04,1.1 -1.6,0.66 -4.71,-3.58 -9.57,-6.93 -14.58,-10.07z"/>
   <path class="fil2" d="M372.97 389.2c3.12,0 6.48,-0.54 10.1,-1.61 1.01,-0.28 1.51,-0.36 1.51,-0.23 0,0.12 -0.38,0.52 -1.13,1.18 -3.15,2.83 -7.19,4.24 -12.13,4.24 -1.54,0 -2.8,-0.4 -3.77,-1.2 -0.98,-0.8 -1.47,-1.82 -1.47,-3.04 0,-3.28 1.4,-6.7 4.2,-10.29 -2.45,-0.72 -3.68,-2.02 -3.68,-3.87 0,-1.57 0.99,-3.46 2.95,-5.66 1.97,-2.21 3.55,-3.31 4.74,-3.31 0.32,0 0.64,0.25 0.97,0.76 0.33,0.5 0.5,1.04 0.5,1.6 0,0.25 -0.33,0.85 -0.99,1.8 -0.67,0.94 -1.03,1.32 -1.09,1.13 -0.25,-0.98 -0.8,-1.46 -1.65,-1.46 -0.44,0 -0.98,0.37 -1.63,1.13 -0.65,0.75 -0.97,1.38 -0.97,1.89 0.79,1.29 2.13,1.93 4.01,1.93 0.63,0 1.62,-0.58 2.98,-1.74 0.78,-0.73 1.59,-1.47 2.4,-2.22 0.29,-0.22 0.43,0 0.43,0.66 0,1.44 -0.54,2.91 -1.61,4.39 -4.15,2.8 -7.23,6.02 -9.24,9.67 -0.38,0.69 -0.57,1.3 -0.57,1.84 0,1.6 1.71,2.41 5.14,2.41z"/>
   <g>
    <path class="fil2" d="M283.66 446.7c2.3,0 4.73,-0.74 7.29,-2.24 2.42,-1.43 3.63,-2.64 3.63,-3.63 0,-0.28 -0.21,-0.62 -0.65,-1.02 -0.63,-0.58 -1.45,-0.87 -2.48,-0.87 -1.13,0 -2.36,0.73 -3.69,2.17 -0.94,1.01 -2.3,2.88 -4.1,5.59zm16.62 -3.97c3.83,-3.51 6.38,-5.62 7.38,-6.47 -0.14,-0.05 -1.2,-0.62 -3.16,-1.7 -1.35,-0.71 -2.33,-1.07 -2.96,-1.07 -0.64,0 -1.33,0.23 -2.06,0.68 -0.59,0.4 -1.19,0.81 -1.8,1.23l-0.15 0.08c0.13,0.39 0.19,0.79 0.19,1.22 0,2.52 -1.77,6.19 -5.3,11 2.64,-0.92 5.27,-2.58 7.86,-4.97zm-3.26 -8.25c2.41,-3.13 4.37,-4.7 5.88,-4.7 1.33,0 2.8,0.44 4.42,1.31 1.62,0.87 2.93,1.3 3.94,1.3 0.13,0 0.4,-0.03 0.81,-0.1 0.42,-0.07 0.74,-0.11 0.94,-0.11 0.53,0 0.79,0.18 0.79,0.53 0,0.57 -0.31,1.36 -0.94,2.38 -0.67,1.07 -1.29,1.72 -1.88,1.94 -0.6,0.22 -1.79,1.21 -3.58,2.97 -3.07,2.99 -5.53,5.12 -7.12,6.55 -1.36,1.24 -3.35,2.37 -5.98,3.4 -2.27,0.87 -4.21,1.4 -5.83,1.59 -2.28,1.43 -4.92,2.14 -7.92,2.14l0 -7.39c0.33,0.1 0.85,0.22 1.54,0.36 1.66,-2.02 2.77,-4.52 3.32,-7.49 0.19,-1.05 0.57,-4.74 1.13,-11.08 0.05,-0.53 1.16,-3.73 3.32,-9.62 0.24,-0.68 0.48,-1.02 0.7,-1.02 0.16,0 0.24,0.18 0.24,0.55 0,0.19 -0.03,0.43 -0.08,0.7 -0.56,3.12 -0.89,5.64 -0.99,7.56 -0.25,4.87 -0.82,8.58 -1.73,11.1 -0.21,0.56 -0.27,0.84 -0.18,0.84 0.07,0 0.29,-0.27 0.65,-0.81 0.54,-0.79 1.41,-1.62 2.61,-2.51 1.48,-1.08 2.76,-1.62 3.82,-1.62 0.78,0 1.45,0.35 2,1.06l0.12 0.17z"/>
    <path class="fil2" d="M261.16 463.23c0.89,-0.78 2.24,-2.17 4.05,-4.18 0.95,-1.08 1.81,-1.62 2.56,-1.62 0.54,0 1.19,0.14 1.96,0.42 0.76,0.28 1.42,0.42 1.96,0.42 0.85,0 1.84,-0.53 2.98,-1.6 1.62,-1.49 2.94,-2.91 3.72,-4.02 0.56,0.66 0.96,0.97 2.16,0.97l0.48 -7.2c-0.66,-0.23 -1.17,-0.7 -1.52,-1.08 -0.34,-0.37 -0.6,-1.01 -0.78,-1.92 -0.16,-0.78 -0.29,-1.17 -0.42,-1.17 -0.15,0 -0.37,0.35 -0.65,1.04 -0.68,1.67 -1.02,3.39 -1.02,5.15 0,0.71 0.06,1.43 0.18,2.14 -0.43,0.53 -1.23,1.36 -2.15,2.28 -0.34,0.3 -0.73,0.44 -1.18,0.44 -0.52,0 -1.25,-0.15 -2.17,-0.47 -0.92,-0.31 -1.58,-0.47 -1.96,-0.47 -0.89,0 -1.63,0.29 -2.22,0.86 -0.98,1.1 -1.95,2.19 -2.93,3.27 -3.53,3.69 -12.07,6.78 -25.6,9.25 -13.02,2.37 -26.98,3.55 -41.89,3.55 -7.99,0 -15.42,-0.54 -22.29,-1.61 -5.82,-0.93 -9.42,-1.87 -10.82,-2.83 -0.36,-0.26 -0.67,-0.39 -0.91,-0.39 -0.49,0 -0.7,0.6 -0.65,1.8 0.15,3 0.77,5.25 1.85,6.74 0.87,1.19 2.33,2.2 4.37,3.04 3.5,1.43 11.82,2.14 24.98,2.14 12.03,0 24.21,-1.13 36.53,-3.37 15.27,-2.79 25.73,-6.65 31.38,-11.58z"/>
    <path class="fil2" d="M280.24 417.17c0.2,-2.14 1.48,-5.61 3.81,-10.42 0.31,-0.66 0.58,-1 0.78,-1 0.13,0 0.19,0.14 0.19,0.4 0,0.19 -0.04,0.42 -0.11,0.7 -0.35,1.45 -0.76,4.64 -1.23,9.57 -0.69,7 -1.1,11 -1.22,11.99 -0.58,4.81 -1.95,8.77 -4.11,11.89 -0.21,0.29 -0.36,0.48 -0.47,0.55 -0.12,0.07 -0.19,0.02 -0.21,-0.13 -0.01,-0.14 0.02,-0.37 0.11,-0.68 0.45,-1.75 0.86,-4.73 1.23,-8.97 0.42,-4.63 0.82,-9.26 1.23,-13.9z"/>
    <path class="fil2" d="M270.38 438.75c-2.72,5.53 -5.68,8.29 -8.89,8.29 -0.83,0 -1.76,-0.7 -2.77,-2.09 -0.99,-1.34 -1.49,-2.5 -1.49,-3.48 0,-0.3 0.35,-0.8 1.05,-1.52 0.63,-1.25 1.08,-2.29 1.36,-3.13 0.5,-1.46 0.97,-3.43 1.41,-5.9 0.31,-1.75 0.54,-3.85 0.68,-6.33 0.15,-2.89 0.27,-4.61 0.34,-5.17 0.07,-0.56 0.5,-1.79 1.3,-3.69 0.82,-1.98 1.64,-3.71 2.46,-5.17 0.42,-0.77 0.74,-1.15 0.97,-1.15 0.14,0 0.21,0.17 0.21,0.52 0,0.26 -0.05,0.6 -0.13,1.02 -0.58,4.62 -1.55,10.98 -2.93,19.08 -1.15,5.1 -2.65,8.61 -4.49,10.53 0.67,0.21 1.37,0.31 2.09,0.31 1.82,0 3.55,-0.63 5.17,-1.88 1.5,-1.19 2.48,-2.55 2.95,-4.1 0.38,-1.27 0.79,-4.06 1.23,-8.36 0.26,-2.55 0.51,-5.09 0.76,-7.63 0.12,-0.81 0.64,-2.26 1.57,-4.37 0.87,-2 1.68,-3.67 2.45,-4.99 0.37,-0.61 0.66,-0.91 0.89,-0.91 0.16,0 0.23,0.15 0.23,0.47 0,0.19 -0.03,0.44 -0.1,0.75 -0.33,1.33 -1.14,6.26 -2.43,14.79 -0.92,6 -2.22,10.7 -3.89,14.11z"/>
    <path class="fil2" d="M248.21 436.89c-1.2,1.79 -2.32,3.49 -3.85,4.77 -1.03,0.91 -1.85,1.36 -2.48,1.36 -0.7,0 -1.64,-0.35 -2.82,-1.07 -1.19,-0.71 -1.91,-1.07 -2.17,-1.07 -0.4,0 -0.99,0.36 -1.75,1.07 -0.7,0.68 -1.41,1.36 -2.12,2.04 -5.99,5.31 -14.48,9.37 -25.48,12.18 -8.6,2.19 -17.37,3.22 -25.4,3.22 -9.7,0 -16.78,-1.15 -21.24,-3.45 -5.19,-2.66 -7.79,-7.23 -7.79,-13.69 0,-3.87 0.67,-11 2.01,-21.4 0.37,-1.36 1.33,-4.19 2.9,-8.49 0.09,-0.26 0.2,-0.4 0.34,-0.4 0.16,0 0.22,0.19 0.19,0.55 -1.26,11.17 -1.89,18.9 -1.89,23.21 0,9.89 8.5,14.84 25.48,14.84 23.31,0 40.94,-3.93 52,-11.93 1.83,-1.32 3.03,-1.98 3.61,-1.98 0.54,0 1.41,0.3 2.61,0.91 1.2,0.61 2.12,0.92 2.75,0.92 0.36,0 0.78,-0.21 1.25,-0.63 1.13,-1.03 1.56,-1.93 1.79,-2.4 -0.42,-0.63 -0.63,-1.56 -0.63,-2.79 0,-2.08 0.71,-4.62 2.12,-7.63 0.38,-0.82 0.66,-1.23 0.84,-1.23 0.17,0 0.29,0.41 0.36,1.23 0.09,1.02 0.52,1.91 1.31,2.66 0.78,0.75 1.6,1.12 2.45,1.12 0.98,0 1.64,-0.49 1.99,-1.48 0.16,-0.46 0.34,-0.68 0.55,-0.68 0.26,0 0.35,0.28 0.26,0.86 -0.35,2.35 -1.01,4.47 -1.99,6.35 -1.16,2.25 -2.44,3.37 -3.84,3.37 -0.52,0 -0.97,-0.11 -1.36,-0.34z"/>
    <path class="fil2" d="M304.54 423.64c0,0.17 0.12,0.34 0.37,0.51 0.3,0.2 0.61,0.39 0.92,0.58 0.89,0.62 1.41,0.93 1.56,0.93 0.31,0 0.77,-0.43 1.35,-1.28 0.59,-0.86 0.89,-1.56 0.89,-2.13 0,-0.59 -0.31,-1.2 -0.93,-1.83 -0.62,-0.63 -1.26,-0.95 -1.92,-0.95 -0.2,0 -0.62,0.6 -1.27,1.8 -0.65,1.2 -0.97,1.99 -0.97,2.37z"/>
    <path class="fil2" d="M264.98 473.14c0,0.09 0.42,0.44 1.26,1.04 0.24,0.2 0.48,0.39 0.72,0.58 0.28,0.23 0.5,0.34 0.65,0.34 0.56,0 1.34,-0.9 2.35,-2.71 0.42,0.26 0.93,0.67 1.54,1.23 0.44,0.4 0.76,0.59 0.96,0.59 0.3,0 0.78,-0.42 1.42,-1.26 0.67,-0.88 1.01,-1.62 1.01,-2.24 0,-0.52 -0.33,-1.09 -0.99,-1.71 -0.64,-0.57 -1.18,-0.85 -1.64,-0.85 -0.12,0 -0.45,0.4 -0.99,1.2 -0.38,0.55 -0.74,1.1 -1.11,1.66 -0.22,-0.39 -0.65,-0.82 -1.27,-1.29 -0.63,-0.47 -1.1,-0.7 -1.42,-0.7 -0.15,0 -0.61,0.63 -1.36,1.9 -0.75,1.26 -1.13,2 -1.13,2.22z"/>
    <path class="fil2" d="M215.31 489.09c0,0.17 0.12,0.34 0.37,0.51 0.3,0.2 0.61,0.39 0.92,0.58 0.89,0.62 1.41,0.93 1.55,0.93 0.32,0 0.78,-0.43 1.36,-1.28 0.59,-0.86 0.89,-1.56 0.89,-2.13 0,-0.59 -0.31,-1.2 -0.93,-1.83 -0.62,-0.63 -1.26,-0.95 -1.92,-0.95 -0.2,0 -0.63,0.6 -1.27,1.8 -0.65,1.2 -0.97,1.99 -0.97,2.37z"/>
    <path class="fil2" d="M215.81 463.18c0,0.09 0.42,0.44 1.26,1.04 0.24,0.2 0.47,0.39 0.71,0.58 0.28,0.22 0.5,0.34 0.66,0.34 0.56,0 1.34,-0.9 2.34,-2.71 0.42,0.26 0.93,0.67 1.54,1.23 0.44,0.4 0.76,0.59 0.97,0.59 0.3,0 0.77,-0.42 1.41,-1.26 0.68,-0.88 1.01,-1.62 1.01,-2.24 0,-0.53 -0.33,-1.1 -0.99,-1.71 -0.63,-0.57 -1.18,-0.85 -1.63,-0.85 -0.13,0 -0.46,0.4 -1,1.2 -0.37,0.54 -0.74,1.1 -1.1,1.66 -0.23,-0.39 -0.66,-0.83 -1.28,-1.29 -0.62,-0.47 -1.09,-0.7 -1.41,-0.7 -0.16,0 -0.61,0.63 -1.36,1.9 -0.76,1.26 -1.13,2 -1.13,2.22z"/>
    <path class="fil2" d="M239.88 454.83c0,0.17 0.12,0.34 0.36,0.51 0.31,0.2 0.62,0.39 0.92,0.58 0.89,0.62 1.41,0.93 1.56,0.93 0.32,0 0.77,-0.43 1.36,-1.28 0.59,-0.86 0.88,-1.56 0.88,-2.13 0,-0.59 -0.31,-1.2 -0.93,-1.83 -0.62,-0.63 -1.26,-0.95 -1.91,-0.95 -0.2,0 -0.63,0.6 -1.27,1.8 -0.65,1.2 -0.97,1.99 -0.97,2.37z"/>
    <path class="fil2" d="M252.01 418.31c0,0.17 0.12,0.34 0.37,0.5 0.31,0.21 0.61,0.4 0.92,0.59 0.89,0.62 1.41,0.92 1.56,0.92 0.32,0 0.77,-0.42 1.36,-1.28 0.59,-0.85 0.88,-1.56 0.88,-2.12 0,-0.59 -0.31,-1.2 -0.93,-1.83 -0.62,-0.63 -1.26,-0.95 -1.92,-0.95 -0.2,0 -0.62,0.6 -1.27,1.8 -0.64,1.19 -0.97,1.98 -0.97,2.37z"/>
    <path class="fil2" d="M148.21 475.27c-0.66,0.5 -1.08,0.76 -1.29,0.76 -0.19,0 -0.21,-0.22 -0.06,-0.64 0.15,-0.42 0.48,-1 0.99,-1.75 0.5,-0.76 1.05,-1.5 1.64,-2.25l0.31 -0.46 0 -0.14c-0.62,-0.23 -1.29,-0.51 -2.05,-0.84 -0.75,-0.33 -1.12,-0.63 -1.12,-0.91 0,-0.73 1.01,-2.29 3.03,-4.68 1.04,-1.4 1.59,-2.11 1.65,-2.11 0.92,-0.84 1.85,-1.26 2.8,-1.26 0.48,0 0.92,0.16 1.32,0.49 0.41,0.33 0.61,0.75 0.61,1.25 0,0.37 -0.13,0.71 -0.38,1.03 -0.25,0.31 -0.56,0.47 -0.93,0.47 -0.09,0 -0.33,-0.11 -0.71,-0.34 -0.38,-0.22 -0.83,-0.33 -1.33,-0.33 -0.41,0 -0.89,0.21 -1.42,0.64 -0.54,0.43 -0.8,0.76 -0.8,1.01 0,0.58 0.34,1.04 1.04,1.37 0.7,0.33 1.47,0.49 2.33,0.49 0.5,0 1.31,-0.26 2.43,-0.78 0.69,-0.35 1.53,-0.83 2.52,-1.44 0.16,-0.1 0.3,-0.12 0.43,-0.08 0.13,0.05 0.19,0.17 0.19,0.35 0,0.34 -1.08,1.28 -3.26,2.84 -2.17,1.57 -4.01,3.18 -5.53,4.83 -1.51,1.65 -2.32,2.48 -2.41,2.48z"/>
    <path class="fil3" d="M222.89 403.8c0.02,0.13 0.04,0.17 0.02,0.19 -0.46,0.71 -0.92,1.43 -1.4,2.12 -0.13,0.17 -0.3,0.29 -0.5,0.36 -1.27,0.41 -2.53,0.82 -3.81,1.19 -2.92,0.87 -5.85,1.7 -8.74,2.7 -3.94,1.37 -7.87,2.75 -11.83,4.07 -3.07,1.02 -6.18,2.16 -9.18,3.37 -2.72,1.11 -5.38,2.36 -7.95,3.77 -0.61,0.34 -1.22,0.67 -1.83,1.01 -0.26,0.15 -0.51,0.32 -0.75,0.51 -0.83,0.63 -1.06,1.35 -0.67,2.33 0.22,0.56 0.54,1.09 0.82,1.62 0.09,0.16 0.19,0.31 0.31,0.49 -0.05,0.2 -0.08,0.41 -0.16,0.61 -0.19,0.49 -0.31,0.99 -0.36,1.51 -0.02,0.18 -0.09,0.35 -0.15,0.52 -0.03,0.08 -0.1,0.15 -0.19,0.27 -0.13,-0.06 -0.3,-0.08 -0.38,-0.19 -1,-1.27 -1.79,-2.61 -1.34,-4.35 0.15,-0.56 0.27,-1.12 0.45,-1.67 0.31,-0.96 0.74,-1.88 1.27,-2.73 0.54,-0.88 1.33,-1.5 2.23,-1.97 1.93,-1 3.86,-2.02 5.84,-2.91 4.18,-1.88 8.46,-3.43 12.81,-4.82 2.71,-0.85 5.38,-1.81 8.08,-2.71 3.84,-1.28 7.68,-2.57 11.58,-3.65 1.69,-0.46 3.35,-1 5.03,-1.51 0.26,-0.08 0.5,-0.21 0.8,-0.13z"/>
    <path class="fil3" d="M249.11 409.07c-0.29,-0.2 -0.43,-0.34 -0.25,-0.52 1.38,-0.72 2.87,-1.81 4.18,-2.84 0.11,-0.16 0.22,-0.3 0.34,-0.43 -0.97,-0.48 -2.22,-0.21 -3.05,0.02 -0.14,0.09 -0.25,0.2 -0.36,0.32 -0.09,0 -0.18,0 -0.27,0 -0.3,-0.3 0.13,-1 0.2,-1.16 0.86,-1.71 0.77,-1.87 2.73,-2.12 0.72,0 1.67,-0.07 2.46,0.52 0.09,0.2 0.16,0.41 0.16,0.86 -0.18,0.45 -0.36,0.9 -0.54,1.38 -0.48,0.72 -1.06,1.58 -1.65,2.21 -0.59,0.47 -1.26,0.83 -1.85,1.15 -0.65,0.18 -1.49,0.52 -2.1,0.61z"/>
    <path class="fil3" d="M206.32 418.69l0.45 0c0.15,0 0.4,0.11 0.5,0.25 0,0.05 0,0.15 0,0.2 -1.6,0.65 -3.3,1.15 -4.1,2.95 -0.05,0.35 -0.25,0.5 -0.05,0.75 0,0.1 0.1,0.15 0.2,0.15 0.55,-0.25 1.05,0.1 1.5,0.4 0.4,0.8 0.1,1.75 -0.2,2.6 -0.45,0.85 -1.3,1.35 -2.15,1.6 -0.7,0.15 -1.3,-0.05 -1.75,-0.55 -0.64,-1.2 -0.39,-2.65 0,-3.75 1.31,-2.15 3.15,-4.2 5.6,-4.6zm-8.74 8.2c0.5,-0.05 1.25,0.15 1.6,0.6 1.69,3 -1.3,5.95 -0.55,8.9 0.45,0.65 1.15,0.8 1.75,0.55 2.34,-2.55 1.8,-7 4.89,-9.1 0.7,-0.5 1.6,-0.95 2.4,-0.6 0.9,0.8 0.25,1.95 0.15,2.9 -0.3,0.75 -0.3,1.7 -0.95,2.15 -0.05,0 -0.15,0 -0.2,-0.05 -0.1,-0.05 -0.2,-0.25 -0.2,-0.35 0,-0.2 0.1,-0.4 0.1,-0.6 -0.1,-0.3 -0.35,-0.5 -0.7,-0.5 -1,-0.1 -1.75,0.65 -2.3,1.35 -1.84,2.65 -0.75,6.7 -3.64,8.5 -0.65,0.25 -1.4,0.2 -1.9,-0.2 -0.95,-0.9 -1.1,-2.25 -0.9,-3.35 0.2,-2 1.8,-3.95 0.75,-5.8 -0.5,-0.75 -1.3,-1 -2,-0.85 -1.1,0.45 -1.4,1.65 -2.2,2.4 -0.1,0 -0.1,0 -0.15,-0.1 0.05,-1 0.7,-1.85 0.75,-2.8 0.7,-1.45 1.5,-2.8 3.05,-3.05 0.15,0 0.25,0 0.25,0z"/>
    <path class="fil3" d="M299.05 418.44c-2.49,-0.6 -1.22,-3.23 -0.47,-4.76 0.44,-0.81 0.93,-1.57 1.53,-2.34 0.33,-0.36 0.58,-0.59 0.88,-0.85 1.61,-1.4 3.16,-2.82 4.76,-4.23 0.04,-0.04 0.08,-0.05 0.08,-0.22 -1.32,-0.58 -2.85,-0.31 -4.21,-0.06 -2.63,0.58 -5.24,1.44 -7.76,2.45 -0.4,0.14 -1.51,0.55 -0.88,-0.28 1.7,-1.69 4.13,-2.45 6.38,-3.15 2.33,-0.7 5.18,-1.52 7.62,-0.77 1.09,0.48 1.72,1.09 1.07,2.23 -1.09,1.56 -3.2,2.09 -4.65,3.26 -0.17,0.13 -0.29,0.34 -0.45,0.44 -0.64,0.54 -3.06,2.86 -3.64,4.5 -0.14,0.4 -0.16,0.73 -0.05,1.02 0.07,0.18 0.21,0.33 0.42,0.45 0.17,0.05 0.35,0.14 0.51,0.11 0.15,-0.04 0.36,-0.21 0.54,-0.37 0.72,-0.57 0.93,0.23 0.62,0.83 -0.42,0.9 -1.25,1.74 -2.3,1.74z"/>
    <path class="fil3" d="M234.3 424.05l0 0 0 0 0 0c0,-1.1 -0.07,-2.21 -0.15,-3.31 -0.07,-1.47 -0.14,-4.56 -1.98,-5 -1.91,0.81 -2.21,-1.18 -1.18,-2.36 1.62,-1.1 3.02,1.77 3.46,3.02 0.29,-0.66 1.4,-4.12 2.65,-3.68 0.95,0.52 0.8,2.65 -0.15,3.24 -0.37,0.22 -0.74,0.22 -1.1,0.22 -0.59,2.35 -0.45,4.85 -1.11,7.21 -0.07,0.22 -0.14,0.51 -0.44,0.66z"/>
    <path class="fil3" d="M239.5 423.8c-0.4,-1.9 0.23,-3.95 0.55,-5.84 0.32,-4.43 0.63,-9.16 -0.63,-13.51 -0.87,-1.42 -1.98,-2.44 -3.71,-1.73 -1.74,1.02 -2.05,3.16 -1.42,5.05 1.02,0.79 2.52,1.42 1.18,2.76 -3.16,0.95 -2.92,-4.58 -2.68,-6.39 0.31,-2.69 2.6,-5.37 5.52,-4.03 2.53,1.34 2.85,4.03 3.16,6.71 0.4,4.27 0.24,8.61 -0.47,12.87 -0.24,1.34 -0.48,2.69 -1.27,3.87l-0.07 0.24c-0.08,0 -0.16,0 -0.16,0z"/>
    <path class="fil3" d="M147.98 436.99c-0.31,-0.16 -0.62,-0.31 -0.9,-0.47 -1,-1 -1.28,-1.84 -1.37,-2.81 0,-0.56 0,-1.12 0.03,-1.68 0.19,-0.87 0.4,-1.72 0.62,-2.56 0.19,-0.56 0.41,-1.09 0.62,-1.62 0.69,-1.46 1.72,-2.93 2.38,-4.27 0.37,-0.37 0.24,-0.31 0.74,-0.47 -0.03,0.25 -0.03,0.5 -0.03,0.78 -0.47,0.85 -0.9,1.69 -1.34,2.56 -0.72,1.68 -1.96,3.84 -0.84,5.83 0.25,0.25 0.25,0.41 0.75,0.66 0.22,-0.38 0.25,-1.07 0.81,-1.07 0.25,0.32 0.78,0.72 0.78,1.47 -0.25,1.03 -0.5,2.03 -1.06,3.09 -0.19,0.12 -0.35,0.25 -0.5,0.4 -0.25,0.03 -0.47,0.1 -0.69,0.16z"/>
   </g>
   <path class="fil2" d="M467.21 190.07c0.82,-1.93 1.15,-3.9 1,-5.92 -0.19,-2.24 -1.08,-3.43 -2.66,-3.59 -0.75,-0.07 -1.81,0.19 -3.19,0.78 -1.37,0.59 -2.09,1.23 -2.16,1.92 -0.15,1.57 2.18,3.84 7.01,6.81zm-4.77 8.46c-6.05,-3.92 -8.9,-7.69 -8.54,-11.33 0.43,-4.39 2.84,-8.2 7.25,-11.43 4.4,-3.24 7.88,-4.24 10.47,-3.02 2.18,1.05 3.07,3.59 2.67,7.64 -0.36,3.63 -1.51,7.63 -3.46,12.01 3.04,2.17 4.9,3.94 5.6,5.33 -0.17,1.71 -1.9,4.48 -5.18,8.31 -0.7,-1.38 -2.49,-3.15 -5.39,-5.31 -4.06,4.59 -9.02,8.63 -14.91,12.14 -6.69,3.98 -12.75,6.88 -18.19,8.69 -1.15,0.44 -7.41,2.15 -18.78,5.11 -1.77,0.45 -2.93,0.65 -3.48,0.6 -0.27,-0.03 -0.4,-0.12 -0.39,-0.25 0.04,-0.41 1.08,-1.14 3.12,-2.18 8.57,-4.01 17.16,-8.04 25.8,-12.1 10.31,-4.94 18.11,-9.68 23.41,-14.21z"/>
   <path class="fil2" d="M342.88 239.19c25.32,-12.78 51.78,-26.12 79.38,-40.01 1.08,-0.54 1.73,-0.76 1.95,-0.64 0.31,0.18 0.3,0.78 -0.01,1.81 -0.91,3.22 -1.72,5.19 -2.42,5.91 -22.87,11.46 -49.58,25.47 -80.16,42.01l-0.42 -3.71c0.43,-1.7 0.99,-3.49 1.68,-5.37z"/>
   <path class="fil2" d="M182.21 258.02c0,0.85 -1.08,2.79 -3.25,5.81 -2.43,3.39 -4.75,5.87 -6.95,7.44 -1.41,0.99 -6.09,2.53 -14.05,4.64 -1.15,0.29 -1.83,0.43 -2.04,0.42l0 -0.11c0.18,-0.18 0.65,-0.57 1.4,-1.15 1.02,-0.79 3.85,-2.4 8.48,-4.83 4.44,-2.37 7.03,-3.88 7.79,-4.54 0.13,-0.13 0.2,-0.26 0.2,-0.39 0,-1.05 -3.95,-1.58 -11.83,-1.58 -0.04,0 -1.55,0.07 -4.54,0.2 -0.64,0.03 -1.15,0.03 -1.5,-0.01l0 -1.72 2.68 -4.53c0.82,-1.38 2.32,-2.25 4.49,-2.61 0.79,-0.13 2.61,-0.2 5.47,-0.2 9.1,0 13.65,1.05 13.65,3.16z"/>
   <path class="fil2" d="M96.47 243.2c0.23,-0.46 0.46,-0.8 0.69,-1.03 0.23,-0.15 0.34,-0.12 0.34,0.11 0.08,0.23 0.08,0.61 0,1.15 -2.06,11.21 -5.42,16.82 -10.07,16.82 -4.96,0 -7.44,-4.12 -7.44,-12.36 0,-10.15 2.94,-20.79 8.81,-31.93 1.45,-2.75 2.33,-4.16 2.64,-4.23 0.07,0 0.11,0.03 0.11,0.11 0,0.54 -0.42,2.1 -1.26,4.69 -3.81,11.6 -5.72,19.73 -5.72,24.38 0,6.33 1.71,9.5 5.15,9.5 1.98,0 4.23,-2.41 6.75,-7.21z"/>
   <path class="fil2" d="M473.76 445.7c-0.38,0.65 -1.05,1.39 -2.02,2.23 -1.27,1.13 -2.2,1.52 -2.8,1.17 -0.25,-0.15 -0.48,-1.01 -0.69,-2.58 -0.22,-1.56 -0.77,-2.62 -1.67,-3.14 -1.99,-1.18 -6.61,2.44 -13.85,10.85 -3.16,3.64 -5.69,6.04 -7.58,7.21 -1.32,0.76 -2.21,1.01 -2.65,0.74 -0.4,-0.23 -0.3,-0.87 0.32,-1.92 0.97,-1.64 1.91,-5.4 2.83,-11.27 0.91,-5.87 0.97,-9.04 0.17,-9.51 -0.54,-0.32 -0.99,-0.35 -1.35,-0.09 -0.36,0.26 -0.9,0.17 -1.65,-0.27 -0.85,-0.5 -1.59,-1.78 -2.22,-3.83 -0.64,-2.05 -0.74,-3.45 -0.3,-4.2 0.21,-0.34 1.45,-1.14 3.73,-2.38 2.27,-1.24 3.56,-1.77 3.86,-1.6 2.79,1.65 4.31,4.78 4.57,9.39 0.27,4.62 -0.73,9.86 -2.97,15.71 -0.23,0.61 -0.37,0.96 -0.43,1.06 0.01,0.21 0.09,0.25 0.23,0.13 0.1,-0.06 0.42,-0.31 0.94,-0.74 2.33,-2.93 6.23,-7.03 11.7,-12.33 4.57,-3.41 7.97,-4.46 10.21,-3.14 1.15,0.68 1.84,2.13 2.07,4.35 0.2,1.93 0.05,3.32 -0.45,4.16zm-32.78 18.71c-4.06,2.9 -9.71,4.74 -16.94,5.5 -6.5,0.67 -12.14,0.73 -16.92,0.19 -1.03,-0.07 -6.4,-0.99 -16.09,-2.75 -1.51,-0.29 -2.49,-0.56 -2.94,-0.83 -0.2,-0.12 -0.27,-0.23 -0.21,-0.32 0.18,-0.3 1.25,-0.47 3.22,-0.52 8.75,0.2 21.48,-0.11 38.2,-0.92 4.41,-0.55 7.91,-1.3 10.49,-2.26 3.32,-1.19 5.11,-1.72 5.36,-1.57 0.05,0.03 0.04,0.09 -0.01,0.19 -0.21,0.35 -1.59,1.45 -4.16,3.29z"/>
   <path class="fil2" d="M493.73 420.56c-0.52,1.25 -0.99,1.88 -1.41,1.88 -0.52,0 -0.6,-0.81 -0.23,-2.43 0.31,-1.41 0.47,-3.23 0.47,-5.48 0,-7.3 -4.13,-14.58 -12.37,-21.83 -0.52,-0.47 -0.6,-1.05 -0.23,-1.73l2.34 -4.14c0.21,-0.37 0.55,-0.37 1.02,0 8.09,6 12.13,14.19 12.13,24.57 0,3.24 -0.57,6.29 -1.72,9.16z"/>
   <path class="fil2" d="M215.92 370.56c-0.52,1.26 -0.99,1.88 -1.41,1.88 -0.52,0 -0.6,-0.81 -0.24,-2.42 0.32,-1.41 0.47,-3.24 0.47,-5.48 0,-7.31 -4.12,-14.59 -12.36,-21.84 -0.53,-0.47 -0.6,-1.04 -0.24,-1.72l2.35 -4.15c0.21,-0.37 0.55,-0.37 1.02,0 8.09,6 12.13,14.19 12.13,24.58 0,3.23 -0.57,6.28 -1.72,9.15z"/>
   <path class="fil3" d="M123.09 412.59c0.86,0.93 0.97,1.73 0.81,2.61 -0.3,1.59 -0.44,3.21 -0.91,4.75 -0.82,2.69 -1.97,4.28 -5.08,4.48 -0.13,0.01 -0.27,0.01 -0.41,0.01 -1.66,0 -3.22,-0.76 -4.25,-2.06 -1.9,-2.25 -2.56,-4.95 -2.36,-7.83 0.19,-2.62 0.59,-5.21 0.9,-7.83 0.42,-3.53 0.92,-7.06 1.24,-10.61 0.48,-5.32 -1.57,-9.78 -4.98,-13.67 -0.99,-1.12 -2.01,-2.28 -3.33,-2.78 -0.63,0.02 -0.63,0.43 -0.79,0.71 -0.28,0.5 -0.74,0.73 -1.27,0.6 -1.96,-0.51 -3.85,-1.19 -5.44,-2.53 -0.45,-0.33 -0.71,-0.86 -0.71,-1.42 0,-0.04 0,-0.09 0.01,-0.13 0.22,-2.54 0.63,-5.04 1.48,-7.45 0.05,-0.14 0.22,-0.23 0.45,-0.47 0.31,0.1 0.72,0.17 1.06,0.36 2.27,1.27 4.57,2.5 6.8,3.85 3.36,2.05 5.57,5.1 7.05,8.71 0.48,1.18 0.83,2.4 1.25,3.59 0.1,0.28 0.28,0.53 0.43,0.8 0.7,-0.36 0.58,-0.94 0.57,-1.39 -0.05,-2.48 -0.14,-5.14 -0.22,-7.64 -0.13,-3.13 0.66,-6.06 1.89,-8.86 0.92,-2.1 3.05,-2.85 5.05,-1.74 1.53,0.85 2.89,2.03 4.25,3.15 0.34,0.27 0.57,0.92 0.52,1.35 -0.24,1.57 -0.27,3.21 -1.1,4.79 -0.49,-0.17 -0.98,-0.25 -1.37,-0.5 -0.93,-0.57 -1.78,-1.28 -2.73,-1.82 -0.8,-0.45 -1.65,-0.81 -2.53,-1.07 -0.75,-0.22 -1.53,0.41 -1.65,1.19 -0.06,0.41 -0.08,0.85 -0.04,1.27 0.47,5.05 -0.33,9.98 -1.29,14.9 -0.38,1.92 -0.58,3.86 -0.91,5.78 -0.52,3.09 -1.07,6.18 -1.6,9.27 -0.24,1.43 -0.52,2.84 -0.69,4.27 -0.27,2.36 0.29,4.56 1.57,6.55 0.6,0.95 1.45,1.63 2.49,2.07 1.99,0.87 3.92,-0.01 4.57,-2.09 0.23,-0.73 0.38,-1.49 0.62,-2.21 0.09,-0.28 0.34,-0.52 0.65,-0.96z"/>
   <path class="fil2" d="M315.58 476.07c3.56,0 6.75,2.11 9.58,6.33 2.82,4.23 4.81,9.74 5.95,16.53 0.13,0.71 0.19,1.12 0.19,1.24 0.13,0.19 0.23,0.19 0.29,0 0.06,-0.12 0.22,-0.53 0.47,-1.24 0.58,-4.06 1.97,-10.13 4.2,-18.19 2.41,-5.78 5.05,-8.67 7.9,-8.67 1.46,0 2.92,0.99 4.39,2.95 1.27,1.72 1.9,3.12 1.9,4.19 0,0.83 -0.22,1.91 -0.67,3.24 -0.57,1.78 -1.23,2.67 -1.99,2.67 -0.32,0 -1.02,-0.68 -2.1,-2.05 -1.08,-1.36 -2.19,-2.04 -3.33,-2.04 -2.54,0 -4.9,6 -7.06,18 -0.95,5.21 -2,8.89 -3.14,11.05 -0.82,1.46 -1.52,2.19 -2.1,2.19 -0.5,0 -0.76,-0.66 -0.76,-2 0,-2.09 -1.2,-6.17 -3.62,-12.24 -2.41,-6.07 -4.12,-9.1 -5.14,-9.1 -0.7,0 -1.15,0.22 -1.34,0.67 -0.19,0.44 -0.76,0.67 -1.71,0.67 -1.08,0 -2.49,-0.8 -4.24,-2.38 -1.74,-1.59 -2.62,-2.86 -2.62,-3.82 0,-0.44 0.73,-1.89 2.19,-4.33 1.46,-2.45 2.38,-3.67 2.76,-3.67z"/>
   <path class="fil2" d="M471.86 370.19c-2.17,0.3 -3.4,0.42 -3.7,0.38 -0.08,-0.01 -0.11,-0.03 -0.11,-0.07 0.02,-0.12 0.87,-0.53 2.55,-1.25 1.59,-0.57 4.09,-1.81 7.49,-3.7 1.76,-1.28 4.28,-3.36 7.56,-6.23 2.25,-1.99 4.59,-3.63 7.02,-4.93 2.97,-1.57 5.81,-2.15 8.52,-1.76 0.65,0.1 1.47,0.4 2.47,0.91 1.01,0.52 1.88,0.83 2.64,0.94 1.4,0.21 2.61,-0.16 3.63,-1.09 0.83,-0.95 1.66,-1.91 2.5,-2.87 0.6,-0.68 1.09,-0.99 1.47,-0.94 0.18,0.03 0.26,0.21 0.21,0.55 -0.08,0.49 -0.42,1.27 -1.04,2.33 -0.31,0.54 0.97,1.02 3.84,1.44 0.3,0.04 0.48,-0.01 0.54,-0.16 0.05,-0.07 -0.02,-0.81 -0.19,-2.22 -0.06,-0.39 0.19,-0.92 0.75,-1.57 0.94,-1.17 1.47,-1.67 1.6,-1.5 0.58,0.78 0.77,1.87 0.57,3.26 -0.18,1.17 -0.65,2.49 -1.42,3.96 -0.78,1.47 -1.43,2.33 -1.97,2.6 -1.41,0.68 -3.38,0.16 -5.9,-1.56 -2.62,2.05 -5.02,2.91 -7.2,2.59 -0.65,-0.09 -1.44,-0.38 -2.39,-0.87 -0.95,-0.49 -1.67,-0.77 -2.16,-0.84 -3.74,-0.55 -7.79,0.67 -12.16,3.66 -3.19,2.34 -6.41,4.69 -9.64,7.02 -1.89,1.04 -3.72,1.68 -5.48,1.92z"/>
   <path class="fil2" d="M351.93 174.79c0.4,-2.44 1.26,-5.38 2.59,-8.83 1.04,-2.69 1.56,-5.36 1.56,-8.02 0,-5.06 -2.34,-9.93 -7,-14.59 -0.36,-0.36 -0.42,-0.75 -0.16,-1.19l1.61 -2.85c0.15,-0.25 0.38,-0.25 0.7,0 4.67,3.84 7,9.35 7,16.53 0,3.45 -0.75,7.1 -2.26,10.96 -1.51,3.86 -2.26,6.52 -2.26,7.99 0,2.98 0.81,4.47 2.42,4.47 0.94,0 1.99,-1.13 3.18,-3.39 0.11,-0.21 0.21,-0.38 0.32,-0.48 0.11,-0.08 0.16,-0.06 0.16,0.05 0.04,0.11 0.04,0.29 0,0.54 -0.97,5.28 -2.54,7.91 -4.74,7.91 -2.22,0 -3.33,-2.15 -3.33,-6.46 0,-0.86 0.07,-1.74 0.21,-2.64z"/>
  </g>
 </g>
</svg>
