<?xml version="1.0" encoding="UTF-8"?>
<!DOCTYPE svg PUBLIC "-//W3C//DTD SVG 1.1//EN" "http://www.w3.org/Graphics/SVG/1.1/DTD/svg11.dtd">
<svg xmlns="http://www.w3.org/2000/svg" xml:space="preserve" width="600px" height="600px" version="1.1" style="shape-rendering:geometricPrecision; text-rendering:geometricPrecision; image-rendering:optimizeQuality; fill-rule:evenodd; clip-rule:evenodd"
viewBox="0 0 600 600"
 xmlns:xlink="http://www.w3.org/1999/xlink">
 <defs>
  <style type="text/css">
   <![CDATA[
    .fil0 {fill:#CC33FF}
    .fil1 {fill:#F3F3EB}
    .fil3 {fill:white}
    .fil2 {fill:white;fill-rule:nonzero}
   ]]>
  </style>
 </defs>
 <g id="Layer_x0020_1">
  <metadata id="Wiki-Layer"/>
  <polygon class="fil0" points="300,0 314.89,15.78 331.36,1.64 344.52,18.9 362.37,6.56 373.66,25.09 392.7,14.68 402,34.29 422.02,25.94 429.21,46.41 450,40.19 455.01,61.31 476.34,57.29 479.11,78.82 500.74,77.06 501.25,98.75 522.94,99.26 521.18,120.89 542.71,123.66 538.69,144.99 559.81,150 553.59,170.79 574.06,177.98 565.71,198 585.32,207.3 574.91,226.34 593.44,237.63 581.1,255.48 598.36,268.64 584.22,285.11 600,300 584.22,314.89 598.36,331.36 581.1,344.52 593.44,362.37 574.91,373.66 585.32,392.7 565.71,402 574.06,422.02 553.59,429.21 559.81,450 538.69,455.01 542.71,476.34 521.18,479.11 522.94,500.74 501.25,501.25 500.74,522.94 479.11,521.18 476.34,542.71 455.01,538.69 450,559.81 429.21,553.59 422.02,574.06 402,565.71 392.7,585.32 373.66,574.91 362.37,593.44 344.52,581.1 331.36,598.36 314.89,584.22 300,600 285.11,584.22 268.64,598.36 255.48,581.1 237.63,593.44 226.34,574.91 207.3,585.32 198,565.71 177.98,574.06 170.79,553.59 150,559.81 144.99,538.69 123.66,542.71 120.89,521.18 99.26,522.94 98.75,501.25 77.06,500.74 78.82,479.11 57.29,476.34 61.31,455.01 40.19,450 46.41,429.21 25.94,422.02 34.29,402 14.68,392.7 25.09,373.66 6.56,362.37 18.9,344.52 1.64,331.36 15.78,314.89 0,300 15.78,285.11 1.64,268.64 18.9,255.48 6.56,237.63 25.09,226.34 14.68,207.3 34.29,198 25.94,177.98 46.41,170.79 40.19,150 61.31,144.99 57.29,123.66 78.82,120.89 77.06,99.26 98.75,98.75 99.26,77.06 120.89,78.82 123.66,57.29 144.99,61.31 150,40.19 170.79,46.41 177.98,25.94 198,34.29 207.3,14.68 226.34,25.09 237.63,6.56 255.48,18.9 268.64,1.64 285.11,15.78 "/>
  <path class="fil1" d="M36.5 300c0,-145.53 117.97,-263.5 263.5,-263.5 145.53,0 263.5,117.97 263.5,263.5 0,145.53 -117.97,263.5 -263.5,263.5 -145.53,0 -263.5,-117.97 -263.5,-263.5zm263.5 -271c-149.67,0 -271,121.33 -271,271 0,149.67 121.33,271 271,271 149.67,0 271,-121.33 271,-271 0,-149.67 -121.33,-271 -271,-271z"/>
  <path class="fil1" d="M300 539.65c-132.36,0 -239.65,-107.29 -239.65,-239.65 0,-132.36 107.29,-239.65 239.65,-239.65 132.36,0 239.65,107.29 239.65,239.65 0,132.36 -107.29,239.65 -239.65,239.65zm0 -495.55c-141.33,0 -255.9,114.57 -255.9,255.9 0,141.33 114.57,255.9 255.9,255.9 141.33,0 255.9,-114.57 255.9,-255.9 0,-141.33 -114.57,-255.9 -255.9,-255.9z"/>
  <g id="_1323501126768">
   <path class="fil2" d="M160.59 265.73c-0.97,0.13 -1.52,0.19 -1.66,0.17 -0.03,0 -0.05,-0.01 -0.04,-0.03 0,-0.05 0.38,-0.24 1.14,-0.56 0.71,-0.26 1.82,-0.81 3.35,-1.65 0.79,-0.58 1.91,-1.51 3.38,-2.79 1.01,-0.89 2.06,-1.63 3.14,-2.21 1.33,-0.7 2.6,-0.96 3.82,-0.79 0.29,0.05 0.65,0.18 1.1,0.41 0.45,0.23 0.85,0.37 1.18,0.42 0.63,0.09 1.17,-0.07 1.63,-0.49 0.37,-0.42 0.74,-0.85 1.12,-1.28 0.26,-0.3 0.48,-0.45 0.65,-0.42 0.09,0.01 0.12,0.09 0.1,0.25 -0.04,0.21 -0.19,0.56 -0.47,1.04 -0.14,0.24 0.44,0.45 1.72,0.64 0.13,0.02 0.22,0 0.24,-0.07 0.02,-0.03 0,-0.36 -0.08,-0.99 -0.03,-0.18 0.08,-0.41 0.33,-0.71 0.42,-0.52 0.66,-0.74 0.72,-0.67 0.26,0.35 0.34,0.84 0.25,1.46 -0.07,0.53 -0.29,1.12 -0.63,1.77 -0.35,0.66 -0.64,1.05 -0.88,1.17 -0.64,0.3 -1.51,0.07 -2.64,-0.7 -1.17,0.92 -2.25,1.3 -3.23,1.16 -0.28,-0.04 -0.64,-0.17 -1.07,-0.39 -0.42,-0.22 -0.74,-0.34 -0.96,-0.38 -1.67,-0.24 -3.49,0.3 -5.44,1.64 -1.43,1.05 -2.87,2.1 -4.32,3.15 -0.84,0.46 -1.66,0.74 -2.45,0.85z"/>
   <path class="fil2" d="M122.6 202.53c0,0.32 -0.42,1.06 -1.24,2.21 -0.92,1.28 -1.8,2.22 -2.64,2.82 -0.53,0.37 -2.31,0.96 -5.33,1.76 -0.43,0.11 -0.69,0.16 -0.77,0.16l0 -0.04c0.07,-0.07 0.24,-0.22 0.53,-0.44 0.39,-0.3 1.46,-0.91 3.22,-1.83 1.68,-0.9 2.67,-1.48 2.95,-1.72 0.05,-0.05 0.08,-0.1 0.08,-0.15 0,-0.4 -1.5,-0.6 -4.49,-0.6 -0.01,0 -0.59,0.02 -1.72,0.07 -0.25,0.01 -0.44,0.01 -0.57,0l0 -0.65 1.02 -1.72c0.31,-0.53 0.87,-0.86 1.7,-0.99 0.3,-0.05 0.99,-0.08 2.07,-0.08 3.46,0 5.19,0.4 5.19,1.2z"/>
   <path class="fil2" d="M245.59 258.99c-0.4,1.21 -1,2.57 -1.81,4.1 -3.05,2.55 -5.56,4.38 -7.52,5.47 -3.42,1.93 -6.83,2.89 -10.25,2.89 -1.74,0 -3.05,-0.18 -3.93,-0.54l-1.08 -5.39c-2.08,-2.65 -3.13,-5.19 -3.13,-7.63 0,-3.85 1.18,-6.81 3.53,-8.87 2.02,-1.76 4.52,-2.65 7.5,-2.65 3.95,0 7.49,1.31 10.6,3.91 0.52,0.44 0.78,0.73 0.78,0.89 0,0.11 -0.1,0.17 -0.3,0.17 -0.25,0 -0.64,-0.1 -1.18,-0.3 -2.09,-0.76 -3.94,-1.13 -5.56,-1.13 -2.37,0 -4.8,0.35 -7.29,1.06 -2.49,0.71 -4.31,1.58 -5.46,2.6 0,2.56 0.89,5.07 2.67,7.55 2.17,3.02 4.95,4.53 8.33,4.53 1.74,0 4.02,-0.8 6.82,-2.4 2.28,-1.31 4.39,-2.81 6.34,-4.5 0.39,-0.34 0.68,-0.52 0.86,-0.54 0.29,0 0.31,0.26 0.08,0.78z"/>
   <path class="fil2" d="M94.03 283.16c-1.98,0 -3.65,-1.55 -5.01,-4.64 -1.23,-2.71 -1.84,-5.55 -1.84,-8.52 0,-3.56 0.35,-6.4 1.05,-8.52 0.25,-0.75 0.45,-1.13 0.6,-1.13 0.23,0 0.28,0.48 0.16,1.43 -0.29,2.23 -0.43,4.14 -0.43,5.74 0,7.52 1.75,11.27 5.25,11.27 1.42,0 2.71,-1.09 3.86,-3.29 1.22,-2.62 2.44,-5.25 3.64,-7.87 1.08,-2.17 2.37,-4.01 3.88,-5.5 1.6,-1.58 3.05,-2.37 4.34,-2.37 1.24,0 2.59,1.35 4.05,4.07 1.36,2.53 2.66,4.09 3.88,4.66 1.56,0.74 4.34,1.4 8.07,1.97 4.76,0.72 10.26,1.08 16.5,1.08 9.88,0 20.11,-1.11 30.68,-3.32 10.73,-2.26 19.29,-5.15 25.69,-8.65 0.31,-0.16 0.52,-0.23 0.62,-0.19 0.13,0.05 0.16,0.25 0.11,0.59 -0.11,0.81 -0.16,1.52 -0.16,2.13 0,2.95 1.28,4.42 3.83,4.42 3.52,0 6.1,-1.07 7.52,-3.19 1.04,-1.55 1.56,-4.18 1.56,-7.9 0,-10.48 -0.45,-19.35 -1.35,-26.61 -0.43,-3.51 -0.98,-6.98 -1.64,-10.41 0.36,-2.26 0.7,-3.83 1.02,-4.69 0.15,-0.38 0.27,-0.57 0.38,-0.57 0.13,0 0.25,0.2 0.38,0.6 1.18,3.82 2.14,8.69 2.88,14.58 0.38,3 0.67,7.55 0.86,13.64 0.2,6.17 0.44,10.38 0.71,12.65 0.48,3.99 1.33,6.59 2.56,7.79 1.4,1.39 2.88,2.45 4.45,3.18l0 5.39c-2.34,-0.95 -4.14,-1.97 -5.4,-3.07 -1.96,-1.65 -3.25,-3.79 -3.88,-6.42 -0.3,3.94 -1.73,6.81 -4.29,8.61 -1.69,1.2 -3.68,1.82 -5.76,1.82 -1.69,0 -3.09,-0.6 -4.18,-1.78 -1.19,-1.28 -1.83,-3.07 -1.94,-5.37 -7.34,3.7 -16.13,6.68 -26.4,8.93 -9.88,2.15 -19.23,3.23 -28.04,3.23 -11.48,0 -19.84,-1.01 -24.78,-3.05 -1.6,-0.66 -2.98,-1.77 -4.15,-3.31 -0.13,-0.16 -0.89,-1.4 -2.29,-3.72 -0.71,-1.19 -1.39,-1.78 -2.05,-1.78 -2.02,0 -4.14,1.71 -6.37,5.12 -0.39,0.61 -1.1,2.2 -2.13,4.76 -1.02,2.56 -1.91,4.42 -2.67,5.57 -1.18,1.76 -2.44,2.64 -3.77,2.64z"/>
   <path class="fil2" d="M201.07 209.43c0,-1.73 -0.27,-3.15 -0.81,-4.26 0,-0.63 0.5,-2.12 1.51,-4.47 0.12,-0.29 0.23,-0.44 0.32,-0.44 0.11,0 0.23,0.16 0.38,0.46 0.29,0.61 0.95,2.3 1.99,5.07 1.1,2.88 1.74,4.65 1.92,5.31 0.14,0.51 0.21,0.88 0.21,1.13 0,0.79 -0.76,0.32 -2.29,-1.42 -0.18,-0.26 -0.27,-0.15 -0.27,0.32 0,0.16 0.4,5.69 1.19,16.58 0.79,10.89 1.18,17.02 1.18,18.39 0,4.19 -0.63,7.87 -1.91,11.05 -0.27,0.65 -0.49,1.12 -0.65,1.41l0 0c-0.25,0.43 -0.4,0.49 -0.46,0.18 -0.07,-0.32 -0.04,-1 0.09,-2.05 0.16,-1.43 0.24,-3.11 0.24,-5.01 0,-1.73 -0.44,-8.83 -1.32,-21.3 -0.88,-12.47 -1.32,-19.46 -1.32,-20.95z"/>
   <path class="fil2" d="M132.92 244.61c-0.39,3.38 -0.66,5.07 -0.81,5.07 -0.14,0 -0.41,-1.39 -0.81,-4.15 -0.68,-4.42 -3.95,-9.46 -9.81,-15.1 -7.19,-6.83 -12.44,-12.29 -15.74,-16.39 -0.87,-1.19 -2.02,-2.83 -3.46,-4.91 -0.46,-0.68 -0.95,-1.17 -1.45,-1.46 -0.29,-0.18 -0.43,-0.46 -0.43,-0.86l0 -3.61c0,-0.72 0.12,-1.08 0.37,-1.08 0.18,0 0.51,0.18 0.98,0.54l6.84 5.23c0.51,0.4 0.76,0.7 0.76,0.92 0,0.14 -0.2,0.21 -0.59,0.21 -0.58,0 -1.53,-0.14 -2.86,-0.43 1.11,1.51 3.83,4.46 8.14,8.84 3.13,3.13 6.25,6.24 9.38,9.33 6.36,6.47 9.55,12.01 9.55,16.61 0,0.43 -0.02,0.85 -0.06,1.24zm30.12 3.07c2.19,0 4.29,-0.8 6.31,-2.39 0.18,-0.15 1,-1 2.48,-2.57 1.36,-1.45 2.1,-2.18 2.21,-2.18 0.32,0 0.38,0.32 0.16,0.97 -0.29,0.85 -0.43,1.39 -0.43,1.65 0,0.61 0.26,1.31 0.78,2.1 0.68,1.04 1.58,1.56 2.7,1.56 2.94,0 5.47,-2.12 7.57,-6.36 0.22,-0.43 0.47,-0.65 0.76,-0.65 0.23,0 0.35,0.2 0.35,0.6 0,0.14 -0.02,0.37 -0.07,0.7 -0.04,0.32 -0.07,0.56 -0.07,0.72 0,1.24 0.38,2.25 1.15,3.02 0.76,0.78 1.74,1.16 2.93,1.16 1.72,0 3.53,-0.67 5.15,-2 0.47,-0.39 0.7,-1.83 0.7,-4.31 0,-1.51 -0.38,-7.58 -1.16,-18.2 -0.77,-10.62 -1.16,-16.88 -1.16,-18.79 0,-1.73 -0.26,-3.15 -0.8,-4.26 0,-0.61 0.5,-2.1 1.51,-4.48 0.1,-0.28 0.21,-0.43 0.32,-0.43 0.11,0 0.23,0.16 0.38,0.49 0.28,0.61 0.95,2.3 1.99,5.07 1.08,2.87 1.73,4.63 1.94,5.28 0.11,0.54 0.16,0.92 0.16,1.13 0,0.79 -0.75,0.33 -2.26,-1.4 -0.18,-0.25 -0.27,-0.14 -0.27,0.32 0,0.11 0.34,4.84 1.03,14.19 0.68,9.34 1.02,14.91 1.02,16.71 0,5.22 -0.93,9.31 -2.8,12.3 -1.59,2.51 -3.6,3.77 -5.75,3.77 -2.72,0 -4.66,-1.71 -5.83,-5.14 -0.14,-0.45 -0.3,-0.45 -0.48,0 -1.55,3.97 -3.73,5.95 -6.56,5.95 -2.87,0 -4.58,-1.81 -5.12,-5.44 -0.03,-0.31 -0.08,-0.46 -0.13,-0.46 -0.06,0.03 -0.17,0.19 -0.33,0.46 -0.68,1.13 -1.7,2.29 -3.04,3.47 -2.14,1.91 -4.26,2.86 -6.37,2.86 -2.33,0 -3.96,-0.7 -4.88,-2.1 -0.55,-0.88 -0.87,-2.18 -0.94,-3.91 -0.02,-0.2 -0.11,-0.3 -0.27,-0.3 -0.29,0 -0.58,0.17 -0.86,0.52 -1.8,2.08 -2.96,3.35 -3.48,3.8 -2.28,1.96 -4.76,2.94 -7.28,2.94 -2.7,0 -4.64,-1.04 -5.82,-3.13 -0.79,-1.37 -1.33,-3.58 -1.62,-6.63 -1.01,4.89 -1.98,8 -2.91,9.33 -2.12,3.05 -4.57,5.21 -7.34,6.47 -1.08,0.46 -2.93,1.04 -5.55,1.72 -2.62,0.69 -4.55,1.1 -5.77,1.24 -0.5,0.04 -0.75,-0.01 -0.75,-0.16 0,-0.14 0.23,-0.36 0.7,-0.65 2.44,-1.4 6.34,-3.73 11.7,-7.01 6.04,-3.95 9.06,-9.76 9.06,-17.41 0,-9.96 -0.47,-18.64 -1.41,-26.05 -0.25,-2.44 -0.75,-5.91 -1.51,-10.41 0.4,-2.58 0.7,-4.15 0.92,-4.69 0.14,-0.39 0.27,-0.59 0.38,-0.59 0.11,0 0.23,0.2 0.38,0.59 1.18,3.85 2.13,8.72 2.85,14.62 0.51,3.95 0.87,10.1 1.08,18.44 0.22,7.51 0.51,12.17 0.87,13.96 0.43,2.05 1.09,3.46 1.99,4.21 0.65,0.5 1.56,0.76 2.75,0.76 2.64,0 5.03,-0.7 7.01,-2.08 0.79,-0.56 2.58,-2.23 5.37,-5.02 0.34,-0.34 0.66,-0.51 0.97,-0.51 0.48,0 0.62,0.32 0.4,0.97 -0.22,0.65 -0.32,1.25 -0.32,1.81 0,1.24 0.51,2.2 1.53,2.88 0.97,0.65 2.23,0.97 3.78,0.97z"/>
   <path class="fil2" d="M116.37 242.42c0,-0.43 -0.84,-0.99 -2.51,-1.7 -1.67,-0.7 -2.9,-0.98 -3.69,-0.83 -0.29,0.07 -0.4,0.18 -0.33,0.32 0.29,0.79 0.9,2.1 1.84,3.94 2.44,-0.79 4,-1.37 4.69,-1.73zm-20.82 10.68c4.93,-3.88 9.66,-6.58 14.18,-8.09 -0.32,-0.54 -0.79,-1.44 -1.4,-2.7 -0.29,-0.61 -0.43,-1.34 -0.43,-2.21 0,-1.4 0.36,-2.58 1.08,-3.55 0.83,-1.19 2.07,-1.78 3.72,-1.78 1.29,0 3.15,0.84 5.55,2.53 2.56,1.73 3.83,3.16 3.83,4.31 -0.36,1.51 -0.81,2.93 -1.35,4.26 -2.04,0.62 -4.52,1.39 -7.44,2.32 0.11,1.66 -0.05,2.48 -0.48,2.48 -0.33,0 -0.67,-0.63 -1.03,-1.88 -1.33,0.46 -3.18,1.25 -5.55,2.37 -3.45,1.58 -6.06,3.07 -7.82,4.47 -2.7,2.13 -5.43,4.7 -8.2,7.71 -3.16,3.49 -4.99,5.45 -5.5,5.88 -1.72,1.55 -3.41,2.32 -5.06,2.32 -1.8,0 -3.38,-0.82 -4.75,-2.45 -1.37,-1.64 -2.05,-3.66 -2.05,-6.07 0,-3.34 1.37,-7.67 4.1,-12.99 0.29,-0.54 0.52,-0.81 0.7,-0.81 0.07,0 0.11,0.07 0.11,0.21 0,0.54 -0.6,2.4 -1.78,5.58 -1.19,3.19 -1.78,5.71 -1.78,7.58 0,1.4 0.34,2.54 1.02,3.42 0.69,0.88 1.66,1.33 2.92,1.33 1.72,0 3.61,-0.85 5.66,-2.54 1.08,-0.9 2.93,-2.8 5.55,-5.71 2.52,-2.77 4.59,-4.77 6.2,-5.99z"/>
   <path class="fil2" d="M157.75 284.54l1.37 -2.83c0.11,-0.22 0.22,-0.32 0.35,-0.32 0.18,0 0.95,0.46 2.32,1.4 1.37,0.93 2.05,1.48 2.05,1.64 0,0.61 -0.6,1.89 -1.81,3.83 -0.14,0.24 -0.29,0.3 -0.46,0.19 -1.18,-0.88 -2.52,-1.81 -4.01,-2.78 -0.51,1.14 -1,2.1 -1.49,2.89 -0.14,0.25 -0.29,0.31 -0.46,0.19 -1.34,-1.03 -2.74,-1.99 -4.17,-2.89 -0.08,-0.05 -0.08,-0.16 0,-0.32l1.72 -3.53c0.11,-0.22 0.23,-0.33 0.35,-0.33 0.16,0 0.82,0.39 1.97,1.16 1.15,0.78 1.91,1.34 2.27,1.7z"/>
   <path class="fil2" d="M144.23 219.2c13.87,-5.15 28.37,-10.52 43.5,-16.12 0.59,-0.22 0.94,-0.29 1.05,-0.22 0.15,0.11 0.11,0.42 -0.11,0.94 -0.66,1.62 -1.2,2.59 -1.6,2.93 -12.53,4.61 -27.2,10.31 -44.03,17.11l0 -1.95c0.32,-0.86 0.72,-1.75 1.19,-2.69z"/>
   <path class="fil2" d="M122.2 214.02c13.88,-5.15 28.38,-10.52 43.51,-16.12 0.58,-0.22 0.93,-0.29 1.04,-0.22 0.15,0.11 0.11,0.42 -0.11,0.94 -0.66,1.62 -1.19,2.59 -1.6,2.93 -12.53,4.61 -27.2,10.31 -44.02,17.11l0 -1.95c0.32,-0.86 0.71,-1.76 1.18,-2.69z"/>
   <path class="fil2" d="M169.28 224.38c0,0.68 -0.14,1.38 -0.44,2.11 -0.4,0.94 -0.92,1.41 -1.54,1.41 -1,0 -1.7,-0.67 -2.12,-2.03 -0.47,1.74 -1.34,2.61 -2.59,2.61 -0.47,0 -0.88,-0.23 -1.23,-0.71 -0.4,-0.55 -0.6,-1.29 -0.6,-2.19l0 -2.15c0,-0.17 -0.12,-0.29 -0.36,-0.36 -0.23,-0.07 -0.35,-0.26 -0.35,-0.55 0,-0.47 0.2,-0.93 0.6,-1.39 0.37,-0.4 0.65,-0.6 0.84,-0.6 0.24,0 0.37,0.47 0.37,1.41 0,0.49 -0.04,0.9 -0.12,1.23 -0.08,0.33 -0.12,0.62 -0.12,0.87 0,0.5 0.11,0.99 0.32,1.46 0.24,0.54 0.54,0.81 0.91,0.81 0.47,0 0.91,-0.21 1.32,-0.64 0.41,-0.43 0.62,-0.93 0.62,-1.5 0,-0.34 -0.1,-0.9 -0.29,-1.7 -0.19,-0.81 -0.29,-1.3 -0.29,-1.5 0,-0.17 0.09,-0.44 0.26,-0.82 0.18,-0.37 0.31,-0.56 0.39,-0.56 0.16,0 0.37,0.53 0.62,1.59 0.25,1.07 0.38,1.85 0.38,2.36 0,1.46 0.56,2.19 1.7,2.19 0.48,0 0.79,-0.24 0.91,-0.73 -0.97,-1.71 -1.46,-3.01 -1.46,-3.92 0,-0.52 0.13,-0.99 0.39,-1.39 0.17,-0.28 0.3,-0.42 0.37,-0.44 0.07,0 0.12,0.17 0.15,0.52 0.06,0.49 0.13,0.89 0.24,1.2 0.02,0.04 0.25,0.64 0.7,1.81 0.28,0.7 0.42,1.23 0.42,1.6z"/>
   <path class="fil2" d="M96 229.98c0.28,-0.88 0.34,-1.77 0.19,-2.66 -0.19,-0.98 -0.63,-1.47 -1.33,-1.47 -0.34,0 -0.8,0.16 -1.38,0.48 -0.58,0.32 -0.87,0.64 -0.87,0.94 0,0.71 1.13,1.61 3.39,2.71zm-1.74 3.95c-2.85,-1.47 -4.27,-3.01 -4.27,-4.64 0,-1.95 0.9,-3.75 2.71,-5.37 1.8,-1.62 3.3,-2.22 4.5,-1.79 1.01,0.37 1.51,1.46 1.51,3.26 0,1.62 -0.33,3.45 -1.01,5.47 1.44,0.82 2.34,1.53 2.71,2.11 0,0.76 -0.64,2.06 -1.93,3.9 -0.36,-0.58 -1.24,-1.29 -2.61,-2.11 -1.6,2.2 -3.62,4.21 -6.07,6.01 -2.78,2.05 -5.34,3.6 -7.66,4.64 -0.49,0.25 -3.19,1.27 -8.09,3.08 -0.76,0.27 -1.26,0.41 -1.51,0.41 -0.12,0 -0.18,-0.03 -0.18,-0.09 0,-0.18 0.43,-0.55 1.28,-1.1 3.61,-2.14 7.24,-4.3 10.88,-6.48 4.35,-2.63 7.6,-5.06 9.74,-7.3z"/>
   <path class="fil2" d="M224.56 238.08c1.91,0 3.96,-0.33 6.17,-0.99 0.62,-0.17 0.93,-0.22 0.93,-0.14 0,0.08 -0.23,0.32 -0.7,0.72 -1.92,1.73 -4.39,2.6 -7.41,2.6 -0.94,0 -1.71,-0.25 -2.3,-0.74 -0.6,-0.49 -0.9,-1.11 -0.9,-1.86 0,-2 0.86,-4.09 2.57,-6.28 -1.5,-0.45 -2.25,-1.24 -2.25,-2.37 0,-0.96 0.6,-2.11 1.8,-3.46 1.2,-1.35 2.17,-2.02 2.9,-2.02 0.19,0 0.39,0.15 0.59,0.46 0.2,0.31 0.31,0.64 0.31,0.98 0,0.16 -0.21,0.52 -0.61,1.1 -0.4,0.58 -0.62,0.81 -0.66,0.69 -0.16,-0.59 -0.49,-0.89 -1.01,-0.89 -0.27,0 -0.6,0.23 -1,0.69 -0.39,0.46 -0.59,0.85 -0.59,1.15 0.48,0.79 1.3,1.19 2.45,1.19 0.39,0 0.99,-0.36 1.82,-1.07 0.48,-0.44 0.97,-0.9 1.47,-1.36 0.17,-0.13 0.26,0 0.26,0.41 0,0.88 -0.33,1.77 -0.98,2.68 -2.54,1.71 -4.42,3.68 -5.65,5.91 -0.23,0.42 -0.35,0.8 -0.35,1.12 0,0.98 1.05,1.48 3.14,1.48z"/>
  </g>
  <path class="fil2" d="M87.24 369.17c0.68,-4.15 2.14,-9.15 4.4,-15.01 1.77,-4.57 2.65,-9.12 2.65,-13.64 0,-8.6 -3.96,-16.87 -11.9,-24.8 -0.61,-0.62 -0.7,-1.28 -0.27,-2.02l2.74 -4.85c0.25,-0.43 0.65,-0.43 1.19,0 7.94,6.53 11.9,15.89 11.9,28.1 0,5.86 -1.28,12.07 -3.84,18.63 -2.56,6.56 -3.85,11.09 -3.85,13.59 0,5.07 1.38,7.6 4.13,7.6 1.58,0 3.38,-1.92 5.39,-5.77 0.19,-0.36 0.37,-0.64 0.55,-0.82 0.19,-0.12 0.28,-0.09 0.28,0.09 0.06,0.19 0.06,0.49 0,0.92 -1.65,8.97 -4.33,13.45 -8.06,13.45 -3.78,0 -5.67,-3.66 -5.67,-10.98 0,-1.47 0.12,-2.96 0.36,-4.49z"/>
  <path class="fil2" d="M189.39 327.17c-0.52,1.25 -0.99,1.88 -1.41,1.88 -0.52,0 -0.6,-0.81 -0.23,-2.43 0.31,-1.41 0.47,-3.23 0.47,-5.48 0,-7.3 -4.13,-14.58 -12.37,-21.84 -0.52,-0.46 -0.6,-1.04 -0.24,-1.72l2.35 -4.15c0.21,-0.36 0.55,-0.36 1.02,0 8.09,6.01 12.13,14.2 12.13,24.58 0,3.24 -0.57,6.29 -1.72,9.16z"/>
  <path class="fil2" d="M343.29 327.09c-6.88,15.9 -10.31,31.32 -10.31,46.26 0,38.92 21.85,58.37 65.56,58.37 14.54,0 29.44,-3.87 44.71,-11.62 13.66,-6.96 25.16,-15.55 34.51,-25.77 9.35,-10.23 14.02,-19.14 14.02,-26.73 0,-6.47 -2.27,-12.59 -6.83,-18.34 -5.11,-6.39 -12.02,-10.83 -20.73,-13.3 -9.67,-2.72 -34.2,-4.08 -73.59,-4.08 -14.22,0 -30,-1.6 -47.34,-4.79zm99.76 -172.94c0,6 -0.64,12.11 -1.92,18.34 -0.88,4.31 -1.91,6.47 -3.11,6.47 -1.52,0 -2.28,-2.47 -2.28,-7.43 0,-6.07 -1.32,-11.38 -3.96,-15.94 -2.39,-4.24 -4.91,-6.35 -7.55,-6.35 -4.15,0 -9.95,6.87 -17.38,20.61 -9.98,18.14 -17.93,30.49 -23.84,37.04 -6.02,6.58 -12.44,12.49 -19.26,17.72l5.66 0c13.59,0 29.97,0.3 49.15,0.9 19.17,0.6 32.15,0.9 38.95,0.9 7.51,0 14.34,-0.2 20.49,-0.6 4.64,-0.32 6.95,0.16 6.95,1.44 0,0.08 0,0.2 0,0.36 -0.08,0.48 -0.36,1.44 -0.84,2.88l-5.27 15.58c-0.56,1.6 -1.84,2.67 -3.83,3.23 -11.75,3.12 -23.53,6.24 -35.36,9.35 -14.22,4.08 -26.93,8.87 -38.11,14.38 -21.5,10.63 -37.36,22.06 -47.59,34.28 13.11,2 34.36,3 63.77,3 28.68,0 47.7,1.99 57.05,5.99 6.63,2.88 12.06,7.59 16.3,14.15 4.63,7.26 6.95,15.74 6.95,25.41 0,25.72 -10.83,48.89 -32.48,69.51 -21.33,20.21 -44.91,30.32 -70.72,30.32 -46.5,0 -69.75,-25.73 -69.75,-77.18 0,-19.02 2.88,-36.84 8.63,-53.46 -2.56,-0.64 -5.48,-1.38 -7.96,-2.33 -10.46,-4.24 -18.93,-9.59 -25.4,-16.06 -3.28,-3.28 -6.92,-8.11 -10.91,-14.51 -2.64,-4.23 -4.95,-6.35 -6.95,-6.35 -5.99,0 -15.21,5.3 -27.63,15.88 -12.42,10.59 -20.19,17.97 -20.19,23.32 0,6.39 12.07,12.15 36.19,17.26 13.75,2.87 22.78,5.99 27.09,9.35 3.37,2.61 5.42,6.49 6.16,11.64l0 9.92c-1.18,9.75 -5.71,18.22 -13.59,25.42 -15.02,13.75 -33.88,25.81 -56.57,36.2 -24.13,11.34 -44.82,17.01 -62.08,17.01 -18.86,0 -33,-6.22 -42.43,-18.69 -7.99,-10.23 -11.99,-23.65 -11.99,-40.27 0,-26.69 6.39,-49.94 19.18,-69.76 2.56,-3.99 4.31,-5.99 5.27,-5.99 0.32,0.16 0.48,0.48 0.48,0.96 0,1.28 -0.71,3.51 -2.16,6.71 -9.9,21.26 -14.85,39.07 -14.85,53.45 0,12.63 3.35,23.34 10.06,32.13 8.63,11.67 21.97,17.5 40.03,17.5 14.22,0 31.48,-4.16 51.78,-12.47 15.82,-6.39 31.24,-14.3 46.26,-23.73 13.43,-8.31 20.14,-13.51 20.14,-15.58 0,-2.24 -3.76,-4.4 -11.27,-6.47 -8.15,-1.92 -16.22,-3.84 -24.21,-5.76 -10.07,-2.23 -17.34,-4.71 -21.81,-7.43 -6.71,-4.31 -10.07,-10.14 -10.07,-17.49 0,-4.8 0.48,-9.43 1.44,-13.91 2.24,-10.95 6.79,-18.9 10.78,-25.06 6.95,-10.62 15.46,-19.77 25.53,-27.44 9.43,-7.11 16.98,-10.67 22.66,-10.67 4.07,0 7.59,2.2 10.54,6.6 3.12,4.95 6.19,9.9 9.23,14.86 5.03,6.63 11.47,11.78 19.29,15.46 3.2,1.52 9.04,3.57 16.71,6.28 14.94,-23.24 36.55,-41.66 64.84,-55.25 -13.83,0 -27.51,-0.26 -41.05,-0.78 -13.54,-0.52 -25.87,-0.78 -36.97,-0.78 -5.68,0 -8.51,-0.63 -8.51,-1.91 0,-0.56 0.24,-1.48 0.71,-2.76 1.68,-5.35 3.92,-11.66 6.72,-18.94 7.17,-11.23 16.36,-12.2 27.61,-19.4 9.59,-6.15 19.05,-13.86 28.4,-23.13 5.51,-5.44 13.95,-17.34 25.29,-35.72 8.79,-14.22 15.35,-21.33 19.66,-21.33 3.04,0 5.95,2.28 8.75,6.83 3.43,5.59 5.15,13.03 5.15,22.29z"/>
  <path class="fil2" d="M412.94 369.81l6.36 -13.09c0.5,-1 1.04,-1.49 1.62,-1.49 0.83,0 4.4,2.16 10.72,6.48 6.31,4.32 9.47,6.85 9.47,7.6 0,2.82 -2.78,8.72 -8.35,17.7 -0.67,1.08 -1.37,1.37 -2.12,0.87 -5.48,-4.07 -11.67,-8.35 -18.57,-12.84 -2.33,5.24 -4.61,9.69 -6.86,13.34 -0.66,1.17 -1.37,1.46 -2.12,0.88 -6.23,-4.74 -12.67,-9.19 -19.32,-13.34 -0.33,-0.25 -0.33,-0.75 0,-1.5l7.98 -16.33c0.5,-1 1.04,-1.5 1.62,-1.5 0.75,0 3.78,1.79 9.1,5.37 5.32,3.57 8.81,6.19 10.47,7.85z"/>
  <path class="fil2" d="M303.68 448.64l6.36 -13.09c0.5,-1 1.04,-1.49 1.62,-1.49 0.83,0 4.4,2.15 10.72,6.48 6.31,4.32 9.47,6.85 9.47,7.6 0,2.82 -2.78,8.72 -8.35,17.7 -0.67,1.08 -1.37,1.37 -2.12,0.87 -5.48,-4.07 -11.68,-8.35 -18.57,-12.84 -2.33,5.24 -4.61,9.68 -6.86,13.34 -0.66,1.16 -1.37,1.46 -2.12,0.88 -6.23,-4.74 -12.67,-9.19 -19.32,-13.34 -0.33,-0.25 -0.33,-0.75 0,-1.5l7.98 -16.33c0.5,-1 1.04,-1.5 1.62,-1.5 0.75,0 3.78,1.79 9.1,5.37 5.32,3.57 8.81,6.19 10.47,7.85z"/>
  <path class="fil2" d="M255.45 163.26c43.62,-16.2 89.21,-33.1 136.77,-50.68 1.85,-0.7 2.94,-0.93 3.29,-0.7 0.46,0.35 0.35,1.33 -0.35,2.95 -2.08,5.09 -3.76,8.15 -5.03,9.2 -39.38,14.49 -85.51,32.43 -138.4,53.8l0 -6.12c1.01,-2.71 2.25,-5.52 3.72,-8.45z"/>
  <path class="fil2" d="M167.23 166.41c43.62,-16.19 89.21,-33.09 136.77,-50.67 1.85,-0.7 2.95,-0.93 3.29,-0.7 0.47,0.35 0.35,1.33 -0.34,2.95 -2.09,5.09 -3.76,8.15 -5.04,9.2 -39.38,14.49 -85.51,32.43 -138.4,53.8l0 -6.12c1.01,-2.71 2.26,-5.52 3.72,-8.46z"/>
  <path class="fil2" d="M345.01 174.19c0,1.05 -1.34,3.45 -4.02,7.19 -3.01,4.18 -5.87,7.25 -8.59,9.2 -1.75,1.22 -7.53,3.13 -17.36,5.73 -1.42,0.36 -2.27,0.53 -2.53,0.52l0 -0.14c0.23,-0.22 0.81,-0.7 1.74,-1.42 1.25,-0.98 4.75,-2.97 10.47,-5.97 5.49,-2.93 8.69,-4.79 9.63,-5.61 0.16,-0.16 0.24,-0.32 0.24,-0.48 0,-1.3 -4.87,-1.95 -14.62,-1.95 -0.04,0 -1.91,0.08 -5.6,0.24 -0.8,0.04 -1.42,0.03 -1.86,-0.01l0 -2.13 3.32 -5.6c1.01,-1.7 2.86,-2.78 5.54,-3.23 0.98,-0.16 3.23,-0.24 6.76,-0.24 11.26,0 16.88,1.3 16.88,3.9z"/>
  <path class="fil2" d="M224.29 132.4c-0.4,0.98 -0.77,1.46 -1.09,1.46 -0.41,0 -0.47,-0.63 -0.19,-1.89 0.25,-1.1 0.37,-2.53 0.37,-4.28 0,-5.7 -3.22,-11.39 -9.66,-17.05 -0.41,-0.37 -0.47,-0.81 -0.18,-1.34l1.83 -3.24c0.17,-0.29 0.43,-0.29 0.8,0 6.31,4.68 9.47,11.08 9.47,19.19 0,2.53 -0.45,4.91 -1.35,7.15z"/>
  <path class="fil2" d="M341.68 118.61c-0.41,0.98 -0.78,1.47 -1.1,1.47 -0.41,0 -0.47,-0.64 -0.19,-1.9 0.25,-1.1 0.37,-2.53 0.37,-4.28 0,-5.7 -3.22,-11.39 -9.66,-17.05 -0.4,-0.37 -0.46,-0.81 -0.18,-1.34l1.84 -3.24c0.16,-0.29 0.42,-0.29 0.79,0 6.32,4.68 9.47,11.08 9.47,19.19 0,2.53 -0.45,4.91 -1.34,7.15z"/>
  <path class="fil3" d="M516.95 309.58c0.91,0.98 1.02,1.82 0.85,2.73 -0.31,1.66 -0.46,3.35 -0.94,4.96 -0.86,2.8 -2.06,4.46 -5.31,4.67 -0.14,0.01 -0.29,0.02 -0.43,0.02 -1.73,0 -3.36,-0.8 -4.43,-2.15 -1.98,-2.35 -2.67,-5.17 -2.47,-8.17 0.2,-2.74 0.62,-5.45 0.94,-8.17 0.44,-3.69 0.96,-7.38 1.3,-11.08 0.5,-5.56 -1.64,-10.21 -5.2,-14.27 -1.03,-1.17 -2.1,-2.37 -3.47,-2.9 -0.66,0.03 -0.66,0.45 -0.82,0.74 -0.3,0.52 -0.78,0.77 -1.33,0.62 -2.05,-0.53 -4.02,-1.23 -5.68,-2.63 -0.47,-0.35 -0.74,-0.9 -0.74,-1.48 0,-0.05 0,-0.1 0.01,-0.14 0.22,-2.65 0.66,-5.26 1.54,-7.77 0.05,-0.15 0.23,-0.25 0.48,-0.5 0.32,0.11 0.74,0.18 1.1,0.38 2.37,1.32 4.77,2.61 7.09,4.02 3.51,2.13 5.81,5.32 7.36,9.09 0.5,1.23 0.87,2.5 1.31,3.75 0.1,0.29 0.29,0.54 0.44,0.83 0.74,-0.38 0.61,-0.98 0.61,-1.45 -0.06,-2.59 -0.15,-5.37 -0.24,-7.97 -0.13,-3.27 0.69,-6.33 1.98,-9.25 0.96,-2.2 3.18,-2.98 5.27,-1.82 1.59,0.89 3.01,2.12 4.43,3.29 0.35,0.28 0.6,0.96 0.54,1.41 -0.25,1.64 -0.28,3.35 -1.14,5 -0.51,-0.18 -1.03,-0.26 -1.44,-0.52 -0.97,-0.6 -1.86,-1.34 -2.84,-1.9 -0.84,-0.47 -1.73,-0.85 -2.65,-1.12 -0.77,-0.23 -1.59,0.43 -1.72,1.24 -0.06,0.43 -0.09,0.89 -0.04,1.33 0.49,5.26 -0.34,10.41 -1.34,15.55 -0.4,2 -0.61,4.03 -0.95,6.03 -0.55,3.23 -1.12,6.45 -1.67,9.68 -0.25,1.48 -0.54,2.96 -0.72,4.45 -0.29,2.47 0.3,4.76 1.63,6.84 0.63,0.99 1.52,1.69 2.6,2.16 2.08,0.9 4.09,-0.01 4.77,-2.19 0.24,-0.76 0.4,-1.54 0.65,-2.3 0.1,-0.29 0.35,-0.54 0.67,-1.01z"/>
  <path class="fil2" d="M382.38 493.87c-0.49,0.83 -1.35,1.78 -2.58,2.85 -1.61,1.44 -2.81,1.93 -3.57,1.48 -0.31,-0.19 -0.61,-1.28 -0.89,-3.28 -0.27,-2 -0.98,-3.34 -2.12,-4.01 -2.54,-1.5 -8.42,3.11 -17.66,13.83 -4.02,4.64 -7.24,7.71 -9.66,9.19 -1.68,0.97 -2.81,1.29 -3.38,0.96 -0.51,-0.3 -0.38,-1.12 0.41,-2.45 1.24,-2.1 2.44,-6.89 3.61,-14.37 1.16,-7.49 1.23,-11.53 0.22,-12.13 -0.7,-0.41 -1.27,-0.45 -1.73,-0.12 -0.45,0.33 -1.15,0.22 -2.11,-0.34 -1.07,-0.64 -2.02,-2.27 -2.83,-4.88 -0.81,-2.62 -0.93,-4.4 -0.37,-5.35 0.26,-0.45 1.85,-1.46 4.75,-3.04 2.9,-1.58 4.54,-2.26 4.92,-2.04 3.56,2.1 5.5,6.09 5.83,11.97 0.34,5.89 -0.93,12.57 -3.79,20.03 -0.29,0.78 -0.47,1.23 -0.54,1.35 0.01,0.27 0.11,0.32 0.28,0.17 0.14,-0.09 0.54,-0.4 1.21,-0.95 2.97,-3.73 7.94,-8.97 14.92,-15.71 5.82,-4.36 10.15,-5.69 13.01,-4 1.46,0.86 2.34,2.7 2.64,5.53 0.26,2.46 0.07,4.23 -0.57,5.31zm-41.8 23.85c-5.18,3.7 -12.38,6.05 -21.6,7.02 -8.28,0.85 -15.47,0.93 -21.57,0.24 -1.31,-0.1 -8.15,-1.27 -20.52,-3.51 -1.92,-0.37 -3.17,-0.72 -3.74,-1.06 -0.25,-0.14 -0.34,-0.29 -0.27,-0.41 0.23,-0.38 1.6,-0.6 4.11,-0.66 11.15,0.25 27.38,-0.14 48.7,-1.17 5.62,-0.7 10.08,-1.66 13.38,-2.88 4.23,-1.52 6.51,-2.19 6.83,-2 0.06,0.03 0.05,0.12 -0.02,0.24 -0.26,0.45 -2.03,1.84 -5.3,4.19z"/>
  <path class="fil2" d="M294.33 89.27c-0.91,3.15 -1.75,4.83 -2.53,5.06l-0.33 -0.07c-0.64,-0.87 -1.35,-1.73 -2.15,-2.6l-0.31 0 -1.82 6.7c-0.13,1.65 -0.31,3.09 -0.53,4.35 -0.29,1.91 -1.04,3.38 -2.2,4.42l-0.53 -0.07c-0.18,-0.04 -1.47,-3 -3.91,-8.83 -1.06,-2.44 -1.95,-3.99 -2.66,-4.68 -0.2,0.95 -0.73,1.35 -1.55,1.24 -2,-1.62 -3.37,-3.59 -4.17,-5.92 1.53,-5.24 3.08,-7.74 4.68,-7.48l0.13 0.07c3.86,5.86 6.19,10.2 6.97,13.07 0.91,2.5 1.42,3.79 1.55,3.83 2.13,-8.8 3.93,-13.53 5.39,-14.17 1.18,0.17 2.24,1.26 3.2,3.26 0.64,0.33 0.91,0.95 0.77,1.82z"/>
  <path class="fil2" d="M266.83 221.16c0.31,-8.12 3.34,-17.69 9.08,-28.7l0.43 -0.25c0.27,0.04 0.41,0.21 0.41,0.49 -4.28,10.38 -6.52,17.69 -6.72,21.98 -0.1,0 -0.19,0.55 -0.25,1.68 -0.2,5.37 1.44,8.92 4.92,10.64l0.62 0.04c2.11,0.12 3.79,-1.21 5.04,-4.02 0.27,-0.59 0.51,-0.88 0.72,-0.84l0.18 0c0.23,0 0.43,0.23 0.6,0.66 -1.42,8.48 -3.94,12.65 -7.57,12.44l-0.84 0c-4.73,-1.72 -6.95,-6.44 -6.62,-14.12z"/>
  <path class="fil2" d="M230.68 470.26c0,-0.56 -0.02,-1.16 -0.07,-1.78 -0.04,-0.62 -0.2,-1.37 -0.47,-2.22 -0.46,-0.81 -0.98,-1.2 -1.58,-1.2 -0.12,0 -0.43,0.06 -0.91,0.23 -0.49,0.16 -1.09,0.66 -1.82,1.51 -0.45,0.54 -0.85,1.03 -1.18,1.49 -0.35,0.48 -0.7,0.93 -1.07,1.37 -0.36,0.45 -0.75,0.89 -1.18,1.34 -0.42,0.44 -0.89,0.91 -1.43,1.39 -0.39,0.37 -1.08,0.7 -2.05,1.03 -0.97,0.31 -1.97,0.62 -3,0.93 -1.04,0.31 -1.95,0.63 -2.73,0.96 -0.79,0.31 -1.18,0.62 -1.18,0.91 0,0.56 0.35,1.01 1.05,1.34 0.71,0.35 1.66,0.6 2.82,0.77 1.26,0.14 2.73,0.25 4.43,0.29 1.69,0.06 3.39,0.08 5.09,0.08 1.65,0 3.21,0 4.63,0 1.45,0 2.55,0 3.32,0 1.44,0 2.81,-0.02 4.05,-0.06 1.27,-0.04 2.51,-0.1 3.73,-0.17 1.24,-0.06 2.5,-0.12 3.77,-0.18 1.28,-0.07 2.66,-0.09 4.16,-0.09 0.24,0 0.43,0.02 0.6,0.07 0.04,0.04 0.06,0.08 0.06,0.12 0,0.08 -0.06,0.19 -0.19,0.29 -0.12,0.12 -0.29,0.33 -0.52,0.58 -0.2,0.27 -0.45,0.54 -0.72,0.83 -0.27,0.29 -0.56,0.56 -0.87,0.81 -0.33,0.26 -0.66,0.43 -0.97,0.51 -1.99,0.46 -4.29,0.83 -6.9,1.14 -2.6,0.29 -5.27,0.54 -8.03,0.73 -2.75,0.18 -5.44,0.26 -8.07,0.26l-1.92 0c-1.82,0 -3.5,-0.04 -5.03,-0.12 -0.79,-0.08 -1.57,-0.19 -2.38,-0.33 -0.81,-0.15 -1.53,-0.39 -2.18,-0.73 -0.64,-0.35 -1.18,-0.82 -1.61,-1.42 -0.41,-0.6 -0.64,-1.43 -0.64,-2.49 0,-0.25 0.08,-0.66 0.25,-1.24 0.16,-0.6 0.37,-1.2 0.64,-1.86 0.27,-0.64 0.54,-1.26 0.85,-1.84 0.31,-0.58 0.6,-1 0.87,-1.25 0.53,-0.51 1.22,-0.97 2.09,-1.32 0.87,-0.37 1.76,-0.7 2.67,-1.01 0.91,-0.29 1.8,-0.6 2.65,-0.92 0.84,-0.28 1.55,-0.66 2.11,-1.11 0.76,-0.6 1.49,-1.33 2.13,-2.18 0.64,-0.85 1.26,-1.67 1.88,-2.46 0.6,-0.79 1.22,-1.45 1.85,-1.99 0.62,-0.56 1.28,-0.82 1.96,-0.82 0.42,0 0.77,0.1 1.1,0.33 0.33,0.22 0.6,0.51 0.83,0.85 0.2,0.35 0.39,0.7 0.53,1.09 0.15,0.37 0.23,0.73 0.27,1.06 0.04,0.41 0.09,0.89 0.11,1.43 0,0.53 0,1.11 -0.04,1.71 -0.05,0.63 -0.13,1.2 -0.25,1.76 -0.13,0.58 -0.29,1.1 -0.54,1.58 -0.17,0.33 -0.33,0.53 -0.5,0.62l-0.04 0c-0.17,0 -0.31,-0.21 -0.43,-0.62z"/>
  <path class="fil2" d="M482.54 165.45c2.85,3.45 4.66,8.55 5.45,15.3 0.89,7 0.37,14.02 -1.55,21.07 -0.39,1.42 -0.73,2.52 -1.01,3.29l-1.02 -1.24c0.01,-0.65 0.04,-1.43 0.09,-2.33 0.77,-14.51 0.01,-23.15 -2.28,-25.93 -2.18,-2.64 -4.49,-2.96 -6.92,-0.95 -1.36,1.12 -2.27,2.5 -2.73,4.14 -0.37,1.21 -0.63,1.93 -0.77,2.17 -0.25,-0.03 -0.5,0.02 -0.76,0.12 -0.16,-0.34 -0.61,-1.15 -1.36,-2.48 -3.47,-6.68 -2.97,-11.87 1.5,-15.56 3.72,-3.07 7.51,-2.27 11.36,2.4z"/>
  <path class="fil2" d="M166.56 142.28c-0.91,3.15 -1.75,4.83 -2.53,5.06l-0.33 -0.07c-0.65,-0.87 -1.36,-1.73 -2.15,-2.6l-0.31 0 -1.82 6.7c-0.14,1.65 -0.31,3.09 -0.54,4.35 -0.29,1.91 -1.04,3.38 -2.19,4.42l-0.54 -0.07c-0.17,-0.04 -1.46,-3 -3.9,-8.83 -1.06,-2.44 -1.95,-3.99 -2.66,-4.68 -0.2,0.95 -0.73,1.35 -1.56,1.24 -1.99,-1.62 -3.37,-3.59 -4.17,-5.92 1.53,-5.24 3.09,-7.74 4.68,-7.48l0.14 0.07c3.86,5.86 6.19,10.2 6.96,13.07 0.92,2.5 1.42,3.79 1.56,3.83 2.13,-8.8 3.92,-13.53 5.39,-14.17 1.17,0.18 2.24,1.26 3.19,3.26 0.65,0.33 0.91,0.95 0.78,1.82z"/>
 </g>
</svg>
