<?xml version="1.0" encoding="UTF-8"?>
<!DOCTYPE svg PUBLIC "-//W3C//DTD SVG 1.1//EN" "http://www.w3.org/Graphics/SVG/1.1/DTD/svg11.dtd">
<svg xmlns="http://www.w3.org/2000/svg" xml:space="preserve" width="600px" height="600px" version="1.1" style="shape-rendering:geometricPrecision; text-rendering:geometricPrecision; image-rendering:optimizeQuality; fill-rule:evenodd; clip-rule:evenodd"
viewBox="0 0 600 600"
 xmlns:xlink="http://www.w3.org/1999/xlink">
 <defs>
  <style type="text/css">
   <![CDATA[
    .fil0 {fill:#CC3399}
    .fil1 {fill:#F3F3EB}
    .fil2 {fill:white;fill-rule:nonzero}
   ]]>
  </style>
 </defs>
 <g id="Layer_x0020_1">
  <metadata id="Wiki-Layer"/>
  <polygon class="fil0" points="300,0 314.89,15.78 331.36,1.64 344.52,18.9 362.37,6.56 373.66,25.09 392.7,14.68 402,34.29 422.02,25.94 429.21,46.41 450,40.19 455.01,61.31 476.34,57.29 479.11,78.82 500.74,77.06 501.25,98.75 522.94,99.26 521.18,120.89 542.71,123.66 538.69,144.99 559.81,150 553.59,170.79 574.06,177.98 565.71,198 585.32,207.3 574.91,226.34 593.44,237.63 581.1,255.48 598.36,268.64 584.22,285.11 600,300 584.22,314.89 598.36,331.36 581.1,344.52 593.44,362.37 574.91,373.66 585.32,392.7 565.71,402 574.06,422.02 553.59,429.21 559.81,450 538.69,455.01 542.71,476.34 521.18,479.11 522.94,500.74 501.25,501.25 500.74,522.94 479.11,521.18 476.34,542.71 455.01,538.69 450,559.81 429.21,553.59 422.02,574.06 402,565.71 392.7,585.32 373.66,574.91 362.37,593.44 344.52,581.1 331.36,598.36 314.89,584.22 300,600 285.11,584.22 268.64,598.36 255.48,581.1 237.63,593.44 226.34,574.91 207.3,585.32 198,565.71 177.98,574.06 170.79,553.59 150,559.81 144.99,538.69 123.66,542.71 120.89,521.18 99.26,522.94 98.75,501.25 77.06,500.74 78.82,479.11 57.29,476.34 61.31,455.01 40.19,450 46.41,429.21 25.94,422.02 34.29,402 14.68,392.7 25.09,373.66 6.56,362.37 18.9,344.52 1.64,331.36 15.78,314.89 0,300 15.78,285.11 1.64,268.64 18.9,255.48 6.56,237.63 25.09,226.34 14.68,207.3 34.29,198 25.94,177.98 46.41,170.79 40.19,150 61.31,144.99 57.29,123.66 78.82,120.89 77.06,99.26 98.75,98.75 99.26,77.06 120.89,78.82 123.66,57.29 144.99,61.31 150,40.19 170.79,46.41 177.98,25.94 198,34.29 207.3,14.68 226.34,25.09 237.63,6.56 255.48,18.9 268.64,1.64 285.11,15.78 "/>
  <path class="fil1" d="M36.5 300c0,-145.53 117.97,-263.5 263.5,-263.5 145.53,0 263.5,117.97 263.5,263.5 0,145.53 -117.97,263.5 -263.5,263.5 -145.53,0 -263.5,-117.97 -263.5,-263.5zm263.5 -271c-149.67,0 -271,121.33 -271,271 0,149.67 121.33,271 271,271 149.67,0 271,-121.33 271,-271 0,-149.67 -121.33,-271 -271,-271z"/>
  <path class="fil1" d="M300 539.65c-132.36,0 -239.65,-107.29 -239.65,-239.65 0,-132.36 107.29,-239.65 239.65,-239.65 132.36,0 239.65,107.29 239.65,239.65 0,132.36 -107.29,239.65 -239.65,239.65zm0 -495.55c-141.33,0 -255.9,114.57 -255.9,255.9 0,141.33 114.57,255.9 255.9,255.9 141.33,0 255.9,-114.57 255.9,-255.9 0,-141.33 -114.57,-255.9 -255.9,-255.9z"/>
  <g id="_1323464130640">
   <path class="fil2" d="M223.12 219.03c-1.28,0.18 -2.02,0.25 -2.19,0.23 -0.05,-0.01 -0.07,-0.02 -0.07,-0.05 0.01,-0.06 0.52,-0.31 1.52,-0.74 0.94,-0.34 2.42,-1.07 4.44,-2.19 1.05,-0.77 2.54,-2 4.49,-3.71 1.34,-1.17 2.73,-2.15 4.17,-2.92 1.76,-0.93 3.45,-1.28 5.06,-1.04 0.38,0.05 0.87,0.23 1.46,0.54 0.6,0.3 1.12,0.49 1.57,0.55 0.83,0.12 1.55,-0.09 2.15,-0.64 0.5,-0.57 0.99,-1.14 1.49,-1.71 0.36,-0.4 0.65,-0.59 0.87,-0.56 0.11,0.02 0.15,0.13 0.12,0.33 -0.04,0.29 -0.24,0.75 -0.61,1.39 -0.18,0.31 0.57,0.6 2.28,0.85 0.18,0.02 0.28,-0.01 0.32,-0.09 0.03,-0.04 -0.01,-0.49 -0.12,-1.33 -0.03,-0.23 0.12,-0.54 0.45,-0.92 0.56,-0.7 0.88,-1 0.95,-0.9 0.35,0.47 0.46,1.11 0.34,1.94 -0.11,0.7 -0.39,1.48 -0.84,2.35 -0.46,0.87 -0.85,1.38 -1.18,1.54 -0.83,0.41 -2,0.1 -3.5,-0.92 -1.55,1.21 -2.97,1.73 -4.27,1.54 -0.38,-0.06 -0.86,-0.23 -1.42,-0.52 -0.56,-0.29 -0.99,-0.46 -1.28,-0.5 -2.22,-0.32 -4.63,0.4 -7.22,2.17 -1.9,1.39 -3.8,2.78 -5.72,4.17 -1.12,0.62 -2.21,1 -3.26,1.14z"/>
   <path class="fil2" d="M172.72 135.19c0,0.43 -0.54,1.4 -1.63,2.93 -1.23,1.7 -2.4,2.95 -3.5,3.74 -0.71,0.5 -3.07,1.28 -7.07,2.33 -0.58,0.15 -0.93,0.22 -1.03,0.22l0 -0.06c0.09,-0.09 0.32,-0.28 0.7,-0.58 0.52,-0.39 1.94,-1.21 4.27,-2.43 2.23,-1.19 3.54,-1.95 3.92,-2.28 0.07,-0.07 0.1,-0.13 0.1,-0.2 0,-0.53 -1.98,-0.79 -5.96,-0.79 -0.01,0 -0.77,0.03 -2.28,0.1 -0.32,0.01 -0.58,0.01 -0.75,-0.01l0 -0.87 1.35 -2.28c0.41,-0.69 1.16,-1.13 2.26,-1.31 0.39,-0.07 1.31,-0.1 2.75,-0.1 4.58,0 6.87,0.53 6.87,1.59z"/>
   <path class="fil2" d="M335.88 210.09c-0.53,1.6 -1.32,3.41 -2.4,5.44 -4.05,3.38 -7.38,5.8 -9.98,7.26 -4.53,2.55 -9.06,3.82 -13.59,3.82 -2.31,0 -4.05,-0.24 -5.22,-0.71l-1.43 -7.16c-2.77,-3.5 -4.15,-6.88 -4.15,-10.12 0,-5.1 1.56,-9.02 4.69,-11.76 2.67,-2.34 5.98,-3.51 9.94,-3.51 5.25,0 9.93,1.73 14.05,5.19 0.7,0.57 1.04,0.96 1.04,1.18 0,0.14 -0.13,0.21 -0.39,0.21 -0.33,0 -0.86,-0.13 -1.57,-0.39 -2.77,-1 -5.23,-1.5 -7.37,-1.5 -3.15,0 -6.38,0.47 -9.68,1.41 -3.3,0.94 -5.71,2.09 -7.24,3.45 0,3.39 1.18,6.72 3.54,10.01 2.89,4.01 6.57,6.01 11.05,6.01 2.32,0 5.33,-1.06 9.05,-3.18 3.03,-1.74 5.83,-3.73 8.41,-5.97 0.52,-0.46 0.9,-0.69 1.14,-0.72 0.38,0 0.42,0.35 0.11,1.04z"/>
   <path class="fil2" d="M134.83 242.15c-2.62,0 -4.84,-2.05 -6.65,-6.15 -1.62,-3.6 -2.43,-7.37 -2.43,-11.3 0,-4.73 0.46,-8.49 1.39,-11.31 0.33,-1 0.6,-1.5 0.79,-1.5 0.31,0 0.38,0.63 0.21,1.9 -0.38,2.95 -0.57,5.49 -0.57,7.61 0,9.97 2.32,14.95 6.97,14.95 1.89,0 3.59,-1.45 5.12,-4.36 1.62,-3.48 3.23,-6.96 4.83,-10.44 1.43,-2.89 3.14,-5.32 5.15,-7.3 2.12,-2.1 4.04,-3.15 5.76,-3.15 1.64,0 3.43,1.8 5.36,5.4 1.81,3.37 3.53,5.43 5.15,6.19 2.07,0.98 5.76,1.85 10.7,2.61 6.32,0.96 13.62,1.43 21.89,1.43 13.11,0 26.68,-1.46 40.7,-4.4 14.23,-3 25.6,-6.83 34.08,-11.48 0.41,-0.21 0.68,-0.29 0.83,-0.25 0.16,0.07 0.21,0.34 0.14,0.79 -0.14,1.07 -0.22,2.02 -0.22,2.83 0,3.9 1.7,5.86 5.08,5.86 4.68,0 8.09,-1.43 9.98,-4.24 1.38,-2.05 2.07,-5.54 2.07,-10.48 0,-13.9 -0.59,-25.67 -1.79,-35.3 -0.57,-4.65 -1.3,-9.25 -2.18,-13.8 0.48,-3.01 0.93,-5.08 1.36,-6.23 0.19,-0.5 0.36,-0.75 0.5,-0.75 0.17,0 0.33,0.26 0.5,0.79 1.58,5.08 2.85,11.53 3.83,19.35 0.5,3.98 0.88,10.01 1.14,18.09 0.26,8.18 0.58,13.77 0.93,16.78 0.65,5.29 1.78,8.74 3.4,10.33 1.86,1.84 3.83,3.25 5.9,4.22l0 7.16c-3.1,-1.27 -5.48,-2.63 -7.15,-4.08 -2.6,-2.19 -4.32,-5.03 -5.15,-8.51 -0.41,5.22 -2.3,9.02 -5.69,11.41 -2.24,1.59 -4.88,2.41 -7.65,2.41 -2.24,0 -4.09,-0.78 -5.54,-2.36 -1.57,-1.69 -2.43,-4.06 -2.57,-7.11 -9.73,4.91 -21.4,8.85 -35.02,11.83 -13.11,2.87 -25.51,4.3 -37.19,4.3 -15.24,0 -26.32,-1.35 -32.88,-4.05 -2.12,-0.88 -3.96,-2.34 -5.51,-4.39 -0.16,-0.22 -1.18,-1.86 -3.04,-4.94 -0.93,-1.57 -1.83,-2.36 -2.72,-2.36 -2.67,0 -5.48,2.26 -8.44,6.79 -0.52,0.82 -1.46,2.92 -2.82,6.32 -1.36,3.4 -2.54,5.86 -3.54,7.38 -1.58,2.34 -3.24,3.51 -5.01,3.51z"/>
   <path class="fil2" d="M276.82 144.34c0,-2.29 -0.36,-4.17 -1.08,-5.65 0,-0.83 0.67,-2.81 2.01,-5.93 0.16,-0.39 0.31,-0.58 0.43,-0.58 0.14,0 0.31,0.21 0.5,0.61 0.38,0.81 1.26,3.05 2.64,6.72 1.46,3.82 2.3,6.17 2.54,7.05 0.19,0.67 0.29,1.17 0.29,1.5 0,1.05 -1.01,0.42 -3.04,-1.89 -0.24,-0.34 -0.36,-0.19 -0.36,0.43 0,0.21 0.52,7.54 1.57,21.99 1.05,14.45 1.58,22.58 1.58,24.4 0,5.55 -0.85,10.44 -2.54,14.66 -0.36,0.86 -0.65,1.48 -0.86,1.86l0 0c-0.33,0.57 -0.54,0.65 -0.61,0.25 -0.09,-0.43 -0.06,-1.34 0.11,-2.72 0.22,-1.91 0.32,-4.13 0.32,-6.65 0,-2.29 -0.58,-11.71 -1.75,-28.26 -1.17,-16.54 -1.75,-25.81 -1.75,-27.79z"/>
   <path class="fil2" d="M186.42 191.01c-0.52,4.48 -0.88,6.73 -1.07,6.73 -0.19,0 -0.55,-1.84 -1.07,-5.51 -0.91,-5.87 -5.25,-12.55 -13.02,-20.03 -9.54,-9.06 -16.5,-16.31 -20.89,-21.75 -1.14,-1.57 -2.67,-3.74 -4.58,-6.51 -0.62,-0.9 -1.26,-1.55 -1.93,-1.93 -0.38,-0.24 -0.57,-0.62 -0.57,-1.14l0 -4.79c0,-0.96 0.17,-1.43 0.5,-1.43 0.24,0 0.67,0.23 1.29,0.71l9.08 6.94c0.67,0.52 1,0.93 1,1.22 0,0.18 -0.26,0.28 -0.78,0.28 -0.77,0 -2.03,-0.19 -3.79,-0.57 1.47,2 5.07,5.91 10.8,11.73 4.15,4.15 8.29,8.27 12.44,12.38 8.44,8.58 12.66,15.92 12.66,22.03 0,0.57 -0.02,1.12 -0.07,1.64zm39.95 4.08c2.91,0 5.7,-1.06 8.37,-3.18 0.24,-0.19 1.33,-1.33 3.29,-3.4 1.81,-1.93 2.79,-2.9 2.93,-2.9 0.43,0 0.5,0.43 0.22,1.29 -0.38,1.12 -0.58,1.85 -0.58,2.18 0,0.81 0.35,1.74 1.04,2.79 0.91,1.38 2.1,2.07 3.58,2.07 3.91,0 7.26,-2.81 10.05,-8.44 0.29,-0.57 0.62,-0.85 1,-0.85 0.31,0 0.47,0.26 0.47,0.78 0,0.19 -0.03,0.5 -0.09,0.93 -0.06,0.43 -0.09,0.75 -0.09,0.97 0,1.64 0.5,2.98 1.52,4 1.01,1.03 2.3,1.54 3.88,1.54 2.29,0 4.69,-0.89 6.84,-2.65 0.62,-0.52 0.93,-2.43 0.93,-5.72 0,-2.01 -0.51,-10.05 -1.54,-24.14 -1.02,-14.1 -1.54,-22.4 -1.54,-24.93 0,-2.29 -0.35,-4.18 -1.07,-5.65 0,-0.81 0.67,-2.79 2,-5.94 0.15,-0.38 0.29,-0.57 0.43,-0.57 0.15,0 0.31,0.21 0.5,0.64 0.38,0.81 1.27,3.05 2.65,6.73 1.43,3.81 2.29,6.15 2.57,7.01 0.15,0.71 0.22,1.21 0.22,1.5 0,1.05 -1,0.43 -3.01,-1.86 -0.23,-0.34 -0.35,-0.19 -0.35,0.43 0,0.14 0.45,6.41 1.36,18.81 0.9,12.4 1.36,19.79 1.36,22.17 0,6.92 -1.24,12.36 -3.72,16.31 -2.1,3.34 -4.77,5.01 -7.63,5.01 -3.6,0 -6.18,-2.27 -7.73,-6.83 -0.19,-0.59 -0.4,-0.59 -0.64,0 -2.05,5.27 -4.95,7.91 -8.69,7.91 -3.82,0 -6.08,-2.41 -6.8,-7.23 -0.05,-0.4 -0.11,-0.61 -0.18,-0.61 -0.07,0.05 -0.21,0.26 -0.43,0.61 -0.9,1.5 -2.25,3.04 -4.04,4.62 -2.84,2.52 -5.65,3.79 -8.44,3.79 -3.1,0 -5.26,-0.93 -6.47,-2.79 -0.74,-1.17 -1.16,-2.9 -1.25,-5.19 -0.03,-0.26 -0.15,-0.39 -0.36,-0.39 -0.38,0 -0.76,0.22 -1.15,0.68 -2.38,2.76 -3.92,4.44 -4.61,5.04 -3.03,2.6 -6.32,3.9 -9.66,3.9 -3.57,0 -6.15,-1.38 -7.72,-4.15 -1.05,-1.81 -1.77,-4.74 -2.15,-8.8 -1.33,6.49 -2.62,10.61 -3.86,12.38 -2.81,4.05 -6.06,6.91 -9.73,8.58 -1.43,0.62 -3.88,1.38 -7.36,2.29 -3.49,0.91 -6.04,1.45 -7.66,1.64 -0.67,0.05 -1,-0.02 -1,-0.21 0,-0.19 0.31,-0.48 0.93,-0.86 3.24,-1.86 8.42,-4.96 15.52,-9.3 8.01,-5.24 12.02,-12.94 12.02,-23.1 0,-13.21 -0.62,-24.73 -1.86,-34.55 -0.33,-3.24 -1,-7.84 -2,-13.81 0.52,-3.43 0.93,-5.5 1.21,-6.22 0.19,-0.52 0.36,-0.79 0.5,-0.79 0.15,0 0.31,0.27 0.5,0.79 1.58,5.1 2.84,11.56 3.79,19.39 0.67,5.24 1.15,13.4 1.44,24.46 0.28,9.97 0.66,16.14 1.14,18.53 0.57,2.71 1.45,4.57 2.65,5.57 0.86,0.67 2.07,1.01 3.64,1.01 3.51,0 6.68,-0.92 9.3,-2.76 1.05,-0.74 3.42,-2.95 7.12,-6.65 0.45,-0.45 0.88,-0.68 1.29,-0.68 0.64,0 0.82,0.43 0.53,1.29 -0.28,0.86 -0.43,1.66 -0.43,2.39 0,1.65 0.69,2.92 2.04,3.83 1.29,0.86 2.96,1.29 5.01,1.29z"/>
   <path class="fil2" d="M164.46 188.11c0,-0.57 -1.11,-1.32 -3.33,-2.25 -2.21,-0.93 -3.85,-1.3 -4.9,-1.11 -0.38,0.09 -0.52,0.24 -0.42,0.43 0.38,1.05 1.19,2.79 2.43,5.22 3.24,-1.05 5.31,-1.81 6.22,-2.29zm-27.61 14.16c6.53,-5.15 12.8,-8.72 18.81,-10.73 -0.43,-0.71 -1.05,-1.9 -1.86,-3.57 -0.38,-0.81 -0.57,-1.79 -0.57,-2.94 0,-1.86 0.48,-3.43 1.43,-4.72 1.1,-1.57 2.74,-2.36 4.94,-2.36 1.71,0 4.17,1.12 7.36,3.36 3.39,2.29 5.08,4.2 5.08,5.73 -0.47,2 -1.07,3.88 -1.79,5.65 -2.71,0.81 -6,1.83 -9.87,3.07 0.15,2.2 -0.07,3.29 -0.64,3.29 -0.43,0 -0.88,-0.83 -1.36,-2.5 -1.76,0.62 -4.22,1.67 -7.37,3.15 -4.58,2.09 -8.03,4.07 -10.37,5.93 -3.58,2.82 -7.2,6.23 -10.87,10.23 -4.2,4.63 -6.63,7.23 -7.3,7.8 -2.29,2.05 -4.53,3.08 -6.72,3.08 -2.39,0 -4.48,-1.09 -6.3,-3.26 -1.81,-2.17 -2.71,-4.85 -2.71,-8.05 0,-4.43 1.81,-10.18 5.43,-17.24 0.38,-0.71 0.69,-1.07 0.93,-1.07 0.1,0 0.14,0.1 0.14,0.29 0,0.71 -0.78,3.18 -2.36,7.4 -1.57,4.22 -2.36,7.57 -2.36,10.05 0,1.86 0.46,3.38 1.36,4.54 0.91,1.17 2.2,1.76 3.87,1.76 2.28,0 4.79,-1.12 7.51,-3.36 1.43,-1.2 3.88,-3.72 7.36,-7.59 3.34,-3.67 6.08,-6.32 8.23,-7.94z"/>
   <path class="fil2" d="M219.35 243.98l1.82 -3.75c0.15,-0.29 0.3,-0.43 0.47,-0.43 0.24,0 1.26,0.62 3.08,1.86 1.81,1.24 2.71,1.96 2.71,2.18 0,0.81 -0.8,2.5 -2.39,5.08 -0.19,0.31 -0.4,0.39 -0.61,0.25 -1.57,-1.17 -3.35,-2.4 -5.33,-3.69 -0.67,1.51 -1.32,2.78 -1.97,3.83 -0.19,0.33 -0.39,0.42 -0.61,0.25 -1.78,-1.36 -3.63,-2.64 -5.54,-3.83 -0.09,-0.07 -0.09,-0.21 0,-0.43l2.29 -4.68c0.14,-0.29 0.3,-0.43 0.46,-0.43 0.22,0 1.09,0.51 2.62,1.54 1.52,1.02 2.52,1.77 3,2.25z"/>
   <path class="fil2" d="M201.42 157.31c18.4,-6.84 37.64,-13.97 57.71,-21.39 0.78,-0.29 1.24,-0.39 1.39,-0.29 0.19,0.15 0.14,0.56 -0.15,1.24 -0.88,2.15 -1.59,3.44 -2.12,3.89 -16.62,6.11 -36.08,13.68 -58.4,22.7l0 -2.59c0.42,-1.14 0.95,-2.32 1.57,-3.56z"/>
   <path class="fil2" d="M172.2 150.44c18.41,-6.84 37.64,-13.97 57.71,-21.39 0.78,-0.29 1.24,-0.39 1.39,-0.29 0.19,0.14 0.15,0.56 -0.15,1.24 -0.88,2.15 -1.58,3.44 -2.12,3.88 -16.62,6.12 -36.08,13.69 -58.4,22.7l0 -2.58c0.42,-1.14 0.95,-2.33 1.57,-3.56z"/>
   <path class="fil2" d="M234.66 164.17c0,0.9 -0.2,1.84 -0.59,2.81 -0.54,1.25 -1.22,1.87 -2.05,1.87 -1.32,0 -2.26,-0.9 -2.81,-2.7 -0.63,2.31 -1.77,3.46 -3.44,3.46 -0.62,0 -1.16,-0.31 -1.63,-0.93 -0.53,-0.74 -0.79,-1.71 -0.79,-2.92l0 -2.84c0,-0.23 -0.16,-0.39 -0.47,-0.49 -0.31,-0.09 -0.47,-0.33 -0.47,-0.73 0,-0.62 0.27,-1.23 0.8,-1.83 0.48,-0.54 0.85,-0.8 1.11,-0.8 0.32,0 0.48,0.62 0.48,1.87 0,0.65 -0.05,1.19 -0.15,1.63 -0.11,0.44 -0.16,0.82 -0.16,1.15 0,0.67 0.14,1.32 0.42,1.94 0.32,0.72 0.73,1.08 1.21,1.08 0.63,0 1.21,-0.29 1.75,-0.86 0.55,-0.56 0.82,-1.23 0.82,-1.99 0,-0.44 -0.13,-1.19 -0.38,-2.25 -0.26,-1.07 -0.38,-1.73 -0.38,-1.98 0,-0.23 0.11,-0.6 0.34,-1.09 0.23,-0.5 0.41,-0.75 0.52,-0.75 0.21,0 0.48,0.71 0.82,2.12 0.33,1.41 0.5,2.45 0.5,3.12 0,1.94 0.75,2.91 2.26,2.91 0.64,0 1.05,-0.32 1.21,-0.97 -1.29,-2.27 -1.94,-4 -1.94,-5.2 0,-0.7 0.17,-1.31 0.52,-1.84 0.23,-0.37 0.39,-0.57 0.48,-0.59 0.1,0 0.17,0.23 0.21,0.69 0.07,0.65 0.17,1.18 0.31,1.6 0.03,0.04 0.34,0.84 0.94,2.39 0.37,0.93 0.56,1.63 0.56,2.12z"/>
   <path class="fil2" d="M137.45 171.61c0.36,-1.18 0.44,-2.36 0.24,-3.54 -0.24,-1.3 -0.83,-1.95 -1.77,-1.95 -0.44,0 -1.05,0.22 -1.82,0.64 -0.77,0.43 -1.16,0.85 -1.16,1.25 0,0.94 1.5,2.13 4.51,3.6zm-2.32 5.24c-3.77,-1.95 -5.66,-4 -5.66,-6.16 0,-2.6 1.2,-4.97 3.59,-7.13 2.4,-2.15 4.39,-2.94 5.97,-2.37 1.34,0.49 2.01,1.93 2.01,4.33 0,2.15 -0.45,4.56 -1.34,7.24 1.91,1.1 3.11,2.03 3.59,2.81 0,1.01 -0.85,2.74 -2.55,5.17 -0.49,-0.77 -1.65,-1.7 -3.47,-2.8 -2.12,2.92 -4.8,5.59 -8.05,7.98 -3.69,2.72 -7.08,4.77 -10.17,6.15 -0.65,0.33 -4.22,1.69 -10.72,4.08 -1.01,0.37 -1.68,0.55 -2.01,0.55 -0.16,0 -0.24,-0.04 -0.24,-0.12 0,-0.24 0.57,-0.73 1.7,-1.46 4.8,-2.84 9.61,-5.71 14.44,-8.59 5.77,-3.49 10.07,-6.72 12.91,-9.68z"/>
   <path class="fil2" d="M307.54 184.25c3.11,0 6.48,-0.53 10.1,-1.6 1,-0.29 1.51,-0.36 1.51,-0.24 0,0.13 -0.38,0.52 -1.13,1.18 -3.15,2.84 -7.19,4.25 -12.13,4.25 -1.54,0 -2.8,-0.4 -3.78,-1.2 -0.97,-0.81 -1.46,-1.82 -1.46,-3.05 0,-3.27 1.4,-6.7 4.2,-10.28 -2.45,-0.73 -3.68,-2.02 -3.68,-3.87 0,-1.58 0.98,-3.46 2.95,-5.67 1.97,-2.2 3.55,-3.3 4.74,-3.3 0.32,0 0.64,0.25 0.97,0.76 0.33,0.5 0.5,1.03 0.5,1.6 0,0.25 -0.34,0.85 -1,1.79 -0.66,0.95 -1.02,1.32 -1.08,1.14 -0.25,-0.98 -0.8,-1.47 -1.65,-1.47 -0.44,0 -0.99,0.38 -1.63,1.14 -0.65,0.75 -0.97,1.38 -0.97,1.88 0.79,1.29 2.13,1.94 4.01,1.94 0.63,0 1.62,-0.58 2.98,-1.75 0.78,-0.72 1.58,-1.46 2.4,-2.22 0.29,-0.22 0.43,0 0.43,0.66 0,1.45 -0.54,2.92 -1.61,4.39 -4.15,2.8 -7.23,6.03 -9.25,9.68 -0.37,0.69 -0.56,1.3 -0.56,1.84 0,1.6 1.71,2.4 5.14,2.4z"/>
  </g>
  <path class="fil2" d="M204.31 272.11c0,1.18 -1.5,3.87 -4.51,8.07 -3.37,4.69 -6.58,8.13 -9.64,10.32 -1.95,1.36 -8.45,3.5 -19.48,6.42 -1.59,0.41 -2.54,0.6 -2.83,0.59l0 -0.15c0.26,-0.25 0.9,-0.79 1.95,-1.6 1.41,-1.1 5.33,-3.33 11.75,-6.7 6.15,-3.28 9.75,-5.38 10.8,-6.29 0.19,-0.18 0.28,-0.36 0.28,-0.54 0,-1.46 -5.47,-2.19 -16.41,-2.19 -0.05,0 -2.14,0.09 -6.29,0.27 -0.89,0.04 -1.59,0.04 -2.08,-0.01l0 -2.39 3.72 -6.28c1.14,-1.91 3.22,-3.12 6.22,-3.62 1.1,-0.18 3.63,-0.28 7.59,-0.28 12.62,0 18.93,1.46 18.93,4.38z"/>
  <path class="fil2" d="M472.26 182.38c0.63,-2.06 0.78,-4.11 0.42,-6.17 -0.42,-2.27 -1.45,-3.4 -3.08,-3.4 -0.78,0 -1.84,0.37 -3.19,1.11 -1.34,0.75 -2.02,1.48 -2.02,2.18 0,1.64 2.62,3.72 7.87,6.28zm-4.04 9.14c-6.59,-3.4 -9.89,-6.98 -9.89,-10.74 0,-4.53 2.09,-8.68 6.27,-12.44 4.18,-3.75 7.65,-5.13 10.42,-4.14 2.34,0.85 3.51,3.37 3.51,7.55 0,3.75 -0.78,7.97 -2.34,12.65 3.33,1.91 5.42,3.54 6.27,4.89 0,1.77 -1.49,4.78 -4.46,9.03 -0.85,-1.34 -2.87,-2.98 -6.06,-4.89 -3.69,5.1 -8.36,9.75 -14.04,13.93 -6.44,4.74 -12.36,8.32 -17.75,10.73 -1.13,0.57 -7.37,2.94 -18.71,7.12 -1.77,0.64 -2.93,0.96 -3.5,0.96 -0.29,0 -0.43,-0.07 -0.43,-0.21 0,-0.42 1,-1.27 2.98,-2.55 8.36,-4.96 16.76,-9.96 25.19,-14.99 10.06,-6.09 17.58,-11.73 22.54,-16.9z"/>
  <path class="fil2" d="M114.46 306.11c0.36,-0.71 0.71,-1.24 1.06,-1.59 0.36,-0.23 0.54,-0.17 0.54,0.18 0.11,0.35 0.11,0.94 0,1.77 -3.18,17.25 -8.34,25.88 -15.51,25.88 -7.63,0 -11.44,-6.34 -11.44,-19.02 0,-15.61 4.52,-31.99 13.56,-49.13 2.23,-4.23 3.58,-6.39 4.05,-6.51 0.12,0 0.17,0.05 0.17,0.17 0,0.83 -0.64,3.23 -1.93,7.22 -5.87,17.85 -8.8,30.35 -8.8,37.51 0,9.74 2.63,14.61 7.92,14.61 3.05,0 6.51,-3.7 10.38,-11.09z"/>
  <path class="fil2" d="M322.49 91.87c0,3.99 -1.65,8.52 -4.93,13.6 -3.36,5.31 -7.69,9.84 -13.01,13.59 -1.08,0.76 -1.93,1.32 -2.56,1.69l0 -1.43c0.38,-0.44 0.85,-0.96 1.39,-1.55 8.75,-9.53 13.13,-15.9 13.13,-19.1 0,-3.05 -1.41,-4.58 -4.22,-4.58 -1.57,0 -2.97,0.44 -4.22,1.3 -0.94,0.62 -1.52,0.97 -1.76,1.05 -0.15,-0.15 -0.35,-0.27 -0.59,-0.35 0.08,-0.31 0.24,-1.13 0.47,-2.46 1.41,-6.56 4.69,-9.84 9.85,-9.84 4.3,0 6.45,2.69 6.45,8.08z"/>
  <path class="fil2" d="M391.9 375.06c-0.52,1.25 -0.99,1.88 -1.41,1.88 -0.52,0 -0.6,-0.81 -0.23,-2.43 0.31,-1.41 0.47,-3.24 0.47,-5.48 0,-7.3 -4.12,-14.58 -12.37,-21.84 -0.52,-0.47 -0.6,-1.04 -0.23,-1.72l2.35 -4.15c0.2,-0.36 0.54,-0.36 1.01,0 8.09,6 12.14,14.2 12.14,24.58 0,3.24 -0.58,6.29 -1.73,9.16z"/>
  <path class="fil2" d="M315.19 393.39c-0.38,0.65 -1.06,1.39 -2.02,2.23 -1.27,1.13 -2.2,1.52 -2.8,1.16 -0.25,-0.14 -0.49,-1 -0.7,-2.57 -0.21,-1.57 -0.77,-2.62 -1.66,-3.15 -1.99,-1.17 -6.61,2.45 -13.86,10.85 -3.15,3.65 -5.68,6.05 -7.57,7.21 -1.32,0.77 -2.21,1.02 -2.66,0.75 -0.4,-0.23 -0.29,-0.87 0.33,-1.92 0.97,-1.64 1.91,-5.4 2.83,-11.27 0.91,-5.87 0.96,-9.04 0.17,-9.51 -0.55,-0.32 -1,-0.36 -1.35,-0.09 -0.36,0.26 -0.91,0.17 -1.66,-0.28 -0.84,-0.49 -1.58,-1.77 -2.22,-3.82 -0.63,-2.05 -0.73,-3.45 -0.29,-4.2 0.21,-0.35 1.45,-1.14 3.72,-2.38 2.28,-1.24 3.57,-1.78 3.86,-1.6 2.79,1.65 4.32,4.78 4.58,9.39 0.26,4.62 -0.73,9.86 -2.98,15.71 -0.22,0.61 -0.36,0.96 -0.42,1.06 0.01,0.21 0.08,0.25 0.22,0.13 0.11,-0.07 0.43,-0.32 0.95,-0.75 2.33,-2.92 6.23,-7.03 11.7,-12.32 4.56,-3.41 7.97,-4.46 10.21,-3.14 1.14,0.68 1.83,2.13 2.06,4.34 0.21,1.94 0.06,3.32 -0.44,4.17zm-32.78 18.71c-4.07,2.9 -9.71,4.74 -16.95,5.5 -6.49,0.66 -12.13,0.73 -16.91,0.19 -1.04,-0.08 -6.4,-0.99 -16.1,-2.76 -1.51,-0.28 -2.49,-0.56 -2.93,-0.82 -0.2,-0.12 -0.27,-0.23 -0.21,-0.33 0.17,-0.29 1.24,-0.47 3.22,-0.51 8.74,0.19 21.48,-0.11 38.19,-0.92 4.42,-0.55 7.91,-1.3 10.5,-2.26 3.32,-1.2 5.1,-1.72 5.35,-1.57 0.05,0.03 0.05,0.09 -0.01,0.19 -0.21,0.35 -1.59,1.44 -4.15,3.29z"/>
  <path class="fil2" d="M399.14 133.64c3.56,0 6.75,2.11 9.58,6.33 2.82,4.22 4.81,9.74 5.95,16.53 0.13,0.7 0.19,1.11 0.19,1.24 0.13,0.19 0.22,0.19 0.29,0 0.06,-0.13 0.22,-0.54 0.47,-1.24 0.58,-4.07 1.97,-10.13 4.19,-18.19 2.42,-5.79 5.05,-8.67 7.91,-8.67 1.46,0 2.92,0.98 4.39,2.95 1.26,1.71 1.9,3.11 1.9,4.19 0,0.82 -0.22,1.91 -0.67,3.24 -0.57,1.78 -1.23,2.67 -2,2.67 -0.32,0 -1.01,-0.69 -2.09,-2.05 -1.08,-1.37 -2.2,-2.05 -3.34,-2.05 -2.54,0 -4.89,6 -7.05,18.01 -0.95,5.2 -2,8.89 -3.14,11.05 -0.83,1.46 -1.53,2.19 -2.1,2.19 -0.51,0 -0.76,-0.67 -0.76,-2 0,-2.1 -1.21,-6.18 -3.62,-12.25 -2.41,-6.06 -4.13,-9.09 -5.14,-9.09 -0.7,0 -1.15,0.22 -1.34,0.66 -0.19,0.45 -0.76,0.67 -1.71,0.67 -1.08,0 -2.5,-0.79 -4.24,-2.38 -1.75,-1.59 -2.62,-2.86 -2.62,-3.81 0,-0.45 0.73,-1.89 2.19,-4.34 1.46,-2.44 2.38,-3.66 2.76,-3.66z"/>
  <path class="fil2" d="M156.73 231.34c0.04,0.07 0.06,0.16 0.06,0.28 0,0.37 -0.12,0.8 -0.35,1.29 -0.24,0.49 -0.46,0.73 -0.68,0.73 0.17,0 -0.47,-0.11 -1.92,-0.33 -0.53,0.92 -1.07,1.63 -1.64,2.12 -0.49,0.41 -1.23,0.86 -2.2,1.32 -0.26,0.13 -0.39,0.26 -0.39,0.39 0,0.11 0.09,0.19 0.26,0.24 0.61,0.17 1.51,0.2 2.69,0.07 0.51,-0.06 1.73,-0.31 3.65,-0.77 0.24,-0.06 0.37,-0.07 0.37,-0.05 0,0.03 -0.37,0.31 -1.1,0.82 -0.33,0.23 -0.9,0.49 -1.73,0.79 -1.13,0.4 -2.15,0.61 -3.06,0.61 -1.09,0 -1.63,-0.36 -1.63,-1.07 0,-0.72 0.31,-1.35 0.94,-1.88 0.52,-0.36 1.04,-0.73 1.57,-1.1 0.74,-0.52 1.31,-1.05 1.69,-1.61 -1.16,-0.2 -1.74,-0.64 -1.74,-1.33 0,-0.51 0.15,-1.08 0.47,-1.71 -0.21,-0.72 -0.17,-1.23 0.14,-1.53 0.23,-0.23 0.5,-0.35 0.82,-0.35 0.3,0 0.65,0.1 1.04,0.31 1.38,0.76 2.29,1.68 2.74,2.76zm-0.75 0.68c-0.29,-0.63 -0.8,-1.1 -1.53,-1.41 0,0.66 -0.06,1.17 -0.18,1.52 0.12,0.03 0.67,0.11 1.64,0.24 0.06,0.01 0.1,0.01 0.13,-0.02 0.04,-0.04 0.02,-0.15 -0.06,-0.33zm-2.28 0c0.07,-0.35 0.05,-0.71 -0.04,-1.08 -0.1,-0.42 -0.28,-0.63 -0.52,-0.63 -0.15,0 -0.36,0.13 -0.63,0.4 -0.27,0.27 -0.4,0.47 -0.4,0.61 0,0.33 0.53,0.56 1.59,0.7z"/>
  <path class="fil2" d="M459.37 308.38c-5.86,-7.7 -11.3,-11.56 -16.33,-11.56 -7.36,0 -11.05,1.93 -11.05,5.78 0,4.86 5.11,7.28 15.32,7.28 3.69,0 7.71,-0.5 12.06,-1.5zm22.96 -3.08c8.96,-3.85 14.62,-7.74 16.96,-11.69 0,-2.51 -3.35,-9.29 -10.05,-20.34 -7.28,-12.06 -11.64,-21.18 -13.06,-27.38 -0.42,-1.84 -1.59,-3.05 -3.52,-3.64 -1.59,-0.59 -2.26,-1.76 -2.01,-3.52l2.52 -19.72c0.25,-2.09 0.79,-3.14 1.63,-3.14 0.59,0 1.51,0.55 2.76,1.64l19.59 17.33c2.35,2.09 3.52,3.68 3.52,4.77 0,2.18 -4.02,2.26 -12.06,0.25 12.4,19.68 18.6,33.16 18.6,40.44 0,24.71 -8.3,40.57 -24.88,47.6l-0.6 0.32c0,4.86 -1.17,10.89 -3.52,18.09 -3.01,9.55 -7.2,17.42 -12.56,23.61 -12.56,14.57 -26.21,27.47 -40.94,38.68 -21.94,16.58 -41.11,24.88 -57.53,24.88 -13.73,0 -24.36,-5.11 -31.9,-15.33 -6.7,-8.88 -10.04,-20.09 -10.04,-33.66 0,-17.42 3.68,-35.25 11.05,-53.5 1.67,-4.02 2.85,-6.03 3.51,-6.03 0.34,0.16 0.51,0.59 0.51,1.25 0,1.35 -0.34,3.27 -1.01,5.78 -5.19,18.09 -7.78,31.82 -7.78,41.2 0,8.54 2.17,15.9 6.53,22.1 6.36,8.71 16.66,13.06 30.9,13.06 12.38,0 27.29,-5.27 44.71,-15.82 14.23,-8.54 27.79,-19.01 40.69,-31.4 11.72,-11.22 17.58,-18.67 17.58,-22.35 0,-2.69 -0.5,-5.45 -1.5,-8.3 -5.03,1.68 -12.15,2.51 -21.35,2.51 -19.77,0 -29.65,-6.78 -29.65,-20.34 0,-10.38 3.27,-19.51 9.8,-27.38 6.2,-7.37 12.72,-11.05 19.59,-11.05 5.19,0 10.8,3.26 16.83,9.79 5.36,5.87 10.13,13.15 14.32,21.86 0.31,0 1.09,-0.16 2.36,-0.57z"/>
  <path class="fil2" d="M154.35 422.22c-21.69,0 -37.58,-7.37 -47.66,-22.09 -7.69,-11.18 -11.53,-25.47 -11.53,-42.88 0,-5.44 0.39,-10.7 1.19,-15.78 1.31,-8.27 3.12,-15.35 5.44,-21.22 0.8,-2.03 1.56,-3.05 2.29,-3.05 0.73,0 0.87,1.2 0.43,3.59 -3.33,18.22 -5,28.44 -5,30.69 0,11.03 3.73,21.18 11.21,30.47 10.01,12.34 24.48,18.5 43.42,18.5 16.83,0 34.64,-3.88 53.43,-11.64 15.23,-6.38 29.02,-14.26 41.35,-23.62 11.03,-8.41 16.54,-14.43 16.54,-18.06 0,-10.38 -3.33,-21.95 -10.01,-34.71 -1.31,-2.47 -1.96,-4.5 -1.96,-6.1 0,-1.16 1.42,-6.27 4.25,-15.34 0.51,-1.75 1.09,-2.62 1.74,-2.62 0.65,0 1.56,1.2 2.72,3.6 5.51,11.46 12.69,17.19 21.55,17.19 5.44,0 9.5,-0.44 12.19,-1.31 4.28,-1.3 8.55,-4.2 12.84,-8.7 2.39,-3.27 6.2,-8.2 11.42,-14.8 1.16,-1.38 2.36,-2.07 3.59,-2.07 1.53,0 2.29,0.8 2.29,2.39 0,0.8 -0.34,2.2 -1.03,4.2 -0.7,1.99 -1.04,3.53 -1.04,4.62 0,2.03 1.2,4.28 3.59,6.75 2.98,3.11 6.71,4.68 11.21,4.68 6.82,0 13.86,-8.35 21.11,-25.03 0.66,-1.53 1.45,-2.29 2.39,-2.29 1.68,0 2.29,1.16 1.86,3.48 -0.29,1.67 -0.44,3.23 -0.44,4.68 0,9.94 5.69,14.89 17.01,14.89 10.16,0 16.47,-2.93 18.93,-8.81 0,-2.03 -1.7,-6.38 -5.11,-13.06 -4.35,-8.49 -7.44,-15.45 -9.25,-20.89 -3.7,-11.17 -6.21,-21.62 -7.51,-31.34 -0.51,-3.77 -0.87,-6.1 -1.09,-6.97 -0.51,-2.03 -1.49,-4.02 -2.94,-5.98 1.02,-3.34 2.61,-8.02 4.79,-14.04 0.72,-1.74 1.38,-2.61 1.96,-2.61 0.51,0 1.42,0.87 2.72,2.61 5.73,7.98 10.55,15.12 14.47,21.44 1.6,2.61 2.4,4.46 2.4,5.55 0,0.79 -0.36,1.19 -1.09,1.19 -1.45,0 -4.06,-1.19 -7.84,-3.59 -0.35,0 -0.65,0.26 -0.87,0.77 1.31,4.71 3.42,11.21 6.32,19.47 6.53,18.58 9.79,32.11 9.79,40.59 0,7.4 -1.85,14.88 -5.55,22.42 -4.93,10.01 -11.64,15.02 -20.13,15.02 -11.11,0 -18.57,-5.82 -22.34,-17.5 -0.44,-1.38 -0.91,-1.38 -1.42,0 -5.22,14.5 -12.69,21.76 -22.41,21.76 -3.56,0 -7.19,-1.27 -10.89,-3.81 -4.13,-2.9 -6.99,-6.68 -8.59,-11.32 -0.44,-1.38 -1.09,-1.38 -1.96,0 -2.03,3.34 -5.55,6.93 -10.56,10.78 -7.11,5.44 -14.03,8.16 -20.78,8.16 -3.27,0 -6.06,-0.36 -8.38,-1.09 0,18.79 -3.67,32.39 -10.99,40.81 -9.72,11.17 -23.8,21.95 -42.23,32.32 -23.5,13.13 -45.45,19.7 -65.84,19.7z"/>
  <path class="fil2" d="M491.7 381.24l3.84 -7.9c0.3,-0.6 0.62,-0.9 0.97,-0.9 0.5,0 2.66,1.3 6.47,3.91 3.81,2.61 5.72,4.14 5.72,4.59 0,1.7 -1.68,5.26 -5.04,10.68 -0.4,0.65 -0.83,0.83 -1.28,0.53 -3.31,-2.46 -7.05,-5.04 -11.21,-7.75 -1.4,3.16 -2.78,5.84 -4.14,8.05 -0.4,0.7 -0.83,0.88 -1.28,0.53 -3.76,-2.86 -7.64,-5.55 -11.66,-8.06 -0.2,-0.15 -0.2,-0.45 0,-0.9l4.82 -9.85c0.3,-0.61 0.63,-0.91 0.98,-0.91 0.45,0 2.28,1.08 5.49,3.24 3.21,2.16 5.32,3.74 6.32,4.74z"/>
  <path class="fil2" d="M340.42 194.9c-0.2,-0.15 -0.2,-0.45 0,-0.9l4.82 -9.85c0.3,-0.61 0.62,-0.91 0.98,-0.91 0.5,0 2.65,1.3 6.46,3.91 3.81,2.61 5.72,4.14 5.72,4.59 0,1.71 -1.68,5.27 -5.04,10.69 -0.4,0.7 -0.83,0.87 -1.28,0.52 -3.76,-2.86 -7.64,-5.54 -11.66,-8.05z"/>
  <path class="fil2" d="M405.28 488.72c0,1.41 -0.36,3.15 -1.09,5.21 -0.69,1.91 -1.32,3.14 -1.89,3.69 -1.19,1.14 -3.19,2.04 -5.98,2.71 -2.36,0.57 -4.68,0.85 -6.96,0.85 -1.43,0 -2.85,-0.28 -4.24,-0.85 -1.32,-0.53 -2.16,-1.1 -2.53,-1.71 0,-0.85 0.24,-2.64 0.73,-5.39 0.12,-0.69 0.42,-0.81 0.92,-0.36 1.47,1.4 3.75,2.09 6.83,2.09 2.93,0 5.5,-0.32 7.7,-0.97 2.04,-0.61 3.39,-1.36 4.04,-2.27 0,-1.77 -1.13,-4.04 -3.37,-6.81 -2.35,-2.94 -5.02,-5.17 -7.98,-6.69 -0.45,-0.23 -1.37,-0.39 -2.75,-0.47 -0.05,-0.04 -0.08,-0.12 -0.08,-0.24 0,-1.23 0.21,-2.58 0.65,-4.03 0.51,-1.69 1.09,-2.54 1.73,-2.54 2.48,0 5.42,1.94 8.82,5.81 3.63,4.13 5.45,8.11 5.45,11.97z"/>
  <path class="fil2" d="M366.66 516.75c-1.37,0.31 -2.93,0.47 -4.68,0.47 -3.24,0 -6.77,-0.51 -10.58,-1.53 -3.42,-0.93 -5.07,-1.58 -4.96,-1.95 0.02,-0.1 0.34,-0.15 0.95,-0.15 0.43,0 1.5,0.05 3.2,0.15 1.7,0.1 2.98,0.15 3.84,0.15 0.77,0 1.39,-0.03 1.86,-0.09 4.3,-0.53 7.85,-1.66 10.64,-3.39 3.68,-2.28 6.63,-4.97 8.87,-8.08 1.67,-2.27 2.51,-3.92 2.51,-4.92 0,-0.9 -0.42,-2.08 -1.24,-3.54 -1.53,2.78 -3.59,4.16 -6.16,4.16 -3.77,0 -5.66,-2.3 -5.66,-6.9 0,-2.49 0.96,-5.42 2.89,-8.78 1.85,-3.2 3.3,-4.81 4.36,-4.81 0.49,0 1.39,0.69 2.68,2.07 1.56,1.67 2.83,3.58 3.83,5.75 1.32,2.81 1.98,5.71 1.98,8.72 0,4.34 -1.6,9.02 -4.79,14.05 -3.19,5.02 -6.37,7.89 -9.54,8.62zm8.23 -27.18c-0.14,-0.59 -0.77,-1.55 -1.89,-2.89 -1.2,-1.45 -2.09,-2.18 -2.68,-2.18 -0.35,0 -0.88,0.68 -1.59,2.04 -0.65,1.25 -0.97,2.08 -0.97,2.47 0,0.67 0.4,1.26 1.2,1.77 0.81,0.51 1.69,0.77 2.66,0.77 0.55,0 1.16,-0.19 1.82,-0.56 0.75,-0.42 1.23,-0.89 1.45,-1.42z"/>
  <path class="fil2" d="M363.09 496.76c-0.46,1.87 -1.26,3.34 -2.42,4.42 0,-2.26 -0.78,-11.04 -2.33,-26.35 -1.49,-14.79 -2.2,-22.46 -2.12,-22.99 0.1,-0.59 0.51,-1.69 1.24,-3.3 0.74,-1.69 1.26,-2.53 1.56,-2.53 0.1,0 0.16,0.11 0.17,0.35 2.81,24.78 4.22,40.44 4.22,46.98 0,1.34 -0.11,2.48 -0.32,3.42z"/>
  <path class="fil2" d="M273.91 498.65l-0.42 -0.03c-0.53,3.03 -1.48,5.64 -2.83,7.82 -3.26,5.26 -6.59,8.66 -9.96,10.19 -2.25,1.01 -5.24,1.51 -9,1.51 -3.1,0 -6.22,-0.32 -9.37,-0.94 -2.85,-0.58 -4.27,-1.06 -4.27,-1.45 0,-0.24 1.98,-0.39 5.95,-0.47 4.68,-0.1 8.09,-0.58 10.23,-1.44 5.97,-2.4 10.43,-5.52 13.38,-9.35 1.91,-2.48 2.86,-4.52 2.86,-6.13 -4.26,-0.41 -7.27,-0.95 -9.02,-1.62 -2.59,-1.02 -3.89,-2.66 -3.89,-4.89 0,-2.87 0.92,-5.93 2.77,-9.17 1.69,-3.01 3.08,-4.52 4.16,-4.54 1.57,-0.04 3.39,1.79 5.45,5.48 1.65,2.93 2.86,5.77 3.63,8.52l0.35 0.03 0 0c4.17,0.41 10.25,0.62 18.25,0.62 14.72,0 24.68,-0.31 29.89,-0.92 7.12,-0.84 11.98,-2.71 14.59,-5.6 0.4,-0.43 0.71,-0.64 0.95,-0.64 0.25,0 0.38,0.25 0.38,0.76 0,0.18 -0.03,0.45 -0.09,0.8 -0.06,0.35 -0.09,0.62 -0.09,0.79 0,0.79 0.57,1.42 1.71,1.89 1,0.39 2.14,0.59 3.42,0.59 1.89,0 3.62,-0.28 5.46,-0.72 2.32,-0.53 3.71,-1.26 4.16,-2.21 0.09,-0.19 -0.12,-2.72 -0.65,-7.57 -0.4,-4.62 -0.78,-8.77 -1.15,-12.44 -0.87,-8.86 -1.56,-14.66 -2.09,-17.39 -0.06,-0.26 -0.47,-1.06 -1.21,-2.42 -0.71,-1.26 -1.06,-2.11 -1.06,-2.56 0,-0.71 0.57,-2.48 1.71,-5.31 1.16,-2.91 2.02,-4.63 2.59,-5.16 0.12,0 0.23,1.16 0.32,3.48 0.12,2.44 0.29,3.82 0.51,4.16 0.7,1.04 1.66,1.74 2.85,2.09 1.11,0.31 1.69,0.56 1.77,0.74 0.2,0.45 -0.88,2.65 -3.24,6.6 0.08,1.45 0.54,7.03 1.39,16.74 0.74,8.79 1.12,13.87 1.12,15.24 0,2.06 -0.52,4.22 -1.54,6.49 -0.98,2.12 -2.12,3.72 -3.42,4.8 -1.96,1.62 -5.08,1.92 -7.52,1.92 -3.67,0 -6.31,-1.59 -7.9,-4.77 -0.33,0.51 -0.78,0.99 -1.35,1.44 -1.34,1.1 -3.11,1.99 -5.31,2.66 -6.64,2 -18.71,3 -36.2,3 -7.93,0 -14.03,-0.2 -18.27,-0.62l0 0zm-5.61 -7.04c-0.39,-0.85 -0.85,-1.63 -1.36,-2.36 -1.18,-1.77 -2.51,-3.11 -4.01,-4.04 -0.39,0.04 -0.89,0.43 -1.5,1.15 -0.67,0.81 -1,1.57 -1,2.3 0,1.3 2.62,2.28 7.87,2.95z"/>
  <path class="fil2" d="M251.05 506.55c-1.41,2.2 -4.21,4.11 -8.4,5.72 -4.24,1.65 -8.52,2.48 -12.82,2.48 -4.54,0 -8.15,-0.94 -10.85,-2.8 -3.12,-2.21 -4.68,-5.49 -4.68,-9.85 0,-2.24 0.53,-4.89 1.59,-7.96 0.9,-2.55 1.9,-4.7 3.01,-6.45 0.76,-1.22 1.28,-1.83 1.56,-1.83 0.1,0 0.15,0.09 0.15,0.27 0,0.39 -0.21,1.09 -0.62,2.09 -1.85,4.4 -2.77,7.49 -2.77,9.28 0,3.68 1.4,6.46 4.21,8.34 2.42,1.62 5.54,2.42 9.37,2.42 4.39,0 8.77,-0.9 13.15,-2.71 4.32,-1.77 6.85,-3.63 7.58,-5.57 0.23,-0.63 0.35,-1.39 0.35,-2.27 0,-2.4 -0.75,-5.41 -2.24,-9.05 -1.36,-3.3 -2.78,-5.89 -4.28,-7.75 1.11,-2.24 2.17,-4.11 3.19,-5.6 1.26,1.25 2.45,3.17 3.59,5.74 1.73,3.9 2.6,8.1 2.6,12.62 0,1.49 -0.4,3.67 -1.18,6.52 -0.83,2.94 -1.66,5.06 -2.51,6.36z"/>
  <path class="fil2" d="M398.14 459.92c0,0.65 -0.67,1.73 -2.01,3.24 -1.26,1.44 -2.05,2.16 -2.39,2.16 -0.08,0 -1.85,-1.27 -5.33,-3.81 0.29,-0.45 1.05,-1.47 2.27,-3.06 1.31,-1.71 2.02,-2.57 2.12,-2.57 0.35,0 1.33,0.59 2.94,1.76 1.6,1.17 2.4,1.93 2.4,2.28z"/>
  <path class="fil2" d="M237.78 460.81c0,0.65 -0.67,1.73 -2,3.25 -1.26,1.43 -2.06,2.15 -2.39,2.15 -0.08,0 -1.86,-1.27 -5.34,-3.8 0.3,-0.46 1.06,-1.48 2.27,-3.07 1.32,-1.71 2.03,-2.57 2.13,-2.57 0.35,0 1.33,0.59 2.93,1.76 1.6,1.17 2.4,1.93 2.4,2.28z"/>
  <path class="fil2" d="M313.33 474.72c0,0.65 -0.67,1.73 -2.01,3.25 -1.26,1.43 -2.05,2.15 -2.39,2.15 -0.08,0 -1.85,-1.27 -5.33,-3.8 0.29,-0.46 1.05,-1.48 2.27,-3.07 1.31,-1.71 2.02,-2.56 2.12,-2.56 0.35,0 1.33,0.58 2.93,1.75 1.61,1.17 2.41,1.93 2.41,2.28z"/>
  <path class="fil2" d="M389.17 450.95c0.18,-0.58 0.22,-1.17 0.12,-1.76 -0.12,-0.65 -0.41,-0.97 -0.88,-0.97 -0.22,0 -0.53,0.1 -0.91,0.31 -0.39,0.22 -0.58,0.43 -0.58,0.63 0,0.47 0.75,1.06 2.25,1.79zm-1.16 2.62c-1.88,-0.97 -2.83,-2 -2.83,-3.07 0,-1.3 0.6,-2.49 1.8,-3.56 1.2,-1.08 2.19,-1.47 2.98,-1.19 0.67,0.24 1,0.96 1,2.16 0,1.08 -0.22,2.28 -0.66,3.62 0.95,0.55 1.55,1.02 1.79,1.4 0,0.51 -0.42,1.37 -1.28,2.59 -0.24,-0.39 -0.82,-0.85 -1.73,-1.4 -1.06,1.46 -2.4,2.79 -4.02,3.99 -1.85,1.36 -3.54,2.38 -5.08,3.07 -0.33,0.16 -2.11,0.84 -5.36,2.04 -0.5,0.18 -0.84,0.27 -1,0.27 -0.08,0 -0.12,-0.02 -0.12,-0.06 0,-0.12 0.28,-0.36 0.85,-0.73 2.39,-1.42 4.8,-2.85 7.21,-4.29 2.88,-1.74 5.03,-3.36 6.45,-4.84z"/>
  <path class="fil2" d="M375.76 448.48c0,0.3 -0.38,0.98 -1.14,2.04 -0.85,1.18 -1.66,2.05 -2.43,2.6 -0.49,0.35 -2.13,0.89 -4.92,1.62 -0.4,0.11 -0.64,0.16 -0.71,0.15l0 -0.04c0.06,-0.06 0.23,-0.2 0.49,-0.4 0.36,-0.27 1.35,-0.84 2.97,-1.69 1.55,-0.83 2.46,-1.36 2.72,-1.59 0.05,-0.04 0.07,-0.09 0.07,-0.13 0,-0.37 -1.38,-0.56 -4.14,-0.56 -0.01,0 -0.54,0.03 -1.59,0.07 -0.22,0.01 -0.4,0.01 -0.52,0l0 -0.6 0.94 -1.59c0.29,-0.48 0.81,-0.79 1.57,-0.91 0.27,-0.05 0.91,-0.07 1.91,-0.07 3.19,0 4.78,0.37 4.78,1.1z"/>
  <path class="fil2" d="M311.64 454.85c0,0.91 -0.2,1.84 -0.59,2.82 -0.53,1.24 -1.22,1.87 -2.05,1.87 -1.32,0 -2.25,-0.9 -2.81,-2.71 -0.62,2.32 -1.77,3.47 -3.43,3.47 -0.63,0 -1.17,-0.31 -1.63,-0.94 -0.54,-0.74 -0.8,-1.71 -0.8,-2.91l0 -2.84c0,-0.24 -0.16,-0.4 -0.47,-0.49 -0.31,-0.09 -0.47,-0.33 -0.47,-0.73 0,-0.62 0.27,-1.23 0.8,-1.84 0.49,-0.53 0.86,-0.79 1.11,-0.79 0.32,0 0.48,0.62 0.48,1.87 0,0.65 -0.05,1.19 -0.15,1.63 -0.1,0.44 -0.16,0.82 -0.16,1.14 0,0.68 0.14,1.32 0.42,1.95 0.32,0.71 0.73,1.07 1.21,1.07 0.63,0 1.21,-0.28 1.76,-0.85 0.54,-0.56 0.81,-1.23 0.81,-1.99 0,-0.44 -0.13,-1.19 -0.38,-2.26 -0.25,-1.06 -0.38,-1.72 -0.38,-1.98 0,-0.23 0.11,-0.59 0.34,-1.09 0.24,-0.49 0.41,-0.74 0.53,-0.74 0.2,0 0.48,0.7 0.81,2.11 0.34,1.41 0.5,2.45 0.5,3.13 0,1.94 0.75,2.91 2.26,2.91 0.65,0 1.05,-0.32 1.21,-0.97 -1.29,-2.27 -1.94,-4 -1.94,-5.21 0,-0.69 0.17,-1.3 0.52,-1.83 0.23,-0.37 0.39,-0.57 0.49,-0.59 0.09,0 0.16,0.23 0.2,0.69 0.07,0.65 0.18,1.18 0.32,1.59 0.02,0.05 0.33,0.85 0.93,2.4 0.37,0.92 0.56,1.63 0.56,2.11z"/>
  <path class="fil2" d="M306.98 436.42c0.19,-0.59 0.23,-1.18 0.13,-1.77 -0.13,-0.65 -0.42,-0.97 -0.89,-0.97 -0.22,0 -0.52,0.1 -0.91,0.32 -0.38,0.21 -0.58,0.42 -0.58,0.62 0,0.47 0.75,1.07 2.25,1.8zm-1.15 2.61c-1.89,-0.97 -2.83,-1.99 -2.83,-3.07 0,-1.3 0.6,-2.49 1.79,-3.56 1.2,-1.08 2.19,-1.47 2.99,-1.19 0.66,0.25 1,0.97 1,2.16 0,1.08 -0.22,2.29 -0.67,3.62 0.95,0.55 1.55,1.02 1.8,1.4 0,0.51 -0.43,1.37 -1.28,2.59 -0.25,-0.38 -0.82,-0.85 -1.74,-1.4 -1.05,1.46 -2.39,2.79 -4.02,3.99 -1.84,1.36 -3.53,2.38 -5.08,3.07 -0.32,0.16 -2.11,0.84 -5.35,2.04 -0.51,0.18 -0.84,0.27 -1.01,0.27 -0.08,0 -0.12,-0.02 -0.12,-0.06 0,-0.12 0.29,-0.36 0.85,-0.73 2.4,-1.42 4.8,-2.85 7.22,-4.29 2.88,-1.74 5.03,-3.36 6.45,-4.84z"/>
  <path class="fil2" d="M265.47 457.65c0,0.3 -0.38,0.98 -1.14,2.04 -0.85,1.18 -1.66,2.05 -2.43,2.6 -0.49,0.35 -2.13,0.89 -4.91,1.62 -0.41,0.11 -0.65,0.16 -0.72,0.15l0 -0.04c0.06,-0.06 0.23,-0.2 0.49,-0.4 0.36,-0.27 1.35,-0.84 2.97,-1.69 1.55,-0.83 2.46,-1.36 2.72,-1.59 0.05,-0.04 0.07,-0.09 0.07,-0.13 0,-0.37 -1.38,-0.56 -4.14,-0.56 -0.01,0 -0.54,0.03 -1.58,0.07 -0.23,0.01 -0.41,0.01 -0.53,0l0 -0.6 0.94 -1.59c0.29,-0.48 0.81,-0.79 1.57,-0.91 0.27,-0.05 0.91,-0.07 1.91,-0.07 3.19,0 4.78,0.37 4.78,1.1z"/>
  <path class="fil2" d="M172.14 449.74c3.56,0 6.75,2.11 9.58,6.33 2.82,4.23 4.81,9.74 5.95,16.53 0.13,0.7 0.19,1.12 0.19,1.24 0.13,0.19 0.23,0.19 0.29,0 0.06,-0.12 0.22,-0.54 0.47,-1.24 0.58,-4.06 1.97,-10.13 4.2,-18.19 2.41,-5.78 5.05,-8.67 7.9,-8.67 1.46,0 2.92,0.98 4.39,2.95 1.27,1.72 1.9,3.11 1.9,4.19 0,0.83 -0.22,1.91 -0.67,3.24 -0.57,1.78 -1.23,2.67 -1.99,2.67 -0.32,0 -1.02,-0.69 -2.1,-2.05 -1.08,-1.36 -2.19,-2.05 -3.33,-2.05 -2.54,0 -4.9,6 -7.06,18.01 -0.95,5.2 -2,8.89 -3.14,11.05 -0.82,1.46 -1.52,2.19 -2.1,2.19 -0.5,0 -0.76,-0.67 -0.76,-2 0,-2.1 -1.2,-6.18 -3.62,-12.24 -2.41,-6.07 -4.12,-9.1 -5.14,-9.1 -0.7,0 -1.15,0.22 -1.34,0.66 -0.19,0.45 -0.76,0.67 -1.71,0.67 -1.08,0 -2.49,-0.79 -4.24,-2.38 -1.75,-1.59 -2.62,-2.86 -2.62,-3.81 0,-0.44 0.73,-1.89 2.19,-4.33 1.46,-2.45 2.38,-3.67 2.76,-3.67z"/>
  <path class="fil2" d="M470.62 427.41c0,5.04 -2.08,10.76 -6.22,17.17 -4.24,6.71 -9.72,12.43 -16.43,17.17 -1.36,0.95 -2.43,1.66 -3.23,2.13l0 -1.81c0.48,-0.55 1.06,-1.21 1.75,-1.95 11.05,-12.03 16.58,-20.08 16.58,-24.12 0,-3.85 -1.78,-5.78 -5.33,-5.78 -1.98,0 -3.75,0.55 -5.33,1.64 -1.18,0.78 -1.92,1.23 -2.22,1.32 -0.19,-0.19 -0.44,-0.34 -0.74,-0.44 0.1,-0.4 0.3,-1.43 0.59,-3.11 1.78,-8.28 5.92,-12.43 12.44,-12.43 5.42,0 8.14,3.41 8.14,10.21z"/>
  <path class="fil2" d="M184.96 348.27c-0.52,1.25 -0.99,1.88 -1.41,1.88 -0.52,0 -0.6,-0.81 -0.23,-2.43 0.31,-1.41 0.46,-3.24 0.46,-5.48 0,-7.31 -4.12,-14.59 -12.36,-21.84 -0.53,-0.47 -0.6,-1.04 -0.24,-1.72l2.35 -4.15c0.21,-0.36 0.55,-0.36 1.02,0 8.09,6 12.13,14.2 12.13,24.58 0,3.24 -0.57,6.29 -1.72,9.16z"/>
  <path class="fil2" d="M372.4 128.76c-0.52,1.26 -0.99,1.88 -1.41,1.88 -0.52,0 -0.6,-0.81 -0.23,-2.42 0.31,-1.41 0.46,-3.24 0.46,-5.48 0,-7.31 -4.12,-14.59 -12.36,-21.84 -0.53,-0.47 -0.6,-1.04 -0.24,-1.72l2.35 -4.15c0.21,-0.37 0.55,-0.37 1.02,0 8.09,6 12.13,14.19 12.13,24.58 0,3.23 -0.57,6.28 -1.72,9.15z"/>
  <path class="fil2" d="M268.46 88.06c-0.13,0.6 -0.47,1.36 -1,2.26 -0.7,1.2 -1.33,1.74 -1.88,1.62 -0.23,-0.05 -0.63,-0.66 -1.2,-1.82 -0.57,-1.17 -1.27,-1.84 -2.1,-2.02 -1.85,-0.41 -4.52,3.59 -7.99,11.98 -1.52,3.64 -2.87,6.16 -4.05,7.55 -0.83,0.93 -1.45,1.35 -1.87,1.26 -0.37,-0.08 -0.45,-0.6 -0.24,-1.58 0.34,-1.52 0.11,-4.68 -0.69,-9.48 -0.79,-4.8 -1.56,-7.28 -2.3,-7.44 -0.51,-0.11 -0.87,-0.02 -1.08,0.27 -0.2,0.3 -0.66,0.37 -1.35,0.22 -0.83,-0.18 -1.82,-1.04 -2.96,-2.57 -1.15,-1.54 -1.5,-2.55 -1.05,-3.03 2.93,-3.43 4.55,-5.11 4.88,-5.04 2.58,0.57 4.57,2.61 5.96,6.13 1.39,3.52 1.96,7.85 1.71,12.98 -0.02,0.53 -0.04,0.84 -0.06,0.93 0.06,0.16 0.13,0.18 0.21,0.05 0.07,-0.09 0.25,-0.36 0.54,-0.83 1.07,-2.87 3.05,-7.06 5.94,-12.58 2.68,-3.82 5.05,-5.51 7.14,-5.06 1.06,0.24 1.97,1.18 2.72,2.85 0.65,1.45 0.89,2.57 0.72,3.35zm-71.32 16.05l0.21 -0.97c0.35,-0.15 0.79,-0.32 1.31,-0.51 6.9,-2.08 16.72,-5.58 29.47,-10.5 5.29,-2.53 8.82,-4.81 10.57,-6.85 0.65,-0.78 1.12,-1.14 1.4,-1.08 0.08,0.07 0.1,0.17 0.07,0.31 -0.15,0.7 -1.17,2.14 -3.05,4.35 -3.12,3.63 -7.04,6.51 -11.76,8.62 -4.88,2.18 -9.25,3.68 -13.11,4.48 -0.76,0.17 -5.17,0.84 -13.22,1.99 -0.8,0.1 -1.43,0.16 -1.89,0.16z"/>
 </g>
</svg>
