<?xml version="1.0" encoding="UTF-8"?>
<!DOCTYPE svg PUBLIC "-//W3C//DTD SVG 1.1//EN" "http://www.w3.org/Graphics/SVG/1.1/DTD/svg11.dtd">
<svg xmlns="http://www.w3.org/2000/svg" xml:space="preserve" width="600px" height="600px" version="1.1" style="shape-rendering:geometricPrecision; text-rendering:geometricPrecision; image-rendering:optimizeQuality; fill-rule:evenodd; clip-rule:evenodd"
viewBox="0 0 600 600"
 xmlns:xlink="http://www.w3.org/1999/xlink">
 <defs>
  <style type="text/css">
   <![CDATA[
    .fil3 {fill:black}
    .fil0 {fill:#CC33FF}
    .fil1 {fill:#F3F3EB}
    .fil4 {fill:white}
    .fil2 {fill:white;fill-rule:nonzero}
   ]]>
  </style>
 </defs>
 <g id="Layer_x0020_1">
  <metadata id="Wiki-Layer"/>
  <polygon class="fil0" points="300,0 314.89,15.78 331.36,1.64 344.52,18.9 362.37,6.56 373.66,25.09 392.7,14.68 402,34.29 422.02,25.94 429.21,46.41 450,40.19 455.01,61.31 476.34,57.29 479.11,78.82 500.74,77.06 501.25,98.75 522.94,99.26 521.18,120.89 542.71,123.66 538.69,144.99 559.81,150 553.59,170.79 574.06,177.98 565.71,198 585.32,207.3 574.91,226.34 593.44,237.63 581.1,255.48 598.36,268.64 584.22,285.11 600,300 584.22,314.89 598.36,331.36 581.1,344.52 593.44,362.37 574.91,373.66 585.32,392.7 565.71,402 574.06,422.02 553.59,429.21 559.81,450 538.69,455.01 542.71,476.34 521.18,479.11 522.94,500.74 501.25,501.25 500.74,522.94 479.11,521.18 476.34,542.71 455.01,538.69 450,559.81 429.21,553.59 422.02,574.06 402,565.71 392.7,585.32 373.66,574.91 362.37,593.44 344.52,581.1 331.36,598.36 314.89,584.22 300,600 285.11,584.22 268.64,598.36 255.48,581.1 237.63,593.44 226.34,574.91 207.3,585.32 198,565.71 177.98,574.06 170.79,553.59 150,559.81 144.99,538.69 123.66,542.71 120.89,521.18 99.26,522.94 98.75,501.25 77.06,500.74 78.82,479.11 57.29,476.34 61.31,455.01 40.19,450 46.41,429.21 25.94,422.02 34.29,402 14.68,392.7 25.09,373.66 6.56,362.37 18.9,344.52 1.64,331.36 15.78,314.89 0,300 15.78,285.11 1.64,268.64 18.9,255.48 6.56,237.63 25.09,226.34 14.68,207.3 34.29,198 25.94,177.98 46.41,170.79 40.19,150 61.31,144.99 57.29,123.66 78.82,120.89 77.06,99.26 98.75,98.75 99.26,77.06 120.89,78.82 123.66,57.29 144.99,61.31 150,40.19 170.79,46.41 177.98,25.94 198,34.29 207.3,14.68 226.34,25.09 237.63,6.56 255.48,18.9 268.64,1.64 285.11,15.78 "/>
  <path class="fil1" d="M36.5 300c0,-145.53 117.97,-263.5 263.5,-263.5 145.53,0 263.5,117.97 263.5,263.5 0,145.53 -117.97,263.5 -263.5,263.5 -145.53,0 -263.5,-117.97 -263.5,-263.5zm263.5 -271c-149.67,0 -271,121.33 -271,271 0,149.67 121.33,271 271,271 149.67,0 271,-121.33 271,-271 0,-149.67 -121.33,-271 -271,-271z"/>
  <path class="fil1" d="M300 539.65c-132.36,0 -239.65,-107.29 -239.65,-239.65 0,-132.36 107.29,-239.65 239.65,-239.65 132.36,0 239.65,107.29 239.65,239.65 0,132.36 -107.29,239.65 -239.65,239.65zm0 -495.55c-141.33,0 -255.9,114.57 -255.9,255.9 0,141.33 114.57,255.9 255.9,255.9 141.33,0 255.9,-114.57 255.9,-255.9 0,-141.33 -114.57,-255.9 -255.9,-255.9z"/>
  <g id="_1323474390736">
   <path class="fil2" d="M433.93 286.92c-0.97,0.13 -1.52,0.19 -1.65,0.17 -0.04,0 -0.05,-0.01 -0.05,-0.03 0.01,-0.05 0.39,-0.24 1.14,-0.56 0.71,-0.26 1.83,-0.81 3.35,-1.65 0.79,-0.58 1.92,-1.51 3.38,-2.79 1.01,-0.89 2.06,-1.63 3.15,-2.21 1.33,-0.7 2.6,-0.96 3.81,-0.79 0.29,0.05 0.66,0.18 1.11,0.41 0.45,0.23 0.84,0.37 1.18,0.42 0.62,0.09 1.16,-0.07 1.62,-0.49 0.37,-0.42 0.75,-0.85 1.12,-1.28 0.27,-0.31 0.49,-0.45 0.66,-0.42 0.08,0.01 0.11,0.09 0.09,0.24 -0.03,0.22 -0.19,0.57 -0.46,1.05 -0.14,0.24 0.43,0.45 1.71,0.64 0.14,0.02 0.22,0 0.25,-0.07 0.02,-0.03 -0.01,-0.36 -0.09,-0.99 -0.02,-0.18 0.09,-0.42 0.34,-0.71 0.42,-0.52 0.66,-0.75 0.72,-0.67 0.26,0.35 0.34,0.84 0.25,1.46 -0.08,0.53 -0.29,1.12 -0.64,1.77 -0.34,0.66 -0.64,1.05 -0.88,1.17 -0.63,0.3 -1.51,0.07 -2.64,-0.7 -1.17,0.92 -2.24,1.3 -3.22,1.16 -0.29,-0.04 -0.64,-0.17 -1.07,-0.39 -0.43,-0.22 -0.75,-0.35 -0.97,-0.38 -1.67,-0.24 -3.48,0.3 -5.44,1.64 -1.43,1.05 -2.87,2.1 -4.31,3.14 -0.85,0.47 -1.67,0.75 -2.46,0.86z"/>
   <path class="fil2" d="M395.94 223.72c0,0.32 -0.41,1.06 -1.23,2.2 -0.93,1.29 -1.81,2.23 -2.64,2.83 -0.54,0.37 -2.31,0.96 -5.33,1.76 -0.44,0.11 -0.7,0.16 -0.78,0.16l0 -0.04c0.07,-0.07 0.25,-0.22 0.53,-0.44 0.39,-0.3 1.46,-0.91 3.22,-1.83 1.68,-0.9 2.67,-1.48 2.96,-1.73 0.05,-0.04 0.07,-0.09 0.07,-0.14 0,-0.4 -1.49,-0.6 -4.49,-0.6 -0.01,0 -0.58,0.02 -1.72,0.07 -0.24,0.01 -0.43,0.01 -0.57,0l0 -0.66 1.02 -1.71c0.31,-0.53 0.88,-0.86 1.7,-0.99 0.3,-0.06 1,-0.08 2.08,-0.08 3.45,0 5.18,0.4 5.18,1.2z"/>
   <path class="fil2" d="M518.94 280.18c-0.4,1.21 -1,2.57 -1.81,4.1 -3.06,2.55 -5.57,4.38 -7.52,5.47 -3.42,1.93 -6.83,2.89 -10.25,2.89 -1.74,0 -3.06,-0.18 -3.94,-0.54l-1.08 -5.39c-2.08,-2.65 -3.12,-5.19 -3.12,-7.63 0,-3.85 1.17,-6.81 3.53,-8.87 2.01,-1.77 4.51,-2.65 7.49,-2.65 3.96,0 7.49,1.31 10.6,3.91 0.52,0.44 0.78,0.73 0.78,0.89 0,0.11 -0.1,0.17 -0.29,0.17 -0.26,0 -0.65,-0.1 -1.19,-0.3 -2.08,-0.76 -3.94,-1.13 -5.55,-1.13 -2.38,0 -4.81,0.35 -7.3,1.06 -2.49,0.71 -4.31,1.58 -5.46,2.6 0,2.55 0.89,5.07 2.67,7.55 2.18,3.02 4.95,4.53 8.33,4.53 1.75,0 4.02,-0.8 6.82,-2.4 2.29,-1.31 4.4,-2.81 6.34,-4.5 0.4,-0.34 0.68,-0.52 0.86,-0.54 0.29,0 0.32,0.26 0.09,0.78z"/>
   <path class="fil2" d="M367.37 304.35c-1.97,0 -3.64,-1.55 -5.01,-4.64 -1.22,-2.71 -1.83,-5.55 -1.83,-8.52 0,-3.56 0.35,-6.4 1.05,-8.52 0.25,-0.75 0.45,-1.13 0.59,-1.13 0.23,0 0.29,0.48 0.16,1.43 -0.28,2.23 -0.43,4.14 -0.43,5.74 0,7.52 1.75,11.27 5.26,11.27 1.42,0 2.7,-1.09 3.85,-3.29 1.23,-2.62 2.44,-5.25 3.65,-7.87 1.07,-2.18 2.37,-4.01 3.88,-5.5 1.6,-1.58 3.04,-2.37 4.34,-2.37 1.24,0 2.59,1.35 4.04,4.07 1.37,2.53 2.66,4.09 3.89,4.66 1.56,0.74 4.34,1.4 8.06,1.97 4.76,0.72 10.27,1.08 16.5,1.08 9.89,0 20.11,-1.11 30.68,-3.32 10.73,-2.26 19.3,-5.15 25.7,-8.65 0.3,-0.16 0.51,-0.23 0.62,-0.19 0.12,0.05 0.16,0.25 0.11,0.59 -0.11,0.81 -0.17,1.52 -0.17,2.13 0,2.95 1.28,4.42 3.83,4.42 3.53,0 6.1,-1.07 7.52,-3.19 1.04,-1.55 1.56,-4.18 1.56,-7.9 0,-10.48 -0.44,-19.35 -1.34,-26.61 -0.43,-3.51 -0.98,-6.98 -1.65,-10.41 0.36,-2.27 0.7,-3.83 1.03,-4.69 0.14,-0.38 0.27,-0.57 0.37,-0.57 0.13,0 0.26,0.2 0.38,0.59 1.19,3.83 2.15,8.69 2.89,14.59 0.37,3 0.66,7.55 0.86,13.64 0.2,6.17 0.43,10.38 0.7,12.65 0.49,3.99 1.34,6.59 2.56,7.79 1.4,1.38 2.89,2.44 4.45,3.18l0 5.39c-2.34,-0.95 -4.13,-1.97 -5.39,-3.07 -1.96,-1.65 -3.26,-3.79 -3.89,-6.42 -0.3,3.94 -1.73,6.81 -4.28,8.6 -1.69,1.21 -3.68,1.83 -5.77,1.83 -1.69,0 -3.08,-0.6 -4.18,-1.78 -1.18,-1.28 -1.83,-3.07 -1.94,-5.37 -7.33,3.7 -16.13,6.68 -26.39,8.92 -9.89,2.16 -19.24,3.24 -28.04,3.24 -11.49,0 -19.84,-1.01 -24.78,-3.05 -1.6,-0.66 -2.99,-1.77 -4.16,-3.31 -0.12,-0.16 -0.89,-1.4 -2.29,-3.72 -0.7,-1.19 -1.38,-1.78 -2.05,-1.78 -2.01,0 -4.13,1.71 -6.36,5.12 -0.4,0.61 -1.11,2.2 -2.13,4.76 -1.03,2.56 -1.92,4.42 -2.67,5.57 -1.19,1.76 -2.44,2.64 -3.78,2.64z"/>
   <path class="fil2" d="M474.41 230.62c0,-1.73 -0.27,-3.15 -0.81,-4.26 0,-0.63 0.51,-2.12 1.51,-4.48 0.13,-0.28 0.24,-0.43 0.33,-0.43 0.1,0 0.23,0.16 0.37,0.46 0.29,0.61 0.96,2.3 2,5.07 1.09,2.88 1.73,4.65 1.91,5.31 0.15,0.5 0.22,0.88 0.22,1.13 0,0.79 -0.77,0.32 -2.29,-1.43 -0.18,-0.25 -0.27,-0.14 -0.27,0.33 0,0.16 0.39,5.69 1.18,16.58 0.79,10.89 1.19,17.02 1.19,18.39 0,4.19 -0.64,7.87 -1.91,11.05 -0.27,0.65 -0.49,1.12 -0.65,1.4l0 0c-0.25,0.44 -0.41,0.5 -0.46,0.19 -0.07,-0.32 -0.05,-1 0.08,-2.05 0.16,-1.44 0.24,-3.11 0.24,-5.01 0,-1.73 -0.44,-8.83 -1.32,-21.3 -0.88,-12.48 -1.32,-19.46 -1.32,-20.95z"/>
   <path class="fil2" d="M406.27 265.8c-0.4,3.38 -0.67,5.07 -0.81,5.07 -0.14,0 -0.42,-1.39 -0.81,-4.15 -0.68,-4.43 -3.96,-9.46 -9.81,-15.1 -7.19,-6.83 -12.44,-12.3 -15.75,-16.4 -0.86,-1.18 -2.01,-2.82 -3.45,-4.9 -0.47,-0.68 -0.95,-1.17 -1.46,-1.46 -0.28,-0.18 -0.43,-0.46 -0.43,-0.86l0 -3.61c0,-0.72 0.13,-1.08 0.38,-1.08 0.18,0 0.5,0.18 0.97,0.54l6.85 5.23c0.5,0.39 0.75,0.7 0.75,0.91 0,0.15 -0.2,0.22 -0.59,0.22 -0.58,0 -1.53,-0.14 -2.86,-0.43 1.12,1.51 3.83,4.46 8.14,8.84 3.13,3.13 6.26,6.24 9.39,9.33 6.36,6.47 9.54,12.01 9.54,16.61 0,0.43 -0.02,0.84 -0.05,1.24zm30.11 3.07c2.2,0 4.3,-0.8 6.31,-2.4 0.18,-0.14 1.01,-0.99 2.48,-2.56 1.37,-1.45 2.11,-2.18 2.21,-2.18 0.33,0 0.38,0.32 0.16,0.97 -0.28,0.84 -0.43,1.39 -0.43,1.64 0,0.62 0.26,1.32 0.79,2.11 0.68,1.04 1.58,1.56 2.69,1.56 2.95,0 5.47,-2.12 7.58,-6.36 0.21,-0.43 0.47,-0.65 0.75,-0.65 0.24,0 0.35,0.2 0.35,0.59 0,0.15 -0.02,0.38 -0.06,0.7 -0.05,0.33 -0.07,0.57 -0.07,0.73 0,1.24 0.38,2.25 1.14,3.02 0.77,0.78 1.74,1.16 2.93,1.16 1.73,0 3.54,-0.67 5.16,-2 0.46,-0.39 0.7,-1.83 0.7,-4.31 0,-1.51 -0.39,-7.58 -1.16,-18.2 -0.77,-10.62 -1.16,-16.89 -1.16,-18.79 0,-1.73 -0.27,-3.15 -0.81,-4.26 0,-0.61 0.5,-2.1 1.51,-4.48 0.11,-0.28 0.22,-0.43 0.32,-0.43 0.11,0 0.24,0.16 0.38,0.49 0.29,0.61 0.95,2.3 2,5.07 1.07,2.87 1.72,4.63 1.94,5.28 0.11,0.54 0.16,0.92 0.16,1.13 0,0.79 -0.76,0.33 -2.27,-1.4 -0.18,-0.25 -0.27,-0.14 -0.27,0.32 0,0.11 0.35,4.84 1.03,14.19 0.68,9.34 1.02,14.91 1.02,16.71 0,5.21 -0.93,9.31 -2.8,12.3 -1.58,2.51 -3.59,3.77 -5.75,3.77 -2.71,0 -4.66,-1.71 -5.82,-5.15 -0.15,-0.44 -0.31,-0.44 -0.49,0 -1.54,3.98 -3.73,5.96 -6.55,5.96 -2.88,0 -4.58,-1.81 -5.12,-5.44 -0.04,-0.31 -0.09,-0.46 -0.14,-0.46 -0.05,0.03 -0.16,0.19 -0.32,0.46 -0.68,1.13 -1.7,2.29 -3.05,3.47 -2.14,1.91 -4.26,2.86 -6.36,2.86 -2.34,0 -3.97,-0.7 -4.88,-2.1 -0.56,-0.88 -0.87,-2.19 -0.95,-3.91 -0.01,-0.2 -0.1,-0.3 -0.27,-0.3 -0.28,0 -0.57,0.17 -0.86,0.52 -1.8,2.08 -2.96,3.35 -3.48,3.8 -2.28,1.96 -4.76,2.94 -7.28,2.94 -2.69,0 -4.63,-1.05 -5.82,-3.13 -0.79,-1.37 -1.33,-3.58 -1.62,-6.63 -1,4.88 -1.97,7.99 -2.91,9.33 -2.12,3.05 -4.56,5.21 -7.33,6.47 -1.08,0.46 -2.93,1.04 -5.56,1.72 -2.62,0.68 -4.54,1.1 -5.77,1.24 -0.5,0.04 -0.75,-0.02 -0.75,-0.16 0,-0.14 0.23,-0.36 0.7,-0.65 2.45,-1.4 6.35,-3.74 11.7,-7.01 6.04,-3.95 9.06,-9.76 9.06,-17.41 0,-9.96 -0.47,-18.64 -1.4,-26.05 -0.25,-2.44 -0.76,-5.91 -1.51,-10.41 0.39,-2.59 0.7,-4.15 0.92,-4.69 0.14,-0.39 0.26,-0.59 0.37,-0.59 0.11,0 0.24,0.2 0.38,0.59 1.19,3.85 2.14,8.72 2.86,14.62 0.5,3.95 0.86,10.1 1.08,18.44 0.21,7.51 0.5,12.16 0.86,13.96 0.43,2.05 1.1,3.45 1.99,4.21 0.65,0.5 1.57,0.75 2.75,0.75 2.65,0 5.04,-0.69 7.01,-2.07 0.79,-0.56 2.58,-2.23 5.37,-5.02 0.34,-0.34 0.66,-0.51 0.97,-0.51 0.49,0 0.62,0.32 0.4,0.97 -0.21,0.65 -0.32,1.25 -0.32,1.81 0,1.24 0.51,2.2 1.54,2.88 0.97,0.65 2.23,0.97 3.77,0.97z"/>
   <path class="fil2" d="M389.71 263.61c0,-0.43 -0.83,-1 -2.51,-1.7 -1.67,-0.7 -2.9,-0.98 -3.69,-0.83 -0.29,0.07 -0.39,0.18 -0.32,0.32 0.29,0.79 0.9,2.1 1.83,3.94 2.45,-0.79 4.01,-1.37 4.69,-1.73zm-20.81 10.68c4.92,-3.88 9.65,-6.58 14.18,-8.09 -0.32,-0.54 -0.79,-1.44 -1.4,-2.7 -0.29,-0.61 -0.43,-1.34 -0.43,-2.21 0,-1.4 0.36,-2.58 1.08,-3.56 0.82,-1.18 2.06,-1.77 3.72,-1.77 1.29,0 3.14,0.84 5.55,2.53 2.55,1.72 3.83,3.16 3.83,4.31 -0.36,1.51 -0.81,2.93 -1.35,4.26 -2.05,0.61 -4.53,1.39 -7.44,2.32 0.11,1.65 -0.06,2.48 -0.49,2.48 -0.32,0 -0.66,-0.63 -1.02,-1.88 -1.33,0.46 -3.18,1.25 -5.56,2.37 -3.45,1.58 -6.05,3.07 -7.81,4.47 -2.7,2.12 -5.43,4.69 -8.2,7.71 -3.16,3.49 -5,5.45 -5.5,5.88 -1.73,1.55 -3.42,2.32 -5.07,2.32 -1.8,0 -3.38,-0.82 -4.74,-2.45 -1.37,-1.64 -2.05,-3.66 -2.05,-6.07 0,-3.34 1.36,-7.67 4.09,-12.99 0.29,-0.54 0.53,-0.81 0.71,-0.81 0.07,0 0.1,0.07 0.1,0.21 0,0.54 -0.59,2.4 -1.78,5.58 -1.18,3.19 -1.78,5.71 -1.78,7.58 0,1.4 0.35,2.54 1.03,3.42 0.68,0.88 1.65,1.32 2.91,1.32 1.73,0 3.61,-0.84 5.66,-2.53 1.08,-0.9 2.93,-2.8 5.56,-5.72 2.51,-2.76 4.58,-4.76 6.2,-5.98z"/>
   <path class="fil2" d="M431.09 305.73l1.38 -2.83c0.1,-0.22 0.22,-0.32 0.35,-0.32 0.18,0 0.95,0.46 2.31,1.4 1.37,0.93 2.05,1.48 2.05,1.64 0,0.61 -0.6,1.89 -1.8,3.83 -0.15,0.24 -0.3,0.3 -0.46,0.19 -1.19,-0.88 -2.53,-1.81 -4.02,-2.78 -0.5,1.13 -1,2.1 -1.48,2.89 -0.15,0.25 -0.3,0.31 -0.46,0.19 -1.35,-1.03 -2.74,-1.99 -4.18,-2.89 -0.07,-0.05 -0.07,-0.16 0,-0.32l1.73 -3.53c0.1,-0.22 0.22,-0.33 0.35,-0.33 0.16,0 0.81,0.39 1.97,1.16 1.15,0.77 1.9,1.34 2.26,1.7z"/>
   <path class="fil2" d="M417.57 240.39c13.88,-5.15 28.38,-10.52 43.51,-16.12 0.59,-0.22 0.93,-0.29 1.04,-0.22 0.15,0.11 0.12,0.42 -0.11,0.94 -0.66,1.62 -1.19,2.59 -1.6,2.92 -12.52,4.62 -27.2,10.32 -44.02,17.12l0 -1.95c0.32,-0.86 0.71,-1.75 1.18,-2.69z"/>
   <path class="fil2" d="M395.55 235.21c13.87,-5.15 28.37,-10.52 43.5,-16.12 0.59,-0.22 0.94,-0.29 1.05,-0.22 0.15,0.11 0.11,0.42 -0.11,0.94 -0.66,1.62 -1.2,2.59 -1.6,2.92 -12.53,4.61 -27.2,10.32 -44.03,17.12l0 -1.95c0.32,-0.86 0.72,-1.76 1.19,-2.69z"/>
   <path class="fil2" d="M442.63 245.56c0,0.68 -0.15,1.39 -0.45,2.12 -0.4,0.94 -0.91,1.41 -1.54,1.41 -0.99,0 -1.7,-0.68 -2.12,-2.04 -0.47,1.75 -1.33,2.62 -2.59,2.62 -0.47,0 -0.88,-0.24 -1.23,-0.71 -0.4,-0.56 -0.6,-1.29 -0.6,-2.19l0 -2.15c0,-0.17 -0.11,-0.29 -0.35,-0.36 -0.23,-0.07 -0.35,-0.26 -0.35,-0.55 0,-0.47 0.2,-0.94 0.6,-1.39 0.36,-0.4 0.64,-0.6 0.83,-0.6 0.25,0 0.37,0.47 0.37,1.41 0,0.49 -0.04,0.9 -0.12,1.23 -0.07,0.33 -0.11,0.62 -0.11,0.86 0,0.51 0.1,1 0.31,1.47 0.24,0.54 0.55,0.81 0.92,0.81 0.47,0 0.91,-0.21 1.32,-0.64 0.41,-0.43 0.61,-0.93 0.61,-1.5 0,-0.34 -0.1,-0.9 -0.29,-1.7 -0.19,-0.81 -0.29,-1.3 -0.29,-1.5 0,-0.17 0.09,-0.44 0.27,-0.82 0.17,-0.37 0.3,-0.56 0.39,-0.56 0.16,0 0.36,0.53 0.61,1.59 0.26,1.07 0.38,1.85 0.38,2.36 0,1.46 0.57,2.19 1.7,2.19 0.49,0 0.79,-0.24 0.92,-0.73 -0.98,-1.71 -1.47,-3.01 -1.47,-3.92 0,-0.52 0.13,-0.99 0.39,-1.39 0.18,-0.28 0.3,-0.42 0.37,-0.44 0.07,0 0.12,0.17 0.16,0.52 0.05,0.49 0.13,0.89 0.23,1.2 0.02,0.04 0.26,0.64 0.71,1.81 0.28,0.7 0.42,1.23 0.42,1.59z"/>
   <path class="fil2" d="M369.35 251.17c0.27,-0.88 0.34,-1.77 0.18,-2.66 -0.18,-0.98 -0.63,-1.47 -1.33,-1.47 -0.34,0 -0.79,0.16 -1.38,0.48 -0.58,0.32 -0.87,0.64 -0.87,0.94 0,0.71 1.13,1.61 3.4,2.71zm-1.75 3.95c-2.84,-1.47 -4.27,-3.01 -4.27,-4.64 0,-1.96 0.91,-3.75 2.71,-5.37 1.81,-1.62 3.31,-2.22 4.5,-1.79 1.01,0.37 1.52,1.45 1.52,3.26 0,1.62 -0.34,3.44 -1.01,5.46 1.44,0.83 2.34,1.54 2.71,2.12 0,0.76 -0.65,2.06 -1.93,3.9 -0.37,-0.58 -1.24,-1.29 -2.62,-2.11 -1.59,2.2 -3.61,4.21 -6.06,6.01 -2.79,2.05 -5.34,3.6 -7.67,4.64 -0.49,0.24 -3.18,1.27 -8.08,3.08 -0.77,0.27 -1.27,0.41 -1.52,0.41 -0.12,0 -0.18,-0.03 -0.18,-0.09 0,-0.19 0.43,-0.55 1.29,-1.1 3.61,-2.15 7.24,-4.3 10.88,-6.48 4.34,-2.63 7.59,-5.06 9.73,-7.3z"/>
   <path class="fil2" d="M497.91 259.26c1.9,0 3.96,-0.32 6.17,-0.98 0.61,-0.17 0.92,-0.22 0.92,-0.14 0,0.08 -0.23,0.32 -0.69,0.72 -1.92,1.73 -4.39,2.6 -7.41,2.6 -0.94,0 -1.71,-0.25 -2.31,-0.74 -0.59,-0.49 -0.89,-1.11 -0.89,-1.86 0,-2 0.85,-4.1 2.56,-6.29 -1.49,-0.44 -2.24,-1.23 -2.24,-2.36 0,-0.96 0.6,-2.11 1.8,-3.46 1.2,-1.35 2.17,-2.02 2.9,-2.02 0.19,0 0.39,0.15 0.59,0.46 0.2,0.31 0.3,0.64 0.3,0.98 0,0.16 -0.2,0.52 -0.6,1.1 -0.41,0.57 -0.63,0.81 -0.67,0.69 -0.15,-0.6 -0.49,-0.89 -1.01,-0.89 -0.27,0 -0.6,0.23 -0.99,0.69 -0.4,0.46 -0.59,0.84 -0.59,1.15 0.48,0.79 1.29,1.18 2.45,1.18 0.38,0 0.99,-0.35 1.81,-1.06 0.48,-0.44 0.97,-0.9 1.48,-1.36 0.17,-0.13 0.25,0 0.25,0.41 0,0.88 -0.32,1.77 -0.98,2.68 -2.53,1.71 -4.42,3.68 -5.65,5.91 -0.23,0.42 -0.34,0.8 -0.34,1.12 0,0.98 1.04,1.47 3.14,1.47z"/>
  </g>
  <g id="_1323474390256">
   <path class="fil3" d="M136.51 355.08c1.68,9.81 4.9,16.25 9.67,19.34 2.45,1.54 6.27,2.31 11.46,2.31 4.65,0 8.46,-0.94 11.31,-2.82 0.18,-0.34 0.36,-0.7 0.52,-1.07 0,-2.8 -2.95,-8.87 -8.83,-18.19 -0.5,-0.77 -0.74,-1.61 -0.74,-2.52 0,-5.25 1.26,-10.51 3.79,-15.77 0.17,-0.35 0.34,-0.63 0.52,-0.82l4.07 -4.42c0.64,-0.71 1.38,-0.43 2.2,0.83 3.44,5.11 5.75,9.32 6.94,12.61 1.75,4.77 2.63,10.65 2.63,17.66 0,10.23 -1.55,18.09 -4.63,23.55 -1.22,2.17 -2.56,4.05 -4.02,5.63 -0.03,0.04 -0.06,0.07 -0.09,0.1l-3.98 4.33c-0.89,0.97 -1.84,1.84 -2.82,2.59l-1.14 3.12c-5.82,15.64 -8.73,27.99 -8.73,37.06 0,6.96 1.63,12.51 4.89,16.65 3.44,4.49 8.24,6.74 14.4,6.74 10.25,0 20.6,-4.92 31.07,-14.75l18.91 -22.45c0.38,-0.43 0.77,-0.86 1.15,-1.28l4.07 -4.42c0.1,-0.11 0.21,-0.23 0.32,-0.34 0.09,-0.1 0.19,-0.2 0.28,-0.3 8.92,-9.53 20.36,-18.1 34.31,-25.69 8.72,-4.76 23.87,-11.67 45.45,-20.74 21.25,-9.02 36.48,-15.99 44.53,-21.33 0.05,-0.23 0.07,-0.47 0.07,-0.7 0,-2.03 -1.54,-4.41 -4.62,-7.14 -8.46,-7.49 -20.92,-16.38 -37.4,-26.69 -20.08,-12.68 -33.2,-21.31 -39.37,-25.89 -14.27,-10.48 -25.54,-21.49 -33.82,-33.03 -0.26,-0.36 -1.58,-1.06 -3.96,-2.12 -2.38,-1.05 -3.57,-2.03 -3.57,-2.91 0,-22.61 2.69,-36.84 8.06,-42.68l4.07 -4.42c0.25,-0.28 0.52,-0.54 0.79,-0.78 14.97,-13.48 47.12,-31.27 96.45,-53.38 49.76,-22.37 82.66,-33.55 98.69,-33.55 4.76,0 8.01,0.95 9.78,2.84 1.76,1.89 2.64,5.13 2.64,9.71 0,10.48 -6.26,23.52 -18.76,39.11l-14.14 15.98c-7.49,8.72 -12.55,15.81 -15.19,21.28 -1.39,2.91 -2.37,4.68 -2.94,5.3l-4.06 4.41c-0.15,0.17 -0.28,0.25 -0.37,0.25 -0.44,0 -0.18,-2.47 0.79,-7.4 0.53,-2.73 2.6,-7.45 6.21,-14.14 3.26,-6.17 5.72,-10.17 7.4,-12.02 14.09,-16.03 22.55,-26.56 25.37,-31.58 0.26,-0.52 0.4,-1.05 0.4,-1.58 0,-3 -3.97,-4.5 -11.9,-4.5 -12.68,0 -42.45,10.7 -89.31,32.11 -44.28,20.29 -75.36,37.21 -93.23,50.78 0.19,0.29 0.56,0.57 1.11,0.82l25.1 11.77c5.46,2.55 8.19,4.71 8.19,6.47 0,0.39 -0.13,0.74 -0.41,1.04l-4.06 4.41c-0.78,0.85 -2.66,1.29 -5.66,1.34 6.58,6.23 17.22,13.65 31.93,22.27 23.17,13.66 38.1,23.17 44.79,28.54 14.62,11.8 21.94,23.65 21.94,35.54 0,13.07 -3.33,23.35 -9.98,30.85 -0.02,0.02 -0.04,0.05 -0.06,0.07 -0.12,0.13 -0.24,0.27 -0.37,0.41l-4.06 4.41c-0.8,0.87 -1.65,1.71 -2.55,2.5 -6.16,5.55 -20.83,12.66 -42.58,21.82 -10.62,4.55 -19.13,8.29 -25.54,11.23l-0.08 0.22c-6.12,16.45 -9.18,29.45 -9.18,38.99 0,7.33 1.72,13.17 5.15,17.52 3.61,4.73 8.67,7.1 15.15,7.1 10.11,0 21.83,-6.21 35.18,-18.63 1.48,-1.49 13.39,-14.33 35.73,-38.52 32.63,-35.41 61.82,-53.11 87.59,-53.11 7.42,0 13.77,2.25 19.05,6.74 5.28,4.5 7.93,9.76 7.93,15.78 0,7.42 -1.26,13.96 -3.76,19.61 -0.67,1.47 -1.19,2.41 -1.57,2.82l-4.06 4.42c-0.15,0.15 -0.27,0.23 -0.38,0.23 -0.46,0 -1.25,-1.02 -2.36,-3.06 -5.28,-9.55 -13.39,-14.32 -24.33,-14.32 -19.69,0 -42.23,12.82 -67.64,38.44l-38.69 42.24 -4.07 4.41c-12.32,12.7 -23.96,19.05 -34.89,19.05 -9.18,0 -17.2,-4.12 -24.06,-12.37 -7.22,-8.63 -10.84,-19.15 -10.84,-31.57 0,-11.34 3.09,-24.97 9.26,-40.87 -9.99,4.87 -17.05,8.94 -21.2,12.19 -6.03,4.69 -13.87,12.21 -23.52,22.58 -0.09,0.1 -0.19,0.21 -0.28,0.31 -0.14,0.15 -0.28,0.31 -0.42,0.47 -3.53,3.88 -7.26,8.1 -11.22,12.66 -0.58,0.68 -1.17,1.33 -1.76,1.97l-4.06 4.42c-9.73,10.57 -19.49,15.86 -29.29,15.86 -8.72,0 -16.34,-3.92 -22.86,-11.76 -6.87,-8.2 -10.3,-18.19 -10.3,-29.99 0,-11.8 3.51,-26.18 10.52,-43.13l-1.06 0.03c-7.56,0 -13.42,-1.54 -17.55,-4.63 -5.96,-4.41 -9.99,-12.61 -12.09,-24.6 -1.33,-7.43 -2.56,-29.29 -3.68,-65.59 -1.19,-39.46 -2.24,-63.63 -3.15,-72.54 -1.47,-14.29 -4.24,-27.89 -8.31,-40.78 0,-3.43 1.41,-8.55 4.21,-15.35 0.47,-1.12 0.87,-1.87 1.21,-2.25l4.07 -4.41c0.17,-0.19 0.32,-0.28 0.46,-0.28 0.42,0 0.98,0.7 1.69,2.11 4.48,8.69 7.84,23.47 10.09,44.36 1.4,12.96 2.62,38.72 3.68,77.26 0.98,36.44 1.75,56.31 2.31,59.61z"/>
  </g>
  <g id="_1323474388496">
   <path class="fil2" d="M298.72 496.95c-9.18,0 -17.19,-4.12 -24.05,-12.37 -7.23,-8.62 -10.85,-19.14 -10.85,-31.56 0,-17.15 7.05,-39.49 21.13,-67.02 1.49,-2.87 2.65,-4.3 3.48,-4.3 0.37,0.09 0.56,0.45 0.56,1.11 0,2.78 -3.06,12.39 -9.18,28.85 -6.12,16.45 -9.18,29.45 -9.18,38.99 0,7.33 1.72,13.17 5.15,17.52 3.61,4.73 8.67,7.1 15.15,7.1 10.11,0 21.83,-6.21 35.18,-18.63 1.48,-1.49 13.39,-14.33 35.73,-38.52 32.63,-35.41 61.82,-53.11 87.59,-53.11 7.42,0 13.77,2.25 19.05,6.74 5.28,4.5 7.93,9.76 7.93,15.78 0,7.42 -1.26,13.96 -3.76,19.61 -0.93,2.04 -1.57,3.06 -1.94,3.06 -0.47,0 -1.26,-1.02 -2.37,-3.06 -5.28,-9.55 -13.39,-14.32 -24.33,-14.32 -19.74,0 -42.35,12.88 -67.85,38.65 -14.18,15.48 -28.36,30.96 -42.54,46.44 -12.33,12.69 -23.96,19.04 -34.9,19.04z"/>
   <path class="fil2" d="M227.97 420.37c9.16,-10.3 21.19,-19.51 36.07,-27.61 8.72,-4.76 23.87,-11.67 45.45,-20.74 22.64,-9.61 38.45,-16.89 46.02,-22.35 1.76,-1.24 2.64,-2.6 2.64,-4.1 0,-2.02 -1.54,-4.41 -4.62,-7.13 -8.45,-7.49 -20.92,-16.39 -37.39,-26.7 -20.08,-12.68 -33.21,-21.31 -39.37,-25.89 -14.27,-10.48 -25.55,-21.49 -33.83,-33.03 -0.26,-0.35 -1.58,-1.06 -3.96,-2.11 -2.38,-1.06 -3.57,-2.03 -3.57,-2.91 0,-23.7 2.95,-38.18 8.86,-43.47 14.97,-13.48 47.12,-31.27 96.45,-53.38 49.76,-22.37 82.66,-33.55 98.69,-33.55 4.76,0 8.01,0.95 9.78,2.84 1.76,1.89 2.64,5.13 2.64,9.71 0,10.48 -6.26,23.52 -18.76,39.11 -4.67,5.28 -9.38,10.61 -14.14,15.98 -7.49,8.72 -12.55,15.81 -15.19,21.28 -1.76,3.7 -2.87,5.54 -3.31,5.54 -0.44,0 -0.17,-2.46 0.8,-7.4 0.53,-2.73 2.59,-7.44 6.21,-14.13 3.25,-6.17 5.72,-10.18 7.4,-12.03 14.09,-16.02 22.54,-26.55 25.36,-31.57 0.26,-0.53 0.4,-1.06 0.4,-1.59 0,-2.99 -3.97,-4.49 -11.9,-4.49 -12.68,0 -42.45,10.7 -89.31,32.11 -47.3,21.67 -79.54,39.5 -96.71,53.5 -1.14,0.97 -0.97,1.81 0.53,2.51l25.1 11.77c5.46,2.55 8.19,4.71 8.19,6.47 0,1.58 -2.2,2.38 -6.6,2.38 -2.29,0 -5.02,-0.22 -8.19,-0.66 5.45,7.13 17.65,16.25 36.59,27.34 23.17,13.66 38.1,23.17 44.79,28.54 14.62,11.8 21.94,23.65 21.94,35.54 0,14.89 -4.32,26.16 -12.96,33.83 -6.16,5.54 -20.83,12.66 -42.58,21.82 -13.56,5.81 -23.69,10.3 -30.39,13.48 -13.21,6.16 -22.28,11.18 -27.21,15.06 -9.08,7.04 -22.25,20.52 -39.51,40.43 -10.31,11.89 -20.65,17.83 -31.05,17.83 -8.72,0 -16.34,-3.92 -22.85,-11.76 -6.87,-8.19 -10.31,-18.19 -10.31,-29.99 0,-16.3 6.69,-37.52 20.08,-63.68 1.41,-2.73 2.51,-4.1 3.31,-4.1 0.35,0.09 0.52,0.44 0.52,1.06 0,2.64 -2.9,11.78 -8.71,27.41 -5.82,15.64 -8.73,27.99 -8.73,37.06 0,6.96 1.63,12.51 4.89,16.65 3.44,4.49 8.24,6.74 14.4,6.74 10.84,0 21.81,-5.5 32.9,-16.52 7.05,-8.36 14.1,-16.73 21.14,-25.1z"/>
   <path class="fil2" d="M136.51 355.08c1.68,9.81 4.9,16.25 9.67,19.34 2.45,1.54 6.27,2.31 11.46,2.31 7.99,0 13.51,-2.77 15.89,-8.31 0,-2.8 -2.95,-8.86 -8.83,-18.18 -0.49,-0.77 -0.74,-1.61 -0.74,-2.52 0,-5.26 1.27,-10.52 3.79,-15.77 0.77,-1.61 1.68,-1.61 2.73,0 3.44,5.11 5.75,9.32 6.94,12.61 1.75,4.77 2.63,10.65 2.63,17.66 0,10.23 -1.55,18.09 -4.63,23.55 -4.48,7.99 -10.63,11.98 -17.78,11.98 -7.57,0 -13.42,-1.54 -17.56,-4.62 -5.95,-4.42 -9.98,-12.62 -12.09,-24.6 -1.33,-7.43 -2.56,-29.29 -3.68,-65.6 -1.19,-39.45 -2.24,-63.63 -3.15,-72.53 -1.47,-14.3 -4.24,-27.89 -8.3,-40.79 0,-3.43 1.4,-8.54 4.2,-15.34 0.7,-1.69 1.26,-2.53 1.68,-2.53 0.42,0 0.98,0.7 1.69,2.11 4.48,8.69 7.84,23.47 10.09,44.36 1.4,12.96 2.62,38.72 3.68,77.26 0.98,36.44 1.75,56.31 2.31,59.61z"/>
  </g>
  <path class="fil2" d="M433.23 335.18c-0.32,-0.23 -0.32,-0.71 0,-1.42l7.58 -15.53c0.48,-0.95 0.99,-1.43 1.55,-1.43 0.79,0 4.18,2.06 10.19,6.17 6.01,4.11 9.01,6.52 9.01,7.23 0,2.69 -2.64,8.3 -7.94,16.84 -0.63,1.11 -1.31,1.38 -2.02,0.83 -5.93,-4.51 -12.05,-8.73 -18.37,-12.69z"/>
  <path class="fil2" d="M220.95 494.05l5.86 -12.04c0.46,-0.92 0.95,-1.38 1.49,-1.38 0.76,0 4.05,1.99 9.86,5.97 5.82,3.97 8.73,6.31 8.73,6.99 0,2.6 -2.57,8.03 -7.69,16.3 -0.62,0.99 -1.26,1.26 -1.95,0.8 -5.05,-3.75 -10.75,-7.69 -17.1,-11.82 -2.14,4.82 -4.25,8.91 -6.31,12.28 -0.61,1.07 -1.27,1.34 -1.95,0.81 -5.74,-4.36 -11.67,-8.46 -17.79,-12.28 -0.3,-0.23 -0.3,-0.69 0,-1.38l7.35 -15.03c0.45,-0.92 0.95,-1.38 1.49,-1.38 0.69,0 3.48,1.64 8.37,4.93 4.9,3.29 8.12,5.7 9.64,7.23z"/>
  <path class="fil2" d="M257.61 156.71c39.39,-18.88 80.55,-38.58 123.5,-59.09 1.67,-0.81 2.67,-1.12 3.02,-0.93 0.46,0.28 0.43,1.21 -0.07,2.78 -1.51,4.94 -2.82,7.94 -3.92,9.03 -35.57,16.92 -77.15,37.64 -124.76,62.14l-0.52 -5.72c0.71,-2.61 1.63,-5.35 2.75,-8.21z"/>
  <path class="fil2" d="M219.2 151.01c39.38,-18.88 80.55,-38.58 123.49,-59.09 1.67,-0.81 2.68,-1.12 3.02,-0.93 0.47,0.28 0.44,1.21 -0.07,2.78 -1.51,4.94 -2.82,7.95 -3.92,9.03 -35.56,16.93 -77.14,37.64 -124.75,62.15l-0.53 -5.72c0.72,-2.62 1.64,-5.35 2.76,-8.22z"/>
  <path class="fil2" d="M182.49 243.27c0,2.31 -0.5,4.71 -1.51,7.2 -1.36,3.2 -3.1,4.79 -5.24,4.79 -3.37,0 -5.77,-2.31 -7.19,-6.92 -1.6,5.92 -4.53,8.88 -8.8,8.88 -1.6,0 -2.99,-0.8 -4.17,-2.4 -1.36,-1.9 -2.04,-4.38 -2.04,-7.46l0 -7.28c0,-0.6 -0.41,-1.01 -1.21,-1.25 -0.79,-0.24 -1.19,-0.86 -1.19,-1.87 0,-1.59 0.68,-3.16 2.04,-4.7 1.24,-1.37 2.19,-2.05 2.84,-2.05 0.83,0 1.24,1.6 1.24,4.8 0,1.66 -0.13,3.05 -0.39,4.18 -0.27,1.12 -0.4,2.1 -0.4,2.93 0,1.72 0.35,3.37 1.06,4.97 0.83,1.84 1.87,2.76 3.11,2.76 1.6,0 3.1,-0.73 4.49,-2.18 1.39,-1.45 2.08,-3.16 2.08,-5.11 0,-1.13 -0.32,-3.05 -0.97,-5.77 -0.65,-2.73 -0.98,-4.42 -0.98,-5.07 0,-0.59 0.3,-1.52 0.89,-2.79 0.59,-1.28 1.03,-1.92 1.33,-1.92 0.54,0 1.23,1.81 2.09,5.42 0.86,3.62 1.29,6.28 1.29,8 0,4.97 1.92,7.46 5.77,7.46 1.66,0 2.69,-0.83 3.11,-2.49 -3.32,-5.8 -4.97,-10.24 -4.97,-13.32 0,-1.78 0.44,-3.35 1.33,-4.71 0.59,-0.95 1.01,-1.45 1.24,-1.51 0.24,0 0.42,0.59 0.54,1.78 0.17,1.66 0.44,3.02 0.79,4.08 0.07,0.12 0.86,2.16 2.4,6.13 0.95,2.37 1.42,4.18 1.42,5.42z"/>
  <path class="fil2" d="M173.68 147.49c39.39,-18.88 80.55,-38.57 123.5,-59.09 1.67,-0.8 2.67,-1.12 3.02,-0.93 0.46,0.29 0.43,1.21 -0.07,2.79 -1.51,4.93 -2.82,7.94 -3.92,9.03 -35.57,16.92 -77.15,37.63 -124.76,62.14l-0.52 -5.72c0.71,-2.62 1.63,-5.35 2.75,-8.22z"/>
  <path class="fil4" d="M245.64 353.05c1.32,1.43 1.5,2.66 1.24,4 -0.45,2.42 -0.66,4.91 -1.38,7.25 -1.25,4.11 -3.01,6.54 -7.76,6.84 -0.21,0.02 -0.42,0.03 -0.64,0.03 -2.53,0 -4.91,-1.16 -6.48,-3.15 -2.9,-3.44 -3.92,-7.56 -3.61,-11.96 0.28,-4 0.9,-7.97 1.38,-11.96 0.63,-5.4 1.4,-10.8 1.89,-16.21 0.73,-8.14 -2.4,-14.96 -7.62,-20.89 -1.5,-1.72 -3.06,-3.48 -5.07,-4.26 -0.96,0.04 -0.97,0.67 -1.21,1.09 -0.44,0.76 -1.13,1.12 -1.94,0.91 -3,-0.77 -5.89,-1.81 -8.32,-3.86 -0.68,-0.51 -1.08,-1.31 -1.08,-2.16 0,-0.07 0.01,-0.14 0.01,-0.21 0.33,-3.88 0.97,-7.69 2.26,-11.37 0.08,-0.22 0.34,-0.37 0.7,-0.73 0.47,0.16 1.09,0.27 1.61,0.56 3.48,1.93 6.99,3.81 10.39,5.88 5.13,3.12 8.51,7.79 10.77,13.31 0.74,1.79 1.27,3.66 1.92,5.49 0.14,0.42 0.42,0.79 0.64,1.22 1.08,-0.56 0.9,-1.44 0.89,-2.13 -0.09,-3.79 -0.22,-7.86 -0.35,-11.68 -0.19,-4.77 1.02,-9.26 2.9,-13.54 1.4,-3.21 4.66,-4.35 7.71,-2.65 2.34,1.29 4.42,3.1 6.5,4.81 0.51,0.41 0.87,1.41 0.78,2.06 -0.36,2.41 -0.41,4.9 -1.67,7.32 -0.75,-0.26 -1.5,-0.38 -2.1,-0.76 -1.42,-0.87 -2.72,-1.96 -4.16,-2.78 -1.23,-0.69 -2.53,-1.25 -3.88,-1.64 -1.13,-0.33 -2.33,0.64 -2.51,1.82 -0.1,0.63 -0.13,1.3 -0.07,1.94 0.71,7.71 -0.5,15.25 -1.97,22.78 -0.57,2.92 -0.89,5.88 -1.38,8.82 -0.8,4.73 -1.64,9.45 -2.45,14.16 -0.36,2.18 -0.79,4.35 -1.05,6.53 -0.42,3.61 0.44,6.96 2.39,10 0.93,1.45 2.22,2.49 3.8,3.17 3.05,1.32 6,-0.01 6.99,-3.2 0.35,-1.11 0.58,-2.27 0.94,-3.37 0.15,-0.43 0.53,-0.79 0.99,-1.48z"/>
  <path class="fil2" d="M89.93 342.98c0.89,-5.48 2.82,-12.09 5.81,-19.83 2.34,-6.05 3.5,-12.06 3.5,-18.03 0,-11.37 -5.24,-22.3 -15.72,-32.78 -0.81,-0.8 -0.93,-1.69 -0.36,-2.66l3.62 -6.41c0.33,-0.56 0.85,-0.56 1.58,0 10.48,8.63 15.72,21 15.72,37.13 0,7.75 -1.69,15.95 -5.08,24.62 -3.39,8.67 -5.08,14.65 -5.08,17.96 0,6.69 1.82,10.04 5.45,10.04 2.09,0 4.47,-2.54 7.13,-7.62 0.24,-0.48 0.48,-0.85 0.73,-1.09 0.24,-0.16 0.36,-0.12 0.36,0.13 0.08,0.24 0.08,0.64 0,1.2 -2.18,11.86 -5.73,17.78 -10.65,17.78 -4.99,0 -7.5,-4.84 -7.5,-14.51 0,-1.94 0.16,-3.91 0.49,-5.93z"/>
  <path class="fil2" d="M219.8 216.98c0.23,-0.44 0.45,-0.78 0.67,-1.01 0.23,-0.14 0.34,-0.11 0.34,0.12 0.08,0.22 0.08,0.6 0,1.12 -2.02,11 -5.31,16.5 -9.88,16.5 -4.86,0 -7.29,-4.04 -7.29,-12.12 0,-9.95 2.88,-20.39 8.64,-31.32 1.42,-2.69 2.28,-4.08 2.58,-4.15 0.08,0 0.11,0.04 0.11,0.11 0,0.53 -0.41,2.06 -1.23,4.61 -3.74,11.37 -5.61,19.34 -5.61,23.9 0,6.21 1.68,9.32 5.05,9.32 1.95,0 4.15,-2.36 6.62,-7.08z"/>
  <path class="fil2" d="M482.03 204.06c-0.53,1.25 -1,1.87 -1.41,1.87 -0.52,0 -0.61,-0.8 -0.24,-2.42 0.31,-1.41 0.47,-3.24 0.47,-5.48 0,-7.31 -4.12,-14.59 -12.37,-21.84 -0.52,-0.47 -0.6,-1.04 -0.23,-1.72l2.35 -4.15c0.21,-0.37 0.54,-0.37 1.01,0 8.09,6 12.14,14.2 12.14,24.58 0,3.24 -0.58,6.29 -1.72,9.16z"/>
  <path class="fil2" d="M436.54 462.48c-2.09,5.46 -6.72,10.8 -13.88,16.03 -7.39,5.52 -15.7,9.44 -24.95,11.79 -1.87,0.47 -3.33,0.8 -4.38,0.97l0.75 -1.96c0.75,-0.4 1.65,-0.87 2.71,-1.39 16.98,-8.46 26.32,-14.88 28,-19.27 1.6,-4.17 0.47,-7 -3.38,-8.47 -2.14,-0.82 -4.3,-0.97 -6.46,-0.45 -1.61,0.36 -2.59,0.54 -2.95,0.52 -0.14,-0.29 -0.34,-0.55 -0.63,-0.78 0.28,-0.39 0.92,-1.43 1.94,-3.13 5.37,-8.25 11.58,-11.02 18.65,-8.31 5.88,2.25 7.41,7.07 4.58,14.45z"/>
  <path class="fil2" d="M516.4 357.81c0,-1.48 -2.65,-3.7 -7.95,-6.65 -1.63,3.11 -2.45,5.91 -2.45,8.4 0,1.58 0.74,2.37 2.22,2.37 1.33,0 2.86,-0.45 4.59,-1.37 1.73,-0.92 2.92,-1.84 3.59,-2.75zm-5.2 -13.6c5.35,3.92 7.85,7.84 7.49,11.76 -0.36,4.23 -0.94,6.88 -1.76,7.95 -2.34,3.16 -5.24,4.74 -8.71,4.74 -3.36,0 -5.04,-2.04 -5.04,-6.12 0,-0.91 0.1,-1.91 0.3,-2.98 0.56,-3.41 2.17,-8.25 4.82,-14.52 2.24,-5.34 3.36,-9.83 3.36,-13.44 0,-7.18 -3.31,-14.09 -9.93,-20.71 -0.51,-0.51 -0.59,-1.07 -0.23,-1.68l2.29 -4.05c0.21,-0.36 0.53,-0.36 0.99,0 6.63,5.45 9.94,13.27 9.94,23.46 0,4.79 -1.17,9.98 -3.52,15.59z"/>
  <path class="fil2" d="M378.11 204.11c-0.38,0.64 -1.05,1.39 -2.02,2.23 -1.27,1.13 -2.2,1.51 -2.8,1.16 -0.25,-0.15 -0.48,-1 -0.7,-2.57 -0.21,-1.57 -0.77,-2.62 -1.66,-3.15 -1.99,-1.17 -6.61,2.44 -13.85,10.85 -3.16,3.64 -5.69,6.05 -7.58,7.21 -1.32,0.76 -2.21,1.01 -2.66,0.75 -0.39,-0.24 -0.29,-0.88 0.33,-1.93 0.97,-1.64 1.91,-5.39 2.83,-11.27 0.91,-5.86 0.97,-9.03 0.17,-9.5 -0.55,-0.33 -1,-0.36 -1.35,-0.1 -0.36,0.26 -0.91,0.17 -1.66,-0.27 -0.84,-0.5 -1.58,-1.78 -2.22,-3.83 -0.63,-2.05 -0.73,-3.45 -0.29,-4.19 0.21,-0.35 1.45,-1.15 3.72,-2.39 2.28,-1.24 3.57,-1.77 3.87,-1.59 2.78,1.64 4.31,4.77 4.57,9.39 0.26,4.62 -0.73,9.85 -2.98,15.71 -0.22,0.6 -0.36,0.96 -0.42,1.05 0.01,0.21 0.08,0.26 0.23,0.14 0.1,-0.07 0.42,-0.32 0.94,-0.75 2.33,-2.92 6.23,-7.03 11.7,-12.32 4.56,-3.42 7.97,-4.46 10.21,-3.14 1.14,0.67 1.83,2.12 2.07,4.34 0.2,1.93 0.05,3.32 -0.45,4.17zm-32.78 18.7c-4.06,2.91 -9.71,4.74 -16.94,5.51 -6.5,0.66 -12.14,0.72 -16.92,0.18 -1.03,-0.07 -6.4,-0.99 -16.1,-2.75 -1.5,-0.29 -2.48,-0.56 -2.93,-0.83 -0.2,-0.11 -0.27,-0.22 -0.21,-0.32 0.17,-0.3 1.25,-0.47 3.22,-0.52 8.75,0.2 21.48,-0.11 38.19,-0.91 4.42,-0.55 7.92,-1.31 10.5,-2.27 3.32,-1.19 5.11,-1.72 5.36,-1.57 0.05,0.03 0.04,0.1 -0.02,0.2 -0.2,0.35 -1.59,1.44 -4.15,3.28z"/>
 </g>
</svg>
