<svg xmlns="http://www.w3.org/2000/svg" width="325" height="366">
<path d="M67.7,363.6c2.6-1.4,20.3-9.1,39.2-17.2s39.8-17.4,46.4-20.5c34.5-16.6,66.1-38.6,72.1-50.2c1.1-2.2,1.2-3.4,0.4-9.3 c-1.5-9.3-4.2-18.3-8.2-26.8c-2.3-5.1-3-7.6-2.7-9.2c1.5-6.4,4.6-15.3,5.2-15.3c0.4,0,1.8,2.1,3.1,4.7c1.2,2.5,2.9,4.8,4.8,6.8 c4.6,3.9,12.8,3.8,21.4-0.3c6.5-3.1,8.8-5.9,9.5-11.6c0.7-5.4-0.3-34-1.2-34.9c-0.3-0.4-4.1,0.9-8.3,2.7l-7.7,3.3l2.3,2.9 c4.5,5.5,7,12.4,7.1,19.5c0.3,8.1-0.3,9.4-4.6,9.4c-3.7,0-11.3-2.5-14.5-4.9c-3.6-2.5-7-7.6-8.4-12.5c-0.7-2.3-1.4-4.2-1.7-4.2 c-2.1,0.9-4.2,1.9-6.1,3.1c-16.4,8.9-29.2,13-42.5,13.4l-8,0.2l-0.5,12c-0.6,13.5-2.3,23.3-5.1,29.5c-4.8,10.6-26.2,27.4-49.6,39 c-20.3,10.1-35.6,14.2-53.2,14.3c-12.5,0.1-18.9-1.2-27.7-5.6C16.4,295.3,5.4,281,1.3,265.3c-3-11.3-0.6-36.6,4.6-48.7l1.5-3.6 l-2.1-1.5c-3.4-2.5-4.6-5.8-5-14.1c-0.6-13.8,3.1-29.1,11-44.8c2.2-4.5,4.2-8,4.4-7.8s-0.9,4.4-2.5,9.5c-5.3,17.2-6.9,25.1-6.6,32.8 c0.3,8.3,1.9,11.4,6.2,11.8c3.1,0.3,5.5-1.7,9-7.5l2.4-4l-0.4,4.1c-0.8,5.5-2.5,10.8-5.1,15.7c-1.9,3.2-4.9,5.4-7.9,5.8 c-2.2,0.2-2.4,0.6-3.2,5.4c-0.5,2.8-1.5,8.1-2.3,11.9c-1.8,8.6-1.4,19.3,1.1,25.8c5.1,13.5,16.2,24.2,29.2,28.3 c30.7,9.7,78.2-5.4,113.7-36.4c7.9-6.9,10-9.9,10-14.6c0-5.6-4.2-20.9-8-29.4s-3.8-9.3-0.8-19.6c1.1-3.8,2.2-6.1,2.9-6.1 s2,2,3.1,4.4c4,8.6,8.4,10.4,22.8,9.2c4.3-0.4,8.6-1.1,12.9-2c4.3-1.1,21.8-7.9,23.1-9c0.7-0.5-4.5-4.5-15.6-12 c-13.6-9.1-18.3-13.6-20.1-18.9s-1.1-12.7,1.6-18c2.5-5,8.7-10.6,13.8-12.4c6.8-2.4,25-1.7,48.7,1.8c3.3,0.6,6.6,1,9.9,1.2 c0.2-0.2-0.5-12.4-1.4-27.3s-1.7-29.2-1.7-31.9c-0.1-3.2-0.5-6.5-1.3-9.6c-0.7-2.3-1.1-4.8-1.3-7.2c0.1-2.7,5.6-17.2,6.6-17.2 c0.8,0,1.7,2.2,9.7,23.6c7,18.8,8.1,22.8,5.9,22.8c-0.8,0-2.9-1.4-4.6-3.2s-3.4-3-3.6-2.8c-0.8,0.8,3.4,53.5,4.3,54.4 c0.7,0.8,12.4,3.1,15.9,3.2c0.8,0,0.8-4.8-0.4-19.6c-0.4-5.5-1.1-17.2-1.6-25.9c-0.5-9.8-1.3-17.8-2.1-20.9l-1.3-5l2.6-7.3 c1-3,2.2-5.9,3.7-8.7c1.2-1.6,1-2,7.8,15.3c6.5,16.9,9.5,26.1,9.3,28.7l-0.2,2.5l-4.1-3.8c-2.3-2.1-4.3-3.5-4.6-3.2 s0.1,7.5,0.7,15.8s1.3,18.4,1.6,22.3c0.8,12.8,0.4,12,6.6,13.1c9.8,1.8,23.8,5,24.5,5.7c0.9,0.9-4.1,15.8-5.8,17.5 c-0.7,0.7-5.6,2.9-10.9,4.8c-3.5,1.2-6.9,2.6-10.2,4.2c-0.5,0.5,0.5,21.7,2.2,46.4c0.5,6.9-1.1,25-2.8,32.3s-5.8,18.7-7.2,20.1 c-0.5,0.5-0.6-4.6-0.2-15.2c0.4-10.1,0.2-21.6-0.4-31.2c-2-31.1-3.2-47-3.6-47.4c-0.2-0.2-4,1-8.2,2.8l-7.8,3.2l-0.1,10.8 c-0.1,15.3-0.9,23.6-3.1,32.3c-2.5,9.7-6.8,18.4-11.8,23.9c-5.2,5.7-9.1,7.6-16.3,8.1l-5.8,0.4v7.4c0,8.5-1.3,22.5-2.5,27.1 c-2,6.9-5.6,13.3-10.5,18.6c-10,10.7-34.2,26.4-63,40.7c-9.1,4.5-11.6,5.4-27.2,9c-9.4,2.2-23.8,5.6-32,7.6 c-15.3,3.7-28.4,6.2-31.9,6.1C63.3,366.1,63.8,365.6,67.7,363.6L67.7,363.6z M249.1,166l7.9-3.3l-0.6-8.3 c-0.9-14.1-0.5-13.2-8.4-14.4c-24.5-3.5-53.2-4.8-59.4-2.7c-5.2,1.8-4,3.2,11.6,13.3c10.3,6.6,18,12.9,23.5,19l4.7,5.2l6.5-2.8 C238.4,170.5,244.8,167.8,249.1,166L249.1,166z M276.1,155.4c2.8-0.9,5.6-2.1,8.2-3.5c1.1-1.1-0.1-5.6-1.7-6 c-3.4-1-14.8-2.8-15.2-2.4s-0.1,13.3,0.4,14.2S267.8,158.6,276.1,155.4L276.1,155.4z M113.7,301.1c1.5-0.9,3-1.6,4.6-2.1 c2.5-1,10.5-4.5,17.8-7.8c31.2-14.1,39.5-19.8,46.1-31.9c2-3.7,4.1-6.7,4.7-6.7s1.9-1.4,3-3c2.8-4.2,5.4-5.5,8.3-4.1 c5.3,2.5,7.7,10,5.5,17.3c-1.8,5.9-3.7,6.7-9.3,3.9c-2.3-1.1-4.4-2.5-6.4-4.1c-0.7-0.8-1.6-1.4-2.5-2c-1.1,1.6-2.1,3.4-2.8,5.2 c-2.9,6.3-8.6,12.5-16.4,17.9c-6.1,4.2-19.3,11.3-21.1,11.3c-0.6,0-6.9,1.4-14,3.2C119.6,301.1,113.7,302.1,113.7,301.1L113.7,301.1 z M200.9,259.5c-0.4-1.3-1.1-2.6-2.1-3.6c-2.2-2.7-5.1-3.2-6.7-1.3c-0.8,1-0.3,1.6,2.9,3.6C199.2,260.8,200.9,261.2,200.9,259.5z M259.7,293.8c-3.8-2-5.2-4.1-5.2-8.3c0-5.6,2.9-10.8,10.7-19.2c3.8-4.1,6.9-7.8,6.9-8.2c0-1.2-4-2.3-8.8-2.3 c-2.3,0-4.5,0.2-6.8,0.8c-2.5,1-2.5,0.7-0.3-3.4c2.4-4.2,5-5.4,11.6-5.4c9.8,0,13.1,4.2,8.9,11.1c-2.9,3.8-6,7.5-9.3,10.9 c-8.6,9.2-10.2,11.7-8.9,14c1.5,2.9,4,3.6,12.4,3.5c7.3-0.1,9.7-0.5,22.4-3.9c2.9-0.8-4.5,5.2-9.6,7.7 C275.7,294.9,264.5,296.2,259.7,293.8L259.7,293.8z M114.5,237.4c-1.1-1.3-1.8-2.9-2.1-4.5c-0.8-4.1,0.1-14.2,1.7-19.5 c1.4-4.8,6.8-17,7.3-16.5c0.2,0.2-1,4.8-2.6,10.2c-1.9,6.4-2.9,11.7-3,15c-0.1,4.6,0.1,5.3,2.1,7c2.7,2.3,4.6,1.6,7-2.6 c2.1-3.5,2.5-3.4,1.8,0.3C125,236.8,119,241.9,114.5,237.4L114.5,237.4z M76.9,201.3c-4.2-3.1-7.5-6-7.3-6.5s1.7-3.9,3.3-7.6 c2-4.2,3.5-6.6,4.4-6.6c1.7,0,15.6,9.4,16.2,10.9s-6.2,15-7.8,15.2C85,206.8,81.1,204.3,76.9,201.3L76.9,201.3z M171.7,177.5 c0-8.1-0.1-8.8-2.7-14c-2.2-4.1-5-8-8.2-11.3l-5.5-5.8l1.7-3.3c0.9-1.8,2.1-3.3,2.7-3.3c2.3,0,9.1,7.8,12,13.6 c4.5,9.2,5.4,21.4,2.2,29.7C172.2,187.3,171.7,186,171.7,177.5L171.7,177.5z M30.5,167.5c0.6-0.6,8.2-5.2,16.8-10.3 c14.9-8.8,21.8-13.5,28-19c2.7-2.4,2.7-2.5,1.2-3.4c-1.6-1.2-3.2-2.5-4.6-3.9c-2.5-2.4-3-3.5-3-6.1c0-4,2.8-9.4,6.5-12.4 c3.2-2.6,8.8-3.8,10.6-2.2s2.2,7.1,0.9,12.8l-1.2,5.2l2.7,2.3c1.5,1.2,2.8,2.8,2.8,3.4c0,1.3-3,7.5-3.7,7.5c-1.1-0.5-2.1-1.2-3-2 l-2.6-2l-5.9,6c-6.8,6.6-14.5,12.2-22.9,16.6c-4.5,2.2-21.5,8.6-23,8.6C29.6,168.6,29.7,168.2,30.5,167.5L30.5,167.5z M82.5,123.3 c0-5.5-2.5-7.3-6.2-4.7c-2.5,1.8-2.2,3.2,1.2,5.5C81.6,126.9,82.5,126.8,82.5,123.3L82.5,123.3z M121.7,138.3 c1.1-0.9,5.8-3.7,10.4-6.2c20.6-11.3,24.4-13.6,24.6-14.9c0.1-0.8-0.4-1.6-1.1-1.8c-3.2-1.2-18.1-2.1-27.3-1.6 c-11.3,0.6-10.8,1.4-5.5-7.9c5.6-9.8,7.5-10.5,27.6-10c8.2,0.2,16.4,0.8,18.2,1.4c4.3,1.2,6.2,3.3,5.5,5.9 c-0.9,3.6-8.7,14.4-14.9,20.6c-4.8,4.8-7.1,6.5-10.8,7.9c-5.1,1.9-21.3,6.7-26,7.6l-2.8,0.6L121.7,138.3z M30.9,119.2 c0.5-1.6,1.1-3.1,1.9-4.5c1.2-2.1,9-5.2,88.4-35c47.9-18,87.2-32.6,87.4-32.4c0.7,0.7-2.2,6.2-3.6,6.9c-0.8,0.4-8.8,3.5-17.8,6.9 c-24.6,9.1-95.8,36.6-127.7,49.2c-15.5,6.1-28.4,11.1-28.7,11.1S30.6,120.4,30.9,119.2L30.9,119.2z M188.7,106.2 c-2.6-1.6-3.8-5.2-3.8-11.9c0-5.5-0.2-6.7-1.6-7.8c-0.9-0.7-1.4-1.8-1.6-2.9c0-2,2.9-6.6,4.4-7.2c1.8-0.7,2.2,1.3,1.7,8.4 c-0.5,7.5,0.4,11.4,3,13.2c1.7,1.1,2.1,1.1,4.4,0c1.6-1,2.9-2.4,3.8-4.1c1.2-2.6,1.2-3.3,0-9.5c-1-5.3-1.1-7.3-0.4-9.2 c0.5-1.3,1.1-2.4,1.4-2.4c1.3,0,2.5,5,4.4,18.2c0.4,2.7,3.5,5.8,5.9,5.8c1-0.1,2-0.5,2.9-1.1c1.5-1.1,1.4-1.3-1.2-6.9 c-3.4-7.3-3.9-11.6-2-15.3l1.4-2.7l1,4c0.5,2.2,2,6.7,3.1,10.1c2,5.6,2.1,6.4,1.2,10.6c-2.2,10.6-9.8,12.6-14.4,3.8 c-1-1.9-1-1.9-2.4,1.2c-0.7,1.7-1.8,3.2-3,4.5C195.1,106.6,190.6,107.4,188.7,106.2L188.7,106.2z M85,64.8 c-2.4-10.5-8.5-22.7-10.1-20.2s-9.2-1.6-9.2-4.9c0.3-1.8,1-3.6,2-5.2c1.7-2.9,2.5-3.5,4.4-3.5c5.3,0,11.6,8.9,14.1,20.1 c0.9,3.8,1.5,5.3,2,4.6c0.4-0.9,0.7-1.8,0.7-2.8c0-3.5,4.2-18.4,6.1-21.6c2.5-4.3,5.9-5.9,8.7-4c1.4,1,2.5,2.3,3.3,3.8 c1.1,2.1,1.2,3,0.4,5.6c-1.1,3.6-2,3.8-5,0.9c-4.2-4.1-6.6-0.5-10.2,15.3c-2.4,10.4-4.5,16.5-5.7,16.5C86.3,69.4,85.6,67.3,85,64.8 L85,64.8z M208.9,38.1c0.3-1.5,0.8-3,1.4-4.4l1.4-3.4l40.4-14.9c45.8-16.9,42.4-15.7,42.4-15.1c0,1.5-2.5,6-3.7,6.6 c-0.8,0.4-12.3,4.9-25.5,10c-19,7.3-48.8,19.1-55.4,21.9c-0.3,0.2-0.7,0.1-0.9-0.2C208.9,38.4,208.9,38.3,208.9,38.1L208.9,38.1z"/>
</svg>