<svg xmlns="http://www.w3.org/2000/svg" width="329" height="353">
<path d="M121.4,351.9c-16.2-3.8-25.7-23.8-23-48.7c1.1-10.8,4.5-24.6,8.2-33.2c3.2-7.6,4.1-6,1.6,3c-2.3,8.5-4.1,17.2-5.3,26 c-1.7,15.3,8.5,31,21.8,33.8s38.5-8,64.9-27.8c5-3.8,12.4-10,16.3-13.8l7.2-6.9l-0.5-6.3c-0.6-7.8-3.7-18.6-7.8-27.4 c-1.7-3.7-3.1-7.8-3.1-9.2c0-2.9,3.6-15.6,4.7-16.7c0.8-0.8,1.6,0.4,5,6.6c2.8,5.1,5.4,6.7,11.3,7.1c6.1,0.4,10-0.6,15.8-4 c6.6-3.9,7.3-5.9,7.3-20.3c0-6.5-0.1-11.9-0.3-12s-2.9,0.8-6,2.1c-8.1,3.3-16.3,5.6-22,6.3c-4.8,0.5-4.9,0.6-5.7,3.5 c-0.9,3.1-2.5,5.3-3.3,4.4c-0.5-1.3-0.8-2.6-0.9-4c-0.4-3.5-0.4-3.5-6.5-6.5c-13.1-6.5-22.4-15.1-29.3-27.2 c-10.1-17.7-10.5-17.9-18.9-9.3c-8.5,8.7-11.1,15.9-8.1,22.3c2.5,5.2,11.2,13.1,19.1,17.1c3.3,1.8,6.7,3.3,10.2,4.7 c5.1,1.6,5.7,3.3,4,12.4c-0.8,4.6-1.9,8-2.5,8.2s-2.9-0.5-5.2-1.6c-6.9-3.4-12.5-4.7-21.8-5.2c-8-0.4-9.6-0.2-16.2,1.7 c-15.2,4.4-26.8,11.7-55.6,35.2c-19.6,16-25.1,19.6-32.3,21.3c-17,3.7-32.2-13.9-30.4-35.3c0.9-11.2,5.9-27,12.4-40l2.5-4.9 l-2.2-4.5c-2-4.1-2.2-5.2-2.1-13.4c0-9.7,1.8-19.3,5.2-28.4c2.7-7.5,9.3-21.4,10-20.7c0.2,0.2-1.2,5.8-3.2,12.4 c-4.8,16-6.4,24-5.9,30.1s1.9,9.2,4.8,10.6c3.7,1.8,7.5-1.2,11.4-8.5c2.1-4,2.4-2.5,0.9,4.2c-2.7,12-7.9,19.2-13.6,18.7l-2.4-0.2 L27,220.7c-6.5,18.4-8.1,24.8-8.1,32.4c-0.1,14.3,7.7,20.8,21.6,18c7.6-1.5,12.8-4.9,27.6-17.8c16.7-14.5,24.2-20.4,34.3-27 s27.2-15,33.2-16.2c2.6-0.5,4.9-1,5-1.1c-0.3-1.7-0.8-3.3-1.4-4.8c-4.6-13.2-1.6-30,8.2-45.3c5.7-8.9,12.3-14.2,17.9-14.2 c1.7,0,5.8,5.4,11.4,14.8c6.4,10.8,10.9,16.5,18.1,22.6c5.1,4.4,6.6,5.1,5.8,2.9c-0.3-0.8-1.1-4.8-1.8-9c-1-5.2-1.2-10.5-0.4-15.8 c1.4-13.1,5.9-20.6,15.6-25.6c3.5-1.8,5.5-2.2,11.8-2.5c3.7-0.2,7.5,0,11.2,0.5c1.2,0.4,2.5,0.6,3.8,0.6c0.1-0.1-0.3-7.4-1-16.2 s-1.6-23.9-2-33.6c-0.5-11.2-1.2-19.1-2-21.6c-0.6-1.9-1-3.8-1.2-5.8c0-2.4,5.6-17,6.5-17s2.6,3.8,10.2,24.1 c6.1,16.2,7.6,22.3,5.6,22.3c-0.5,0-2.4-1.5-4.4-3.3s-3.8-3.2-4-2.9c-0.6,0.6,3.6,56.2,4.3,56.8c0.8,0.7,13.2,3.9,13.6,3.5 c0.2-0.2-0.4-12.2-1.4-26.6s-2.1-32.3-2.5-39.8c-0.5-8.7-1.2-15.1-2.1-17.8c-1.3-4-1.3-4.4,0.3-9.2c2.9-8.7,5-13,5.9-12 c1.6,1.6,15,37.2,16.3,43.2c0.8,3.8-1.4,3.5-5.7-0.8l-3.4-3.4V78c0,2.6,0.7,13.9,1.6,25.2s1.8,24.4,2.1,29.4s1,9.5,1.4,10.1 c2,2.4,26.6,7.4,44.2,9c3.6,0.3,5.9,0.9,5.9,1.5c-0.8,3-1.9,6-3.1,8.9c-3.4,8.7-3.7,8.9-10.5,9.1c-5.7,0.1-14.8,3-25.1,7.9l-9.5,4.5 l0.5,4.8c2.4,25.6,0.6,44.3-5.9,61.2c-1.4,3.5-2.8,6.6-3.2,6.9s-0.5-5.7-0.2-15.8c0.4-13.9-0.8-49.9-1.8-50.9 c-0.1-0.2-3.3,1.2-7,3.1l-6.7,3.4l-0.9,11.7c-1,14.1-3.1,23.1-7.3,31.8c-6.1,12.6-14.2,19-24.1,19h-5.3l-0.5,11.2 c-0.6,13.3-2.7,24.1-6.1,31.4c-5.9,12.6-31.6,33.4-54.4,44.1C144.4,351.6,130.6,354,121.4,351.9L121.4,351.9z
M229.9,188.4 c4.2-1.1,9.1-2.6,11-3.3l3.4-1.4l-0.6-10.1c-0.3-5.5-0.8-12.4-1.1-15.2l-0.5-5.1l-4-1.1c-3.9-0.8-7.8-1.3-11.8-1.6 c-6.4-0.4-8.4-0.3-11.6,0.9c-4.4,1.7-11.1,7.6-11.8,10.4c-0.3,1.2,0.5,4.5,2.2,9c1.5,3.9,3.7,9.9,4.9,13.3l2.2,6.2h5 C221.4,190.1,225.7,189.5,229.9,188.4L229.9,188.4z
M266.5,173.9c2.1-1.1,2.2-1.5,2.2-5.8c-0.1-8-0.3-8.2-7.9-10.3 c-3.7-1-6.9-1.9-7.1-1.9s0.4,10.4,1.2,18.5l0.4,4.5l4.5-2C262.3,175.9,265.3,174.5,266.5,173.9L266.5,173.9z
M284.8,165.5 c0-0.5-2.8-1.5-4.2-1.5c-0.3,0-0.6,0.9-0.6,1.9c0,1.8,0.1,1.9,2.4,1C283.7,166.4,284.8,165.7,284.8,165.5L284.8,165.5z
M0,331.6 c1.7-1,3.5-1.8,5.4-2.5c11-4.4,36-16,41.8-19.5c12.3-7.3,16.5-11.3,21.4-19.9c2-3.6,4.2-6.6,4.8-6.6s1.9-1.4,2.9-3 c2.6-4.2,5.3-5.5,8.5-4.2c5.2,2.1,7.5,9.6,5.3,17.1c-1.8,6.3-3.7,7.1-9.6,4.1c-2.4-1.2-4.6-2.7-6.6-4.5l-2.2-2.3l-2.6,5.6 c-3.1,6.7-8.6,12.8-16.6,18.3c-6,4.1-19.3,11.3-21,11.3c-0.5,0-6.9,1.4-14.2,3.2C5.4,331.6,0,332.5,0,331.6z
M87.2,289.6 c0-2.2-3.6-5.7-5.9-5.7c-1.1,0-2.1,0.4-2.9,1.2c-0.8,1-0.3,1.6,2.9,3.6C85.8,291.5,87.2,291.7,87.2,289.6L87.2,289.6z
M144.8,289.8 l-8-5.8l-2-1.5l3.6-7.4c2-4.1,3.9-7.5,4.2-7.8s4.2,2,8.7,5s8.1,5.2,8.2,5.1s1.3-2.7,2.7-5.7s3-5.4,3.4-5.4c1.1,0,9.1,5.1,13.3,8.5 c3.1,2.5,3.3,2.9,2.6,5.1c-1,3.4-6.3,12.8-7.2,12.8c-0.4,0-4.2-2.4-8.3-5.2l-7.6-5.2l-3.1,5.8c-1.7,3.2-3.4,5.9-3.9,5.9 S148.1,292.2,144.8,289.8L144.8,289.8z
M224,288c2.3-7.2-1.3-5.4,43.2-21.9c22.4-8.3,41-14.9,41.4-14.8s0.2,1.6-0.4,3.2 c-1.2,2.9-1.3,3-23.7,11.5c-12.4,4.8-31.2,12.1-41.9,16.3C224.2,289.7,223.4,289.9,224,288L224,288z
M288.2,240.8 c-3.3-2-4.2-3.9-4.2-8.2c0-5.1,3-10.4,10.8-18.7c3.8-4,6.8-7.7,6.8-8.2c0-2.2-10.5-3-15.9-1.3l-1.9,0.6l1.9-3.5c2.8-5,6-6.5,13-6 s9.3,2,9.3,5.6s-3.2,8.2-11.9,17.4c-9.3,9.9-10.5,12.8-6,15.2c3.3,1.8,17.6,1.3,25.6-0.8c8.2-2.1,8.1-2.1,5.8,0.3 c-2.6,2.8-9.1,6.3-14.3,7.9C301,242.9,291.4,242.8,288.2,240.8L288.2,240.8z
M52.8,214.9c0.7-0.6,8.6-5.5,17.7-10.9 c14.9-8.9,29.4-19.1,29.4-20.8c0-0.4-1.4-1.6-3.2-2.7c-4.6-3-5.9-5.4-5.4-9.7c0.8-6.7,7.8-14,13.5-14c1.6,0,3.3,0.5,3.8,1.2 c1.6,1.9,1.8,7.6,0.6,13l-1.2,5l3.1,2.1c3.3,2.2,3.4,2.9,0.9,7.7c-1.6,3.1-2.2,3.2-5.2,1l-2.7-2l-4.8,5.1 c-9.4,9.8-19.3,16-35.6,22.2C53,216.1,50.8,216.7,52.8,214.9L52.8,214.9z
M104.9,172.1c0.6-6.7-2.5-9.4-6.6-5.8l-1.9,1.6l3.1,2.8 C103,173.9,104.7,174.3,104.9,172.1L104.9,172.1z
M65.4,157.9c-0.4-7.2-1.3-14.4-2.6-21.6c-4-21-4.4-23.8-3.9-26.9 c0.8-4.7,3.3-8,8.1-10.3c2.3-1.1,4.2-2.2,4.2-2.5c0-0.4-3.6-2.3-4.5-2.3c-1.2,0.9-2.3,1.9-3.2,3l-2.8,3l0.5-3.2c1-6.2,2-9,4-10.9 l2-2l-2.6-7.5c-1.3-3.8-2.8-7.5-4.6-11.1c-1.9-3.4-2.2-3.6-5-3.4c-3.3,0.3-7.3-2-8.2-4.7c-0.3-1,0.3-3.1,1.7-5.6 c2.8-5.1,5.2-5.4,9.8-1.2c4.1,3.7,7,9.3,8.9,16.9c0.8,3.5,1.7,5.8,1.9,5.1s1.5-5.9,2.9-11.6c3-12.6,5.4-16.7,9.8-17.1 c2.4-0.2,3.2,0.2,5,2.3c2.4,2.9,2.8,6.7,0.8,9.5l-1.3,1.8l-2.7-2.6c-1.7-1.7-3.1-2.4-3.9-2.1c-2,0.8-4.2,6.5-6.4,16.6 c-1.1,5-2.4,10.3-2.9,11.7c-0.4,0.9-0.6,1.8-0.6,2.8l3.3,1.7c2.4,1.4,4.6,3,6.6,4.9c4,3.7,4.4,5.7,2.2,10.4c-1.2,2.4-2,3-5.8,4.1 c-6.8,1.9-11,3.5-12.9,5l-1.7,1.4l2.1,8.2c3.3,13.3,4.8,24.9,4.3,35.3C67.2,169.1,66,170.4,65.4,157.9L65.4,157.9z
M185.4,129.7 c-2.4-2.8-3-5-3-11.3c0-5.5-0.2-6.7-1.7-8c-2-1.9-1.6-5,1.1-7.9c3.4-3.6,3.9-2.6,3.6,7c-0.2,7.9-0.1,9,1.5,11c2.3,3,5.5,2.8,8.6-0.6 c2.1-2.3,2.2-2.9,1.8-6.6c-1.4-11.9-1.5-13.1-0.5-14.9s1-1.8,1.8-0.4c1.1,1.9,2.1,6.6,3,13.4c0.8,6.3,2.9,9.3,6.5,9.3 c4.1,0,4.5-1.8,1.7-7.8c-3.3-7.2-3.9-11-2.1-15l1.3-3.2l1,4c0.6,2.2,2,6.7,3.2,10c1.7,4.7,2,6.7,1.6,9.6c-0.6,4.3-3,9.3-4.8,10 c-2.8,1.2-6,0.4-7.9-2c-0.9-0.9-1.6-2-2.1-3.2c0-1.8-1.4-0.5-2.7,2.5C195.1,130.5,188.3,133,185.4,129.7L185.4,129.7z
M103.2,109.5 c0.4-1.6,0.9-3.2,1.7-4.7c1.3-3,2.2-4,4.2-4.7c1.4-0.5,25.4-9.3,53.2-19.8s50.9-18.8,51.1-18.5s-0.4,1.9-1.5,3.8 c-1.5,2.6-2.7,3.7-5.9,4.9c-2.2,0.8-21.2,8-42.3,16c-42.2,15.9-52.7,20-57.3,22.4C104.5,109.7,103.2,110,103.2,109.5L103.2,109.5z
M139.2,70.4c-4.6-4.6-2.5-21,4.5-35.8c1.6-3.3,3-5.8,3.1-5.6s-0.4,2.5-1.3,5c-5.1,14.8-6.1,24.3-2.9,28c1.9,2.2,1.9,2.2,4,0.8 c1.5-1.1,2.8-2.5,3.8-4l1.6-2.5l-0.6,3.5c-0.7,4.5-2.4,8.5-4.4,10.5c-2.3,2-5.7,2-7.9,0L139.2,70.4z
M207.2,36.8 c2.3-7.3-1.2-5.5,42.6-21.7c22-8.1,40.7-14.9,41.6-15.1c1.4-0.2,1.5-0.1,0.2,2.8c-0.4,1.1-0.9,2.2-1.5,3.3 c-0.1,0.1-13.2,5.2-29,11.3s-34.5,13.4-41.6,16.3C206.7,38.9,206.5,38.9,207.2,36.8L207.2,36.8z"/>
</svg>