<svg xmlns="http://www.w3.org/2000/svg" width="382" height="327">
<path d="M199.1,324.7c1.8-0.9,7.9-3.6,13.6-6c19.7-8.5,34.1-16,41.5-21.7c6.3-4.9,7.6-6.2,11.2-12.6c2.2-3.9,4.6-7.3,5.3-7.5 s2.3-1.9,3.7-3.7c2-2.7,3-3.4,5.3-3.6s3.2,0.2,5.3,2.6c3.1,3.5,3.9,7.5,2.7,13.2c-1,4.8-2.8,7.3-5.1,7.3c-2.1,0-7.3-2.8-10.6-5.7 c-1.6-1.4-3-2.4-3.1-2.2s-1.4,2.8-2.9,5.9c-4.4,9.1-13.6,17.1-28,24.4c-5.1,2.6-10.3,4.3-20.8,6.8c-7.7,1.9-15.6,3.6-17.6,3.9 l-3.6,0.5L199.1,324.7z M283.1,280.4c-1.6-2.4-4.7-3.4-6.4-2c-1.9,1.6-1.5,2.2,3,4.8c3.9,2.2,4.2,2.3,4.5,0.9 C284.3,282.7,283.9,281.5,283.1,280.4L283.1,280.4z M135.5,316.7c0.6-1.7,1.3-3.3,2.2-4.8c0.3-0.3,5.7-2.4,11.8-4.6s24.5-9,40.7-15 s29.7-10.8,29.9-10.5s-0.4,1.8-1.2,3.5c-1.5,3-2,3.2-17.1,9c-11.7,4.4-58.6,22.9-66.9,26.2C134.2,320.8,134.4,319.7,135.5,316.7 L135.5,316.7z M111.4,303.5c5.1-6.1,9.9-12.8,10.7-14.7c1.7-4.4-2.2-7.1-6.7-4.8c-2.4,1.3-2.7,0.4-1.1-3.6c1.7-4.4,3.8-6,7.8-6 c8.7,0,6.7,13.5-3.7,24.6c-2.1,2.3-4.4,4.3-6.9,6.1l-2.7,1.6L111.4,303.5z M39.4,283.2c-15.8-2-26.8-8.5-33.8-19.9 c-4.5-7.5-5.7-12.6-5.6-25C0.1,225.7,1.2,220,6.1,209c3-6.9,3.2-7.6,2-8.9C5.3,197,4.3,193,4.3,184c0-9.5,1.2-16.8,4.5-26.9 c2.2-6.7,9.7-22.4,10.4-21.8c0.2,0.2-1,5.2-2.8,11.1c-6.2,20.7-7.4,28-5.7,35c1,4.2,3.7,7.3,6.5,7.3c2.2,0,6.2-3.8,8.8-8.3 c2-3.4,2.4-3.8,2.4-2.1c0,2.8-2.9,13.1-4.7,16.7c-2.1,4.1-5.1,6.7-8.5,7.2c-2.8,0.5-3,0.7-5.6,7.7c-3.6,9.6-5.5,18.7-4.9,24.5 c1.1,11.8,12.2,22.2,28.6,26.9c4.2,1.2,7.9,1.5,19.2,1.4c13.1-0.1,14.6-0.2,23.3-2.6c30.9-8.3,66.3-29.6,73.8-44.5 c3.8-7.5,4.1-11.9,3-42c-1.4-37.4-3.3-58.2-8.5-91.3L142,70l1.6-8.4c1.8-9.4,2.9-12.2,4-10.3c0.9,1.6,5.1,18.5,7.1,28.4 c5,25.4,6.9,47.3,8.5,101.5c1.5,50.2,3.9,62.3,13.4,67.6c2.9,1.6,4,1.8,11.3,1.4c9.8-0.5,15.5-2.4,20.9-7.1 c9.8-8.6,11.5-19.4,10.1-64.3c-1.3-43.4-3.1-62.2-9.1-99.9c-1.9-11.8-1.9-11.9-0.5-19.2c1.6-8.2,2.8-11.7,3.9-11.7 c1.8,0,6.9,21.6,10.1,42.9c3.6,23.7,4.3,34.7,6.8,100.7c1.2,31.8,2.8,42.4,7.6,49.4c5.8,8.6,19.3,8,38.6-1.4c7.2-3.5,9-4.7,8.6-5.8 c-0.2-0.8-1.3-6.6-2.5-13c-4.7-26.7-9.4-81.1-10.8-123.2C271,78.8,270.3,69,269.4,65c-0.7-3.2-1-6.9-0.8-8.2 c0.8-4.2,5.5-14.5,6.4-14.2c1.8,0.6,16.5,39.8,16.5,43.8c0,2.2-0.1,2.4-1.7,1.5c-1.7-1.1-3.3-2.3-4.8-3.7l-3.1-2.8v4.3 c0,11.9,3.9,77.5,5.6,96.3c1.8,19.3,5.2,41.3,7.1,46.4l0.7,1.9l5.5-1.5c7.2-2,18.2-2.3,21.5-0.5c8.2,4.4,12.5,16.3,10.8,29.8 c-1,8.1-3.9,13.4-8.6,16.2c-3.1,1.8-4.1,2-8.2,1.5c-3.1-0.4-6.1-1.3-9-2.6c-5.2-2.6-12.4-10-15.4-15.7l-2.2-4.3l-10.9,5.4 c-16.2,8.1-27.6,10.4-37.4,7.4c-5.2-1.6-10.8-6.5-13.3-11.8c-2-4.1-4.5-14.6-4.5-18.5c0-1.1-0.4-2-0.8-2s-0.8,0.8-0.8,1.8 c0,2.9-2.3,10.9-4.4,15.6c-2.7,5.8-10.2,13.2-16.6,16.2c-6.6,3-14,4.1-21.2,3.1c-10-1.4-16.2-6.9-19.7-17.4 c-2.3-7-4.6-20.8-4.6-28.1c0-2.7-0.3-4.9-0.7-4.9s-1.1,1.5-1.7,3.4c-2,6.7-5.6,13.4-9.3,17.4c-14.9,16-51.3,35.4-76.1,40.8 C59.3,283.4,46.7,284.1,39.4,283.2L39.4,283.2z M322.3,254.7c1.6-1.6,0.5-3.8-3-6c-1.9-1.2-4-1.6-8.8-1.6c-7.2,0-8,1-3.4,4.4 C312.1,255.4,320,257,322.3,254.7L322.3,254.7z M348.4,271.2c0-1.1,0.4-7,0.8-13.1c0.8-11,0.1-28.6-2.5-63.7 c-1.5-20.4-5.6-82-6.7-100.8c-0.7-12.6-1.5-20-2.4-22.4c-1-2.8-1.1-4.3-0.4-6.8c1.2-4.6,5.5-14.8,6.3-14.8 c1.1,0,15.6,38.1,16.5,43.4c0.7,4.2-1,4-5.7-0.8l-3.8-3.8l0.5,8.8c0.3,4.8,1,16,1.7,24.8c5.9,80.3,7,98.5,6.5,109.3 c-0.7,15.4-5.3,34.5-9.7,40.3C348.4,273.1,348.4,273.1,348.4,271.2L348.4,271.2z M64.4,200.3c0-0.4,5.7-3.5,12.6-7 c14-6.9,17.8-9.2,17.8-10.7c0-0.7-1.3-1-4-1c-14.5,0-19.1-5.1-15.4-17.4c2.5-8.3,10.6-19.9,17.9-25.6c2.9-2.3,3.9-2.6,7-2.4l3.6,0.2 l0.2,4.2c0.3,5.8-2.8,13-5.7,13c-1,0.1-1.9-0.4-2.4-1.2c-0.8-2.3-3.5-1.3-8.1,2.9c-7.2,6.6-5.7,8.7,7.2,10.2 c12.1,1.4,14,4.7,8.8,14.3c-4.2,7.6-9.5,14.8-11.7,15.9C87.2,198.2,64.4,201.9,64.4,200.3L64.4,200.3z M186.2,180.6 c-1.3-0.9-2.2-2.2-2.7-3.7c-1.2-3.6-0.5-15.8,1.3-21.6c1.5-4.9,6.7-16.5,7.1-16.1c0.2,0.2-1,4.6-2.5,9.9 c-3.3,11.2-3.8,18.1-1.6,21.4c0.8,1.2,2.1,2.2,2.9,2.2c1.4,0,4.8-3.1,6.4-6c1.5-2.6,0.2,4.1-1.7,8.6 C193,181,190.3,182.6,186.2,180.6L186.2,180.6z M309.4,180.8c-1.1-0.5-2-1.3-2.6-2.3c-1.5-2.7-1-15.9,0.7-22.2 c1.5-5.3,7.1-18.3,7.6-17.7c-0.7,3.3-1.6,6.6-2.6,9.9c-4.4,14.9-3.9,24.4,1.5,24.4c1.3,0,3.9-2.6,6.1-6.1c1.4-2.2-0.7,6.6-2.4,10.2 c-0.7,1.6-1.9,2.9-3.4,3.8C312,181.7,311.8,181.7,309.4,180.8L309.4,180.8z M246,179.8c-3.2-1.6-4.4-7.4-3.3-15.8 c0.5-3.8,1.3-7.5,2.4-11.2c2-5.6,6.4-15.5,6.9-15.1c0.2,0.2-0.9,4.5-2.5,9.5c-3.5,11.2-4.1,20.3-1.5,23.1c2.2,2.5,4.1,2.1,6.6-1.3 c1.2-1.6,2.5-3.3,2.8-3.7c1-1.2-1.4,7.8-2.8,10.5s-4.2,5.1-5.7,5C247.8,180.5,246.9,180.2,246,179.8L246,179.8z M67.2,122.4 c0.9-0.8,7.8-5.2,15.5-9.7c15.1-8.9,25.5-16,29.3-20c2.3-2.5,2.3-2.6,0.8-3.4c-1.7-1.1-3.2-2.4-4.6-3.8c-3.5-3.4-3.9-6.4-1.5-11.6 c2.8-6.2,11.6-11.6,15.2-9.4c2.2,1.4,2.9,6.1,1.8,12.8l-1,6.1l3,2.5l3,2.5l-2.1,4.2l-2.1,4.2l-2.4-2c-0.9-0.8-2-1.5-3.1-2 c-0.4,0-2.8,2.2-5.3,4.8c-6,6.1-12.9,11.2-20.4,15.3c-4.7,2.6-19.1,8.4-25.2,10.2C65.6,123.9,65.6,123.9,67.2,122.4L67.2,122.4z M119,79.8c0.7-2.6-0.3-6.2-2-7.1c-2-1.1-6.5,1.2-6.2,3.1c0.2,1.2,5.8,5.7,7.2,5.8C118.3,81.5,118.7,80.8,119,79.8z M46.8,113.1 c0-4.1-6.7-21-8.8-22.3c-0.8-0.2-1.7-0.1-2.5,0.4c-1.4,0.8-2.2,0.6-4.8-1.1c-4.3-2.8-4.6-4.6-1.8-9.2c3-4.9,5.4-5.3,9.6-1.4 s7.1,9.3,8.9,17c0.8,3.5,1.7,5.8,2,5.1s1.5-5.7,2.8-11.3c2.4-10.2,4.6-15.3,7.3-16.8s5.3-0.9,7.6,1.8c1.8,2.2,2.1,3.1,1.8,6.1 c-0.6,5.1-1.6,5.7-4.9,2.7c-1.6-1.4-3.3-2.3-4-2.1c-2,0.8-4.2,6.7-6.7,18.2c-2.4,10.6-4,14.9-5.7,14.9 C47.1,115.2,46.7,114.2,46.8,113.1L46.8,113.1z M175.6,60.6c0.4-1.6,1-3.1,1.8-4.6l1.8-3.6l40.7-15c22.4-8.3,40.9-14.9,41.1-14.6 s-0.2,1.8-1,3.4c-1.3,2.9-1.8,3.2-13.9,7.7c-12.3,4.6-61.7,23.9-67.5,26.4C176.3,61.3,175.6,61.3,175.6,60.6L175.6,60.6z M294.8,56.6c0-2.8,2.7-7.8,4.7-8.5c11.3-4.5,80.4-29.6,80.7-29.4s-0.3,1.7-1.1,3.4c-1.4,3-1.9,3.2-15.9,8.6S307.2,52.5,299,55.8 C296.1,57,294.8,57.2,294.8,56.6L294.8,56.6z M246,42.4c1.9-1.5,6-3.9,27-15.6c4.5-2.5,8.2-5.1,8.2-5.7c0-2.2-6.4-3.1-22.4-3.2 c-12.8-0.1-15.6-0.3-15.3-1.2c1.2-2.5,2.5-5,4-7.4c5.6-9.4,6.3-9.7,27.1-9.2c23.7,0.5,27,2.2,21.9,11.2c-3.5,6-12.1,16.6-16.2,20 c-3.8,3.1-12.3,6.4-25.3,9.8C242.9,44.4,243.7,44.3,246,42.4L246,42.4z"/>
</svg>