<svg xmlns="http://www.w3.org/2000/svg" width="449" height="339">
<path d="M27.5,338.2c0.4-0.4,4-2.8,7.8-5.4c5-3.4,9.6-7.4,13.6-11.9c10.6-11.8,16.4-17.1,21.8-19.8c4.5-2.2,5.6-2.4,10.1-2 c2.8,0.2,6.2,0.7,7.6,1c3.8,0.8,7.1-0.9,9.4-4.9c0.9-1.6,2-3.1,3.2-4.5c1.1-0.9,1.2-0.7,1,2.1l-0.3,3.1l3.8,0.2l3.8,0.2l-0.1-3.1 c-0.1-3.4,1.3-6.9,2.7-6.4s2.1,4.2,1.3,8.2c-1,5.1-2.3,7.7-4.8,9.1c-1.8,1-2.5,1-6-0.1c-3.9-1.3-4-1.3-5.9,0.6 c-4.6,4.3-8.4,5.2-14.8,3.5c-4.8-1.3-11.2,0.1-17,3.6c-2.4,1.4-8.9,7-14.5,12.3S39.1,334.4,37.9,335C35,336.5,26.5,339,27.5,338.2 L27.5,338.2z
M132.3,300.9c-7.4-2.6-13.2-13.1-13.2-23.7c0.1-1.6,0-3.2-0.3-4.7c-0.2,0-4.8,2.1-10.2,4.7 c-20.8,9.9-34.1,13.2-52.7,13.2c-14,0-18.9-1-27.9-5.5C14.6,278.2,5.7,265.3,2,247.4c-1.6-7.8-1.7-25.9-0.1-34.8 c1.3-7.4,4.2-17.8,5.3-19c0.4-0.4-0.6-2.1-2.4-4.1c-4.3-4.6-5.2-9.3-4.7-24.7c0.5-13,1.6-19.4,5.8-32.5c2.7-8.5,14.7-33.9,15.3-32.3 c0.2,0.5-1.7,7.3-4.1,15.2c-6.7,21.7-8.7,31.3-8.7,41.2c0,8.6,1,12.9,4,16.2c2,2.2,6.1,2.6,9.1,0.9c2.3-1.3,8.7-9.9,10-13.4 c0.3-0.7,0.8-1.1,1.1-0.9c1.8,1.1-4.3,21.4-8.1,27.1c-3.3,5-6.4,6.9-11.5,6.9H9l-2.7,16.2l-2.7,16.2L5,232 c3.7,18.1,16.7,31.9,34.9,37c7.7,2.1,26.3,1.9,37.5-0.4c12.2-2.7,24.1-6.7,35.4-11.9l8.5-4l1.4-5.5c1.6-6.3,4.7-15.4,6.5-18.6 c1.1-2.1,1.2-2.1,1.2-0.3c-0.6,3.9-1.4,7.7-2.4,11.5c-1.3,5.3-2.3,9.8-2.2,10c0.9,0.9,20.1-12.4,27.2-18.9c5.9-5.4,7.8-8.2,7.8-11.7 c0-3.8-1.7-12.3-2.5-12.3c-0.4,0-3.3,2.1-6.5,4.7c-21.1,17.1-40.7,24.8-55.4,21.7c-6.3-1.3-10.1-3.3-15-7.9s-7.1-8.3-9.6-15.8 c-1.6-4.9-1.9-7.1-1.8-17.2c0-13.3,1.8-23,6.5-35.9c1.6-4.2,2.8-8.8,2.7-10.1c-0.6-12-0.4-14.6,2.3-23.4c2.6-8.7,2.6-9.1,1.2-10.6 c-0.6-0.7-1.4-1.3-2.3-1.6c-0.5,0-3.2,2.4-6.2,5.4c-6.6,6.7-18.2,14.7-26.5,18.2s-20,7.6-20.4,7.2s5.2-3.8,20.6-12.9 c11.9-7.1,19.5-12.2,24.3-16.5l3.9-3.5l-3.3-2.2c-4.3-2.9-6-5.6-5.9-9.5s1.6-6.7,5.5-10.5c4.9-4.7,8.8-5.7,11.5-3 c1.8,1.8,2.2,8.2,0.8,14.3c-0.8,3.3-0.7,3.7,1.3,5.7c2.6,2.7,2.4,5.3-1.2,15.1c-3.1,8.5-3.5,17.4-0.9,20c0.7,0.8,1.6,1.3,2.7,1.6 c1.1,0,4.6-3.4,6.1-6s0.2,4.1-1.5,8c-1.8,4.1-3.8,5.8-7.2,6.1l-2.8,0.3l-2.2,8.8c-3.5,14-4.9,23.2-4.4,29.7 c1.6,21,20.3,31.3,43.6,24.2c6.8-2.1,18.6-8.1,28-14.3c8.2-5.4,8.1-5.2,4.3-11.8c-1.7-3-1.9-4-1.4-7.8c0.8-6,3.1-14.3,4-14.4 c0.4,0,2.5,2.9,4.7,6.6c3.2,5.5,4.5,6.9,7.4,8.3l3.5,1.7l4.6-3.9c6-5.1,13.1-13.8,13.1-15.9s-2.9-4.9-7.2-6.4 c-2-0.7-8.4-1.6-14.5-1.9c-12.2-0.8-16.5-2.1-20.1-6.4c-2.6-3.1-3.3-6.6-2.8-13.8c0.5-7,3.8-14,9.4-19.8c8.7-9.1,17.6-9.7,26-1.7 c7.9,7.5,14.1,20.6,15.7,33.3c1.8,14.2-1.4,28.3-8.6,37.7l-2,2.6l1.8,0.4c9.1,2,35.1,2.9,35.1,1.2c0-1.4-5.8-16.4-11.6-29.9 l-5.4-12.7l1-7.4c1.2-9,1.9-11.8,3.1-12.2s9.2,11.9,13.4,21c4.8,10.7,8.7,21.8,11.6,33.2c1,4.2,1.9,7.7,2,7.8 c0.3,0.4,19.9-2.4,29.2-4.3c25.6-5,50.5-12.8,74.3-23.3l8.3-3.7l-0.5-7.2c-0.3-4-1.2-17.7-2.1-30.4s-2-30.5-2.4-39.4 c-0.5-10.6-1.3-17.9-2.1-21.1c-1.3-4.6-1.3-5.1,0.1-9.4c2.2-7.1,5.2-13.3,5.9-12.5s11.3,27.7,14,36.1c1.2,3.6,2,7.6,1.9,8.8 l-0.2,2.2l-4.2-3.9c-2.3-2.2-4.4-3.8-4.6-3.6s0,5,0.4,10.7s1.5,20.4,2.4,32.8s1.8,24.4,2.1,26.9l0.5,4.5l5.9-3.1l5.9-3.1v-4.6 c0-2.6-0.4-9.1-0.8-14.6s-1.3-19.3-2-30.7c-0.8-14.7-1.5-21.9-2.5-24.6c-1.2-3.5-1.2-4.1,0-8.3c0.9-3.1,2-6.1,3.3-9 c1.7-3.8,2.1-4.3,3-3.3c2,2.2,16.5,41.1,16.5,44.3c0,2.1-1.8,1.3-5.8-2.6l-3.8-3.8v3.6c0,4.8,2.4,38.6,3.1,43.4l0.5,3.8l19.5-11.1 c25.9-14.8,35.9-18.2,43.8-14.9c5,2.1,6.5,8.8,3.6,16.7c-2.6,7.4-8.9,16.2-24,33.3c-4.4,5.2-8.5,10.7-12,16.6 c-2.9,4.9-5.4,8.9-5.6,8.7c-0.6-0.6,2.5-10.8,5-16.1c3.1-6.7,8.4-14.2,17.2-24.4c8.3-9.6,11-14,9.6-15.6c-2.7-3.2-12,0.3-39.5,15.1 l-16.7,8.9l0.5,8.4c0.2,4.6,1.2,18.3,2,30.4s2,28,2.5,35.2c2,28.7-0.5,50-7.7,65c-2.1,4.4-3.1,3.8-2.5-1.6 c1.5-12.9,1.4-24.9-0.2-49.8c-2.5-37.8-5.6-81-5.9-81.2c-2.1,0.9-4.2,1.9-6.2,3.1l-6,3.3l0.2,3.2c0.1,1.8,0.7,11.5,1.4,21.6 c2,30.9,1.5,43.6-2.1,57.9c-3.3,13-11.6,25.4-19.5,29.4c-2.8,1.4-4.8,1.6-14.8,1.5c-12.8-0.1-20.6-1.4-27.7-4.6l-4.4-2l-3,2 c-5.3,3.6-11.2,6.3-17.4,7.9c-9,2.1-19.6-0.5-25.1-6.1s-7.7-12.4-10.8-31.5c-1.1-7-2.2-12.9-2.3-13s-1.2,2.7-2.4,6.4 c-2.7,8.4-5.1,12.5-12.4,20.9c-14.4,16.5-37.7,32.8-55.3,38.8C150.2,301.9,138.5,303,132.3,300.9L132.3,300.9z
M156.7,279.9 c9.6-2.4,21.2-8.1,33.4-16.2c14-9.4,23.9-18.6,33.2-31c3.4-4.5,3.4-4.6,3.3-11c0-3.7-0.4-7.3-1-10.9l-1-4.5l-13.8-0.1 c-14-0.1-28.6-1.6-36.6-3.7c-6.5-1.8-6.4-1.8-6.4,3.4c0,9.9-2.6,22.2-6.2,29.6c-3.9,8-19.6,22.4-33.4,30.7c-2.4,1.4-4.4,3.2-4.4,3.9 c0.4,1.7,1,3.3,1.8,4.8C129.7,282.9,139,284.4,156.7,279.9L156.7,279.9z
M177.7,252.7c-1.1-1.7-1.4-3.8-1.4-9.4 c0.1-8.7,1.7-15.1,6-23.9c3.5-7.2,3.6-6.7,0.4,3.9c-4.4,14.7-3.2,25.1,2.7,23.2c0.7-0.2,2.3-1.9,3.6-3.8l2.2-3.4l-0.6,3.5 c-1.2,7.9-4.3,12.1-8.8,12.1C179.8,254.8,178.8,254.3,177.7,252.7L177.7,252.7z
M275.6,260.9l3.3-1.4l-1.2-3.4 c-1.7-4.9-2.2-14.1-1.1-19.9c2.1-10.9,11.8-26.3,20.3-32c7.5-5.1,13.5-1.8,17,9.3c3.7,11.6,2.2,28.2-3.3,38.8 c-1.9,3.5-2.4,5.3-1.8,5.7c1.5,0.9,17.8,1.7,22.3,1.1s14.1-5,16.3-7.4s3.2-10,2.6-22.1c-0.5-12.3-3.7-58.3-4-58.6 c-2.6,1-5.2,2.1-7.7,3.3c-27.5,13-65.2,25.1-89.5,28.8c-5.1,0.8-9.8,1.6-10.4,1.9c-1.1,0.4-0.8,3.1,2.6,21.7c4.9,27,7,32,14.8,34.9 C259.6,263.3,271.1,262.8,275.6,260.9L275.6,260.9z
M297.9,250c5.1-2.9,10.8-8.4,10.8-10.5c0-2.3-3.1-11.1-5-14.3 c-2.2-3.6-3.6-4.7-5.6-4.2c-3.7,1-14.9,13.5-16.8,18.7c-0.7,1.9,2.9,6.7,7.2,9.9c1.4,1.1,2.9,2,4.5,2.8 C294.8,251.8,296.4,251,297.9,250L297.9,250z
M174.6,133c-3.7-6.4-9.2-10.2-14.8-10.2c-6.6,0-9.9,2.7-7.9,6.4 c1.5,2.8,4.1,3.6,12.8,4.1c4.6,0.3,8.9,0.5,9.4,0.6S175,133.6,174.6,133L174.6,133z
M80.7,96.2c0-2.4-1.8-6.1-3-6.1 c-1.1,0.4-2.2,0.9-3.2,1.6c-2.3,1.3-2.5,1.8-1.8,3.2c0.9,1.7,6.4,4.9,7.4,4.3C80.4,98.9,80.7,97.6,80.7,96.2L80.7,96.2z
M42.6,251.6 c-1.3-1.5-1.5-2.9-1.5-11c0-7.5,0.4-10.3,1.9-14.4c2.3-6.5,6.4-15.6,6.8-15.2c0.2,0.2-0.9,4.4-2.4,9.4c-1.4,4.4-2.4,8.8-3.2,13.3 c-0.8,7.1,2,12.6,5.7,11.1c0.7-0.3,2.4-2.2,3.7-4.2s2.2-3,2-2.1s-0.7,2.9-1,4.4C52.9,251.6,46.8,256.1,42.6,251.6L42.6,251.6z
M105.5,197c-2.2-3.5-2.1-12.6,0-21.1c1.5-6,7.1-19.1,7.8-18.4c0.2,0.2-0.6,3.1-1.8,6.6c-3.4,10.4-4.8,18.5-3.7,22.5 c1.6,6,6.2,6.1,9.3,0.2c1.6-3.1,2.1-3,1.4,0.2c-1.6,8.4-4.6,12.6-8.8,12.6C107.6,199.6,106.7,199.1,105.5,197L105.5,197z
M270.7,147.9c-4-2.9-7.3-5.6-7.5-6.1c-0.4-1.1,6.4-15,7.3-15s13.1,7.8,14.2,9.2c0.4,0.5,0.9,0.9,1.5,1.2c0.3,0,1.8-2.5,3.3-5.6 s3.2-5.6,3.8-5.6c2.9,0,16.2,9.9,16.2,12c0,1.6-5.1,11.8-6.7,13.4c-0.9,0.9-2.3,0.2-8.5-4.2c-2.5-1.9-5.2-3.6-7.9-5.2 c-0.2,0-1.7,2.4-3.3,5.4s-3.4,5.4-4,5.5S274.7,150.7,270.7,147.9L270.7,147.9z
M114.9,146.3c-0.3-0.3-0.6-3.6-0.6-7.4 c0-7.5-1.5-18.8-4.5-33.3c-2.2-10.8-2.4-16.2-0.8-20c1-2.5,5.5-6.9,6.9-6.9c1-0.2,1.9-0.4,2.8-0.8c2.1-0.8,2.1-0.9,0.7-2 c-2.5-1.9-4.8-1.4-7.1,1.4l-2.1,2.7v-2.4c0-4,1.6-8.7,3.8-10.9l2-2.1l-1.8-5.5c-2.1-6.6-6.7-16.6-7.9-17.4c-0.8-0.2-1.7-0.1-2.4,0.4 c-1.3,0.8-2,0.6-4.4-0.8c-4.7-2.9-5-4.2-2.1-9.3c1.4-2.4,2.8-4.4,3.3-4.4c2,0,6.2,2.5,8.2,4.8c3.2,3.8,5.1,7.8,6.6,14.1 c1.7,6.8,2.5,7.8,3.1,3.8c0.9-5.5,4.3-18,5.7-20.8c1.5-3.2,4.7-5.9,6.9-5.9c0.9,0,2.6,1,3.9,2.3c2.6,2.6,3.2,7.4,1.2,10.1 c-1.1,1.5-1.2,1.5-3.5-0.7c-4.8-4.6-7.1-1.4-11,15.5c-1.4,5.9-2.8,11.4-3.1,12.2c-0.4,1,0.1,1.6,2.2,2.5c3,1.2,9.7,7,11,9.4 c0.6,1,0.3,2.5-0.9,5.4c-1.7,3.9-1.8,3.9-7,5.2c-6.3,1.6-13.7,5-13.7,6.3c0.3,1.7,0.7,3.3,1.2,4.9c3.1,10.1,4.7,20.6,4.9,31.2 C116.8,139.7,116.1,147.6,114.9,146.3L114.9,146.3z
M216.3,121.2c0.3-0.4,6.7-4.4,14.2-8.9c15.7-9.3,25.8-16,30.8-20.4l3.4-3.1 L261,86c-5.1-3.8-6.3-6.2-5.1-10.9s3.5-7.8,8-10.7c4.2-2.8,6.7-3,8.9-0.8c1.9,1.9,2.1,7,0.7,13.7l-0.9,4.2l2.9,2.3 c1.6,1.3,2.9,2.7,2.9,3.2c-0.5,1.5-1.2,3-2,4.3l-2,3.5l-2.4-2c-0.9-0.8-1.9-1.5-3.1-2c-0.4,0-2.8,2.2-5.3,4.9 c-9.6,10-20,16.4-37.1,22.7c-10.9,4-10.7,3.9-10,2.9L216.3,121.2z
M269.2,74.4c-0.7-3.7-2.1-4.7-5-3.6c-4.4,1.7-4,4.5,1.1,7.1 c2.6,1.3,3.1,1.4,3.6,0.3C269.4,77,269.4,75.7,269.2,74.4L269.2,74.4z
M285,101.4c1.7-1.2,10-6,18.4-10.7c8.8-4.8,15.4-9,15.6-9.8 c0.5-2.4-5.6-3.3-22.2-3.4c-17.7-0.1-16.8,0.4-12.2-7.2c6.2-10.5,7-10.8,25.2-10.8c20.2,0,27.9,2.1,26.6,7.2 c-1.1,4.7-12.8,20-18.6,24.5c-2.5,1.8-5.2,3.2-8,4.4c-4.3,1.6-20.2,6.3-25.3,7.5C282,103.7,282,103.6,285,101.4L285,101.4z
M197.5,100.7c-1.7-1.8-2-3-2.3-10.1c-0.3-6.5-0.7-8.2-1.8-8.8c-0.9-0.6-1.4-1.6-1.4-2.7c0-2.2,3.6-6.8,5.4-6.8 c1.1,0,1.2,1.1,0.8,7.8c-0.8,13.4,3.1,18.3,9.5,11.9c3.1-3.1,3.3-4.7,1.5-13.3c-1.1-5.2-1.1-5.9,0.1-8.2c1-2,1.4-2.2,2-1.3 c0.9,1.7,2.3,8,3.1,14.7c0.8,6.2,2.4,8.4,6.4,8.4c4.2,0,4.6-1.9,1.7-7.8c-3.4-6.9-4.1-12.5-1.8-15.3c1.6-1.9,1.7-1.9,1.7-0.3 c0,0.9,1.3,5.3,2.9,9.8c2.7,7.7,2.8,8.4,2,12.5c-1.4,7-5.2,10.7-9.3,9.2c-2.4-0.9-4-2.6-5.2-5.6c-0.8-2-0.8-2-2.3,1.3 C207.5,102.6,201.3,104.9,197.5,100.7L197.5,100.7z
M42.3,95.7c-1.6-2-1.7-2.8-1.3-11c0.4-9.2,1.9-14.8,6.5-24.7 c2.5-5.3,3.4-5.6,1.6-0.5c-3.1,8.8-5.3,19.7-4.9,23.6c0.6,5.2,2.8,7.5,5.7,6.2c1.5-0.9,2.8-2.2,3.7-3.8c0.5-1,1.2-1.9,1.9-2.8 c0.4,0-1.2,6.6-2.1,9.2c-2.3,6.2-7.7,8-11.1,3.8L42.3,95.7z
M138.7,91c0.9-0.8,7.8-5.2,15.5-9.7c14.9-8.8,25.5-16,29.1-19.8l2.2-2.3 l-3.3-2.3c-4.4-3-5.6-4.9-5.6-8.6c0-4.3,2-8,6.2-11.7s7.5-4.7,10.3-2.9c1.8,1.2,2,1.8,2,6.7c0,2.9-0.3,5.7-0.9,8.5 c-0.9,3.1-0.8,3.2,2.1,5.7c3.3,2.8,3.4,4.8,0.4,8.5l-1.5,1.9l-2.5-1.9c-1-0.8-2-1.4-3.2-1.8c-0.4,0-2.3,1.8-4.1,4 c-3.9,4.6-13.7,12.2-21.1,16.4c-4.1,2.3-25.3,10.8-26.9,10.8C137.3,92.4,137.9,91.7,138.7,91L138.7,91z
M190.1,46.4 c-0.3-4.5-1.8-5.8-5.2-4.6c-3.6,1.3-3.4,3.8,0.7,6.3c1.3,0.8,2.7,1.5,4.1,2C190.1,50,190.3,48.3,190.1,46.4L190.1,46.4z
M242.5,51.7 c-1.2-4.2-2.7-8.4-4.5-12.5l-2.8-6l-3.1,0.5c-2.6,0.4-3.5,0.2-5.6-1.7c-3.1-2.6-3.2-4.4-0.5-8.9c2.3-3.9,4.1-4.4,8-2 c4.7,2.8,8.5,10.4,11.2,22.1c0.5,2.1,0.6,2.2,1.1,0.8c0.3-0.9,1.7-6.3,3.1-12c1.9-7.8,3.1-11,4.8-13.2c3-3.8,6.4-4.2,9.2-1.1 s3.2,5.3,1.8,8.8l-1.2,2.9l-2.8-2.5c-3.3-2.9-3.7-3-5.4-1s-3.5,7.2-5.7,17.5c-1.8,8.4-4,14.7-5.1,14.6c-0.3,0-1.3-2.9-2.3-6.4 L242.5,51.7z
M308.7,34.8c0.5-1.5,1.1-2.9,1.8-4.3c0.1-0.1,11.4-4.4,25-9.4l39.2-14.6c15.6-5.8,18.8-6.9,18.8-6.3 c0,1.8-3.5,6.7-5.4,7.4c-1.2,0.5-11.7,4.5-23.3,8.9s-29.1,11.2-39,15.2s-18.2,7.2-18.4,7.2S307.8,37,308.7,34.8L308.7,34.8z"/>
</svg>