<svg xmlns="http://www.w3.org/2000/svg" width="433" height="319">
<path d="M432.1,0c-0.3-0.3-18.9,6.3-41.4,14.6l-40.9,15.1l-1.6,4.2c-0.9,2.3-1.6,4.4-1.6,4.5s5.9-2,13-4.9s25.8-10.2,41.4-16.2 c27.7-10.7,28.4-11,30-13.8C431.9,1.8,432.4,0.3,432.1,0L432.1,0z
M298.3,27.1c-1,0.2-6.3,13-7.8,18.7c-2.1,8.2-2.1,17.3,0,20.8 c3.2,5.3,10,2.3,12-5.2c1.6-6,1.8-7.3,1.4-7.3c-0.2,0-1,1.1-1.7,2.4c-3,5.9-7.6,5.8-9.3-0.2c-1-3.8,0.2-11,3.8-22.5 C297.8,30.3,298.6,27.3,298.3,27.1C298.3,27.1,298.3,27.1,298.3,27.1L298.3,27.1z
M375.6,30.4c-0.1,0-0.1,0.1-0.2,0.1 c-1.5,1.5-6.5,16.7-6.1,18.2c2,7.6,2.9,13,2.9,18.1c0,5.8,1.9,36.2,4.4,69.6c2.4,33.7,4.4,65,4.4,70.3c0,7.1-1.2,13.6-3,15.5 c-2.3,2.5-9.2,6.2-14,7.1l-5.7,1l-3.4-0.9c-7.6-2-12.2-9.5-11.1-18.3c0.4-3.8,0.3-4.2-1-4.2c-1,0-2.6,2-5.1,6.2 c-7,12-14.2,18-23.2,19.6c-4.6,0.8-5.4,0.7-8.4-0.9c-2.5-1.3-4.5-3.4-5.8-5.9c-2.5-4.4-2.5-4.4-1.1-13.6c0.3-1.6,0.2-3-0.2-3 s-5,4.4-10.3,9.9c-10.5,10.8-15.2,14-23.7,16.2c-11.1,2.8-23.1-0.6-26.8-7.7c-1.3-2.6-1.5-8.7-0.4-12.5c0.7-2.4,0-4.3-1.7-4.3 c-0.4,0-5.2,4.4-10.9,9.7c-11.9,11.3-16.8,14.7-25,17.4c-7.4,2.4-18.2,2.8-22,0.8c-5.2-2.8-8.5-8.3-10.4-17.9 c-1.3-6.7-2.8-27.1-2-28.4c0.4-0.7,17.4-8.6,24.5-11.4l3.4-1.3l1.6,3.6c2.1,4.8,3.6,4.3,3.9-1.4l0.2-4.4l14.1-4.4l14.2-4.3l2.7-8.1 c1.9-5.8,2.6-8.8,2.1-10.4c-1.2-4.8-17-17.4-27.4-21.7c-13.9-5.9-25.9,2.6-25.9,18.5c0,4.2,0.5,6.1,3.2,11.6 c3.6,7.4,3.5,7.3,2.3,7.3c-3.4,1.1-6.8,2.5-10.1,4c-7.1,3.1-9.4,3.8-9.9,3c-0.4-0.6-0.7-4.9-0.7-9.5c0-10.1-1.3-36.9-2.4-51.5 c-2.1-26-10.7-71.6-13.6-71.6c-1,0-2.1,3.8-3.6,12.3c-1.1,5.9-1.1,8-0.4,12.4c4.8,28.9,7.9,58.1,9.2,87.3c0.2,6.8,0.6,15.9,0.9,20.2 l0.4,7.8l-4.7,3c-2.6,1.6-6.8,4.5-9.3,6.4c-1.6,1.3-3.4,2.5-5.2,3.4c-0.3,0-1.8-2.1-3.3-4.6c-7-11.7-15.4-21.3-47.6-53.8 c-29-29.3-44.9-46.2-44.1-47c1.9,0,3.8,0.2,5.7,0.5c5.8,0.8,7.2,0.6,6.2-1.1s-30.8-24.4-32-24.4c-0.8,0-1,2.5-1,9.8v9.8l2.5,2.3 c1.4,1.3,5.9,7.2,10.1,13c11.6,16.3,19.5,25.1,51.5,57.3c31.2,31.4,31.9,32.1,38.2,40.8l4.1,5.6l-5.8,5.6 c-3.2,3.1-11.8,12-19.2,19.7c-14.7,15.5-20.2,19.8-28.7,22.4c-7.5,2.3-12,1.3-16.6-3.6c-7.3-7.9-6.3-19.5,3.9-46.9 c2.6-6.9,4.9-14,5.2-15.7l0.6-3l-1.7,1.5c-0.9,0.8-1.7,1.9-2.2,3c-0.4,1-1.1,1.8-2,2.3c-1.2,0.7-1.9,0.4-3.5-1.2s-2-2.7-2-7 c0-5,1.5-10.8,4.7-18.9c2.2-5.5,2.2-6.2-0.7-9.1c-2.2-2.2-2.3-2.6-1.6-5.4c1.3-4.7,1-13.4-0.5-14.9c-2-2-5.4-1.5-9.6,1.4 c-4.8,3.2-7.5,7.7-7.5,12.7c0,4.3,1.6,6.8,5.9,9.1c1.1,0.5,2.1,1.2,2.9,2c0,0.7-7.5,6.9-12.9,10.6c-2.8,1.9-11.9,7.6-20.3,12.6 s-14.8,9.1-14.2,9.3c1.2,0.4,17.2-5.5,23.8-8.8c8.2-4.4,15.8-9.9,22.4-16.4c2.7-2.8,5.2-5,5.7-5c0.9,0.3,1.7,0.9,2.3,1.6 c1.4,1.6,1.4,1.8-0.7,8.4c-5,16.2-4.7,25.8,1.1,27.7c0.7,0.2,0.2,2.6-2,8.2c-9.6,25.8-8.7,43.4,3,55.1c4.5,4.5,8.7,6.4,15.2,6.8 c5,0.3,6,0.1,11.4-2.6c5.2-2.6,7.2-4.3,17.3-15.1c17.1-18.2,30.5-31.8,32-32.7c1.2-0.6,1.6,0,3,4.6c1.3,4.6,2.3,9.3,3,14 c0.7,4.7,1.6,8.6,1.9,8.6c1.8,0,3.5-25.1,2.1-32.5L141,207l5.9-4.1c3.3-2.2,6.4-4.1,6.9-4.1c0.8,0,0.8,1.6,0.4,6.6 c-1.6,19.6-7.9,34.5-20,47.6c-6.5,7-12.2,11-38.3,26.6c-12.7,7.6-23,14.1-23,14.6s1.5,0.6,4.2,0.2c5.4-0.7,27.7-6.2,34.3-8.4 c12.9-4.1,24.1-12.2,32-23.2c5.3-7.1,7.6-12.5,11.2-26.7c1.7-6.6,3.1-11.6,3.1-11.1s0.6,4,1.3,7.8c2.9,16.6,8.3,23.7,20.2,26.7 c4.5,1.1,6.2,1.2,11.6,0.4c12.2-1.8,19-6.3,34.5-23.2c4.7-5.1,5.6-4.7,6.4,2.4c1.3,12.6,8.5,18.1,22.9,17.2 c5.4-0.3,7.8-0.9,11.3-2.6c8.1-4.1,18.3-13.2,22.2-19.7c1.8-3,2.4-2.9,3,0.3c2.6,13,8.6,18.9,19.2,19c9.5,0,16.7-5.6,22.6-17.8 c3-6.2,3.2-6.4,4-4.5c1.6,4.4,3.9,8.6,6.7,12.3c2.8,3.3,9.3,6.8,12.9,6.9h0.7v0.2l5.7-0.6c12.5-2,22.9-17.9,26.6-40.8 c2.1-13.2,1.6-27.4-3.6-99.5c-1.3-18.2-2.4-34.5-2.4-36.3v-3.2l4,3.7c2.2,2,4.4,3.7,4.9,3.7c1.7,0-0.1-6.6-6.8-24.4 C378.7,34.7,376.7,30.1,375.6,30.4L375.6,30.4z
M141.4,35.1c-1.5,0-11.5,3.6-62.2,22.4l-19.8,7.3l-1.6,3.8c-0.7,1.4-1.2,2.9-1.6,4.4 c0,0.4,9.4-3.1,21-7.7s30.2-11.8,41.4-16.1c19.6-7.4,20.5-7.9,22-10.6c0.9-1.6,1.3-3.1,1-3.5C141.6,35.1,141.5,35.1,141.4,35.1 L141.4,35.1z
M249.8,40.4c-0.8,0.1-1.5,0.4-2.2,0.8c-3.9,2.2-6.7,9.4-10.3,27.2c-0.5,2.6-1.3,1.2-2.7-4.8 c-2.4-10.3-8.8-18.7-13.9-18.2c-2,0.2-2.9,0.9-4.3,3.5c-2.5,4.5-2.3,6.3,0.9,8.8c2.9,2.2,5.3,2.6,6.7,1.2s4.7,4.5,7.9,14 c1.1,3.1,2.1,6.4,2.8,9.6c0,0.7,0.4,1.1,0.8,0.8c1.7-1,3.1-5.1,5.5-15.8c3.7-16.6,6.1-20,10.5-15.4c2.6,2.8,3.8,2.5,4.8-1.2 c0.7-2.8,0.7-3.7-0.6-5.8c-0.9-1.5-2.1-2.8-3.6-3.7C251.4,40.8,250.6,40.5,249.8,40.4L249.8,40.4z
M412.8,40.8 c-0.8,0-2.1,3-5.1,11.5c-2,5.8-2.1,5.9-0.7,10c1,2.9,1.7,10.1,2.5,24.2c0.6,11,1.7,27.7,2.4,37.2c6.5,92.9,7.6,113.2,6.8,124.4 c-0.4,4.8-0.7,10.4-0.7,12.4c0,3.3,0.1,3.5,1.1,2.1c1.3-2.2,2.3-4.4,3.1-6.8c6.5-17.2,7.6-31,5.3-66.1c-1.6-24.4-4.7-67.4-6.5-90.8 c-0.5-5.9-0.8-12.6-0.8-14.7v-3.9l4,3.7c5,4.6,6,4.7,5.2,0.5c-1-5.6-14.9-42.7-16.5-43.6C413,40.8,412.9,40.8,412.8,40.8L412.8,40.8 z
M192.8,72.5c-0.2,0.1-0.3,0.2-0.5,0.4c-1.6,1.5-6.6,14.5-7.8,20.5c-1.5,7.2-1.2,15.5,0.8,18.4c0.8,1.4,2.3,2.2,3.9,2.2 c3.7,0,5.1-1.2,6.9-5.4c1.9-4.5,3.3-11.2,1.7-8.6s-5,6-6,6c-1.1-0.3-2-0.9-2.7-1.8c-1.5-1.6-1.7-2.5-1.3-8.2 c0.4-4.6,1.3-9.2,2.6-13.6C192.8,74.1,193.3,72.3,192.8,72.5L192.8,72.5z
M365.9,73.4c-1.4-0.4-91.5,32.7-98.4,36.2 c-4.9,2.7-8.7,6.9-10.9,11.9c-3.4,7.4-2.1,10.7,5.3,13.3c6.8,2.3,7.2,2.2,7.2-2.3v-3.9l-3.9-1.4c-5.5-2-7.6-3.6-6.5-5 c3-3.6,16.3-9.1,67.2-28L363,80.6l1.8-3.5C365.8,75.2,366.3,73.5,365.9,73.4L365.9,73.4z
M113.4,87.8c-0.8,0.4-6.9,14.4-7.9,18.3 c-2.7,10.5-2.4,20.2,0.8,23.4c1.9,1.9,5.7,1.5,7.8-0.8c1.9-2,4.5-8.9,4.5-11.8c0-1.3-0.3-1.1-1.8,1c-1,1.4-2.1,2.7-3.5,3.7 c-1.5,1-1.9,0.9-3.6-0.4s-1.9-2.1-1.8-8.2c0.1-5.2,0.7-8.6,2.9-15.8C111.9,94.1,112.8,91,113.4,87.8 C113.5,87.8,113.5,87.8,113.4,87.8L113.4,87.8z
M344.4,129.4c-0.6,0.6-1,1.3-1.3,2.1c-2,3.8-1.4,8.8,1.9,15.5 c2.2,4.4,2.5,5.6,1.6,6.6c-1.4,1.7-5.3,1.5-7.2-0.4c-1.7-1.7-1.9-2.2-3.1-11.4c-0.4-3-1-5.9-1.9-8.8l-1.1-2.6l-1.4,2.6 c-1.3,2.4-1.3,3,0,9.7c1.3,6.9,1.3,7.1-0.2,9.8c-1.9,3.2-5.6,5.3-7.5,4.2c-3-1.9-4-5.7-3.5-14c0.4-6.4,0.3-7.9-0.6-7.9 c-3.7,0-7.5,8.1-4.3,9.3c0.9,0.3,1.2,1.7,1.2,5c0.1,7.2,1.1,12,3.1,14.1c3.7,3.9,9.4,2.1,12.3-3.8l2-3.9l1.4,2.9 c1.7,3.6,5.7,5.6,8.5,4.3c2.5-1.1,4.4-4.5,5.4-9.6c0.7-3.8,0.6-4.9-2-12.2c-1.2-3.3-2.2-6.7-3-10.1 C344.7,129.8,344.6,129.4,344.4,129.4L344.4,129.4z
M48.6,137.5c0.7-0.1,1.2,0.2,2.1,1c1.1,1.2,1.7,2.8,1.5,4.4 c0,1.7-0.3,3.2-0.7,3.4s-2.2-0.7-4-2c-3.8-2.8-4-4.6-0.6-6.2C47.4,137.9,48,137.7,48.6,137.5L48.6,137.5z
M189.2,145.7 c2.7,0,7.4,1.2,12.9,3.5c5.9,2.5,10.2,5.8,8.6,6.7c-0.4,0.3-4.3,1.8-8.5,3.3s-8,2.8-8.3,2.8c-0.7,0-7.3-13.5-7.3-15 C186.6,146.1,187.5,145.7,189.2,145.7L189.2,145.7z
M280.5,156.6c-0.8,0.9-1.4,1.9-1.9,3c-3.9,7.5-6.3,15.7-7,24.1 c-0.5,7.6,0.4,11,3.2,13.1c3.4,2.4,7,0.5,9.3-4.8c1.8-4.1,3-11.4,1.5-8.9c-1.7,3-5,6-6.5,6c-1.2-0.3-2.2-1-2.8-2 c-1.9-2.8-1.1-12.3,1.7-21.6C280.2,159.2,280.9,156.5,280.5,156.6L280.5,156.6z
M86.3,191.1c-0.8,0-5,9.7-7.1,16.1 c-2.3,7.4-2.5,19.8-0.4,23.1c1.1,1.7,2,2.2,4.2,2.2c3.7,0,6.2-2.7,7.8-8.7c1.5-5.4,1.7-7.7,0.4-5.3s-4.9,6-6,6c-0.6,0-1.7-1-2.7-2.1 c-2.9-3.6-2.1-11.7,2.5-25.7C86,193.8,86.6,191.3,86.3,191.1C86.3,191.1,86.3,191.1,86.3,191.1L86.3,191.1z
M358.4,258.1 c-3.4,0.2-5.5,2-7,5.9c-1.4,3.6-1.1,4.8,0.7,3.8c1.3-0.5,2.6-0.8,4-0.8c3.4,0,4.5,2.3,2.9,6c-1.3,3.1-7.1,10.9-10.4,13.9 c-0.9,0.7-1.6,1.6-2.1,2.6c0,0.4,1.7-0.5,3.7-1.9c10.3-7.4,17.4-21.7,13.6-27.5c-1.1-1.6-2-2-4.8-2 C358.9,258.1,358.7,258.1,358.4,258.1L358.4,258.1z
M311.4,259.9c-1.3,0.2-3,4.9-2.6,7.6c0.4,2.3,0.2,2.6-1.5,2.5 c-1.3-0.1-2.6-0.3-3.9-0.6c-1.7-0.5-2-0.9-1.8-3.5c0.1-1.6,0.1-3-0.2-3s-1.7,1.9-3.3,4.3c-3.4,5.2-5.6,6.4-9.7,5.9 c-10.4-1.5-11.4-1.5-15.4-0.2c-5.5,1.8-13,7.8-19.9,15.8c-8.1,9.4-11.6,12.6-19.8,18.2c-3.9,2.7-6.8,4.9-6.3,4.9 c1.8,0,10.1-3.3,12.5-4.9c1.4-1,6.9-6,12.2-11.1c14.2-13.7,18.5-15.5,33.2-14c5,0.5,5.3,0.5,9.5-2.3c4-2.7,4.5-2.8,7.2-2 c4.6,1.4,7.4,0.7,9-2.1c2.9-4.9,3.4-14.5,0.9-15.3C311.6,259.8,311.5,259.8,311.4,259.9L311.4,259.9z
M214.7,262.1 c-1.4-0.1-2.9,0.2-4.1,0.8c-1.7,0.9-4.6,6.5-4.7,8.9c0,1.2,0.2,1.2,2.2,0.2c2.8-1.5,4.6-1.5,5.8,0c2.5,3,0.1,8-8.5,17.8 c-5.4,6.2-2.6,5.1,4.1-1.6c9.8-9.8,13.4-20.3,8.7-25C217.1,262.5,215.9,262.1,214.7,262.1L214.7,262.1z
M164,262.1 c-2.1,0.1-4.3,1.4-6,3.9c-0.8,1.3-1.9,2.5-3.3,3.3c-0.8,0.3-3,3.5-4.9,7.1c-4.1,7.5-9.3,12.4-20.4,19c-6.7,4-26.8,13.5-39.3,18.6 c-4,1.6-8,3.4-8.8,3.9c-2.2,1.4,2.4,0.5,20.1-3.7c16.3-3.9,20.8-5.8,32.9-14c7.6-5.3,12.4-10.5,15.6-17.2c1.4-3,2.7-5.6,2.7-5.7 c1.4,0.7,2.8,1.7,4,2.7c4.8,3.7,8.8,5.4,11.1,4.8c4.5-1.1,5.8-14.2,2.1-19.5C168.6,263.3,166.4,262.1,164,262.1L164,262.1z
M162.9,270.1c0.2,0,0.5,0,0.7,0c1.6,0.2,5.5,4.7,5.5,6.4c0,1.3-2.8,0.6-6.2-1.4c-1.9-1.1-3.4-2.3-3.4-2.7 C159.5,271.3,161.2,270.2,162.9,270.1L162.9,270.1z"/>
</svg>