<svg xmlns="http://www.w3.org/2000/svg" width="385" height="348">
<path d="M170.6,346c-8.1-2.3-15.6-8.7-19.7-16.8c-2.1-4.2-3.8-11.8-4.4-19.4l-0.6-7.4l-4.8,3.2c-9.6,6.5-17,9.6-30,12.8 c-15.6,3.8-21.6,5-22.1,4.5c-0.2-0.2,3.5-2,8.3-4c23.8-10,41.7-19,47.8-24c2-1.6,2.6-3,3.8-9.4c1.6-7.8,5.5-20.1,7.7-24.3 c2.1-4,2-0.5-0.3,8.5c-1.2,4.6-2.6,10.7-3.1,13.7c-1.3,6.9-0.3,6.3,5-3.1c2.4-4.4,4.2-6.7,5.1-6.7c0.9-0.1,1.6-0.7,1.9-1.5 c0.8-2.6,4.5-5.7,6.8-5.7c4.8,0,8.2,4.8,8.3,11.9c0.1,5.9-2.1,10.8-5.2,11.1c-2.5,0.3-5.4-1.1-10.5-5l-3.7-2.8l-2.4,5.1 c-1.4,2.9-3.1,5.7-5,8.4c-2.6,3.2-2.6,3.3-1.7,7.9c2,10.9,7.6,18.2,16.6,21.7c3.9,1.5,6.3,1.9,13.2,1.9c7.4,0,9.3-0.3,16-2.6 c17.4-6,37.8-19.7,56.1-37.7c11-10.8,13.1-14,12.4-18.5s-0.8-4.6-4.3-3.8c-5.4,1.3-22,1-26.9-0.4c-9.1-2.6-12.6-8.9-11-19.8 c2.4-16.9,17-29.9,28.3-25.2c5.7,2.4,14,11.7,18.3,20.8c1,2.1,2.3,3.8,2.8,3.8c0.7,0,21.8-10,22.5-10.7c0.1-0.1-0.7-5-1.8-10.9 c-5.3-28.7-10.3-84.4-11.5-128.4c-0.6-20.6-1-26.6-2.1-31c-1.7-6.2-1.3-8.5,2.9-17.8c1.9-4.2,2.7-5.3,3.2-4.4 c1.1,1.8,10.1,24.7,13.2,33.7c4.2,12.4,3.6,14.6-2.6,8.6c-1.9-1.8-3.6-3.1-3.9-2.8c-1.1,1.1,3.4,78.9,6.1,106.2 c1.6,16.2,4,31.1,6,38.1l1.2,4.1l6.5-1.9c8.5-2.4,17.1-2.6,21.6-0.3c6.4,3.3,9.8,11.4,9.8,24.2c0,8.2-0.1,8.8-2.7,14 c-2.2,4.4-3.4,5.7-6.3,7.3c-6.8,3.6-15.9,1.1-24.1-6.8c-2.9-2.8-5.5-5.9-7.7-9.3c-2-3.2-3.3-4.6-4.1-4.3c-3.1,1-24.5,10.6-24.9,11.2 c-0.6,1.8-0.9,3.6-1,5.4c-0.6,5.9-5.2,17.8-9,23.7c-3.7,4.8-7.6,9.4-11.9,13.7c-19.2,20-38.8,33.9-56.1,39.9 C189.2,347,176.7,347.7,170.6,346L170.6,346z M176.7,280.4c0-0.6-1-2.4-2.3-3.8c-2.1-2.3-2.6-2.5-4.5-1.8c-3.3,1.2-3.1,2.2,0.6,4.5 S176.7,282.1,176.7,280.4L176.7,280.4z M333.6,251c0.9-1.4-0.9-3.9-4.2-5.8c-2.1-1.2-4-1.6-8.2-1.5c-3,0.1-5.7,0.4-5.9,0.6 c-1,1,5.1,6.2,8.6,7.3C327.9,252.8,332.7,252.6,333.6,251L333.6,251z M253.4,245.9l2.5-0.5l-2.1-2.8c-4.2-5.6-11.6-8.1-17.4-5.9 c-4,1.5-3.7,6.6,0.6,8.4C239.6,246.3,249.1,246.7,253.4,245.9z M240.7,337.4c0-0.2,3.3-1.8,7.4-3.5s14.4-6.3,23-10.3 c24.1-11.3,32.8-17.6,38.5-28.5c3.1-5.8,3.9-6.8,5.1-6.2c0.2,0.1,1.2-1.1,2.1-2.6c3.4-5.7,6.8-6.9,10.7-3.9c4.1,3.3,5.6,11,3.3,17.4 c-2.1,5.8-6.2,5.6-14.5-0.7c-2.8-2.1-4.4-2.9-4.4-2.2c0,2.4-5.1,10.7-9,14.8c-5,5.1-13.1,10.8-21.8,15.1c-4.6,2.3-10.2,4.1-20,6.5 C247,336.9,240.8,338,240.7,337.4L240.7,337.4z M328.1,294.7c-0.5-1.4-1.4-2.7-2.5-3.8c-1.9-1.9-2.5-2.1-4.3-1.4 c-3,1.1-2.7,2.1,1.6,4.9C327,297,328.5,297.1,328.1,294.7L328.1,294.7z M47.9,323c-3.8-2.3-4.8-3.4-7.3-8.6 c-3.4-6.8-4.6-13-4.6-23.7c0-9,1.4-16.6,5.1-27.2c3.4-9.7,11.4-26.7,12.6-26.7s0.3,3.5-5,18.8c-9.2,26.2-10,35.4-4.2,43.3 c2.7,3.7,9.3,6.7,14.5,6.7c6.3,0,10.8-1.3,19.8-5.6c13.2-6.4,27.2-17.5,52.8-41.9c22.9-21.9,39.3-36.8,49.6-45.2 c19.2-15.6,28-21,44.8-27.6c5.3-2.1,9.8-3.9,9.9-4.1s-1.1-3.2-2.8-6.9c-3.7-7.8-4.3-12.9-2.5-19.3c2.4-8.4,8-12.6,16.8-12.6 c4.4,0,6.1,0.5,11.6,3.2c12.8,6.4,24.1,16.6,24.1,21.7c-0.6,3.1-1.4,6.1-2.4,9l-2.4,7.6l-5.4,1.8c-3,1-9.4,3.2-14.3,4.9l-9,3.2 l-0.2,4.5c-0.3,5.7-1.8,6.3-3.9,1.5l-1.6-3.7l-2.6,1c-30.5,12.6-31.1,12.9-44.8,23c-12.4,9.3-21.2,17.1-47,42.2 c-41.1,40-53,49.8-69.2,57.8c-8.1,4-14.3,5.6-22,5.6C52.9,325.6,51.8,325.3,47.9,323L47.9,323z M260.8,171.6c2.3-1.4-5.1-6-14.4-9.1 c-6-2-8.7-2.1-9.4-0.5c-0.4,1.1,3.2,9.9,5.7,13.8l1.1,1.8l8-2.7C256.3,173.3,260.3,171.8,260.8,171.6L260.8,171.6z M163.1,311.4 c0-1.9,2.9-8.2,4-8.6c1.8-0.7,40.5-15.1,62.3-23.1c10.3-3.8,18.9-6.7,19.2-6.4s-0.2,1.8-1.1,3.4c-1.5,2.7-2.4,3.2-14,7.7 c-14.6,5.6-63.1,24.6-67.4,26.4C164.5,311.4,163.2,311.7,163.1,311.4L163.1,311.4z M286.3,299.5c0.7-0.9,2.8-3.4,4.7-5.6 c7.3-8.3,9.8-14,6.9-16.4c-1.2-1-3.3-0.8-6.2,0.4c-3.1,1.3-0.7-6.3,2.8-8.7c2.3-1.6,5.3-1.6,7.6,0c1.5,1,1.8,2,1.8,5.7 c0,5.2-3,11.6-8.2,17.5C292.5,296.1,284.1,302.4,286.3,299.5L286.3,299.5z M193,269.1c8-9.4,9.8-14.3,6-16.3c-1-0.6-2.3-0.4-4.3,0.4 c-2.6,1.1-2.8,1.1-2.8-0.2c0.3-1.6,0.8-3.2,1.5-4.6c2.6-5.7,9.3-6.8,11.9-1.9c3,5.7-3.3,18.7-12.6,26.1 C187.2,276.8,187.3,275.7,193,269.1L193,269.1z M353.2,261.4c1-14.4,0.5-31.2-2.1-67c-2-28-5.7-83.2-6.7-100.8 c-0.8-13.5-1.5-20.9-2.5-23.7c-1.3-4-1.3-4.1,0.8-10.4c2.5-7.4,4.1-10.8,5.1-10.8c0.8,0,2.8,4.9,10.5,25.2 c5.6,14.9,7.3,21.2,5.6,21.2c-0.5,0-2.7-1.7-4.9-3.7l-4-3.7v3.5c0,1.9,1.3,20.8,2.8,41.9c6,82.8,6.3,88.6,5.3,100.8 c-0.5,6.3-1.5,12.6-2.8,18.8c-1.9,7.3-6.3,18.4-7.3,18.4C352.7,271.2,352.8,266.8,353.2,261.4L353.2,261.4z M52.8,235.2 c-3.4-3.4-3.2-11.6,0.8-24.8l2.4-8.3l-2-2l-2-2l-4.8,5.2c-5.6,5.9-16.5,14-23.6,17.4s-22.1,9-23.5,8.7c-0.6-0.1,5.5-4.2,13.6-9 c18-10.7,24.7-15.1,30.1-20l4.3-3.8l-3.7-2.5c-4.7-3.1-6.2-6.4-5.2-11.1c0.9-4,2.7-6.7,7.2-10c4.1-3.1,9.1-3.6,10.4-1 c1.1,2,1,9.6-0.1,14.1c-0.8,3.4-0.8,3.6,1.2,5.2c2.8,2.2,2.7,4.6-0.7,14.4c-3.3,9.6-3.8,17.6-1.3,20.7c2.1,2.6,5.1,1.6,7.7-2.6 l2.1-3.4l-0.5,2.8C63.2,234.4,57.5,240,52.8,235.2L52.8,235.2z M52.7,183.9c-0.1-1.4-0.6-2.8-1.5-3.9c-1.3-1.7-1.7-1.8-3.9-0.8 c-4.3,1.8-3.7,3.7,2.2,7.4C51.9,187.9,52.7,187.2,52.7,183.9L52.7,183.9z M98.7,226.7c-4-2.9-7.7-5.5-8.2-5.8 c-0.8-0.4-0.1-2.5,2.7-8.3c2-4.3,4-7.8,4.5-7.8c1.1,0,13.8,8.6,15.6,10.5c1.3,1.4,1.2,1.9-2.4,9.1c-2.1,4.2-4,7.6-4.3,7.6 C103.8,230.3,101.2,228.6,98.7,226.7L98.7,226.7z M151.2,177.6c-1-1.1-1.7-2.3-2.1-3.7c-1-4,0.3-16.5,2.3-22.3 c2.4-7,6.1-15.2,6.5-14.7c0.2,0.2-0.9,4.6-2.5,9.9c-3.4,11.4-3.9,19.3-1.5,21.9c0.7,0.9,1.7,1.4,2.8,1.6c1.4,0,4.7-3.1,6.4-6 c0.8-1.4,0.9-1.2,0.4,1.2C161.6,176.7,155.9,182.3,151.2,177.6L151.2,177.6z M110.1,164c-0.6-9.6-1.4-15.2-5.4-36.4 c-2.6-14-1.1-18.9,7.1-22.9l4.3-2.1l-1.9-1.3c-2.6-1.8-2.9-1.7-6.1,1.7l-2.8,3l0.6-4c0.6-4.6,3.2-10.8,4.4-10.8s1-2.7-1.2-9 c-2.8-7.9-6.5-15-7.7-15c-0.8,0.1-1.5,0.3-2.2,0.8c-2,1.3-8-2.9-8-5.7c0-2.5,4.2-8.7,6-8.7c6,0,13,10.4,15.2,22.6 c0.3,1.7,0.7,2.9,0.9,2.7s1.3-4.4,2.4-9.4c3.4-15.2,6.4-20.2,11.6-19.8s8,8.3,4.6,12.3c-0.8,1-1.4,0.7-3.7-1.3 c-3.2-2.8-3.6-2.9-5.3-1s-3.3,6.9-5.3,16.4c-0.9,4.3-2.2,9.2-2.8,10.9l-1.1,3.1l2.6,0.9c3.2,1.2,10.4,7.5,11.2,9.8 c0.3,0.9-0.1,3.2-0.8,5.1c-1.3,3.5-1.3,3.5-9.2,5.9c-4.3,1.3-8.7,3.1-9.8,4l-2,1.6l1.8,6.2c3.1,10.7,4.7,21.8,4.7,33 c0,5.9-0.3,12.2-0.8,14C110.8,173.6,110.6,172.8,110.1,164L110.1,164z M189.8,167.6c0.3-1,0.5-2,0.5-3c0-0.9,1.4-2.9,3-4.5 c1.9-1.8,2.6-3,2-3.2c-1.2-0.6-2.4-1.4-3.4-2.3c-3.8-3.2-3-7.8,2.7-14.8c7.2-8.9,17-9.6,15.4-1.1c-0.3,1.5-0.8,2.8-1.6,4.1 c-1.1,1.5-1.2,1.5-2.7-0.4c-1.8-2.3-4.5-1.9-8,1.1l-2.2,1.9l2.1,2.1c1.4,1.4,3.3,2.3,5.2,2.5c2.7,0.4,4-0.1,9.4-3.4 c3.4-2.1,6.4-3.6,6.7-3.3s0.1,1.9-0.4,3.6c-0.8,2.8-2.2,3.9-13.9,11.8C187.9,170.1,189.2,169.3,189.8,167.6L189.8,167.6z M314.3,159.8c-2.1-3.5-2.1-12.6,0-21.1c1.5-6,7.1-19.1,7.8-18.4c0.2,0.2-0.8,3.9-2.1,8.2c-3.6,11.8-4.4,16.9-3.3,20.9 c1,3.5,3,5.3,5.3,4.4c0.7-0.3,2.4-2.2,3.7-4.2l2.4-3.7l-0.6,3.2c-1.6,8.8-4.5,13.2-8.9,13.2C316.4,162.4,315.6,161.9,314.3,159.8 L314.3,159.8z M55.6,130.8c-2-2-2.3-4.6-1.9-13.4c0.1-4.2,0.8-8.5,2-12.5c2.2-6,6.5-15.5,6.9-15.1c0.2,0.2-1,4.5-2.5,9.5 c-3.6,11.5-4.1,20.5-1.3,23.2c2.4,2.4,4.4,1.5,7.5-3.1c2.2-3.3,2.4-3.5,2-1.4c-2.3,10.2-4.3,13.4-8.5,13.8 C58.3,132.1,56.8,131.7,55.6,130.8L55.6,130.8z M203.5,113.7c0.2-0.4,6.1-4.1,13-8.1c14-8.3,26.8-16.8,32.1-21.4l3.5-3.1l-3.6-2.3 c-4.9-3.1-6.5-6-5.9-10.3c1-4.9,4-9.2,8.2-11.8c4.4-2.8,6.8-3,9-0.8c1.9,1.9,2.1,7,0.7,13.7l-0.9,4.2l3.1,2.6c2.9,2.5,3,2.7,2,4.9 c-0.7,1.4-1.4,2.8-2.2,4.1l-1.2,1.8l-2.4-2c-0.9-0.8-1.9-1.5-3-2c-0.3,0-3.1,2.6-6.3,5.8c-9.4,9.6-19.9,15.9-36.8,22.1 c-9.2,3.4-10.3,3.7-9.6,2.5L203.5,113.7z M256.4,70c0.8-3.3-0.7-6.4-3.2-6.7c-2.1-0.2-5.3,1.7-5.3,3.2c0,0.8,6.3,5.5,7.3,5.5 C255.6,72,256.1,71.1,256.4,70L256.4,70z M173.6,101.1c1-1.2,6.7-4.5,24.8-14.3c3.4-1.8,6.7-3.8,9.9-6c1.5-1.4,1.5-1.5-0.2-2.4 c-3-1.6-16-2.6-26.7-2.1c-8.1,0.4-10.2,0.3-10.2-0.5c0-0.6,1.7-3.9,3.8-7.4c3.1-5.2,4.5-6.8,7.4-8.2c3.5-1.8,4.1-1.8,20-1.6 c14.7,0.3,16.8,0.5,20.2,2c3.2,1.5,3.8,2,3.8,4c0,5.5-15.9,24.9-23.4,28.6c-3.3,1.6-28,9.2-29.9,9.2 C172.7,102.4,173,101.8,173.6,101.1L173.6,101.1z M299.1,58.7c0.5-1.5,1-2.9,1.6-4.3l1.6-3.8l40.3-14.9 c22.2-8.2,40.7-14.9,41.2-14.9c1.3,0,1,1.7-0.5,4.3c-1.2,1.9-4.7,3.5-25,11.3c-13,5-31.4,12.1-41,15.9 C299.5,59.4,299.1,59.5,299.1,58.7L299.1,58.7z M157.7,45c-2.9-0.5-4.2-4.1-4.2-11.6c0.1-8.6,2.2-17.1,6-24.8c1.6-3.4,3.1-6.1,3.2-6 c-0.7,3.3-1.6,6.6-2.6,9.9c-3.5,11.9-4,20.1-1.3,22.9c2.3,2.3,4.6,1.5,7.2-2.5c0.7-1.1,1.4-2.2,2.3-3.1c0.3,0-1.7,8.2-2.6,10.4 C164.3,43.6,161.2,45.5,157.7,45L157.7,45z M249.7,42.2c1.2-1,8.5-5.3,16.2-9.4c16-8.6,18.8-10.6,17.4-12c-1.7-1.7-7.5-2.3-22.9-2.3 h-15.1l3.1-5.7c3.9-7.3,7.1-10.7,11.1-11.8c4-1.1,22.4-1.1,30.5,0c11.9,1.6,13.6,4.7,7.4,13.7c-7.9,11.7-15.3,19-21.9,21.6 c-4.3,1.7-21.1,6.6-25.2,7.4l-2.8,0.5L249.7,42.2z"/>
</svg>