<svg xmlns="http://www.w3.org/2000/svg" width="511" height="362">
<path d="M510.2,0c-0.2-0.2-12.7,4.2-27.9,9.8s-33.6,12.4-41,15.1c-14.4,5.3-14.7,5.6-16.5,11.8c-0.5,1.7-0.4,2.2,0.3,2 c8.7-3.6,58.8-23.2,68.8-27c13-4.9,13.5-5.2,15-8.2C509.9,1.8,510.4,0.2,510.2,0L510.2,0z
M416.3,21.5c-0.7,0.2-1.7,2.2-3.7,7 c-3.3,8-3.4,9.4-1.8,16.8c0.8,3.4,1.5,14.5,2,31.6c1.5,45.7,6.4,99.8,11.6,127.6c1,5.5,1.8,10.1,1.8,10.1s-4.7,2.2-10.3,5l-10.8,5.2 l0,0c-5.5,1.6-25.8,6.3-26.2,5.9s0.3-2,1.1-4c4.9-11.1,6-26.8,3.2-44.7c-1-6.4-2.2-14.5-2.7-18c-1.2-8.7-2.4-8.5-6.3,1.2 c-2.6,6.6-11.9,35.5-16.4,51.2c-1.5,5.2-1.5,5.2-5.5,6.6c-7.5,2.2-15.3,3.5-23.1,3.9c-7,0-11.6-1.8-15.8-6.4 c-6.7-7.1-10.7-17.8-14.5-38c-4-21.3-9.6-40.2-12.8-43.6c-2-2-4.5,5.3-5,13.9c-0.3,6.5,0,8.4,2.9,19.6c4.5,17,6.5,27.3,6.5,33 c0,4.3-0.2,5-2.6,7.4c-4,4-10.9,6.3-19,6.3c-7,0.1-8.5-0.4-16.2-5c-3.2-1.9-3.5-1.8-4,2.2c-0.2,1.8-0.6,1.9-9.1,2.2 c-15,0.6-26.1,4.4-41,14.2c-15.4,10.1-31.8,24.1-66.1,56.8c-29.4,28-43,38.9-56.1,45.5c-12.9,6.4-22.2,7.5-29.9,3.6 c-3.7-2.3-6.5-5.7-8.1-9.7c-1.5-4.4-0.5-14.6,2.3-23.5c2.3-7.4,9.9-29.8,10.3-30.4c0.1-0.1,0.9,0.5,1.8,1.4c3.1,3.1,7.2,1.8,9.5-3 c1.7-3.4,3.6-10.6,3-11.2c-0.2-0.2-0.4,0-0.4,0.5c0,1.5-4.9,6.6-6.3,6.6c-1.1-0.2-2.2-0.8-2.9-1.7c-2.5-2.8-1.9-10.6,1.6-20.9 s3.6-12,0.8-14.2c-2.1-1.6-2.1-1.8-1.2-5.7c1.3-5.6,1.2-11.2-0.3-13.4s-4.9-2.4-8.3-0.6c-4.8,2.5-9.7,9.8-9.7,14.7 c0,2.3,2.7,6,6,8.1l3.5,2.2l-2.5,2.4c-5.4,5.1-11.6,9.3-28.6,19.6C7.1,265.7-0.5,270.6,0,270.8c1.1,0.4,17.4-5.8,23.6-8.9 c8.3-4.2,15.9-9.7,22.6-16.3l5.8-5.9l4.2,3.6l-1.7,5.1c-2.5,7.3-4.1,14.3-4.1,18.7c0,3-1.1,6-5.2,14.4c-9,18.5-12.5,30.9-12.5,44 c0,20.6,5.3,31.6,16.8,35.1c5.9,1.8,18-0.5,27.6-5.2c14.8-7.3,28-18.1,62.5-51.5c37.5-36.3,46.6-44.2,63.1-55.1 c9.3-6.1,16.5-9,26.3-10.8c5.9-1,15.2-0.6,16.9,0.8c0.6,0.4,1.2,2.4,1.5,4.4c0.7,5.4,4.2,11.4,9.6,16.9c7.8,7.8,17.2,11.6,20.4,8.2 c3.5-3.8,4.3-16.2,1.6-25.1c-1.3-4.2-1.4-5.6-0.7-6.5c0.5-0.6,1.1-1,1.9-1.1c3.6,0,11-10.8,13.3-19.4c0.6-2.1,1.3-3.8,1.5-3.8 s1,2,1.5,4.5c1.5,7.1,7,17.6,11.7,22.3c7,7,12.3,8.5,25.9,7.5c5.6-0.3,11.1-1.2,16.4-2.8c1.1-0.3,1.4,0.1,1.4,1.6s0.4,2.1,1.5,2.1 c2.2,0,2.9,1.3,4.4,8.8c3,14.8,13,29,24.6,34.8c5,2.5,6.4,2.8,11.6,2.8c7.1,0,10.4-1.3,14.1-5.8c3.5-4.1,5.2-10.5,5.2-19.6 c0-6.4-0.2-7.8-2.4-12.1c-2.1-4.4-5.4-8.1-9.6-10.7l-2-1.3l2.6-0.6l3.8-1.2v-0.1c0.5-0.1,5.7-2.4,12-5.1c6.5-2.9,12.1-5.2,12.4-5.2 s1.7,1.9,3,4.2c2.7,4.7,11.1,13.2,15.1,15.3c1.9,0.9,3.9,1.6,6,2c4.8,1,6.5,1,9.1,0c3.6-1.4,7.3-5.6,9.1-10.3 c2.4-6.3,2.4-18.7,0-24.8c-4.2-11-7.6-13.2-19.2-12.6c-4.2,0.2-8.3,0.8-12.3,2l-4.6,1.6l-0.7-1.8c-1.9-5.1-5.3-26.8-7.2-46.8 c-2.4-25-6.3-98.7-5.3-99.8c0.3-0.3,2.1,1,4,2.8c6.5,6.4,6.9,3.8,1.9-10.4c-2.8-7.8-8.4-22.2-12.2-31.6 C416.8,21.7,416.5,21.4,416.3,21.5L416.3,21.5z
M474.3,27.2c-1-0.1-2.5,3.2-5,10.5c-2.1,6.4-2.2,6.5-0.9,10.8 c0.8,2.7,1.6,9.8,2.1,18.8c0.9,16.5,2.9,45.5,6.5,96.4c2,28.4,2.6,40.7,2.6,60.9c0,13.9,0.3,25.1,0.6,24.8 c1.2-1.2,5.6-13.6,7.1-19.7c3.1-12.8,3.5-25.4,1.6-53.3c-1.8-27.4-5.2-74.5-6.5-90.3c-0.4-5.4-0.8-12.2-0.8-15v-5l3.6,3.6 c4.4,4.4,6.4,4.7,5.6,1c-1.2-6.1-15-42.6-16.4-43.4C474.4,27.3,474.3,27.3,474.3,27.2L474.3,27.2z
M381.6,28.5 c-1.6,0-3.2,0.4-4.6,1.1c-3.1,1.6-8,7.2-8.5,9.8c-0.3,1.2-0.6,2.9-0.8,3.8c-0.6,2.8,2,6.8,5.9,9l3.6,2.1l-4.3,3.9 c-5.1,4.7-15.4,11.4-30.4,20.2c-5.9,3.5-11.6,7-12.7,7.8c-2.8,2.1-1.2,1.8,8.8-1.8c16.4-5.9,29.7-14.1,38.1-23.5l4.2-4.7l2.9,2.2 c1.6,1.2,3,2.1,3.1,1.9c1.5-2,3.7-6.3,3.7-7.3c0-0.7-1.3-2.2-2.9-3.5c-2.8-2.2-2.9-2.4-2-5.5c1.1-4,1.1-12,0-14 C385,29.1,383.4,28.5,381.6,28.5L381.6,28.5z
M378,36.6c2.5,0.1,4,2.4,3.6,6.2c-0.3,2.7-1.4,2.9-4.9,0.5c-3.3-2.2-3.9-4.7-1.5-6 C376.1,36.9,377,36.6,378,36.6L378,36.6z
M196.4,47.7c-0.7,0-4.6,8.7-6.8,15.2c-3.9,11.7-4.1,23-0.2,26.8c3.5,3.5,8.8-0.2,11.1-7.8 c1.8-6.1,1.5-6.9-1.2-3.2c-2.9,4-5.6,4.4-7.7,1.3c-1.9-3-1.1-11.6,2.3-23C194.9,54,195.7,50.9,196.4,47.7L196.4,47.7z
M348.7,51.7 c-0.1-0.4-27.4,9.6-60.6,22.1l-87.4,32.9l-27,10.2l-1.6,4.2c-0.9,2.3-1.6,4.4-1.6,4.6s1.7-0.3,3.8-1.2 c41.5-16.6,107.8-42.3,147.8-57.3c23.8-8.9,24-9,25.5-12C348.3,53.7,348.9,52.1,348.7,51.7L348.7,51.7z
M140.9,94.3 c-2.5,0-5.1,2.3-7,6.4c-1.4,3-3.9,12.6-5.5,20.5c-0.7,3.5-1.4,2.5-2.7-3.5c-2-9.4-7.9-17.9-13.4-19.3c-2.3-0.6-3.2,0.2-5.9,5.3 c-1.8,3.5-0.9,5.9,3.1,8.2c2.2,1.3,3,1.4,4.2,0.6c0.7-0.5,1.5-0.7,2.3-0.5c1.3,0.8,5.2,9.2,7.5,16.1l2.2,6.5l-2,2.1 c-2,2.2-3.7,7.5-3.7,11.4v2.2l2.1-2.6c2.2-2.8,4.5-3.3,7-1.4c1.5,1.1,1.4,1.2-0.6,2c-0.9,0.4-1.9,0.7-2.8,0.8 c-1.2,0.5-2.3,1.2-3.3,2.1c-5.1,4.3-5.9,9.9-3.1,23.1c3.1,14.9,4.8,27.1,4.8,34.3c0,4,0.3,7.5,0.6,7.9c1.1,1.1,1.6-3.6,1.7-14.4 c0-11.6-1.5-23.1-4.7-34.2c-1.5-5.1-1.5-5.7-0.3-7c1.4-1.6,7.3-3.9,13.6-5.4c3.9-0.9,4.2-1.2,5.8-4.9c1.5-3.5,1.6-4.1,0.6-6.1 c-1.4-2.7-6.7-7.1-10.5-8.6l-2.8-1.1l1.1-3.1c1-3.2,1.8-6.5,2.4-9.8c2.4-12.4,4.8-18.3,7.4-18.3c0.7,0,2.4,1,3.6,2.2 c2.2,2.1,2.3,2.2,3.4,0.7c1.9-2.5,1.4-7.2-0.9-10C144.1,95.2,142.5,94.4,140.9,94.3L140.9,94.3z
M380.9,102.1 c-17.5,0-18.4,0.4-24.2,10c-2.1,3.5-3.9,6.8-3.9,7.4c0,0.8,2.6,0.9,11,0.5c11.9-0.5,24.6,0.6,26.4,2.4c1.5,1.5,0.1,2.5-10.2,8.2 c-18.4,10.1-23.8,13.2-24.7,14.3s-0.5,1,2.1,0.4c7.7-1.7,23.4-6.6,27.1-8.4c8-3.9,23.5-22.7,23.5-28.5 C408.1,103.7,401.4,102.1,380.9,102.1L380.9,102.1z
M450.1,107.1c-0.6,0.2-4.5,8.7-6.7,14.6c-1.8,4.8-2.1,7-2.1,14.9s0.2,9.5,1.5,11 c2.3,2.3,6,2.2,8.3-0.1c0,0,0,0,0.1-0.1c1.9-2,3.6-6.4,4.5-11.4l0.6-3.2l-2.4,3.7c-1.3,2-3,3.9-3.7,4.2c-3.7,1.4-6.6-4.1-5.7-10.8 c0.8-4.5,1.9-8.9,3.2-13.3C448.7,113.6,449.5,110.4,450.1,107.1C450.2,107.2,450.2,107.2,450.1,107.1L450.1,107.1z
M238.7,127.8 c-11.3,0.1-12.7,1.7-17.2,9.4c-2.1,3.4-3.9,6.8-4.2,7.4c-0.4,1,1.9,1.2,15.4,1.2c16.8,0,22.9,0.9,22.4,3.3 c-0.1,0.7-5.1,3.9-11.1,7.2c-18.3,10.2-21.9,12.2-24,13.9c-1.7,1.4-1.8,1.6-0.4,1.2c0.9-0.2,3.9-1,6.8-1.7s9.7-2.8,15.2-4.6 c9.8-3.2,10-3.4,15.6-9c6-6,15.6-19.6,15.6-22.1c0-4.5-5-5.8-24.6-6.2C244.5,127.8,241.3,127.8,238.7,127.8L238.7,127.8z
M77.3,135.1c-0.3,0.1-1.5,2.2-2.8,4.9c-7.4,15.4-9.3,31.2-4.4,36.2c2.1,2.1,4.8,2.4,6.9,0.9s4.6-7.2,5.2-11.1l0.5-3.5l-1.6,2.4 c-2.2,3.4-3.8,4.6-5.9,4.2c-5.3-0.8-5-11.9,0.9-29C77,137.6,77.5,135.3,77.3,135.1C77.4,135.1,77.4,135.1,77.3,135.1L77.3,135.1z
M332.8,144.6c-1.6,0-3.1,0.6-4.2,1.6c-1.9,1.5-2.1,2.2-2.1,5.8c0,2.9-0.4,5.7-1.2,8.5c-0.7,2.2-0.9,4.4-0.8,6.6 c0.5,2.3,4.4,5.3,6.9,5.4c4.6,0,0.7,4.8-10.3,12.5c-8,5.6-10.6,8.9-11.2,14.2c-0.3,3-0.1,3.6,1.8,5.1c6,4.7,29.9-0.7,39.9-9l2.3-1.9 l-9.9,2.4c-15.5,3.7-32.1,4-30.9,0.5c0.2-0.6,2.9-2.4,6.1-4.2c7.6-4.2,11.4-7.5,15.4-13.3l3.2-4.8l3.8,0.6c7.5,1.2,9.1,0.9,10.8-2 c2.4-4.1,3-8.1,1.8-11.1c-1.8-4.3-5.2-8.2-10.3-11.8S335.4,144.6,332.8,144.6L332.8,144.6z
M182.1,151.1c-0.4,0-1.6,2.2-2.8,4.9 c-6.7,14.9-8.5,30.5-4,35c2,1.7,4.8,2,7.1,0.8c1.7-0.9,4.5-7,5.3-11.6l0.6-3.2l-1.9,2.7c-1,1.5-2.2,2.8-3.6,3.9 c-1.6,1.1-1.9,1-3.8-0.9c-1.7-1.7-2.1-2.8-2.1-6.6c0-4.7,1.3-10.6,4.1-19.4C181.9,154,182.4,151.5,182.1,151.1 C182.2,151.2,182.2,151.2,182.1,151.1L182.1,151.1z
M333.9,156.6c1,0,1.9,0.6,2.2,1.6c0.6,1.6,0.8,3.3,0.6,5l-0.2,3.4l-3.3-0.6 c-1.7-0.3-3.3-1-4.6-2.1c-1.3-1.4-1.2-1.6,1.2-4.4C331.3,157.6,332.7,156.6,333.9,156.6L333.9,156.6z
M341.8,158.6 c1.2-0.4,8.7,6.9,8.7,8.6c0,1.4-1.8,1.6-7.2,0.6c-2.8-0.5-2.8-0.5-2.5-4.5C340.9,161.2,341.3,159.1,341.8,158.6 C341.7,158.7,341.7,158.6,341.8,158.6L341.8,158.6z
M374.2,181.8l2.5,7.6c4.5,13.8,4.4,16.5-0.9,22.1c-2.6,2.5-5.5,4.7-8.8,6.3 l-5.4,2.8v-2c0-2.2,7.8-26,10.6-32.6L374.2,181.8z
M48.8,219.9c0.1,0,0.2,0,0.3,0c2.1,0.3,4,4.1,3.3,6.7s-2,2.4-5.7-0.9l-3.2-2.8 l2-1.6C46.5,220.5,47.7,220,48.8,219.9z
M451.4,225.6c2.3-0.1,4.6,0.2,6.8,0.9c4.3,1.6,7.2,4.9,5.9,6.6c-1,1.2-8.1,1.4-11,0.2 s-7.4-4.8-7.4-6S448.3,225.6,451.4,225.6L451.4,225.6z
M260.4,237.6c0.6-0.1,1.6,0.4,3.2,1.4c4.4,2.7,10,10.1,10,13.2 c0,0.2-0.7,0.4-1.6,0.4c-2.5,0-10.2-7.8-11.5-11.6C259.8,238.8,259.7,237.7,260.4,237.6z
M95.2,244.6c-1.7,0-8.5,14.1-7.3,15.3 c0.5,0.5,4,3.1,7.9,5.9s7.5,5.1,7.9,5.1c1,0,7.6-12.3,7.6-14.3c-0.2-1.2-0.9-2.2-1.8-3C106.4,250.8,96.6,244.6,95.2,244.6 L95.2,244.6z
M232,252.6c-1.7,0.1-3.2,0.8-4.3,2.1c-1,1.1-1.8,2.3-2.4,3.6c-0.3,0.8-1,1.4-1.9,1.5c-0.9,0-2.5,2.1-4.7,6.3 c-7,13.2-19.1,20.9-60.4,38.6c-5.2,2.2-9.4,4.2-9.4,4.4c0,0.6,5.4-0.5,20.6-4.2c15.6-3.8,20.2-5.6,31-12.7 c8.8-5.7,14.3-11.4,17.7-18.3s3.3-6.7,4.5-5.1c1.6,2,10.3,7,12.4,7c3.8,0,6.9-9.3,5.1-15.6C238.9,255.3,235.4,252.5,232,252.6 L232,252.6z
M374.5,253.4c3.5-0.3,21.2,8,26.5,12.7c3.9,3.5,6.2,7.6,4.9,8.9c-0.4,0.4-2.6,1-4.7,1.2c-6.6,0.6-12.9-2.5-19.5-9.8 c-3.9-4.3-8.6-12-7.7-12.8C374.1,253.5,374.3,253.4,374.5,253.4L374.5,253.4z
M320.5,259c-0.6,0-2.4,2.5-4,5.5l-2.8,5.5l-7.5-5.1 c-4.1-2.8-8-5.1-8.4-5.1c-1,0-8.3,14.1-7.9,15.2c0.1,0.4,3.6,3.1,7.8,5.9s8,5.2,8.5,5.2s2.2-2.5,3.9-5.6c1.9-3.6,3.3-5.4,3.9-5 c4.3,2.6,8.4,5.4,12.3,8.5c1,0.9,2.2,1.4,2.8,1.2c1.5-0.6,6.9-10.9,7.2-13.8c0.2-2.2-0.4-2.8-7.2-7.4 C324.9,261.2,321.1,259,320.5,259L320.5,259z
M231.4,260.6c1.6,0,5.5,4.3,5.5,6s-1.7,1.4-6-1.4c-3.7-2.3-3.8-2.6-2.4-3.6 C229.3,261,230.3,260.6,231.4,260.6L231.4,260.6z
M455.1,261.6c-2.2,0-4.3,1.5-6.2,4.5c-1.1,1.7-2.5,3.3-3.2,3.5s-2.8,3-4.7,6.4 c-4,7.2-9.4,12.4-19.1,18.4c-6.7,4.1-30,15.2-41,19.6c-2.3,0.9-4.6,1.9-6.8,3.1c-1.6,1.1-1.6,1.1,0,1.1c0.9,0,7.5-1.4,14.8-3.2 s13.8-3.2,14.5-3.2c1.7,0,15.7-7.3,21.4-11.1c7.7-5.2,13.4-11.4,16.6-18l2.9-6l2.2,2c1.7,1.5,3.5,2.8,5.4,3.9 c7.5,4.4,10.8,2.1,11.4-7.8c0.3-5.2,0.1-6.2-1.5-8.6C459.5,263.2,457.2,261.6,455.1,261.6L455.1,261.6z
M454.2,269.8 c0.8,0.1,1.5,0.7,3.1,2.2s2.7,3.3,2.7,4c0.1,0.6-0.4,1.2-1,1.3c-1.4,0-8.6-4.6-8.6-5.5c0-0.4,0.9-1.1,2.1-1.6 C453.1,269.9,453.7,269.8,454.2,269.8L454.2,269.8z
M322.9,294.2c-3.9,0-5.6,1.3-7.3,5.4c-1.8,4.4-1.5,5.1,1.5,3.9s5.8-0.5,6.4,1.9 s-2.1,7.2-7.9,14c-1.9,2.1-3.6,4.2-5.1,6.5c0,1.2,7.7-5.2,10.6-8.8c4.9-6.1,7.3-11.4,7.4-16.1C328.5,295.6,327.3,294.2,322.9,294.2 L322.9,294.2z
M271.8,294.4c-0.2-0.2-18.8,6.4-41.3,14.7c-44.4,16.4-42,15.2-44,22l-0.6,2.2l4.1-1.7c16-6.4,52.2-20.6,64.4-25.1 c14.2-5.3,14.7-5.6,16.2-8.6C271.5,296.2,272,294.6,271.8,294.4L271.8,294.4z"/>
</svg>
