<svg xmlns="http://www.w3.org/2000/svg" width="319" height="329">
<path d="M299.2,0c-0.6,0-18,6.2-38.6,13.9s-38.8,14.4-40.5,14.9c-2.6,0.9-3.2,1.7-4.6,5.3c-0.9,2.3-1.6,4.3-1.6,4.5 s8.9-3.3,19.8-7.6s29.3-11.5,41-15.9s21.8-8.7,22.5-9.4c0.9-1,1.6-2.2,2.2-3.5C300.1,0.4,300.1,0,299.2,0L299.2,0z M112.5,8.9 c-1.4,0.1-2.6,0.7-3.7,1.6c-3.1,2.5-4.3,5.2-7.2,17.4c-1.5,6-2.9,10.4-3.1,9.8s-0.8-3-1.3-5.2c-2-8.8-7.1-16.8-12-18.8 c-3.2-1.4-4.1-0.8-6.7,4c-2.1,3.9-2.2,4.2-1,6.1c1.9,2.9,6,4.8,7.8,3.6c0.7-0.5,1.5-0.6,2.3-0.4c1.2,0.7,5.6,10.6,7.8,17.3l1.7,5.3 l-1.9,2.1c-2,2.2-3.7,7.5-3.7,11.4v2.2l2.1-2.6c2.2-2.8,4.6-3.3,6.9-1.5c1.3,1,1,1.2-3,2.9c-3.5,1.4-4.9,2.5-6.4,5.2 c-2.7,4.5-2.6,9.3,0.4,24.7c3.3,17.2,4,22.7,4,30.4c0,3.7,0.3,7,0.6,7.3c1.2,1.2,1.9-6.7,1.5-18.3C97.5,102.9,96,92.7,93,82.8 l-1.6-5.6l2.1-1.8c1.8-1.6,13.7-5.8,16.2-5.8c0.5,0,1.6-1.8,2.6-4.1l1.7-4l-1.6-2.6c-1.7-2.8-7.3-7.2-10.8-8.5 c-1.7-0.6-2-1.2-1.6-2.2c0.3-0.8,1.8-6.5,3.2-12.9c3.8-16.4,6-19.4,10.8-14.8c2.3,2.2,2.4,2.2,3.5,0.7c1.9-2.5,1.4-7.2-1-10 C115.3,9.6,113.9,8.9,112.5,8.9L112.5,8.9z M159.2,28.3c-1,0.1-6.2,12.8-7.8,18.8c-2.2,8.5-2,19,0.4,21.6s6.3,2.2,8.7-0.6 c1.9-2.2,5.1-11.8,4.3-12.7c-0.2-0.2-1,0.7-1.7,2.1c-3.1,6-7.7,5.9-9.3-0.2c-1-3.8,0.2-11,3.8-22.5 C158.8,31.5,159.5,28.5,159.2,28.3C159.3,28.3,159.3,28.3,159.2,28.3L159.2,28.3z M264.3,28.4c-1.2,0.3-6.5,13.6-6.6,16.7 c0.1,2.4,0.6,4.9,1.3,7.2c0.8,3.4,1.3,6.9,1.4,10.4c0,5.8,2,36.8,4.7,74.8c4.6,63.6,5,76.9,2.1,81.2c-1.9,2.9-8,6.6-13.3,8.1 c-8.3,2.4-25-0.2-30.9-4.9c-1.3-1-2.1-2.1-1.8-2.4s5.9-3,12.4-6l11.9-5.4l4.2-7.5c3.7-6.6,4.1-7.7,3.1-9.1 c-1.6-2.6-17-9.8-25.7-12.2c-7.3-2-9.2-2.1-22.8-2.1c-13.1,0-16,0.3-25.2,2.2c-5.7,1.2-12.6,3.2-15.2,4.4l-4.8,2.2l-3.4,8.1 c-3.7,8.9-4.3,11.9-2,10.9c12.3-5,20.9-3.1,31.9,7.1l5.4,5.1l-11.9,5c-6.6,2.8-13.2,5.5-14.8,6.1s-7.5,3.1-13.2,5.6 c-31.5,13.9-41.1,20.7-58.4,41.2c-14.1,16.9-21,21.9-31.3,23c-6.3,0.7-9.8-0.5-13.4-4.5c-6.8-7.6-6.2-17.8,3-44.3 c2.8-8,5.3-15.7,5.5-17.1c1-5.1-1.2-2.6-5.2,6c-12.5,26.4-15.6,46-9.5,59.1c3.9,8.4,8.7,13.2,15.5,15.6c5.5,2,11.4,1.4,17.6-1.7 c5.1-2.5,10.9-7.9,23.9-22.5c8.8-9.8,18.2-18.6,23.8-22.2c6.1-3.9,21.7-11.3,45.9-21.7c11.4-4.9,23.8-10.5,27.6-12.4l6.9-3.5 l6.8,5.5c13.5,10.9,18,12.7,31.6,13.3c8.8,0.4,10,0.3,13.8-1.4c12.4-5.3,21.6-24.5,23.2-48.3c0.8-12.1,0.2-24.1-3.9-82.8 c-1.8-25.7-3.1-46.8-3-47s2,1.2,4.1,3.2s4.1,3.6,4.6,3.6c1.7,0-0.2-7.1-6.5-23.7c-7.2-19.3-8.5-22.4-9.5-23 C264.4,28.5,264.4,28.5,264.3,28.4L264.3,28.4z M301.1,43.9c-1.1,0-2.7,3.5-5.5,11.9c-1.6,4.8-1.6,5.2-0.4,8.8 c0.8,2.2,1.6,8.7,2,15.8c1.4,22.2,3.1,49.4,4.8,72.4c5.6,80.6,5.9,86,4.9,98.9c-0.5,6.2-0.9,12-0.9,13c0,2.5,1.3,1.4,2.9-2.1 c5.3-12.4,8.3-28.3,8.3-43.2c0-8.3-1.4-29.7-6-94.4c-1.6-22.6-2.8-41.2-2.5-41.5s1.9,1,3.7,2.8c3.6,3.6,5.6,4.2,5.6,1.7 c0-3.3-14.3-41.7-16.4-43.8C301.4,44,301.3,43.9,301.1,43.9L301.1,43.9z M217.7,57.6c-6.1,0-11.7,0.3-13.7,0.9 c-4,1.1-7.2,4.5-11.1,11.8l-3.1,5.7h15.1c19.4,0,25.3,1.1,22.8,4.2c-0.5,0.6-7.8,4.9-16.2,9.4s-16.2,9.1-17.4,10.2l-2.2,1.8l2.8-0.5 c4.1-0.8,21-5.7,25.2-7.4c6.6-2.6,14-9.9,21.9-21.6c6.1-9.1,4.5-12.1-7.4-13.7C228.9,57.8,223.3,57.5,217.7,57.6L217.7,57.6z M53.6,80.2c-0.5,0-1,0.1-1.5,0.2c-3.4,0.6-10,6.3-11.4,9.8c-2.6,6.2-0.9,11.1,5,14.8l3,1.8l-4,3.5c-5.3,4.8-12.3,9.4-30.3,20.2 c-8.4,5-14.8,9.2-14.4,9.4c1.1,0.4,19.3-6.5,25.1-9.4c6.9-3.5,18.2-11.9,22.9-17.1c4.3-4.7,4.3-4.8,6.3-3.4c1.1,0.7,2,1.7,2,2.2 s-1,4.4-2.3,8.7c-2.8,9.4-3.7,16.2-2.6,20.1c0.7,2.6,0.3,3.7-3.9,12.4c-9.5,19.5-14,38-12.1,49.6c1.9,11.2,9.3,21.5,17.9,24.5 c5.8,2,12.2,1.5,17.7-1.4c6-3,12.6-9.7,28.1-28.3c15.1-18.1,28.3-31.8,36.9-38.3c8.1-6.1,20.2-11.9,27.4-13.1l5.9-1v-0.1l5,1 c5.1,1,9.6,4.1,12.3,8.5c1.3,2,2.5,3.7,2.8,3.7c0.9,0,3.1-7.4,3.6-12.1c0.8-7.1-0.1-10-4.4-14.2c-4.1-4-9.9-6.1-15.4-6.5l-4.6-0.3 v0.3h-1.7c-7.8,0-20.1,5.2-30.9,13.2c-9.6,7-21.2,18.8-38.7,39.2c-15.9,18.5-22.7,25.5-29.2,30c-15.7,10.8-29.8,2.5-28-16.6 c0.6-6.5,3.2-15.7,9.4-33.5c4.1-11.7,4.3-12.1,6-11.4c3.2,1.2,5.8-0.4,7.8-5.1s3.7-11.9,1.9-9c-1.5,2.6-5,6-6,6 c-0.5,0-1.7-0.9-2.7-2.1c-2.8-3.5-2.3-10.1,1.5-21.1c1.3-3.4,2.3-6.8,3.2-10.3c0-0.6-1.1-2.1-2.5-3.4c-2.3-2.1-2.4-2.5-1.6-5.3 c0.6-2.7,0.9-5.5,0.8-8.3C57.9,82.3,56.8,80.1,53.6,80.2L53.6,80.2z M49.4,88.8c2.4-0.1,3.8,2,3.8,6c0,1.6-0.3,2.8-0.6,2.8 c-1.4-0.5-2.7-1.2-4-2.1c-3.7-2.2-4.4-4.5-1.8-5.9C47.5,89.2,48.4,88.9,49.4,88.8L49.4,88.8z M118.6,92c-1.1,0-7.8,12.7-7.8,14.6 c0,0.5,3.5,3.4,7.8,6.4s8.1,5.3,8.6,5.2c1.9-0.6,8.1-13.4,7.4-15.3C133.9,101.5,120.1,92,118.6,92z M229.6,103.4 c-0.8,0.3-5.9,12-7.4,16.9c-2,6.7-2.1,20-0.1,23c0.8,1.5,2.5,2.4,4.1,2.2c4.1,0,6.8-3.4,8.4-10.8c1-4.6,0.6-5.4-1.2-2.1 c-0.8,1.5-2,2.8-3.3,3.8c-2,1.3-2.1,1.2-4.1-0.8c-3-3-2.8-9.3,0.9-22.1C228.7,108.2,229.8,103.6,229.6,103.4 C229.7,103.4,229.6,103.4,229.6,103.4L229.6,103.4z M258.2,139.4c-1.7,0.1-13.9,4.6-61.4,22.2l-20.8,7.7l-1.4,3.1 c-0.6,1.3-1.1,2.7-1.4,4.1c0,0.6,0.2,1,0.5,1s11.9-4.5,25.8-10s32.3-12.6,40.9-15.9c15.1-5.7,15.7-6,17.1-8.9c0.8-1.6,1.3-3.2,1-3.4 C258.4,139.4,258.3,139.4,258.2,139.4L258.2,139.4z M119.2,193.6c-0.5,0-2.6,3.5-4.5,7.7l-3.6,7.7l2,1.3c1.1,0.7,4.5,3.2,7.6,5.4 s6.2,4.2,6.9,4.2c1.7,0.1,8.1-12,7.7-14.6c-0.2-1.2-2.6-3.3-7.7-6.8C123.6,195.8,119.8,193.6,119.2,193.6L119.2,193.6z M198.8,195.3 c5-0.1,10,0.1,14.9,0.8c5.2,0.9,11.4,2.9,11.4,3.9c0,0.3-2.8,2-6.2,3.7c-11.3,5.7-9.6,5.7-16.1,0.3c-2.6-2.2-5.3-4.2-8.1-6.1 c-1.6-1-2-1.6-1.4-2C193.8,195.5,196,195.3,198.8,195.3L198.8,195.3z M92.6,218.4c-0.9,1.3-1.6,2.6-2.3,4 c-8.2,16.1-10.1,34.8-3.9,38.3c0.9,0.5,1.9,0.8,2.9,0.9c2.4,0,5.9-4.2,7.2-8.8c1.7-5.6,1.6-7.4-0.2-4.8c-3.8,5.5-6.6,6.3-8.7,2.2 c-1.9-3.6-1-11.6,2.3-22.8C91.2,224.5,92,221.5,92.6,218.4L92.6,218.4z M212.8,248.9c-0.6,0.1-1.3,0.3-1.9,0.6 c-2.8,1.2-10.6,9-12.4,12.5c-3.2,6.3-2.2,11.1,3,13.5l2.9,1.4l-1.6,2.1c-3.9,5.5-6.6,12.4-7.1,17.6c-0.4,4.7-0.2,5.6,1.4,7.6 c1,1.2,2.1,2.2,3.5,3c4.8,1.9,18.2,0.4,24.5-2.8c3.7-1.9,10.6-6.9,10.1-7.4c-0.2-0.2-3.4,0.4-7,1.3c-7.8,2-19.9,2.9-23.8,1.9 c-1.7-0.5-3.2-1.5-4.3-2.8c-1.6-2.1-1.6-2.1,0.1-5.6c2.6-5.3,8.6-12.4,15.3-17.8c6.2-5.1,8-7.8,8-12.4v-2.8l-3,2.8 c-7.2,6.8-10.3,7.7-15.2,4.7c-3.1-1.9-3.3-3.7-0.6-6.6c2.2-2.4,5.5-2.9,6.2-1s1.5,1.5,3.5-1.5c2.2-3.2,2.3-4.6,0.3-7 C214,249.3,213.5,248.8,212.8,248.9L212.8,248.9z M172.3,260.8c-0.4,0-2,2.5-3.6,5.6c-0.9,1.9-1.9,3.8-3.1,5.6 c-0.1,0-3.8-2.4-8.1-5.2s-8.1-4.9-8.5-4.5c-1,1-7.1,13.8-7.1,14.9c0,0.5,1.9,2.2,4.2,3.6s5.8,3.8,7.8,5.4c1.3,1.1,2.7,2,4.2,2.8 c0.3,0,1.9-2.5,3.6-5.6s3.3-5.6,3.7-5.6s3.8,2.2,7.7,4.8s7.4,4.8,7.8,4.8c1.5,0,6.9-10.5,7-13.4c0.1-2.8-0.2-3.1-7.4-7.9 C176.4,263.1,172.7,260.8,172.3,260.8L172.3,260.8z M275.3,262.4c-1,0-2.1,0.3-3,0.8c-1.8,1-4.8,6.4-4.8,8.8c0,1.6,0.1,1.6,1.8,0.5 c3.7-2.6,7-1.1,7,3.1c0,2.5-3.2,7.4-10.4,15.7c-4.3,5-2.1,4.2,4.2-1.6c9.7-8.9,14.3-21.3,9.7-26C279,262.7,277.2,262.3,275.3,262.4 L275.3,262.4z M169.1,289.6c-0.5,0-19.1,6.7-41.3,15l-40.5,15l-1.5,3.2c-0.7,1.3-1.2,2.7-1.5,4.2c0,0.5,0.2,1,0.4,1 s8.2-3.1,17.8-6.9s28-11,40.9-15.9c22.2-8.5,23.6-9.2,25-11.7C170.2,290.3,170.3,289.6,169.1,289.6L169.1,289.6z"/>
</svg>