<svg xmlns="http://www.w3.org/2000/svg" width="368" height="413">
<path d="M263.2,411.1c-17.5-3.1-30.8-13.4-37.2-28.8c-4.1-9.8-5.9-20.4-5.9-35.9c0-14.7,0.8-22,4-34.4c1.1-4.4,2.2-8.7,2.4-9.6 c0.3-1.4-0.2-1.8-3.1-2.7c-4.2-1.6-8.2-3.4-12.2-5.5c-11.4-5.8-15.9-10.3-21-20.6c-2-4.2-4-7.4-4.3-7s-3.5,5.6-7.1,11.6 c-7.3,12.3-11.6,17.1-17.8,20.4c-3.7,1.9-5.2,2.2-11.1,2.2c-12.4,0-18.3-3.3-23.2-12.8c-1.6-3.1-2.9-5.7-3-5.9s-1.9,0.8-4,2.1 c-7.3,4.7-28,15.8-33.9,18.3c-3.6,1.5-18.3,5.4-37.1,9.8C16.1,320.1,6.6,322,1.9,322c-2.8,0-2.8,0,1.9-2.5 c2.6-1.3,18.4-8.3,35.2-15.5c36.1-15.4,53.2-23.3,67.3-31c13.1-7.1,15-8.5,14.5-10.1s-1.8-31.6-3.3-75.3c-1.7-49.1-2.9-61.9-8-80.5 c-1-3.4-1.7-7-2-10.5c0-3.7,2.6-12.6,4.3-15c1.1-1.5,1.3-1.4,3.2,2.8c1.7,4.4,3.2,8.8,4.3,13.4l2.2,9l1.2-3.4 c0.7-1.9,2.1-3.8,3.2-4.4c3.2-1.7,80.1-29.9,80.8-29.6c0.3,0.1,0,1.6-0.7,3.3l-1.4,3.1l-22.8,8.8c-23.8,9.1-59.4,23.2-59.9,23.6 c-0.2,0.1,0.3,4.9,1,10.5c2.2,17.3,3,32.4,5.4,109.8c0.5,15.6,1.1,29,1.4,29.8c0.5,1.2,1.9,0.5,10.8-5.4 c11.7-7.8,22.1-17.3,22.1-20.1c0-1-3-8.7-6.7-17.2s-7.2-17.2-7.9-19.4c-0.9-2.9-2.1-5.7-3.4-8.4c-2.2-4.3-2.2-4.4-1.3-11.7 c0.3-3.2,0.9-6.4,1.7-9.5c0.8-2.2,0.8-2.1,10.2,7.7c12.4,13,12.7,13.6,6.2,12.2c-2-0.4-3.7-0.6-3.7-0.5s2,5,4.4,10.7 c7.6,18,9.1,26,7.2,37.3c-2.4,13.8-8,21.4-25.4,34.3c-4.5,3.4-8.2,6.5-8.2,7s1.7,2,3.9,3.3c3.4,2.1,4.5,2.4,10.1,2.3 c13.3-0.1,18.5-3.7,31.3-21.9c10.8-15.3,12-16.1,12.9-8.1c1.4,12.3,9.5,20.4,29.2,28.9c11.4,4.9,10.3,5.1,16.3-3 c10.3-13.8,28.2-28.8,44.1-36.7c3.1-1.5,5.4-2.9,5.3-3.1s-16.3-0.7-35.9-1.2s-36-1.3-36.4-1.7s0.3-3.9,2.4-9.9 c3.7-10.7,1.3-9.1,23.1-15.6c17.4-5.2,25.5-8.3,27.8-10.9c1.9-2,1.9-2.5,2.2-16.3c0.2-13.3-0.9-36-4.3-82.5c-0.6-9-1.5-24.1-2-33.5 c-0.6-12.4-1.2-18.2-2.2-21.2c-0.9-2.2-1.2-4.7-0.8-7.1c0.9-4.2,5.4-15.8,6.2-15.8s3.8,7.1,10.7,25.7c7.7,20.8,7.9,24.4,0.8,17.4 c-1.9-1.8-3.6-3.2-3.8-2.9s0.8,18,2.4,39.4c3.9,53.9,3.8,78.3-0.4,93.9c-1.6,6-5.2,13.9-8.2,17.9c-0.9,1.2-1.5,2.4-1.3,2.5 s10.7,0.5,23.3,0.8l23,0.5v-2.7c0-1.5-0.4-7.3-0.8-13c-1.6-20.9-6.4-92.3-6.9-103.9c-0.3-7.2-1.1-14.3-2-17.7 c-1.6-6.5-1.4-7.9,2.6-17.7c2-4.8,2.6-5.7,3.4-4.8c2,2.1,16.4,41.2,16.4,44.4c0,1.9-2.3,1.1-5.7-2.1c-1.9-1.8-3.5-3-3.8-2.8 s0.9,19.4,2.6,42.6c4.1,57.7,5.2,73.9,5.3,76v1.8h14.8c11.3,0,14.8,0.2,14.8,1c0,0.6-1.4,4.8-3,9.4l-2.9,8.4l-10.4,2.8 c-5.7,1.6-11,3.1-11.7,3.3c-0.9,0.4-1.5,2.1-1.9,6.3c-0.6,4.5-1.4,8.9-2.5,13.3c-2.1,8.1-6.7,18.9-7.3,17.2c-0.2-0.6,0-6.6,0.5-13.4 c0.8-10.2,0.6-20.4-0.4-20.4s-12.8,4-19.2,6.6c-18.3,7.2-35.4,17.6-46.5,28.1l-6.9,6.5l2.8,0.6c5.2,1.1,28.9,2.2,46.2,2.3 c29.8,0,48,1.9,55.9,5.9c19.4,9.6,24.1,37.8,10.8,65.3c-4.8,9.9-9.5,16.4-18.3,25.3c-14.5,14.6-32,24.1-49.2,26.7 C285,412.7,270.7,412.5,263.2,411.1L263.2,411.1z M301.9,389.7c9.2-2.5,26.2-10.8,34-16.6c12.5-9.3,23.1-22.1,25.7-30.8 c2-7-0.3-15-6.2-21.5c-6.9-7.5-14.2-10.9-26.7-12.4c-4-0.5-21.2-1.2-38.4-1.6c-19-0.5-34.5-1.2-39.6-1.9l-12.1-1.7l-3.7-0.5 l-2.1,5.7c-10.6,28.6-8.3,55.1,6,69.7c6.7,6.8,17.2,11.6,29.8,13.6C277.2,392.9,293.3,392,301.9,389.7L301.9,389.7z M250.3,368.8 c-1.8-0.6-3.3-1.2-3.4-1.2c-0.5-0.7-1-1.5-1.4-2.4c-3.2-6.2-0.4-13.2,9.5-24c3.8-4.2,6.8-8,6.7-8.4s-2.2-1.3-4.6-1.9 c-3.4-0.9-5.1-0.9-7.9-0.2c-1.9,0.5-3.7,0.7-4,0.5c-0.9-0.9,2.6-6.1,4.8-7.3c3-1.5,12.9-1.5,15.9,0.1c2,1,2.4,1.7,2.4,4.3 c0,3.8-2.5,7.4-12.1,17.5c-8.8,9.3-10.1,12.9-5.1,15.3c3.7,1.8,15.4,1.3,24.9-1c2.7-0.8,5.5-1.3,8.3-1.7c0.5,0.6-8.4,6.8-12,8.3 C264.6,370,255.7,370.8,250.3,368.8L250.3,368.8z M291.8,339.8c-2.2-1.6-5.8-4.1-7.8-5.5l-3.7-2.6l3.8-7.6c2.1-4.2,4.1-7.6,4.6-7.6 c0.9,0,10.5,6.3,14.3,9.3c1.2,1,2.1,2.2,2.1,2.7c0,2.2-6.8,14.4-8,14.3C296.4,342.8,294,341.4,291.8,339.8L291.8,339.8z M172.8,340.5c-2.3-2-4.7-3.8-7.3-5.4c-3.7-2.5-6.8-5.1-6.8-5.7c0-1.9,6.7-14.7,7.8-14.7c0.6,0,4.3,2.3,8.4,5 c6.8,4.6,7.4,5.2,7.3,7.6c-0.1,1.4-1.5,5-3.2,7.9C176.1,340.5,173.9,342.3,172.8,340.5L172.8,340.5z M78.9,242.3 c-2.4-3.7-1.9-13.3,1.3-23.6c2.6-8.3,2.7-8.6,1.2-10.2c-0.6-0.7-1.3-1.3-2.2-1.6c-0.4,0-3.2,2.4-6.1,5.4c-6.7,6.8-19.2,15.1-28.5,19 c-8.5,3.5-18.1,6.9-18.6,6.5s1.2-1.6,17-10.9c15.6-9.2,22.2-13.7,28.2-19l3.4-3l-3.7-2.6c-6.2-4.4-7.1-9.6-2.9-16.5 c2.1-3.4,8.4-7.7,11.3-7.7c3.5,0,4.8,2.2,4.8,8.1c0,2.8-0.3,5.5-0.9,8.2c-0.8,2.8-0.7,3.2,1.3,5s2.1,2.5,1.8,5.3 c-0.7,3.5-1.6,6.9-2.9,10.2c-3.2,8.6-3.5,17-0.8,19.9c2.3,2.4,3.8,1.9,7-2.2l2.7-3.5l-0.6,3.1c-0.8,4.6-3.6,10.7-5.2,11.6 C83.8,245.1,80.5,244.5,78.9,242.3L78.9,242.3z M79.5,192.2c0-3.6-2.1-6.3-4.3-5.7c-2.6,0.8-4.5,2.7-4,4s6.7,5.2,7.6,4.6 C79.2,194.9,79.5,193.6,79.5,192.2L79.5,192.2z M178.3,222c1-3.3,3.6-7.9,4.4-7.9c0.4,0,18.8-6.7,40.9-14.8s40.2-14.7,40.4-14.6 c-0.2,1.2-0.6,2.4-1.2,3.5c-1.4,3.2-1.5,3.2-17,9.1c-11.6,4.4-56.8,22.1-67,26.2C177.9,223.8,177.8,223.4,178.3,222L178.3,222z M237.3,172.3c-1.3-0.9-2.2-2.2-2.7-3.7c-1.3-4-0.4-16.2,1.6-22.1s6.4-15.9,6.9-15.5c0.2,0.2-0.9,4.6-2.5,9.9 c-3.3,11.2-3.8,18.1-1.7,21.4c0.8,1.2,2.1,2.2,2.9,2.2c1.4,0,4.8-3.1,6.4-6c1.5-2.6,0.2,4.1-1.7,8.6 C244.1,172.7,241.4,174.2,237.3,172.3L237.3,172.3z M160.7,153.6c-2.2-2.4-2.9-5.2-2.9-12.5c0-4.2-0.3-5.6-1.2-6 c-1.8-0.7-1.5-5.2,0.7-7.8c1.3-1.7,2.3-2.2,3.3-1.8c1.3,0.5,1.4,1.3,0.9,8.1c-0.6,8,0.5,12.8,3.2,13.8c2.1,0.8,6.4-1.8,7.8-4.7 c1.2-2.5,1.2-3.3,0-9.7c-1.1-5.7-1.1-7.4-0.2-9.4c0.6-1.5,1.3-2.2,1.7-1.7c1.1,1.1,2.9,8.3,3.5,14.2c0.7,6.4,2.6,9.1,6.4,9.1 c4.3,0,4.6-1.8,1.5-8.3c-2.8-5.9-3.6-11.8-1.9-14.9c1.1-2.2,2.4-1.9,2.4,0.4c0,1.1,1.1,4.9,2.4,8.5c2.8,7.6,3,12.4,0.9,17.2 c-3.4,7.5-10.1,7.3-13.3-0.4l-0.9-2.1l-1,3C171.8,155.1,164.6,157.8,160.7,153.6L160.7,153.6z M211.1,111.7 c1.7-1.3,8.4-5.1,14.8-8.5c14.6-7.8,18.4-10.2,18.4-11.4c0-2.1-4.7-2.8-21-3.2c-10.3-0.2-16.6-0.7-16.6-1.2s1.8-3.7,3.9-7.3 c5.2-8.6,6.8-9.4,19.8-9.9c11.3-0.4,24.2,0.9,28.3,2.9c1.8,0.9,2.9,2,3.1,3.2c0.3,2.3-2.7,7.6-9.2,15.9 c-5.8,7.5-10.3,11.5-15.7,13.8c-4.2,1.8-25.7,8.1-27.6,8.1C208.5,114,209.2,113,211.1,111.7L211.1,111.7z M155.5,62.4 c0-4-6.6-21-8.8-22.3c-0.8-0.2-1.6,0-2.3,0.4c-1.9,1.2-5.9-0.7-7.8-3.6c-1.2-1.8-1.1-2.2,0.8-6c2.4-4.7,3.5-5.4,6.8-4 c5.2,2.1,10.2,10.3,12.1,19.7c0.6,2.8,1.2,5.1,1.5,5.1s1.1-3,1.8-6.7c3-15.4,6.9-22.9,11.8-22.9s8.3,8.2,5.2,12.5 c-1.1,1.5-1.2,1.5-3.5-0.7c-1.3-1.3-3-2.1-3.9-2c-2.3,0.4-4.8,6.6-7.1,17.1c-0.8,4.3-1.9,8.5-3.3,12.6 C157.5,64.9,155.5,65.4,155.5,62.4L155.5,62.4z M214.7,37.9c0.4-1.6,0.9-3.1,1.6-4.5l1.7-3.7l40.8-15.1C281.3,6.3,299.9-0.3,300.1,0 s-0.2,1.8-1.1,3.4c-1.5,2.8-2.3,3.2-20.8,10.2c-10.6,4-29.2,11.3-41.4,16.1S214.7,38.3,214.7,37.9z"/>
</svg>