<svg xmlns="http://www.w3.org/2000/svg" width="527" height="347">
<path d="M4.6,343.6c4.5-2.3,17.5-8,39-17.1c60.2-25.5,89.4-41.7,109.8-61.1c8.9-8.5,9.7-10.1,9-17.1c-0.7-6.7-3.6-17.2-7-25 c-5-11.5-4.9-10.6-2.3-19.2c1.3-4.2,2.7-8.1,3.1-8.5s1.5,0.5,3,3.5c3.9,7.8,7.3,10.3,14.1,10.3c5.5,0,9.2-2,12-6.5 c2.4-3.8,4.6-12.5,4.6-18.1c0-4.6,1.9-9,3.9-9c3.3,0,5.6,3.1,8.1,10.6c2.2,6.8,3.2,12.4,6.9,36.2c2.7,17.4,5.8,22.8,14.3,25.2 s24.9-0.9,38.5-7.5c7.1-3.5,16.7-10.8,19.9-15.1l1.7-2.2l-2.8-5.4c-4.7-9.2-17.9-21.4-49.6-46.2c-15.2-11.8-27.9-21.9-28.2-22.4 c-1.8-2.3,1.9-21.9,5.2-28s15.8-14.4,41.8-27.8c33.7-17.4,74.2-34.4,94.9-39.8c17.5-4.6,23.7-4.1,25.5,2.2 c2.7,9.1-3.8,23.5-18.1,39.7c-10,11.3-15.4,18.4-18.4,23.8l-2.8,5l0.5-3.6c1-6.9,7.6-18.8,16-28.8c10.3-12,14.8-18.2,14.8-20.1 c0-3.9-12.4-4-24.4-0.3c-25.6,7.9-82.6,34-109.5,50.2c-10.5,6.3-19.7,12.8-19.7,14c0,0.5,6.2,4.1,13.8,8.1 c26.8,13.8,52.1,30.3,75.6,49.2c8.2,6.6,17.4,13.6,20.4,15.5c15.1,9.8,31.3,10.8,46.3,2.9c4.3-2.3,7.3-4.8,14.4-12.4 c4.9-5.2,9.2-9.5,9.6-9.5s0.5,3.3,0.3,7.8c-0.4,6.9-0.3,8.1,1.2,10.4c2.4,3.8,5.9,5.3,13.3,5.7c5.5,0.3,7.4,0,14-2.2 c4.8-1.6,9.5-3.6,14-5.9c7.5-4,7.1-2.2,4.1-19.8c-5-29.3-9.6-82.8-10.9-127.2c-0.5-18.8-1-24.4-2-27.5c-0.8-2.2-1.1-4.5-0.8-6.8 C422.3,20,427,9.1,428,8.8c0.7-0.2,11.6,25.7,11.6,27.8s1.4,0.5,2.3-2.3c0.4-1.4,1-2.7,1.9-3.9c0.8-0.6,74.8-28.1,81.2-30.2 c1.3-0.4,1.3,0.6-0.3,4c-0.7,1.5-2.1,3-3,3.3c-7.4,2.3-78.9,30.4-79.9,31.4c-0.4,0.4,0.2,3.6,1.4,7.2c0.9,2.5,1.6,5.1,2.1,7.7 c0,2.1-2.1,1.2-5.9-2.3c-2-1.9-3.9-3.2-4.1-2.9c-1.4,2.3,5.1,100,8,121.6c1.3,9.3,4.2,24.1,5.1,25.4c0.4,0.6,1.7,0.5,4.5-0.4 c2.5-0.8,7.2-1.3,12.8-1.4c8.6-0.1,9,0,11.8,2.2c6.6,5,9.8,13.8,9.1,25.4c-1,17.8-11,25.1-25.2,18.4c-3.1-1.5-6-3.5-8.5-5.9 c-3.9-3.9-9.3-11.6-9.3-13.2c0-0.6-0.2-1-0.5-1s-5.5,2.5-11.6,5.5c-18.8,9.4-31.5,10.7-41.6,4.3c-4.7-3-9.4-10.7-9.5-15.7 c0-1.7-0.1-1.7-1-0.3c-5.7,8.6-13.5,15.4-22.7,19.9c-5.2,2.5-5.8,2.6-15.4,2.5c-8.5,0-10.7-0.3-14.6-1.9c-5.3-2.1-14-8.4-24.2-17.7 c-8.5-7.7-18.6-15.6-19.2-15c-0.2,0.2,0.6,2.9,1.8,5.9c1.9,4.8,2.2,6.6,2.2,13.5c0,9.6-1.7,14.6-7.5,22.2 c-9.3,12.3-29.1,23.4-44.9,25.1c-15.2,1.7-24.9-2.7-28.8-13c-2.3-6.2-3-9.6-4.8-24.1c-2.1-16.8-3-22.1-4.4-27.2 c-2.3-7.7-4.1-6.5-6.7,4.5c-1.8,7.6-5.3,15.5-8,17.9c-3,2.3-6.8,3.5-10.6,3.1l-2.9-0.4l-0.5,13.9c-0.3,7.6-1,16.3-1.7,19.2 c-1.9,8.3-6.1,15.8-12,21.9c-9.6,9.5-31.9,24-56.9,36.8c-14.3,7.3-14.4,7.4-31.6,11.5c-48.3,11.6-58,13.6-63.1,13.6L0,346L4.6,343.6 z
M475.9,220.4c1.1-1.7-1.1-4.4-4.9-6c-2.6-1.1-10.3-1.5-12.5-0.6c-2.6,1,2.5,5.8,8.1,7.5C470.1,222.4,474.9,221.8,475.9,220.4 L475.9,220.4z
M135.6,317.6c0-0.1,0.7-2.1,1.6-4.5l1.6-4.3l40.6-15c22.3-8.2,41-15,41.5-15c1.2,0-0.2,3.7-2.1,5.7 c-0.7,0.7-10.1,4.6-20.9,8.7s-29.2,11.2-41,15.9S135.6,317.7,135.6,317.6L135.6,317.6z
M262.5,306.5c-4-1.4-6.6-3.4-8.3-6.2 s-1.1-3.4,1.9-2.1c4.6,1.9,17.3,1.2,33.5-2c20.1-3.9,19.5-3.7,16.5-6.4s-9.7-3-21.6-1.2c-15.9,2.4-22.5,1.1-22.5-4.2 c0-6.6,13.3-22.9,22.4-27.3c7.5-3.7,12.7-2.5,11.8,2.8c-0.3,1.5-0.8,2.9-1.6,4.2c-1,1.4-1.1,1.4-3.2,0c-1.9-1.2-2.5-1.3-4.7-0.4 c-4.2,1.8-13.7,8.3-17.1,11.9c-3.1,3.2-3.1,3.4-1.6,4.5c2,1.5,10,1.5,19.2,0c12.6-2.1,19.5-1.1,22.4,3.2c1.8,2.8,1.6,9-0.5,13.2 l-1.8,3.6l-9.5,2.6c-9.9,2.7-23.6,5-29,5C266.6,307.6,264.5,307.2,262.5,306.5L262.5,306.5z
M351.6,298.6c2.8-1.5,5.7-2.8,8.6-4 c27.9-11.8,44.5-20.7,52.8-28.2c2.8-3,5.3-6.3,7.3-9.9c2.1-3.7,4.3-6.8,4.8-6.8s1.9-1.4,3.1-3.2c4.1-6.1,9.2-5.6,12.8,1.2 c2.1,4.1,2,9.4-0.1,14.6c-1.1,2.6-1.6,3-4,3c-2.6,0-11.6-5-13-7.2c-0.4-0.6-1.8,1.6-3.7,5.4c-6.6,13.6-24.4,25.6-45.6,30.6 C355.3,298.7,351.5,299.5,351.6,298.6L351.6,298.6z
M438.8,256.6c0-1.8-3.7-6.5-5.1-6.5c-1,0.2-2,0.7-2.8,1.3l-1.9,1.3l4.3,2.7 C438.2,258.5,438.8,258.7,438.8,256.6L438.8,256.6z
M330.5,283.1c6.9-8,9-12.1,7.7-15c-0.8-1.8-1.4-2.1-3.5-1.8 c-1.3,0.2-2.6,0.5-3.9,0.9c-1.2,0.5-1.2,0.2-0.5-2.7c1.2-4.6,4.1-7.3,7.9-7.3s5.5,2.2,5.5,7c0,4.4-1.5,7.9-6,14.2 c-3,4.3-10.3,10.8-12,10.8C325.4,289.3,327.5,286.5,330.5,283.1L330.5,283.1z
M181.6,274.3c-3.5-2.5-7.3-5.2-8.3-5.8l-1.9-1.2 l3.6-7.8c2-4.3,4-7.8,4.5-7.8s4.2,2.3,8.2,5c5.8,4,7.5,5.5,7.7,7.1c0.2,2.2-3.3,10-6,13.2l-1.5,1.8L181.6,274.3z
M369.1,271.7 c6.6-7.7,8.6-11.4,7.6-14.4c-0.6-1.6-1.3-2-3.1-2c-1.4,0-2.8,0.2-4.1,0.6c-1.6,0.6-1.7,0.4-1.1-1.6c1.8-6.2,4-8.2,8.8-8.2 c3.1,0,4.8,2.6,4.8,7.2c0,4.2-2,9-6,14.5c-2.7,3.7-10.2,10.3-11.7,10.3C363.9,278.1,366.1,275.3,369.1,271.7L369.1,271.7z
M115.5,264.3c-2.4-3.8-1.7-13.5,1.7-24.2l2.6-8l-4.1-3.6l-4.6,4.9c-9.5,10-20.3,16.8-37,23.1c-16,6-15.2,5.1,7.2-8.2 c16.1-9.6,23.3-14.6,27.5-19c2.3-2.4,2.3-2.6,0.9-3.4c-1.6-1-3-2.2-4.4-3.5c-2.6-2.4-2.8-3-2.8-6.7c-0.1-2.7,0.7-5.3,2.4-7.4 c4.8-6.9,12.4-9.9,15.1-6c1.5,2.1,1.6,7.6,0.4,13.4c-0.8,3.9-0.8,4.2,1.3,6.1c2.7,2.5,2.5,4.8-1,14.7c-3,8.5-3.7,13.4-2.6,17.5 c1.7,6.1,6.1,5.9,9.6-0.6l1.6-3l-0.5,3.2c-1.3,8.3-4.6,13.2-8.8,13.2C117.7,266.9,116.8,266.4,115.5,264.3L115.5,264.3z
M116.1,212.9c-0.7-3.5-2.1-4.7-4.6-3.7c-4.7,1.8-4.4,4.1,0.9,7.2c2.5,1.5,2.9,1.5,3.5,0.4C116.3,215.6,116.4,214.2,116.1,212.9 L116.1,212.9z
M493.2,250.4c0-0.8,0.4-6.5,0.9-12.7c1.1-13.5,1-16-4.9-100.8c-2.6-37.1-3.9-58.4-4.5-69.6 c-0.2-5.1-0.7-10.1-1.6-15.1c-0.6-2.3-1-4.6-1.1-7c0-2.6,5.4-16.7,6.4-16.7c0.7,0,8.5,19.2,13.6,33.7c4.7,13.3,4.2,15.6-2.2,9.4 c-1.9-1.8-3.6-3.1-3.9-2.9c-0.4,0.4,0.8,19.6,4.8,74.6c3.4,47,3.8,54,3.4,66c-0.5,13.8-2.2,23-6.1,33.8 C495.5,250,493.2,253.5,493.2,250.4L493.2,250.4z
M76.5,227.2c-0.1-8-1.8-20.9-4.5-34.9c-1.5-7.8-2.7-15.6-2.7-17.2 c0-6.4,4.4-11.9,10.6-13.4c2.6-0.6,2.8-1,0.8-2.4c-2.2-1.6-3.5-1.3-6.4,1.4s-3.2,2.4-1.8-4.1c0.5-2.4,1.5-4.6,2.9-6.5l2.1-2.4 l-1.8-5.6c-3.7-11.3-7.9-18.9-9.2-16.7c-1,1.6-4,0.9-6.6-1.5c-3.1-2.8-3.2-4.1-0.5-8.6s5.3-4.7,9.6-1c4.1,3.6,6.5,8.1,8.7,16.3 c1.5,5.4,2,6.7,2.4,5.2c4.3-19.5,6.6-25.7,10.1-27.6c3.1-1.6,4.2-1.5,6.1,0.6c2.8,3,3.6,5.4,3.1,8.3c-0.7,3.7-2.4,4.2-5.3,1.4 c-4.9-4.7-7.1-0.2-13.2,28.1c-0.3,1.2,0.4,1.9,3,3.1c4.4,2,10.3,7.7,10.3,10c-0.2,1.7-0.8,3.4-1.6,4.9c-1.4,2.7-2.2,3.3-6.2,4.4 c-7,1.9-11.2,3.6-13,5.1c-1.6,1.3-1.6,1.4,0.3,7.7c3.2,10.9,4.8,22.2,4.7,33.6c0,6.2-0.4,12.3-0.8,13.6 C76.5,231.2,76.5,231.1,76.5,227.2L76.5,227.2z
M355.6,194.6c0.6-0.6,6.9-4.4,14-8.5s15.6-9.4,19-11.7c6.1-4.2,14.2-10.7,14.2-11.5 c-0.9-0.9-1.9-1.7-3.1-2.3c-3.9-2.4-5.7-5.4-5.7-9.5c0-6.5,7.9-14.5,14.2-14.6c2.3,0,2.8,0.4,3.9,2.9s1,3.9,0.4,8.3 c-0.3,2.2-0.7,4.4-1.3,6.6c-0.3,0.8,0.6,2,2.4,3.4c1.6,1.2,2.9,2.7,2.9,3.3c0,1.3-3,7.5-3.7,7.5c-1.1-0.5-2.1-1.2-3-2l-2.6-2l-5.9,6 c-6.7,6.6-14.4,12.2-22.8,16.5c-4.5,2.2-21.5,8.6-23,8.6C354.8,195.6,354.8,195.3,355.6,194.6L355.6,194.6z
M407.6,150.5 c0-5.5-2.5-7.3-6.2-4.7c-2.5,1.8-2.2,3.2,1.2,5.5C406.7,154,407.6,153.9,407.6,150.5L407.6,150.5z
M340,169.5 c-3.5-2.5-7.2-5.1-8.3-5.8l-1.9-1.2l3.7-7.8c2-4.3,4-7.8,4.5-7.8s4.3,2.3,8.6,5.2s7.9,5.1,8,5s1.3-2.7,2.7-5.6s2.9-5.4,3.5-5.4 c1,0,10.2,5.9,14.8,9.5c1.7,1.4,1.8,1.8,1,4.1c-1.1,2.6-2.3,5.2-3.8,7.7c-2.6,4.7-4.4,6.1-5.5,4.3c-0.4-0.6-9.9-7.3-13-9.1 c-0.6-0.4-1.9,1.3-3.8,5c-1,2.1-2.1,4.1-3.5,6C346.7,173.9,343.5,172,340,169.5L340,169.5z
M159.6,162.1c-2.5-2.5-3.2-5.1-3.2-11.8 c0-4.9-0.3-6.4-1.5-7.8c-1-1-1.4-2.4-1.1-3.8c0.5-2.4,4.7-6.9,5.6-5.9c0.3,0.3,0.5,3.7,0.4,7.5c-0.3,8.6,0.2,11.4,2.2,13.5 c1.4,1.5,1.9,1.6,4,0.9c3.2-1.1,5.5-4.1,5.6-7.6c-0.2-2.8-0.5-5.5-1-8.2c-0.8-4.4-0.7-6,0-7.7c0.7-1.5,1.2-1.9,1.8-1.3 c1.1,1.1,3,9.4,3.1,13.2c0,6.8,4.1,11.5,8.4,9.5c2.6-1.2,2.5-2.1-0.4-8.3c-2.7-5.6-3.3-12.8-1.3-15.5c1-1.4,1.1-1.3,1.7,1.2 c0.8,3.2,1.8,6.3,3,9.4c2.8,7.5,2.8,12.1-0.1,17.7s-8.6,5.4-11.7-0.2l-1.6-3l-1.8,3.8C168.9,163.3,162.9,165.5,159.6,162.1 L159.6,162.1z
M268.4,159.8c1.8-6.1,2.7-6.9,12.2-10.3c5-1.8,23.2-8.5,40.6-14.9s31.8-11.6,32.2-11.5s0,1.6-0.7,3.3 c-1.3,3-1.5,3.1-17.8,9.3c-13.9,5.3-48.8,19-62.9,24.7l-4.2,1.6L268.4,159.8z
M458,131.6c-1.1-1.3-1.8-2.9-2.1-4.5 c-0.7-3.9,0.2-14.1,1.8-19.3c1.4-4.8,6.8-17,7.3-16.5c0.2,0.2-1,4.7-2.5,10.1c-4.2,14.8-3.7,23.2,1.6,23.2c1.4,0,2.6-0.9,4.1-3.2 c0.7-1.2,1.5-2.2,2.5-3.2c0.6,0-0.7,5.8-1.9,9C466.3,132.8,461.2,135,458,131.6L458,131.6z
M364.4,130.5c0.9-1.1,6.3-4.2,24.8-14.3 c8.5-4.7,11.2-6.5,11.2-7.8c0-1.7-5.6-2.5-21.4-3l-17-0.5l3.9-6.8c3.1-5.4,4.6-7.2,7.4-8.8c3.4-1.9,4-2,17.5-2 c14.3,0,21.9,1,25.4,3.4c1.5,1,1.8,1.7,1.4,3.6c-0.9,4.7-12.5,20-19,25.1c-3.3,2.6-13.9,6.5-27.8,10.2 C365.1,131.1,363.6,131.3,364.4,130.5L364.4,130.5z
M129.2,108.3c-1.9-3.2-2.1-11.2-0.4-19.2c1.1-5.2,7.5-21,8.2-20.3 c0.2,0.2-0.7,4-2.1,8.4c-4.4,14.8-4.7,22.1-1.1,24.7c2.1,1.6,3.5,0.9,6.5-2.9l2.7-3.5l-0.6,3.2c-0.8,4.6-3.6,10.7-5.2,11.6 c-1.2,0.5-2.6,0.8-3.9,0.8C131.3,110.9,130.4,110.3,129.2,108.3L129.2,108.3z
M196.8,85.1c0.5-1.6,1.1-3.1,1.9-4.6 c1.2-2.6,2.1-3.1,13.7-7.3c6.8-2.5,25.1-9.2,40.7-15s28.5-10.3,28.7-10.1s-0.2,1.8-1,3.4c-1.3,2.9-1.8,3.2-13.8,7.7 c-11,4.2-54.7,21.2-66.4,26l-4.3,1.7L196.8,85.1z
M382.9,51c-1.1-1.3-1.8-2.9-2.1-4.5c-0.8-4.1,0.1-14.2,1.7-19.5 c1.4-4.8,6.8-17,7.3-16.5c0.2,0.2-1,4.8-2.6,10.2c-3.3,11.4-3.8,17.8-1.7,21c2.5,3.8,5.1,2.8,9.2-3.2c0.8-1.3,0.9-1,0.5,1.7 C393.6,50.2,387.4,55.6,382.9,51L382.9,51z"/>
</svg>