<svg xmlns="http://www.w3.org/2000/svg" width="409" height="350">
<path d="M291.7,0c-0.5,0-19.2,6.7-41.5,15l-40.6,15l-1.6,4.3c-0.9,2.4-1.6,4.4-1.6,4.5s9.6-3.7,21.4-8.4s30.2-11.9,41-15.9 s20.2-8,20.9-8.7C291.5,3.7,292.9,0.1,291.7,0L291.7,0z M308.6,4.8c-1,0-2.6,3.6-5.1,10.9c-2.2,6.4-2.2,6.6-0.9,10.4 c0.9,2.5,1.6,8.6,2.1,17.5c0.7,11.9,2.5,39.9,4.8,72.8c3.1,45.3,2.9,62.4-0.9,65.3c-2.6,2-14.5,6.3-29.2,10.6 c-18.2,5.4-17.2,4.8-21.5,13.3c-2,4-3.4,7.6-3.1,8s8.4,1.4,17.9,2.3c18.1,1.8,45.4,5.3,48.8,6.4c1.7,0.5,0.1,1.6-12,7.5 c-14.6,7.2-26.1,11.8-32.8,12.3l-4.8,0.4l-3.5-0.5c-7-1.1-13-7.2-15.1-15.8c-0.9-3.7-1.5-12.4-2.1-32.3c-1-31.3-2-48.2-3.7-61.2 c-4.3-33.1-12.3-52.1-28.7-68.4c-8-8-14.9-12.8-27.4-19.4c-7.1-3.7-8.6-4.2-9.5-3.3c-0.6,0.6-2.7,5.5-4.7,10.9 c-4,10.7-4.2,12.4-2.9,25.8c0.4,4.2,1.3,13.5,2,20.8s1.4,14.8,1.6,16.8c3.8,35.1,8.4,86,8.9,98.1c0.5,11.1,0.4,11.4-1.6,15.7 c-2.3,4.8-6.3,8.4-13.4,12.4c-6.4,3.6-7,3.4-10.5-3c-6.8-12.6-15-19.6-22.7-19.5c-10.5,0.1-20.8,12-22.8,26.2 c-1.8,12.6,2.6,18.3,15.7,20.5c5.2,0.9,15.9,0.6,22.9-0.5l2.9-0.5l1.4,4.8c2.5,9,1.8,10.9-7,19.2c-11.5,10.9-35,24.7-54.1,31.7 c-18.4,6.8-42.1,9.6-55.9,6.6c-11.9-2.5-21.9-8.7-28.8-17.8c-4.8-6.2-7.9-13.6-9-21.3c-0.8-5.2-0.6-7.2,1.6-20 c1.4-7.9,2.5-14.6,2.5-14.9s1.6-0.6,3.5-0.5c4.6,0.2,7.4-1.9,10.2-7.5c2.2-4.4,4.7-12.9,4.7-16c0-1.3-0.9-0.4-3.1,3.1 c-3.7,5.7-6.5,7.6-9.8,6.4c-3.5-1.2-5.1-5.5-5-13.4c0.1-7.1,1.4-13.2,6.4-29.6c1.5-5.1,3-9.7,3.1-10.4c0.9-3-2.5,2.6-5.8,9.4 C5,210.1,2,223.1,2.4,236.7c0.2,6.8,0.6,9.2,2,11.8l1.7,3.2l-1.8,5.6c-3.5,10.9-4.6,19.9-4.2,34.5c0.4,15.5,1.8,21.3,7.2,31.8 c7.5,14.4,20.9,23.3,38.1,25.2c23.5,2.6,51.1-5.2,79.3-22.5c16.2-9.9,31.5-23.1,35.1-30.1c3-5.9,5-14.4,5.6-23.5l0.5-8.9l5.2-3.1 c13.2-7.8,21.7-23.4,24.8-45.1c1.6-11.5,0.7-37.3-2.4-65.6c-0.4-4-1.9-19.3-3.2-34l-3.5-37.9c-1.2-12.7-1-13.2,4.6-10.1 c10.7,6,22.6,16.3,29,25.3c7.9,11.1,13.4,25.6,16.3,43.3c2.1,12.7,2.3,15.5,3.7,48.6c0.7,15.8,1.6,33.2,2,38.6 c2.2,25.8,9.5,37.2,24.6,38.4l5,0.4v-0.2h2.8c3.8,0,12.2-3.5,33.2-14c24.8-12.4,39.4-17.5,54-18.9l2.4-0.2l0.6,5.6 c0.9,8.5,1.1,29.3,0.4,40c-0.6,9.5-0.6,9.6,0.9,7.8c2.5-2.9,7.2-18.7,8.5-28.7c0.7-5.8,1.1-11.7,1.2-17.6V228h5.9 c2.4,0.1,4.9-0.1,7.2-0.5c1-0.4,10-16.7,10-18.2c0-0.2-5.5-0.6-12.2-0.9s-12.3-0.6-12.4-0.7s-0.5-5.9-1-12.9s-2.1-29.9-3.6-50.8 s-2.8-39.2-2.8-40.7v-2.7l4,3.7c2.2,2,4.3,3.7,4.8,3.7c2.1,0,0-7.4-8-28c-6.4-16.6-7.2-18.4-8.1-18.4s-3.2,5.3-5.5,12.3 c-1.5,4.4-1.5,4.9-0.3,8.4c0.8,2.2,1.6,8.8,2.1,16.5c1.2,18.6,3.7,56.4,5.5,83.9c0.9,13.1,1.5,24,1.4,24.2 c-0.5,0.5-35.1-3.6-51.1-6.1l-5.4-0.9l2.8-3.7c7.1-9.3,10-19.1,11.6-38.2c1-12.5,0.6-33.7-0.9-52.8c-1.8-22.7-4-54.9-4-58.2v-3.4 l3.6,3.8c4.5,4.8,6.2,5,5.5,0.8C323.9,42.5,309.7,4.8,308.6,4.8L308.6,4.8z M407.6,25.9c-0.2-0.2-17.5,5.9-38.3,13.5 s-39.2,14.5-40.9,15.1c-3,1.1-4.5,3.2-5.9,8.5c-0.5,1.9-0.5,1.9,1.8,0.8s46.4-18.5,68.3-26.8c11.8-4.5,12.5-4.9,13.9-7.7 C407.4,27.7,407.9,26.1,407.6,25.9L407.6,25.9z M152.4,28.3c-0.6,0.2-4.9,9.7-7,15.9c-2.4,6.8-2.7,20.8-0.5,24.1 c1.5,2.3,4.9,2.9,7.7,1.4c1.7-0.9,4.4-7,5.2-11.6l0.5-3.2l-2,3c-1,1.5-2.3,2.8-3.8,3.9c-1.4,0.8-2,0.6-3.7-1.2c-3-3-2.7-9.3,1-22 c1.6-5.4,2.8-10,2.6-10.2C152.5,28.3,152.5,28.3,152.4,28.3L152.4,28.3z M272.6,43.2c-13.9,0-16.6,0.5-19.8,3.4 c-1.5,1.4-9,13.3-9,14.3c0,0.2,7.1,0.4,15.8,0.4c16.9,0,22.9,0.9,22.5,3.3c-0.1,0.7-6.8,4.9-15.6,9.8c-8.4,4.7-16.7,9.5-18.4,10.7 c-3.1,2.2-3,2.2-0.6,1.7c14.7-3.3,29.5-8.5,33.8-12c7.8-6.4,19.2-22.8,18.3-26.3C298.6,44.8,290.9,43.2,272.6,43.2L272.6,43.2z M148.2,83.2c-1.5,0-2.9,0.4-4.2,1.2c-4.8,2.5-9.7,9.8-9.7,14.7c0,2.3,2.7,6,6,8.1l3.5,2.2l-2.6,2.4c-5.1,4.8-13.8,10.8-28.8,19.8 c-8.4,5-15.9,9.5-16.5,10c-4.6,3.1,14.5-3.6,24.5-8.6c8.1-4.1,18-11.4,23.1-17.2l4.1-4.6l2.9,2l3,2l1.1-1.8c0.8-1.3,1.6-2.7,2.2-4.1 c0.9-2.1,0.9-2.4-0.9-3.8c-1-0.8-2-1.6-3.1-2.2c-1.1-0.6-1.1-1.3-0.3-4.8c1.3-5.7,1.2-11.3-0.3-13.4 C151.3,83.8,149.8,83.2,148.2,83.2L148.2,83.2z M92.2,88.9c-0.4-0.2-4.8,8.8-6.6,13.9c-1.6,4.3-2.1,7.7-2.4,14.8 c-0.3,8.5-0.2,9.4,1.4,11.4c2.2,2.8,5.7,2.9,8.4,0.3c1.6-1.6,3.5-6.5,4.9-12.9c0.3-1.5,0.3-1.6-0.7-0.1c-4.6,6.8-7.6,7.9-9.9,3.6 c-1.7-3.4-1.1-9.7,1.9-20.2c1.3-4.4,2.6-8.9,2.9-10C92.3,89.2,92.3,89,92.2,88.9L92.2,88.9z M144.9,91.8c1.4,0,2,0.5,2.8,2.1 c0.6,1.3,0.8,2.8,0.6,4.2c-0.7,2.6-2,2.4-5.7-0.8c-2.9-2.5-3-2.8-1.9-4c1-0.8,2.3-1.3,3.6-1.4L144.9,91.8L144.9,91.8z M271.2,128 c-0.3,0-2.3,3.5-4.4,7.8l-3.9,7.8l1.9,1.2c1,0.7,4.8,3.3,8.3,5.8c2.2,1.7,4.5,3.2,6.9,4.6c0.6,0,5.6-9.1,6.9-12.7 c0.8-2.1,0.8-3,0.1-3.8C285.9,137.4,272,128,271.2,128L271.2,128z M341.8,143.2c-1.1,1.7-2.1,3.5-3,5.4c-7.8,15.5-9.2,34.4-2.8,37 c2.1,0.8,4.4,0.4,6.1-1.1c1.6-1.2,3.8-6.7,4.5-10.9l0.5-3.6l-1.5,2.4c-2.4,3.7-4.7,5.4-6.5,4.9c-4.3-1.4-4.3-10.9,0.1-25 C340.2,149.3,341.1,146.3,341.8,143.2L341.8,143.2z M214.8,145.9c-0.3,0.2-1.7,2.8-3.2,6.1c-6.4,14-8.1,29.6-3.7,34.3 c3.9,4.2,9.2,0.8,11.6-7.5c1.7-5.7,1.2-6.8-1.3-3s-5.6,4.6-7.6,1.5s-1.1-12.3,2.1-22.7C214.1,150,215.1,146.1,214.8,145.9 L214.8,145.9L214.8,145.9z M82.7,156.1c-1.2,0.2-2.3,0.7-3.1,1.6c-3.1,2.4-4.8,6.4-7.2,16.7c-3,12.6-3.3,13.2-4,8.9 c-2.1-12.4-8.9-22.4-15-22.4c-1.6,0-2.5,0.8-4.1,3.7c-2.7,4.8-2.6,5.5,0.5,8.4c2.2,2.1,3,2.3,5.6,1.9c3.6-0.6,4.2,0.2,8.2,10 s4.1,11.2,1.8,14.7c-1.9,2.8-4.3,11.3-3.4,12.2c0.2,0.2,1.4-0.7,2.5-2s2.7-2.5,3.4-2.5c2.3,0,5.5,3.2,3.3,3.2c-1.5,0.4-3,1-4.3,1.7 c-2.8,1.3-4,2.5-5.6,5.8c-1,2-1.7,4.1-2,6.4c0,1.2,1.1,7.9,2.5,14.8c3.1,15.8,4.7,27.6,4.8,35.8c0.1,5.5,0.2,6.1,0.9,4 c0.5-1.3,0.8-7.8,0.9-14.4c0.2-11.5-1.3-22.9-4.6-33.9l-1.8-6.2l2.6-1.7c3.1-1.6,6.4-2.9,9.8-3.9c6.9-2.1,7.3-2.3,8.4-5.2 c0.6-1.5,1.1-3.1,1.2-4.8c0-2.8-6.5-8.4-13.4-11.6c0.2-1.5,0.5-3,1-4.4c0.7-2.4,1.8-7.1,2.5-10.6c3-15,6-19.2,10.1-14.4 c2.2,2.6,3.7,2.5,4.7-0.1c1.4-3.7,0.9-6-2-8.8C85,157,83.9,156.2,82.7,156.1L82.7,156.1z M135.9,168.8c-0.4,0-2,2.5-3.6,5.6 c-0.9,1.9-1.9,3.8-3.1,5.6c-0.1,0-3.8-2.4-8.1-5.2s-8.1-5-8.5-4.8c-0.9,0.5-7.2,13.8-7.2,15.1c0,0.5,1.9,2.1,4.2,3.5 s5.8,3.8,7.8,5.4c1.3,1.1,2.7,2,4.2,2.8c0.3,0,1.9-2.5,3.6-5.6s3.3-5.6,3.7-5.6s3.8,2.2,7.7,4.8s7.4,4.8,7.8,4.8 c1.5,0,6.9-10.5,7-13.4c0.1-2.8-0.2-3.1-7.3-7.9C140,171.1,136.3,168.8,135.9,168.8L135.9,168.8z M134.2,237.7 c3.3,0,5.5,1.3,9.4,4.9c3.7,3.5,4.2,4.2,2.9,4.7c-2.6,1-14.9,0.7-17.6-0.5c-5.5-2.4-3.8-8.1,2.8-9 C132.6,237.7,133.4,237.7,134.2,237.7L134.2,237.7z M216.2,244c-3.4,0-6.5,2.6-7.7,6.4c-0.5,1.7-0.8,3.3-0.6,3.6s1.5-0.1,3-0.6 c5.3-2,7.3,2.6,3.8,8.5c-1.7,2.7-3.7,5.3-5.8,7.8c-2.1,2.4-4.4,5-5.1,5.9c-2.7,3.4,6.4-3.7,9.8-7.6C223.2,257.1,224.6,244,216.2,244 L216.2,244z M321.2,251.4c-5.3,0.1-7.9,1.8-10.2,6.3c-1.6,3.1-1.6,3.3-0.2,2.7c4.5-1.9,16.3-1,16.3,1.3c0,0.4-3.1,4.1-6.8,8.1 c-7.7,8.3-10.8,13.6-10.8,18.8c0,4.3,1,6.2,4.2,8.2c2.9,1.8,11.2,2.1,17.2,0.7c5.5-1.4,10.6-3.9,15-7.5c3.7-3.2,3-3.4-5.2-1.2 c-16.3,4.3-29.7,2.1-27.1-4.6c0.4-1.1,4.5-6,9-11c8.9-9.7,10.9-12.6,10.9-16.4c0-3.5-2.8-5-9.9-5.4 C322.8,251.4,322,251.4,321.2,251.4L321.2,251.4z M54,272c-0.9,1.1-1.6,2.4-2.2,3.7c-7.9,14.8-10.1,34.4-4.4,38.2 c1.8,1.2,5.4,0.6,7.2-1.3c1.7-1.6,2.7-4.2,5-12.9c0.2-0.9-0.7-0.1-2,1.8c-3.4,4.6-5.1,5.4-7.4,3.5c-1.7-1.4-1.9-2.2-1.8-7.4 c0-5.5,0.5-7.8,5.7-25.4C54.1,272.1,54.1,272,54,272L54,272z M259.8,273.6c-3.9,0-7.9,4.5-7.9,8.8c0,1.4,0.2,1.5,1.6,0.9 c2.1-1.1,5.1-1.1,6.3,0.1c2.5,2.5-0.3,8.4-8.1,17.2c-1.4,1.4-2.6,3-3.7,4.6c0,1.2,7.7-5.1,10.6-8.7c5.7-7.2,8.3-14.3,7-19 C264.5,274.4,263.5,273.7,259.8,273.6L259.8,273.6z M228.3,293c-0.2-0.2-47.8,17.2-78.1,28.6c-4.6,1.7-5.6,2.9-7.2,8.3 c-0.5,1.7-0.4,2.2,0.3,1.9c8-3.3,51.6-20.4,64.9-25.4l17.5-6.6l1.4-3.2C227.7,295.4,228.1,294.2,228.3,293L228.3,293z"/>
</svg>