<svg xmlns="http://www.w3.org/2000/svg" width="407" height="330">
<path d="M182.6,0c-2.3,0-5.5,2.7-7.2,6.1c-0.9,1.7-4.4,15.2-5.4,20.8c-0.7,3.8-1,3.1-3.2-5.4C164.4,12,158,4,152.9,4 c-1.8,0-5.7,5.9-5.7,8.5c0,2,4,5.9,6.1,6c1.1,0,2.1-0.2,3.1-0.5c1.3-0.4,2,0.1,3.4,2.5c2.2,3.9,6.2,14.8,6.9,18.8 c1.2,6.4,3.4,2.2,6.8-13.2c2.5-11.2,3.3-13.4,5.5-16c1.7-1.9,2.4-1.8,5,1.1s3.6,2.6,4.7-1.4C190,5.1,186.8,0,182.6,0L182.6,0z M342.3,3.3c-0.4-0.2-19.1,6.5-41.5,14.8l-40.7,15.1l-1.6,4.3c-0.9,2.3-1.6,4.3-1.6,4.5s7.1-2.6,15.8-6.1s26.6-10.5,39.8-15.5 s24.9-9.6,26-10.2C340.5,9.1,343.5,3.8,342.3,3.3z M244.6,20.3c-1,0.1-3.1,4.6-5.5,11.9c-1.6,4.6-1.6,4.7,0,11.2 c1,4.3,1.7,10.8,2,19.3c0.4,12.3,1,20.7,4.4,69.2c5.5,77.6,5.5,77.7-3.3,82.9c-2.6,1.5-5.4,2.7-8.3,3.5c-2.2,0.5-5.9,1.1-6.4,1.2 c0,0-0.1,0-0.1,0.1l-2.2-0.6c-2.6,0-7.4-4.3-8.9-7.9c-0.8-2-1.2-4.8-1-8.9c0.2-5.1,0.1-6-1.1-6.2c-0.8-0.2-5.1,3.2-11.2,9 c-16.8,15.8-23.4,19.2-38.2,19.2c-9.3,0-14.5-1.3-11.8-3.1c23.9-15,39.7-28.1,44.1-37c4.6-9.2,5.7-21.8,2.9-32.6 c-1.6-5.4-3.5-10.7-5.7-15.9c-2.3-5.4-4.3-10.3-4.6-10.9c-0.3-0.9,0.4-1,3.7-0.5c2.3,0.3,4.1,0.3,4.1,0c0-0.7-19.1-21.5-20-21.8 s-2.3,6.6-2.9,13.9c-0.4,5-0.3,6.2,1.2,8.5c1.8,3.5,3.3,7.2,4.6,10.9c1.6,4.5,5.4,13.8,8.4,20.6s5.6,13.1,5.6,14 c0,2.3-6.5,8.8-14.4,14.6c-14.2,10.4-34.9,22.7-36.2,21.5s-2-17.9-3-54.6c-1.9-69.5-3.7-91.8-8.9-112.2c-1.8-7.1-5.1-15-6.2-15 c-0.8,0-3.6,7.2-5,12.9c-0.8,3.1-0.6,4.6,0.7,9.2c6.5,22.7,7.6,34,9.7,100.3c0.4,14.3,1.2,33.7,1.8,43.2s1,18.4,1,20 c0.1,2.7-0.1,2.9-5.9,5.8c-11.7,5.9-32,15-58.9,26.5c-15,6.4-29.8,12.9-32.8,14.4c-5.5,2.8-5.5,2.8-2.5,2.9 c4.5,0.1,17.4-2.6,46.2-9.6c14.3-3.4,27.4-6.5,29.2-6.9c3.6-0.7,13.4-5,22.7-10.2l6.6-3.6l1.6,3.1c2.3,4.2,5.7,7.6,9.9,9.9 c2.9,1.5,4.6,1.7,13.4,1.8h10.1l7-3.5c7.1-3.5,12.8-8.4,22.3-19.1c2-2.3,4.2-4.2,4.8-4.2s1.4,1.9,1.9,5.6 c1.6,9.9,5.9,15.7,14.9,16.5l4.5,0.4h0.2l0,0c2.3-0.2,8.6-2.6,11.2-4.5c6.9-4.8,13.6-17.2,16.7-30.5c2.1-9,2.8-29.7,1.6-47 c-0.5-7-2.2-31.8-3.8-55s-2.8-42.4-2.5-42.7s2,1,3.8,2.8s3.8,3.3,4.5,3.3c2,0,0.9-4.2-6.1-22.8c-7.3-19.8-8.5-22.5-9.6-23.2 C244.7,20.4,244.7,20.3,244.6,20.3L244.6,20.3z M229.4,32.3c-0.2-0.2-18,6.2-39.5,14.2s-40.1,14.8-41.2,15.2 c-2.1,0.7-3.5,2.9-4.8,7.3c-0.4,1.2-0.5,2.2-0.4,2.2S152,68,161.9,64s27.5-10.8,39.1-15.2s22-8.4,23.3-8.9 C226.2,39,230.2,33.2,229.4,32.3L229.4,32.3z M69.3,38.7c-1,0.1-6.2,12.9-7.8,18.8c-2.2,8.5-2,19,0.4,21.6c2.3,2.3,6,2.2,8.2,0 c0,0,0.1-0.1,0.1-0.1c1.8-1.9,3.5-6.2,4.4-10.8c0.6-3.2,0.2-3.3-1.4-0.2c-3,5.8-7.7,5.8-9.2-0.1c-1.1-4.1-0.5-8.5,3-19.8 c1.5-5,2.6-9.2,2.4-9.4S69.4,38.7,69.3,38.7L69.3,38.7z M281.5,40.8c-1,0-2.6,3.3-5.1,10.8c-2.1,6.3-2.2,6.4-0.9,10.4 c0.9,2.8,1.7,10.3,2.5,24.1c0.6,11,1.7,27.7,2.4,37.2c6.6,94.8,7.6,113.4,6.8,124.4c-0.4,4.8-0.7,10.3-0.8,12.2s0.2,3.4,0.4,3.4 c1,0,5.2-10.8,7.1-18c1.4-6,2.3-12.1,2.9-18.2c1.1-12.6,0.5-23.6-6.1-111.8c-0.6-8.6-1.4-20.1-1.7-25.6l-0.5-10l4.1,3.8 c5.9,5.5,6.6,5.2,4.6-2.2C294.9,72.3,282.6,40.8,281.5,40.8L281.5,40.8z M210.7,62.5c-1.4,0-2.9,0-4.2,0.1 c-12.7,0.5-14.5,1.5-20,10.8l-4.1,7l17,0.5c16,0.4,21.4,1.2,21.4,3.1c0,1.3-3.3,3.5-13.3,8.8c-13.2,7.1-19.7,10.8-22,12.8 c-1.9,1.6-1.6,1.6,5.6-0.3c14.4-3.8,24.5-7.5,28.3-10.5c4.1-3.2,10.8-11.2,15.7-18.7c4-6.2,4-8.6,0-10.5 C231.7,63.7,220.7,62.4,210.7,62.5L210.7,62.5z M104,68c-2.1,0.1-4.2,0.8-6,1.9c-4.5,2.6-7.6,7.3-8.2,12.5c-0.4,3.8-0.2,4.1,2.7,7 c1.5,1.5,3,2.8,4.7,4c1.5,0.9,1.4,1.1-1.6,3.8c-5.6,5-14,10.6-29.8,20.1c-8.5,5-15.4,9.3-15.4,9.6s0.4,0.4,0.8,0.4 c1.4,0,18.6-6.5,22.8-8.6c8.5-4.4,16.3-10.1,23.1-16.7l5.9-6l2.4,2c0.9,0.8,1.8,1.5,2.8,2.1c0.8,0,3.8-5.4,3.8-7.1 c0-0.9-1.2-2.5-2.7-3.7l-2.7-2.1l1.1-5.4c1.2-5.5,0.8-10.9-0.7-12.8C106.3,68.2,105.1,67.8,104,68z M99.9,76c1.9-0.2,2.9,1.5,3.1,5 c0.3,4.4-0.5,4.7-4.9,1.7c-3.5-2.4-3.6-4.1-0.3-5.9C98.5,76.4,99.2,76.1,99.9,76z M47.4,89.8c-2.3,0-5,2-6.9,5.4 c-1.5,2.5-6,19.6-6,22.6c0,3.2-1.5,1.1-2.3-3.3c-1.2-6.4-5.9-15.5-9.2-18c-1.5-1.1-3.2-1.8-5-2c-2.1,0-2.7,0.5-4.7,4.3l-2.3,4.4 l2.4,2.4c2.7,2.8,5.5,3.8,7,2.6c0.5-0.5,1.3-0.6,1.9-0.3c1.4,0.9,4.6,7.8,7.4,15.7c2.2,6.2,2.4,7.2,1.3,7.8c-1,0.8-1.8,1.7-2.3,2.9 c-1.3,2.6-3.1,10.6-2.5,11.2c0.2,0.2,1.5-0.8,2.7-2.3c2-2.5,2.5-2.7,4.5-2c3.5,1.2,3.1,2.3-1.2,3.8c-3.2,1.1-4.4,2.1-6.1,5.1 c-2.8,4.8-2.8,9.3,0,23.1c2.9,14.4,4.5,26,4.6,34c0.1,9.3,1.5,5.8,2.2-5.2c0.5-10.1-0.8-21.9-3.9-34.2c-2-7.9-2.2-9.7-1.4-10.8 c1.3-1.6,6-3.6,12.8-5.4c4.7-1.2,5.5-1.7,6.6-4.1c2.2-4.6,1.7-6.6-2.6-10.8c-2-2-4.3-3.6-6.8-4.8c-2.4-0.9-2.9-1.4-2.5-2.7 c1-3.5,2.7-10.7,4-16.5c1.5-7.2,4.3-13,6.3-13.4c0.8-0.2,2.5,0.7,3.8,2c2.3,2.2,2.4,2.2,3.5,0.7c2.6-3.6,0.1-11.1-4.1-12.2 C48,89.8,47.7,89.8,47.4,89.8L47.4,89.8z M223.5,120.8c-0.8,0-6.6,13.5-7.9,18.4c-2,7.2-2,18.9-0.1,21.8s6.9,3.1,9.3,0 c1.8-2.2,4.1-9,4-11.8c0-1.6,0-1.6-0.9-0.1c-1.4,2.5-4.9,6-5.9,6c-0.6,0-1.8-1-2.8-2.2c-1.6-2-1.7-2.9-1.3-8.2 c0.6-5.1,1.6-10.1,3.2-15C222.5,124.8,223.6,120.8,223.5,120.8L223.5,120.8z M87.3,132.9c-2,0-3.3,0.6-5.8,2.5 c-5.1,3.9-9.5,10.5-9.5,14.2c-0.2,2,0.7,3.9,2.4,5c1,0.9,2.1,1.7,3.3,2.4c0.6,0.2-0.2,1.4-1.9,3.1c-1.7,1.5-2.9,3.5-3.4,5.8l-0.5,3 l12.2-8.3c6.7-4.6,12.9-8.7,13.7-9.1c1.4-0.8,4.2-7.3,3.4-8.1c-0.2-0.2-3.2,1.3-6.6,3.3c-6.7,4-8.6,4.4-12.7,2.4 c-3.8-1.8-4.2-3.5-1.2-6.1s6-2.9,7.4-0.6s1.9,2,3.3-1.5c0.8-1.7,1-3.6,0.7-5.4c-0.5-2-1.1-2.3-3.8-2.5 C87.9,132.9,87.6,132.9,87.3,132.9L87.3,132.9z M162.8,133.7c-0.6,0.2-5,10-6.9,15.2c-2.4,6.9-3.1,20.9-1.2,24.4 c0.6,1.3,1.7,2.3,3.1,2.8l2.3,0.4c1,0.2,4.9-3.4,5.7-5.4c1.2-3,3.1-10.9,2.4-10c-0.3,0.4-1.6,2.1-2.8,3.7c-2.5,3.4-4.4,3.8-6.6,1.3 c-2.5-2.8-2-11.1,1.5-22.7C161.3,140.4,162.1,137.1,162.8,133.7C162.8,133.8,162.8,133.8,162.8,133.7L162.8,133.7z M97.5,172.8 c-0.6,0-1.3,0.1-1.9,0.3c-3.2,0.8-10.2,8.4-14.4,15.7c-5.6,9.6-12.4,18.3-16.9,21.6c-5.1,3.9-14.7,8.8-30.5,15.9 c-7.5,3.4-14.5,7.1-16.6,8.9C7.3,243.5,0,257.3,0,268.1c0,7.7,6.2,12.3,19.8,14.6c10.6,1.8,18.3,2.3,45,2.9 c51,1.2,123.5,0.7,222.3-1.6l33.9-0.8l30.3-4.8c32.2-5.1,49.5-8.3,52.2-9.8l1.7-0.9l-1.8-0.6c-3.6-1.3-23.6-1.5-186.6-1.9 c-164.8-0.4-177.9-0.6-194.4-3.2c-13.9-2.2-16-4.9-8-10.2c4.8-3.1,12.1-6.5,23.8-10.7c11.3-4.1,19.7-8.8,24.8-13.9 c2.5-2.5,7.7-9.2,11.4-14.9c7.3-11.2,15.3-19.6,18.6-19.6c2.5,0,5.8,3.5,6.8,7.1c0.6,3.6,0.9,7.2,0.8,10.9c0,4.6,0.3,7.6,0.7,7.2 c1.2-1.3,4.8-13.2,5.8-19.2c1.3-7.2,0.1-14.5-3.4-20.9C102,174.2,100.1,172.8,97.5,172.8L97.5,172.8z M157.3,291.2 c-2,0.2-32.6,11.2-78.8,28.5c-3.4,1.3-4.3,2.6-6.2,8.3c-0.4,1.4-0.3,1.8,0.5,1.4c7.3-3,60.9-23.9,70.2-27.5 c11.6-4.4,12.4-4.9,13.4-7.4c0.5-1.1,0.8-2.2,0.9-3.4C157.4,291.2,157.4,291.2,157.3,291.2L157.3,291.2z M175.6,301.6 c-0.8,0-2.6,2.6-4.9,7.4l-3.6,7.4l1.9,1.4c1,0.8,4.6,3.3,7.9,5.8s6.5,4.3,7.1,4.2c1.4-0.2,8.4-13.7,7.9-15.2 S177.2,301.6,175.6,301.6L175.6,301.6z"/>
</svg>