<svg xmlns="http://www.w3.org/2000/svg" width="390" height="326">
<path d="M27.1,324.5c-12.3-2.2-22-11.9-25.9-26c-1.8-6.3-1.4-24.5,0.8-34.6c1.6-7.7,6.2-22.3,8-25.5c0.6-1.1,0.2-2.1-1.9-4.5 c-3.9-4.9-6.5-10.6-7.6-16.8c-2-11.2,2.2-29.1,11.1-48c3.8-8.1,3.9-8.4,2.6-10.3c-2.4-3.4-3.2-7.2-3.2-14.9c0.2-9.9,2-19.8,5.3-29.2 c2.5-7.1,9.2-20.5,9.6-19.4c0.2,0.5-1.4,6.2-3.4,12.8c-5.8,19.1-6.8,27.5-4.3,35.4c0.8,2.4,4,5,6.2,5c1.6,0,5.9-4.4,8.1-8.3 c2-3.4,2.3-3.8,2.3-2.1c0,2.8-2.1,10.5-4.1,15.1c-2.3,5.4-5.4,8.1-9.7,8.6l-3.5,0.4l-3.5,9.7C5.9,195.3,3.4,207,5.3,214.2 c3.3,12.4,12.9,15.8,26,9.2c7.1-3.6,12.8-8.5,25.2-22c24.5-26.6,34.2-35.7,47.1-44.3c15.1-10,32-13.9,42-9.8 c6.4,2.6,10.6,8.8,10.8,15.7c0,3.8-1.8,11.7-3.2,14.5c-0.8,1.5-1,1.3-3.1-2c-4.3-6.7-9.5-9.4-18.2-9.5c-12.1,0-27.1,7.7-42.2,21.8 c-3.5,3.2-14.2,14.5-23.9,24.9c-18.2,19.7-22.7,23.8-30.2,27.3c-6.1,2.9-14.1,2.9-19.6,0.1c-1.3-0.7-2.6-1.3-4-1.8 c-0.6,0.7-6,23.9-6.8,29.3c-3.3,23,7.9,37,29.7,37c14.4,0,31.2-7.5,52.6-23.4c9.2-6.8,29.8-27.1,31.3-30.8c0.7-1.8,0.8-3.8,0.3-5.6 c-0.6-2.6-1-3-2.7-2.9c-24.9,2.3-34.5,0-38.5-9.2c-1.3-3-1.5-4.6-1.1-9.1c1-10.6,6.2-19.8,14.4-25.3c3.3-2.2,4.6-2.6,8.8-2.6 s5.4,0.3,8.7,2.6c4.5,3.2,10.6,10.7,14.6,17.7c2.8,4.9,3,5.1,5,4.3c3.2-1.2,15-7.7,21.2-11.7c7.6-4.9,7.8-4.8,7.7,3.1 c-0.2,8.4,1.5,11.9,8,17c1.6,1.3,3.2,2.5,5,3.6c0.2,0,1.1-1.3,1.8-2.9c5.9-12.4,22.9-39.5,30.3-48.4c8.4-10,19.1-16.6,28.3-17.4 c13.3-1.1,26.4,5.2,35.1,16.8c4.8,6.4,5.6,9.7,4.6,18.4s-4.1,15.2-11.1,23.4l-5.1,6l8.2-2.8c4.5-1.6,14.1-5.6,21.2-9 c13-6.1,13-6.1,12.6-8.5c-0.2-1.3-1.3-7.6-2.4-14c-2.5-14.8-5.6-42.5-7.6-69.6c-2.3-30.4-2.5-33.9-3.2-58.8c-0.5-17.2-1-23.5-2.1-27 c-1.3-4.3-1.3-4.8,0-8.6c2-5.9,5.1-12.8,5.9-12.8c1.3,0,17,41.5,17,45c0,2.3-1.9,1.6-5.6-2.2c-2.6-2.7-3.7-3.3-4.1-2.5 c-1,1.8,2.1,59.7,5,94.1c2,24.1,6.2,51.4,8.2,53.3c0.2,0.2,2.1-0.2,4.2-0.9c6.2-2.1,16.9-3.1,20.9-2.1c4.5,1.2,8.4,5.3,10.7,11 c1.5,3.9,1.9,6.2,1.9,13.9c0,8.8-0.1,9.5-2.5,14.4c-2,4-3.3,5.6-5.7,7c-9.5,5.3-23.9-1.7-32.6-15.9l-2.8-4.6l-10.9,4.8 c-23.9,10.4-38,15.3-55.9,19c-22.6,4.7-47,5.8-58.9,2.6c-7.4-2-6.9-1.9-6.9-0.8c0,1.5-5,11.9-5.7,11.9c-1,0-0.8-4.6,0.5-10 c1.1-4.4,1-4.9-0.2-5.6c-2.9-1.7-9-8.5-10.2-11.4c-1-2.5-1.7-5-2.2-7.6l-1-4.6l-4.4,3c-2.4,1.6-7.4,4.6-11.2,6.6l-6.8,3.6l-0.6,4.8 c-0.7,6-3.9,15.3-7.4,21.6c-6.5,11.6-28.8,33-47,45C55.1,322.1,39.7,326.8,27.1,324.5L27.1,324.5z M212.5,235 c8.9-2.5,13.6-4.4,23.4-9.3c12.9-6.5,23.1-13.8,26.2-19c1.3-2.1,1.3-2.6,0.3-4.5c-1.6-2.4-3.6-4.5-5.8-6.4 c-14.7-13.5-27.8-16.6-41-10c-7.4,3.8-18.1,14.6-26.3,26.7c-4.7,7-13.1,21.8-12.6,22.3C179.9,237.7,202.1,237.9,212.5,235L212.5,235 z M334.4,228.4c1.1-1.7-1.1-4.4-4.9-6c-2.8-1.2-10-1.4-12.6-0.4c-1.5,0.6-1.5,0.7,0.6,2.8C322.4,229.7,332.3,231.7,334.4,228.4 L334.4,228.4z M108.1,223.2c1.1-0.6,0.7-1.3-2.4-4.1c-4.8-4.4-8.6-6-12.7-5.3c-4.7,0.8-6.1,1.8-6.1,4.4c0,4.4,5.1,6.6,14.2,6.1 C104.2,224.1,107.4,223.6,108.1,223.2L108.1,223.2z M75.7,314.8c0.6-1.6,1.3-3.2,2.2-4.7c0.3-0.3,9.1-3.7,19.4-7.5l40.6-15 c12-4.4,22-7.9,22.3-7.6s-0.2,1.8-1.1,3.4c-1.5,2.9-2.1,3.2-17.9,9.2c-13.9,5.3-48.7,18.9-62.9,24.7l-4.2,1.7L75.7,314.8z M158.1,299.9c0-3.6,7-12.1,10-12.1c1.2,0.2,2.3,0.6,3.3,1.2c2.9,1.5,8.3,1.5,10.3,0.1c1.5-1.1,1.5-1.3,0.1-5.5 c-0.7-1.9-1.1-4-1.4-6c0-1.9,1.6-5.8,2.4-5.8c0.3,0,1.4,2,2.4,4.5c2.2,5.2,5.2,9.1,7.1,9.1c0.8,0,3.7-2.4,6.5-5.3 c8.5-8.6,13.9-11,18-8c2.1,1.5,1.9,7.8-0.3,12.2c-2.7,5.4-11.3,9.9-18.8,9.9c-3.6,0-5.1,0.8-7.3,4l-1.4,2l0.2-2.9 c0.2-2.4-0.2-3.3-1.8-4.6l-2-1.6l-1.3,2.7c-2.3,4.9-6.8,6-16.2,4c-1.9-0.4-3.1,0-5.8,1.9c-1.2,0.9-2.5,1.8-3.8,2.5 C158.3,302.2,158.1,301.2,158.1,299.9L158.1,299.9z M207.2,284.6c5.2-2,7.5-4.1,5.9-5.5c-2.8-2.3-9.5,0.1-14.1,5l-2,2.1h2.9 C202.4,286,204.8,285.4,207.2,284.6L207.2,284.6z M213.3,298.6c2.9-1.5,5.8-2.8,8.8-4c15.3-6.5,37-16.8,42-20 c10.4-6.6,14.3-10.4,18.4-17.6c2.5-4.4,4.6-7.2,5.8-7.6s1.9-1.1,1.9-1.5c0.5-1.2,1.2-2.3,2.1-3.2c1.7-2,2.7-2.5,5.2-2.5 c2.6,0,3.4,0.4,5.3,2.9s2.2,3.6,2.2,8.6c0,12.7-4.5,14.6-15.1,6.5c-1.2-1.1-2.6-2-4-2.7c-0.1,0.1-1.2,2.6-2.5,5.4 c-4.2,9.2-14.7,18.2-30,25.5c-5,2.4-10.6,4.1-20.8,6.4C217.6,298.3,213.3,299.2,213.3,298.6L213.3,298.6z M302.1,256.7 c-0.4-1.2-1-2.4-1.8-3.4c-2-3-5.3-4-7-1.9c-1.2,1.5-1.4,1.4,3.2,3.9C300.2,257.4,302.1,257.9,302.1,256.7L302.1,256.7z M136.6,275.7 c5.9-6.9,8-9.8,9.2-12.6c1-2.4,1-2.9-0.1-4.6c-1.4-2.1-3.6-2.5-6.1-1.1c-2.4,1.3-2.7,0.4-1.1-3.6c1.6-4.2,3.8-6,7.3-6 c4.3,0,5.6,1.6,5.5,6.9c0,6.3-3.1,11.8-10.5,19.3C134.1,280.7,131.5,281.7,136.6,275.7L136.6,275.7z M348.2,235.2 c0.3-10.1,0.1-22.6-0.5-31.9c-1-16.4-3.8-57.8-6.4-95.6c-0.9-13-2-30.1-2.4-38c-0.5-9-1.2-16-2.1-18.7c-0.7-2.4-1.1-5.2-0.8-6.4 c1.1-4.5,5.6-15.3,6.5-15.3s10,22.3,14.6,36.2c3.6,10.8,3,12.1-2.9,6.7c-2.2-2.1-4.1-3.4-4.3-3.1s0.1,6.9,0.7,14.6 c2,28.1,3.5,49.6,4.7,65.2c4.1,56.1,4.2,66.9,0.4,82.6c-1.7,7.2-6.1,19.1-7.2,19.8C348,251.7,347.9,245.4,348.2,235.2L348.2,235.2z M171.8,166.2c-2.9-2.9-3.1-12-0.3-22.9c1.1-4.4,7.4-19.1,7.9-18.6c-0.7,3.2-1.5,6.3-2.5,9.4c-2.9,9.6-4.1,17.6-3.2,21.1 c0.5,1.4,1.3,2.6,2.5,3.4c1.9,1.2,2.1,1.2,3.7-0.2c1.2-1.2,2.3-2.5,3.2-3.9c1.3-2,1.5-2.1,1.5-0.8c0,3.2-2.5,10.2-4.4,12 C177.7,168.1,173.9,168.3,171.8,166.2L171.8,166.2z M313.6,143.8c-2.9-1.2-3.8-4.9-3.3-13.8c0.1-4.4,0.8-8.9,2.1-13.1 c1.7-5.1,6.6-15.7,7-15.3c-0.7,3.3-1.6,6.6-2.6,9.8c-3.4,11.6-4,20-1.5,22.7c0.7,0.9,1.7,1.5,2.9,1.7c1.5,0,4.1-2.6,5.6-5.5 s1.7-1.6,0.3,3.5c-1.5,5.9-3.2,8.8-5.7,9.9C316.2,144.7,315.9,144.7,313.6,143.8L313.6,143.8z M214.9,133c0-0.2,6.2-4.1,13.8-8.5 c16.4-9.7,26-16.1,31.4-20.9l4-3.5l-3.4-1.9c-3.3-1.9-6.5-5.8-6.5-8.1c0-5.2,5.4-12.9,10.7-15.4c3.5-1.7,4.9-1.6,6.9,0.3 s2.2,8.2,0.7,14.2l-0.9,3.7l3.1,2.6c3,2.5,3,2.7,2.1,4.9c-0.6,1.4-1.4,2.8-2.2,4.1l-1.2,1.8l-5.6-4.2l-5.8,6 c-9.3,9.5-18.7,15.3-35,21.4C216.7,133.3,214.9,133.8,214.9,133L214.9,133z M268.2,89c1.3-5.1-2.5-8.3-6.5-5.7 c-2.7,1.8-2.5,2.4,1.4,5.2C267,91.5,267.5,91.6,268.2,89L268.2,89z M150.5,129.5c1.5-4.4,2.8-6.5,3.6-6.5c0.4,0,18.8-6.7,40.9-14.8 s40.3-14.7,40.5-14.5s-0.4,1.8-1.2,3.5c-1.6,3.1-1.9,3.3-17.1,9c-11.6,4.4-58.2,22.6-66.8,26.2C149.6,132.7,149.6,132,150.5,129.5 L150.5,129.5z M49.7,127.1c0.2-0.4,6.1-4.1,13-8.1c16.1-9.5,26-16.1,30.8-20.6l3.8-3.6l-3-2c-4.6-3-5.8-4.9-5.8-9 c0-4.6,2.5-9.1,7-12.6c4.2-3.2,9.1-3.7,10.5-1.1c1.1,2,1.1,10.8,0,14.5c-0.8,2.6-0.7,2.9,2,5.2c1.6,1.3,2.8,2.9,2.8,3.4 c0,1.2-3.1,7.4-3.7,7.4c-1.1-0.5-2.1-1.2-3-2l-2.6-2l-6.8,6.6c-10.3,10-18.2,14.8-35.5,21.3C50.4,127.8,48.9,128.2,49.7,127.1 L49.7,127.1z M102.1,82.5c0-5.5-2.5-7.3-6.2-4.7c-2.5,1.8-2.2,3.2,1.2,5.5C101.2,86.1,102.1,86,102.1,82.5L102.1,82.5z M54.4,85.6 c-2-1.4-2.7-4.5-2.7-11.2c0-8.2,1.7-15.3,6-24.7c3.2-7.1,4.4-7.6,2.1-1c-5,14.4-5.9,24.7-2.7,28c2.2,2.2,4.4,1.3,7.4-3.2 c2.2-3.3,2.4-3.5,2-1.4c-2.3,10.2-4.3,13.5-8.4,13.8C56.9,86.1,55.6,86,54.4,85.6L54.4,85.6z M165.4,72.8c-1-4.8-5.2-15.8-7.3-19.2 c-1.4-2.4-1.7-2.5-3.9-1.7c-2,0.8-2.7,0.6-4.9-0.9c-4.2-3-4.6-4.5-1.9-8.8c1.8-3,2.8-3.8,4.8-4c5.1-0.5,11,7.4,13.9,18.7 c0.5,2.2,1.1,4.4,1.9,6.5c0.2,0.2,0.6-1.2,0.9-3.1c0.9-6.1,4.3-18.1,6-21.4c1.8-3.5,4.4-5.7,6.7-5.7c0.8,0,2.5,1,3.8,2.3 c1.6,1.4,2.5,3.4,2.3,5.5c0,6-1.5,7.2-4.8,3.7c-4.4-4.7-6.8-1.2-10.4,14.9c-2.6,11.5-3.6,14.6-5.2,15.9 C166.5,76.4,166.1,75.8,165.4,72.8L165.4,72.8z M213.2,67c3.2-2.2,6.6-4.3,10-6.1l15.8-8.8c8.7-4.8,10.1-6,8.5-7.4 c-1.9-1.6-16.4-2.7-27.1-2.2c-8.1,0.4-10.2,0.3-10.2-0.5c0-0.6,1.8-3.9,3.8-7.4c5.6-9.4,7-10,24.1-10c27.4,0,31.3,2.4,23.3,14.4 c-8.3,12.5-14.7,18.7-22.2,21.5c-4.4,1.6-21.1,6.6-25.5,7.5l-2.4,0.5L213.2,67z M304.4,35c0.6-1.7,1.3-3.3,2.2-4.8 C307.8,29.2,388.6-0.4,389,0c0.9,0.9-3,6.9-4.7,7.4c-4.7,1.5-67.2,25.8-80.5,31.3C303.1,39,303.3,37.9,304.4,35L304.4,35z"/>
</svg>