<svg xmlns="http://www.w3.org/2000/svg" width="360" height="381">
<path d="M355,0c-0.1-0.4-18.2,6-40.2,14.1s-40.4,14.9-41,15.1c-0.9,0.3-2.5,3.5-3.8,7.6c-0.5,1.4-0.3,1.7,0.5,1.4 c10.2-4.1,55.4-21.8,67-26.2c14.8-5.6,15.6-6,16.6-8.6C354.6,2.3,354.9,1.2,355,0z M255.2,5.6c-0.8,0.1-1.5,0.4-2.2,0.8 c-3.9,2.2-6.7,9.5-10.3,27.2c-0.5,2.6-1.3,1.2-2.7-4.8c-2-8.8-6.7-15.9-11.9-18.1c-3.1-1.3-3.6-1.1-6.2,3c-2.7,4.3-2.6,6.6,0.7,9.1 c2.9,2.2,5.2,2.6,6.7,1.1c0.7-0.7,1.4,0,2.9,2.3c2.1,3.3,7.8,18.9,7.8,21.4c0,1.1,0.2,1.2,1.1,0.5c1.7-1.4,2.6-4.3,5.2-15.7 c3.6-16.3,6.1-19.8,10.5-15.2c2.7,2.8,3.8,2.5,4.8-1.2c0.8-2.8,0.7-3.6-0.6-5.8c-0.9-1.5-2.2-2.8-3.6-3.8C256.7,6,256,5.7,255.2,5.6 L255.2,5.6z M305.6,28c-0.9,0-6.4,14.8-6.4,17.1c0.2,2.2,0.6,4.4,1.1,6.6c0.9,5.3,1.5,10.6,1.6,15.9c0.6,13.9,2.2,39.6,4.4,68.4 c4.2,57.8,4.9,73.8,3.2,80.4c-1,3.9-3.5,6.1-10.7,9.4c-9.5,4.3-29.9,0.6-39.6-7.2l-2-1.6l12.8-6.4l12.8-6.4l2.6-5.6 c5-11,4.3-13.6-4.9-18.2c-13.8-7-38.2-10.1-55.3-7.1c-8.9,1.6-20.6,5.3-25.9,8.4l-4.2,2.4l-2.6,8.6l-2.7,8.6l-1.8-4.9 c-2.3-6.3-5.3-9-10-9s-9.5,3.5-16.1,12c-6.1,7.9-9.5,15.9-11.2,26.4c-0.4,2.7,0.6,12.8,1.6,16.5c0.4,1.5-0.2,1.9-4.6,3.7 c-7.5,2.8-15.5,4.3-23.5,4.6h-5.1h-3.8c-4.5-0.2-8.7-2.3-11.6-5.7c-4.8-6.3-6.2-15.2-7.3-44.1L96,189l14-15.2 c16.2-17.6,27.1-26.9,38.2-32.4c16.2-8.1,27.5-8,35,0.2c1.6,1.7,3.1,3.5,4.5,5.4c0.8,1.4,1.1,1.4,1.8,0.4c1-2.3,1.7-4.7,2.1-7.1 c2.3-10.2,0.4-16.8-6.1-21.3c-3.8-2.7-7.2-3.6-13.6-3.6c-18.7,0-41.3,14.2-66.4,41.8c-5.1,5.6-9.5,10.1-9.8,10.1s-0.6-4.2-0.6-9.4 c0-33.3-3.6-74-8.1-91.6c-1.8-7-5.3-15.8-6.4-15.8c-0.7,0-3.5,7.1-4.8,12.4c-0.8,3.2-0.6,4.8,1.9,15c5.1,20.6,6.1,30.5,7.8,75.3 l0.9,24.7l-3,3.1c-5.1,5.1-11,9.4-17.5,12.7c-11.6,5.5-21.8,1.2-24.5-10.3c-1.6-6.8,0.2-15.7,6.9-35.8c4.6-13.5,6.2-17.6,7.3-17.8 c4.5-0.7,5.1-1.2,6.9-4.8c1.1-2.3,2-4.8,2.5-7.4l0.6-3.6l-1.9,2.7c-1,1.5-2.2,2.8-3.7,3.9c-1.6,1.1-1.9,1-3.8-0.9 c-3.2-3.2-2.8-9.7,1.2-21.3c1.3-3.4,2.3-6.8,3.2-10.2c0-0.6-1.1-2.2-2.4-3.5c-2.2-2.2-2.4-2.7-1.7-5c2.5-8.1,1.6-15.3-2-16.2 c-3.1-0.8-5.8,0.3-9.7,3.9c-4.2,3.8-5.8,7.2-5.8,11.7c0,3.7,1.8,6.4,5.9,8.6c1.6,0.8,2.8,1.9,2.6,2.3c-0.7,2.2-15,12.3-30.5,21.5 C7.8,117.2,0,122.2,0,122.6c0,0.7,11-3.1,20-6.9c7.9-3.3,20.5-12,26.5-18.1c2.9-3,5.7-5.5,6.1-5.5c0.9,0.3,1.6,0.9,2.2,1.6 c1.4,1.5,1.4,1.9-1,10.2c-3.2,11.3-3.8,16.5-2.3,20.9l1.2,3.5l-3.7,7.7c-15.8,33.8-16.9,54.1-3.6,68.3c5.5,5.9,8.8,7.4,16.5,7.4 c5.6,0,7-0.3,11.2-2.6c3.2-1.8,6.3-3.9,9.2-6.2l4.4-3.7l0.6,8.6c2.3,36.5,3,41.1,7.4,49.8c3.8,7.5,8.8,11.4,16.5,12.6 c2.6,0.4,4.3,1,5.3,1.1l0,0c0.3,0,0.6,0,0.9-0.1l6.3-0.6c13.2-1.3,26.3-5.4,35.8-11.2c1.6-1,3.3-1.9,5-2.7c0.2,0,4.1,1.8,8.5,4 s11,5.1,14.5,6.4c4.1,1.5,6.3,2.7,6.1,3.4s-1.1,4.3-2.2,8.3c-5.7,21.2-5.8,50.6-0.3,66.9c6.8,20,21.9,32,43.6,34.6 c8.8,0.7,17.6,0.5,26.3-0.7c17.5-3.1,34.7-12.8,49.1-28c8.5-8.9,12.6-14.7,17.1-24s6.3-16.8,6.9-27.6s-0.4-16.2-3.9-23.1 c-3.1-6.2-10.3-13-16.1-15.1c-9-3.4-25.8-4.9-54.5-4.9c-25.9,0-47.6-1.6-47.6-3.4c0-1.5,17.3-18.1,23.1-22.1l5.9-4.1l4.9,3.9 c18.5,14.4,39.5,20.5,51.5,14.9c12.4-5.8,20.7-23.4,22.7-48.1c1-12.6,0.4-24.5-6.1-112.2c-0.7-9.4-1.1-17.2-0.9-17.5s2,1.3,4,3.3 c4.7,4.7,5.6,4.7,5,0.1C321.4,66.4,306.9,28,305.6,28z M210,29.6c-1,0-81.2,29.4-81.9,30c-0.7,1.4-1.3,2.8-1.8,4.3 c-0.8,2.3-1.3,4.1-1,4.1s9.2-3.4,19.8-7.7c15.3-6.1,57.1-22.2,61.9-23.9c0.5-0.2,1.7-1.8,2.6-3.6C211,30.2,211,29.7,210,29.6 L210,29.6z M342.5,52c-0.9,0-5.7,11.2-6.2,14.8c-0.1,2.6,0.1,5.2,0.8,7.7c0.9,5.1,1.5,10.3,1.7,15.5c0.5,11.1,2.1,35.2,6,91.6 c4.6,67.8,4.6,68.9,2.8,87.8c-0.7,6.7,0.6,6.5,3.6-0.8c3.2-8.1,5.4-16.7,6.5-25.4c1.7-13.6,1.4-20.6-5.2-111.1 c-1.6-22.1-2.8-40.4-2.6-40.6s2,1.3,4.1,3.2s4.2,3.6,4.6,3.6c1.8,0-0.1-7.1-6.4-23.7C344.3,54,343.5,52,342.5,52z M289.9,54.5 c-1.7,0.1-8.3,2.5-31.5,11.1C242.8,71.4,225,78,218.9,80.3c-10.9,4-11.1,4.1-12.6,7.3c-0.7,1.3-1.2,2.8-1.5,4.2c0,0.6,0.1,1,0.3,1 s11.6-4.4,25.4-9.9c31.7-12.5,54.8-21.3,55.9-21.3c0.7,0,4-5.6,4-6.8C290.4,54.6,290.3,54.5,289.9,54.5L289.9,54.5z M178.6,69.2 c-0.4,0.1-0.8,0.8-1.4,2.4c-1.6,3.8-1.1,7,2.2,14.2c2.9,6.2,2.6,7.8-1.2,7.8c-4.3,0-6-2.6-7-10.1s-2.5-13.5-3.6-13.3 c-1.7,0.4-2.2,4.6-1.3,10c1.5,8.9,1.3,10.5-1.9,13.3s-5.2,3.1-7.2,0.8c-1.3-1.4-1.5-3-1.6-9.8c-0.1-10.4-0.1-10.9-1.4-10.9 c-1.5,0-3.6,2.4-4.6,5.6c-0.9,2.4-0.8,2.8,0.8,3.8s1.7,1.9,1.7,7.4c0,6.5,0.8,9.7,3,12.2c1.8,1.9,6.7,1.8,9.3-0.2 c1.4-1.2,2.4-2.7,3.1-4.4c0.6-1.5,1.2-2.8,1.4-2.8s1.1,1.2,1.9,2.8c3.1,5.9,9,5.5,12-0.7c2.6-5.3,2.6-9.7-0.2-16.9 c-1.1-2.6-1.9-5.3-2.5-8c0-1-0.3-1.9-0.8-2.8C179,69.3,178.8,69.1,178.6,69.2L178.6,69.2z M49.6,71.5c0.6,0.1,1.2,0.5,1.7,1 c1.1,1.2,1.7,2.8,1.5,4.4c0,1.7-0.3,3.2-0.7,3.5s-2.2-0.7-4-2c-3.8-2.8-4-4.6-0.6-6.2C48.1,71.8,48.9,71.6,49.6,71.5L49.6,71.5z M114.7,81.7c-0.6,0-4.1,7.2-6.4,13.5c-1.8,4.9-2.3,7.8-2.6,15.2c-0.3,8.6-0.2,9.4,1.4,11.4c1.8,2.4,5.2,2.9,7.6,1.1 c0.1,0,0.1-0.1,0.2-0.1c1.7-1.2,4.4-7.3,5.3-12.3l0.5-2.7l-2.3,3.2c-4.2,5.8-7.1,6-8.9,0.5c-1.3-3.9-0.5-9.5,2.8-20.4 C113.9,86.1,115,81.9,114.7,81.7C114.8,81.7,114.8,81.7,114.7,81.7L114.7,81.7z M261.8,88.9c-4.2,0.1-5.5,0.5-7.6,1.4 c-3.8,1.7-6.7,5.2-10.9,13.5l-1.7,3.3l17.4,0.2c17.4,0.3,21.5,0.9,20.8,3.3c-0.3,1-7.5,5.2-23.8,14.1c-5.1,2.8-9.9,5.7-10.8,6.5 c-2.1,2-1.5,1.9,9.6-1.2c19.8-5.7,21.6-6.5,28.7-14.1c5.8-6.1,13-16.5,13.8-19.8c0.4-1.5,0.1-2.4-1.3-3.4c-3.2-2.6-7.3-3.2-22.9-3.7 C267.8,88.9,264.3,88.8,261.8,88.9L261.8,88.9z M220,128.4c0,0-0.1,0-0.1,0c-1.1,0.7-7.3,14-6.9,15c0.1,0.4,3.7,3.2,7.8,6.2 s7.9,5.4,8.4,5.2c1.1-0.3,7.6-12.5,7.6-14.4s-0.6-2.4-9.4-8.2C224,130,220.8,128.4,220,128.4L220,128.4z M161,148 c-0.4,0-2.5,3.5-4.6,7.7c-3.1,6.3-3.6,7.9-2.7,8.4c0.6,0.4,4.4,3,8.3,5.8c2.4,1.9,5,3.6,7.6,5.2c0.6,0.1,5.4-8.6,7-12.6 c0.9-2.3,0.9-2.8-0.4-4.3C174.5,156.4,162.1,148.1,161,148L161,148z M126,182.6c-0.9,0.4-6.8,14.4-8.1,19c-1.9,7.3-2,18.9-0.1,21.8 c2,3.1,6.9,3.1,9.3,0.1c1.8-2.2,4.1-9.1,4-11.9c0-1.6,0-1.6-0.9,0c-1.4,2.5-4.9,6-6,6c-0.6,0-1.8-1-2.7-2.2c-1.6-2-1.7-2.9-1.3-8.2 c0.6-5.2,1.7-10.2,3.2-15.2C124.5,189,125.3,185.9,126,182.6C126,182.7,126,182.7,126,182.6L126,182.6z M242.6,192.9 c2.9,0,5.8,0.2,8.7,0.7c4.9,0.9,8.7,2.3,8.7,3.2c0,0.3-3.2,2.4-7.2,4.7c-2.5,1.5-5.1,2.9-7.8,4.1c-1.1-0.7-2.1-1.5-3-2.5 c-2.1-2.1-4.4-4-6.7-5.8l-4.4-3.3l3.1-0.6C236.9,193,239.7,192.8,242.6,192.9L242.6,192.9z M204.4,199.2c4,0,14.6,6.4,22.7,13.8 l4.2,3.8l-8.4,8.4c-8.5,8.5-17.2,19.4-19.6,24.2c-0.7,1.4-1.6,2.6-2.1,2.6c-1.9-0.1-18.9-7-18.9-7.7c0-0.2,1.2-3,2.8-6.1 c3.8-7.9,5.5-15.4,5.6-25l0.1-8.1l6-2.9C200.1,200.6,203.5,199.3,204.4,199.2L204.4,199.2z M174.3,206c0.6,0.1,1,0.5,1.9,1.4 c2.5,2.5,6.9,13.4,6.9,17.2c0,2.5-0.6,3.6-3,6c-2,1.8-4.1,3.5-6.4,4.9c-1.2,0.9-2.6,1.6-4,2.1c-1.7-0.7-3.3-1.7-4.8-2.8 c-4.9-3.3-8.2-7.4-8.2-10.1c0-4.1,8.9-14.6,15.1-17.8C172.6,206.4,173.4,206.1,174.3,206L174.3,206z M204.5,271.5 c1.3,0.1,2.6,0.2,3.9,0.5c12.3,2,19.6,2.5,49.2,3.3c33.4,0.8,42.5,1.5,50.1,4c11.8,3.9,20.7,14.1,21.6,24.7 c0.7,8.4-4.8,18-16.9,29.5c-14.3,13.6-32.7,23.1-50.8,26.2c-17,3-37.3-0.2-48.6-7.5c-12.7-8.3-18.5-19.8-19.2-38.5 c-0.5-11.5,0.7-20,4.5-32C200.9,273.4,201.5,271.4,204.5,271.5L204.5,271.5z M233.5,282.4c-3.3,0-11.2,7.5-14,13.3 s-2.3,9.2,2.4,12.1l3.4,2.1l-2.8,4.4c-3.6,5.7-5.8,11.9-5.8,16.9c0,5.1,2.9,8.7,7.6,9.6c1.7,0.3,3.4,0.4,5.1,0.3 c1.1-0.1,4.1-0.5,6.6-0.7c5.5-0.6,14.4-4.8,17.8-8.5c2.4-2.5,2.4-2.5,0.4-2c-17.6,4.9-32.4,4.8-34-0.3c-1.2-3.9,6.5-14.8,16.3-22.8 c6.2-5.1,7.9-7.8,8-12.4v-2.8l-3,2.8c-7.2,6.8-10.3,7.7-15.2,4.7c-3.1-1.9-3.3-3.7-0.6-6.6c2.4-2.6,4.6-2.8,6.2-0.5 c1.1,1.6,1.2,1.6,3.3-1.9c1.7-2.9,1.9-4,1.3-5.7S235.4,282.5,233.5,282.4L233.5,282.4z M283.4,291.3c-1.9,0-3.7,0.6-5.3,1.6 c-1.9,1.5-4.5,7.5-3.6,8.4c0.2,0.2,1.5-0.1,3-0.6c3.3-1.2,5.2-0.1,5.5,3.1c0.3,2.7-2.9,7.8-8.8,14.3c-1.4,1.5-2.7,3.1-3.9,4.8 c0,0.8,2.5-0.8,6.2-4c5.4-4.6,10.4-12.6,11.7-18.8c0.5-2.5-0.7-7.1-2.1-8C285.3,291.5,284.4,291.3,283.4,291.3L283.4,291.3z"/>
</svg>