<svg xmlns="http://www.w3.org/2000/svg" width="334" height="323">
<path d="M241.5,0c-4.8,0-8.7,8-12.1,25.2c-1.1,5.4-1.3,5.2-3.6-3.8C223.5,12,217.1,4,211.9,4c-1.8,0-5.7,5.8-5.7,8.5 c0,3,7.1,8,8.4,5.9c1-1.6,2.5-0.8,4.2,2.2c2.1,3.8,6.2,14.8,6.9,18.8c1.2,6.6,3.5,2.3,6.9-12.9c1.3-5.9,3-12,3.8-13.6 c1.9-3.8,4.7-4.3,7.1-1.2c1.4,1.8,2,2.1,2.9,1.3C250.7,9.4,247.1,0,241.5,0L241.5,0z M333.1,8.3c-1.3,0.1-10,3-20.2,6.8 c-10.9,4-29.3,10.8-40.8,15.1L251.1,38l-1.6,3.8c-0.7,1.5-1.2,3-1.6,4.5c0,0.5,2.9-0.4,6.5-2c3.6-1.5,6.6-2.7,6.8-2.5 c-0.5,2.5-1.2,4.9-2.2,7.2c-2.4,6.9-2.4,7-1.1,10.8c0.9,2.5,1.6,8.5,2,17c0.7,13.4,2.2,36.1,4.3,65.6c4.9,68.3,5.3,80.9,2.8,86 c-1.3,2.7-8.2,7.1-13.2,8.6c-7.9,2.2-18,0.2-23.6-4.8l-3.4-3.1l2.9-4.1c8.3-11.6,10.8-29.4,5.7-41.9c-4.1-10-9.5-15.9-14.7-15.9 c-6.8,0-12.2,6.5-14.9,17.8c-1.7,7.1-1.5,23.4,0.3,30.4c1.3,4.9,1.3,5.5,0.1,6.1c-0.7,0.4-5.8,2.5-11.3,4.9 c-9.6,4.1-10.3,4.5-16.8,11.1c-5.8,5.8-7.5,8.1-11,15.3c-4.5,9.3-7.5,19.3-8.6,29.6l-0.6,6l-1.4-4.4c-2-6.1-1.9-16.5,0.1-24.4 c0.9-3.4,4.5-13,8-21.3c7.7-18.1,10.6-26.4,10.2-29.7l-0.2-2.5l-6.8,6.8c-10.2,10.2-18.4,14.2-32.1,16l-6.8,0.9l0.3-0.1l-6.1-0.7 c-2.4-0.5-4.7-1.3-6.8-2.6l-2.1-1.6l5.8-4.6c3.1-2.5,6-5.2,8.7-8.2l3-3.6l5.8,0.7c6.6,0.8,7.4,0.4,9.7-4.6c2.1-4.6,1.9-8.1-0.9-12.4 c-3.1-4.8-5.8-7.3-11.6-10.8c-6.1-3.7-10.7-3.9-13.2-0.7c-1.3,1.7-1.6,2.8-1.2,5.4c0.3,2.1,0.1,4.3-0.8,6.2 c-2.7,6.5-0.9,12.1,4.5,14.2c1,0.4,2,0.8,3,1.3c0.8,0.6-15,12.4-15.9,11.9c-0.3-0.2-1.3-3.2-2.2-6.6c-2-7.3-3.7-39.3-2.2-42.2 c0.4-0.9,4.1-5.1,8.1-9.4c29.3-31.7,58.9-41.3,70.4-23c1.1,1.8,2.3,3.2,2.7,3.2c0.9,0,3.1-7.4,3.8-12.4c1.6-12.5-8.6-21.4-22.9-20.1 c-10.5,1-21.3,5.4-32.9,13.4c-7.8,5.4-21,17-25.9,22.8c-2.8,3.3-4,4.2-4.5,3.4c-0.4-0.6-0.7-5.8-0.7-11.5c0-23.1-2.4-59.6-4.8-76 c-2.4-15.6-7.2-31.6-9.4-31.6c-0.9,0-3.6,6.3-4.9,11.6c-0.9,3.7-0.8,4.8,1.8,15.2c5.1,20,6.2,31.1,7.8,77l0.9,26.6l-7.5,8.2 c-13.3,14.4-23.1,21.1-32.2,22c-8.8,0.8-15.5-5.7-16.3-15.9c-0.6-7.2,1.2-15.1,7.8-34.2l5.6-16.3l2.5,0.2c4.1,0.4,7.9-4.5,9.1-11.8 l0.6-3.6l-2.5,3.4c-2,2.8-2.9,3.4-4.7,3.2c-5.2-0.6-5.6-8.9-1-22.3c1.3-3.5,2.3-7,3.2-10.6c0-0.6-1-2.2-2.3-3.4L56,76.4l1.2-5.2 c1.2-5.3,1-10.6-0.7-12.6c-0.5-0.6-2.2-1-3.9-1c-6.2,0-13.6,8.4-13.6,15.4c0,3.2,2.3,6.2,7.2,9.5l2,1.3L45.9,86 c-6.7,5.8-15,11.5-28.8,19.6c-15,8.8-18.4,11.2-16.6,11.2c1.4,0,20.1-7.2,24.2-9.2c6.5-3.3,16.2-10.5,22-16.3l5.7-5.7l2,1.6l2,1.6 l-2.3,7.4c-3,9.7-4.1,17.2-3.1,21.8c0.8,3.4,0.6,4-3.7,13c-14.9,31.8-16,52.7-3.5,66.9c6,6.8,15.4,9.5,24.1,7 c5.2-1.4,12.9-7.2,20.8-15.4l7.7-8l0.5,8.7c1,16.4,2.2,30.3,2.8,33.3l0.7,3L90,232.6c-5.8,3.4-9.9,6.3-9.2,6.4s5.7-1.4,11-3.5 s9.9-3.6,10-3.4s1,1.8,2,3.7c3.5,6.9,9.3,11.7,16.1,13.1c1.8,0.3,3.6,0.6,5.4,0.6l3.4,0.1l0,0h0.6h1.6c4.1,0,12.2-2.4,17.2-5 l5.4-2.8c0.3-0.1-0.6,3.7-1.8,8.4c-8.1,30.8-5.4,51.1,8.6,64.1c2.5,2.4,5.3,4.6,8.2,6.5c5.2,2.7,5,2.9,6.6-7.7 c1.2-8.5,1.1-10.5-1.1-13.4c-5.1-6.7-8.9-18.7-8.3-26.6c0.4-5.6,2.1-9.4,6.4-14.3c4.9-5.6,9.3-8.2,25.8-15.3l15.2-6.6l2.4,2.9 c4.8,6.2,10.9,11.2,17.8,14.7c6.2,3.1,7.4,3.4,12.9,3.4c5.3,0,6.7-0.3,10.4-2.4c2.7-1.6,5.2-3.5,7.3-5.8c3.7-4.2,8.9-14.2,10.6-20.2 c5-17.5,5-31.6,0.1-98c-3.1-42.4-3.7-52.5-3.3-53c0.3-0.3,2,1,3.8,2.8s3.9,3.3,4.5,3.3c2.1,0,0.6-5.4-7-25.5 c-3.9-10.4-6.9-19.2-6.6-19.5c0.6-0.5,33.7-13.5,54.1-21.2c9.5-3.6,10.5-4.2,12-6.9c0.9-1.6,1.3-3.1,1-3.4 C333.2,8.3,333.2,8.3,333.1,8.3L333.1,8.3z M191.6,21.9c-0.4-0.4-82.9,29.9-82.9,30.4c0,0.1-0.7,2-1.6,4.3c-0.6,1.3-1,2.8-1.3,4.2 c0.1,0,10.1-3.9,22.2-8.7S158.6,40,169.3,36c19.2-7.4,19.5-7.5,21.1-10.6C191.3,23.6,191.8,22.1,191.6,21.9L191.6,21.9z M300.6,30.4 c-0.7,0-3.2,5.8-5.5,12.6c-1.6,4.8-1.6,5.2-0.4,8.8c0.8,2.2,1.6,8.7,2,15.8c1.4,22.2,3.1,49.4,4.7,72.4c5.6,80.6,5.9,86,4.9,98.9 c-0.5,6.2-0.9,12-0.9,12.9c0,2.9,0.8,2.1,3.2-3.4c3.2-7.1,5.4-15.3,6.8-25.2c2-14.5,1.8-18.9-4.9-111c-1.6-22.6-2.8-41.2-2.5-41.5 s1.9,1,3.7,2.8c3.5,3.6,5.6,4.2,5.6,1.7C317.4,71.9,301.8,30.4,300.6,30.4L300.6,30.4z M164.8,48.8c-0.5,0.1-1.2,0.9-1.8,2.4 c-1.4,3.4-0.5,8.8,2.5,14.9c2.1,4.2,2.4,5.3,1.5,6.3c-1.4,1.7-5.3,1.5-7.2-0.4c-1.7-1.7-1.9-2.2-3.1-11.4c-0.4-3-1.1-5.9-2-8.8 l-1.1-2.6l-1.4,2.7c-1.3,2.5-1.3,3.1-0.1,8.3c1.9,8.3,1.7,9.9-1.5,13.2s-5.5,3.3-7.9,0c-1.5-2-1.7-3.2-1.4-11 c0.3-9.8-0.4-10.8-4.2-6.3c-2.5,3-2.6,5.6-0.5,7.5c1.3,1.2,1.6,2.5,1.6,7.7c0,6.6,0.7,9.3,2.8,11.4c1.3,0.9,2.9,1.4,4.5,1.3 c3.6,0,6.6-2.4,8-6.4c1-3,1.6-3,3,0s5.1,5.1,7.8,4.4c2.5-0.6,4.8-4.5,5.9-9.8c0.8-3.9,0.7-4.8-2-12.5c-1.2-3.1-2.1-6.4-2.9-9.6 C165.4,49.2,165.2,48.8,164.8,48.8L164.8,48.8z M212.5,56c-13.8-0.1-15.6,1.6-21.4,11.5c-1.2,2-2.3,4-3.3,6.1 c0,0.3,7.8,0.7,17.4,0.8c16.9,0.3,21,0.8,21,3c0,0.9-6.3,4.7-20,12.1c-5.9,3.2-12.2,6.8-14,8.1s-2.6,2.3-2,2.3 c1.6,0,21.8-5.9,27.3-8c5.7-2.2,11.1-7,17.9-15.9s8.8-13.1,7.6-15.2c-1.6-3-8-4.2-23.9-4.7C216.7,56.1,214.5,56,212.5,56L212.5,56z M49.5,65.7c2,0.1,3.1,2.1,3.1,5.9c0,3.4-0.9,3.6-5,0.8c-3.4-2.3-3.8-3.8-1.2-5.5C47.3,66.1,48.4,65.7,49.5,65.7z M225.3,104.4 c-0.5,0-0.9,0.2-1.3,0.6c-1.3,1.1-10.6,14.8-10.6,15.7c0,0.3,2.7,1.9,6.1,3.5l6,3l-2.8,3.4c-3.5,4.4-7.7,11.2-7.7,12.7 c0,0.6,3,2.5,6.8,4.2s6.8,3.4,6.8,3.7s-15.4,6.3-34.2,13.2l-37.8,14c-2.9,1.1-3.9,2-5.4,4.9c-0.8,1.4-1.4,2.9-1.8,4.5 c0,0.7,1.2,0.5,4.1-0.7c16-6.4,56-22,66.4-25.9c11.5-4.3,12.6-4.9,13.8-7.4c1.8-3.7,1.6-4.3-0.9-3.7c-2,0.5-1.8,0,3.2-7.2 c2.9-4.2,5.4-8.1,5.4-8.4s-2.5-1.9-5.6-3.4s-5.6-3-5.6-3.4s2.3-4.1,5.2-8.3s5.1-7.7,5-7.8c-3.5-2.4-7.3-4.4-11.2-6.1 C227.2,104.8,226,104.4,225.3,104.4L225.3,104.4z M218.5,186.6c1,0.2,1.9,0.5,2.7,1.1c3.4,1.9,9.4,9.2,11.2,13.8 c1.3,3.4,1.3,3.4-0.6,5.4c-2.5,2.2-5.2,4.2-8.1,6c-3.4,2.2-6.5,4-6.9,4c-1.5,0-7.6-14.7-7.7-18.5c-0.1-4.5,3-9.6,6.8-11.1 C216.7,186.8,217.6,186.6,218.5,186.6L218.5,186.6z M127.5,189.9c2-0.2,3.6,2.6,3.6,6.5c0,3.1-0.2,3.5-1.8,3.5 c-2.6,0-6.9-2.1-7.5-3.6s2.1-4.7,4.8-6.2C126.9,190.1,127.2,190,127.5,189.9z M135.5,191.1l2.7,2c3,2.2,6.5,6.7,6.5,8.2 c0,0.6-0.6,1-1.4,0.9c-2-0.1-8.4-1.4-8.7-1.8c-0.1-1.6,0-3.3,0.3-4.9L135.5,191.1z"/>
</svg>