<svg xmlns="http://www.w3.org/2000/svg" width="308" height="338">
<path d="M139.3,337.5c-7.1-0.9-13.6-4.4-18.3-9.7c-2.4-2.6-4.3-5-4.3-5.4s-2.1,0-4.6,0.9c-6.2,2.1-7.1,1.5-2-1.6 c2.3-1.4,4.2-3.1,4.2-3.6c-0.3-1.6-0.7-3.1-1.4-4.5c-1.1-2.8-1.4-6.2-1.4-17.1c0-12.2,0.2-14.5,2.3-22.8c1.2-5.1,2.9-10.9,3.8-13 c0.6-1.2,1-2.5,1.2-3.8c-0.2,0-2.3,1.2-4.9,2.8c-5.9,3.5-15.1,7.3-20.5,8.5c-5.7,1.2-14.9,0.4-19.6-1.7c-5.3-2.4-8.5-5.6-11.4-12 c-3.2-7-4.6-13.7-5.6-28c-0.8-11.4-2.5-48.5-2.5-56v-3.8l-6.8-0.5C21.6,163.9,5.3,151.6,1,131.1c-1.7-8-1.1-22.8,1.3-31.2 c2-6.9,6.2-16.4,8.7-19.2c1.7-2,1.7-2,1.7-0.2c0,1-1.4,5.6-3.1,10.2c-6.9,18.4-6.5,29.2,1.6,38.4c4,4.5,12.6,9.8,20.4,12.4 c7,2.3,20.7,4.8,21.6,3.9c1.3-1.3-2.4-50.7-3.9-52.2c-0.3-0.3-6.8,2-14.5,5.1c-15.3,6.1-15.4,6.1-12.6-0.3c1.4-3.2,1.7-3.3,13-7.5 c6.3-2.4,11.8-4.6,12.2-4.9c0.8-0.7-1-10.1-2-10.8c-0.4-0.2-3.7,0.7-7.3,2.1c-10.4,4-15,5.5-15,4.8c0-0.3,4.7-3.4,10.5-6.8 c9.6-5.7,10.4-6.4,10-8.2c-0.8-3.1,3.5-17.9,5.2-17.9c0.9,0,3.5,5.1,4.8,9.4c0.6,1.9,1.3,3.4,1.6,3.4c1.4,0,16-11.6,16-12.7 c0-0.3-1.5-1.4-3.3-2.5c-5-3-6.8-7.8-4.8-13.1c1-2.7,6.2-8.3,8.9-9.8s6.6-1.5,7.8-0.1c1.6,1.9,1.9,7.9,0.7,13.1l-1.2,5l3.1,2.6 l3.1,2.6l-2.1,4.2l-2.1,4.2l-5.8-4.8l-4.2,4.8c-2.9,3.1-6,6-9.4,8.5c-3.5,2.6-5.2,4.3-5.1,5.4c0.1,3.6,2.1,12,2.8,11.9 c0.4-0.1,27.2-10.1,59.6-22.3c81-30.5,78.3-29.5,79-28.9c0.3,0.3-0.1,1.9-1,3.5c-1.5,2.8-2.2,3.2-21.2,10.3 C151.2,52.8,60.5,87.8,60,88.3c-0.2,0.2,0.1,4.8,0.5,10.2c0.8,9.5,2.4,38.6,2.5,45v3.1l8.6-0.5c27.1-1.7,60.9-10.9,97-26.5 c16.5-7.1,24.9-9.9,31.1-10.5c7-0.6,10.8,0.9,12.5,5.1c3.7,8.8-2.6,21.2-21.7,43c-8.7,9.9-12,14.4-16.4,22.3c-1.9,3.4-3.6,6-3.8,5.9 s0.4-3.1,1.4-6.6c2.9-10.6,8.8-20.2,20.5-33.7c5.7-6.6,10.7-13.4,10.7-14.7c0-0.4-0.9-1.1-2-1.6c-3.2-1.4-10.2,0.6-38.4,11.4 c-41.5,15.8-64.4,22.3-87.1,24.9c-12.8,1.4-11.6,0.7-11.6,7.4c0,16,1.8,52,2.8,57.1c1.4,7,4.2,12.9,7.6,15.6 c3.1,2.6,10.1,4.1,16.4,3.4c4.8-0.5,13.3-2.6,13.3-3.2c0-0.2-0.8-2.2-1.7-4.6c-1.5-3.7-1.6-5.4-1.3-14.2c0.2-6.6,0.8-11.4,1.8-14 c2.6-7.3,6.3-14.2,11-20.4c3.7-4.6,3.9-5.1,4.3-10.6c0.4-7,1.3-11.2,2.4-11.5c0.4-0.1,6.2,2.6,12.7,5.9c14.9,7.7,16.9,10.1,8.3,10.1 h-4.1l3.5,3.1c3.2,2.8,8.7,6.6,23.4,15.9c6,3.7,10.4,9.4,12.5,16.1c1.4,5.1,0.7,18.9-1.2,23.7c-2.1,5.3-5.7,10.2-8.6,11.8 c-4,2.2-27.1,1.9-37-0.4c-4-0.9-7.3-1.6-7.5-1.4s-1.6,5.3-3.1,11.3c-2.4,9.5-2.8,12.4-2.9,21c-0.1,9.4,0,10.3,2.2,14.9 c1.3,2.7,2.9,5.3,4.9,7.5l2.7,2.6l7.7-4.7c4.2-2.6,10.4-6.8,13.7-9.4l6-4.7l-3.9-1.8c-2.2-1-4.2-2.4-4.5-3.2 c-0.9-2.3-0.5-9.5,0.6-11.5c0.7-1.7,0.9-3.6,0.7-5.4c-0.6-5.2,1.2-7.5,6-7.5c6.2,0,14.4,5.5,19.5,13.1c2.9,4.3,3.2,5.3,2.8,8 c-0.6,3.7-3.2,9-4.6,9.5c-2.2,0.2-4.4,0.1-6.6-0.1l-5.5-0.5l-6.5,6.5c-5.6,5.6-8.6,7.9-17.8,13.7c-1.3,0.8-1.3,1,0.9,1.9 c1.3,0.5,5.5,1.2,9.3,1.4c11.5,0.6,23.2-3.2,39.1-12.8c18.7-11.2,43.2-33.1,46.9-41.9c0.7-1.7,0.8-3.5,0.4-5.2 c-0.6-3.1,0.4-3-13.4-2c-13.3,1-22.8-1.6-26.6-7.3c-1.5-2.2-2.1-4.2-2.3-8.4c-1-17.4,14-34.6,27.1-31.1c5.6,1.5,14.8,11.4,19.9,21.4 c1,1.9,2.3,3.4,3,3.4c2.3,0,10.9-5.4,14.4-8.9c4.1-4.3,6.7-9.8,7.2-15.8c0.3-4.1-2-42.4-4.9-81.3c-1.6-21-2.8-39-3.6-56 c-0.5-9.9-1.1-15.6-2.1-18.3c-1.3-3.7-1.3-4.2,0-8.2c1.9-6.1,5.1-13.1,6-13.1c1.2,0,15.4,37.6,16.4,43.4c0.7,4.2-0.9,3.9-5.5-0.7 l-3.7-3.7v3.7c0,2,0.5,11.1,1.2,20.3s1.8,24,2.4,32.9c4,55,4.4,67.3,2.3,79c-3.5,19.8-12.7,35.6-24.9,42.8l-4.8,2.8l-0.9,5.8 c-1.5,8.2-4.5,16.1-8.9,23.2c-4,6.2-16.9,19.6-27.5,28.8C177.1,330.7,156.9,339.7,139.3,337.5L139.3,337.5z M170.5,287.5 c0.9-0.9-1.7-4.9-5.2-7.8c-1.9-1.6-3.6-2.6-3.9-2.3c-0.6,1.5-0.9,3.1-0.9,4.8l-0.4,4.2l3.7,0.5c1.5,0.2,3,0.4,4.5,0.8 C169.6,288,170,288,170.5,287.5L170.5,287.5z M157.3,282.6c0.3-2.9-1.8-7.5-3.4-7.5c-1.4,0-5.1,2.9-6,4.7s0,3.2,3.6,4.5 C155.9,285.9,157.1,285.6,157.3,282.6L157.3,282.6z M169.8,238.8c4.3-2.8,1.4-9-6.6-14.3c-2.9-1.9-7-4.4-9.1-5.6 c-2.6-1.5-5-3.2-7.4-5c-1.3-1.1-2.6-2-4.1-2.8c-0.2,0-0.4,1.7-0.4,3.8c0,4.4-1.7,12.3-4,18.3l-1.5,4.1l3.8,0.9 C151.9,241,166.1,241.3,169.8,238.8L169.8,238.8z M218.4,236.3c2.1-0.6,1.7-1.5-2.3-5c-4.3-3.8-8.5-5.3-12.6-4.5 c-2.8,0.5-6,2.9-6,4.4c0,1.9,3.8,4.9,7.2,5.6C209.3,237.4,213.9,237.2,218.4,236.3L218.4,236.3z M126.8,232.3 c9.4-7.2,11.1-13.7,6.3-23.9c-1.2-2.5-2.7-4.9-4.4-7.1c-2-2.4-3-3-5.3-3s-3.6,0.8-8.3,5.5c-5.8,5.8-9.5,12.2-9.5,16.5 c0,4.7,4.7,9.9,11.6,12.6C121.6,234.8,123.7,234.7,126.8,232.3L126.8,232.3z M75.9,36.4c0-4.2-1.7-6.4-4.3-5.6s-4,2.4-3.5,3.8 c0.4,1.2,5.9,5.2,7.2,5.2C75.6,39.9,75.9,38.3,75.9,36.4L75.9,36.4z M295.6,287.3c1-14.3,0.4-32.8-2.2-68.2 c-1.8-25.2-5.7-82.6-6.7-100.4c-0.8-13.1-1.5-20.4-2.4-23c-0.8-1.9-1-4-0.8-6c1-3.9,5.7-15,6.5-15.3s2.6,3.8,10.7,25.3 s8.2,24.7,0.5,17.2l-3.8-3.8v3.2c0,1.7,1.3,20.3,2.8,41.2c5.7,77.5,6.5,93,5.3,104.3c-0.5,5.4-1.4,10.7-2.5,16c-2,7.7-6.4,19-7.4,19 C295.2,296.7,295.2,293.5,295.6,287.3L295.6,287.3z M260.4,290.6c5.8-6.7,9.8-12.9,9.8-15.1c0-3.9-4.4-5.3-7.8-2.6 c-1.5,1.2-1.3-2.1,0.3-5.5c1.4-2.9,4.6-5.1,7.5-5.1c5.1,0,6.5,8.3,2.7,15.9c-2.4,4.8-10,13.3-14,15.6 C256.4,295.3,256.5,295.1,260.4,290.6L260.4,290.6z M166.3,204.8c0-1,3-8.1,3.5-8.1c0.2,0,18.3-6.7,40.2-14.8s40.4-14.8,40.9-14.8 c1.3,0,1.3,0.2-0.3,3.6c-1.1,2.2-2.2,3.2-5.7,4.4c-13.4,5-43.8,16.8-59.7,23.1c-10,4-18.4,7.3-18.6,7.3S166.3,205.2,166.3,204.8 L166.3,204.8z M85,195.1c-2.9-1.9-5.6-4-8.2-6.3c-0.3-0.8,6.1-14.3,7.1-14.9c1.6-1,16.8,9.6,16.8,11.8c0,1.5-4.6,11-6.5,13.6 C93.1,200.7,92.4,200.3,85,195.1L85,195.1z M225.6,165.1c-4.3-3-4.4-14.4-0.3-26.8c2.2-6.5,6-15.2,6.8-15.2 c-0.7,3.2-1.5,6.3-2.5,9.4c-3.4,11.5-4.2,20-2.3,23s5.1,2.4,7.6-1.5c1.1-1.7,2.1-2.7,2.3-2.2c0.6,1.9-2.5,10-4.6,12.2 C230,166.5,228.2,166.8,225.6,165.1L225.6,165.1z M112.1,112.6c-2.9-1.4-4.2-5.4-4.2-12.3c0-5.2-0.3-6.5-1.7-8 c-1.1-1-1.6-2.5-1.2-3.9c0.6-2.2,3.8-6,5.1-6c1.1,0,1.5,5.3,0.8,9.9c-0.7,4.4-0.3,7,1.6,10.3s4.9,3,8-0.6c2.7-3.1,2.9-4.6,1.6-11.9 c-1-5.4-0.4-11.1,1.2-10.6c1.2,0.4,3.6,9.5,3.7,14c0.1,6.6,4,10.7,8.4,9c2.6-1,2.5-2-0.4-7.9c-3.2-6.4-3.8-11-1.9-14.6 c0.9-1.8,1.5-2.3,1.7-1.5s1.6,5.2,3.2,10.1c2.8,8.6,2.9,9.1,1.9,13.4c-2,8.8-7.3,11.8-12.2,6.9c-1.3-1.3-2.3-2.9-2.3-3.6 c0-2.2-1.2-1.3-2.5,1.9C120.9,111.8,115.8,114.4,112.1,112.6L112.1,112.6z M163.5,103.5c-5-5-2.6-23.2,5.1-37.6 c1.4-2.6,2.3-4.1,2.1-3.2c-2.7,8.5-6,22.1-6,24.9c0,4.4,1.1,7.2,3.2,8.3c1.4,0.8,2,0.5,4.2-1.8c1.3-1.3,2.5-2.7,3.5-4.2 c1.4-2.3-1,7.9-2.5,10.8C171,104.7,166.1,106.1,163.5,103.5L163.5,103.5z M188.6,100.3c0-0.8,8.3-5.7,20-12s16.8-9.5,16.8-10.8 c0-1.9-5.9-2.7-21.4-2.9c-8.9-0.1-16.4-0.3-16.6-0.5s1.4-3.4,3.5-7.1c3.1-5.5,4.4-7.1,7.2-8.5c4.7-2.4,13.3-3,26.5-2 c11.7,0.9,17.2,2.5,18,5c1,3.1-6.8,15-15.4,23.7c-5.2,5.3-9.4,7.2-25.4,11.8C187.9,101,188.6,100.8,188.6,100.3L188.6,100.3z M208.7,44.5c0.9-2.3,1.7-4.2,1.8-4.3c0.8-0.6,80.9-29.9,81.8-29.9s1,0.4,0.2,2.2c-0.5,1.3-1.3,2.4-2.2,3.5 c-0.7,0.7-8.6,4.1-17.7,7.5S245.4,34,232.2,39.2s-24.3,9.5-24.6,9.5S207.8,46.8,208.7,44.5L208.7,44.5z M122.2,41.9 c0-2.5-5.5-17.9-7.6-21.2c-1.8-2.8-2.3-3.1-3.7-2.4c-3,1.6-8.8-1.9-8.8-5.2c0-2.4,4-9.2,5.4-9.2c1.7,0,5.2,2.1,7.5,4.5 c2.8,3,5.8,9.2,7.1,14.7c1.3,6,2.1,7.4,2.7,4.8c1.8-8.6,4.9-19.9,6.1-22.4c2.8-5.5,7.1-7.1,10.1-3.8s3.6,5.1,2.6,8.6 c-1,3.7-2.2,4-4.8,1.2c-4.4-4.7-6.8-1.1-10.5,15.2c-2.6,11.4-3.5,14.3-5.2,15.7C122.5,43.1,122.3,43,122.2,41.9L122.2,41.9z"/>
</svg>