<svg xmlns="http://www.w3.org/2000/svg" width="252" height="356">
<path d="M251.5,0c-0.2-0.2-71.2,25.8-80.7,29.5c-2.1,0.8-3.4,2.9-5,7.8c-0.4,1.4-0.3,1.8,0.5,1.5l24.3-9.6 c12.8-5,31.1-12.2,40.7-15.9l17.6-6.7l1.4-3.2C250.9,2.4,251.3,1.2,251.5,0z M45.8,12.6c-2,0-5.9,4.1-7.3,7.7 c-1.3,3.3-5,18.3-5,20.3c0,3-1.5,1.7-2-1.8c-1.3-7.8-6.3-17.6-10.2-20.1c-1.2-0.7-2.5-1.3-3.9-1.7c-1.9-0.5-2.4-0.1-4.6,3.4 c-1.3,2.1-2.4,4.5-2.4,5.2c0,1.7,5.2,6.3,7,6.3c0.9-0.1,1.7-0.4,2.4-1c0.6-0.6,1.2-0.7,1.7-0.2c1.5,1.5,4.8,9,7.1,16 s2.4,7.2,0.9,8.2c-1.6,1.1-3.6,6.1-4.4,10.8c-0.6,3.6-0.1,3.7,2.5,0.6c2.2-2.6,5.1-3.1,6.7-1.2c0.8,1,0.3,1.5-3.5,3.1 c-3.4,1.5-4.8,2.6-6,5c-2.7,5.5-2.7,8.1-0.1,21.5c3.1,16,4.7,27.8,4.8,35.9c0.1,9,1.6,5.1,2.1-5.6c0.5-10-0.8-22-3.9-34 c-1.3-5.1-2.3-9.7-2.3-10.2c0-1.4,5-3.8,12.3-5.9c6.8-2,8.2-3.3,9-8.3c0.4-2.7,0.2-3.2-3.5-6.7c-2.1-2-4.5-3.8-7-5.2 c-2.2-1.1-2.9-1.7-2.5-2.7c0.3-0.7,1.6-6,2.9-11.7c4-18,6.1-20.9,11.2-16c2.6,2.5,3.6,2,4.3-1.7C53.3,17.6,50,12.6,45.8,12.6 L45.8,12.6z M142.3,31c-0.8,0-2.3,2.1-4,5.5c-2.2,4.6-2.9,5.4-3.9,4.8c-0.7-0.4-4.1-2.7-7.6-5.2s-6.7-4.4-7.2-4.4s-2.6,3.4-4.6,7.5 l-3.8,7.5l7.8,5.7c4.3,3.1,8.3,5.5,8.9,5.5s2.4-2.6,4-5.5s3.1-5.4,3.3-5.4c2.7,1.6,5.4,3.4,7.9,5.2c8.6,6,8,6.2,12.4-2.3 c3.3-6.4,3.5-7.7,1.1-9.9C153.4,37.2,143.6,31,142.3,31L142.3,31z M94.6,31.1c-0.6,0.2-4.8,9.5-6.9,15.5c-2.4,6.8-2.6,22.6-0.2,25.1 c1.9,2.1,6.1,2.3,7.9,0.3s4.3-7.9,4.9-11.8l0.6-3.2l-2.5,3.7c-1.4,2-3,3.9-3.7,4.2c-2.1,0.8-4.2-1-5.2-4.5c-1.1-4-0.3-9.2,3.2-21.1 C93.9,35,94.8,31.3,94.6,31.1C94.6,31.1,94.6,31.1,94.6,31.1L94.6,31.1z M202.4,38.2c-1.3,0-6.6,13.6-6.6,16.9 c0.2,2,0.6,3.9,1.2,5.8c0.6,2.3,1.5,11,2,19.3c0.9,16.1,1.2,21.1,4.4,67.6c7.6,109.8,7.6,110.9,6.5,128.6 c-0.4,5.8-0.4,10.6-0.1,10.6c1.1,0,5.3-10.5,7.2-17.7c4.6-18,4.6-24.7,0.1-87.1c-3.9-54.7-5.9-82-6.9-93.9 c-0.4-5.7-0.6-10.5-0.3-10.8s1.4,0.6,2.6,2c1.3,1.5,2.8,2.9,4.4,4l2.4,1.5l-0.5-4c-0.3-2.2-3.2-11-6.4-19.7 C205.3,42.5,203.4,38.2,202.4,38.2L202.4,38.2z M175.7,42.6c-1,0-3.6,5.8-5.8,12.6c-1.4,4.3-1.4,4.8-0.1,8.8c1,2.9,1.6,8.8,2.1,18.6 c0.9,17.8,3.8,63.4,4.4,68.8s4.2,58.8,5.3,78.3c1,18.4,0.6,21.9-3.7,28.3c-2.3,3.5-5.5,6.4-9.2,8.3l-7.1,3.9l-6.2,2.7 c-36.8,15.9-45.8,21.9-64,43.3C86,322.4,80,329,77.8,331c-5.4,4.8-12.8,8.2-19.2,8.7s-9.1-0.6-12.8-4.8c-6.3-7.3-5.7-18.7,2-40.6 l2.4-6.8l5-2.6c3.4-1.9,6.6-4.1,9.5-6.6l4.6-4l0,5.8c0,3.2-0.3,8.8-0.7,12.3c-0.9,8.5,0,9.8,2.6,3.9c3.1-7,5.2-14.5,6.8-24.3 l1.4-8.9l12-13c14.3-15.6,20.7-21.3,30.8-28.1c19.9-13.3,36.9-13.8,45.2-1.2c1.2,1.8,2.4,3.2,2.7,3.2c1,0,3.2-7.4,3.7-12.6 c0.6-6.4-1.1-11-5.4-14.9c-6.5-5.9-17.1-6.7-30-2.2c-14.4,5-25.5,13-44.9,32.5l-14.6,14.6l-0.6-9.3c-0.3-5.1-0.7-9.9-0.9-10.6 c-0.2-0.8,0.1-1.6,0.7-2.1c0.6-0.4,8-3.4,16.5-6.6c15.1-5.7,15.5-5.9,17.1-9c0.9-1.7,1.4-3.3,1.2-3.5s-8.2,2.5-17.8,6.1 s-17.6,6.3-17.8,6.1c-0.4-1-0.5-2.1-0.5-3.2l-0.1-2.9l7.2-2.4c18.3-6.2,42.5-21.1,61.6-38.2c13.5-12,19.3-21.7,21.2-35.3 c1.1-8.7,0.6-17.5-1.3-26.1c-2.4-7.9-6.1-15.4-11-22c-7.1-8.9-18.3-14.2-25.4-12c-4.8,1.4-10.4,7.1-14.2,14.3 c-5.6,10.8-6.2,20.5-1.8,27.6c3.5,5.5,6.2,6.4,21.6,7c11.2,0.4,13.8,0.8,17.3,2.3c4.8,2.1,8,5.2,9.1,8.7c1.1,3.5-1.6,6.9-10.9,14.7 c-15.8,13.3-30.2,22.9-46.3,30.8c-10,4.9-27.1,11.1-28.3,10.4c-0.3-0.2-1.3-9.6-2.1-20.9c-1.2-16.7-1.3-20.6-0.4-20.9 c3.1-1,15.7-10.4,20.5-15.3c3.1-3.1,5.9-5.7,6.3-5.7c1.1,0.5,2.1,1.2,2.9,2.1l2.2,2.1l1.7-2.7c2.6-4.2,2.9-6.4,1.2-7.6 c-4.7-3.1-4.6-3-3.7-6.9c1.4-5.5,1.2-12.5-0.4-14.3c-3.2-3.5-11.9,0.4-15.3,6.9c-3.6,6.8-2.6,11.5,3.4,15.6l3.8,2.6l-3.5,3.1 c-3.9,3.5-19.9,14.5-20.4,14.1s-3.5-41.7-3.5-45.7v-2.5l3.8,3.8c6.8,6.7,7.3,4.8,2.7-8.5C70.4,71.3,62.2,51,61.5,51 s-5.1,10-6.3,14.8c-0.7,2.2-0.5,4.7,0.4,6.8c0.9,2.5,1.7,11.4,2.8,28.8c0.8,13.9,1.8,29,2.2,33.6c0.3,3.1,0.5,6.1,0.4,9.2 c-0.8,1-1.8,1.8-2.9,2.4c-5.9,3.4-11.1,6.9-10.8,7.2s3.3-0.7,7-2.1s6.8-2.2,7-2.1c0.6,0.6,2.9,36.4,2.3,37.7 c-0.6,1.7-12.8,1.7-21.1,0c-7.4-1.5-17.6-6.3-22.8-10.8c-4.9-4.2-11.2-13.7-13.4-20.1c-2.9-8.5-2.9-13.7-0.1-29.8 C8.9,111,9,110.2,7.9,110.2s-3.7,7.4-5.6,16.2c-7.4,34.4,3,65.8,25.4,76.7c2.9,1.4,5.4,2.7,5.6,2.8s-1.1,2.9-2.7,6.1 c-9.5,18.9-14.3,38.4-12.4,50.3c1.2,6.6,4.1,12.9,8.4,18.1c3.6,4.1,10.1,7.5,14.5,7.5c1.3-0.1,2.5,0.1,3.7,0.4c0.2,0.2-1.2,5-3,10.6 c-4.3,12.7-5.8,23-4.5,31c2,12.1,9.9,22.4,19.4,25.2c4,1,8.2,0.8,12.2-0.4c6.3-1.9,12.2-6.6,22-17.6c14.5-16.3,24.6-25.7,32-30.1 c6.3-3.8,19.8-10.2,32.2-15.6l6-2.5v-0.3c2.6-1.1,5.1-2.5,7.5-4c10.3-6.9,18.9-22.7,22-40.5c2.2-12.6,1.4-31-5.6-127 c-1.1-14.9-2-28.9-2-31.2v-4l3.4,3.3c4,4,5.4,4.2,5.4,1.1c0-3.6-13.9-41.4-16-43.6C175.9,42.7,175.8,42.6,175.7,42.6L175.7,42.6z M128.9,89c1.5-0.1,3,0.1,4.5,0.6c3.9,1.1,12.1,7.9,12.1,10c0,0.6-0.3,1-0.6,1s-4.1-0.4-8.4-0.8c-8.2-0.7-12.2-2.1-13-4.7 C122.4,91.6,124.9,89.2,128.9,89L128.9,89z M97.4,102.5c0.7,0,1.2,0.4,1.9,1.3c0.8,1.1,1.3,2.5,1.4,3.8c0,3.9-1,4.4-4.4,2.1 c-1.3-0.8-2.6-1.9-3.7-3c-0.7-1.2,0.8-2.9,3.3-3.9C96.3,102.7,96.8,102.5,97.4,102.5z M111.5,131c-2.8,0-3.9,0.4-5.2,2.1 c-3,3.8-4.3,10.5-1.5,7.7c1.1-0.7,2.3-1,3.6-0.9c3,0,4.7,2.2,3.8,5c-0.8,2.5-4.7,8.1-9.2,13.1c-1.4,1.5-2.7,3-3.9,4.7 c0,1.1,4.1-2,8.4-6.4c7.9-7.9,11.9-18.6,8.8-23.3C115.3,131.3,114.4,131,111.5,131L111.5,131z M41.9,135.2 c-0.6,0.3-5.2,10.4-6.9,15.3c-1.3,4.3-2,8.8-2.1,13.4c-0.4,9.2,0.3,12.4,3.2,13.6c2.4,1,2.6,1,4.8-0.1c1.3-0.7,2.4-1.8,3.2-3.1 c1.5-2.6,4.2-13.3,2.7-10.9c-2.2,3.5-4.8,6.1-6.1,6.1c-5.3,0-5.8-9.4-1.4-24.4C40.4,141.8,41.2,138.5,41.9,135.2L41.9,135.2 L41.9,135.2z M155.4,160.6c-1,0-7.8,13.9-7.4,15.1c0.1,0.4,3.5,3.1,7.5,6s7.8,5.2,8.4,5.3c1.3,0.1,7.9-11.8,7.9-14.3 c0-0.8-1.2-2.2-2.6-3.3C164.3,165.7,156.3,160.7,155.4,160.6L155.4,160.6z M35.9,206.5c0-0.1,2.1,0.4,4.6,1s9.1,1.1,14.8,1.1h10.1 l0.6,3.6c0.3,2.2,0.2,4-0.3,4.5s-8.4,3.6-17.8,7.1s-17.1,6.4-17.3,6.6c-0.5,0.6-3.6,8.6-3.2,8.6c0.1,0,8.9-3.4,19.4-7.6 s19.3-7.6,19.6-7.6s0.9,6.5,1.4,14.5l0.9,14.5l-2.2,2.7c-3.5,4.3-12.9,11.4-18.3,14c-12.4,5.9-21.9,2.2-25.1-9.7 c-1.9-7.2,0.5-18.6,9.1-42.8C34.2,211.2,35.9,206.5,35.9,206.5L35.9,206.5z M170.7,227.4c-1.9,0.3-15.2,4.9-31,10.8 c-16.8,6.2-35.2,13-40.8,15.1l-10.2,3.7l-1.7,3.8c-0.8,1.7-1.3,3.5-1.6,5.3c-0.1,1.1-0.5,2.1-1.2,3c-1.6,2.2-1.5,4.7,0.4,5.9 c1.4,0.9,1.6,1.9,1.6,7.9c0,7.1,1.1,10.7,3.8,12.3c1.9,1.1,6.4,0.4,8.4-1.4c1.2-1.3,2.3-2.9,3-4.5l1.4-3.1l1.3,2.5 c4.2,8.2,11.9,5.9,14.2-4.4c1-4.4,0.9-4.8-1.9-13c-1.6-4.7-3-9.2-3.2-10.1c-0.2-1.3-0.5-1.2-1.7,1.1c-1.9,3.6-1.3,8.2,2.1,15.5 c2.5,5.4,2.5,5.6,1,6.7c-2.2,1.6-4,1.4-6.4-0.7c-1.8-1.5-2.2-2.8-2.8-7.8c-0.8-6.9-2.3-13.4-3.2-14c-0.4-0.2-1.1,0.4-1.6,1.4 c-0.9,1.7-0.8,3.4,0.5,14c0.4,3.5,0.2,4.5-1.2,6.5c-1.1,1.4-2.5,2.5-4.1,3.2c-2,0.7-2.7,0.6-4-0.6c-2.3-2.3-3-6.1-2.6-14.5l0.3-7.6 l16.1-6.3c8.9-3.5,26.6-10.4,39.3-15.3c22.3-8.6,23.3-9,24.8-11.8c0.9-1.6,1.3-3.1,1-3.4C170.8,227.4,170.7,227.4,170.7,227.4 L170.7,227.4z M193,278.2c-3.3,0-7.1,3.4-7.9,7.3c-0.7,3.1-0.4,3.3,2.7,2.1c3.3-1.2,5.2-0.1,5.6,3.3c0.3,2.7-3,7.9-10.4,16.5l-3.4,4 l3.6-2.5C198,298.8,204.6,278.3,193,278.2L193,278.2z M62.1,292.4c-0.2,0-1,1.2-2.3,3.8c-4.5,8.8-6.4,15.3-6.8,24.2 s0.4,12.7,3.3,13.9c2.3,0.9,2.5,0.9,4.7-0.1c2.5-1.1,4.3-4.2,5.8-10c1.3-5,1.2-6.4-0.4-3.4s-4.1,5.5-5.6,5.5c-2.1,0-3.8-2.5-4.4-6.2 s1-12.2,4.1-21.2C61.9,294.5,62.4,292.4,62.1,292.4L62.1,292.4z"/>
</svg>