<svg xmlns="http://www.w3.org/2000/svg" width="526" height="388">
<path d="M53.8,386c-9.1-1.7-17.6-5.7-24.8-11.7c-3.9-3.4-9.2-11.2-11.8-17.1c-10.2-23.5-7.6-60.8,6.3-88.6l2.7-5.4l-2.4-2 c-3.1-2.6-2.4-3.8,2-3.2c3.2,0.5,3.5,0.3,5.4-2.5c1.1-1.6,4.5-6,7.7-9.8l5.7-6.8l-2.2-2.3c-1.2-1.3-7.2-6.4-13.4-11.3 c-17-13.7-19.6-17-19.5-25.8c0-6,2.7-11.7,7.2-15.7c7.7-6.9,16.5-8.5,41-7.1c8.9,0.5,16.3,0.8,16.4,0.7s-0.2-7.9-0.6-17.3 s-1.1-27.4-1.6-40c-1.3-34.4-3.1-49.2-7.6-62.4c-1.7-4.9-1.9-6.4-1.2-9.3c1.1-4.9,4.8-13.9,5.7-13.9c1.2,0,4.3,7.7,6.1,15.2 c4,16.6,5.4,30.8,6.5,68.3c1.1,37.7,2.2,59,3,59.7c0.3,0.3,8.6,1.2,18.2,1.9c19.9,1.5,38.7,3.4,41.6,4.1c1.1,0.3,2,1.1,2,1.8 c0,2.5-4.9,15.9-6.2,17.1c-0.8,0.6-8.2,4.2-16.6,7.8s-17.7,7.9-20.8,9.4l-5.6,2.8l3.9,3.5c5.9,5.2,15.3,9.6,25.6,11.9 c10.7,2.4,29.8,4.9,44.8,6c59.1,4.2,138-9.9,183.6-32.8c4.4-2.2,8.1-4,8.3-4s0.3,3.5,0.2,7.8c-0.1,8.8,0.9,12.5,4.1,15.6 c3,2.8,5.8,3.8,11.3,3.8c4.5,0,12.5-1.8,13.2-3.1c0.2-0.4-0.2-2.2-0.9-4.2c-2-5.5-1.7-18.2,0.5-24.8c3.4-9.9,11.4-21.2,18.8-26.5 c1.8-1.5,4.1-2.3,6.5-2.3c4.3,0,6.9,2.3,9.8,8.6c1.8,4.1,2.1,5.9,2.4,15.4c0.4,12.8-0.8,19.3-5,27l-2.8,5l2.2,0.6 c3.8,1,22.8,0.7,26.3-0.4c4.7-1.4,10.9-5.8,12.2-8.6c2-4.2,1.9-17.5-0.6-55.2c-1.4-20.2-2.6-38.6-2.9-40.8 c-0.6-5.5-2.7-37.8-3.6-54.8c-0.5-9-1.2-15.2-2-17.5c-1.5-4-1-6.6,2.8-15.6c0.9-1.8,1.6-3.7,2.1-5.7c-0.1-0.1-4.1,1.4-8.9,3.4 s-8.9,3.3-9.1,3.1s0.3-2.1,1.1-4.2c1.3-3.2,2.1-4,5.1-5.2c10.7-4.3,77.1-28.7,78-28.7c1.3,0,1.3,0-0.1,3.4c-0.7,1.5-1.8,3-2.6,3.4 l-15.8,6c-17.2,6.6-45.2,17.5-46,18c-0.3,0.2,0,1.7,0.8,3.4c2.5,5.3,14.3,37.3,14.9,40.4c0.7,4.1-1,4-5.6-0.3l-3.6-3.2v2.7 c0,1.5,1.1,17.5,2.4,35.5c6.2,84.7,6.3,95.1,1.1,113.2c-3.2,11.1-10.6,22-17.7,26.2c-3.3,1.9-4.7,2.2-12.1,2.4 c-10.3,0.3-23-1.5-29.9-4.2c-1.8-0.8-3.7-1.5-5.6-2c-2.1,0.9-4.1,2-6,3.2c-7.8,4.6-13.7,6.5-20.3,6.5c-12.5,0-20.7-8.2-22.6-22.4 c-0.1-1.4-0.4-2.7-0.7-4.1c-0.1,0-3.6,1.6-7.9,3.6c-47.1,22-101.2,33.2-160.4,33.2c-19.6,0-32-0.9-46.4-3.3 c-25.8-4.3-47.9-15.4-55.1-27.6c-1.1-1.9-2.5-3.5-3-3.5s-5.4,2.5-10.9,5.5l-10,5.5l-0.5,5.3c-0.1,2-0.5,3.9-1,5.8 c-0.9,0.9-3-0.6-4.6-3.4l-1.7-2.9l-6.7,6.6c-3.7,3.6-6.5,6.8-6.4,6.9c0.6,0.6,28,2.5,47.3,3.4c45.4,2,52.7,3.4,61.4,12.3 c4.1,4.2,8.3,13,9.3,19.5c1,6,0,19.3-1.9,26.6c-1.8,7.1-6.6,17.1-11.8,24.6c-5,7.3-15.5,18.1-23.5,24c-7.3,5.5-21.5,12.5-29.6,14.7 S62.4,387.7,53.8,386L53.8,386z M93.5,364.5c25.5-7.6,49.2-25.3,57.6-43c5.1-10.8,1.5-22.8-9.4-30.8c-8.4-6.2-18.1-8.1-46.2-9.2 c-11-0.4-23.1-1.3-26.9-2c-7.9-1.3-18.1-4.8-27.9-9.3l-6.8-3.1l-1.4,2c-1.8,2.9-3.5,5.9-4.9,9c-13.7,28.1-13.2,57.2,1.2,73.5 c9.6,10.9,24.6,15.9,46.3,15.3C84.6,366.6,87.9,366.2,93.5,364.5L93.5,364.5z M63.9,224.8c4-2.6,8.7-5.6,10.4-6.6s3.1-2.3,3.1-3 c0-2.8-2.3-19.4-2.7-19.8c-0.2-0.2-11.9-0.5-25.9-0.5c-25.1-0.1-29.8,0.4-29.8,2.7c0,0.4,6.9,6.4,15.4,13.1s16.8,13.8,18.6,15.5 s3.3,3.2,3.4,3.3S59.9,227.5,63.9,224.8L63.9,224.8z M411.4,221.9c5.2-2.9,10.9-8.6,10.9-11c-0.3-2.2-0.8-4.3-1.5-6.3 c-2.9-8.3-5.3-11.9-8.2-11.9c-3.3,0-17.5,15.6-17.5,19.3c0,2.7,9,11.8,11.7,11.9C408.4,223.5,410,222.8,411.4,221.9L411.4,221.9z M97.6,206.1c4.1-1.9,8.9-4.1,10.6-4.8s2.9-1.5,2.7-1.7c-0.9-0.9-21-3.3-24-2.9c-0.7,0.1,2.2,12.9,2.8,12.9 C89.9,209.6,93.4,208,97.6,206.1L97.6,206.1z M174.7,338.8c-1.8-0.6-3.3-1.2-3.4-1.2c-0.8,0-2.6-5.2-2.6-7.3 c0-6.2,2.3-10.1,12.4-21.2c5.1-5.6,5.5-6.2,4.1-7.2c-2.2-1.6-8.9-2.3-12.1-1.2c-3.7,1.2-4.3,0.6-2.4-2.9c2.1-3.9,4.9-5.1,11.6-5.1 c7.3,0,10.4,1.5,10.4,4.9c0,4.2-2.3,7.7-11.3,17.2c-7.6,8-8.7,9.5-8.7,11.9s0.4,3,2.5,4.1c3.5,1.8,17.9,1.1,26.6-1.2 c3.5-1,6.4-1.6,6.6-1.4c0.5,0.5-5.9,5.4-9.9,7.4s-13.3,4.4-17.8,4.4C178.6,339.9,176.6,339.5,174.7,338.8L174.7,338.8z M501.3,249.6 c1.1-16.3,0.6-28.3-3.7-91.6c-3.7-54.3-4.8-71-5.3-82c-0.2-5.9-0.9-11.7-2-17.5l-1.5-5.9l2.1-6.1c1-3,2.2-6,3.5-8.9l1.4-2.8l1.2,2.4 c1.7,3.4,12.9,32.5,14.5,37.8c1.4,4.8,1.6,7.2,0.6,7.2c-0.4,0-2.6-1.7-4.9-3.8l-4.2-3.8l0.5,8.8c0.3,4.8,1.1,16,1.7,24.8 c5.9,80.2,7,98.5,6.5,109c-0.7,15.2-5.4,34.4-9.7,39.9C500.8,258.7,500.7,257.9,501.3,249.6L501.3,249.6z M197,185 c-3.5-2.5-7.2-5.1-8.2-5.8L187,178l3.6-7.8c2-4.3,3.9-7.8,4.4-7.8s4.2,2.3,8.5,5.2s7.9,5.2,8,5.2s1.4-2.5,2.9-5.6s3.1-5.6,3.6-5.6 c1.9,0,16.4,10.3,16.4,11.6c0,1.7-6.5,14-7.6,14.5c-0.6,0.2-4-1.7-7.7-4.3s-7.1-5-7.6-5.2s-1.9,1.3-3.5,4.5 c-3.9,7.7-3.5,7.6-10.8,2.4H197z M308.1,174.3c-2.9-1.4-4.2-5.4-4.2-12.3c0-5.2-0.3-6.5-1.7-8c-1.1-1-1.6-2.5-1.1-3.9 c0.5-2.2,3.8-6,5.1-6c1.1,0,1.7,5.6,1,9.9c-1.6,10.2,4,16,9.7,9.9c2.4-2.5,2.4-2.7,1.8-7.8c-1.8-14.9,0.5-21,3.3-9.1 c0.6,2.5,1,5.1,1.2,7.7c0.1,6.8,3.9,11.1,8.4,9.4c2.6-1,2.5-2.2-0.3-7.8c-3.2-6.3-3.8-10.4-2.1-14.3c0.8-1.9,1.5-2.6,1.7-1.9 s1.7,5.2,3.3,10.1c2.8,8.6,2.9,9.1,1.9,13.4c-0.5,2.5-1.6,4.8-3,6.9c-3.3,4-8.5,2.8-10.7-2.4c-0.5-1.3-1.2-2.4-1.5-2.4 s-1.1,1.4-1.8,3.1C317,173.5,311.9,176.1,308.1,174.3L308.1,174.3z M127.1,161.2c-0.1-8.2-1.7-20.1-4.8-36 c-2.8-14-2.7-17.7,0.2-22.1c1.6-2,3.7-3.6,6-4.7c2.3-1.1,4.2-2.2,4.2-2.5c0-0.4-3.6-2.3-4.5-2.3c-1.2,0.9-2.3,1.9-3.2,3l-2.8,3 l0.5-3.2c1-6.1,2-9,3.9-10.9l1.9-1.9l-2.2-6.7c-1.3-3.8-2.8-7.5-4.5-11.2c-2.3-4.5-2.4-4.6-5.4-4.4c-3.2,0.4-6.4-1.3-7.8-4.2 c-0.7-1.5-0.5-2.6,1.4-6c2.8-5.2,5.2-5.5,9.9-1.2c3.8,3.5,6.7,9.1,8.7,17.1c0.8,3.3,1.7,5.5,1.9,4.8s1.5-5.9,2.9-11.6 c3-12.6,5.4-16.7,9.9-17.1c2.4-0.2,3.2,0.2,5,2.3c2.4,2.9,2.8,6.7,0.8,9.4l-1.3,1.8l-2.8-2.5c-1.6-1.3-3.2-2.3-3.8-2.1 c-1.6,0.5-4.4,7-5.8,13.3c-1.2,5.8-3,13-4,16.5c-0.4,1.4,0.1,1.9,2.9,3.2c4.7,2.1,10.4,7.8,10.4,10.3c-0.2,1.7-0.6,3.3-1.3,4.8 c-1.2,2.6-1.9,3-9.1,5.2c-4.3,1.3-8.6,3.1-9.6,3.9l-1.8,1.5l2.1,8.3c1.2,4.6,2.6,10.9,3.1,13.9c1.2,6.7,1.2,28.6,0,32 C127.3,167.3,127.2,166.8,127.1,161.2L127.1,161.2z M407.4,156.5c-3.1-2.3-6.5-4.7-7.6-5.4l-2-1.3l3.8-7.7c2.1-4.2,4.1-7.7,4.5-7.7 s4.1,2.2,8.2,5c5,3.4,7.5,5.6,7.7,6.7c0.4,2.6-6,14.7-7.7,14.6C413.6,160.7,410.5,158.8,407.4,156.5L407.4,156.5z M147.8,157.8 c0.3-1.5,0.8-3,1.3-4.5c1.2-3.4,1.7-4,5.8-5.8c18.9-8.4,71.8-28.8,154.1-59.5c25.1-9.3,55.5-20.7,67.6-25.3s22.1-7.9,22.2-7.5 c0.3,0.9-1.8,5.1-3.2,6.2c-0.6,0.5-8.4,3.6-17.5,7s-31.9,12.1-50.8,19.4l-52.4,20c-69.6,26.6-115.1,44.6-124.2,49.2 C149.2,157.7,147.8,158.1,147.8,157.8L147.8,157.8z M0.7,132.5c0.6-0.6,7.1-4.6,14.4-8.9c14.2-8.4,24.8-15.4,30.3-20.2l3.5-3 l-3.7-2.6c-2-1.4-3.6-3.2-4.8-5.2c-2.1-5.1,1.2-12.7,7.5-16.6c6.8-4.3,10.5-2.4,10.5,5.5c0,2.6-0.3,5.3-0.9,7.8 c-0.9,3.6-0.9,3.6,2.2,6.2l3.1,2.7l-1.5,3.3c-2,4.3-3.1,5.3-4.5,3.7c-2.9-3.4-3.8-3.2-9.9,3c-9.7,9.7-19.9,15.8-37,22.1 C-0.2,133.9-1,134.1,0.7,132.5L0.7,132.5z M53.5,87.2c0-3.1-2.2-5.8-4.2-5.1c-2.5,0.8-4.5,2.7-4,4c0.2,0.6,1.9,2,3.7,3.1 C52.5,91.3,53.4,90.9,53.5,87.2L53.5,87.2z M390.3,121.8c2.7-2.1,10-6.3,19.6-11.4c4.4-2.3,9.9-5.5,12.3-7c3.7-2.4,4.2-2.9,3.2-3.9 c-1.8-1.8-14.2-3-26.5-2.5c-7,0.2-11,0.1-11-0.4c0-1,4.5-9.1,7-12.4c3.2-4.4,5.9-5,21.4-5c20.1,0,26.9,1.6,26.9,6.2 c0,4.5-14.4,23.2-21,27.2c-3.5,2.1-19.9,7.4-31.4,10.1l-2.4,0.6L390.3,121.8z M187,81.8c1.9-6.3,1.2-5.9,23.1-14.1 c51.7-19.2,62-23,62.3-22.6s-0.4,1.8-1.3,3.6c-1.4,2.7-2.4,3.5-6.1,4.9c-13.5,5-43.9,16.8-59.8,23.2c-10,4-18.4,7.3-18.5,7.3 S186.6,83,187,81.8L187,81.8z"/>
</svg>