<svg xmlns="http://www.w3.org/2000/svg" width="472" height="381">
<path d="M410.2,0c-1,0-6.6,14.5-6.6,17.2c0.2,2.6,0.6,5.1,1.2,7.6c1,4.3,3.2,35.9,3.3,48.4l0,3.2l-8.8,3.2c-4.8,1.8-9.2,3.5-9.8,3.8 c-1.1,0.7-3.9,7.6-3.3,8.2c0.2,0.2,5.2-1.6,11.1-4s11-4.1,11.2-3.8s1.1,8.8,1.8,18.9s1.9,26.5,2.6,36.4c1.8,24.5,1.9,47.6,0.3,50.8 s-7.9,7.2-14.2,8.9c-4.5,1.2-6,1.3-11.8,0.4c-3.9-0.6-7.7-1.4-11.4-2.6c-5.4-1.8-13.4-6.3-13.5-7.6c0-0.4,5.6-3.7,12.4-7.2l12.4-6.4 l2.7-5.5c4.9-10,4.3-12.8-3.2-17.1c-14.5-8.2-44.8-11.4-63.6-6.6c-8.5,2.1-18.4,6-21.2,8.3c-3.3,2.7-9.5,22.2-7,22.2 c1.8-0.6,3.5-1.4,5.1-2.4c6.5-3.7,9.8-3.9,15.5-1c4.7,2.4,11.6,7.2,17.5,12.4l3.1,2.8l-4.3,3.9c-6.5,5.8-17,18-21.3,24.5 c-2.1,3.2-4,6.1-4.3,6.4s-3.4-0.5-6.9-1.8c-2.2-0.9-3.9-1.5-5.1-1.9l-6.8-3.6c-6.9-3.9-14.3-11.3-16.7-16.7 c-4.8-10.8-6.4-24.1-8.6-72.2C259.4,66.7,257.2,46,251,23.4c-2.6-9.7-3.6-8.8-5.9,5c-1.3,7.8-1.3,8.4,0.3,17 c2.2,12.1,4.6,34.2,5.6,51.3c2.1,35.3,4.9,115.6,4.9,141.2v16.6l-2.6,2.6c-3.1,3.1-10.2,5.9-16.6,6.6c-6.8,0.7-11.7-1.2-16.6-6.4 c-6.9-7.3-10.7-17.6-15-40.9c-3.4-18.2-6.6-29.5-10.5-37.4c-1-2.1-2.2-3.8-2.6-3.8c-1,0-3.9,10.2-4.4,15.7c-0.4,4.1,0,6.4,2.3,14.6 c3.2,11.3,7.6,31.8,7.6,35.7c0,8.8-2.5,10.9-19.8,16.4s-16.3,5-19.9,13.9c-1.6,4.2-2.8,8.1-2.5,8.8s1.9,1.6,3.8,2.1s3.2,1,3.1,1.2 s-3.2,1.4-6.9,2.7c-15.6,5.7-32.6,17.8-62.8,44.7c-22.4,20-25.7,22.3-34.6,24.6c-11.8,3.1-19.6-4.1-19.6-17.9c0-6.9,2-14.8,8.3-33.3 c2.9-8.4,5.2-15.4,5.2-15.6s0.5,0.4,1.2,1.4c0.9,1.3,2.4,1.9,3.9,1.8c4,0,6.2-2.6,8.1-10c1.5-5.7,1.4-5.8-1.5-1.9s-4.3,4.4-6.4,2.9 c-3.6-2.6-3.2-11.5,1.1-23.3c2.9-8,3-10.2,0.2-12.8c-2-1.9-2.1-2.1-1.2-5.6c0.6-2.6,0.9-5.2,0.9-7.9c0-8-3.8-9.9-10.7-5.4 c-4.6,3-6.6,5.7-7.8,10.5s0,7.2,5.1,11l3.8,2.8l-3.4,3.1c-4.9,4.4-15,11.2-30.3,20.2c-13.9,8.3-15.4,9.3-15,9.7s10.1-3,18.6-6.5 c9.4-3.9,21.8-12.2,28.5-19.1c5.3-5.5,5.4-5.5,7.4-4.2c2.3,1.5,2.5,2.5,0.8,6.7c-2.2,5.8-4.4,15.7-4.4,20.6c0,3.3-0.4,5.3-1.1,5.9 c-1.6,1.3-9.7,19.6-12.5,28c-5,15.3-5.3,29.5-1,38.8c3,6.5,7.9,11.8,13.2,14.5c4.4,2.2,9.5,2.6,14.2,1.1c6-2.1,14.5-8.3,34.1-25.1 c11.3-9.7,23.6-19.8,27.2-22.6c13.4-10,25.9-16.8,36.9-20.2c10.7-3.3,26.4-1.5,35.9,4c3.6,2.1,4.6,2,5.6-0.6 c1.6-4.1,3.3-12,3.3-15.3c0-3.8-1.4-5.4-11.8-13.6l-6.4-5.1l3-3c3.6-3.6,6-7.9,8.4-15.5l1.8-5.6l1,3.6c5.9,22.9,18.4,34.5,34.6,31.9 c8.3-1.3,16.9-8.6,21.2-17.9c3.6-7.8,5.9-23.3,6-40.3c0-8.1,0.1-8.4,1.4-6.5c3,4.5,12.2,12.7,17.9,15.9c3.7,2.3,8,3.5,11.8,5.1 c1.4,0.4,2.6,0.9,2.6,1.2s-1,4.7-2.3,9.8c-3.5,13.7-4.4,22.8-3.9,39.4c0.4,12.1,0.8,15.9,2.5,22.4c5.9,22.5,20.5,35.6,43.4,38.9 c22.1,3.2,43.4-2.1,62.6-15.7c12.5-8.8,26.3-25.3,32.2-38.2c7.4-16.5,8.4-37.4,2.2-49.5c-2.3-4.5-8.8-11.1-13.2-13.5 c-8-4.3-24.2-6.2-52.9-6.2c-25.8,0-52.1-1.7-52.1-3.4s16.2-17.4,22.3-21.7l6.3-4.6l7.1,5.3c8,6,19.2,11.8,26.3,13.6 c8.2,2.1,16.3,2.4,21.2,0.8c8.8-2.9,17.6-14.9,21.5-29.3c4.5-16.9,4.5-30.6-0.3-95.1c-0.8-11.1-0.9-15-0.2-15.7 c0.5-0.5,11.6-4.9,24.6-9.9l23.8-9l1.4-3.1c0.8-1.7,1.2-3.2,1.1-3.4s-11.8,3.9-25.9,9.1s-25.8,9.2-26.1,8.9c-0.7-0.7-2.6-30.5-2-31 c0.2-0.2,1.9,1,3.6,2.8s3.8,3.3,4.5,3.3c2.2,0,1.2-4-5.9-22.8C411.9,2.2,411,0,410.2,0z M355.1,19.9l-1.9,0.5 c-1,0.3-17.7,6.4-37,13.6s-37.1,13.7-39.5,14.5c-4.3,1.5-6,3.4-7.6,8.9c-0.7,2.2-0.7,2.2,4.1,0.2c6-2.6,47-18.6,63.5-24.9 c8.1-3.1,15-5.8,15.4-6.1c0.7-1.1,1.4-2.3,1.9-3.6L355.1,19.9z M377,37.6c-16.6,0-18.1,0.6-23.7,10c-2.1,3.5-3.8,6.9-3.8,7.5 c0,0.9,1.8,1,9.8,0.5c10.2-0.6,24.2,0.5,27.1,2c1.5,0.8,1.5,1,0.3,2.3c-0.7,0.8-5.5,3.7-10.7,6.5c-13,7-24,13.4-24.6,14.4 s0.6,0.7,13.2-2.8s17.7-5.7,21.4-8.5c7-5.6,18.7-21.5,18.7-25.6C404.7,39.4,396.9,37.6,377,37.6L377,37.6z M193.8,61 c-0.9,0.4-6.8,14.4-8,19c-1.9,7.3-2,19-0.1,21.8c2,3.1,6.9,3.1,9.3,0.1c1.8-2.2,4.1-9,4.1-11.8c0-1.6-0.1-1.7-0.9-0.1 c-1.4,2.5-4.9,6-5.9,6c-0.6,0-1.8-1-2.8-2.2c-1.6-2-1.7-2.8-1.3-8.2c0.6-5.1,1.7-10.2,3.2-15.2C192.4,67.3,193.2,64.2,193.8,61 C193.9,61,193.9,61,193.8,61z M445.4,77.6c-0.8,0-5,10.1-6.3,14.8c-0.7,2.2-0.6,4.7,0.4,6.8c0.7,2.1,1.5,8.7,2,15.6 c1.1,18.8,3.8,58.6,5.5,83.6c4.2,61.1,4.9,75.8,4,87.7c-0.5,6.3-0.8,12.3-0.8,13.3c0,1.8,0,1.8,1.2,0.3c2.1-2.8,5.9-13.6,7.6-22.1 c3.5-16.8,3.3-20.8-3.6-117.1c-1.5-21.5-2.8-40.2-2.8-41.6v-2.4l3.8,3.8c7.6,7.5,7.5,4.3-0.5-17.2C448.2,82.7,446.1,77.6,445.4,77.6 L445.4,77.6z M310.4,79.6c-0.7,1-1.3,2.1-1.9,3.2c-7.6,14.4-10.1,32.5-5,37.6c2.6,2.6,7.5,1.2,9.5-2.8c1.5-2.9,3.9-13.1,2.5-10.8 c-1,1.5-2.2,2.9-3.5,4.2c-2.2,2.3-2.8,2.5-4.2,1.8c-4-2.1-4-9.7-0.2-22.8C309.9,82.3,310.8,79.4,310.4,79.6L310.4,79.6z M141.4,126.5c-0.4,0.1-0.8,0.2-1.2,0.3c-4.3,1.5-6.6,5.7-9.3,16.8c-3.2,13.4-3.1,13.3-4.1,9.9c-4.2-15.3-9.1-22.4-15.3-22.4 c-1.6,0-2.5,0.9-4.2,3.7c-2.7,4.5-2.1,6.9,2.3,9.4c2.5,1.4,3.2,1.5,4.6,0.7s1.8-0.7,3.2,1.1c1.6,2,6.7,14.6,7.7,18.9 c0.4,1.6,0,2.9-1.5,4.8c-1.7,2.2-3.8,8.9-3.8,12c0,0.5,1.3-0.3,2.8-1.8c2.4-2.4,3.1-2.6,4.9-2c3.4,1.2,3,2.3-1.3,3.8 c-2.5,0.7-4.6,2.3-6,4.4c-3,4.6-3.2,8.7-0.8,20.9c3.6,18.4,4.4,24.1,5,34.4c0.4,7.6,0.7,9.3,1.2,7.2c2.4-10.9,1.3-27.9-2.9-44.3 l-2.7-10.2l2.5-1.5c2.1-1.3,5.3-2.4,15.1-5.2c1.7-0.5,4.6-5.9,4.6-8.4c0-2.3-7.1-9-10.9-10.4c-3-1.1-3.2-1.8-1.9-5.2 c1-3.2,1.8-6.5,2.4-9.9c2.4-11.8,4.9-17.6,7.7-17.6c1.1,0.4,2.1,1.1,2.8,2c2.2,2.6,3.7,2.5,4.6-0.1c1.4-3.6,0.9-5.9-1.9-8.9 C143.3,127,142.5,126.4,141.4,126.5L141.4,126.5z M221.9,152.3c-1,0.2-6.3,13-7.8,18.7c-2.7,10.5-1.8,22.2,1.9,23.6 c1.8,0.7,3.8,0.6,5.5-0.3c1.8-1,4.3-5.7,5.1-9.6c0.3-1.5,0.8-3.5,1-4.4s-0.8,0-2.3,2c-3.1,4.1-4.9,4.8-7.1,2.8 c-3.4-3-2.7-10.8,2.1-26C221.4,155.6,222.2,152.5,221.9,152.3C222,152.3,222,152.3,221.9,152.3L221.9,152.3z M343,164.8 c8.1-0.2,20.7,1.7,21.4,3.7c0.1,0.4-3.1,2.6-7.3,4.9s-7.7,4.2-8,4.2s-0.7-0.5-0.9-1s-3.1-3.2-6.4-5.8l-6-4.7l2.6-0.7 C339.9,165.1,341.5,164.9,343,164.8L343,164.8z M49.5,234.1c1.7-0.1,3,1.2,3.5,3.8c0.3,1.3,0.2,2.7-0.2,4c-0.6,1.1-1.1,1-4-0.7 c-3.9-2.3-4.7-3.8-2.8-5.4C47,234.9,48.2,234.3,49.5,234.1L49.5,234.1z M306.5,243l4.1,0.5c17.2,2.2,25.5,2.8,46.9,3.2 c27.8,0.6,43.6,1.6,51.3,3.3c14,3.1,25,15,25,27.1c0,6.3-3.2,13.1-10.4,21.4c-12.4,14.5-32.4,26.8-51.6,31.7 c-16.2,4.1-36.8,2.4-50.4-4.2c-15.4-7.5-23.3-22.2-23.2-43.3c0-11.7,1.2-18.8,5.2-30.7L306.5,243z M341,256.1 c-2.2,0.2-5.3,2.5-9.1,6.8c-7.1,8-8.5,13.7-4.2,18c1.3,1.3,2.9,2.3,3.6,2.3c1.7,0,1.6,0.5-1.1,4.8c-3,4.4-4.9,9.4-5.7,14.6 c-0.9,5.7,0.5,9.4,4.4,11.4c3.6,1.9,15.4,1.3,21.4-1.1c4.9-1.9,14.3-8.2,13-8.7c-0.5-0.2-3.9,0.5-7.5,1.5 c-8.9,2.3-22.5,2.6-25.7,0.5c-1.3-0.7-2.2-2.1-2.1-3.6c0-4.4,8.7-15.8,16.6-21.8c2.6-2,5.4-4.7,6-6.1c1.5-3,2.5-8.3,1.7-8.3 c-0.3,0-2.4,1.6-4.5,3.6c-1.8,1.7-3.7,3.2-5.8,4.5c-2.7,1.2-7.1,0.2-9.3-2.1l-1.9-2l1.6-2.1c0.9-1.2,2-2.3,3.3-3.2 c1.5-1,1.9-1,3.5,0.6l1.8,1.8l1.5-1.9c2.1-2.7,2.6-5.3,1.6-7.6C343.5,256.7,342.3,256,341,256.1L341,256.1z M390.1,260.1 c-1.1,0-2.2,0.2-3.1,0.6c-2.3,1-5.6,6.2-5.6,9c0,1.2,0.2,1.2,2.8,0.1c4.9-2.1,7.7,0.8,5.6,5.8c-1.2,2.9-7.7,11.5-10.7,14.2 c-0.8,0.6-1.3,1.4-1.7,2.2c0,1.5,7.6-4.7,10.9-9c6.3-7.9,8.7-15.1,6.7-19.9C394.2,261.3,392.3,260,390.1,260.1L390.1,260.1z M284.4,298.7c-0.3-0.3-41.7,14.7-78.3,28.4c-4,1.5-4.6,2.1-5.8,5.1c-0.6,1.4-1,2.8-1.3,4.3c0,0.5,13-4.2,29-10.5 s34.6-13.5,41.4-16.1c11.9-4.5,12.5-4.9,13.9-7.8C284.1,300.5,284.6,298.9,284.4,298.7z M175.1,323.5c-2.1,0-4.2,1.5-6.1,4.4 c-1.2,1.8-2.6,3.2-3.2,3.2s-2.8,3.1-4.9,6.9c-4.3,7.7-8.4,11.7-18.9,18.2c-6.1,3.8-26.9,13.8-41.2,19.8c-4.2,1.7-7.7,3.3-7.9,3.5 c-1.1,1.1,5.4,0,17.2-2.8c7.3-1.8,13.6-3.2,14.2-3.2c1.7,0,15.2-7.3,21.2-11.4c7.5-5.2,13.1-11.3,16.2-17.8l2.4-5.1l4.5,3.1 c5.6,3.9,9.2,5.2,11.4,4c3.6-1.9,4.5-14,1.4-18.5C179.2,325,177.2,323.5,175.1,323.5L175.1,323.5z M173.3,332c1.8,0.1,3.4,1,4.5,2.4 c1,1,1.7,2.3,2.1,3.6c0,1.8-1.7,1.4-5.9-1.3c-3.2-2-3.7-2.6-2.9-3.6C171.6,332.5,172.4,332.1,173.3,332L173.3,332z M246.3,336.8 c-0.5,0-2.1,2.5-3.7,5.6c-1.9,3.9-3.1,5.4-3.8,5s-4.1-2.7-8-5.3s-7.3-4.5-7.6-4.3s-2.2,3.7-4.2,7.8l-3.6,7.4l2,1.5l8,5.8 c3.3,2.4,6.4,4.3,6.8,4.2s2.2-2.8,3.9-6l3.1-5.8l7.6,5.2c4.1,2.9,7.9,5.2,8.3,5.2c1.2,0,7.2-11.4,7.2-13.7c0-1.5-0.8-2.8-3-4.5 C255.1,341.8,247.3,336.8,246.3,336.8L246.3,336.8z"/>
</svg>