<svg xmlns="http://www.w3.org/2000/svg" width="516" height="284">
<path d="M337.8,280.3c0.5-3.1,3.6-7.5,7.2-10.1c2.1-1.6,2.2-1.6,6.4-0.1c4.6,1.6,9.9,1.2,10.7-0.7c0.2-0.6-0.1-3-0.8-5.3 c-1.6-5.5-1.6-7.4,0.3-9.6l1.5-1.9l1,2.7c1.8,5,4.4,9,6.6,10.4l2.3,1.3l4.1-4.5c6.7-7.3,11.2-10.3,15.3-10.3c6,0,7.5,4.5,4.3,12 c-2.7,6.2-11.7,11.2-20.2,11.2c-2.7,0-3.6,0.5-5.5,2.6l-2.3,2.6l0.4-2.5c0.3-2,0-2.9-1.6-4.3c-1.1-1-2.1-1.6-2.3-1.5 s-0.8,1.4-1.5,2.9c-2.3,4.5-7.9,6.2-13.7,4.1c-3.1-1.1-5.9-0.5-9,2.1S337.3,283.7,337.8,280.3L337.8,280.3z M386.1,265.6 c2.2-0.7,4.3-1.8,6.2-3.2c1.6-1.6,1.6-1.7,0.1-2.8c-0.8-0.6-1.7-1-2.8-1.1c-2.2,0-7.8,3.2-10.5,6l-2.7,2.8h2.6 C381.4,267,383.8,266.5,386.1,265.6L386.1,265.6z M88.6,280.8C72,279,58.4,270.3,50.8,256.6c-7.8-14.2-10.3-35.5-6.5-55.7 c1.4-7.4,4.2-16,5.7-17.7c0.6-0.7,1.1-3.1,1.1-5.6c0-3.7,1.5-10.4,4.7-20.5c0.7-2.3,0.6-2.8-1.3-4.2l-2.1-1.7l-4.4,4.7 c-9.2,9.8-20.8,17-36.7,22.9s-15.6,5.4,5.4-7.2c15.9-9.5,22.7-14.1,28.4-19.2l3.2-2.9l-2-1.3c-1.6-1.2-3.2-2.5-4.6-3.9 c-3.2-3.1-3.5-6.8-0.9-12.1c3.2-6.7,12.9-11.4,15.9-7.8c1.6,1.9,1.8,7.6,0.6,12.9l-1.2,4.9l2.3,2c1.2,1.1,2.3,2.8,2.3,3.8 s-1.3,5.2-2.9,9.5c-4.7,12.4-4,23.3,1.4,23.3c1.3,0,3.9-2.6,6.1-6.1c1.5-2.4-0.8,6.8-2.5,10.1c-2.7,5.2-6.3,6.2-9.6,2.9l-1.9-1.9 l-0.8,4.1c-1.8,9.1-4,23.5-4,26.6c0,8.3,5.4,21.1,12,28.5c9.3,10.4,20.3,15,37.4,15.7c11.6,0.5,19.6-0.4,31.4-3.5 c9.3-2.4,12.8-3.6,12.8-4.4c0-0.3-1.2-1.2-2.6-2c-9.9-5.1-18.4-17-21-29.5c-2.9-14.1-3.8-25.9-6-84.7c-1.9-48.3-3.4-62.3-8-75.4 c-2.1-6-2-7.9,0.5-15.3c2.1-6.1,3.2-8.1,4.3-8.1s4,7.8,6,16.2c4.2,17.6,5.5,33.1,6.8,81c1.2,43.8,2.5,57.8,6.5,73.5 c2.1,8.1,4.7,13.3,9,17.4c8.1,7.9,16,12.4,25.6,14.7c4.8,1.1,5,1.1,8.5-1c13.5-7.8,29.9-20.9,32.6-26.1c0.9-1.8,1.1-3.6,0.7-6.9 c-0.9-7.2-2.6-12.1-7.7-21.3c-2.7-4.8-5-9.6-5.3-10.8c-0.4-2.2,3.1-16.5,4.4-17.8c0.4-0.4,1.7,0.7,3.1,2.7c1.3,1.9,2.7,3.6,4.3,5.2 c2.3,2.3,11,7.5,12.3,7.5c0.5,0,3-3.7,5.6-8.2c17.7-31.2,35.2-50.8,51.1-57.3c14.3-5.8,33.2-1.1,46.6,11.6c7.6,7.1,9.4,11,8.2,17.6 c-1.7,9.4-9.9,24-18.7,33.4c-2,2.1-3.5,4.1-3.3,4.2s4-0.4,8.6-1.4c15.2-3.1,37-11.4,42.9-16.4l2.5-2.1l-1.9-4.9 c-1-2.7-3.7-8.6-5.9-12.9c-2.4-5-4.6-10-6.5-15.2c-1.6-4.6-3.3-7.8-4.5-8.8l-2-1.6l1.3-9.6c0.4-3.3,0.9-6.6,1.6-9.9 c0.6-0.6,3.8,1.9,12.6,9.9c9.9,8.9,10.6,10.6,3.9,10.2c-2.3-0.1-4.2-0.1-4.2,0.1s2,4.4,4.4,9.5c5.2,10.9,6.8,16.7,6.8,24.5 c0,15.7-7.7,28.7-21.3,35.9c-16.2,8.6-49.9,14.4-92.7,15.9c-16.7,0.6-26.4-0.3-34-3c-2.4-0.9-4.8-1.7-5.2-1.8s-1,3.6-1.3,9 c-1.1,19.3-4.2,27.5-14.2,37.4c-7.6,7.6-8,6.9,5.5,8.2c48,4.8,111.6-2.6,157-18.1c10.6-3.6,30.2-12.1,30.2-13c0-0.3-1-4.1-2.1-8.5 c-6-22.6,1.5-46.8,14.5-46.8c4.6,0,8,2.5,11.7,8.8c6,10,7.6,19.7,5,31.6c-1.4,6.6-6.4,17.3-9.9,21.4c-1,1-1.9,2.3-2.5,3.6 c0.5,1.1,1.3,2.1,2.2,2.9c6,5.8,20.7,9,30.1,6.6c5.7-1.4,11.2-4.6,13.6-7.8c3.4-4.5,3.2-13.4-1.9-84.2c-1.8-24.6-3.6-52.5-4-62 s-1.2-18.6-1.7-20.4c-1.9-6.9-1.8-8.6,1.3-16.6c1.6-4.3,3.2-7.8,3.6-7.8c0.9,0,4.1,7.5,10.4,24.4c8.1,21.8,8.4,25.8,1.1,18.7 c-1.9-1.8-3.6-3.2-3.8-2.9s1,20.2,2.8,44.3c4.8,66.9,5.2,74.6,4.1,86.4c-1.9,19.8-6.7,32.6-15.6,41.6c-7.1,7.1-12.9,8.7-24.1,6.7 c-10.2-1.9-21.6-10.5-26.8-20.1c-1.1-2.1-2.2-3.8-2.5-3.8s-4.6,1.9-9.6,4.3c-23.5,11.1-52.6,20.2-81.5,25.6 c-26.5,4.9-44.2,6.5-76,6.5c-28.7,0-37.6-0.7-53.8-4.1l-9.4-2l-6.6,3.6c-15.8,8.5-33.5,14.1-49.1,15.7c-8.9,0.9-9.5,0.9-18.1,0 L88.6,280.8z M402.3,207c9.9-6.6,10.1-8.4,2.6-19.9c-5.1-7.9-8.4-9.5-12.6-6.2c-3.1,2.4-5.3,7.3-5.3,11.5c0,4,2.4,11.9,5,16.6l1.7,3 l2.5-1.3C397.6,210,400.4,208.4,402.3,207L402.3,207z M252.7,175.2c19.7-4,46.4-16.8,56.8-27.1c3.1-3.1,3.8-4.2,3.4-5.8 c-0.7-2.6-8.2-9.7-13.9-13.1c-14.1-8.6-26.8-8.3-40.3,0.7c-6.7,4.5-19.5,17.2-26.1,26c-5.8,7.7-12.1,17.8-11.5,18.4 c1.5,0.6,3,1.1,4.6,1.4C232.2,177.3,243.8,177.1,252.7,175.2L252.7,175.2z M52.8,138.6c0.6-6.5-2.4-9.3-6.5-6 c-2.1,1.7-1.7,3.2,1.8,5.6C51.2,140.4,52.7,140.5,52.8,138.6L52.8,138.6z M489,257.3c1.2-9,1.5-26.7,0.6-40.9 c-1.2-19.1-6.2-92.4-7.2-106.8c-0.4-5.9-1.2-18.2-1.6-27.2s-1.4-18.5-2-21.1c-0.6-2-0.9-4.1-1.2-6.2c0-2.5,5.8-16.8,6.6-16.5 s9.9,22.7,14,34.8c4,11.8,3.3,14-2.8,8c-1.9-1.8-3.6-3.1-3.9-2.9s0.1,7.8,0.8,16.8c9.1,121.1,9.3,128.7,4.4,147.9 C493.5,255.9,487.7,266.4,489,257.3L489,257.3z M215.9,241.2c0-0.1,0.7-2.2,1.6-4.5c1.6-4.1,1.7-4.3,7-6.2c3-1.1,21.3-7.8,40.6-15 s35.7-13.1,36.2-13.1c1.6,0-2,6.3-4,7.2c-1,0.4-12,4.7-24.6,9.5s-30.4,11.8-39.8,15.5S215.9,241.3,215.9,241.2L215.9,241.2z M312.7,227.2c-4.2-3-7.7-5.8-7.8-6.3c-0.3-0.9,6.8-15.3,7.5-15.3c0.5,0,12.6,8,15,9.9c1.1,0.9,1.4,1.8,1,3.8 c-0.6,3-6,12.8-7.3,13.1C320.7,232.6,316.9,230.2,312.7,227.2L312.7,227.2z M148.2,213.5c-1.3-1.4-1.5-3-1.5-10.6 c0-7.3,0.3-9.9,1.9-14.5c2-5.8,6.5-15.8,6.9-15.4c-0.6,3.2-1.5,6.4-2.5,9.6c-1.3,4.4-2.4,8.8-3.2,13.3c-0.9,6.7,2,12.2,5.7,10.8 c0.8-0.3,2.4-2.2,3.7-4.2l2.4-3.7l-0.6,3.2c-0.9,5-2.6,9.4-4.5,11.4C154.3,215.8,150.7,215.9,148.2,213.5 C148.3,213.6,148.3,213.6,148.2,213.5L148.2,213.5z M160,134.6c-1.6-6.1-3.8-12-6.7-17.6c-1.4-2.4-1.8-2.6-4.5-2.1 c-2.5,0.4-3.4,0.1-5.5-1.7c-3.1-2.6-3.2-4.2-0.5-8.9c2.4-4,4-4.4,8-2c4.7,2.8,8.8,10.4,10.7,19.7c1.2,5.6,1.4,5.3,4-6.4 c3.1-14.1,6.2-19.2,11.3-18.7s8,8.3,4.7,12.3c-0.8,0.9-1.4,0.7-3.7-1.3c-3.2-2.8-3.6-2.9-5.2-1c-1.8,2.1-3.6,7.6-5.8,18 c-1.9,9-3.8,14.2-5.1,14.2C161.3,139.2,160.6,137.1,160,134.6L160,134.6z M396.8,126.4c-7.5-4-7.6-4.1-5.8-6.5 c2.8-3.7,9-12.9,9-13.5c0-0.3-2.4-1.8-5.3-3.3c-2-0.9-3.9-2.1-5.7-3.4c-0.2-0.4,0.3-1.6,1.1-2.8s3.4-4.9,5.7-8.3l4.1-6.1l7.3,3.3 c4,1.8,7.5,3.8,7.7,4.4c0.5,1.3-1,4-6.3,11.4l-3.8,5.3l6,3c4.5,2.2,5.9,3.3,5.5,4.2c-0.3,0.7-2.7,4.4-5.4,8.4 c-3.6,5.3-5.3,7.1-6.6,7.1C403.5,129.7,400.1,128.2,396.8,126.4L396.8,126.4z M68.8,105.7c-1.1-1.3-1.8-2.9-2.1-4.5 c-0.8-4.1,0.1-14.2,1.7-19.5c1.4-4.8,6.8-17,7.3-16.5c0.2,0.2-1,4.8-2.6,10.2c-1.9,6.4-2.9,11.7-3,15c-0.1,4.6,0.1,5.3,2.1,7 c2.7,2.3,4.6,1.6,7-2.6c2.1-3.5,2.5-3.4,1.8,0.3C79.2,105,73.2,110.2,68.8,105.7L68.8,105.7z M123.4,90.1c0.5-1.6,1-3.1,1.6-4.6 c1.2-2.8,1.2-2.8,35.4-15.7l83.4-31.4c57.2-21.5,57.6-21.7,57.6-20.7c-0.3,1.2-0.8,2.4-1.3,3.5c-1.1,2.3-2.2,3.1-6.6,4.8 c-28.3,10.6-40.6,15.3-78.5,29.9c-24,9.2-54.5,21.1-67.9,26.4C125.4,90.9,123,91.7,123.4,90.1L123.4,90.1z M312.8,79.3 c-1.1-1.3-1.8-2.9-2.1-4.5c-0.9-4.5,0.2-15.6,2-20.8c2-5.9,6.4-15.8,6.9-15.4c0.2,0.2-0.9,4.6-2.5,9.9c-3.3,11.2-3.8,18.1-1.7,21.4 c0.8,1.2,2.1,2.2,2.9,2.2c1.5,0,4.8-3.1,6.4-6c1.5-2.6,0.2,4.1-1.7,8.6C320.4,80.7,316.1,82.6,312.8,79.3L312.8,79.3z M368.8,76.9 c1-0.8,5.7-3.6,10.3-6.1c18.9-10.4,24.3-13.6,24.6-14.6c0.7-2.1-4.4-2.8-21.2-3.2c-9.4-0.2-17-0.6-17-1c0-1.4,7.8-13.3,9.7-14.6 c3-2.2,7.3-3,17.2-3c11,0,21.5,1.2,25.2,3c4.5,2.2,4.2,4.7-1.1,12.5c-6.9,10.2-13.4,16.8-19.1,19.5c-4.9,2.3-26.1,8.9-28.9,8.9 C367.1,78.3,367.2,78.1,368.8,76.9L368.8,76.9z M240.7,73.1l-7.9-5.7l-1.9-1.4l3.7-7.4c2-4.1,4.2-7.4,4.8-7.4c1,0,10.9,6.3,14.7,9.4 c1.7,1.3,1.7,1.7,0.9,4.2c-1.6,4.5-6.4,12.8-7.4,12.7C247.1,77.5,244,75.5,240.7,73.1L240.7,73.1z M429.9,36.8 c2.1-6.8,2.4-7,14.8-11.5c6.4-2.3,24.7-9.1,40.8-15S514.8-0.3,515,0c-0.1,1.2-0.4,2.3-0.9,3.3c-1.1,2.5-1.9,3-14.6,7.8 c-10.1,3.8-60.1,23.4-69,27.1C429.6,38.5,429.5,38.2,429.9,36.8L429.9,36.8z"/>
</svg>