<svg xmlns="http://www.w3.org/2000/svg" width="386" height="351">
<path d="M40.3,348.4c-5.4-2.1-9.1-4.2-9.1-5.3c0-0.4,1.8-0.5,3.9-0.2c3.6,0.2,7.3,0.2,10.9-0.1c6.7-0.6,7.1-0.7,10.5-3.8 c3-2.8,3.8-4.3,6.4-12.2c3.2-9.6,3.2-12,0.2-14.9c-1.9-1.9-4.1-1.5-7.3,1.5l-2.2,2.1v-2.6c0-5.5,4.5-10.5,9.6-10.5c4.8,0,6,2,6,10.3 c0,6-0.4,7.7-2.5,12.8c-2.6,6.1-2.7,6,2.5,1.9s11.6-5.3,15.8-2.8c3.4,2,3.7,4.4,1.2,9.5C80.2,346.1,54.9,354.1,40.3,348.4 L40.3,348.4z M67.3,339.3c12.2-4.2,15.1-6.5,10.6-8.2c-1.7-0.7-2.9-0.4-6.3,1.3c-4.9,2.5-11.8,8.3-9.9,8.3 C63.6,340.5,65.5,340,67.3,339.3L67.3,339.3z M164.3,340.2c-3.5-2.5-7.3-5.1-8.3-5.8l-1.9-1.3l3.7-7.7c2.1-4.2,4.1-7.7,4.5-7.7 s4.1,2.3,8.2,5c5.4,3.6,7.5,5.5,7.7,6.9c0.3,1.9-4.8,12.9-6.6,14.4C171,344.4,168.7,343.2,164.3,340.2L164.3,340.2z M202.4,338.2 c0.2-0.2,3.7-2.6,7.8-5.4c5.8-3.8,9.4-7.2,16.1-14.8c15.4-17.2,23.3-21.6,33.9-18.5c2.5,0.7,5.4,1,6.5,0.8c2.2-0.5,6.4-4.9,7.9-8 c0.4-1,1.1-1.8,2-2.3c1-0.4,1.1,0.1,0.6,2.7c-0.5,2.9-0.4,3.2,1.5,3.7c1.3,0.3,2.6,0.4,3.9,0.2c1.6-0.2,1.9-0.6,1.6-3.2 c-0.2-1.8,0.2-3.6,1.1-5.1c1.3-2,1.5-2,2.5-0.7c0.7,1.2,1.1,2.6,1,3.9c0,3.4-2.2,10.4-3.7,12s-6.9,1.6-9.2,0.4 c-1.3-0.7-2.1-0.5-4.4,1.2c-5.2,3.9-7.9,4.6-13.9,3.6c-11.1-2-16.7,0.7-31.6,15.2c-9.9,9.5-14.9,12.9-21.2,14.1 C203.2,338.4,202.1,338.4,202.4,338.2L202.4,338.2z M342,307.1c0.9-1,3-3.5,4.6-5.3c4.2-4.7,7.8-10.6,7.8-12.7 c-0.1-1.2-0.7-2.2-1.6-2.9c-1.6-1.1-5.2-1-6,0.3c-1,1.7-1.7,0.5-1.1-2.1c1.6-7.2,8-10.8,12-6.8c2.5,2.5,2.1,8.1-0.8,14.3 c-2.4,5.1-10.3,14-14.4,16.1l-2,1L342,307.1z M107.6,302.3c-29.9-1.1-50.4-5.8-68.4-15.5c-8-4.3-12.5-8.4-17.3-15.8 c-4.3-6.5-5.5-9.8-7-18.9c-2.4-14.4-3.2-25.9-5.3-79.7c-0.9-22.4-2-44.4-2.4-48.8c-1.1-10.1-3.6-22.5-5.6-27.9 C0.7,93.6,0.2,91.3,0,89c0-2.8,2.5-10.8,4.5-14.8c1.5-3,2.6-2,5,4.5c6,16.3,8.2,37.2,9.7,91.7c1.5,52.1,3.7,69.9,10.5,83.3 c3.8,7.5,15.2,16.4,25.3,19.8c12.5,4.2,42.8,8.2,63,8.4l13.5,0.1l1.4-3.5c0.9-2.4,2.1-3.9,3.7-4.6c1.3-0.6,19.8-7.5,41.1-15.4 c28-10.4,38.9-14,39.1-13.3c0,1.2-0.4,2.4-1,3.4c-1,2-3,3-13.4,7c-21.9,8.3-64.9,25.3-66.2,26.1c-1.9,1.2,23.3,0.1,39.5-1.7 c44.1-5,88.6-16.8,116.3-30.7c2.6-1.4,5.4-2.7,8.2-3.7c0.5,0,0.8,2.9,0.9,7.4c0.1,13.9,4,19.1,14.6,19.2c6.3,0,12.5-2.3,17.3-6.4 c3.2-2.8,3.3-3.2,4-9.4s0.2-19.3-1.6-44.8c-0.4-6.2-1.9-26.5-3.2-45.2s-2.8-41.5-3.2-50.5c-0.5-10.8-1.2-17.9-2.1-20.7 c-0.7-2.2-1-4.5-0.8-6.8c0.7-3.5,5.5-15.7,6.2-15.7c1,0,2.5,3.6,9.4,22c6.5,17.3,8.4,24.4,6.5,24.4c-0.5,0-2.5-1.5-4.5-3.3 s-3.7-3.2-3.9-3s1.1,19.4,2.8,42.7c4.6,63.8,5.2,76.6,4.1,88.4c-1.1,12.3-3.3,20.8-7.4,29.4c-8.1,17-21.6,23.4-34.6,16.4 c-4.2-2.3-6.6-4.9-9.2-10.2c-1.5-3.1-1.9-4.5-3-10.9l-0.5-2.9l-10.2,4.6C230.2,293.9,171.4,304.7,107.6,302.3L107.6,302.3z M374.9,280.4c0.6-17.4,0.6-17.8-4.9-97.6c-1.9-28.2-3.9-58.2-4.4-66.8s-1.2-17-1.8-18.8c-1.5-5.4-1.1-9.9,1.7-17 c1.5-3.8,3-6.5,3.5-6.3c1.9,0.6,15.7,36.8,16.3,42.8c0.2,1.9,0,3.4-0.4,3.4s-2.4-1.6-4.5-3.6s-3.9-3.3-4.1-3s1,19.9,2.7,43.4 c6.2,85.9,6.7,96.2,4.8,109.6c-1.5,10.7-6.4,26.6-8.9,29.2C374.6,296.1,374.5,290.9,374.9,280.4L374.9,280.4z M99.5,265.3 c-4.4-1.1-10.3-4.3-12.4-6.6c-4.9-5.5-7.1-15.7-5.7-26.5c0.3-2.8,0.8-5.5,1.4-8.2c0.4-1.1-0.5-1.4-6.5-1.8c-7.5-0.5-15-2.2-27.8-6.4 c-9.2-3-24.2-10.2-23.6-11.4c0.3-0.5,10.4-0.8,28-0.8c15.2,0,29.8-0.3,32.4-0.7l4.8-0.7l7.2-8.7c11-13.2,10.4-11.5,10.3-33.1 c-0.1-12.7-1-30.5-3-57.6c-1.6-21.6-3.3-47.1-3.8-56.8s-1.4-20.1-2.1-23.1s-1-6.5-0.8-7.8C98.6,11.4,103.3,0,104,0s1.5,1.5,9.6,23 c8.9,23.6,9.2,27.6,1.8,19.8c-1.9-2-3.6-3.2-3.9-2.8s0.5,12.4,1.6,26.6c5.1,65.1,5.3,70.9,2,94.6c-0.9,6.6-1.5,12.1-1.2,12.3 s3.8-2.9,7.9-6.8c15.2-14.5,34.9-27.5,47.2-31c3.7-0.9,7.6-1.4,11.4-1.4c5.8,0,7.4,0.3,11.3,2.2c5.3,2.6,11.8,9.1,15,14.9 c2,3.8,2.2,4.5,1.8,11.3c-0.2,3.8-0.7,7.6-1.6,11.3c-2.4,7-6.6,13.3-12.2,18.2c-15.3,12.5-58.5,25.6-96.3,29.3 c-5.1,0.5-9.5,1.2-9.9,1.6c-1.4,1.4-1.5,10-0.2,13.1c4.8,11.2,26.5,13,54.5,4.5c11.9-3.6,49.8-18.5,59.8-23.6 c9.3-4.7,13.6-7.4,20.5-12.9s7.3-4.9,5.6,5.3c-1.2,7.2-0.2,10.9,3.7,13.6c7.3,5,22.8,2.6,29.4-4.4c1-1.1,4.7-6.3,8.2-11.7 c8.4-12.8,11.2-13.3,8-1.5c-1.3,4.9-0.8,6.8,2.5,9.8c4.6,4.2,13.8,5.1,17.3,1.6l1.6-1.6l-2.2-4.2l-2.2-4.2l2.3-8 c1.6-5.6,2.7-8,3.5-8c0.7,0,2.3,2.1,3.6,4.8c2.2,4.3,2.4,5.4,2.3,12.2c-0.2,13.4-5.5,24.2-13.8,28.5c-8.5,4.3-15.9,2.4-21.4-5.5 l-2.9-4.2l-4.1,5.7c-4.5,6.3-10.7,11.1-16.5,12.8c-5.5,1.6-14.1,1.3-18.6-0.7c-6.2-2.8-10.2-10.2-10.2-18.7v-2.4l-4,3.5 c-6.6,5.8-15.4,10.6-33.3,18.1c-35.9,15.2-53.8,20.7-69.5,21.3C106.7,266.2,102.2,266,99.5,265.3L99.5,265.3z M123.7,198 c15.3-2.6,36.8-8.2,49.2-12.7c13-4.7,25.3-10.4,26-12s-1.4-4.7-7.4-10.6c-6.6-6.7-11.6-9-19.4-9c-17.9,0-39.2,12.7-64.5,38.4l-8.8,9 l6.7-0.5C109.3,200.3,117.5,199.2,123.7,198L123.7,198z M57.8,186.7c-1.9-2.9-2.3-11.3-0.8-18.5c1.3-6.1,6.2-19.1,7.8-20.6 c1.1-1,1-0.7-2.1,9.6c-1.3,4.4-2.2,9-2.6,13.6c-0.3,5.7-0.2,6.6,1.3,8.2c0.7,0.9,1.7,1.5,2.7,1.8c1.1,0,4.5-3.4,6.1-6 s0.2,4.1-1.7,8.6c-1.8,4.2-3.3,5.4-7,5.4C60.1,188.9,58.6,188.1,57.8,186.7L57.8,186.7z M264,161.9c0.9-1.1,5.4-3.7,25.1-14.6 c8.1-4.4,10.8-6.3,10.8-7.4c0-1.8-6.2-2.6-21.5-2.9c-9-0.2-16.5-0.4-16.7-0.6s1.4-3.3,3.6-7c5.2-8.9,7.5-10.2,18.8-10.8 c9.9-0.5,24.8,0.8,29.3,2.6c5.3,2.1,5.1,4.3-1.5,14c-10.8,15.8-16,19.1-40.1,25.6C265.3,162.5,263.3,162.8,264,161.9L264,161.9z M223.7,159.9c-5.5-3.2-4.6-18.6,1.9-33.7c1.1-2.7,2.4-5.4,3.8-7.9c0.4-0.4-0.5,3.5-2,8.7c-3.4,11.5-4.2,20-2.2,23s5.1,2.4,7.6-1.5 s2.9-2.7,1.2,3.2C231.9,158.8,227.7,162.2,223.7,159.9L223.7,159.9z M21.9,128.9c0.2-0.4,6.1-4.1,13-8.1c16-9.4,27.7-17.4,31.7-21.4 l3.1-3.1l-2.8-1.8c-4.2-2.6-6.1-5.4-6.1-9.1c0-6.7,7.5-15,13.6-15c1.6,0,3.3,0.4,3.8,1c1.6,1.9,1.9,6.6,0.7,12.2l-1.2,5.6l2.7,2.3 c3.2,2.7,3.3,3.5,1.1,7.8c-1.8,3.5-2.5,3.8-4,1.9c-2.7-3.2-3.4-2.9-10.4,3.9c-10.2,10-18.2,14.8-35.4,21.3 C22.6,129.7,21.1,130.1,21.9,128.9L21.9,128.9z M74.4,84.3c0-5.5-2.5-7.3-6.2-4.7c-2.5,1.8-2.2,3,1.2,5.4 C73.4,88,74.4,87.8,74.4,84.3L74.4,84.3z M125.6,123.1c0.9-2.3,2-4.4,2.5-4.7s8.2-3.3,17-6.6c121.3-45.7,156.8-58.9,157.1-58.6 s-0.2,1.8-1,3.5c-1.4,3.1-1.6,3.2-15.9,8.5c-22.7,8.4-98.7,37.7-131,50.5c-16.1,6.3-29.5,11.5-29.8,11.5S124.7,125.3,125.6,123.1 L125.6,123.1z M296,85.4c0.4-1.6,1-3.1,1.8-4.5c1.3-2.6,2.5-3.8,4.6-4.6c59.4-22.1,78.7-29.1,79-28.7s-0.2,1.8-1,3.4 c-1.3,2.9-1.8,3.2-13.9,7.8c-10.3,3.9-50.3,19.5-66.2,25.9C297.3,85.9,296,86.1,296,85.4L296,85.4z M25.1,67.9 c-2.4-2.6-2.5-13.1-0.4-21.6c1.6-6.2,7.1-19.5,7.9-18.8c0.2,0.2-0.8,3.9-2.1,8.2c-3.6,11.8-4.4,16.9-3.3,20.9c1.6,6,6.2,6,9.2,0.2 c1.6-3.1,2.1-3,1.5,0.2c-0.9,4.6-2.7,8.9-4.4,10.8C31.2,70.1,27.5,70.2,25.1,67.9C25.2,68,25.1,67.9,25.1,67.9z M163.2,60.5 c0-2.1-4.6-15.4-6.8-19.7c-1.5-3-3.2-3.8-4.8-2.5s-5.5-0.8-7.4-3.7c-1.3-2-1.3-2.2,0.9-6.4c1.9-3.7,2.6-4.3,4.6-4.3 c5.2,0,11.3,8.6,14.2,20c0.8,3.3,1.7,5.5,1.9,4.8s1.4-5.7,2.7-11.2c1.6-7.2,2.9-11,4.7-13.6c2.2-3.3,2.7-3.6,5.6-3.6 c2.7,0,3.4,0.4,5,2.7c2.1,3.2,2.3,6.2,0.6,8.7l-1.3,1.8l-2.8-2.5c-1.5-1.4-3.2-2.3-3.7-2.2c-1.9,0.6-4.6,7.7-6.8,17.8 c-1.2,5.7-2.8,11.5-3.4,12.7C164.8,62.6,163.2,63.1,163.2,60.5L163.2,60.5z M237.9,56.2c-2-1.4-2.7-4.5-2.7-11.2 c0-8.2,1.7-15.3,6-24.7c3.2-7.1,4.4-7.6,2.1-1c-5,14.4-5.9,24.7-2.6,28c2.3,2.3,4.6,1.2,7.5-3.2c2.1-3.3,2.3-3.4,1.9-1.3 c-2.2,10.1-4.3,13.5-8.4,13.8C240.4,56.8,239.1,56.6,237.9,56.2L237.9,56.2z"/>
</svg>