<svg xmlns="http://www.w3.org/2000/svg" width="516" height="321">
<path d="M427.1,319.5c-4-1.7-5.6-4.1-5.6-8.3c0-5.5,2.9-10.8,10.6-19.1c3.8-4.1,6.9-7.8,6.9-8.1c0-1-1.2-1.5-5.8-2.4 c-2.6-0.6-5.4-0.5-8,0.3c-3.4,1-3.6,1-3.2-0.2c1.3-3.2,3.8-6.4,5.5-7.2c2.9-1.3,12-1.1,15.1,0.4c2.3,1.1,2.7,1.7,2.7,4 c0,4.1-1.5,6.4-10.8,16.3c-4.6,5-8.8,10.1-9.2,11.3c-2.4,7,11.7,8.8,29.5,3.9c3.3-0.9,6.1-1.5,6.2-1.4c0.6,0.6-6,5.5-10.6,7.7 C442.7,320.7,432.6,321.8,427.1,319.5L427.1,319.5z M110.3,308.9c0-3.1,4.5-9.6,7.9-11.4c2.4-1.3,2.9-1.3,5-0.3 c3,1.5,9.8,1.5,11.1,0c0.8-1,0.7-2.2-0.4-6.4c-1.4-5-1.4-5.4,0-8.2l1.4-3l2.6,5.6c2.5,5.4,4.4,7.8,6.7,8.5c0.6,0.2,3.3-2,6-4.8 c8-8.4,13.8-11.2,18.1-8.9c3.4,1.8,2.6,10.5-1.3,15.2c-3,3.6-9.1,6.3-16.4,7.4c-5.8,0.8-6.5,1.2-7.6,3.2c-1.6,3-2.2,2.8-1.7-0.5 c0.4-2.3,0.1-3-1.6-4.1c-1.5-1-2.2-1.1-2.4-0.4c-0.8,2.4-4.6,5.8-7.4,6.6c-2.6,0.8-3.7,0.7-6.8-0.5s-4.1-1.2-6-0.4 c-1.2,0.5-2.3,1.2-3.3,2.1c-0.7,0.8-1.5,1.4-2.4,1.9C110.5,311.1,110.3,310.9,110.3,308.9L110.3,308.9z M159.2,293 c2-0.7,3.8-1.6,5.6-2.7c1.6-1.2,1.7-1.6,0.8-2.7c-1.6-1.9-5.7-1.5-9.3,0.8c-4,2.7-6.8,5.2-6.8,6.1S154.2,294.7,159.2,293L159.2,293z M455.1,302.7c0-1.7,0.4-7.3,0.7-12.4c0.4-5.9,0.5-11.9,0.2-17.9l-0.4-8.7l-4.1,0.5c-4.9,0.6-9.4,1.8-33.6,8.8 c-30.2,8.7-60.9,15.3-92.1,19.6c-39.9,5.3-81.7,4.1-112.2-3.2c-23.2-5.6-38.8-13.7-47.8-24.9l-2.4-3l-10.1,5 c-38,18.9-74.5,18.9-93.2,0c-5.7-5.7-11.4-16.1-13.5-24.6c-2.8-11.1-3.2-25.3-1.1-39.2c1-6.6,5.2-20.4,6.3-20.4c0.4,0,0.2-1.4-0.5-3 c-1.7-4.1-0.9-11.7,2.1-21.3c2.9-9,2.9-9.6,0.5-11.2c-1.9-1.2-2-1.2-6.9,3.9c-5.7,6-16.6,13.9-23.5,17.2c-5.4,2.5-21.8,8.8-23.1,8.8 c-1.7,0,1.6-2.3,14.7-10c16.8-10,24.2-15,29-19.5l3.8-3.6l-3.3-2.2c-4.8-3.2-5.8-5-5.4-9.9s2.5-8.3,7.3-11.7 c3.9-2.8,8.8-3.2,10.2-0.8c1,2,1.1,10.8,0,14.4c-0.7,2.4-0.5,3,1.6,5.4c1,1,1.7,2.1,2.4,3.3c0,0.3-1.4,4.7-3.2,9.8 c-4.8,13.7-4.3,23.2,1.2,23.2c1.7,0,3.1-1.2,5.8-5.3c0.8-1.3,0.9-1,0.5,1.7c-1.2,8.1-5.2,13-9.9,12c-1.6-0.4-2.4-0.2-2.4,0.4 s-1.1,7.5-2.5,15.5c-2.8,16.4-2.7,20.4,0.5,29.6c5,14.5,17.5,25.7,33.2,30c7.7,2.1,26.4,1.8,37.6-0.5c9.1-1.9,24-6.7,31.5-10.1 l4.7-2.1l-0.5-3.7c-1.8-12.3-2.9-29-4-56.5c-3.1-78-3.5-82.5-9.2-100.2c-1.8-5.6-1.8-5.9-0.6-10.4c1.7-6.1,4.3-12.2,5.3-12.2 c1.1,0,4.1,7.5,6.2,15.7c4.2,16.4,5.5,31.5,6.7,75.9c1.2,43.8,2.6,62.7,5.6,74.8c2,8,2.5,9.6,3.4,9.6c1.7,0,21-13.4,26.3-18.3 c5.6-5.1,7.9-8.8,7.9-12.7c0-5.5-3.3-15-8.4-24.1c-2.9-5.1-5.2-10-5.2-10.8c0-3.1,4.3-17.3,5.2-17.3c0.6,0,1.9,1.6,3.1,3.5 c1.6,2.4,3.6,4.6,5.9,6.3c3.9,2.8,10.6,6.5,11,6c0.1-0.1,2.3-3.9,4.8-8.3c14.7-25.8,29.7-44.3,42.7-53c12.7-8.4,29-8.9,43.6-1.2 c7.4,3.9,18.3,14.4,19.6,18.9c2.3,8.4-6.5,27.7-18.1,39.9c-2.5,2.6-4.3,4.8-4.1,5c0.7,0.7,18.4-3.5,26.3-6.1 c21.1-7.1,47.2-21,47.2-25c0-2.8-2.7-6.9-5.9-8.7c-4.5-2.6-10.9-3.6-23.2-3.6c-8.5,0-11.1-0.3-13.8-1.5c-9-4.1-11.1-17.6-4.8-30.8 c3.1-6.4,9.3-13.7,13.1-15.3c10.9-4.5,25.7,4.9,34.1,21.8c4.7,9.4,5.7,14.3,5.7,28.7c0,16-1.5,21.9-7.2,28.3 c-6.6,7.4-27.1,18.6-44.7,24.4c-19.1,6.4-55.1,10.9-87.3,10.8c-17.1,0-23.1-0.7-29.5-3.4c-1.2-0.6-2.4-1-3.7-1.3 c-0.3,0-0.8,4.4-1.1,9.8c-0.9,19.3-4,27.2-14.3,37.1c-3.8,3.6-7.8,7.1-12,10.3c-6.3,4.6-6.3,4.4,2.5,10.4 c26.6,18,101.4,22.5,174.5,10.4c20.3-3.4,42.5-8.2,54.8-12c12.7-3.9,15.4-4.9,14-5.4c-1.7-0.6-47.6-11.4-57.2-13.4 c-5.5-1.1-11.1-1.8-16.7-2.3c-4.8-0.4-8.9-0.9-9.2-1.2s1.1-3.7,3-7.5c2.4-4.7,4.3-7.3,5.7-8c1.2-0.6,8.2-2.8,15.6-5 c14.5-4.3,26-8.4,28.9-10.2c1.3-1.1,2.2-2.5,2.6-4.1c1.9-6.6,0.9-32.9-3.6-96.1c-0.7-9.5-1.6-24.6-2-33.6c-0.5-10.2-1.2-18-2-20.4 c-0.6-2.1-1-4.2-1.2-6.4c0.1-3.4,5.1-16,6.4-16s3,4.1,10.8,25.1c5.3,14.1,7,20.9,5.2,20.9c-0.5,0-2.5-1.7-4.5-3.7s-3.8-3.5-4-3.3 s0.1,7.6,0.8,16.3c5.5,70.3,5.9,97.4,1.6,116.3c-1.4,6.3-5.9,15.5-9.6,19.9c-1,1.1-2,2.3-2.7,3.6c0,0.5,26.2,6.8,43.2,10.4l12.4,2.6 l0.2-2.6c0.2-2.4-0.6-15-4.2-67.5c-0.7-9.5-1.7-26.2-2.4-37.2c-0.8-13.8-1.6-21.3-2.5-24.1c-1.3-4-1.3-4.1,0.8-10.4 c2.5-7.3,4.1-10.8,5.1-10.8c1.4,0,16.9,41.6,16.9,45.2c0,2.1-1.9,1.2-5.8-2.6l-3.8-3.7v4.4c0,2.4,0.4,8.9,0.8,14.4s1.3,17.9,2,27.6 s1.6,21.9,2,27.2s1.2,16.5,1.7,25s1.2,15.8,1.5,16.3c0.9,1.4,16.4,3.7,38.5,5.8c6.1,0.6,11.2,1.3,11.5,1.6s-1.5,4.4-4,9.1l-4.5,8.6 h-20c-11,0-20.2,0.2-20.5,0.5s-0.8,4.2-1.3,8.8s-1.4,10.9-2.1,13.9c-1.5,6.6-5.6,17.9-7.2,19.6C455.2,305.7,455,305.4,455.1,302.7 L455.1,302.7z M255.1,174.7c9.5-2,19.5-5.6,31.1-11.2c12.6-6.2,19.8-10.8,25.1-16.2c3.8-3.9,3.9-4,2.7-6.3 c-2.7-5.2-13.7-13.4-22-16.4c-3.3-1.2-6.5-1.7-11.7-1.7c-6.7,0-7.6,0.2-13.2,2.8c-10.5,5-22.3,15.9-33.7,30.9 c-5,6.5-10.3,15.2-10.3,16.7c0,0.8,3.3,1.8,10.4,3C236.9,176.9,248.9,176,255.1,174.7L255.1,174.7z M52.7,131.5 c0-5.5-2.5-7.3-6.2-4.7c-2.5,1.8-2.2,3.2,1.2,5.5C51.7,135.1,52.7,134.9,52.7,131.5L52.7,131.5z M361.6,109.7 c-2.6-4.8-10.4-9.8-15.2-9.8c-7.2,0-9.7,5.8-3.9,8.9c1.7,0.9,9.1,1.9,16.4,2.2C361.9,111.1,362.3,111,361.6,109.7L361.6,109.7z M239.1,253.9c0.5-1.5,1-2.9,1.7-4.3c1.7-3.9,1.7-3.9,9.4-6.7c4.2-1.5,22.4-8.2,40.2-14.9s33.1-12.1,33.8-12.1 c1.2,0,1.1,0.4-0.3,3.2c-0.9,1.8-2.3,3.5-3,3.7c-6.1,2.1-35.4,13.5-56,21.6c-13.7,5.4-25.2,9.9-25.4,9.9 C239.3,254.3,239.1,254.1,239.1,253.9L239.1,253.9z M107.9,239.1c0-8.6-1.4-19-4.4-33.5c-3.7-18-2.4-24.2,5.8-28 c2.3-1.1,4.2-2.2,4.2-2.5s-1-1-2.1-1.5c-1.9-0.9-2.4-0.7-4.8,1.6l-2.7,2.6v-2.4c0-3.8,1.3-7.6,3.6-10.6l2-2.4l-2.5-7.1 c-2.7-7.7-5.8-14.3-7.1-15.1c-0.8-0.2-1.7-0.1-2.5,0.4c-1.4,0.7-2.2,0.6-4.4-1c-4.5-3.1-4.9-4.7-2.3-9c1.2-2.1,2.7-3.9,3.3-4.2 c5.2-2,13.5,8.7,15.7,20.5c0.5,2.6,1.2,4.8,1.5,4.8s0.8-1.5,1.1-3.4c1-6.5,3.8-17,5.3-20c3.3-6.6,7.8-8.1,11.4-3.8 c2.4,2.8,2.8,7.5,0.9,10c-1.2,1.5-1.2,1.5-2.6-0.1c-0.9-1-1.9-1.9-3.1-2.6c-3.2-1.7-5.7,3.1-8.6,16.9c-1,4.9-2.3,10-2.8,11.3 c-0.4,0.8-0.6,1.6-0.7,2.5c0.1,0.1,1.5,0.8,3,1.6c4.2,2.1,8.7,5.9,9.9,8.3c0.9,1.8,0.9,2.6,0,5.2c-1.4,4.2-2.2,4.7-9.6,6.8 c-3.1,0.8-6.2,2-9.1,3.4c-3,1.8-3,1.3-0.2,11.7c2.9,11,4.2,22.4,3.9,33.7C109.6,246.2,107.9,250.5,107.9,239.1L107.9,239.1z M357.9,204.1c-3.5-2.5-7.2-5.1-8.2-5.8l-1.8-1.2l3.6-7.8c2-4.3,3.9-7.8,4.2-7.8c0.8,0,8.1,4.6,12.8,8.1c3.9,2.9,4.2,3.3,3.5,5.5 c-0.8,2.9-6.4,13.7-7.1,13.7C362.4,207.4,360.1,205.8,357.9,204.1L357.9,204.1z M475.9,188.6c-2.1-3.5-2.1-12.6,0-21.1 c1.5-6,7.1-19.1,7.8-18.4c0.2,0.2-0.6,3.1-1.6,6.6c-3.6,11.5-4.8,18.6-3.8,22.5c1.6,6,6.2,6.1,9.3,0.1c1.9-3.7,2.2-2.2,0.7,3.3 c-1.8,6.5-4.4,9.6-8,9.6C478,191.1,477.2,190.7,475.9,188.6L475.9,188.6z M177.7,139.4c-2.4-3.7-1.8-15.7,1.2-24.8 c2.3-6.7,6.1-15.4,6.8-15.4c-0.7,3.2-1.5,6.3-2.5,9.4c-1.5,4.9-2.5,9.9-3.2,15c-0.4,4.9-0.2,5.9,1.4,7.8c1,1.2,2.2,2.2,2.8,2.2 s2.4-1.5,3.9-3.3c3.1-3.7,3.5-3,1.7,3.1s-3.9,8.2-7.6,8.2C179.7,141.5,178.8,141.1,177.7,139.4L177.7,139.4z M217.5,96.2l-8-5.8 l-2-1.5l3.6-7.4c2-4.1,3.9-7.6,4.2-7.8s3.6,1.6,7.2,4c9.8,6.5,9.7,6.4,9.1,9.4s-6.1,12.8-7.3,13.1 C223.8,100.5,220.8,98.6,217.5,96.2L217.5,96.2z M104.7,94.5c-1.6-2-1.7-2.9-1.4-11c0.3-6.1,0.9-10.3,2.1-13.7 c1.8-5.2,6.6-15.7,7-15.3c-0.6,3.2-1.5,6.4-2.5,9.6c-1.3,4.4-2.4,8.8-3.2,13.3c-0.9,6.7,2,12.2,5.7,10.8c0.7-0.3,2.4-2.2,3.7-4.2 l2.4-3.7l-0.6,3.2c-0.8,4.5-2.7,9.3-4.6,11.4c-2,2.3-5.5,2.5-7.8,0.4C105.1,95.1,104.9,94.8,104.7,94.5L104.7,94.5z M281.5,88.5 c-2-3.2-2.1-11.2-0.4-19.2c1.1-5.2,7.5-21,8.2-20.3c0.2,0.2-0.7,4-2.1,8.4c-4.4,14.8-4.7,22.1-1.1,24.7c2.1,1.6,3.5,0.9,6.5-2.9 l2.7-3.5l-0.6,3.1c-0.8,4.6-3.6,10.7-5.2,11.6c-1.2,0.5-2.6,0.8-3.9,0.8C283.6,91.1,282.7,90.6,281.5,88.5L281.5,88.5z M413.1,89.3 c2-6.6,1.9-6.4,13.7-10.8c6.1-2.2,23.9-8.8,39.5-14.7s29.2-10.8,30.3-11c1.7-0.4,1.8-0.2,1.3,1.5c-0.8,2.6-2.7,5.5-3.6,5.5 s-34.6,12.9-61.4,23.5c-10.7,4.2-19.6,7.7-19.9,7.7S412.8,90.3,413.1,89.3L413.1,89.3z M165.5,74c0-0.2,0.7-2.3,1.6-4.6l1.6-4.3 l27-10.2L283.1,22c33.2-12.5,60.5-22.4,60.7-22s-0.4,2-1.2,3.6c-1.4,2.8-2,3.1-17.5,8.9c-29.4,10.9-119.8,45.9-155.4,60.1 C167.4,73.5,165.5,74.2,165.5,74L165.5,74z M340,65.6c-4.1-3-7.6-5.6-7.9-5.9s1.2-3.9,3.2-8.2c2.8-6,4-7.6,4.9-7.3 c0.7,0.3,4.5,2.7,8.4,5.4c5.8,4,7.1,5.3,7.1,6.9c0,2.4-6.4,14.6-7.5,14.5C347.8,71.1,344.1,68.5,340,65.6L340,65.6z M352.6,49.1 c0-0.6,9.5-6.4,19.2-11.6c13.8-7.4,17.6-9.8,17.6-11c0-2.1-4.6-2.8-21.1-3.1c-9.2-0.2-16.8-0.4-17-0.5c1.1-2.5,2.4-4.8,3.8-7.1 c6.1-10.3,7-10.7,24.7-10.6c19.1,0.1,27.2,2,27.2,6.4c0,2.6-8.9,15.7-14.9,21.7c-2.7,2.8-5.8,5.2-9.2,7 C377.5,42.8,352.6,50.1,352.6,49.1L352.6,49.1z"/>
</svg>