<svg xmlns="http://www.w3.org/2000/svg" width="300" height="387">
<path d="M93.1,385.7c-25.3-2.9-39.2-7.4-51.4-16.6c-8.4-6.3-16-18.1-19-29.3c-2.1-7.8-2.6-32.5-0.8-45.2c4.5-33,14.8-55.4,36.9-80.7 l7-8l-3.9-3.6c-5.3-4.8-11.3-8.8-17.7-11.9c-4-1.8-4.7-1.9-7.7-1.1c-2.4,0.8-4.6,1.7-6.8,2.9c-1.5,0.9-3,1.5-4.7,1.9 c-1.4,0-1.3-0.7,2.3-12.2c2.2-7.1,2.7-8,5.6-10.2c6.9-5,23-9.4,36.7-10.1c15.9-0.8,34,2.3,45,7.8c10.5,5.3,10.9,6.9,5,19.5l-2.2,4.5 l-12.9,6.5l-12.9,6.5l2,1.6c3,2.4,8.6,5.1,15.2,7.1c14.2,4.4,35.2,1.1,54.7-8.7c6.2-3.1,14.1-8.6,14.1-9.9c0-3.5-5.6-8.4-12.1-10.5 c-1.5-0.5-8.4-1.1-15.5-1.4c-10.2-0.4-13.4-0.8-15.9-2c-10.8-5.3-10.5-24.5,0.6-39.1c8.3-10.9,20.7-10.5,32.4,0.9 c5.3,5.6,9.6,12.1,12.5,19.3c5,14,4.7,33.1-0.8,43.9c-4,8-14.8,17.7-25.8,23.1c-8.2,4.1-15.5,5.8-27.1,6.3l-10.4,0.4l-6.2,18.9 c-8.3,25.1-9.2,34.2-4.2,41.8c3.4,5.1,6.2,6.4,13.2,6c11.5-0.6,17.9-5,32.8-22.6c5.6-6.7,12.2-13.8,14.5-15.9 c10.3-9.1,24.5-17.1,49.8-28c4.9-2.1,9.6-4.4,14.2-7c5.4-3.4,10-8.9,11.5-13.6c2.1-6.3,1.8-14.5-4-93.9c-1.1-15.4-2.4-35.5-2.8-44.7 s-0.9-16.9-1.2-17.1s-4.6,1.3-9.6,3.3c-5.1,2-9.4,3.7-9.6,3.7c-0.4,0,0.7-3.8,2-6.5c0.8-1.7,2.5-2.7,8.3-4.8l7.3-2.7l-0.2-2.9 c-0.3-3.2,5.2-18.5,6.5-18.1c0.4,0.1,2.2,3.7,3.9,7.8s3.2,7.7,3.4,7.8s11.9-4.1,26.2-9.4s26.5-9.6,27.3-9.6c1.3,0,1.3,0.2-0.2,3.1 c-1.8,3.4,1.1,2.1-30.4,14.2c-7.7,2.9-15.5,6-17.4,6.8l-3.4,1.5l1.1,3c0.6,1.7,2.2,6.1,3.6,9.8c2.6,7,3.1,11.3,1.5,11.3 c-0.5,0-2.5-1.5-4.4-3.3s-3.6-3.2-3.8-2.9s1,20.2,2.8,44.3c4.8,66.7,5.2,74.4,4.1,84c-1.3,11.6-3.5,19.4-8,28.7 c-4.2,8.6-9.2,14.9-14.8,18.8c-4.4,2.6-9,4.9-13.7,6.9c-17.6,7.6-32.4,15.2-37.4,19s-13.5,12.4-29.7,29.8 c-6.8,7.3-10.1,10.2-13.9,12.3c-13.4,7.1-26.7,1.9-33.8-13.4c-2.2-4.6-2.6-6.5-2.8-13.1c-0.2-4.4,0-8.8,0.6-13.2 c1.3-7.8,5.8-20.5,10.8-31.2c2.4-5.1,4.3-9.4,4.2-9.4s-2-0.6-4.2-1.1c-6.6-1.6-19.5-8.2-27-13.9l-6.9-5.2l-5.2,4.4 c-12.6,10.4-23,24-31.4,40.9c-9.1,18.2-12.2,30.8-11.4,46.4s4.8,25.8,13.8,35.4c10.2,11,24.3,17.6,44.4,20.6c15.2,2.3,63,1,91.7-2.5 c16.2-2,19.5-1.4,11.9,1.9c-8.7,3.9-62.1,20.9-67.9,21.7S98.8,386.4,93.1,385.7L93.1,385.7z M87.6,190.7l7.7-4.3l-2.5-1.4 c-3.6-1.9-14.7-3.2-21.1-2.5c-3,0.3-5.3,0.9-5.2,1.2c0.2,0.5,12.6,10.9,13.2,11.2C79.8,194.9,83.3,193,87.6,190.7L87.6,190.7z M161.5,165.6c0-1.3-7.6-8.4-10.2-9.4c-6.7-2.8-13.9-0.5-12.7,4.1c0.7,2.9,4.7,4.6,12.1,5.3C160.3,166.3,161.5,166.3,161.5,165.6 L161.5,165.6z M58.3,327.8c-3.2-0.8-6.4-4-6.5-6.6c-0.3-7.7,2-15.3,6.6-21.5c1.4-2,1.5-2.6,0.6-3.1c-0.5-0.3-1-0.6-1.6-0.7 c-1-0.6-1.9-1.3-2.6-2.1c-2.4-2.4-2.8-6.9-1-10.6c3.2-6.1,11.3-13.7,14.6-13.7c3.6,0,4.5,4.7,1.6,8.7l-1.9,2.6l-1.2-1.8 c-1-1.5-1.5-1.7-3.5-1c-1.5,0.7-2.8,1.8-3.7,3.2c-1.8,3.1-0.8,4.7,3.7,6.3c4,1.4,5.7,0.8,11.2-4c1.5-1.4,3.1-2.6,4.8-3.6 c0.8,0-0.3,5.5-1.6,8c-1.1,1.7-2.5,3.2-4.1,4.4c-5.9,4.4-11,9.8-15.2,15.8c-6.1,9.4-4.5,12.1,7.6,12.5c7.1,0.2,14.5-0.9,23.7-3.6 c3.5-1-3.3,4.7-8.8,7.4C73.5,328,64.8,329.4,58.3,327.8L58.3,327.8z M215.9,313c0.6-0.9,2.9-3.5,5-5.8c2.2-2.4,4.1-5,5.9-7.8 c3.5-6,1.5-10.6-3.8-8.6c-1.4,0.5-2.7,0.8-2.9,0.6c-0.9-0.9,1.7-6.8,3.6-8.4c2.1-1.7,6.2-2.2,8.1-1c1.5,0.9,2.6,5.5,2,8.4 c-0.8,4.1-4.2,10.5-7.8,14.6C222.5,309,213.6,316,215.9,313L215.9,313z M280.4,255.8c0.5-18.4,0.4-20.3-5.3-102.8 c-1.7-25.1-3.5-52.6-4-61.2c-0.5-9.8-1.3-17.2-2.1-19.9c-0.7-2.2-1-4.5-0.8-6.8c0.8-4.2,5.6-15.7,6.4-15.4s6.4,13.6,12.4,30 c3.9,10.8,5,16.1,3.3,16.1c-0.5,0-2.4-1.5-4.4-3.3s-3.7-3.2-3.9-3s1.1,19.6,2.8,43.1c6.5,89.5,6.8,97.4,4.4,112.4 c-1.3,8.3-4.9,20-7.6,25.1l-1.6,3L280.4,255.8z M110.7,268.8c1.5-5.9,2.6-6.7,15.7-11.5c6.8-2.5,25.1-9.2,40.7-15 s28.5-10.3,28.7-10.1s-0.2,1.8-1,3.4c-1.3,2.9-1.8,3.2-13.9,7.7c-10.9,4.1-54.2,21-66.4,26l-4.3,1.7L110.7,268.8z M204.7,221 c0-0.7,0.4-6.4,0.9-12.8c0.9-11.4,0.2-28.8-2.5-64.4c-1.6-22.2-5.6-81.7-6.4-96c-1-19.1-1.5-23.4-2.8-27.1c-0.7-1.8-0.9-3.9-0.4-5.8 c1.1-4.5,5.2-14.6,6.1-14.9c1.1-0.3,1.5,0.7,8.7,19.3c8,20.7,9.7,26.8,7.6,26.8c-0.5,0-2.7-1.7-4.9-3.8l-4.1-3.8l0.5,8.4 c0.3,4.6,1.1,15.6,1.7,24.4c5,68.6,6.8,95.5,6.8,104.4s-1.8,23.1-3.6,29.5C209,216.5,204.7,225.4,204.7,221L204.7,221z M30.3,136.7 c0-0.3,7.8-5.3,17.2-10.9c15.4-9.2,29.8-19.4,30.5-21.6c0.1-0.4-1.2-1.7-3-2.8c-7.6-4.6-7.4-12.7,0.5-19.9c6-5.5,10.8-5.5,12.5,0 c0.8,2.7,0.8,4.3-0.2,9.2l-1.2,5.9l3.1,2.6l3.1,2.6l-2.1,4.2l-2.1,4.2l-2.8-2.3l-2.8-2.3l-6.1,6.2c-7.1,7.1-15.4,12.9-24.5,17.2 C45,132.3,30.3,137.4,30.3,136.7L30.3,136.7z M83.1,91.5c0-4.2-1.7-6.4-4.3-5.6c-2.3,0.7-3.7,1.9-3.7,3.2c0,1.1,6,5.9,7.3,5.9 C82.8,95,83.1,93.4,83.1,91.5z M143,108c-4.3-2.9-7.8-5.8-7.8-6.3c-0.1-2,6.7-14.6,7.9-14.6c1.4,0,12.9,7.4,14.9,9.6 c0.9,1,1.3,2.4,0.8,3.8c-0.7,2.8-6.1,12.4-7.2,12.7C151.1,113.2,147.3,110.9,143,108L143,108z M0.3,76.9c0.5-1.6,1.2-3.2,2-4.7 c1.2-2.2,7.4-4.7,88.3-35.1c47.8-18,87.2-32.5,87.4-32.3s-0.3,1.8-1.1,3.6c-1.5,3-2.1,3.3-13.1,7.4C136,26,36.6,64.5,0.8,78.8 C-0.1,79.2-0.2,78.8,0.3,76.9z M142.9,72.4c-2.3-1.8-3.8-6.7-3.8-12.7c0-4.7-0.3-6.1-1.6-7.5c-1.5-1.6-1.6-2-0.5-4.5 c1.3-3.1,4.3-6,5.2-5.2c0.3,0.3,0.5,4.2,0.4,8.6c-0.3,11.5,1.9,15.7,7,13.1c4.9-2.5,5.6-5.4,3.8-15.5c-0.8-4.4-0.7-6,0-7.7 c0.7-1.5,1.2-1.9,1.8-1.3c1.1,1.1,3,9.4,3.1,13.2c0,6.8,4.1,11.5,8.4,9.5c2.6-1.2,2.5-2.1-0.4-8.3c-1.6-2.9-2.4-6.2-2.4-9.5 c0-4.7,1.7-8.4,2.7-6c0.3,0.8,0.5,1.7,0.5,2.6c0.6,2.6,1.4,5.2,2.5,7.7c2.9,7.3,2.9,12.4,0.2,17.7c-2.9,5.7-8.8,5.7-11.9,0l-1.7-3.1 l-1.8,3.8C151.8,72.4,146.3,74.9,142.9,72.4L142.9,72.4z"/>
</svg>