<svg xmlns="http://www.w3.org/2000/svg" width="440" height="402">
<path d="M437.3,0c-0.2,0-0.5,0-0.7,0.1c-1,0.2-14.6,5.2-30.2,11S373.1,23.5,367,25.7l-11,4l-1.6,3.9c-0.6,1.4-1.2,2.9-1.6,4.3 c0,0.8,0.4,0.6,18.2-6.5c9.6-3.8,28-11,41-16c20.3-7.8,23.8-9.4,25-11.3C438.7,1.3,438.8-0.1,437.3,0L437.3,0z M310,30.5 c-0.3,0-1.5,2.2-2.8,4.9c-7.6,17-8.6,33.9-2.2,36.5c1,0.4,1.9,0.8,2,0.8c0.9-0.3,1.7-0.7,2.5-1.1c2.5-1.3,5.2-6.7,6.1-12l0.5-3.2 l-1.5,2.4c-2.8,4.3-4.7,5.6-7,4.5c-1.2-0.6-2.1-1.7-2.5-3c-1-3.8,0.4-13.3,2.9-21.4C309.4,34.5,310.3,30.8,310,30.5 C310,30.6,310,30.6,310,30.5L310,30.5z M365.1,37c-0.1,0-0.1,0-0.2,0.1c-0.8,0.9-5.5,12.8-6.1,15.6c-0.2,2,0.1,4.1,0.9,6 c0.9,2.6,1.6,8.7,2,18.7c0.8,15.8,2.2,37.8,4.7,72c4.8,66.6,4.9,75.2,0.8,79.6c-2.5,2.6-18.7,7.4-19.1,7.6 c-4.5-0.5-12.7-2.1-17.8-5.9c-2.7-2-5.6-3.7-6.5-3.7s-3.3,2-5.6,4.6c-6.2,7-10.2,10.6-13.5,12.3c-8.1,4.2-21.3,5.1-32.2,2.3 c-7.7-2-18-7.2-18-9.1c0-0.3,5.7-3.4,12.6-6.9l12.6-6.4l2.6-5.9c3.5-7.9,3.8-10.1,1.6-12.9c-3.3-4.2-15.4-9.1-28-11.3 c-19.6-3.4-35.8-2-53.9,4.9c-8.3,3.1-10.4,5.5-13.2,15c-2.2,7.4-2.9,11.6-2.1,11.6c0.2,0,2.8-1.3,5.9-2.9c6.6-3.4,9.6-3.6,15.1-0.8 c4.4,2.2,13.4,8.8,17.6,12.7l2.6,2.4l-7.6,7.4c-8.5,8.4-16.2,17.8-19.7,24l-2.4,4.2l-2.9-1c-18.6-6.6-29.7-15.6-37.4-30.4 c-1.3-2.4-2.7-4.4-3.2-4.4c-1.1,0-2.3,3-3.9,9.6c-1.8,7.8-1.6,9.4,2.4,17.6c6.6,13.6,10.9,28.8,9.6,34c-0.3,1.2-2.4,4.1-4.7,6.5 c-9.3,9.9-29.6,23-58.6,37.9c-17.8,9.1-24.8,12.3-63.2,28.7C8.8,382.9,0,386.9,0,387.6c0,1.6,17.1-1.7,49.7-9.6 c9.9-2.4,21.5-5.1,25.6-6.1c8.2-1.9,17.9-6.4,36.8-17.2c29.8-17.1,48.5-31.9,53.6-42.4c2.9-5.9,4.7-15.1,4.7-24.2 c0-4,0.4-6.6,0.9-6.6c2.1,0.7,4.2,1.6,6.2,2.7c2.8,1.4,5.7,2.6,8.6,3.7c1.3,0.4,2.6,0.9,3.8,1.6c0.4,0.3-0.1,3.3-1,6.6 c-6,21.9-6.8,47.1-2,65.9c6,23.6,22.1,36.6,48,38.8c4,0.3,7.9,0.6,8.8,0.7c3.2,0.2,15.3-1.6,21.1-3.1c28.5-7.7,57.1-36.1,64.1-63.5 c2.3-9.2,2.9-21.8,1.3-28.6c-3.6-15.3-12.8-23.8-28.9-26.6c-8-1.4-34.1-2.7-55.7-2.8c-14.4,0-34.7-1.4-36.6-2.4 c-1.6-0.9,11.1-14,20.1-20.8c4.1-3.1,7.8-5.6,8.1-5.6s3.2,1.9,6.4,4.2c15.2,11.3,26.5,15.7,41.3,16c6.6,0.1,7.4,0,13.1-2.9 c5.4-2.7,6.7-3.8,12.6-10.9c3.6-4.4,6.8-7.9,7.1-7.9s0.9,2.1,1.1,4.6c1.4,12.4,4.5,19.5,11.4,25.9c5.4,5,12.9,9.3,14.9,8.5 c3.8-1.4,4.6-3.8,3.5-28.5h0.2h-0.2c-1.2,0,6.6-0.9,8.9-2.1c10.8-5.4,19.2-21.6,21.8-42.2c1.6-12.9,1.1-24.7-4-95.3 c-1.3-18.5-2.4-35.2-2.4-37.1v-3.6l4,3.7c2.2,2,4.4,3.7,4.9,3.7c1.6,0,0-5.5-6.2-22.4C368.5,42.7,366.1,36.9,365.1,37L365.1,37z M400.6,45.9c-1,0-3.7,5.8-5.9,12.5c-1.3,3.9-1.3,4.5,0,9.3c0.8,3.2,1.7,11,2.1,20.5c0.4,8.4,2.4,38.4,4.3,66.6 c5.4,79,5.5,80.3,5,98l-0.5,16.4l2.3-4.8c3-6.2,6.1-16.9,7.2-25.3c1.9-14,1.5-23.1-4.8-110.3c-1.7-23.5-3-42.9-2.8-43.1s2,1.2,3.9,3 s4,3.3,4.4,3.3c1.7,0,0.7-5.2-2.9-15c-5-13.8-11.5-30-12.4-30.9C400.7,45.9,400.7,45.9,400.6,45.9L400.6,45.9z M256.8,53 c-0.1,0-0.3,0-0.4,0c-0.2,0-0.4,0.1-0.5,0.1c-4.6,1.3-7.8,8-10.8,22.4c-0.8,3.7-1.6,6.8-1.9,6.8s-0.9-2.1-1.5-4.6 c-2.5-11.5-8.8-20.2-14.6-20.2c-1.7,0-2.5,0.7-4.4,4.3l-2.3,4.4l2.8,2.9c2.4,2.5,3.2,2.8,5.9,2.6c3-0.2,3.3,0,5.2,3.4 c1.8,3.6,3.3,7.3,4.6,11.1l2.6,7.6l-2,2c-1.3,1.4-2.2,3.1-2.7,4.8c-2.2,8.8-2,9.8,1.6,5.5c1.9-2.3,2.4-2.5,4.4-1.8 c3.4,1.2,3.1,2.2-1.4,4.4c-8.5,4.1-9.6,8.6-6.2,25.9c3.3,16.9,4.8,27.7,4.8,36.1c0.1,9.9,1.6,6.3,2.1-5.2 c0.4-11.7-0.9-23.4-3.9-34.7l-2.4-9.6l1.7-1.3c1.9-1.5,6.1-3.2,12.9-5.1c3.8-1.1,4.7-1.7,5.8-4c0.7-1.5,1.2-3.2,1.4-4.9 c0-3.2-6.6-9-13.4-11.9c0.3-2,0.8-4,1.4-6c0.9-3.2,2.3-9.1,3.2-13c1.8-7.7,3.8-11.9,5.9-12.3c0.7-0.1,2.4,0.9,3.7,2.2l2.3,2.6 l1.3-1.8c2.2-3.2,1.6-6.9-1.5-10c-1.6-1.7-2.6-2.3-3.6-2.4L256.8,53z M305.9,105.6c-11.3,0.1-12.7,1.7-17.3,9.3 c-6,10-6.4,9.2,5.1,8.6s26.1,0.6,27.9,2.4c1.5,1.5,0.9,1.9-8.7,7.3c-17.1,9.5-23.8,13.3-25.6,14.8l-2,1.6l2.4-0.5 c4.8-1,16.2-4.3,23.1-6.6c8.2-2.8,12.3-5.9,18.8-14c9.2-11.6,11.7-16.8,9.1-19c-3.1-2.7-7-3.3-23.2-3.7 C311.6,105.6,308.5,105.5,305.9,105.6L305.9,105.6z M197.2,107.9c-0.8,0-4.5,8.4-6.8,15c-4.1,12.3-4,24,0.2,27 c1,0.7,2.1,1.1,3.2,1.2c2.4,0,5.9-4.2,7.3-8.8c1.9-6.2,1.6-7-1.1-3.3c-3,4.1-5.8,4.5-7.6,0.9c-2.3-4.4-1.2-11.7,3.9-28.2 C197,109.6,197.3,107.9,197.2,107.9L197.2,107.9z M148.5,146.5c-1.1,0.1-2.3,0.4-3.3,0.9c-3.7,1.4-8.8,6.3-10.1,9.8 c-2.2,5.7-0.3,10.5,5.4,14l2.9,1.8l-3.9,3.5c-5.9,5.4-12.2,9.6-28,18.9c-7.9,4.7-14.9,9-15.6,9.7c-1.7,1.7-1,1.6,9-2.1 c16.6-6.1,29.3-13.9,38-23.4c4.4-4.8,5.4-5,8.2-1.8c1.5,1.8,2,1.6,3.9-1.9c2.4-4.2,2.2-5.2-1.1-7.9c-2.8-2.3-2.9-2.4-2-5.5 c0.6-2.8,0.9-5.7,0.9-8.6c0-4.9-0.2-5.5-2-6.7C150.2,146.9,149.4,146.6,148.5,146.5L148.5,146.5z M144.2,155.1c2.4-0.1,3.8,2,3.8,6 c0,3.4-1,3.6-5,0.8c-3.3-2.2-3.9-4.6-1.4-5.9C142.4,155.5,143.3,155.2,144.2,155.1L144.2,155.1z M339,165.5c-0.6,0-1.2,0.1-1.8,0.3 c-2.8,0.7-9.1,6.7-10.5,9.9c-2.6,6.1-0.8,11.2,4.9,14.2c1.6,0.9,2.8,1.9,2.6,2.4c-0.7,2.2-15,12.4-30.5,21.6 c-9.5,5.7-17.2,10.6-17.2,10.9c0,1,16.5-5.1,24.2-8.9c8.3-4.1,19.4-12.3,23.9-17.6c1.8-2.2,3.8-3.9,4.2-3.9c1.2,0.4,2.3,1.1,3.2,1.9 l2.4,1.9l1.8-2.9c2.5-4.1,2.3-6-1-8.2c-2.3-1.6-2.7-2.2-2.3-3.9c2.8-11.4,1.7-17.4-3.3-17.6L339,165.5z M336,173.8 c0.7,0.1,1.2,0.5,1.7,1c1.1,1.2,1.7,2.8,1.5,4.4c0,1.7-0.3,3.2-0.7,3.4s-2.2-0.7-4-2c-3.8-2.8-4-4.6-0.6-6.2 C334.6,174.1,335.3,173.8,336,173.8L336,173.8z M149,199.9c-0.4,0-2.4,3.5-4.4,7.7l-3.7,7.7l8.1,5.8c4.5,3.2,8.4,5.9,8.7,5.9 c0.6,0.1,6.6-10.7,7.4-13.4c0.4-1.4,0.1-2.4-1.3-3.8C161.9,207.7,150.1,199.9,149,199.9L149,199.9z M235,213.5 c5.9-0.1,14,0.4,16.8,1.2c2.3,0.7,4.3,1.5,4.5,1.9s-2.8,2.5-6.7,4.8c-2.5,1.5-5.1,2.9-7.8,4c-0.4,0-2.3-1.5-4.3-3.2 c-2.1-1.9-4.3-3.6-6.6-5.3c-1.6-1.1-2.8-2.3-2.6-2.7S231.5,213.5,235,213.5L235,213.5z M330.3,252c1.4,0,5.1,2.6,8,5.8 c3.1,3.3,5,6.5,5,8.5c0,1.3-2,0.8-4.9-1.1c-4.6-3.1-10.1-11.5-8.5-13.1C330.1,252.1,330.2,252,330.3,252L330.3,252z M121.1,256.7 c-1,1.5-1.9,3.1-2.7,4.8c-8,15.9-9.6,35-3.1,37.6c2.9,1.2,3.8,1,6.2-1.4c2.2-2.2,4.8-9,4.8-12.5c0-1.4-0.2-1.3-1.5,0.8 c-2.1,3.4-4.6,5.4-6.2,5c-4.4-0.8-4.4-11.2-0.1-25.2C119.6,262.7,120.4,259.7,121.1,256.7L121.1,256.7z M372.8,271.1 c-3.1,0-4.6,1.2-6.2,4.9c-1.1,2.6-2.2,9.5-1.5,9.5c1-0.6,1.9-1.4,2.5-2.4c2.2-2.6,4-3,6.3-1.3c1.4,1,1.1,1.3-3,3.1 c-8.9,4.1-9.8,8.6-5.8,29.1c3.1,16.2,4.4,25.9,4.5,34.2c0,4.9,0.2,5.3,1,3.6c0.6-1.2,0.9-6.7,0.9-14.4c0-13.2-1.2-21.9-4.6-33.7 l-1.9-6.5l2.5-1.5c2.5-1.5,6.9-3.1,13.1-4.7c2.8-0.7,3.7-1.5,5-4c0.8-1.5,1.3-3.1,1.6-4.7C387.2,278.5,377.7,271.1,372.8,271.1 L372.8,271.1z M199.2,291.1c0.3,0,2.5,0.4,4.9,0.8c9.4,1.8,26.6,3.2,40.7,3.2c19.6,0,44.6,1.3,52.8,2.8c12,2.1,21.1,8.3,25.5,17.5 c4.6,9.6,3.8,16.4-3.4,26.4c-11,15.4-32.5,30.1-53,36.2c-6.2,1.9-8.9,2.2-20,2.4c-9.1,0.2-14.3,0-17.9-0.9 c-21.6-4.9-32.6-14.8-37.3-33.6c-1.8-7.1-1.8-22.5-0.1-30.9C192.9,307.9,198.3,291.1,199.2,291.1L199.2,291.1z M299.7,309.7 c-0.3-0.3-17.1,5.7-37.5,13.2s-38.7,14.3-40.8,15c-3.8,1.3-4.7,2.4-6.5,8.2c-0.3,1-0.3,1.7,0.1,1.7s8.7-3.2,18.6-7.2 s28.3-11.1,40.8-15.9c22.3-8.5,22.8-8.8,24.3-11.6C299.5,311.5,300,310,299.7,309.7L299.7,309.7z M163.4,331.2 c-1.8-0.1-4.3,1.4-7.6,4.5c-8.8,8.1-11,15.5-6.3,20.2c1.3,1.3,2.9,2.4,3.6,2.4c1.6,0,1.6,0.5-0.3,3.2c-3.1,4.4-6.3,12.2-6.8,16.8 c-0.7,5.6,0.7,8.8,4.6,10.8c3.7,1.9,15.3,1.3,21.5-1c4.5-1.7,14-7.9,13.2-8.6c-0.2-0.2-3.8,0.4-7.9,1.4c-9.8,2.4-22.5,2.6-25.7,0.5 c-3-2-2.9-5.2,0.5-10.5c3.8-5.9,7.2-9.7,13.5-14.6c5.6-4.4,7.2-6.8,8.1-11.2c0.6-3.4-0.4-3.9-2.8-1.3c-2.9,3.1-8.4,6.7-10.2,6.7 c-2.2,0-7.1-2.4-7.6-3.8s1.6-5.2,3.7-6.5c1.6-1,4.7,0,4.7,1.5s1.5,0.7,3.1-1.9c1.9-3.1,2.1-5.2,0.6-7.3 C164.9,331.7,164.2,331.3,163.4,331.2L163.4,331.2z"/>
</svg>