<svg xmlns="http://www.w3.org/2000/svg" width="378" height="349">
<path d="M193.6,348.6c0-0.2,3.1-1.7,7-3.4c15.3-6.5,36.4-16.5,41.5-19.7c10.7-6.5,15.5-11.1,19.9-18.7c2.2-3.9,4.5-7.2,5.2-7.4 s2.2-1.8,3.4-3.5c4-5.7,9-5,12.5,1.6c2.1,4.1,2,9.4-0.1,14.6c-1.1,2.6-1.6,3-4,3c-2.7,0-11.6-5-13-7.2c-0.4-0.6-1.5,1-3.2,4.5 c-3.4,7.4-8.6,12.9-17.9,19c-8.1,5.4-18.7,10.8-21,10.8c-0.8,0-6.4,1.2-12.4,2.7C199.6,348,193.6,349.2,193.6,348.6L193.6,348.6z M280.8,306.5c0-1.8-3.7-6.5-5.1-6.5c-1,0.2-2,0.7-2.8,1.3l-1.9,1.3l4.3,2.7C280.2,308.4,280.8,308.6,280.8,306.5L280.8,306.5z M138.3,332.8c0.5-1.6,1.2-3.1,2-4.6c0.8-0.8,82.3-30.7,82.6-30.3c0.2,0.2-0.4,1.8-1.2,3.5c-1.5,3-2.1,3.3-13.9,7.8 c-9.3,3.5-63.4,24.7-70.1,27.4C137,336.9,137.2,335.8,138.3,332.8L138.3,332.8z M343.4,325.5c2.1-17.8,1.9-21.1-3.9-105.9 c-1.9-28.2-3.9-58.6-4.4-67.6c-0.5-9.6-1.4-18.5-2.1-21.4c-0.7-2.5-1-5-0.9-7.6c0.6-3.6,5.4-15.8,6.2-15.8c1.3,0,15.8,37.5,16.5,43 c0.6,4.4-0.6,4.4-5.1,0.1c-1.9-1.8-3.6-3.1-3.9-2.9s0.1,8.2,0.8,17.6c5.4,72.7,7.6,106.8,7.6,117.9c0,15.7-2.4,29.4-7.2,41.1 C344.4,330.7,342.8,331.4,343.4,325.5L343.4,325.5z M115.6,312.5c-4.8-1.8-6.9-3.7-9.8-9c-5.1-9.4-5.3-23.9-0.6-43.3 c1.1-4.5,2-8.4,2-8.6s-3,1.6-6.6,4c-8.9,5.8-24.4,13.4-32.2,15.9c-13.9,4.4-28,4.6-39.3,0.6c-18.2-6.4-29-25.9-29-52 c0-17.4,3.6-32.8,9.9-41.9c2.6-3.8,2.4-1-0.6,8.1c-7.6,23.1-6.7,37.4,3,51.7c6.5,9.5,17.4,15.5,31,16.9c17,1.8,42.2-7.6,70.4-26.1 c10.9-7.2,26.8-19.5,31.1-24.2c3.5-3.8,3.3-13.2-2.4-94c-1.3-18.7-2.8-40.7-3.2-48.8c-1.9-31.8-2.3-36.5-3.5-40 c-0.9-2.1-1.1-4.6-0.4-6.8C136.5,10,140.8,0,141.6,0s10.2,23.7,14.3,35.7c4,11.7,3.2,13.3-3.3,6.9l-3.8-3.8v2.8 c0,1.5,0.6,9.8,1.2,18.4c5.5,71.9,6.7,95.9,5.9,112.4c-1,19.9-2.9,29.6-7.7,39.2s-12.9,18.1-29.1,30.6c-2.6,1.9-5,3.9-7.4,6.1 c-1,1.5-3.8,14.7-4.8,22.4c-2,16.1,3.2,23,17.2,22.9c15.7-0.1,34.9-8,54.1-22.3c12.5-9.3,26.3-23.4,30.1-30.8c2.8-5.5-0.9-29-7.6-48 c-2.8-7.9-12.1-30.4-14.5-35.1c-1.5-3-1.6-3.4-0.4-11.3c1.6-10.5,1.9-11.9,3.2-11.9c3,0,15.9,24.6,20.7,39.6 c4.2,13,7.1,25.8,12.5,56c5.1,28.2,6.6,34,10,38.5s6.1,5.5,15.2,5.5c7,0,8.9-0.4,15.2-2.7c10.1-3.7,19-8.6,18.5-10.3 c-0.9-2.9-3.7-20.4-5.2-32.1c-3.9-31.1-7.1-72.8-8-106.4c-0.5-18.5-1-26.5-2-29.9c-0.6-2.2-1-4.4-1.2-6.6c0-2.9,5.6-16.5,6.7-16.1 s6.6,13.9,12.5,30.4c3.8,10.4,4.9,15.8,3.2,15.8c-0.4,0-2.5-1.7-4.8-3.7l-4.1-3.7v3.1c0,12.2,4.2,81.9,6,100.3 c2.5,25.1,6.3,45.3,8.4,45c0.6-0.1,3.5-0.8,6.4-1.5c4-0.9,8.1-1.2,12.1-1c6.3,0.2,7.2,0.5,10,2.7c6.6,5.3,10,16.6,8.4,28.1 s-6.3,17.1-14.7,17.7c-4.2,0.3-5.4,0-10.7-2.6c-6.9-3.6-12.5-9.2-16.1-16.1l-2.2-4.3l-4.8,2.9c-6.9,4.1-18.2,8.9-24.3,10.3 c-8.2,1.9-17.8,1.2-23.7-1.8c-9-4.5-12.1-11.1-15.8-33.4c-1.4-8.2-2.7-15-2.9-15s-0.9,1.9-1.4,4.2c-1.1,3.8-2.6,7.5-4.3,11 c-3,6-4.6,8-14.6,18c-6.5,6.5-14.5,13.5-18.9,16.6c-10.1,7.1-25.9,15.2-34.8,17.8S120.2,314.2,115.6,312.5L115.6,312.5z M318.8,282 c1.1-1.1,1.1-1.5,0.2-3c-1.9-2.9-6.1-4.5-11.9-4.5s-7.2,0.9-4.9,3.3C306.1,282.3,316,284.7,318.8,282L318.8,282z M163.2,247.1 c-4.4-4.7-2.6-20.1,4-34.8c1.3-2.9,2.6-5.1,2.9-4.9s-0.3,2.7-1.2,5.5c-2.9,8.8-4.1,14.7-4.1,19.4c0,3.8,0.3,4.9,2,6.6 c1.9,1.9,2.2,1.9,3.8,0.9c1.4-1.1,2.6-2.4,3.7-3.9l1.9-2.7l-0.6,3.2c-0.8,4.6-3.6,10.7-5.3,11.6C168,249.3,165.1,248.9,163.2,247.1 L163.2,247.1z M49,227.5c-3.6-1.4-4.5-13.2-1.9-23.5c1.5-5.7,7-18.9,7.6-18.2c0.2,0.2-1,4.6-2.5,9.9c-3.4,11.5-3.9,19.2-1.5,21.9 c0.7,0.9,1.8,1.5,2.9,1.7c1.5,0,6.4-5,6.4-6.6c0-0.5,0.2-0.7,0.4-0.5c0.6,0.6-1.2,7.8-3,11.2C55.5,227.4,52.5,228.9,49,227.5 L49,227.5z M244.9,225.9c-4.4-5.6-2.7-20.3,3.9-34.4c1.7-3.7,3.3-6.7,3.5-6.7s-0.9,4-2.4,9c-3.4,11.1-4.3,20.3-2.3,23.4 s5.1,2.4,7.6-1.5c2.5-3.9,2.9-2.7,1.2,3.2C254.1,227,248.4,230.4,244.9,225.9L244.9,225.9z M306.2,213.8c-2.5-0.7-3.8-4.5-3.8-11.6 c0-8.5,1.6-15,5.7-23.9c1-2.4,2.2-4.7,3.5-6.9c0.1,0.1-1.1,4.5-2.6,9.8c-3.4,11.6-4,20-1.5,22.7c0.7,0.9,1.7,1.5,2.9,1.7 c1.5,0,4.1-2.6,5.6-5.5s1.7-1.6,0.3,3.5c-1.5,5.9-3.2,8.8-5.7,9.9C308.6,214.4,308.5,214.4,306.2,213.8L306.2,213.8z M214.7,172.5 c1.2-1,8.7-5.4,16.6-9.6c16-8.7,18.4-10.3,17.1-11.6c-1.6-1.6-9.6-2.5-23.7-2.5c-7.9,0-14.3-0.3-14.3-0.6c0.1-1.6,7.8-13.4,9.6-14.8 c1.6-1,3.4-1.8,5.2-2.3c4.3-1,21.3-0.9,28.9,0.1c11.3,1.6,13.7,3.6,10.8,9.3c-2.7,5.2-10.8,15.6-15.9,20.3 c-4.5,4.2-5.6,4.7-15.1,7.8c-10,3.2-19.4,5.8-20.8,5.7C212.7,174.4,213.4,173.5,214.7,172.5L214.7,172.5z M67.8,164.8 c-2.6-2.1-3.7-6-3.7-13.4c0-4.4-0.3-5.9-1.2-6.3c-2-0.8-1.4-4.8,1.1-7.6c3.6-4.1,4.5-2.7,3.9,6.4c-0.4,6.4-0.3,8.2,0.9,10.5 c2.3,4.7,7.4,3.8,10.3-1.7c1.2-2.3,1.2-3,0-9.3c-1.1-5.4-1.2-7.2-0.4-9.1c0.4-1.3,1.2-2.3,1.5-2.3c0.9,0,2.3,5.4,3.6,13.6 c0.8,5.6,1.4,7.1,3.1,8.6c2.6,2.2,3.7,2.3,6,0.4l1.8-1.4l-2.5-5.1c-2.9-5.8-3.8-11.6-2.3-15.2c1.2-2.9,2.4-3.1,2.4-0.4 c0,1.1,1.1,4.9,2.4,8.6c1.3,3.3,2.1,6.9,2.4,10.4c0,6.6-3.6,12.6-7.5,12.6c-2.4,0-6-2.8-7-5.5c-0.8-2.1-0.8-2.1-2.8,1.8 c-1.4,2.7-2.8,4.2-4.7,5C71.2,166.8,70.2,166.7,67.8,164.8L67.8,164.8z M24.8,143.3c0-0.4,7.8-5.3,17.2-10.9 c15.5-9.2,29.8-19.4,30.5-21.6c0.1-0.4-1-1.5-2.6-2.4c-5.7-3.1-7.4-8.1-4.8-14.2c1.3-3.2,7.7-9.2,10.5-9.8c7-1.8,8.9,4,5.7,17.3 c-0.4,1.7,0,2.3,2.3,3.8c3.3,2.1,3.6,4.1,1,8.3l-1.8,2.9l-2.4-1.9c-1-0.9-2.1-1.5-3.4-1.9c-0.5,0-2.1,1.5-3.6,3.3 c-5.2,6.6-18.6,16-29,20.4C35.8,140.2,24.7,144,24.8,143.3L24.8,143.3z M77.6,97.7c0.1-1.6-0.4-3.2-1.6-4.4 c-1.3-1.2-1.8-1.2-3.8-0.3c-3.4,1.6-3.2,3.4,0.6,6.2c1.8,1.3,3.7,2.2,4.1,2S77.6,99.3,77.6,97.7L77.6,97.7z M292.4,113.5 c2.2-7.1-1.2-5.4,43-21.7c22.2-8.2,40.8-14.9,41.2-14.9c0.5,0.1,0.9,0.5,0.9,1c0,1.5-3,6.2-4,6.2s-28.5,10.5-57.9,22.1 c-12.7,5-23.2,9.1-23.5,9.1S292.1,114.4,292.4,113.5L292.4,113.5z M179.8,108.7l-7.8-5.6l3.8-7.6c2.1-4.2,4.1-7.5,4.6-7.5 c0.8,0,11.1,6.6,14.8,9.5c1.9,1.5,1.9,1.7,0.9,4.4c-1.7,4.7-6.1,12-7.4,12.2C188.1,114.2,184,111.8,179.8,108.7L179.8,108.7z M203.1,102.1c0.5-0.6,6.1-4.1,12.3-7.8c15.8-9.2,26-16,31.3-20.8l4.5-4.1l-3.7-2.3c-4.7-3-6.1-6.2-5.1-11.2 c1.3-6.2,8.4-12.7,13.8-12.7c3.7,0,4.8,2.4,4.3,9.4c-0.2,2.8-0.5,5.5-0.9,8.2c-0.4,1.7,0,2.3,2.4,3.9c1.6,1,2.8,2.4,2.8,3 c0,1.3-3,7.5-3.7,7.5c-1.1-0.5-2.2-1.1-3.2-1.9l-2.8-1.9l-5.8,6c-7.1,7.2-15.5,13-24.7,17.3C216,98.7,201.9,103.5,203.1,102.1 L203.1,102.1z M256,56.8c0-2.4-2-5.6-3.5-5.6s-5.3,3.2-4.8,4.1c1.1,1.2,2.4,2.2,3.8,3.2C255,61,256,60.6,256,56.8L256,56.8z M99.4,83.4c-1.9-2.9-2.3-12-0.7-19.3c1.1-5.4,7.5-21.5,8.2-20.7c0.2,0.2-1,4.8-2.6,10.2c-3.7,12.7-4,19-1,22 c1.7,1.7,2.3,1.9,3.7,1.1c1.5-1,2.7-2.3,3.8-3.8l2.1-3l-0.5,3.2c-0.8,4.6-3.5,10.7-5.2,11.6C104.3,86.3,100.9,85.7,99.4,83.4z M194.4,57.6c-1.1-1.3-1.8-2.8-2.1-4.5c-0.6-3.5,0.1-13.8,1.3-18.4c1.1-4,7.2-18.2,7.7-17.7c0.2,0.2-0.9,4.7-2.5,10.1 c-3.2,11-3.7,18.4-1.6,21.5c1.9,2.8,5.1,2,7.5-1.7s2.9-2.7,1.3,3C203.6,58.1,198.4,61.6,194.4,57.6L194.4,57.6z"/>
</svg>