<svg xmlns="http://www.w3.org/2000/svg" width="356.4" height="349">
<path d="M62.8,347.5c-28.6-3.9-47-14.7-56.3-33.2c-6-12-6.6-15-6.5-35.9c0-15,0.3-19.6,1.8-27.6c3.3-18,9.3-35.2,16.9-48.3 c6-9.7,12.8-18.8,20.5-27.2c3.1-3.3,5.2-6.1,4.9-6.8c-0.7-1.8-13.1-11.3-18.3-14c-6.4-3.3-9.5-3.3-16.3,0.3c-2.9,1.5-5.6,2.6-6,2.4 c-0.8-0.5,0.1-4.4,2.8-13.3c2.4-7.8,3.8-9.2,12-12.6c18.2-7.6,40.8-9,61.5-3.7c9.1,2.3,19,6.9,21.4,10c2,2.6,1.7,4.8-2.2,12.9 l-2.8,6l-12.3,6.2c-6.8,3.4-12.3,6.5-12.3,7c0,1.5,7,5.3,13.8,7.6c4.6,1.6,9.4,2.4,14.2,2.6c6.7,0.3,8.3,0.1,13.6-1.7 c7-2.5,15.5-7.3,18.7-10.8l2.3-2.4l-6.7-11.7c-7.3-12.9-11.9-22.3-11.9-24.6c0-0.8-1.2-2.5-2.6-3.8l-2.5-2.4l1-8.9 c1.1-9.5,1.4-11,2.5-11c0.4,0,5.2,4,10.8,8.9c11.5,10.2,12.2,11.6,4.9,11.2l-4.7-0.2l1.6,2.2c4.1,6.3,7.7,13,10.8,19.8 c2.3,5.1,2.5,6.4,2.4,13.6c-0.1,9.2-2.5,18.1-6.7,24.6c-5.2,8.1-16.7,16-25.1,17.2l-3.9,0.6l-0.2,3.8c-0.3,5.1,1.8,12.9,4.9,18.1 c2.3,3.9,11.5,13.4,12.3,12.7c0-1.7-0.2-3.4-0.6-5c-3-16.2,9.7-43.5,23.5-50.3c7.4-3.7,8.6-2.9,14.9,9.6c1.8,3.7,3.9,7.3,6.3,10.7 c4.5,5.3,11.4,6.8,20.7,4.4c7.9-2.1,12.9-5.5,23.3-16.3c5.4-5.5,10-9.8,10.3-9.5s0,2.8-0.6,5.4c-1.6,6.2-0.7,9.5,3.8,14.1 c3.8,4,7.5,5,13.5,3.6c8.1-1.9,14.8-7.9,21.6-19.5c1.9-3.2,4-5.9,4.8-6.1c1.1-0.2,1.3,0.6,1.3,5.4c-0.1,10.4,5,16.7,14,17.5 c8.4,0.7,19.4-4.4,21.8-10c2.3-5.3,1.7-21.3-3-85c-2.5-33.3-4-58.2-4-64.9c0-3.4-0.3-6.3-0.6-6.6s-5.4,1.6-11.3,3.9l-10.7,4.3 l0.5-2.2c1.4-5.5,2.9-6.8,11.9-10.1l8.6-3.1l-0.5-2.5C289,16,289,15.5,292,7.8c1.6-4.3,3.3-7.8,3.6-7.8c0.9,0,2.7,3.6,6,12.2 c1.5,4,2.9,7.4,3,7.6s11.5-3.9,25.2-9s25.2-9,25.5-8.8s-0.2,1.8-1.1,3.4c-1.5,2.9-2.2,3.2-24.4,11.7c-12.5,4.8-22.9,8.8-23,8.9 c0.7,2.6,1.6,5.1,2.6,7.6c2.7,7.2,3.6,12.9,2,12.9c-0.4,0-2.4-1.6-4.4-3.6s-3.8-3.3-4.1-2.8s-0.3,2.5,0,4.6c0.7,5.9,5.9,79.3,7,98.8 c1.5,26.7-0.7,43.5-7.4,57c-6.3,12.8-14,18.8-23.9,18.8c-9.4,0-15.1-4.1-19.9-14.2c-1.5-3.2-3-5.8-3.3-5.8s-1.9,2.8-3.5,6.3 c-3.1,6.6-8.1,12.5-12.7,15c-2,1.1-4.5,1.5-9.6,1.5c-6.1,0-7.2-0.2-10.2-2.2c-4.1-2.7-7.3-8-8.4-14.2c-1-5.1-1.6-5.8-2.9-3.2 c-3.5,6.5-14.2,16.2-22.4,20.4c-5.6,2.5-11.8,3.4-17.8,2.5c-5-0.9-9.5-5.9-15-16.5c-2.8-5.3-5.6-10-6.3-10.4 c-2.2-1.2-5.9,1.2-12.3,7.9c-9.2,9.6-10.5,15.2-5.3,22.4c4.5,6.2,19.4,15.6,31.8,20.1c2.7,1,5.4,2.3,5.9,2.8 c1,1.2-1.1,18.5-2.4,19.8c-1,1-13.7-2.1-23.6-5.8c-20.8-7.8-32.5-16.5-38.9-29c-3.9-7.7-4.9-18.5-2.7-30c0.7-3.4,1.2-6.4,1.2-6.5 c-1.1-0.2-2.2-0.2-3.3-0.2c-9.4,0-23.4-5.9-35.3-14.7c-2.4-1.9-4.9-3.7-7.5-5.3c-1.2,0-11.7,9.4-16,14.2c-14.7,16.6-25.2,35.9-30,55 c-1.5,5.8-1.8,9.4-1.8,18.4c0,12.7,1.1,18,5.7,27.5c3.8,8,14.1,18.5,22.3,22.7c12.3,6.4,26.1,9.6,44.8,10.6 c15.1,0.8,64.7-1.8,82.4-4.4c6.9-1,10.8-1.1,10.8-0.1c0,0.4-2.1,1.6-4.6,2.7c-8,3.5-60.4,20.5-65.8,21.4 C94.7,349.1,72.8,348.9,62.8,347.5L62.8,347.5z M68.7,152.4c4.9-2.7,5.4-3.1,4.1-4.1c-2.3-1.7-8.9-2.7-17.6-2.7 c-11.4,0-11.7,0.2-6.2,4.3c2.5,1.8,4.8,3.8,7,5.9l2.4,2.5l2.4-1.5C62.1,156,65.7,154,68.7,152.4L68.7,152.4z M56.3,312.8 c0.5-1.6,1.2-3.1,2-4.6c0.8-0.8,82.3-30.7,82.6-30.3c0.2,0.2-0.4,1.8-1.2,3.5c-1.6,3.1-1.9,3.2-19.1,9.8 c-13.2,5-56.1,21.8-64.9,25.4C55,316.9,55.2,315.8,56.3,312.8L56.3,312.8z M116.4,314.9c2.9-1.5,5.8-2.8,8.8-4 c24.8-10.5,40.1-18.3,48.9-25c5.8-4.4,7.9-7,11.6-13.9c1.8-3.4,3.4-5.6,4.2-5.6s2.1-1.5,3.1-3.2c6.2-10.8,17.4-0.5,13.8,12.7 c-1.3,5-3.3,6.7-6.5,5.7c-2.8-0.8-8-4-10.9-6.6c-1.1-1-1.8-1.2-1.8-0.6c0,2.5-4.6,10.2-8.6,14.6c-9.8,10.6-23.1,17.6-42.2,22.2 C122.7,314.5,115.6,315.8,116.4,314.9L116.4,314.9z M203.8,273.9c0.8-0.8-1.7-5-3.8-6.4c-1.5-1-2.3-1.1-3.6-0.4 c-2.4,1.3-2.1,2.2,2.1,4.8C202.5,274.5,203,274.7,203.8,273.9L203.8,273.9z M197.6,300.2c0.4-0.4,3.5-2.5,6.8-4.6 c4.5-3.1,8.7-6.7,12.4-10.7c17.6-18.9,22.8-22.9,30.8-23.9c2.3-0.2,4.6-0.1,6.8,0.5c7,2.3,10.4,0.9,14.5-6.1 c2.6-4.4,3.9-4.5,3.2-0.3c-0.5,3.1-0.5,3.2,2.3,3.7c4.3,0.8,5.2,0.2,4.7-3.4c-0.3-2.3,0-3.5,1.2-5.1c1.4-1.7,1.8-1.8,2.5-0.8 c1.8,2.8,0,12.9-2.8,16.1c-1.6,1.7-5.2,2-9.1,0.6c-2.3-0.8-2.8-0.7-4.7,1.1c-4,3.8-9.9,4.9-15.8,2.9c-3.7-1.2-11.5,0.8-16.5,4.2 c-2.1,1.4-8.2,6.8-13.8,12c-6.9,6.5-11.4,10-14.3,11.3C201.1,300,196.3,301.3,197.6,300.2L197.6,300.2z M304.6,286.8 c8.5-9.9,10.6-15.4,6.6-17.3c-1.5-0.7-2.5-0.6-4.4,0.4c-2.3,1.2-2.5,1.1-2.5-0.3c0-2.7,3-7.5,5.2-8.5c2.9-1.3,4.8-1.2,6.9,0.5 c2.6,2.1,2.5,8.2-0.5,14.2c-2.4,5-10,13.5-14.1,15.9C299.6,292.9,300,292.2,304.6,286.8L304.6,286.8z M34,285.5 c-4.3-1.7-5.6-3.8-5.6-9.2c0.1-6.1,2.1-12.1,5.6-17.1c0.9-1.3,1.7-2.7,2.4-4.1c0-0.3-1.1-1-2.4-1.5c-7.5-3.1-5.8-12.7,3.9-21.8 c4.8-4.4,7.9-5.6,9.5-3.4s1.3,4.1-0.6,7.3l-1.7,2.7l-1.8-1.6c-0.7-0.8-1.6-1.3-2.6-1.6c-1,0-5.8,5.3-5.8,6.4s3.9,3.9,6.3,4.4 c3.1,0.7,5.5-0.4,10.2-4.7c1.4-1.4,2.9-2.6,4.6-3.7c1,0,0.4,3.4-1.2,7.1c-1.2,2.8-2.9,4.7-6.5,7.4c-5.3,4-12.3,11.8-15.1,17.1 c-2.3,4.4-1.7,7.1,1.8,8.6c3.9,1.6,15.6,1.2,24-0.9c3.9-1,7.4-1.6,7.9-1.4c1,0.3-5.3,5.2-9.5,7.3C51.3,285.8,38.6,287.3,34,285.5 L34,285.5z M72,272.4c-2.5-1.9-5.1-3.6-7.8-5.2c-1.3,0-0.5-2.6,2.8-9.2c1.8-3.8,3.8-6.8,4.4-6.8c1.2,0,8.7,4.6,13,8l2.8,2.2l2.9-5.9 c1.6-3.3,3.2-5.9,3.6-5.9c0.7,0,6.9,4,12.7,8.1c2.6,1.9,3.5,3.1,3.5,4.6c0,2-5.6,13.1-7.1,14c-0.4,0.2-3.9-1.9-8-4.8 s-7.6-5.1-7.9-5.1s-1.9,2.4-3.5,5.3s-3.2,5.4-3.6,5.6S75.9,275.3,72,272.4L72,272.4z M332.7,240.7c1.3-13.1,1.5-26.3,0.6-39.5 c-1-15.7-4.8-72.2-6.9-101.6c-0.6-9.2-1.5-24.2-2-33.2s-1.4-18.6-2.1-21.5c-0.7-2.5-0.9-5-0.8-7.6c0.8-3.8,5.4-14.9,6.2-14.9 s1.8,2,9.6,22.7c6.3,16.7,8.2,23.7,6.3,23.7c-0.5,0-2.8-1.7-5-3.8l-4.1-3.8l0.5,6.8c1,12.4,5.3,72.1,6.9,95.6 c2.9,42.1,1.7,58.4-5.6,75.5C333.5,245.9,332,246.6,332.7,240.7L332.7,240.7z M207.8,143.9c-2.9-1.4-4.2-5.4-4.2-12.3 c0-5.2-0.3-6.5-1.6-8c-1.1-0.9-1.5-2.4-1.1-3.8c0.6-2.2,3.8-6.1,5-6.1s1.6,4.5,1.1,11.6c-0.3,5.7-0.2,6.6,1.4,8.6 c2.4,3,5.2,2.9,8.2-0.4c2.6-2.8,2.6-1.9,0.9-15.5c-0.5-4.3,0.8-8.4,2.2-6.9c1.1,1.1,3,9.5,3.1,13.2c0.1,6.8,4.2,11.4,8.6,9.4 c2.4-1.1,2.3-2.1-0.5-8.1c-3.2-6.8-3.7-10.2-2-14.1l1.4-3.1l0.8,2.8c0.4,1.5,1.8,5.8,3.1,9.5c2.5,7.2,2.7,9.4,1.4,13.9 c-2.4,8.7-9.7,10.5-13.5,3.2l-1.5-2.9L219,138c-0.8,1.6-1.9,3.1-3.1,4.5C213.9,144.2,210,144.9,207.8,143.9L207.8,143.9z M154.7,103.2c0.6-1.7,1.3-3.3,2.2-4.8c1.1-1,81.9-30.6,82.3-30.2c0.9,0.9-2.9,6.9-4.7,7.4c-4.5,1.4-72.6,27.9-80.4,31.3 C153.4,107.3,153.6,106.1,154.7,103.2L154.7,103.2z M264.7,106.6c-2-1.3-2.7-4.4-2.7-10.8c0-8.1,1.9-16.1,5.9-24.9 c3.2-7.1,4.4-7.8,2.2-1.2c-5.2,15.2-6,25.8-2.2,28.4c2.5,1.6,4,0.9,6.9-3.5c2.2-3.3,2.4-3.5,1.9-1.3c-2.3,10.2-4.3,13.5-8.4,13.8 C267.1,107.1,265.9,107,264.7,106.6L264.7,106.6z M8.4,105.2c0.6-0.6,7.1-4.6,14.4-8.9c16-9.4,25.8-16,29.9-20.2l3.1-3.2l-2.8-1.8 c-4.1-2.5-6.1-5.4-6.1-8.7c0-6,5.6-13.4,11.8-15.4c3.6-1.2,6.3,0.6,7.1,4.5c0.5,2.5-0.6,10.5-1.8,13.5c-0.2,0.5,0.9,1.9,2.4,2.9 c3.3,2.2,3.5,3.6,1.2,8c-1.7,3.3-1.8,3.3-5.6,0.5l-2.1-1.5l-5.5,5.7c-9.3,9.7-20.9,16.6-38.8,23.1C7.8,106.7,6.7,106.9,8.4,105.2 L8.4,105.2z M60.4,60.6c0-1.9-0.4-3.9-1-4.4c-1.5-1.5-4.2-1.2-5.8,0.6c-1.2,1.4-1.3,1.8-0.3,2.9c1.2,1.4,5.5,4.3,6.5,4.3 C60.1,64,60.4,62.5,60.4,60.6L60.4,60.6z M105.6,81.3c-4.9-4.9-3-20.5,4.3-36c1.4-3,2.7-5.3,2.8-5.2c-0.6,3.2-1.5,6.4-2.5,9.5 c-3.5,11.4-4.2,18.7-2.4,22.3c2.2,4.3,5.7,3.1,9.8-3.5c1.1-1.7-0.5,5.8-2,9.5C113.5,83.1,109,84.8,105.6,81.3L105.6,81.3z M166.6,57.1c-0.4-0.8-0.6-1.6-0.6-2.5c0-3.9-6.7-20.9-8.8-22.2c-0.8-0.2-1.7,0-2.4,0.5c-1.4,0.8-2,0.8-3.8-0.3 c-1.4-0.9-2.6-2-3.7-3.3c-1.4-1.9-1.4-2,0.1-5.1c3.1-5.9,3.5-6.2,6.8-5.2c5.2,1.7,9.8,8.4,12.1,17.7c0.7,2.8,1.5,5.7,1.8,6.3 s1.7-3.7,3.1-9.8c3-12.2,4.1-14.9,7.2-17.3c2.9-2.3,4.8-2.1,7.6,0.7s3.2,7.4,1.2,10.1c-1.1,1.5-1.2,1.5-3.4-0.6 c-1.3-1.2-2.9-2.2-3.7-2.2c-2.1,0-4.3,4.4-6.1,12.4c-3.6,15.8-4.2,18.1-5.5,19.7C167.8,57,166.9,57.4,166.6,57.1L166.6,57.1z"/>
</svg>