<svg xmlns="http://www.w3.org/2000/svg" width="520" height="271">
<path d="M412.8,265.5l-8.2-5.9l-1.8-1.3l3.6-7.7c2-4.2,3.9-7.7,4.3-7.7c1,0,12.8,7.7,15.1,9.8c1.3,1.2,1.6,2.1,1.1,3.7 c-1.5,4.2-3.6,8.2-6.1,11.9l-1.5,1.8L412.8,265.5z M184,261.2c2.2-6.9,1.2-6.3,21.3-13.7l41-15.2c12.3-4.6,22.5-8.2,22.7-8.1 c0,1.1-0.3,2.2-0.7,3.2c-1.1,3.5,0.1,2.9-26.8,13.1c-11.4,4.4-29,11.2-39.1,15.2S184,263,183.8,263S183.7,262.2,184,261.2L184,261.2 z M492.9,260.8c-0.2-0.4-0.1-4.3,0.3-8.7c1-12.3,1-24.7,0-37c-0.4-6.5-1.3-20.3-2-30.6c-1.5-22.1-4-59.9-5.2-75.2 c-0.4-5.9-1.2-18.2-1.6-27.2c-0.5-9.9-1.3-18.1-2.1-20.8c-0.7-2.2-1-4.5-0.8-6.8c0.7-4.2,5.5-15.7,6.4-15.4 c1.8,0.6,16.5,39.7,16.5,43.8c0,1.3-0.4,2.4-0.8,2.4s-2.4-1.6-4.4-3.5s-3.8-3.2-4-2.9s0.2,7.8,0.8,16.5c7.8,104.6,8.7,122,6.8,136 c-1.1,8-3.1,15.9-6,23.5C494.5,260.5,493.6,261.8,492.9,260.8L492.9,260.8z M5.3,253c2.9-1.5,19.2-8.8,36.2-16 c45.6-19.5,62.4-27.7,82.8-40.3c16.2-10,31-22.1,36.1-29.5c2.2-3.3,2.4-3.8,1.9-8.4c-0.9-8-3.5-17.1-7.8-27.3l-4-9.5l2.2-7.7 c3.1-10.9,3.6-11.2,7.3-4c3.7,6.9,6.4,8.8,13.1,8.8c10.1,0,14.9-7,16.7-24.3c0.9-8.2,2-10.1,5.5-8.9c4.7,1.6,8.4,13.4,11.9,37.5 c3.2,22.3,4.4,26.3,9.5,30.7c7.1,6.2,21,5.1,32.6-2.8c4.5-3.5,8.7-7.2,12.7-11.3c9.5-9.4,11.1-9.9,11.1-4c0,4.6,2.4,9.4,6.6,13.7 c3.3,3.3,9,6.9,10.8,6.9c0.4,0,1.6-1.4,2.6-3s6.3-9.8,11.8-18.2C326.8,102.4,344,91,364,96.2c6.9,1.8,11.9,4.8,19,11.4 c8,7.5,12.3,15.3,11.5,20.9c-1.2,8.6-6.6,21.3-11.3,26.5c-6.1,6.8-25.6,17.8-39.3,22.3c-10.9,3.5-17.2,4.5-29.8,4.5 c-10.7,0-12.1-0.2-18.2-2.3c-3.7-1.3-6.8-2.1-7-2c-0.7,1.7-1.2,3.5-1.6,5.3c-4.8,18.8,11.3,28.5,43.6,26.3 c11.8-0.8,21.3-3.5,42.6-11.9s25-10.2,36.8-17.3c5-3.1,9.1-5,9.8-4.7c1,0.4,1.1,1.3,0.7,4.8c-0.8,6.9,0.1,9.8,4.4,14.1 c4.9,4.9,10,6.4,16.8,4.8c5.2-1.1,6.3-1.6,11.5-5.1c4.9-3.2,5.6-5.7,5.5-19.8c-0.1-11-0.6-19.6-4.9-79.9c-1.3-18.3-2.6-38.5-2.9-45 c-0.4-8.3-0.8-11.8-1.5-11.8c-2.9,0.9-5.7,1.9-8.5,3.2c-4.1,1.7-7.6,2.8-7.8,2.4s0.6-2.5,1.6-4.6c1.8-3.6,2.2-3.9,8.5-6.1 c7.5-2.7,7.5-2.8,5.3-10c-0.7-2.2-1-4.5-0.8-6.8c0.8-4.2,5.6-15.7,6.4-15.4c0.4,0.1,2.9,5.7,5.5,12.3c4.8,12.1,4.8,12.1,6.8,11.3 c16.1-6.2,51.6-19,51.9-18.7s-0.2,1.8-1,3.4c-1.4,3-1.4,3-25.3,12.1c-13.1,5-24.3,9.4-24.7,9.6s-0.1,2.5,1.2,5.9 c2.1,5.8,2.5,10.1,1,10.1c-0.5,0-2.5-1.5-4.4-3.3s-3.6-3.2-3.8-3s1,19.8,2.7,43.5c5.4,74.4,5.6,81.2,3.1,96.4 c-2.9,17.8-11,32.5-20.9,37.8c-2.9,1.6-4.6,1.8-11,1.8c-14.3-0.1-21.1-5.7-22.3-18l-0.5-5.4l-7.9,5.1c-14.6,9.4-51.8,24-71,27.7 c-7.5,1.4-23.2,1.3-29.3-0.3c-16.6-4.4-24.2-14.6-24.2-32.6c0.1-6.4,1-12.7,2.8-18.8c0.3-1.2-0.4-2.2-3.6-4.3 c-2.5-1.8-4.8-4-6.8-6.4c-2.9-4-6-11.1-6-13.7s-1.2-1.8-5.1,4c-10,14.6-21,21.7-33.4,21.7c-13.6,0-20.9-5.7-24.2-19 c-0.6-2.6-2.1-11.9-3.2-20.7c-2.3-17.7-3.8-25.4-5.7-28.3s-2.9-1.1-5,7.9c-2,8.3-5.6,16-8.7,18.4c-2.9,2.1-6.5,3.1-10.1,2.6 l-2.6-0.4l-0.5,12.7c-0.6,15.7-1.6,21.4-4.6,28.6c-3.5,8.4-8.1,13.7-19.5,22.2c-20,15-56.6,35-68.8,37.6c-3.5,0.7-13.1,3-21.2,5 c-26,6.4-43.2,10.1-48.7,10.5L0,255.8L5.3,253z M325.1,162.1c10.5-1.2,20.9-3.6,30.9-7.3c10-3.6,23.6-10.8,28.4-14.9l3.2-2.8 l-1.5-2.4c-2.7-4.2-12.2-11.7-19.7-15.4c-12.2-6.1-21.2-6.2-33.1-0.3c-10.5,5.1-22.9,18.1-32.7,33.9c-1.3,2-2.4,4-3.4,6.1 c0,0.7,12.6,3.2,19.2,3.8C317.1,162.9,321,162.6,325.1,162.1L325.1,162.1z M162.9,225.2c-4.5-3.1-8.1-5.9-8.1-6.3 c0-1,6.2-13.8,7.2-14.7c0.5-0.5,3.3,0.9,7.8,4c3.9,2.6,7.5,5,8,5.4s1.9-1.1,3.8-5c1.6-3.1,3.2-5.6,3.7-5.6c1,0,8.9,4.9,12.9,8.2 c2.1,1.6,3,3,3,4.4c0,2.2-6.2,13.8-7.3,13.8c-0.4,0-4.1-2.4-8.3-5.3s-7.7-5.2-7.8-5s-1.4,2.8-3,5.8c-0.9,2-2,3.9-3.3,5.8 C171.2,230.8,167.4,228.4,162.9,225.2L162.9,225.2z M209.5,216.8c0.5-3.1,3.6-7.5,7.1-10.1c2.1-1.6,2.2-1.6,6.5-0.1 c3.4,1.2,5.1,1.3,7.4,0.7c2.7-0.7,3-1,3-3.1c-0.2-2.1-0.6-4.2-1.2-6.2c-1-3.4-1-4.1,0.1-6c1.6-2.8,2.4-2.4,4.4,2.4 c1.7,4.1,5.4,8.7,7.1,8.7c0.5,0,3.1-2.2,5.7-4.9c7.3-7.5,10.4-9.5,14.5-9.5c2.8,0,3.7,0.4,4.8,2c1.5,2.4,1.2,6.6-0.9,11 c-2.5,5.2-12.3,10.1-20,10.1c-2.7,0-3.6,0.4-5.5,2.6l-2.3,2.6l0.4-2.5c0.3-2,0-2.9-1.5-4.3c-1.1-1-2.1-1.7-2.2-1.5s-0.8,1.4-1.4,2.7 c-2.5,4.9-6.1,5.8-16,4.1c-2.3-0.4-3.4-0.1-6.2,2c-1.2,1-2.5,1.8-3.9,2.5C209.2,219.7,209.2,218.4,209.5,216.8L209.5,216.8z M258.3,202.1c2.1-0.7,4.1-1.9,5.9-3.3c1.4-1.5,1.4-1.6-0.1-2.7c-0.8-0.6-1.7-1-2.7-1.1c-2.2,0-7.8,3.2-10.5,6l-2.7,2.8h2.9 C253.5,203.5,256,203,258.3,202.1L258.3,202.1z M73.1,147.5c0.5-0.6,6-4.1,12.3-7.8c15.9-9.3,26.2-16.2,31.1-20.6l4.2-3.8l-3.4-2.3 c-4.4-3.1-5.6-4.9-5.6-8.7c0-3.5,1.7-7.2,4.7-10.5c2.4-2.6,7.3-5.3,9.6-5.3c1.9,0,3.9,2.1,4.6,5c0.5,2-0.6,10.9-1.7,13.7 c-0.3,0.7,0.7,1.8,2.4,2.9c3.3,2.1,3.6,3.7,1.1,8.1l-1.7,3.1l-2.6-2c-0.9-0.8-2-1.5-3.1-2c-0.3,0-2.5,2.1-4.9,4.8 c-8.8,9.5-20.3,16.6-36.9,22.8C72.1,148.9,71.8,149,73.1,147.5L73.1,147.5z M125.2,102.7c0-1.9-0.4-3.9-1-4.4 c-1.3-1.3-4-1.2-5.9,0.2c-1.2,0.9-1.4,1.4-0.7,2.6c0.9,1.5,5.7,5,6.8,5C124.8,106.1,125.2,104.6,125.2,102.7L125.2,102.7z M400.5,137.5c2.3-1.7,9.7-6,22.3-12.8c11.3-6.1,13.5-7.7,12.3-8.9c-1.8-1.8-7.3-2.3-22.5-2.4c-8.5,0-15.4-0.2-15.4-0.5 c0.8-1.9,1.8-3.8,2.9-5.7c6.7-11.9,8.3-12.6,28.5-12.1s26,2.5,23.8,8.2c-1.5,4.1-9.1,14.4-14.7,20c-6.4,6.5-7.9,7.2-26.1,12.4 C399.4,139.3,397.8,139.6,400.5,137.5L400.5,137.5z M239.8,125.7c-0.5-6.6-2.2-18.6-3.8-26.6c-3.2-16.7-3.4-19.3-1.3-23.8 c1.8-3.9,3.5-5.5,7.9-7.2c2.6-1,3.2-1.6,2.6-2.4c-1.9-2.3-4.2-2-6.9,1s-2.7,2.9-2.7,0.9c0-3.3,2.2-9.8,4.1-11.8l1.7-1.9l-1.8-5.7 c-1.3-3.9-2.8-7.8-4.6-11.5c-2.6-5.4-4.3-7-5.5-5c-0.9,1.4-2.7,0.9-5.6-1.7c-3.4-3-3.5-4.3-0.6-9.1c2.5-4.2,4.2-4.6,8.3-1.8 c3.8,2.6,7.5,9.1,9.6,17.2c2.1,7.8,1.9,8,5-5.4c1.2-5.1,2.9-10.6,3.9-12.4c3.4-6.1,8.6-6.8,11.8-1.6c1.9,3.1,1.7,7.4-0.5,9.2 c-1,0.8-1.5,0.6-2.9-1.2c-1.2-1.5-2.3-2.1-3.8-1.9c-2.8,0.3-4.6,4.2-7,15.6c-1,4.9-2.4,10.4-3,12l-1,3l3,1.4 c4.1,2,10.2,7.5,10.8,9.8s-2.3,9.2-3.8,9.2c-2.4,0-14.2,4.1-16.1,5.6l-2,1.6l1.9,6.8c3.1,10.8,4.7,22,4.6,33.2 c0,5.9-0.4,12-0.8,13.6C240.9,137.1,240.6,135.3,239.8,125.7L239.8,125.7z M290.9,95.3c-1.4-1.8-1.7-3.2-1.7-9.1 c0-8.3,1.9-16.3,5.9-25.2c3.1-6.7,4.5-7.9,2.4-2c-2,5.6-5.2,18.8-5.2,21.3c0,5.4,3,9.6,5.9,8.5c0.7-0.3,2.4-2.2,3.7-4.2 c2.2-3.3,2.4-3.5,2-1.3c-2.3,10.3-4.3,13.5-8.5,13.8C293.1,97.4,292.3,97,290.9,95.3L290.9,95.3z M314.8,72.3 c0.3-1.5,0.7-2.9,1.3-4.3l1.3-3.4L370,45c28.9-10.8,53-19.6,53.5-19.6c1.3,0,1.1,1.7-0.6,4.4c-1.1,1.8-2.9,3-7,4.5 c-59.4,22.3-85.5,32.3-92.5,35.2C318.7,71.6,314.8,72.8,314.8,72.3L314.8,72.3z M169.4,66.9c-6.4-2.6-5.4-19.5,2.2-36.5 c1.3-2.9,2.6-5.1,2.9-4.9s-0.3,2.7-1.2,5.5c-4.5,14-5.4,23.3-2.5,26.2c0.7,0.8,1.6,1.3,2.6,1.6c1.1,0,4.5-3.3,6.1-6 c1.7-2.9,0.1,4.4-2,9c-1.3,2.8-2.6,4.5-4,5c-0.7,0.3-1.5,0.6-2.2,0.8L169.4,66.9L169.4,66.9z"/>
</svg>