<svg xmlns="http://www.w3.org/2000/svg" width="421" height="405">
<path d="M322.3,0c-0.9,0-2.8,4.2-5.5,12c-1.7,5-1.7,5.3-0.5,9.4c2.2,6.9,1.6,8.2-4.4,10.6c-4.9,2-5.3,2.3-6.6,6 c-0.8,2.2-1.3,4-1.2,4.2s3.3-0.9,7-2.4L318,37l0.6,6.1c0.3,3.4,1.3,17.5,2.2,31.3s2,30.2,2.4,36.4c3.1,46.3,3,62.4-0.5,65.6 c-2.4,2.2-13.5,6.4-29.9,11.2c-18.2,5.4-17.3,4.7-20.9,15.2c-2,5.9-2.8,9-2.2,9.6c0.8,0.9,26.4,1.7,56.4,2 c11.2,0.1,16.4,0.4,15.6,0.9s-5.3,3.2-10.2,6.1s-11.3,7-14,9c-6.9,5-21.1,19.3-25.8,26l-4.1,5.9c-2.5-0.7-5-1.6-7.4-2.6 c-12.8-5-22-10.8-35-21.6c-24.9-20.8-59.9-43.4-89.4-57.7c-2.5-1.2-4.6-2.6-4.6-3.1c0-1.1,9.3-7.7,19.2-13.7 c22.4-13.6,76.1-38.8,102-47.8c18.4-6.4,27.2-7.5,31.6-3.9l1.6,1.3l-2.3,3.7c-1.3,2-6.5,8.7-11.6,14.8c-9.8,11.8-14.8,20-16.9,28 c-0.7,2.6-1.1,4.8-0.9,5s1.1-1.2,2.1-3.1c2.3-4.7,8.6-12.9,17.5-23.1c13.4-15.2,19.2-25.6,19.9-35.5c0.3-5.2,0.2-6-1.6-8 c-3.6-4.2-13.6-3.4-32.2,2.5c-32.5,10.4-94.8,39.5-117.4,54.8c-9.9,6.7-12.2,9.7-14.6,19c-1.6,6-2.9,17.2-2.3,18.9 c0.2,0.6,12.5,10.6,27.3,22.2s29.8,23.6,33.4,26.7c11.2,9.8,20.4,22.7,19.3,27c-0.8,3.2-12.1,9.8-29.1,16.9l-7.4,3.1v0.2 c-0.2,0-0.3,0-0.5,0.1c-0.8,0.3-7.8,2.7-13.6,4.6s-11.2,3.8-12.1,4.3c-1.9,1-7.9,15.3-7.1,17.2c0.2,0.7,1.9,1.6,3.7,2.2 c3.6,1.1,3.6,1.9,0,2.6c-4.5,0.9-17.1,7.4-26,13.3C121.8,338,109.3,348,92,363.6c-16.3,14.7-21.8,18.9-28.3,22 c-9.2,4.4-15.8,3.9-20.8-1.6c-7.1-7.9-6.2-19.2,4.1-48.6c4-11.5,5-13.5,5.9-12.6c1,0.8,2.1,1.3,3.3,1.6c3.1,0.8,6.5-2.9,8.2-8.7 c1.6-5.4,1.2-7.5-0.7-3.9c-2.5,4.9-6.7,5.4-8.5,1c-1.5-3.6-0.5-11.4,2.4-19.5c3.8-10.6,3.8-11.1,0.8-13.9c-1.4-1.3-2.4-2.7-2.1-3.1 c1-1.5,2.1-11.3,1.6-13.8c-0.3-1.5-1.2-2.8-2.4-3.8c-1.7-1.1-2.2-1.1-5.5,0.1c-3.7,1.4-8.8,6.3-10.1,9.8c-2.2,5.7-0.3,10.5,5.4,14 l2.9,1.8l-4.2,3.9c-5.4,5-9.9,8-28.2,18.9c-19.6,11.7-20.4,12.7-5.4,7c17.1-6.5,28.7-13.7,37.4-23.2c4.2-4.6,4.2-4.6,6.3-3.3 c2.4,1.6,2.4,2.1-0.8,12.8c-1.3,4.3-2.1,8.7-2.4,13.2c-0.1,4-0.7,6.7-1.5,8.1c-2.1,3.1-9.1,19.2-11.3,25.9 c-6.5,19.3-5.8,35.7,1.8,46c3.4,4.5,6,6.8,10.4,9c2.5,1.1,5.2,1.6,7.9,1.5c4.1,0,5.8-0.4,10.1-2.7c6.8-3.5,8-4.5,30.5-23.7 c21.1-18,25.3-21.4,36-28.5c24.5-16.4,42.8-19.4,61.9-10.2l5.7,2.7l0.9-1.8c1.4-2.6,3.9-12.6,3.9-15.8c0-3.8-1.1-5.3-10.8-13.2 l-8.3-6.9v-0.1c4.7-1.8,18.5-7.5,23.1-10.1c7.8-4.3,11.4-7.3,14.4-12c3.3-5.2,4.8-10.9,4.9-18.8c0.1-5.5-0.3-7.4-2.5-13 c-1.4-3.7-2.4-6.8-2.2-7c0.4-0.4,11.9,8.8,22.3,17.8c9.4,8.1,19.8,14.8,26.8,17.1c3.9,1.3,5.1,2,4.8,3c-0.2,0.7-1.4,4.9-2.5,9.3 c-8.1,32.1-4.4,67.3,9,83.1c8,9.4,20.2,15.5,35.5,17.4c7,0.9,20.7,0.3,27.9-1.2c25.7-5.4,51.9-26.7,63.8-51.8 c4.9-10.3,6.1-15.4,6.6-27.4c0.7-15.3-1.5-22.9-9-30.9c-9.2-9.9-18.8-11.6-67.1-12.4c-23.9-0.4-44.9-1.5-46-2.5 c-0.5-0.5,5.4-6.4,11.9-11.8c13.1-10.8,35.6-22.3,55.2-28.2l3.5-1.1l-0.5,18c-0.3,10.4-0.2,17.8,0.2,17.5c1-0.6,5.2-11.7,6.8-18 c1-4.2,1.8-8.5,2.3-12.8l1-7.5l12.2-3.3c6.7-1.8,12.5-3.7,12.9-4.1c1.1-1.2,6.5-17.2,6-18c-0.2-0.4-7.4-0.5-15.9-0.2l-15.5,0.5 l-0.5-5.1c-0.2-2.8-1.2-15.6-2.1-28.3c-2.8-41-3.3-46.9-4.5-62.8c-0.6-8.6-1.1-17.3-1.1-19.5v-3.9l3.6,3.3c4.5,4.1,6.4,4.4,5.6,0.7 c-1.2-6.1-15-42.5-16.4-43.4c-0.8-0.5-3,4.3-5.6,11.8c-1.7,4.9-1.7,5.3-0.4,9.4c0.8,2.6,1.6,9.8,2.1,17.9c0.4,7.5,1.5,24.2,2.4,37.2 s2.3,34.2,3.2,47.2s1.8,26,2.1,29l0.5,5.4H359c-4.1,0-14.2-0.2-22.4-0.5l-15-0.5l1.9-2.5c8.9-11.8,12.3-31.3,11.4-64.1 c-0.3-9.2-0.8-21.5-1.3-27.2c-1.6-20.2-4-54.8-4-57.7v-3l3.8,3.8c6.3,6.2,6.9,5.1,3.1-6.8c-0.9-3-1.5-5.5-1.3-5.7s12-4.8,26.2-10.2 c25.2-9.6,26-10,27-12.6c0.5-1,0.8-2.2,0.9-3.3c-0.1-0.4-12.8,4-28.2,9.7S333,24,332.6,24s-0.8-0.8-1.1-1.8 C329.6,16,322.9,0,322.3,0z M280.6,48.1c-13.9-0.1-15.9,1.8-21.8,12.2c-1.1,1.8-2.1,3.7-2.9,5.6c0,0.3,6.6,0.5,14.8,0.5 c14.4,0,22.3,0.9,23.4,2.6c0.7,1.2-1.9,3-12.5,8.8c-12.6,6.8-20,11.1-22.3,12.8c-2.7,2.1-1,1.9,10-1.2c18.7-5.3,21.7-6.7,27.7-13 c4.8-5,11.3-13.8,13.5-18.3c3.5-7.2-1.1-9.1-23-9.8C284.9,48.2,282.6,48.1,280.6,48.1L280.6,48.1z M241.6,79.7c-0.5,0-1,0.1-1.5,0.3 c-1.9,0.6-95.1,35.6-154.9,58.2c-19.7,7.4-18.7,6.8-20.9,13.7c-0.3,1-0.2,1.7,0.2,1.7s13-4.8,27.8-10.7c28-11.1,110.5-42.9,134-51.6 c12.5-4.7,13.4-5.1,14.6-7.7C242.4,80.7,242.7,79.7,241.6,79.7L241.6,79.7z M272.7,144c-0.5,0-19.1,6.8-41.3,15 c-44.2,16.4-40.8,14.6-43.1,21.8c-0.7,2.3-2.9,3,26-8.4c13-5.1,31-12.2,40-15.6c9.9-3.8,16.8-6.8,17.3-7.7 C273.2,146.7,273.8,144,272.7,144L272.7,144z M249.1,175.2c-0.8,0-4.5,8.4-6.8,15c-4.1,12.3-4,24,0.2,26.9c1,0.7,2.1,1.1,3.2,1.2 c2.4,0,5.9-4.2,7.3-8.8c1.9-6.2,1.6-7.1-1.1-3.3c-3,4.1-5.8,4.5-7.6,1c-2.3-4.4-1.3-11.7,3.9-28.2 C248.9,176.9,249.3,175.2,249.1,175.2L249.1,175.2z M116.5,189.6c-5.2,0-8.3,5.6-11.7,21.4c-0.9,4.3-1.8,7.9-1.9,8s-1-2.8-2-6.5 c-2.1-7.9-5.8-14.5-9.6-17c-4.2-2.8-6.1-2.4-8.4,1.6c-1,1.5-1.7,3.3-2,5.1c0,2.9,5.9,7.1,8,5.8c0.7-0.4,1.4-0.7,2.2-0.7 c1.2,0,5.6,9.2,8.2,17.2l1.8,5.6l-2,2.2c-2.1,2.2-3.8,7.5-3.8,11.5v2.2l2.4-3c2.8-3.3,3.6-3.6,6.3-1.6l1.9,1.3l-4.8,2.1 c-4,1.8-5.1,2.7-6.5,5.7c-2.3,4.7-2.2,7.9,0.6,22.5c3.1,15.9,3.9,21.6,4.6,31.8c0.5,7.1,0.7,8,1.3,5.6c1-4,0.9-20.9-0.2-28.7 c-1.3-7.8-3-15.5-5.3-23c-0.4-1.5,0.1-2,3-3.5c3.1-1.4,6.2-2.6,9.5-3.6c5.4-1.6,6.2-2,7.8-4.9c0.9-1.4,1.5-3,1.8-4.7 c0-2.1-7.8-9.6-11.3-10.9l-2.8-1l1.4-5.3c0.8-2.9,2.3-9.1,3.4-13.7c1.9-7.9,3.8-11.9,5.8-12.6c0.5-0.2,2.1,0.8,3.7,2.1 c2.4,2.1,2.9,2.3,3.8,1.2c1.7-2,1.3-7-0.7-9.8C119.5,190.2,118.5,189.6,116.5,189.6L116.5,189.6z M162.4,230.2c-0.5,0.1-2,3-4,7.8 c-3.6,8.7-4.8,14.3-4.8,22.4c0,6.2,0.2,7.6,1.6,9.4c1.9,2.4,5,2.8,7.7,0.9c1.7-1.2,4.4-7.3,5.3-12.3l0.5-2.7l-2.3,3.1 c-3.4,4.7-4.5,5.4-6.5,4.3c-4.6-2.5-4.1-10.3,2-30C162.6,231.1,162.7,230.2,162.4,230.2L162.4,230.2z M49,266.4c2.4-0.1,3.8,2,3.8,6 c0,3.4-0.9,3.5-5,0.7c-3.3-2.3-3.8-4.5-1.5-5.8C47.1,266.8,48.1,266.5,49,266.4z M288.9,281.4c1.8,0,3.7,0.2,5.5,0.6 c11.7,1.9,23.6,2.8,35.5,2.8c18.8,0,48.1,1.4,55.9,2.7c8.9,1.5,14.7,4.1,20.1,9.2c10.5,10,12,21.1,4.5,32.8 c-11.2,17.3-34.5,33.2-57.1,38.8c-18,4.5-39.4,2.4-52.9-5.2c-8.9-5-16.3-15.1-19.1-25.9c-2-7.6-2.4-20.3-0.9-29.4 c1.1-7,5.9-23.5,7.5-25.9C288.1,281.5,288.5,281.4,288.9,281.4L288.9,281.4z M245,284.9c-1.6,0.1-3.2,0.6-4.6,1.6 c-1.9,1.5-4.5,7.5-3.6,8.4c0.2,0.2,1.5-0.1,2.9-0.6c5.3-2,7.3,2.5,3.8,8.5c-1.7,2.7-3.7,5.3-5.9,7.8c-2.1,2.4-4.4,5-5,5.9 c-0.9,1.1-0.3,0.9,2-0.7c12.8-9.3,19.9-24.1,14.3-29.7C247.9,285.1,246.4,284.7,245,284.9L245,284.9z M328,308c-3,0-5.8,0.3-7.2,1 c-2.1,1.1-5.6,5.7-5.6,7.5c0,0.9,0.4,0.9,1.5,0.3c3.4-1.8,15.3-0.6,15.3,1.6c0,0.5-3,4.1-6.8,8s-7.7,9.1-8.8,11.4 c-3.6,7.3-2.4,13.4,3.1,15.9c6,2.7,15.8,1.6,24.8-2.9c5.5-2.7,12.3-8.4,8.8-7.4c-14,4.2-28.5,5.4-32.6,2.7s-3.2-5,6.8-16 c12.2-13.4,14.1-18.2,8.3-21C334,308.4,331,308,328,308L328,308z M244.9,332c-4.1,0.1-7.6,1.8-13.3,6.3C224,344.5,216,356.1,216,361 s7.7,6.5,22.5,4.1c9.8-1.6,18-1.3,21.1,0.7c4.4,2.9,3.3,3.4-17.6,7.2c-17.1,3.1-25.1,3.6-31.1,1.8c-3.1-0.9-3.7-0.9-3.7,0 c0,1.9,4.2,6.2,7.6,7.7c6.1,2.8,19.6,1.6,37.8-3.4c9-2.5,9-2.5,10.6-5.8c1.1-2.4,1.7-5.1,1.6-7.8c0-3.8-0.3-4.7-2.2-6.5 c-3.7-3.6-8.6-4.2-18.4-2.6c-12.6,2.1-23.4,1.8-23.4-0.5c0-1.4,7.5-8.1,13-11.7c6.4-4.1,10.3-5.1,12.5-3c1.4,1.3,1.6,1.3,2.4-0.4 c0.7-1.6,1-3.3,1.1-5.1l0.1-3.4l-3.2-0.2C246.2,332.1,245.6,332.1,244.9,332L244.9,332z M176.2,344c-2.4-0.1-4.9,1.7-7.1,5.4 c-1,1.7-1.9,2.7-1.9,2.3c-0.1-1.6-2.6,1.7-5.6,7.1c-3.6,6.5-8.6,11.4-17.2,17c-5.6,3.6-30,15.4-44.2,21.2c-4.1,1.7-7.4,3.3-7.4,3.5 c0,0.7,6.2-0.5,20.4-3.9c9.7-2.3,15.4-4.2,20-6.5c14.9-7.4,24.2-15.6,29-25.1l2.9-5.9l2.1,1.9c6.7,6.2,12.5,7.8,15,4.1 c2-3,2.4-12.2,0.8-15.4C181,346,178.7,344.1,176.2,344L176.2,344z M174.5,352.3c1.7,0,3.5,1.3,5,3.8c2.1,3.5,0.6,4.1-3.9,1.6 s-5.2-3.7-2.8-5C173.4,352.4,174,352.3,174.5,352.3L174.5,352.3z"/>
</svg>