<svg xmlns="http://www.w3.org/2000/svg" width="427" height="437">
<path d="M291.6,436.2c-13.5-1.2-25.9-6.5-33.9-14.5c-11.5-11.5-16.2-26.8-16.2-52.2c-0.2-12.1,1.3-24.1,4.5-35.8 c1.1-4.1,2-7.8,2-8.1s-1.4-1.1-3-1.6c-4.2-1.4-15.1-6.9-19.3-9.8c-5.8-4-12.4-11.3-15.5-17.1c-3.3-6.2-6.1-16.6-8.1-29 c-2.5-15.7-2-14.8-3.8-8.8c-2.2,7.7-6,14.8-11.3,20.8c-16.9,19.8-41,36.3-62.1,42.5c-6.9,2-19.5,2.8-23.6,1.5 c-4.5-1.5-8.7-5.7-11.3-11.4c-2.2-4.8-2.3-5.5-2.3-16.6c0-14.5,1.5-21.1,8.1-36.5c0.2-0.5-5,1.8-11.5,5c-15.3,7.6-24.1,10-37,10.1 c-15,0.1-23.8-3.1-32.6-11.9c-4-3.9-5.9-6.7-8.7-12.5c-4.6-9.7-6-17-6-30.5c0-15.7,2.3-27.4,7.3-37.5c4.2-8.4,5.2-6.4,1.9,3.4 C6.4,193.7,4,206,4,211.7c0.1,20.6,13,37.7,31.6,41.7c10.7,2.3,19.2,1.8,32-1.9c19-5.5,43.3-19.3,65.4-37.2 c13.9-11.2,13.6-10.8,14-18.6c0.4-7.1-0.9-30.3-4.6-83c-2.3-33.4-3.4-50.5-4.8-74c-0.4-7.5-1.3-14.6-2.1-17.2 c-1.3-4.3-1.3-4.4,0.9-10.8c2.5-7.3,4.1-10.8,5.1-10.8c1.2,0,15.3,37.3,16.4,43.4c0.8,4.2-1,4-5.6-0.8l-3.7-3.8l0.5,9.2 c0.3,5.1,0.9,13.9,1.3,19.6c1.3,17.4,3.9,53.5,4.9,69.2c1.7,27,0.1,53.9-4,67c-4.5,14.6-17.4,28.4-43.2,46.4 c-8.4,5.9-8.5,6-13.3,21.1c-4.6,14.6-4.6,23.1,0.1,28.6c3.6,4.3,6.2,5.2,14.7,5.1c19-0.1,42.2-11.2,65.5-31.5 c6-5.2,17-18.1,18.9-22.2c1.7-3.6,1.2-11.7-1.6-24.6c-3.7-17.1-6.1-24.1-16.6-48.3l-5.7-13.1l1-6.9c1.2-8.6,2.3-12.9,3.2-12.9 c2.4,0,14,20.9,18.8,33.9c4.5,12.2,7.2,23.3,12.8,53.2c2.9,15.1,5.7,29.7,6.4,32.3c1.8,7,5.7,16.3,8.3,20.2 c5.5,8,16.8,16.1,28.5,20.4l6.4,2.3l4.9-7.4c4.5-6.3,9.5-12.3,14.9-17.8l10-10.4l-4.6-4c-5.7-4.9-13.4-10.2-17.2-11.8 c-4.3-1.8-7-1.5-13,1.6c-6.5,3.3-6.7,3.3-6.7,1.1c0-2.7,4.9-17.8,6.3-19.4c3.7-4.3,22.9-10.5,35.7-11.5c20.7-1.6,46.3,3.8,54.5,11.5 c2.6,2.4,2.8,3,2.4,5.6c-0.8,3-1.9,6-3.3,8.8l-2.8,5.9l-12.5,6.2c-6.8,3.4-12.5,6.5-12.5,6.7c0,1.2,8.1,5.6,13.7,7.5 c11.5,3.9,21.9,3.9,29.5,0c6-3.1,7.8-5,8.7-9.3c1.6-7.4,1.2-16.7-4.3-93.2c-1.1-15-2.3-35.1-2.8-44.8s-1.4-20.3-2.1-23.6 c-0.6-2.8-1-5.6-1.2-8.4c0-2.9,5.1-16.5,6.3-17s15.5,36.7,16.6,43.2c0.7,4.1-1,4-5.3-0.3c-1.8-1.8-3.5-3.1-3.7-2.8 c-0.4,0.4,0.3,12.1,3.4,53.7c5,67.5,4.9,80.2-0.5,97.6c-3.7,12-10.8,22.1-18.4,26.1c-3,1.6-4.7,1.9-10.4,1.8 c-13.1-0.2-25.9-5.1-39.5-15.2l-7.1-5.3l-4.1,2.8c-7.3,5.2-14,11.1-20,17.8c-4.5,5.3-5.3,6.7-3.5,6.7c0.5,0,5,0.4,9.8,0.8 s23.6,1.1,41.6,1.6c35.8,0.9,42.9,1.6,51.2,5.5c16,7.5,22.2,26.2,16.8,50.5c-1.7,7.6-8.6,22-14.1,29.1c-6.6,8.4-14.3,15.9-23,22.3 C331.8,433,313,438.1,291.6,436.2L291.6,436.2z M320.6,414.4c19-4.4,39.9-17,52.6-32c10.6-12.4,12.8-21.1,7.6-31.5 c-1.6-3.4-3.9-6.4-6.7-8.9c-10.1-8.8-18.9-10.4-63.4-11.3c-23.3-0.5-43.1-1.9-50.4-3.6c-4-1-4.3-0.6-7.6,9.5 c-3.6,11.4-5,19.4-5,29.8s1.9,19.9,5.6,26.7c3.1,5.8,10.9,13.4,16.7,16.3C283.8,416.4,303.6,418.3,320.6,414.4L320.6,414.4z M300.9,383.1c5.9-6.9,8-9.8,9.2-12.6c1-2.4,1-2.9-0.1-4.6c-1.4-2.2-3.1-2.4-6.2-0.8c-2,1-2.2,1-2.2-0.2c0-2.4,3-8,4.7-8.9 c2.4-1.2,6.2-1.1,7.7,0.4c4.7,4.7,1,15.2-8.8,24.9C298.5,388.1,295.7,389.2,300.9,383.1L300.9,383.1z M309.2,255.8 c2.6-1.5,4.8-3,4.8-3.5c0-2.4-21.8-4.8-26.7-3c-1.9,0.7-1.9,0.8,1.6,3.2c1.9,1.4,5.1,3.9,7.1,5.7l3.6,3.2l2.4-1.4 C303.3,259.2,306.6,257.3,309.2,255.8L309.2,255.8z M191.5,398.5c-3.4-2.1-4.6-5.5-4-10.8c0.5-4.3,3.9-12.3,6.9-16.6l1.6-2.3 l-2.2-1.2c-5.2-2.7-6.7-7.8-3.9-13.2c1.9-3.7,9.8-11.8,12.6-13c2.3-1,2.6-0.9,4,0.8c0.8,0.9,1.3,1.9,1.5,3c0,1.2-3,6.6-3.7,6.6 c-0.7-0.4-1.4-1-2-1.7c-1.5-1.5-1.8-1.5-3.4-0.5c-1.2,0.9-2.3,2-3.2,3.2c-2,2.7-0.8,5,3.4,6.3s6.1,0.6,11.5-4.1l4.6-4.1v3 c0,4.4-1.7,6.9-8.8,12.7c-9.3,7.7-16.6,18-15.3,21.6c0.8,1.4,1.9,2.5,3.3,3.2c3.6,1.9,15.1,1.4,24.6-1c3.7-0.9,7.1-1.6,7.6-1.4 c1.4,0.5-8,6.8-12.9,8.7C207.2,400.3,194.9,400.8,191.5,398.5L191.5,398.5z M110.4,353c0-2,3.2-8,4.5-8.5s31.1-11.6,63.9-23.7 c9.2-3.4,16.9-6.1,17.1-5.9s-0.3,1.7-1.1,3.5c-1.4,3-1.8,3.2-13.5,7.7c-9.2,3.5-63.6,24.8-69.9,27.3 C110.9,353.6,110.4,353.4,110.4,353L110.4,353z M402.2,291.2c1.1-16.4,0.6-30-3.8-92.4c-0.9-12.8-2.1-31.1-2.8-40.8 s-1.7-26.2-2.4-36.8c-0.8-13-1.6-20.4-2.4-22.9c-1.2-3.5-1.2-3.9,0.4-8.8c0.9-2.8,2.5-6.8,3.4-9c1.3-3.1,1.8-3.7,2.6-2.8 c1.1,1.2,13.1,32.2,15.1,39c1.4,4.9,1.6,7.2,0.5,7.2c-0.4,0-2.5-1.7-4.8-3.7l-4.1-3.6v2.3c0,1.3,1.3,19.9,2.8,41.5 c6.9,95,7,99.6,3.6,116.4c-1.7,8.5-5.5,19.2-7.6,22C401.7,300.3,401.6,299.6,402.2,291.2L402.2,291.2z M80,196 c-1-1.1-1.7-2.3-2.1-3.7c-1-4,0.3-16.5,2.3-22.3c2.2-6.4,6.2-15,6.7-14.5c0.2,0.2-1,4.6-2.6,9.8c-4.6,15.1-4,23.5,1.8,23.5 c1.4,0,2.6-1,4.3-3.8l2.4-3.8l-0.6,3.2c-0.9,5-2.6,9.4-4.5,11.4c-2,2.2-5.5,2.4-7.7,0.3C80.1,196.1,80,196,80,196z M240.8,197.1 c0.4-1.4,1-2.8,1.6-4.2l1.6-3.7l19.8-7.3c54.1-20.1,61.9-22.9,62.4-22.3c0.3,0.3-0.1,1.9-1,3.4c-1.5,2.7-2.5,3.2-17.2,8.8 c-8.6,3.2-27,10.4-40.9,15.9s-25.5,10-25.8,10C241,197.6,240.8,197.4,240.8,197.1L240.8,197.1z M237.6,131.6c0-8-1.4-18-4.5-33.6 c-3.8-18.7-2.1-25.2,7.1-28.5c3.4-1.2,3.5-2.4,0.2-3.5c-2-0.7-2.5-0.5-4.5,2l-2.3,2.8V68c0-4.3,1.4-8.4,3.6-10.6l2-2l-2.3-6.7 c-1.3-3.9-2.8-7.6-4.6-11.3c-2.3-4.6-2.3-4.6-5.3-4.1c-2.7,0.5-3.3,0.2-6.1-2.3l-3-2.9l2.3-4.4c2.1-4.1,2.5-4.4,5-4.4 c5.3,0,11,7.9,13.7,19.1c0.8,3.1,1.6,5.7,1.9,5.7s0.9-2.2,1.4-5c3.4-17.8,7.7-25.7,13.3-24.3c4.1,1,6.6,8.6,4,12.1 c-1.1,1.5-1.2,1.5-3.5-0.6c-1.2-1.2-2.9-2.2-3.6-2.2c-2.2,0-4.4,4.6-6.2,12.8c-0.9,4.2-2.4,10.1-3.3,13.1c-0.6,1.8-1.1,3.7-1.3,5.6 c0.1,0.1,1.6,0.8,3.3,1.5c2.4,1.3,4.6,2.8,6.6,4.7c4,3.7,4.5,6,2.3,10.6c-1.2,2.4-2,2.9-7.4,4.5c-6.2,1.8-11.7,4.2-12.5,5.5 c-0.3,0.4,0.4,4.2,1.5,8.4c3.1,11.5,4.6,23.4,4.3,35.3C239.4,138.1,237.7,142.4,237.6,131.6L237.6,131.6z M280.6,133.4 c-5.6-4.2-2.9-24.3,5.3-39.4c1.9-3.5,1.7-2.2-1.5,8.5c-3.6,12.2-3.8,19-0.8,22c1.7,1.7,2.3,1.8,3.7,1.1c1.4-1,2.5-2.3,3.4-3.8 c2.2-3.7,2.6-2.2,1,3.3C289.4,132.9,284.6,136.5,280.6,133.4L280.6,133.4z M38.4,129.3c0.7-0.6,7.1-4.6,14.4-8.9 c14.3-8.4,24.8-15.4,30.3-20.2l3.5-3.1l-2.7-1.7c-1.7-1.1-3.3-2.4-4.7-3.8C75,87.1,77.9,77.8,85.1,73c7-4.7,10.9-2.9,10.9,5.2 c0,2.7-0.3,5.3-0.9,7.9l-0.9,3.7l3.1,2.6c3,2.5,3,2.7,2.1,4.9c-0.7,1.4-1.4,2.8-2.2,4.1l-1.2,1.8l-2.4-2c-0.9-0.8-1.9-1.5-3-2 c-0.3,0-3,2.5-6,5.5c-9.6,9.8-20.2,16.2-37.2,22.4c-9.9,3.6-10.7,3.8-9,2.2L38.4,129.3z M90.8,82.7c-0.8-4.1-3.7-5-7-2.2 c-1.8,1.6-1.1,3.1,2.8,5.4c2.9,1.7,3.4,1.8,4,0.7C91.1,85.4,91.1,84,90.8,82.7L90.8,82.7z M180.8,88.6c-4.7-2.4-5.1-14.3-0.8-27.1 c2.1-6.4,6-15,6.7-15c-0.7,3.2-1.5,6.3-2.5,9.4c-3.3,10.8-4.1,18.2-2.7,21.7c1.8,4.4,5.3,4.1,8.1-0.5c2.3-3.7,2.8-2.3,1.1,3.5 c-1.3,4.5-4.8,9.1-6.9,9.1C182.8,89.4,181.8,89.1,180.8,88.6L180.8,88.6z M341.8,76.1c1.6-4.6,1.7-4.6,6.9-6.5 c2.9-1,21.1-7.8,40.5-15C422,42.5,426.4,41,426.4,42c0,1.3-2.9,6-3.9,6.5l-12.9,4.9c-14.1,5.3-55.8,21.7-63.7,25l-5.7,2.4 L341.8,76.1z M303.7,73.1c2.2-1.7,10-6.2,22.4-13s13.8-7.8,12.7-9c-1.7-1.7-7.4-2.3-22.5-2.3c-10.8,0-15.4-0.3-15.4-0.9 s1.8-3.8,3.9-7.4c5.9-9.8,5.8-9.7,26.1-9.7c14.7,0,17.3,0.2,20.8,1.6c3.2,1.3,4,2,4.2,3.7c0.3,2.9-1.9,7-8.5,15.6 c-9.5,12.2-12.2,13.8-32.4,19.6C302.7,74.7,301.3,74.9,303.7,73.1L303.7,73.1z"/>
</svg>