<svg xmlns="http://www.w3.org/2000/svg" width="556.7" height="328">
<path d="M555.5,0c-1.3,0.1-5.4,1.5-16.1,5.4l-40.1,14.8c-13.9,5.1-25.5,9.6-25.8,10c-0.9,1.4-1.6,3-2.1,4.6l-1.5,4l25.7-10.1 C527.4,16.2,551,7.1,552,7.1c0.7,0,4-5.6,4-6.8C556,0.1,555.9,0,555.5,0z M457.4,16.7c-0.7,0-9.8,3.2-20.3,7.1l-40.5,15l-21.4,7.9 l-1.6,4.3c-0.9,2.3-1.6,4.3-1.6,4.5s5.3-1.9,11.8-4.5S409,41,425.2,34.7l29.6-11.4l1.9-3.3C458.2,17.4,458.4,16.7,457.4,16.7 L457.4,16.7z M531.7,36.3c-0.9,0.1-2.3,3.1-4.9,10.3l-2.3,6.3l1.4,5.3c0.9,3.3,1.7,10.6,2.2,19.7c0.4,7.9,2.3,37.8,4.3,66.4 c5.6,81.7,5.5,80.3,5,98.2c-0.3,9.1-0.4,16.6-0.2,16.6c0.6,0,3.6-7,5.6-13.2c4.8-14.7,5.7-32.1,3.3-66c-1.8-24.6-5.2-70.9-6.5-88.4 c-0.6-7.9-0.8-14.7-0.5-15s2,0.8,3.7,2.6s3.8,3.2,4.6,3.2c1.3,0,1.4-0.4,0.9-2.6c-1.3-5.8-14.8-41.7-16.3-43.3 C532,36.3,531.9,36.3,531.7,36.3L531.7,36.3z M308.7,40.1c-1,0.3-2.3,3.2-4.5,9.6l-2.5,7.4l1.6,5c1,3.4,1.5,6.8,1.6,10.3 c0,6.1,1.1,22.3,5.2,75.3c2.3,30.3,2.8,40.4,2.6,54.8l-0.2,17.6l-2.5,3.4c-1.4,1.8-5.1,6.6-8.4,10.6c-4.7,5.7-6.4,7.2-8,7.2 c-6,0-23.5-7.7-29-12.7c-5-4.6-6.4-7.8-6-14.3c0.2-3.3,0-5.4-0.6-5.6s-4.9,4-9.8,9.2c-15.2,13.9-23.6,18.7-42,17.4 c-9.8-1.1-20-5.9-24.8-11.6l-2.2-2.6l3.8-3.4c7.2-6.5,10.8-15.9,10.9-28.8c0.1-9-1.1-13.5-5.6-21.6c-6.3-11.4-13.9-13.5-20.8-5.9 c-9.3,10.3-12.4,29.3-7.3,45.1c1.6,5,1.9,6.6,1.1,7.4c-1.8,1.7-16.8,8.8-28.2,13.3c-17,6.8-34.7,11.8-52.8,14.7 c-12.4,2-34.8,2-42,0.1c-17.5-4.9-28.9-15.7-32.1-30.2c-1.2-5.8-0.4-16.2,2.1-26.3c2.8-11.3,2.3-13.4-1.3-5.6 c-3.9,8.3-5.6,16.1-6,28.8c-1.1,31.2,10.5,49.1,35,53.9c14.1,2.8,36.8,1.1,58-4.2c22.8-5.7,55.9-19,70.8-28.4l2.9-1.9l2.7,4.5 c8.5,14.4,19.3,21.5,34.6,23c11.6,1.5,19.5-0.9,29.3-7.7c5-3.5,12.2-10.9,14.4-14.9c0.4-0.8,0.9-1.2,1.1-1s1.1,2.2,2.2,4.4 c4.2,8.4,15.5,17.1,26.8,20.7c11.3,3.6,17.8,4.1,50.4,4c34.4-0.1,47.4-1.1,73.1-6c21.1-4,27-6.2,33.8-12.6 c4.7-4.4,8.3-9.8,10.4-15.9c0.6-1.9,1.4-3.7,2.3-5.4c0.3-0.4,0.8,5.6,1,13.2c0.9,28.6,5.8,40.8,18,44.9c6.1,2,14.3,1.8,19.2-0.7 c11-5.5,19.4-22.1,21.8-43.1c1.5-13.7,1-24.3-4.4-97.6c-1.5-19.8-2.4-36.3-2-36.7s1.3,0.4,2.2,1.6c1.7,2.3,6.1,5.3,6.8,4.6 c1-1-1.4-8.8-7.9-25.8c-6.7-17.6-7.9-20.2-9.1-20.2c-0.6,0-5.2,11.7-6,15.3c-0.1,2.2,0.1,4.3,0.8,6.4c0.9,2.8,1.6,9.7,2,19.9 c0.8,16.8,1.5,28.4,4,61.6c4.8,65.1,5.3,80.6,3,85.8c-3.6,8.1-19.8,12.7-29,8.2c-4-2-7.9-9.2-9.5-18.1c-1.3-6.8-3.2-35.9-4-59.1 c-0.8-23.7-2-41.9-3.6-55s-5.6-34-7.6-40.5c-0.5-1.3-0.8-2.6-1-4c0.1-0.1,1.2-0.5,2.4-1.1c3-1.3,4.5-4,5.5-9.5 c0.8-4.4,0.7-5.1-2-12.6c-1.6-4.3-2.9-8.7-2.9-9.6c0-1.6-0.1-1.6-1.4-0.3c-2.4,2.4-1.8,9.5,1.2,15.8c2.7,5.6,2.7,7.4,0,8.2 c-4.1,1.1-7.8-3-7.8-8.7c0-3.5-2-12.6-3.1-14.7c-0.6-1.1-0.9-0.8-1.9,1.5s-1,3.5-0.1,8c1.7,8,1.5,9.9-1.3,13.2 c-3.4,3.8-6.5,3.9-8.5,0.2c-1.1-2.1-1.3-4.3-1.2-11.2c0.2-7.9,0.1-8.7-1.2-8.4c-1.8,0.3-5.1,5.2-5.1,7.4c0.1,1.1,0.7,2.1,1.6,2.7 c1.4,0.9,1.6,1.9,1.6,7.3c0,7.6,1.1,11,4,12.5c4.2,2.2,10.4-1.2,11.7-6.5c0.5-2,1.9-2.6,1.9-0.7c0.4,1.3,1.1,2.5,2,3.5l2,2.3 l-1.9,8.9l-1.9,9l2.3,15.4c3.4,23.9,5.6,48,6.5,72.2c0.8,19.7,0.8,22-0.5,26.3c-2.4,8.2-10.7,15.2-23,19.4 c-10.2,3.5-33.5,8.6-33.5,7.4c1.4-1.3,2.9-2.4,4.5-3.4c6.4-4.4,14.8-13.8,18.3-20.4c5.3-10.1,4.7-16.2-2.6-27.4 c-8.5-13-17.5-17-31.5-13.9s-29.7,13-50,31.5c-4.5,4.1-8.2,7-8.2,6.4s0.7-6.5,1.5-13.1c3-23.2,3-26.2-1.1-75.1 c-2.1-24.6-3.6-44.8-3.4-45.1s2,1.2,4,3.2c6.2,6.5,6.8,4.6,2.7-7.8c-3.1-9.3-12.1-32.3-13.3-34.1c-0.3-0.5-0.6-0.7-1-0.6L308.7,40.1 z M246.9,58.3c-0.7,0-2.5,1.2-4,2.7c-2.9,2.9-5.1,9.1-7.4,20.3c-0.7,3.7-1.5,6.7-1.8,6.7s-1.1-2.6-1.9-5.7 c-2.7-11.1-8.4-19.1-13.7-19.1c-2.4,0-2.9,0.5-4.9,4c-2.4,4.4-2.2,5.8,1.7,8.8c1.4,1.3,3.3,1.7,5.1,1.2l3-0.5l2.4,5.1 c1.3,2.8,3.3,7.8,4.4,11.2l2,6.2l-1.9,2.1c-2.2,2.3-3.6,6.5-3.6,10.7v2.8l2.3-2.8c2.1-2.5,2.5-2.7,4.5-2c3.1,1.1,3.3,2.5,0.4,3.2 s-6.9,3.8-8.5,7c-1.8,3.5-1.6,10.2,0.8,21.9c3.1,15.6,4.5,25.6,4.5,33.6c0,10.8,1.8,6.6,2.2-5.6c0.3-12-1.2-23.9-4.3-35.5l-2-7.8 l2.1-1.7c1.2-0.9,5.5-2.7,9.6-3.9c6.8-2,7.5-2.4,8.7-4.9c2.2-4.6,1.7-6.9-2.3-10.6c-2-1.8-4.2-3.4-6.6-4.7c-1.7-0.8-3.1-1.4-3.2-1.5 c0.3-1.9,0.7-3.8,1.3-5.6c0.9-3,2.4-8.9,3.3-13.1c1.8-8.2,4-12.8,6.2-12.8c0.8,0,2.4,1,3.7,2.2c2.2,2.1,2.3,2.2,3.4,0.7 C255.7,66.5,252,58.3,246.9,58.3L246.9,58.3z M163.7,69.7c-0.8,0.4-6.9,14.5-7.9,18.6c-2.7,10.5-2.4,20,0.9,23.2 c1.8,1.8,5.7,1.5,7.9-0.7c1.9-1.9,4.4-8.8,4.4-12c0-1.2-0.4-1-1.8,1c-1,1.4-2.2,2.7-3.6,3.8c-1.6,1.1-1.9,1-3.9-1s-2.1-2.4-1.7-8.2 c0.6-5.2,1.7-10.3,3.2-15.3C162.2,75.9,163,72.8,163.7,69.7C163.7,69.6,163.7,69.6,163.7,69.7L163.7,69.7z M394.2,98.4 c-1.3,0.2-2.6,0.9-3.5,1.8c-3.1,2.6-5.2,7.7-7.4,18c-1,4.6-2.1,8.7-2.4,9.1s-0.9-0.7-1.2-2.4c-1.6-8.8-6.5-18.1-10.8-20.6 c-3.9-2.3-5.9-1.7-8.4,2.4c-2.7,4.6-2.1,6.8,2.2,9.3c2.4,1.4,3.3,1.5,4.5,0.8c1.8-1.1,3-0.1,5.1,4.2c2,4.1,6.2,16.4,6.2,18.5 c0,1.1,0.4,1.9,0.9,1.9c1.4,0,3.7-6.4,5.6-15.6c3.3-16.4,6.3-20.9,10.5-16c2.2,2.6,3.7,2.5,4.7,0c1.3-3.5,0.9-5.8-1.7-8.7 C396.7,99.3,395.5,98.4,394.2,98.4L394.2,98.4z M52.7,102.3c-6.5,0-14.3,8.8-14.3,16.1c0,2.5,3.5,6.8,7.6,9.3 c1.5,0.9,1.4,1.2-2.4,4.6c-5.1,4.7-11.6,9.1-29.9,20c-8.1,4.8-14.3,8.9-13.8,9c1.1,0.4,15.5-4.8,22.8-8.3c7.7-3.6,19.3-12.1,24.6-18 l4.4-4.9l2.1,1.9l2.1,1.8l-2.6,8c-2.2,6.7-2.6,9.3-2.6,15.7s0.2,8,1.5,9.4c2,2,5.2,2.2,7.5,0.5c1.7-1.2,4.4-7.3,5.3-12.2l0.5-2.6 l-2.6,3.5c-1.8,2.3-3.4,3.5-4.8,3.7c-1.9,0.2-2.4-0.2-3.5-2.8c-1.7-4.1-0.9-10.5,2.6-20.2c3.3-9.2,3.4-10.8,0.7-13.3 c-2.1-1.9-2.1-2-1.1-7.2c1.1-5.7,0.7-10.9-0.8-12.8C55.1,102.7,53.9,102.3,52.7,102.3L52.7,102.3z M49.1,110.6c1.5,0,2.5,1.1,3,3.2 c0.3,1.4,0.3,2.8,0,4.2l-0.5,2l-3.8-2.4c-4.4-2.8-4.7-4.6-1-6.3C47.5,110.8,48.3,110.6,49.1,110.6L49.1,110.6z M102.1,119.1 c-0.4,0-2.5,3.4-4.6,7.5l-3.7,7.5l7.8,5.6c4.3,3.1,8.3,5.6,8.9,5.5c1.3-0.2,7.9-12.1,8-14.2c0-0.7-1.1-2.1-2.6-3.2 C111,124.3,102.9,119.1,102.1,119.1L102.1,119.1z M277.7,139.7c-0.5,0.1-2,3-4,7.8c-3.6,8.6-4.9,14.3-4.9,22.2 c0,6.7,0.8,9.9,2.7,11.2c1.5,1,4.8,0.7,6.6-0.6s4.4-7.3,5.3-12.3l0.5-2.7l-2.3,3.1c-3.4,4.7-4.5,5.4-6.5,4.4 c-4.6-2.5-4.1-10.3,1.9-30C277.8,140.6,278,139.8,277.7,139.7L277.7,139.7z M172.8,177.4c1.9-0.2,3.8,0.9,5.9,3.2 c4.6,5.1,8.2,13.1,7.8,17.4c-0.1,0.5-2.4,2.7-5.1,4.9c-2.4,1.9-4.9,3.7-7.6,5.3c-2.5,1.3-2.6,1.3-3.9-0.7c-2-3-5.9-14.8-5.9-17.8 c0-3.6,1.3-6.7,4.2-9.7C169.9,178.5,171.4,177.6,172.8,177.4L172.8,177.4z M103.7,178.6c-1,0.3-7,15.4-8.1,20.4 c-1.4,6.7-1.5,15.9-0.2,18.6c0.7,1.3,1.7,2.3,3,3c2.4,1.2,2,1.3,4.7-0.1c2.4-1.2,5.1-6.5,6.1-12l0.6-3.1l-2.7,3.6 c-3.3,4.3-5.6,4.9-7.6,1.8c-2.2-3.4-1.7-10.2,1.7-21.8C102.8,183.3,104,178.7,103.7,178.6C103.8,178.5,103.8,178.5,103.7,178.6 L103.7,178.6z M376.2,192.9c1.1,0,2.1,0,3.2,0.1c5.5,0.9,10.5,3.5,14.4,7.4c4.2,4.4,9.6,13.1,9.3,15s-7.5,5.9-21.2,11.6 c-16.5,6.7-33.8,11.2-51.5,13.6c-10.8,1.3-27.2,2-27.2,1.1c0-1.5,25.1-25.4,32.1-30.7C350.7,199.7,365.6,193.1,376.2,192.9 L376.2,192.9z M382.5,270.5c-0.4-0.1-7.5,2.2-15.8,5.3c-52.6,19.5-65.1,24.1-65.7,24.1s-2,3.1-3.3,7.3c-0.6,2,0.2,1.7,21.5-6.6 c30.3-12,59.2-23,60.2-23S383.4,270.8,382.5,270.5L382.5,270.5z M250,299.9c-0.5,0-1.9,2.4-3.1,5.2s-2.5,5.4-2.8,5.6 s-4.1-1.9-8.4-4.8s-8.1-5-8.6-4.7s-2.4,3.8-4.3,7.8l-3.5,7.3l1.8,1.2c1,0.7,4.6,3.3,8.2,5.8c2.2,1.7,4.6,3.2,7,4.6 c0.3,0,1.9-2.5,3.4-5.6s3.2-5.6,3.7-5.6s3.9,2.2,7.6,4.8s7.2,4.8,7.8,4.8c1.2,0,7.7-11.9,7.7-14.1c0-0.9-1.4-2.6-3.5-4.1 C256.5,303.4,250.9,299.9,250,299.9L250,299.9z"/>
</svg>