<svg xmlns="http://www.w3.org/2000/svg" width="358" height="424.5">
<path d="M252,423.6c-12.5-1.3-24-5.7-31.4-12.1c-7.8-6.6-14.6-19.1-16.7-30.5c-0.6-3-1.2-5.4-1.5-5.4s-12.7,4.8-27.6,10.8 s-27.3,10.6-27.5,10.4c-0.6-0.6,2.6-7.8,3.9-8.5c0.7-0.4,12.4-4.8,26-9.8s24.8-9.5,24.7-10s-0.1-4.4-0.2-8.7l-0.1-7.8l-2,3.4 c-1.1,1.9-2.4,3.4-2.9,3.4s-4.3-2.4-8.6-5.3l-8-5.5c-0.5-0.4,7.4-15.5,8.1-15.5c0.4,0,3.7,2,7.3,4.4s6.8,4.4,7,4.4s0.6-1.7,0.9-3.8 s1.3-6.8,2.2-10.5l1.7-6.7l-1.6-3.3c-2.7-5.5-4-11.4-6.2-28.5c-2.9-23-5-31.1-7.8-30.2c-0.5,0.2-1.9,4.4-3.1,9.3 c-2.5,10.1-6,16.8-10,19.3c-2.1,1.2-4.6,1.7-7,1.5h-4.5v5.4c0,8.3-1.4,24.5-2.5,28.8c-1.8,6.2-4.6,12-8.5,17.2 c-7.4,9.7-47.7,35.8-70.8,45.7c-4.5,1.9-16,5-35.8,9.7c-33.3,7.8-45,10.2-48.4,9.8c-2.2-0.2-1.7-0.6,4.4-3.5 c3.7-1.8,21-9.3,38.4-16.7c35.6-15.2,60.7-27.4,77.2-37.5c18.9-11.7,34.3-24.2,38.4-31.2c1.9-3.1,1.9-3.7,1.2-9.5 c-1.2-9.7-3.2-16.2-8.2-27.1c-2.5-5.5-3.1-7.6-2.7-9.6c1-5,4.5-15.7,5.2-15.7c0.4,0,2,2.5,3.6,5.5c3.2,6.2,5.6,8.1,10.6,8.7 c11.4,1.3,17-5.2,18.9-21.9c1.1-10.1,2.3-12.4,6-11.1c1.7,0.8,3,2.1,3.9,3.8l1.6,2.9l2.9-8.1c3.4-9.4,1.4-8.1,21.1-13.9 c17.9-5.2,25.2-8.1,27.7-10.7c2-2.1,2.1-2.9,2.7-12.3s0.2-18.8-2.1-53.3c-1.8-28-1.9-28.4-3.1-28.2c-1.7,0.4-31.2,11.7-55.9,21.5 c-11.6,4.6-21.2,8.2-21.3,8.1c0.3-1.5,0.7-2.9,1.4-4.3l1.6-4.1l30.9-11.4c47.7-17.7,43.8-15.9,43.7-19.2c-0.2-12.2-2.4-43.8-3.3-48 c-0.6-2.6-1-5.3-1.2-8.1c0-3.2,4.9-16.1,6.3-16.5c0.9-0.3,5.6,11,12.5,30.2c5.9,16.4,5.7,18.6-1,12.3l-4-3.8v3.3 c0,3.2,2.3,36,4,58.1c1.5,18.7,1.8,41,0.9,52.8c-1.5,18.1-3.9,26.8-9.7,35.4l-3.1,4.6l22,0.6c12.1,0.4,22.2,0.5,22.4,0.3 s0-5.5-0.5-11.8c-1.4-18.8-5.6-81.2-6.8-101.8c-0.8-13.3-1.5-20.4-2.5-23.1c-1.3-3.8-1.3-4.1,0.3-8.8c2.3-7,4.8-12.5,5.6-12.5 c1.3,0,16.9,41.4,16.9,45c0,2.3-1.7,1.6-5.9-2.4l-3.9-3.8l0.5,9.6c0.3,5.3,1,16.4,1.7,24.8c1.7,22.7,3.5,47.5,4.8,67.1 c0.6,9.6,1.4,17.8,1.7,18.3s5.4,0.7,16.4,0.3c13.9-0.5,15.9-0.4,15.9,0.6c0,1.6-5.5,16.7-6.4,17.6c-0.4,0.4-6.4,2.2-13.4,4.1 l-12.6,3.4l-0.6,5.8c-1,8.8-3.1,17.4-6.2,25.6c-4,10.4-4.5,9-3.1-8.8c0.4-5,0.5-10,0.3-14.9l-0.5-4.9l-7.9,2.8 c-17.8,6.2-31.1,13.4-42.3,22.7c-7.3,6.1-19.8,19.7-22.7,24.7c-1,1.6,11.2,0.6,18.1-1.5c7.2-2.3,12.8-6.3,24.5-17.3 c6.2-5.8,10.4-9.2,11.2-9c1.1,0.2,1.3,1.1,1.1,6c-0.3,6.5,1.3,11.2,5,14.6c2,1.9,2.9,2,19.9,3c24.6,1.4,28.8,2.5,37,10.1 s11.3,17.9,9.9,33.3c-1.7,18.5-9.3,34.1-23.9,49.2c-14.1,14.6-31.3,24.4-48.5,27.6C271.8,424,258.7,424.4,252,423.6L252,423.6z M277.6,402.7c17.7-2.7,38.3-14,53.3-29.2c12.9-13,16.4-22,12.8-32.9c-1.8-5.4-6.5-10.2-12.8-13.1c-6.9-3.2-10.6-3.8-29.5-4.7 c-13.9-0.6-17-1-19.6-2.3c-5.7-2.9-8.4-7.5-9.5-16.2c-0.4-2.6-0.9-4-1.7-4s-2.8,1.9-4.9,4.2c-9.6,10.9-15.3,15.7-22.3,19.1 c-6,2.9-7.7,3.4-13.8,3.7c-5.1,0.5-10.2-0.1-15-1.8c-1.4-0.4-1.8,0-2.6,2.5c-0.4,1-0.6,2.1-0.8,3.1l7.1,4.7c8.9,5.9,9.1,6.1,8,9.9 c-1.1,3.5-5.8,11.5-7,11.9c-0.4,0.1-3.1-1.4-5.8-3.3l-5-3.6v3.1c0,3,1.3,11.3,1.9,11.9c0.1,0.1,5.1-1.5,11-3.7s10.9-3.8,11-3.6 s-0.3,1.7-1.1,3.5c-1.3,3-1.9,3.3-9.8,6.2c-4.6,1.7-8.6,3.5-8.8,3.9c-1.1,2.8,7.6,15.7,13.9,20.7c12.1,9.4,30.7,13.1,50.6,10 L277.6,402.7z M290.2,374.7c-2-0.7-3.7-1.8-5.1-3.3c-1.8-2.2-2-3-1.7-6.6c0.6-5.9,2.7-9.5,10.5-17.9c3.8-4.1,6.8-7.9,6.8-8.4 c0-1.1-5.8-2.8-9.5-2.8c-1.5,0-3,0.4-4.5,0.9c-2.9,1.3-3.2,0.4-1.2-3.2c2.3-4,4.3-4.9,11.3-4.9c6.1,0,9.9,1.4,10.7,4 c0.9,2.8-2.5,8.5-9,15.4c-9.9,10.5-11.4,12.5-11.4,15c0,1.8,0.6,2.5,2.9,3.7c3.9,1.9,17.3,1.3,26.2-1.2c3.5-0.9,6.5-1.5,6.7-1.3 c0.9,0.9-9.9,7.8-14.5,9.2C302.2,375.1,294.1,375.8,290.2,374.7L290.2,374.7z M259.2,353.2c-3.7-2.7-7.3-5.2-8-5.5 c-1-0.6-0.6-1.9,2.6-8.3c2.1-4.2,4.2-7.6,4.7-7.6c0.9,0,11.8,7.1,14.6,9.5c1,0.9,1.4,2,1.1,3.7c-0.5,3.1-6,13.2-7.2,13.2 C266.4,358.1,262.9,355.9,259.2,353.2L259.2,353.2z M221.7,292.2c10.9-16.6,24.6-29.3,43.1-39.8l7.5-4.3l-20-0.5 c-17.9-0.4-49.5-0.9-50.9-0.8c-0.3,0,0.1,2.7,1,5.9s2.2,11,3.1,17.4c3,20.8,4.8,28.1,7.9,31.5c1.3,1.4,1.4,1.4,2.2,0.1 C216,300.9,218.8,296.7,221.7,292.2L221.7,292.2z M57.3,334.4c-2-2-2.3-4.6-1.9-13.5c0.3-6.2,0.9-9.6,2.6-14.1 c2.4-6.4,5.9-13.9,6.4-13.5c0.2,0.2-0.9,4.3-2.4,9.2c-4.4,14.6-4.6,21.4-0.7,24c2.3,1.5,3.3,1,7-4.1c2.3-3.1,2.3-3.1,1.8-0.8 c-2.3,10.3-4.3,13.5-8.5,13.8C60,335.7,58.5,335.4,57.3,334.4L57.3,334.4z M53.6,245.7c0.6-0.6,7-4.6,14.2-8.8 c16.2-9.5,23.5-14.4,29-19.4l4.2-3.9l-3.6-2.1c-4.6-2.7-5.8-5-5.3-10.2c0.4-4.5,3.2-8.7,7.8-11.8c3.4-2.3,8.4-2.4,9.6-0.2 c1.1,2,1.1,10-0.1,14c-0.9,3.1-0.8,3.2,2,5.5c3.2,2.6,3.4,3.6,1.7,6.8c-2.5,4.6-2.4,4.5-5.4,2.2l-2.8-2.1l-6.3,6.3 c-10,10-20,15.9-38,22.4C53,247.1,51.9,247.3,53.6,245.7L53.6,245.7z M105.6,201.6c0-5.4-1.8-6.9-6-5c-2.9,1.3-2.5,3.5,0.9,5.8 C104.6,205.2,105.5,205,105.6,201.6L105.6,201.6z M158.6,224.4c-1.2-0.6-2.1-1.6-2.6-2.8c-1.2-3.1-0.9-14.5,0.4-20.2 c1-4.4,7.5-19.7,8-19.1c0.1,0.1-1.1,4.5-2.6,9.8c-3.4,11.6-4,20-1.5,22.7c0.7,0.9,1.7,1.5,2.9,1.7c1.5,0,4.1-2.6,5.6-5.5 s1.7-1.6,0.3,3.5c-1.5,5.9-3.2,8.8-5.7,9.9C161.2,225.3,161,225.3,158.6,224.4L158.6,224.4z M213.2,181.9c-4.4-3.1-8.1-5.9-8.2-6.2 c-0.3-0.9,6.9-15.3,7.7-15.3c0.4,0,4.1,2.3,8.2,5c5.4,3.6,7.6,5.6,7.8,6.9c0.3,1.9-4.8,12.9-6.6,14.4 C221.4,187.2,218.7,185.7,213.2,181.9L213.2,181.9z M130.9,139.4c-1-3.9-2.2-7.7-3.8-11.4c-3.1-8-5.6-11.8-6.7-10 c-1,1.6-4.2,0.9-6.8-1.5c-3-2.8-3.1-4.1-0.4-8.6s5.4-4.7,9.8-0.7c3.8,3.4,6.4,8.6,8.6,16.9c1.5,5.7,1.8,6.1,2.3,4 c2.5-11.2,5.5-21.9,6.7-23.6c1.1-1.3,2.3-2.5,3.6-3.6c2-1.5,2.4-1.5,4.3-0.4c3.3,1.8,5.1,5.5,4.6,9.2c-0.7,3.8-2.3,4.3-5,1.7 c-0.8-1-1.9-1.7-3.1-2.2c-2.7,0-4.9,5.8-8.6,22.8c-1.3,6-3.3,10.8-4.5,10.8C131.6,142.8,131.1,141.3,130.9,139.4L130.9,139.4z M201,92.7c-2-2-2.1-2.2-1.7-11.4c0.3-7.2,0.9-10.7,2.4-14.9c2-5.7,7.5-16.8,6.5-13.2c-0.3,1.1-1.6,5.6-2.9,10 c-3.1,10.6-3.6,16-2,19.8c2.1,4.9,5.4,3.9,9.9-3.1c0.8-1.3,0.9-1.1,0.5,1.3c-0.8,4.9-3.5,11.2-5.3,12.4 C205.9,95.4,203.3,95.1,201,92.7L201,92.7z M272,64.2c0.3-1.5,0.8-2.9,1.5-4.2l1.5-3.2l40.4-15c22.2-8.2,40.8-15,41.3-15 c1.2,0,1.1,0.2-0.5,3.6c-1,2.2-2.2,3.2-5.4,4.3c-13.6,5.1-48.1,18.5-61.9,24c-8.9,3.6-16.4,6.5-16.6,6.5S272,64.7,272,64.2L272,64.2 z M215.6,41.4c1.8-1.3,9.3-5.7,16.8-9.8c17.3-9.4,18.5-10.3,17-11.7c-1.7-1.7-15-2.9-26.8-2.4c-8.3,0.4-10.6,0.2-10.6-0.6 c0-1.9,7.6-13.6,9.9-15.2c2.2-1.6,3.3-1.7,20-1.7s18,0.1,21.5,1.8c3.2,1.5,3.8,2.1,3.8,4c0,4.5-14.6,23.4-21.1,27.3 c-3.3,2-21.4,7.8-31.3,10.1C212.4,43.7,212.4,43.6,215.6,41.4L215.6,41.4z"/>
</svg>