<svg xmlns="http://www.w3.org/2000/svg" width="445" height="416">
<path d="M104.8,414.9c2-1.1,4.1-2.1,6.2-2.9c14.2-5.8,37.1-16.6,43.5-20.6c11.5-7,15.2-10.5,19.6-18.3c2.4-4.2,4.6-7.2,5.7-7.6 s1.8-1,1.8-1.4c0.5-1.2,1.2-2.3,2.1-3.2c2.9-3.4,6.8-3.4,10,0c2.6,2.8,3.5,6.5,2.9,11.9c-1.2,10.2-5.4,11.2-15.2,3.8 c-1.2-1.1-2.6-2-4-2.7c-6.1,12.9-9.4,16.9-19.6,23.8s-16.8,9.6-31.7,13.2C111.5,414.2,104.8,415.5,104.8,414.9L104.8,414.9z M193.6,372.9c0-1.7-3.8-6.1-5.5-6.4s-4.1,1-4.1,2.3c0,0.3,1.5,1.5,3.4,2.7C190.8,373.5,193.6,374.2,193.6,372.9L193.6,372.9z M55.9,409.6c-9.4-1.8-17.9-11.6-20.4-23.4c-2.8-13,1.5-31.6,12-52.6c3.7-7.4,3.8-7.6,4-16.4c0.2-7.4,0.7-10.2,2.8-16.5l2.5-7.6 l-2.2-1.8l-2.1-1.8l-4.6,5c-5.7,6.2-16.8,14.2-25.1,18.1c-7.6,3.5-22.8,9-22.8,8.2c0-0.3,6-4.2,13.4-8.6s16.5-10,20.2-12.5 c6.7-4.4,14.4-10.8,14.4-11.8c0-0.3-1.4-1.4-3.1-2.5c-5.5-3.4-6.9-7.7-4.5-13.5c3.2-7.6,13.1-13.3,16.3-9.4 c1.6,1.9,1.9,7.1,0.8,12.8c-1,5.2-1,5.3,1.1,7.5c1.1,1,1.8,2.3,2.1,3.8c0,0.9-1.2,5-2.7,9.2c-4.4,12.3-4.7,20.4-0.9,22.9 c2.4,1.5,4.2,0.5,7.2-4c2-3.1,2.1-3.1,1.6-0.9c-1.4,6.4-2.1,8.4-3.8,10.9s-2.2,2.7-5.5,2.7h-3.6l-4.6,13.2 c-10.3,29.5-11.3,38.6-5.5,47.5c2.7,3.7,6.9,6,11.5,6.1c3.8,0,10.1-2.3,15.5-5.6c2.5-1.5,12.3-9.7,21.9-18.2 c19.1-17,33.7-28.7,44.4-35.7c8.1-5.3,20.5-11.3,24.9-12.1c3.4-0.6,3.1-1.3-1.3-2.7c-1.7-0.5-3.2-1.4-3.4-1.9 c-0.6-1.4,5.2-15.1,6.9-16.7c0.9-0.8,6.3-2.8,12.1-4.7c12.8-4,18.4-6.5,21-9.1c1.8-1.8,2-2.7,2-7.9c0-6.3-2.4-18.2-6.6-33.4 c-3.3-11.7-3.5-21.7-0.6-29c1-2.5,2.1-4.6,2.4-4.6c1.1,0,6.4,13.4,8.5,21.9c1.1,4.4,3.3,14.4,4.8,22.1c4.5,22.8,7.5,31,14.1,38.2 c4.3,4.6,8.9,6.7,14.9,6.7s14.5-2.9,18.3-6.1l3-2.6l-0.1-21.9c-0.2-29.7-2.2-91.3-4.3-129.1c-1.4-24.9-4.4-52.3-7-64.2 c-0.6-2.5-0.4-5.5,0.8-11.9c1.7-9.6,2.8-12.6,4-10.5c1.6,2.8,5.5,20.1,7,31c3.1,22.3,4.1,35.7,6.5,89.2c1.5,33.4,3.9,52.1,8.1,61.8 c1.9,4.3,7,9.9,13.3,14.4c4.8,3.4,18.8,9.9,21.4,9.9c0.7,0,2.8-2.2,4.6-5s7.7-9.3,13-14.6c9.6-9.7,20.7-17.8,32.8-24.2l5.7-2.9 l-22.8-0.6c-12.5-0.3-29.1-0.9-36.8-1.2c-16.3-0.7-15.1,0.6-10.7-11.9l2.8-8.1l4.5-1.6c2.5-0.9,9-2.9,14.5-4.5 c16.6-4.9,25.8-8.4,28.1-10.9c2-2.1,2.2-3,2.7-11.7c0.7-11.1,0-24.9-4-83.9c-0.7-9.7-1.7-26.2-2.3-36.8c-0.8-14.2-1.5-20.1-2.5-22.7 c-1.4-3.4-1.3-3.5,0.8-10c2.5-7.4,4.1-10.9,5.1-10.9c0.4,0,1.2,1.4,2,3c4,9.2,14.1,36.7,14.2,38.5c0,0.8,0.6,0.3,1.3-1.2 c1.2-2.3,2.7-3.1,21.8-10.1c51.6-19.2,61.9-23,62.2-22.6s-0.4,1.8-1.3,3.6c-1.4,2.7-2.4,3.5-6.1,4.9c-13.5,5.1-43.9,16.8-59.8,23.2 c-10,4-18.4,7.3-18.6,7.3c-1.5-1.1-3-2.4-4.4-3.7l-4-3.7v2.7c0,1.5,0.5,9.5,1.2,17.9c7,90.1,5.9,111.9-6.8,130.5l-2.2,3.3l22.9,0.6 c12.6,0.3,23,0.4,23.1,0.3s-1.1-20.2-2.8-44.6s-3.5-51.6-3.9-60.4c-1-19.6-1.5-23.7-2.9-27.8c-1-2.9-1-3.6,0.8-8.9 c2.7-7.8,4.4-11.7,5.1-11.7s1.7,1.9,8.5,19.6c8,20.8,9.7,26.8,7.6,26.8c-0.5,0-2.7-1.7-4.9-3.8l-4-3.8l0.5,8.8 c0.3,4.8,1.1,15.6,1.7,24s1.9,25.8,2.8,38.8c2.9,40.3,3,42.5,3.6,43.1c0.3,0.3,7,0.4,14.8,0.3s14.4,0.1,14.7,0.4 c0.4,0.6-5,17.3-6,18.2c-3.8,1.4-7.7,2.5-11.6,3.5l-11.1,3l-1,9.2c-0.6,5.2-1.5,10.5-2.6,15.6c-2.8,11.1-8,22.6-8,17.6 c0-0.7,0.4-6.5,0.9-13c0.5-6.3,0.6-12.7,0.3-19.1l-0.5-7.3l-3.7,1.2c-26.1,8.5-47.9,20.3-61.7,33.5c-3.5,3.4-6.3,6.3-6.1,6.5 c1.1,1.1,14.7,2,44.2,2.6c33.9,0.8,44.6,1.5,53.5,3.7c9.6,2.4,16.5,8.2,21.1,17.8c2.9,6,2.9,6.4,3.2,17c0.2,8.9,0,12.1-1.4,18 c-6.7,28.6-34.6,56.5-65.2,65.3c-5.7,1.6-8.1,1.8-21.2,1.8c-11.7,0-15.9-0.3-20-1.5c-27.7-7.6-40.7-31-38.9-70.1 c0.6-12.4,1.4-18,4.2-29.2c1.1-4.4,2.1-8.5,2.2-9.1s-1.6-1.7-4.1-2.5c-10.7-3.7-22.3-12.1-28-20.4l-1.7-2.4l-0.1,12.1 c-0.1,24.9-4,38.7-13.1,47.6c-5.6,5.4-10.3,7.4-17.8,7.4c-5.4,0-7.1-0.3-11-2.2c-8.1-4-15.3-14.4-18.9-27.4c-0.9-3.1-1.8-5.1-2-4.4 s-0.9,2.6-1.4,4.4c-1.6,5.4-5.4,12.2-8.5,15.3c-2.8,2.8-2.9,3-1.4,4.1c0.9,0.6,4.7,3.7,8.5,6.8c8.7,7.1,9.3,8.6,7.4,17.3 c-1.1,5.1-2.8,9.9-4,11.2c-0.1,0.1-2.7-1-5.8-2.5c-11.4-5.7-24.5-6.6-36.6-2.7c-16.9,5.9-28.9,14-60.8,41.3 c-21,18-28.6,23.5-35.2,25.8C60.9,410.5,60.2,410.5,55.9,409.6L55.9,409.6z M374.4,368c24.6-7.1,49.7-25.5,58.1-42.4 c5.6-11.4,1.7-24-10.1-32.2c-9-6.3-18-7.5-62-8.6c-26.5-0.6-38.1-1.5-49.4-3.6l-2.8-0.5l-2,5.1c-1.7,4.5-3.1,9.2-4.3,13.9 c-2,7.7-2.3,10.2-2.2,20.4c0,12.8,1.1,18.5,5.1,26.3c6.1,12.1,16.8,19.3,34.1,22.9C347.3,370.9,366.6,370.3,374.4,368L374.4,368z M343.4,346.4c-7.9-1.8-10.3-8-6.3-16.4c1-2.2,5.1-7.6,9.2-12s7-8.3,6.7-8.6c-1.5-1.5-9.7-2.5-13.1-1.6c-1.2,0.4-2.4,0.6-3.7,0.6 c-0.7-0.7,3.5-6.7,5.2-7.5c1.1-0.5,4.8-0.9,8.3-0.9c5.7,0,6.6,0.2,8.4,2c0.9,0.8,1.6,1.8,1.9,3c0,2.9-3.8,8.5-9.8,14.8 c-9.4,9.8-11,12-11,14.6c0,1.8,0.6,2.5,2.9,3.6c3.9,1.9,16.4,1.3,25.8-1.1c3.7-1,6.9-1.6,7-1.4c0.4,0.4-4.6,4.4-8.5,6.7 C360.9,345.4,348.8,347.7,343.4,346.4L343.4,346.4z M53,277.2c1.1-5.5-1.7-8.5-5.8-6.4c-3.2,1.6-2.8,3.3,1.2,6.1 S52.5,279.7,53,277.2z M195.9,406.4c0.6-1.7,1.3-3.3,2.2-4.8c1.1-1,81.9-30.6,82.3-30.2c0.9,0.9-2.9,6.9-4.7,7.4 c-4.5,1.4-72.6,27.9-80.4,31.3C194.6,410.4,194.8,409.3,195.9,406.4L195.9,406.4z M224,359.1c-3.7-2.6-7.3-5.1-8-5.5 c-1-0.6-0.6-1.9,2.6-8.3c2.1-4.2,4.2-7.6,4.7-7.6c1.1,0,11.7,6.8,14.1,9l1.8,1.6l2.9-5.7c1.9-3.8,3.3-5.7,4.2-5.7 c1.7,0,14.5,8.6,15.7,10.5c0.6,1,0.2,2.7-2.1,7.2c-4.9,10-4,9.7-12.8,3.6c-4.2-2.9-7.9-5.3-8.1-5.3s-1.7,2.5-3.4,5.6 s-3.4,5.6-3.8,5.5S227.7,361.7,224,359.1L224,359.1z M268,341.9c0.7-0.8,3.1-3.6,5.3-6.2c5.4-6.2,7.8-10.8,7.1-13.6 s-3.8-3.6-6.5-1.8c-1.9,1.2-2,1.2-2-0.3c0-2.7,2.1-6.9,4.1-8.3c2.3-1.6,5.4-1.7,7.7-0.1c1.5,1,1.8,2,1.8,5.6c0,5.4-2.6,11.1-7.8,17 C274.4,338.2,265.3,345.3,268,341.9L268,341.9z M124.3,222.6c-0.7-4-4.8-14.9-6.9-18.8c-1.7-3-3.2-3.8-4.2-2.2 c-1.3,2.1-8.4-2.9-8.4-5.9c0-2.7,3.9-8.5,5.7-8.5c6.4,0,12.2,8.9,15.5,23.5c0.7,3.1,1.2,2.4,2.5-4c3.4-16.4,6.8-23.5,11.6-23.5 c5.6,0,9.2,9.4,5,12.9c-0.9,0.8-1.5,0.5-2.9-1.3c-2.5-3.1-5.3-2.6-7.1,1.2c-0.8,1.6-2.5,7.7-3.8,13.6 C127.8,224.9,125.5,229.2,124.3,222.6L124.3,222.6z M221.6,222.4c-4.5-4.5-2.7-20.1,4-35c1.3-2.9,2.6-5.1,2.9-4.9s-0.3,2.7-1.2,5.5 c-4.7,14.5-5.4,22.3-2.2,26c1.9,2.2,1.9,2.2,4,0.8c1.5-1.1,2.8-2.5,3.8-4l1.6-2.6l-0.5,3.2c-0.8,4.5-3.6,10.7-5.3,11.6 C226.4,224.4,223.6,224.1,221.6,222.4L221.6,222.4z M298.4,168c-1-1.1-1.7-2.3-2.1-3.7c-1-4,0.3-16.5,2.3-22.3 c2.2-6.4,6.2-15,6.7-14.5c0.2,0.2-0.6,3.2-1.7,6.6c-5.6,17.2-5.3,26.7,0.9,26.7c1.4,0,2.6-1,4.4-3.8l2.5-3.8l-0.5,2.8 c-1.7,9-4.7,13.6-8.9,13.6C300.6,169.5,299.4,168.9,298.4,168L298.4,168z M181.9,130.4c-2.9-1.2-3.8-4.8-3.3-13.8s2.4-15.7,6.9-24.2 c1.4-2.6,2.4-4.2,2.2-3.5c-4.9,16.8-5.6,20-5.7,24.8c0,5.6,1.5,8.7,4.4,8.7c1.5,0,4.1-2.6,5.6-5.5s1.7-1.6,0.4,3.4 c-1.5,5.8-3.3,8.8-5.7,10C184.4,131.4,184.2,131.4,181.9,130.4L181.9,130.4z M279.3,96.1c1.1-0.8,5.7-3.6,10.3-6.1 c21-11.6,24.4-13.6,24.4-14.8c0-2.2-6.6-3.1-22.6-3.1c-8.5,0-15.4-0.3-15.4-0.6c1.1-2.3,2.3-4.6,3.7-6.8 c6.3-10.8,7.9-11.4,27.9-10.8c21.8,0.6,26.4,2.6,22.9,9.8c-2.1,4.4-8.7,13.3-13.5,18.3c-6,6.3-9,7.7-27.7,13 C278.2,98,276.6,98.2,279.3,96.1L279.3,96.1z M217.6,55c0.6-1.6,1.3-3.2,2.2-4.7c1.1-1,81.8-30.6,82.3-30.2c0.2,0.2-0.3,1.8-1.1,3.5 c-1.5,3-2,3.2-16.3,8.6c-11.9,4.5-43.4,16.8-64.9,25.3l-3.8,1.6L217.6,55z"/>
</svg>