<svg xmlns="http://www.w3.org/2000/svg" width="460" height="432">
<path d="M291.5,430.9c-31.7-2.6-48.1-20.9-50.7-56.2c-1.1-15.8,0.4-31.6,4.4-46.9c1.1-4.1,1.7-7.8,1.4-8.1c-1.5-0.8-3.1-1.4-4.7-1.9 c-5-1.6-15.1-7.3-21-11.9c-6.6-5.1-13.4-15-14.9-21.8c-0.4-1.6-1.6-3-3.7-4.4c-3.9-2.4-4-3.5-0.4-2.8l2.8,0.5v-6 c0.2-8.6,1.6-17.2,4.1-25.4c2-5.2,4.2-10.3,6.8-15.2c5-9.8,5-10,3.3-10.7c-22-9.1-32.4-17.9-42.2-36.1c-7-12.9-8-13.2-15.9-5.3 c-10.1,10.1-12.4,18.5-6.9,25.4l1.7,2.2l6.7-1.7c8-2,18.2-2.3,21.6-0.5s7.8,7.3,9.4,11.9c1,3,1.4,6.5,1.4,12.9 c0,7.8-0.2,9.3-2.1,13.3c-2.8,6-6.6,8.9-12.4,9.4c-3.7,0.3-5.1,0-9.6-2.2c-6.3-3.1-13.1-9.7-17.1-16.7c-1.5-2.7-3.2-4.9-3.7-4.9 c-1.9,0-14.2,6.7-22.9,12.6c-5.1,3.4-15.8,11.6-23.8,18.2l-19.8,16.3c-11.1,9-22.6,12.5-31.1,9.3c-4.4-1.7-10.5-7.2-13.3-11.9 c-8.4-14.3-5.3-36.5,8.9-64.9c3.3-6.6,3.6-7.7,3.8-14c0.1-5,1-9.9,2.7-14.5c1-2.8,1.8-5.7,2.5-8.6c0-0.5-0.9-1.5-2-2.2 c-2-1.3-2-1.3-7.4,4.2c-5.7,5.8-17.6,14.4-23.9,17.2c-5.4,2.4-22,8.6-23,8.6c-1.7,0,2-2.5,16.7-11.2c15.6-9.2,22.2-13.7,28.2-19 l3.5-3l-3.7-2.6c-2-1.4-3.6-3.2-4.8-5.2c-2.1-5.1,1.1-12.3,7.4-16.5c7-4.7,10.6-2.6,10.6,5.9c0,2.7-0.3,5.3-0.9,7.9 c-0.8,2.9-0.7,3.3,1.3,5.1c1.8,1.7,2.1,2.5,1.8,5.3c-0.7,3.4-1.6,6.8-2.9,10.1c-3.2,8.6-3.5,17.4-0.9,20c2.3,2.3,3.8,1.7,7-2.4 l2.7-3.5l-0.6,3.1c-0.8,4.6-3.6,10.7-5.2,11.6c-2.2,1.1-6,0.9-7.1-0.4c-0.8-1-2.1,2.1-7.2,17.4c-6.7,20-8.4,28.3-7.1,35.2 c2.1,11,9.2,15.5,21,13c8-1.7,13.3-5,26.2-16.2c23.4-20.3,37.1-30.3,52-38c6.3-3.2,8-4.4,7.6-5.4c-0.5-2.7-0.9-5.4-0.9-8.1 c-1.2-21.2,14.9-48.9,27.6-47.8c3.2,0.3,4.1,1.4,13.8,17.6c9.9,16.5,25.9,28.9,39.6,30.8l3.4,0.5l8.1-10.1c5.5-6.8,8.4-11.2,9-13.5 c1.4-4.9,0.5-33-2-64.6c-1.1-14.3-2.6-33.2-3.3-42s-1.6-22.7-1.9-30.8c-0.5-9.9-1.1-16-2-18.4c-0.6-1.7-1.1-3.5-1.3-5.4 c0-2.1,4.4-14.7,6-16.7c1-1.4,1.2-1.2,2.7,2.3c0.9,2.1,4.4,11,7.7,19.8c8.4,22.4,8.8,27.4,1.6,20c-1.7-1.8-3.4-2.9-3.7-2.6 s-0.1,6.4,0.6,13.4c5.7,65.1,6.1,70.3,5.6,84c-0.2,7.5-1.2,18.6-2.1,24.8s-1.6,11.3-1.6,11.4s4.3-3.6,9.5-8.3 c13.5-12.1,23.9-19.7,34.1-24.8c10.8-5.4,17.2-7.1,24.8-6.6c9.1,0.6,15.2,4.6,21.5,14.1c5.2,7.9,6.4,11.8,6,18.7 c-0.6,9.5-6.6,20.8-14.4,27.1c-13,10.5-39.2,20.7-66.2,25.5c-10.4,1.9-33.7,2.9-40.9,1.8l-4.4-0.7l-4.2,10.8 c-7.4,19-8.5,25.2-6.2,35s4.7,11.7,10.3,8.2c3.8-2.3,5.6-5.3,8.4-13.6c3.1-9.3,3.2-12.2,0.6-14.8c-1.7-1.7-2.3-1.8-4.2-1.1 c-1.3,0.5-2.5,1.2-3.6,2.1c-1.3,1.2-1.4,1.1-1.4-1.5c0-7.6,8.9-12.5,13.6-7.5c1.7,1.8,1.9,2.8,1.9,7.8c0,5.5-0.5,7-4.8,17.7 c-0.5,1.1,0.4,0.8,3-1.4c6.7-5.5,12.5-6.7,17.3-3.8c3.3,2,3.4,5,0.5,10.5c-3.3,6.1-13.1,11.6-25.1,14.2l-6.6,1.4l5.5,4.1 c6.8,4.9,14.2,8.8,22.1,11.7l5.3,2l2.4-4.2c3.4-6,11.1-15.4,19.8-24l7.5-7.4l-2.6-2.4c-4.1-4-13.2-10.5-17.6-12.7 c-5.5-2.8-8.6-2.6-15.2,0.8c-3,1.6-5.7,2.9-5.9,2.9c-1.9,0,3.8-18.7,6.6-21.8c4-4.2,20.6-9.6,34.1-11.1c20-2.1,49.5,4.3,56.2,12.3 c2.5,3,2.3,5-1.4,13.2l-2.6,5.9l-11.7,5.9c-15,7.6-14.5,7.2-12.5,8.8c6.2,4.9,19.6,9.2,28.4,9.2c6.2,0.2,12.2-1.7,17.3-5.2 c3.7-2.6,4.3-3.3,5.1-6.9c1.5-7,0.9-20.9-3.6-82.3c-2.5-33.5-4.4-63.8-4.4-69.6c-0.1-3.6-0.5-7.3-1.3-10.8c-0.7-2.5-1.1-5-1.3-7.6 c0-3,5.1-16.1,6.4-16.6c1-0.3,1.6,1.1,9.4,21.8c9.4,24.8,9.7,28.8,1.7,20.7l-3.7-3.7v2.8c0,1.6,0.5,10.4,1.2,19.5l2.4,33.1 c4.9,66.7,4.8,80.6-0.8,98.1c-3.7,11.8-11.3,22-18.6,25.2c-2.9,1.3-5.2,1.6-10,1.5c-13.8-0.3-25.7-5-40.2-15.9 c-3.1-2.3-6-4.2-6.4-4.2s-4,2.5-8.1,5.7c-7.8,6-20.5,18.8-20,20.3s7.3,2,41.8,2.8c46.5,1.2,56.3,2.4,65,8c11,7.1,16,18.8,15.1,35.3 c-1.1,19.8-8.6,35.8-24.3,52.1c-12.5,12.9-27.5,22.3-41.8,26.1c-5.9,1.6-17.9,3.4-21.2,3.2C299.4,431.5,295.5,431.2,291.5,430.9 L291.5,430.9z M323.5,408.2c15.9-4.9,30.5-13.3,42.6-24.8c12-11.5,17.6-21.5,16.6-29.2c-0.8-5.8-4.8-13.1-9.3-17.1 c-5.4-4.8-11.2-7.5-19.1-8.9c-8.2-1.4-33.2-2.7-53.2-2.8c-14.3,0-30.5-1.3-40.4-3.2c-5.5-1-5.6-1-9.2,10.8s-4.6,17.5-4.6,28.2 c0,23.5,10.1,39.7,28.5,45.8c10.3,3.4,14.7,4,28.1,3.7C314.6,410.3,317.3,410,323.5,408.2L323.5,408.2z M294.3,387.9 c-1.2-0.7-2.4-1.5-3.4-2.5c-2-1.8-2.2-2.6-2.2-7.1c0-5.8,1.8-11.1,5.5-16.6c2.8-4.1,3.1-5.2,1.4-5.2c-0.6,0-2.2-1-3.6-2.3 c-4.7-4.4-2.8-11.1,5.5-19.4c5.2-5.2,8.4-6.5,10.1-4.2c1.5,2.1,1.3,4.3-0.6,7.5l-1.6,2.7l-1.9-1.8c-1.8-1.7-2-1.8-3.9-0.5 c-1.3,0.9-2.5,2.1-3.4,3.4c-1.3,2-1.3,2.1,0.8,4c4.7,4.1,8.2,3.5,14.5-2.2c2.5-2.3,4.7-3.9,5-3.6c0.7,0.7-0.4,5.5-1.9,8.3 c-0.8,1.4-3.5,4.2-6.1,6.1c-5.5,4.2-12.4,12-14.9,16.8c-2.1,4-1.7,7.1,1,8.7c3,1.7,17.4,1.2,25.3-0.9c3.7-1,7.1-1.6,7.6-1.5 c1.1,0.4-4.9,4.8-9.9,7.4c-2.5,1.2-5.1,2.1-7.8,2.7C305.3,388.6,296.5,388.8,294.3,387.9L294.3,387.9z M239.7,272 c7.4-3,9.2-4.2,8.1-5.6c-2.3-2.8-9-0.4-15.1,5.3l-3.6,3.3l2.6-0.4C234.5,273.9,237.1,273.1,239.7,272z M313.1,246.9 c-1.1-1.7-9-3.1-17.5-3.1c-10.8,0-12,0.6-7.9,3.4c2.4,1.7,4.8,3.6,7,5.6l4,3.5l7.5-4.3C310.2,249.5,313.3,247.2,313.1,246.9 L313.1,246.9z M183.2,230.9c0.8-0.3,1.3-1,1.6-1.9c0-1.2-2.8-3.9-5.6-5.4c-2-1.1-12.5-1.3-13.5-0.3c-0.3,0.3,1,1.9,2.9,3.6 C173.1,230.9,179.7,232.7,183.2,230.9L183.2,230.9z M265.5,200.8c21.9-2.8,43.3-9.2,63.1-19c9.4-4.7,9.6-5,6.9-10 c-3.6-6.7-9.2-12.9-14-15.6c-4-2.2-5-2.5-11.2-2.4c-13.7,0.1-29.3,7.6-47.8,23.1c-7.2,6-25.8,24.5-25.8,25.6 C236.7,203.3,253.9,202.3,265.5,200.8L265.5,200.8z M53.5,152.4c0-5.1-3.1-7-7-4.3c-2.3,1.6-1.6,3.1,2.4,5.5 C52.7,155.9,53.5,155.7,53.5,152.4L53.5,152.4z M151.9,362.8c0.3-1.5,0.7-3,1.3-4.4l1.3-3.3l38.6-14.3c42.7-15.8,44-16.3,44.4-16 s-2.2,5.8-3.2,6.6c-0.6,0.4-8,3.4-16.6,6.7c-12.7,4.8-60.9,23.7-64.6,25.3c-0.3,0.2-0.7,0.1-0.9-0.2 C152,363.1,151.9,363,151.9,362.8L151.9,362.8z M402.3,349.7c0-1.3,0.4-6.9,0.8-12.4c0.6-7.4,0.5-15.4-0.4-31.2 c-1.1-19-2-32.6-6.4-96c-0.7-9.9-1.8-26.6-2.4-37.2c-0.8-13.1-1.5-20.4-2.4-22.9c-1.3-3.6-1.2-3.9,0.9-10c1-3.1,2.2-6.1,3.5-9 l1.4-2.8l1.2,2.4c1.7,3.4,12.9,32.5,14.5,37.8c2.5,8.4,1.6,9.1-4.3,3.6l-4-3.7v2.9c0,2.8,1.1,18.3,4.8,68.9 c4.6,63.2,4.8,72.6,1.6,88.5c-1.7,8.5-5.8,20.2-7.7,22.2C402.4,351.9,402.3,351.8,402.3,349.7L402.3,349.7z M53.6,332.1 c1.1-0.6,4.7-2.2,8-3.5c11.1-4.4,35.1-15.9,41.1-19.7c9.1-5.7,14.3-10.9,18.6-18.5c2.5-4.4,4.2-6.7,5.1-6.7c0.9-0.1,1.6-0.7,1.9-1.5 c0.8-2.5,4.5-5.7,6.6-5.7c5.1,0,8.2,4.7,8.2,12.1c0,12.2-5.4,14.2-15.7,5.8l-3.3-2.7l-2.8,5.9c-4.4,9.4-14,17.6-29.1,25.2 c-6.2,3.1-16.9,6.1-33.5,9.4C51.8,333.6,50.9,333.6,53.6,332.1L53.6,332.1z M139.9,290.6c0-0.5-1-2.2-2.3-3.7 c-2.1-2.5-2.5-2.7-4.5-2c-3.5,1.2-3.2,2.5,1.3,5.1C138.6,292.4,139.9,292.5,139.9,290.6L139.9,290.6z M159.6,302.1 c-4.4-3.1-8.1-5.7-8.2-5.8c-0.5-0.5,7-15.7,7.8-15.7c0.4,0,4.2,2.3,8.5,5.2s7.8,5.2,7.9,5.2s1.3-2.5,2.8-5.6s3-5.6,3.4-5.6 c1.2,0,4,1.7,10.5,6.3c7.3,5.2,7.3,5.5,2.4,14.2c-3.2,5.8-4.5,6.7-6.5,4.8c-0.8-0.7-4.1-3.1-7.3-5.3l-6-4l-3.2,6 c-1.8,3.3-3.4,6-3.6,5.9S163.9,305.2,159.6,302.1L159.6,302.1z M110,177.3c-0.7-10.2-1.5-15.9-4.6-31.8c-1.1-5.2-1.8-10.4-2.3-15.6 c0-6.9,4.3-12.5,10.6-13.9c2.2-0.5,2.2-0.6,0.9-2c-1.9-2.1-3.5-1.9-6.5,1l-2.6,2.6v-2c0-3.4,2.2-9.6,4.1-11.6l1.8-1.9l-2.2-6.6 c-1.3-3.8-2.8-7.6-4.6-11.2c-2.3-4.6-2.3-4.6-5.3-4.1c-2.5,0.4-3.4,0.1-5.6-1.7c-3-2.5-3.2-4.4-0.7-8.8s5.6-4.7,9.6-1.3 c3.4,3,7.3,10.2,8.6,16.1s2.2,7.4,2.7,4.8c2-9.9,5-20.2,6.5-22.9c2.5-4.3,5.9-5.8,8.8-4c1.4,1,2.5,2.3,3.3,3.8 c1.1,2.1,1.1,3,0.4,5.6c-1.1,3.6-2,3.8-5,0.9c-1.8-1.7-2.6-2-3.6-1.3c-2.5,1.6-4.2,5.7-6.2,15c-1.1,5.1-2.4,10.7-3.1,12.4l-1.1,3.2 l3.6,1.8c4.4,2.2,9.6,7.1,10.2,9.7c0.3,1.2-0.1,3.2-1.2,5.2c-1.5,2.8-2.2,3.4-6.3,4.5c-6.9,1.9-11.2,3.6-13,5.1l-1.6,1.3l1.9,7 c3.1,10.7,4.6,21.8,4.6,33c0,5.7-0.3,11.7-0.7,13.2C110.7,185.3,110.5,184.4,110,177.3L110,177.3z M201.6,144 c-1.4-1.8-1.7-3.2-1.7-9.1c0-4.3,0.5-8.7,1.5-12.9c1.5-5.7,7-18.9,7.6-18.2c0.2,0.2-0.9,4.5-2.4,9.7c-1.3,4.4-2.4,8.8-3.2,13.3 c-0.9,6.6,2,12.2,5.6,10.9c0.7-0.3,2.4-2.1,3.7-4.2c2.2-3.3,2.4-3.5,1.9-1.3c-2.3,10.3-4.3,13.5-8.5,13.8 C203.9,146.1,203,145.7,201.6,144L201.6,144z M374.3,131.5c0.6-1.7,1.3-3.3,2.2-4.8c0.8-0.7,80.5-30.3,81.8-30.3s1.1,0.7-0.6,3.9 c-1.3,2.5-2.8,3.2-25,11.7c-23.1,8.9-51,19.8-56.9,22.4l-3,1.3L374.3,131.5z M299.9,114.1c1.1-0.8,5.4-3.4,9.6-5.7 c25.1-13.8,25.9-14.3,24.2-16c-1.5-1.5-8-2.2-22.8-2.2c-9.9,0-14.2-0.3-14.2-0.9s1.8-3.8,4-7.4c5.3-8.8,6.8-9.5,20.5-9.9 c18.5-0.6,30,1.8,30.6,6.2c0.4,3.7-11.3,20-18.4,25.6c-3.8,3-12.6,6.4-27.1,10.3C298.8,116.1,297.4,116.1,299.9,114.1L299.9,114.1z M280.7,108.4c-4.2-3-7.7-5.8-7.8-6.3c-0.3-0.9,6.8-15.3,7.5-15.3c0.5,0,12.6,8,15,9.9c1.1,0.9,1.4,1.8,1,3.8 c-0.6,3-6.1,12.8-7.3,13.1C288.7,113.8,284.9,111.4,280.7,108.4L280.7,108.4z M255.1,67.6c0.3-1.5,0.7-3,1.3-4.4l1.3-3.3l10.9-4 c6-2.2,23.7-8.8,39.3-14.6c35.1-13,33-12.4,32.4-10.1c-0.7,2.4-2.7,5.4-3.8,5.8c-6.4,2.2-73.9,28.5-80.4,31.3 c-0.3,0.2-0.7,0.1-0.9-0.2C255.1,67.9,255.1,67.8,255.1,67.6L255.1,67.6z M192,49.4c-1.1-1.3-1.8-2.9-2.1-4.5 c-0.8-4.1,0.1-14.2,1.7-19.5c1.4-4.8,6.8-17,7.3-16.5c0.2,0.2-1,4.8-2.6,10.2c-1.9,6.4-2.9,11.7-3,15c-0.1,4.6,0.1,5.3,2.1,7 c2.7,2.3,4.6,1.6,7-2.6c2.1-3.5,2.5-3.5,1.8,0.3C202.4,48.7,196.4,53.8,192,49.4L192,49.4z"/>
</svg>