<svg xmlns="http://www.w3.org/2000/svg" width="455" height="353">
<path d="M352.3,0c-0.8,0-6.5,14.9-6.5,17.1c0.2,2.3,0.6,4.5,1.2,6.7c0.9,5.1,1.5,10.3,1.6,15.5c0.6,13.4,2.4,41.4,4,63.2 c4.4,60.1,5.3,81.1,3.5,86.5c-0.5,1.6-1.4,3-2.6,4.2c-2.8,2.4-10.9,6.1-14.6,6.6l-4.3,0.5l0,0l-4.5-0.6c-9.4-1.1-25.5-7.8-25.2-10.4 c0.1-0.4,5.5-3.5,12.2-6.8l12.1-6l2.8-5.8c5.4-11.2,4.7-13.6-5.5-18.6c-21.9-10.6-56-10.5-77.4,0.2l-6.8,3.4l-2.9,8.8 c-3,9-3.6,12.4-2.3,12.4c2.3-0.8,4.5-1.7,6.6-2.8c3.2-1.5,6.6-2.8,7.6-2.8c4,0,17.8,8.8,24.2,15.4l2.7,2.8l-3.4,2.6 c-6.8,5.4-24.1,26.4-25.7,31.2c-0.3,0.9-5.8-0.6-12.9-3.7c-0.2-0.1-0.4-0.2-0.6-0.1l-5.4-2.8c-5.1-2.9-12.2-8.5-12.2-9.8 c0-0.5,1.5-2.4,3.3-4.1c6.5-6.3,9.8-15.8,9.9-28.4c0-8.3,0-8.5-3.4-15.6c-5.3-11.1-8.9-14.8-14.1-14.8c-5.5,0-10.9,5.2-14.1,13.6 c-3.5,9.2-3.8,22.9-0.8,34.7c0.8,3.1,1.2,6,0.9,6.2c-0.8,0.8-17.8,8.1-18.1,7.8c-0.1-0.1-1.5-2.6-3.1-5.5c-4-7.2-9.9-14.3-14.5-17.4 c-3.2-2.2-4.6-2.6-8.4-2.6c-5.5,0-9.8,2.4-15.4,8.7c-5.4,6-7.4,11.5-7.4,20.9c0,6.8,0.2,7.9,1.9,10.3c3.2,4.5,9.3,6.7,19.2,7.1 c4.7,0.2,9.4,0,14-0.5c6.4-1,6.8-0.7,6.8,4.3c0,4-1.6,6.8-8.5,14.1c-16.8,17.8-42.7,35.7-60,41.5c-19.6,6.5-38,0.8-43.5-13.5 c-2.2-5.6-2.8-15.1-1.5-23c0.9-5.6,6.2-27.6,6.6-27.8c5.4-2.3,10.4-5.3,15-9c2.4-2.1,12.5-12.7,22.4-23.4 c18.3-19.9,28.6-29.3,38.5-35.3c18.9-11.4,34.9-11.2,42.3,0.8c1.1,1.8,2.4,3.1,2.8,3c1.9-0.5,3.6-8.1,3.4-15.1 c-0.2-6.4-0.4-7.2-2.7-10c-9.2-11.4-29.1-9.4-50.7,4.9c-11.1,7.4-21.5,17-40.7,37.9c-21,22.8-27.9,28.3-38.6,30.7 c-5,1.3-10.2-0.3-13.6-4.1c-7.2-7.6-6.4-19.2,3.1-46.1c2.2-6.2,4.2-12,4.5-13.1c0.4-1.4,1-1.8,2.2-1.4c3.1,0.8,5.5-0.9,7.4-5.3 c2-4.6,3.6-11.9,2-9c-1.6,2.9-5,6-6.4,6c-4.6,0-5.3-10.4-1.4-21.3c3.6-10.1,3.8-13.1,1.1-15.6c-2-1.8-2.1-2.2-1.3-5.1 c0.6-2.7,0.9-5.4,0.8-8.1c0-3.9-0.3-5.3-1.6-6.6c-2.7-2.7-6-1.8-11.2,2.9c-4.2,3.8-5.6,6.6-5.7,11.2c-0.1,4,1.5,6.3,6.5,9.3l2.8,1.7 l-4,3.5c-5.3,4.7-12.3,9.4-30.3,20.2c-8.3,5-14.8,9.2-14.3,9.4c1.1,0.4,19-6.4,25-9.4c6.9-3.5,18.2-11.9,22.9-17l4.3-4.7l2.2,1.4 c2.4,1.6,2.4,1.3-0.8,12c-2.6,8.6-3.5,17-2.2,20.2c0.8,2.1,0.5,3.1-3.4,11.4c-14.7,31.1-15.6,52.1-2.7,66.2c4.3,4.7,10,7.4,15.5,7.4 c2.3,0,4.2,0.3,4.2,0.6c-0.5,2-1.2,3.9-2,5.8c-1.1,2.8-3.1,9.5-4.5,14.8c-3.1,12.3-4,29.6-2,38.2c3.4,14.4,12.1,23.9,24.5,26.7 c5.2,1.2,14.1,0.8,21.1-1c11.1-2.8,27.9-12.8,42.9-25.5c9.5-8.1,24.3-23.6,28.1-29.4c4.4-7.1,7.4-15.1,8.9-23.3l0.9-5.9l11.6-4.9 c6.4-2.7,11.6-4.8,11.7-4.7c3.4,5.2,7.3,10.1,11.8,14.5c4.1,3.6,17.3,10.6,17.3,10.6v-0.1l2.4,0.7c1.4,0.4,2.6,1,2.6,1.4 s-0.9,4.1-1.9,8.2c-3.6,13.8-4.7,24.1-4.2,40.4c0.3,12.4,0.7,16.1,2.4,22.6c5.7,21.9,19,34.4,40.9,38.7c3.7,0.7,9.6,1,17.6,0.8 c14.7-0.4,21.2-1.9,33.6-8c24.2-11.9,44.1-34.8,50-57.7c2.4-9.2,3-23.3,1.2-30c-2.6-9.8-9.2-18.3-17.3-22.2 c-7.9-3.8-26.3-5.7-56.7-5.8c-25.4,0-47.2-1.6-47.2-3.3c0-1.6,14.9-16.1,21.7-21.1l7-5.2l7.5,5.6c4.4,3.3,9.1,6.2,14,8.8 c6.8,3.3,27.6,6.4,27.6,6.4l1.7-0.1l1.1-0.2c6.4-0.9,14.1-7.1,19.4-17.4c7-13.4,9.6-31.9,8-57.4c-0.5-8.2-2.3-35.1-4.1-59.7 s-3-44.8-2.9-45s2,1.3,4,3.3c4.6,4.6,5.6,4.7,5.1,0.2C368.3,38.9,353.6,0,352.3,0z M123.4,10.9c-2.2,0.1-4.4,1.8-6.1,4.8 c-1.6,2.8-4.9,14.8-6.2,22.1c-0.3,1.7-0.7,2.9-0.9,2.8c-0.8-2.1-1.4-4.3-1.9-6.5c-4.1-15.8-13.4-23.7-18.2-15.3 c-2.5,4.4-2.3,6.3,0.7,8.8c2.2,1.8,3,2.1,5.6,1.7l3.1-0.5l2.7,5.8c1.5,3.2,3.5,8.3,4.4,11.3l1.8,5.5l-1.7,1.8 c-1.8,2-4.1,8.2-4.1,11.5v2l2.7-2.7c2.8-2.7,4.9-2.9,6.8-0.5c0.7,0.9,0.5,1.2-1.3,1.6c-6.4,1.4-10.6,6.9-10.6,13.8 c0,2.1,1.1,9.2,2.3,15.8c2.2,10.8,3.8,21.8,4.6,32.8c0.5,6.5,0.6,6.9,1.2,4c0.9-4.6,0.9-21.8-0.1-28.2c-1-6.9-2.6-13.7-4.5-20.4 c-0.9-2.9-1-4.1-0.3-4.9c1.1-1.3,7.3-3.8,13.9-5.6c4.3-1.2,4.8-1.6,6.2-4.9c0.9-2,1.4-4.3,1.1-5.1c-0.7-2.2-8-8.6-11.3-9.8 c-2-0.7-2.6-1.3-2.2-2.2c0.3-0.7,1.7-6.3,3.2-12.6c2.7-11.4,4-15.1,6.2-17c1.3-1.1,3.4-0.4,5.3,1.9c3,3.7,5.9-2.7,3.4-7.5 c-0.8-1.6-2-2.9-3.6-3.9C125,11.1,124.2,10.9,123.4,10.9L123.4,10.9z M307.2,12.5c-2.5,0.6-4.9,1.4-7.3,2.4L261,29.2 c-17.4,6.4-32.6,12.1-33.9,12.6c-1.6,0.6-2.8,2-3.8,4.4c-0.6,1.4-1.2,2.8-1.5,4.3c0,0.4,0.1,0.7,0.3,0.7s10.1-3.9,22.2-8.7 c12.1-4.8,30.6-12,41.2-16.1c19.3-7.4,19.3-7.4,20.7-10.5c0.8-1.7,1.3-3.2,1.1-3.4C307.4,12.5,307.3,12.5,307.2,12.5L307.2,12.5z M453.6,17.8c-0.2-0.2-18.8,6.4-41.3,14.7c-40.8,15-40.9,15.1-42.1,17.8c-0.6,1.5-1.2,3-1.6,4.5c-0.4,1.6,1,1.2,15.4-4.6 c8.7-3.5,26.6-10.5,39.9-15.5s24.8-9.5,25.9-10C451.5,24,454.4,18.7,453.6,17.8L453.6,17.8z M200,39.2c-2.3,0-5.1,1.3-7.9,3.8 c-8,7.2-8.2,15.5-0.6,20.2c1.7,1.1,3.1,2.2,3.1,2.4c0,1-7.6,7.3-14.4,11.8C176.5,80,167.4,85.7,160,90s-13.4,8.2-13.4,8.6 c0,0.7,14.8-4.5,21.9-7.7c9.1-4.4,17.5-10.3,24.7-17.3l6.1-6.2l2.8,2.3l2.8,2.3l2.2-4.1l2.2-4.1l-3.2-2.9c-2.8-2.5-3.2-3.1-2.5-4.8 c1.4-3.4,1.7-12.4,0.6-14.5C203.3,40.1,201.7,39.1,200,39.2z M311.5,46.4c-8.9,0-15.7,1-18.5,3.1c-1.8,1.3-9.5,13.2-9.5,14.7 c0,0.3,5.8,0.6,13,0.6c13.5,0,23.6,1,25,2.4c1.2,1.2-1.3,3-12.6,9.2c-15.1,8.3-21.9,12.3-22.9,13.5s8.9-1.2,22.6-5.7 c7.9-2.6,9.1-3.3,13.8-7.7c8.8-8.3,17.9-21.7,16.7-24.8c-0.8-2-6.2-3.8-14.2-4.6C320.1,46.7,315.6,46.5,311.5,46.4L311.5,46.4z M196.5,47.6c0.3,0,0.5,0,0.8,0.1c1.6,0.6,2.8,4.3,2.3,7c-0.2,1.2-0.6,2.1-0.9,2.1c-1.3-0.1-6.9-4.6-7.1-5.8 C191.3,49.7,194.5,47.6,196.5,47.6L196.5,47.6z M389.2,55.4c-1.2,0.3-5.7,10.6-6.4,14.6c-0.1,2.6,0.2,5.2,0.8,7.7 c0.9,5,1.5,10,1.7,15.1c0.6,11,2.3,38.1,5.9,91.2c1.3,19.1,2.8,41.6,3.4,50c0.9,13.1,0.7,26.3-0.6,39.4c-0.7,6,0.7,5.3,3.6-1.6 c7.5-18,8.6-33.2,5.7-75.4c-1.7-24.7-6-84.4-6.9-95.4c-0.3-3.6-0.3-6.6,0-6.6c1.5,1,2.9,2.2,4.2,3.6c2,2,4,3.6,4.4,3.6 c1.5,0,0.7-4.8-2.2-12.9c-5.2-14.8-12.6-33-13.6-33.3C389.3,55.4,389.3,55.4,389.2,55.4L389.2,55.4z M49.3,84.8 c2.4,0,3.9,2.1,3.6,5.8c-0.3,3.3-1.2,3.5-4.8,1c-3.3-2.2-3.9-4.7-1.5-5.9C47.4,85.1,48.4,84.9,49.3,84.8z M303.6,105.4 c-0.2,0-0.4,0.1-0.6,0.3c-1.6,2.6-3,5.2-4.2,8l-3.2,6.9l3.7,2.4c2,1.3,5.7,3.9,8.1,5.7c2.4,1.8,4.7,3.1,5.2,3s2.5-3.4,4.4-7.2 c2.9-5.5,3.5-7.2,2.8-8.3c-0.5-0.8-4.2-3.7-8.3-6.5C306.5,106.4,304.6,105.3,303.6,105.4L303.6,105.4z M206.1,105.6 c-1.7-0.1-2.4,2-4.6,6.4c-2,4-3.5,7.7-3.4,8.1s3.7,3.3,7.8,6.3s7.9,5.4,8.4,5.3c1-0.3,5.5-8.2,6.9-12c1.2-3.5,0.8-4.1-6.9-9.2 C209.7,107.4,207.5,105.7,206.1,105.6L206.1,105.6z M211.1,162.4c1.5,0.1,3.1,1.1,5.1,3.1c4.7,4.8,9.4,14.3,9,18.1 c-0.2,1.8-5.4,6.1-10.7,8.8c-3,1.5-5.5,2.7-5.7,2.7c-1.2-2-2.3-4.2-3.3-6.4c-5-10.6-4.7-17.9,0.7-23.6 C208,163.3,209.5,162.4,211.1,162.4L211.1,162.4z M288.8,164.8c7.5,0,17.9,2.3,17.9,3.9c0,0.3-3.1,2.3-7,4.5s-7.4,4.1-7.8,4.2 s-2.1-1.1-3.6-2.6c-2-2-4.2-3.8-6.5-5.4c-2.1-1.4-3.8-2.8-3.8-3.1C277.9,165.6,283.2,164.8,288.8,164.8L288.8,164.8z M149.2,198.7 c1.9,0,3.8,0.3,5.6,1.1c4.1,1.9,10,7.7,8.7,8.6c-2,1.2-13.2,1.2-16.4,0.1c-5.1-1.9-6.5-4.8-3.7-7.6 C145,199.5,147.1,198.7,149.2,198.7L149.2,198.7z M109.4,217.6c-1,1.4-1.9,3-2.6,4.6c-8.4,16.9-9.6,36.8-2.3,38 c4.4,0.7,7.1-1.8,9-8.4c1.8-6.1,1.5-6.8-1.7-3.1c-1.6,1.8-3.4,3.4-4,3.4s-1.9-1-2.8-2.2c-1.5-1.9-1.7-2.9-1.3-7.8 c0.6-5.1,1.7-10.1,3.2-15C107.8,223.9,108.7,220.8,109.4,217.6L109.4,217.6z M252,243.7c2.2,0.1,5.7,0.6,11.4,1.4 c7,1,19.1,1.6,40.4,2.1c42.4,1,50.5,2.2,59.8,8.8c7,5,12.6,14.7,12.6,21.7c0,13.4-22.2,36.4-45.2,46.7c-7.2,3.3-14.9,5.7-22.7,7.2 c-16,2.8-34.9,0.2-46.9-6.4c-5.9-3.2-13-10.6-15.9-16.3c-4.1-8.1-5.5-15.9-5-28.9c0.4-12.2,2.2-21.4,6.3-31.6 C248.2,244.9,248.4,243.7,252,243.7L252,243.7z M201.8,253.7c-1.9,0-4.7,1.9-8.4,5.7c-5.4,5.5-7.6,9.5-7.6,13.5 c-0.1,3.1,1.8,6,4.8,7c1.3,0.6,2.4,1.2,2.4,1.5c-0.7,1.4-1.5,2.8-2.4,4.1c-3.5,5-5.5,11-5.6,17.1c0,5.4,1.2,7.4,5.6,9.2 c2.9,1.2,14.2,0.4,19.5-1.5c4.6-1.6,13.4-7,13.9-8.6c0.2-0.5-2.9-0.1-7.6,1.1c-9.3,2.3-20.9,2.8-24.9,1.1c-3.8-1.6-4.2-4.2-1.4-9.4 s10.1-13.2,15.5-17.1c4.1-2.9,6.1-5.9,7-10.7c0.7-3.5-0.2-3.6-3.3-0.4c-3.8,4-8.7,6.6-11.5,6c-2.5-0.5-6.5-3.3-6.5-4.5 s4.9-6.4,5.9-6.4c1,0.3,1.9,0.9,2.6,1.6l1.8,1.6l1.7-2.8c2-3.2,2.1-5.2,0.6-7.3C203.5,254.1,202.7,253.7,201.8,253.7L201.8,253.7z M305.1,271.2c-1.3,0-2.6,0.4-3.8,1.1c-2,1.4-4.3,5.9-4.3,8.4c0,1.6,0.1,1.6,1.8,0.5c3.6-2.5,7-1.1,7,2.9c0,2.3-4.2,8.9-10.4,16 c-2.8,3.2-3.1,3.9-1.6,3.1c3.7-2,12.4-11.6,14.7-16.2c2.8-5.6,3.2-11.7,0.9-14.2C308.3,271.7,306.7,271.1,305.1,271.2L305.1,271.2z"/>
</svg>