<svg xmlns="http://www.w3.org/2000/svg" width="562" height="377">
<path d="M561.2,0l-1.8,0.6c-3.6,1.1-79.5,29.2-80.5,29.8s-4.4,8.1-3.8,8.7c0.2,0.2,2-0.4,4.1-1.3c1.3-0.7,2.6-1.1,4-1.4 c-0.7,2.7-1.5,5.3-2.6,7.8l-2.9,7.6l1.4,5.2c0.9,3.3,1.7,10.5,2.1,19.6c0.7,14.5,1.9,33,4.7,71.2c4.8,66.4,4.9,74.9,0.7,79.3 c-9.5,8-24.2,11.4-31.9,0.5c-1.5-2.2-1.9-4.1-2.2-9.5c-0.4-7.8-1.5-8.7-4.2-3.4c-2.6,5.2-8.2,12.8-11.8,16 c-4.5,4.1-9.2,6.3-14.5,6.8c-5.6,0.5-8.7-0.9-12-5.5c-3-4.1-3.7-7.7-2.4-12.2c2.1-7.5,0.9-7.1-10,4c-9,9.1-11.2,10.9-16.7,13.6 c-6.1,3-6.7,3.1-14.4,3.1c-7.2,0-8.5-0.2-12.6-2.2c-7.3-3.6-9.1-7.9-7.5-18c0.6-4,0.6-4.2-1-4.2c-1.1,0-5.6,3.7-12.7,10.4 c-8.4,8-12.3,11.1-16.6,13.2c-10.8,5.4-22.4,6.3-32.8,2.8c-8.9-3.1-13.6-6.2-35.5-23.9c-21.5-17.4-47.8-34.2-76.4-48.9 c-5.6-2.9-10.1-5.6-10.1-6c0-1.1,9.7-7.9,20.4-14.4c11.3-6.9,50.7-26.4,70.8-35.1c28.9-12.5,49-18.9,56.2-17.8 c4.8,0.7,6.6,2.1,6,4.6c-0.5,1.8-6.9,10.1-17.6,22.8c-5,6-12.1,19.4-12.8,24.5c-0.2,1.6-0.3,3-0.1,3c0.8-1,1.5-2.2,2-3.4 c2.3-4.6,8.6-12.8,17.5-23c8.4-9.6,13.3-16.6,17-24.5c2.2-4.7,2.6-6.4,2.6-11.7s-0.2-6.4-1.7-7.9c-3.6-3.6-14.2-2.6-31.9,3.1 c-31.9,10.2-91,37.6-115.2,53.4c-11.8,7.7-14.3,10.6-16.8,20.3c-1.6,6.3-3,16.9-2.4,18.7c0.2,0.8,13.5,11.6,29.4,24.1 s32.1,25.8,36.1,29.8c7.6,7.6,13.7,16,14.5,20.1c0.4,2.1,0.1,2.8-2.9,5.3c-3,2.3-6.1,4.3-9.4,6c-7.2,3.7-24.7,11.3-26,11.3 c-0.5,0-2.6-3.1-4.8-6.8c-4.8-8.3-11.3-15.1-16.2-17.4c-12.4-5.5-27.6,9-28.8,27.3c-0.3,5.2-0.1,6.5,1.5,9.6c2.1,4,5.6,6.7,10.6,8.1 c4.1,1.2,22.2,1.2,26.3,0l3-0.9l0.9,3.3c0.8,3,0.7,3.7-1,6.9c-2,3.9-16.2,18.4-25.2,25.7c-8.5,7-23.1,16.4-31.9,20.8 c-19.8,9.7-38.1,9.3-48.4-0.9c-9-9-10.1-21.8-4-45.4l2.3-9l18.9-20.6c20.6-22.5,24-25.8,33.6-33.3c8.7-6.8,14.9-10.4,22.1-12.8 c12.7-4.3,23.5-2.1,29,5.9c0.9,1.5,2,2.8,3.2,4c1.4,0.8,3.9-8.2,3.9-14.4c0.1-5.4-0.2-6.4-2.1-9.4c-9.6-14.6-34.3-10.6-60.1,9.8 c-8.8,7-15.7,13.7-35.1,34.5c-12.4,13.5-18.1,19-22.6,22c-12.2,8.1-21.4,8.6-27.4,1.3c-4.2-5.1-5.2-12.7-3-23.2 c0.7-3.1,3.6-12.5,6.5-21l5.3-15.4l2.3,0.5c1.4,0.3,3,0.1,4.2-0.8c1.9-1.2,4.5-7.2,5.5-12.4l0.5-2.6l-2.6,3.4c-3,4-5.2,4.6-7.4,2.2 c-2.6-2.9-2-11.4,1.5-21.1s3.6-11.7,0.8-13.9c-2.1-1.6-2.1-1.8-1.2-5.7c1.2-5,1.2-11.5,0.1-13.6c-0.6-1.2-1.7-1.6-4.3-1.6 c-2.9,0-4.1,0.5-7.3,3.4c-3.8,3.4-6.7,8.3-6.8,11.6s1.9,6,5.8,8.6l3.8,2.6l-4.6,4c-5.9,5.1-10.8,8.4-29.4,19.5 c-8.4,5-14.8,9.2-14.4,9.4c1.1,0.4,19-6.3,24.9-9.2c8.3-4.4,15.8-10,22.4-16.7l5-5.4l2,2l1.9,2l-2.8,9.6c-2.5,8.4-2.8,10.4-2.5,16 c0.4,6.4,0.3,6.5-4,15.8c-14.8,32.1-15,53.7-0.8,66.8c7.3,6.7,16.4,7.9,25.8,3.5c2.8-1.3,5.2-2.1,5.2-1.8c-0.4,1.8-0.9,3.5-1.6,5.2 c-3.6,10.4-5.4,21.4-5.2,32.5c0,12.6,0.7,16.5,4.6,24.2c4,8.1,10.3,13.7,18.5,16.2c4.7,1.5,16.5,1.4,22.4-0.1 c18.5-4.8,45.3-24.1,65.7-47.3c8.5-9.7,14.2-21.8,15.4-32.4l0.5-4.5l4.1-1.7c8.8-3.8,23.5-11.5,27.4-14.4c10.6-8,14.6-23.6,9.6-37.6 c-3.5-9.8-3.6-9.4,0.7-6.3c3.7,2.6,6,4.6,23.6,19.8c14.2,12.3,27.1,16.2,41.2,12.5c9-2.3,13.7-5.5,24.2-16.2s12.2-11.6,12.2-6 c0,4.4,2.1,10.9,4.4,13.6c4.8,5.7,18.3,7.8,27.4,4.3c7.9-3,20.5-13.7,24.6-20.8c0.8-1.4,1.8-2.6,2.1-2.6s0.8,1.5,1.1,3.4 c1.2,7.6,5.4,14.2,10.3,16.6c2.4,1.2,5,1.6,8.9,1.6c4.7,0,6.2-0.4,9.6-2.4c5.2-3,9-7.5,12.7-14.9c1.6-3.3,3.2-5.9,3.5-5.9 s1.2,1.8,2,4c8.2,17.2,24.5,22.2,37.7,7.9c6.9-7.6,11.9-20.4,14-35.5c1.7-12.3,1.2-24.4-4-96.2c-1.3-18.2-2.4-34.7-2.4-36.7v-3.7 L496,78c8,8.1,7.6,4-2.3-21.9c-3.9-10.3-7.3-19.3-7.5-20c-0.4-1.2,10.8-5.9,52.5-21.8c10.3-3.9,19-7.4,19.3-7.7 c0.7-1.1,1.4-2.3,1.8-3.6L561.2,0z M521.8,38.5c-0.9,0-3.9,6.7-5.8,12.8c-1.3,4.1-1.3,4.7,0,8.8c0.9,2.9,1.7,10.9,2.5,24 c0.6,10.8,2.5,40.5,4.3,66c5,73.3,5.2,75.6,4.6,93.8c-0.3,9.4-0.3,17,0,17s1.5-2.3,2.8-5.2c3.7-8.1,6.2-19.1,7.2-31.7 s0.7-18.8-5.2-99.5c-1.5-21.1-2.8-40.4-2.8-42.8v-4.4l3.8,3.8c4,4,5.8,4.7,5.8,2.4C538.7,80,523.1,38.5,521.8,38.5L521.8,38.5z M224,51.4c-1.7,0.2-3.4,0.8-4.9,1.7c-7,4-11,13-8,18c1.2,1.7,2.7,3.1,4.5,4.2c1.7,1.1,3.1,2.1,3.1,2.4c0,1.1-7.9,7.8-13.6,11.7 c-3.3,2.2-12.2,7.7-19.8,12.2s-14,8.5-14.2,8.9c-0.7,1.2-0.6,1.1,9.9-2.8c17.1-6.4,26.7-12.1,36.4-22c3.1-3.1,5.8-5.7,6.1-5.7 c1.1,0.5,2.1,1.2,3,2l2.3,2.1l2.1-3.5c0.9-1.4,1.5-2.8,2-4.3c0-0.5-1.3-1.9-2.9-3.2l-2.9-2.3l0.9-4.2c1.4-6.7,1.2-11.9-0.7-13.7 C226.6,51.9,225.3,51.4,224,51.4L224,51.4z M220.6,59.8c2.3,0.2,4,3.9,3.1,7.4c-0.3,1-0.7,1.8-1.1,1.8c-1,0-7.2-4.8-7.2-5.5 s2.4-3,4.1-3.5C219.9,59.8,220.3,59.7,220.6,59.8L220.6,59.8z M432.3,60.1c-0.5,0-19.1,6.8-41.3,15c-44.2,16.4-40.8,14.7-43,21.7 c-0.3,1-0.3,1.7-0.1,1.7s8.3-3.1,17.9-6.9s28-11,41-16c14.5-5.6,23.9-9.6,24.5-10.5C432.8,62.7,433.3,60.1,432.3,60.1L432.3,60.1z M125.2,80.3c-1.1,0.2-2.3,1.1-4,3c-3,3.2-5,8.7-7.5,21c-0.3,1.7-0.7,3.4-1.4,5c-0.2,0.2-1.3-2.6-2.2-6.3 c-2.8-10.4-8.6-18.1-13.7-18.1c-1.9,0-2.7,0.7-4.3,3.5c-2.7,4.5-2.6,5.7,0.6,8.6c2.6,2.4,5.7,3.1,6.7,1.5c1.4-2.3,6,6.1,9.6,17.8 l1.4,4.5l-2.1,2.7c-2.2,3.4-3.5,7.4-3.8,11.5c0,1.3,0.4,1.2,2.6-1c2.9-2.8,4.2-3.1,6.4-1.4c1.9,1.4,1.8,1.9-0.8,2.4 c-6.2,1.5-10.6,7-10.6,13.4c0,1.6,1.2,9.4,2.7,17.2c2.9,14.9,4.4,26.6,4.5,34.4c0.1,4.3,0.1,4.4,0.9,2.2c0.5-1.3,0.9-7.6,0.9-14 c0.1-11.7-1.6-23.4-5-34.6l-1.7-5.5l2.6-1.6c2.2-1.3,5.4-2.4,15.2-5.2c1.7-0.5,4.6-5.8,4.6-8.4c0-2.2-5.9-7.9-10.3-10 c-3.5-1.6-3.8-2.2-2.5-5.6c0.5-1.2,1.7-6.2,2.7-11.1c2-9.5,4-14.6,6.2-16c1.1-0.7,1.8-0.4,3.7,1.3c2.9,2.8,4,2.8,5.1,0 c1.2-3.3,0.1-7-2.6-9.3C127.4,80.8,126.3,80.2,125.2,80.3L125.2,80.3z M423.9,94.1c-0.2,0-0.5,0.1-0.9,0.4 c-2.2,1.8-1.5,9.8,1.4,15.8s2.5,7.6-1.4,8s-5.8-2.5-6.7-9.9s-2.6-13.6-3.6-13.3c-1.7,0.4-2.2,4.7-1.3,10c0.5,2.6,0.8,5.2,1,7.8 c0,2.9-3.5,6.9-6.6,7.7c-1.8,0.4-2.4,0.1-3.9-2.2s-1.6-3.5-1.2-10.3c0.2-4.2,0.1-8.1-0.3-8.7c-1.5-2.2-5,1-6.1,5.7 c-0.4,1.7-0.2,2.3,1.1,3c1.5,0.8,1.7,1.6,1.7,7.3c0,6.8,1.3,11.2,3.7,12.7c1.8,1.1,7.1,0.6,8.8-0.9c1.2-1.4,2.2-3,2.9-4.7 c1.5-3.5,1.6-3.5,2.3-1.6c2.1,5.8,8.7,7.7,11.7,3.4c4-5.7,4.2-10.4,1-19.5c-1.3-3.7-2.5-7.7-2.8-8.9S424.3,94.1,423.9,94.1 L423.9,94.1z M364,139.3c-1.1,0-8,13.8-7.5,15.2c0.1,0.4,3.7,3.1,7.9,6s8,5.2,8.4,5.2c1.3,0.1,7.7-12.5,7.4-14.6 c-0.2-1.2-2.5-3.3-7.7-6.8C368.4,141.6,364.6,139.3,364,139.3L364,139.3z M381.2,164.1c-0.5,0-2.1,2.6-3.7,5.6s-3.1,5.5-3.5,5.2 s-3.8-2.6-7.7-5.2c-2.5-1.8-5.1-3.4-7.8-4.9c-0.7,0-7.9,13.8-7.9,15.1c0,0.4,3.7,3.3,8.2,6.4c9.3,6.4,8.4,6.6,12.7-1.8l2.4-4.7 l7.6,5.2c4.2,2.9,7.9,5.2,8.3,5.2c0.9,0,6.2-9.4,7.2-12.7c0.6-2,0.4-2.7-1.5-4.4C393,171,382.4,164.1,381.2,164.1L381.2,164.1z M49.1,164.3c0.1,0,0.3,0,0.4,0c2.1,0.3,4,4.1,3.3,6.7c-0.3,1.1-0.8,1.9-1.1,1.9c-1,0-5.3-2.9-6.5-4.4c-1-1.3-1-1.6,0.7-3 C46.8,164.8,47.9,164.3,49.1,164.3L49.1,164.3z M164.3,265.9c4.3-0.2,7.6,1.4,11.7,5.5c3.6,3.6,3,4.7-2.2,4.7c-1.3,0-2.7,0.1-4,0.3 c-2.1,0.6-9.6-1-11.1-2.3c-1.9-1.7-2-5.4-0.3-6.8c0.7-0.6,2.9-1.2,5.1-1.4C163.7,265.9,164,265.9,164.3,265.9L164.3,265.9z M261,268.6c-3.1,0.1-6.1,0.9-8.8,2.4c-9.4,5.1-20.9,19.4-21.1,26.3c-0.1,2.9,0.2,3.3,2.7,4.6c3.4,1.7,10,1.8,18.8,0.2 c8.8-1.6,16.9-1.5,20.4,0.2c5.5,2.7,4,3.6-12,6.8c-17.8,3.6-28.9,4.5-35,2.8c-3.7-1-4.2-1-4.2,0.1c0,1.8,6,7.2,9,8.1 c3.9,1.1,10.6,1,19-0.4c9.3-1.5,23-5,25.3-6.4c2.5-1.6,4.3-6.1,4.3-11c0-3.6-0.4-4.7-2.1-6.5c-3.8-3.8-8.6-4.4-19.5-2.5 c-8.9,1.6-20.2,1.6-21.5,0.1s2.3-5.6,9.9-10.8c8.6-5.9,10.7-6.7,13.9-5.1c1.4,0.7,2.7,1.1,2.9,0.9c0.6-1.3,1-2.7,1.3-4.1 c0.8-3,0.8-4,0-4.8C263.5,268.8,262.3,268.4,261,268.6L261,268.6z M503.6,271.3c-4.3,0-7,2.5-8.1,7.6c-0.6,2.5-0.5,2.8,0.7,2.3 c4.6-2,8.1-0.9,8.1,2.5c0,2.1-4.1,8.4-9.7,14.9c-5.8,6.7-3.3,5.8,4-1.5c6.8-6.8,9.8-12,10.4-17.9 C509.5,273.9,507.8,271.3,503.6,271.3L503.6,271.3z M439.8,274c-0.4,0-0.7,0.7-1.5,2.1c-0.9,1.7-1.2,3.5-1,5.4l0.5,2.7l-7.5-0.5 l0.2-3c0.1-1.6-0.2-3-0.6-3s-2,2-3.5,4.3c-3.1,4.8-6.2,6.6-10.2,5.8c-1.4-0.3-4.9-0.8-7.6-1c-4.5-0.4-5.5-0.2-10,2 c-5.5,2.7-10,6.8-21.2,19.1c-4.2,4.9-9.1,9.1-14.4,12.7c-3.8,2.5-7.3,4.9-7.8,5.2c-1.1,1-0.4,0.8,5.2-1c6.7-2.2,8.1-3.2,19.5-14.3 c13.9-13.4,20.3-16.4,30.4-14.4c6.1,1.2,9.8,0.4,14-3.1c2.7-2.2,2.8-2.2,6.2-1.1c5.1,1.7,7.3,0.8,9.2-3.5c2.2-4.9,2.8-11.5,1.2-13.5 C440.4,274.4,440.1,274,439.8,274L439.8,274z M331.5,281c-1.4-0.1-2.9,0.2-4.1,0.8c-1.7,0.9-4.6,6.5-4.7,9c0,1.3,0.1,1.4,1.8,0.2 c2.5-1.7,5.1-1.6,6.5,0.4c2,2.9,0,7-8.4,16.8c-5.5,6.3-4.3,6.4,2.5,0.2c4.9-4.4,10-11.9,11.2-16.5c1-3.7,0.4-8-1.4-9.7 C334,281.4,332.8,281,331.5,281L331.5,281z"/>
</svg>