<svg xmlns="http://www.w3.org/2000/svg" width="422" height="368">
<path d="M320.8,0c-0.1,0-0.1,0-0.2,0.1c-1.4,1.5-5.8,13.6-5.8,16.3c0.2,2.8,0.6,5.6,1.3,8.4c0.8,3.8,1.3,7.7,1.3,11.7 c0,6.3,1.6,31.6,3.6,58.8c2.3,30.8,5.2,75.3,5.2,80.9c0,9.1-1.4,14.4-4.3,16.6c-7.5,4.2-15,6.9-23.3,6.1c-3.8-0.5-7.6-1.4-11.3-2.6 c-6.3-2.1-13.9-6.2-13.9-7.5c0-0.4,5.6-3.4,12.5-6.9l12.5-6.2l2.8-6c4.9-10.6,4.5-12.7-3-17c-15.2-8.6-45.7-11.6-65.5-6.3 c-8.6,2.3-18.8,6.7-20.9,9.1c-2.3,2.6-7.4,21.1-5.9,21.1c0.2,0,3.1-1.3,6.4-2.9c4.9-2.3,6.7-2.8,9.3-2.5c4,0.5,13.4,6.4,20.2,12.5 l5.2,4.7l-6.4,6.3c-8.3,8.2-17.6,19.3-20.7,24.8c-2.8,4.9-2,4.9-12.1,0.6c-8.5-3.6-12.1-5.8-18.1-11.2s-7.9-8.3-10.5-15.1 c-3.5-9.3-4.8-18.7-7.6-55.6c-1.5-20-3.4-40.5-4-45.6c-2.2-15.9-6.8-35.2-8.4-35.2c-0.9,0-1.8,3.5-3.5,12.6 c-1.1,5.8-1.1,7.2-0.1,11.6c3.7,16.3,7,55.6,7.1,84.6l0.1,22.8l-2.2,6.1c-4.8,13.5-13.2,23.6-27.9,33.2c-6,3.9-8.8,6.3-10,8.5 c-2.3,4.1-4.6,14.6-3.6,16.5c0.5,0.9,3.5,2.2,8.6,3.6c50.4,14.1,52.3,14.9,46.7,19.6c-3.7,3.1-24.9,15.6-34,20.2 C115.2,309,95.6,315,79,315.1c-14.2,0.1-24.5-3.8-32-12c-14-15.3-14.7-36.7-2-67.4c5-12,5.7-14.5,4.5-14.5s-5.5,6.7-9.8,15.6 c-9.1,18.6-12.9,48.1-8.4,65.6c3.2,12.7,11.5,23.6,21.5,28.4c13.9,6.6,30.6,6.3,51.7-1.1c26.7-9.4,54.8-24.9,66.4-36.5 c12.5-12.7,17.8-29.1,11.8-37c-3-3.9-11-7.6-26.7-12.2c-7.1-2.1-13-4.1-13-4.4s1.9-2.7,4.2-5.2s5-5.8,6-7.1 c5.2-7.3,10.5-21.8,11.7-31.7c0.3-2.6,0.7-4.6,0.8-4.4c0.7,2.6,1.2,5.2,1.6,7.8c2.1,12.2,7.5,21.9,16.3,29.1 c4.2,3.4,15.1,9.1,21.6,11.3c1.5,0.4,2.9,0.9,4.2,1.6c0,0.1-0.9,3.6-2,7.7c-3.5,13.3-4.6,22.4-4.6,37.5c0,15.6,1.4,24.7,5.4,34.8 c7.1,17.8,21.1,28,42.4,30.8c7.3,0.9,14.6,0.9,21.9,0c33.3-4.2,67.1-34,75.4-66.4c2.4-9.3,2.6-24.9,0.5-31.1 c-3.2-9.1-9.1-16.4-16.4-20.1s-22.8-5.6-46.5-5.7c-16.4,0-45.9-1.2-53-2c-2.5-0.3-4.6-0.9-4.6-1.4c0-2.6,17.9-19.6,25.7-24.4 l2.9-1.8l7.1,5.2c11.6,8.7,23.5,13.7,35.7,15.2c3.3,0.8,5,0.4,8.3,0c13.6-2.6,24-19,27.4-43.2c1.6-11.7,1-29-2.7-80 c-2.8-37.8-3.9-55.6-3.5-56c0.2-0.2,1.9,1,3.6,2.8c4.2,4.2,6.1,4.3,5.4,0.2c-0.6-3.4-12.5-35.7-14.9-40.5C322.1,1,321.2,0,320.8,0z M421.1,23.1c-0.2-0.2-13.1,4.4-28.6,10.1S359,45.6,352.6,48s-12.2,4.5-12.9,4.8c-1.2,0.5-3.9,6.1-3.9,8.2c0,0.7,0.8,0.7,3-0.3 c4-1.7,49.8-19.7,66.6-26.1c12.8-4.9,13.2-5.2,14.6-8.1C420.8,24.8,421.3,23.3,421.1,23.1L421.1,23.1z M281.1,28.4 c-10.8,0-15,0.7-18.1,3c-1.8,1.3-9.6,13.3-9.6,14.7c0,0.3,7.6,0.7,17,0.8c16.9,0.3,21.9,1.1,21.2,3.2c-0.3,0.9-5.6,4.1-24.3,14.5 c-3.5,1.8-6.8,3.9-10,6.2l-1.9,1.7l2.8-0.5c5.4-1,22-6.1,26.2-8c5.2-2.3,11-7.7,17-15.6c5.3-7,8.3-12.8,7.6-14.6 C307.7,30.4,297,28.4,281.1,28.4L281.1,28.4z M220.4,61.2c-4.1,0.3-7.2,5.8-9.9,17.5c-3.1,13.3-3,13.2-5,5.4c-2.8-10.7-9-19-14.2-19 c-1.7,0-5.9,6.1-5.9,8.6c0,1.7,4.9,6.6,6.6,6.6c0.8-0.1,1.5-0.5,2-1c0.8-0.8,1.4-0.6,2.9,1.1c2,2.3,6.4,13.2,7.8,19.3 c0.5,2.1,1.2,3.8,1.5,3.8c1.1,0,2.8-4.2,4.1-10c4.4-19.6,5.4-22.3,8.5-22.7c1.4-0.2,2.5,0.3,3.8,2c1.7,2.2,1.9,2.2,3.2,0.9 c3.1-3.1,0.7-11.1-3.7-12.3C221.7,61.3,221.1,61.2,220.4,61.2L220.4,61.2z M358,61.5c-0.9,0.1-3,4.8-5.5,11.9 c-1.7,4.9-1.7,5.3-0.4,9.4c0.9,2.9,1.7,11.1,2.5,24.3c0.6,11,1.7,27.7,2.4,37.2c6.5,92.9,7.6,113.2,6.8,124.4 c-0.4,4.8-0.7,10.4-0.7,12.2s0.2,3.2,0.7,3c1.2-0.7,5.5-12.6,7.3-19.9c3.2-13.4,3.6-24.7,1.7-53.8c-1-14.5-2.1-30.7-2.5-36 s-1.3-17.5-2-27.2s-1.6-22.1-2-27.6s-0.8-11.9-0.8-14.3V101l3.6,3.3c3.7,3.4,6,4.2,6,2c0-3-15.4-43.8-16.8-44.7 C358.1,61.5,358.1,61.5,358,61.5L358,61.5z M278.7,113.3c-0.5-0.1-17.9,6-38.5,13.7s-38.9,14.4-40.5,15c-2.9,1-3.5,1.9-5.4,7.9 c-0.6,1.9,0.6,1.6,21.1-6.6c11.9-4.7,30.8-12.1,41.9-16.3c19.9-7.6,20.2-7.7,21.3-10.6C279.4,114.3,279.4,113.5,278.7,113.3 L278.7,113.3z M131.7,144.8l-1.6,2c-2.4,2.9-1.8,9.3,1.6,16c2.4,4.8,2.5,5.2,1.2,6.6c-1.5,1.7-2.6,1.8-5.4,0.6 c-2.5-1.1-2.8-2-4.1-9.9s-2.7-13.2-3.6-13.2c-0.4,0-1.1,1-1.6,2.3c-0.8,1.9-0.7,3.6,0.3,8.8c1.4,7,1.2,9-1.5,11.9 c-3.6,4-7,3.6-8.9-1.1c-0.8-2-1-4.6-0.6-10.2c0.6-8.8-0.1-9.9-3.8-6.3c-2.7,2.6-3.3,7-1.2,7.8c0.9,0.4,1.2,1.8,1.2,6.2 c0,7.3,1.1,11.2,3.7,13.3c4,3.1,8.8,1.3,11.8-4.6l1.9-3.8l0.8,2.1c1.9,5,7.9,7.2,10.8,4.1c4.3-4.8,4.8-12.2,1.4-21.6 c-1.3-3.6-2.4-7.6-2.4-8.8L131.7,144.8z M52.5,158.8c-4.5,0-11,4.8-13.2,10.9c-1.8,5.2-1.5,7.3,1.8,10.6c1.4,1.4,3,2.8,4.6,3.9 c1.5,0.9,1.4,1.1-2.4,4.6c-4.8,4.4-12.9,9.9-31,20.7C5,214-0.6,217.7,0,217.8c1.4,0.3,17.9-5.7,23.8-8.6c6.9-3.5,18-11.8,23.2-17.3 l4.8-5.1l2.1,1.8l2.2,1.8l-2,6.1c-4.2,12.6-4.9,23.5-1.8,27c1.1,1.2,2.3,1.6,4.3,1.4c4.2-0.4,6.3-3.8,8.4-13.8 c0.5-2.4,0.5-2.3-1.3,0.6c-3.9,6.4-7.7,6.6-9.5,0.6c-1.2-4.1,0-11.3,3.3-19.9c2.9-7.5,3-9.9,0.2-12.4c-2-1.9-2.1-2.1-1.2-6.5 c1.3-6.3,1.2-10.8-0.3-12.9C55.4,159.4,54,158.7,52.5,158.8L52.5,158.8z M258.2,164.5c8.2,0,17.2,1.8,17.2,3.4 c0,0.4-3.4,2.6-7.5,4.9s-7.5,4.3-7.6,4.3c-1-0.9-2-1.9-2.9-2.9c-2.1-2.1-4.3-4-6.7-5.8C245.7,164.9,246.5,164.5,258.2,164.5 L258.2,164.5z M49.1,167.1c1.6,0,2.4,1.1,3,3.7c0.3,1.3,0.2,2.7-0.1,4c-0.6,1.6-0.7,1.6-4.4-0.8c-2.1-1.3-3.8-2.9-3.8-3.6 s1.2-1.8,2.8-2.6C47.4,167.4,48.2,167.1,49.1,167.1L49.1,167.1z M219.1,242.5c1,0,1.9,0.2,2.9,0.4c11.8,2,23.8,3,35.8,3.1 c18.8,0,48.9,1.4,57.1,2.7c17.5,2.7,29.9,14.2,29.9,27.9c0,5.8-1.4,9.5-6.2,16.2c-11.9,16.7-34,31.4-55.2,36.8 c-23.5,6-50.2,0.7-62.4-12.5c-5.3-5.8-7.8-10.4-10.2-18.9c-2.1-7.5-2.4-21.4-0.8-30.6c1.1-6.3,5.1-19.7,6.9-23.3 C217.7,243,218.1,242.5,219.1,242.5L219.1,242.5z M259.2,256.4c-5.8,0-16.2,12-16.2,18.6c0,3.1,2.1,6,6,8.2c1.5,0.8,1.5,0.9-0.1,3.2 c-3.9,5.5-6.1,11.2-6.5,16.6c-0.4,6.1,0.5,8.8,3.8,10.6c3.1,1.7,14.1,1.5,20-0.4c5-1.6,11.6-5.3,14.1-8.1c1.8-2,1.5-2-6,0 c-4.7,1.1-9.6,1.7-14.4,2c-7.1,0.4-8.8,0.2-11.2-1s-2.8-1.8-2.7-4.3c0.1-5,8.4-15.3,18.4-23c3.5-2.7,6.2-8,5.7-11.2 c-0.2-1.6-0.7-1.4-5.5,2.8c-4.9,4.3-5.4,4.5-8.6,4.1c-3.9-0.4-7.5-3.2-6.8-5.2c0.8-2.3,3.6-4.9,5.3-4.9c1.1,0.1,2.1,0.5,2.9,1.2 c1.2,1.1,1.5,1,3.1-0.9C263.4,261.1,262.6,256.4,259.2,256.4L259.2,256.4z M198.7,329.4c-0.2-0.2-18.8,6.5-41.4,14.9l-41,15.2 l-1.3,3.1c-0.7,1.4-1.1,2.9-1.4,4.4c0,1,3.4-0.1,15.8-5c8.7-3.5,26.6-10.5,39.8-15.5s24.8-9.5,25.8-10 C196.5,335.7,199.5,330.2,198.7,329.4L198.7,329.4z"/>
</svg>