<svg xmlns="http://www.w3.org/2000/svg" width="461" height="377">
<path d="M459.4,0c-1.9,0.2-9.3,2.8-35,12.3c-18.5,6.9-36.7,13.6-40.4,14.9c-6.2,2.2-6.8,2.6-8.2,5.7c-0.7,1.4-1.2,2.8-1.5,4.3 c0,0.5,0.1,1,0.3,1s11.6-4.5,25.4-9.9s31.8-12.4,39.9-15.5s15.4-5.8,16-6.1c1-0.4,4-5.2,4-6.4C460,0.1,459.9,0,459.4,0L459.4,0z M288,7.1c-1.1,0-81.1,29.6-81.9,30.4c-0.9,1.5-1.6,3.1-2.2,4.7l-1.6,4.1l4.2-1.7c14.2-5.8,49-19.4,62.9-24.7 c15.2-5.8,16.4-6.4,17.8-8.9C288.9,7.8,289.1,7.1,288,7.1z M358,11.3c-10.7,0.3-30.8,6.7-59.6,19c-52.1,22.2-89.5,43.1-93,51.8 c-1.3,3.3-3.7,12.1-3.7,13.6c0,1.1,1.3,1.2,2,0.1c0.3-0.4,4.3-3.1,9-5.9c35.8-21.5,107.6-54.2,131-59.8c10.2-2.4,17.9-0.4,15.6,4.2 c-1.3,2.5-7.7,10.5-15.3,19.4c-6.9,8-13.9,20.8-14.7,26.9l-0.5,3.6l2.4-4.2c3.5-6.1,7.6-11.6,15.6-20.6 c14.1-15.9,20.4-26.8,21.1-36.4c0.5-7.5-0.6-10.1-4.9-11.2C361.4,11.4,359.7,11.3,358,11.3L358,11.3z M399.3,37.5 c-0.4,0-2,3.5-3.6,7.8c-3,8-3.1,9.1-1.3,15.8c0.5,1.8,1.2,10.6,1.7,19.6s2.1,34.2,3.6,56s3.2,45.2,3.7,52c1.2,17.3,1.2,33.3,0,37.1 c-1.9,5.6-12,10.9-20.9,10.9c-5.8,0-13.1-2.5-19.5-6.7c-2.5-1.7-9.9-8.7-16.4-15.5s-15-15.8-19-19.8 c-18.1-18.3-56.1-47.9-107.9-84.2l-18.5-12.9l-0.6,2.9c-0.4,3.2-0.6,6.4-0.6,9.6v6.6l8.9,7c21,16.4,48.8,38.5,55.5,44.1 c34.2,28.6,51,48.5,55.5,65.6c0.8,3,0.7,3.7-0.7,6.1c-3.2,5.1-14.1,10.7-22.6,11.5c-2.7,0.5-5.4,0.5-8.1-0.1c-2.9-0.6-6-3.4-8.1-7.6 c-1-2-1.3-4.2-1.1-8.8c0.2-5.2,0.1-6.1-1-6.3c-0.8-0.2-5.2,3.3-11.5,9.2c-12.1,11.3-17.1,14.9-24.3,17.1c-6.7,2.1-15.5,2.8-19.8,1.6 c-10-2.7-12.4-8-16.3-35.6c-3.5-24.9-7.6-36.5-12.8-36.5c-2.6,0-3.9,3.1-4.8,11.4c-0.4,4.1-1.3,8.1-2.5,12.1 c-2.2,5.8-7,10.2-11.1,10.2h-4.5c-5.4,0-8.1-2.5-13.4-12.1c-1.3-2.3-1.6-2.5-2.2-1.2c-1.1,2-4.7,14.2-4.7,16.1 c0,0.9,1.6,5.2,3.6,9.6c4.4,9.9,7.6,22.1,7.6,28.8c0,4.7-0.2,5.3-3.2,9.1c-6.6,8.3-25.2,22.3-45.1,33.6 c-14.6,8.4-37.8,19.3-73.2,34.4C5.6,350.6,0,353.1,0,354s10.8-0.5,20.8-2.8c38.1-8.7,59.4-14.1,65.4-16.7c3.6-1.6,12.3-6,19.2-9.8 c33.4-18.5,50.2-31.4,56.1-43.1c4.2-8.2,5-12.7,5.5-29.2l0.4-15.1c3,0.2,6.7,0.7,8.7,0.1c6.3-1.8,10.5-8.5,13.5-21.8 c1-4.3,2.1-8,2.5-8.2c2.4-1.5,4.7,5.4,6.7,20.1c3.5,25.5,4.4,30.7,6,35.1c2.3,6,7.2,11.1,12.5,12.8c2.7,0.9,6.2,1.2,11.9,1 c7.6-0.2,8.4-0.5,15-3.6c7.1-3.4,13-8.5,22.3-19.1c4.1-4.7,6.3-5.4,6.3-2c0.3,4.7,1.7,9.2,4.1,13.3c2.1,3,6.5,5.5,11.4,6.4 c2.9,0.7,4.7,0.3,7.2,0.1c10.4-1.6,21.7-10.3,26.5-20.4c5.9-12.2,5.6-24.2-0.6-38.6c-0.7-1.6-1-3-0.6-3s6,6.3,12.4,14 c14.5,17.4,19.5,22.5,26,26.7c10,6.5,23.4,8.5,31.9,4.9c11.9-5.1,20.4-22.5,22.8-46.6c1.1-11.3,0.5-24.2-4.1-88.2 c-1.7-23.3-2.9-42.7-2.7-43s2,1,3.9,3s3.9,3.6,4.4,3.6c2,0,0.3-6.6-6.1-23.6C401.8,40.9,400.3,37.4,399.3,37.5L399.3,37.5z M431.3,40.7c-0.9,0-6.4,14.8-6.4,17.1c0.2,2.2,0.6,4.4,1.1,6.6c0.9,4.8,1.4,9.8,1.6,14.7c0.5,11,2.3,37.8,5.9,91.2 c4.6,67.5,4.7,70.4,2.8,89c-0.7,6.4,0.6,5.9,3.6-1.2c7.5-18,8.6-33.2,5.7-75.4c-1.7-24.7-6-84.4-6.9-95.4c-0.3-3.6-0.3-6.6,0.1-6.6 s2,1.4,3.8,3.2c6,6,6.9,3.6,2.9-7.7C441.1,63.5,431.9,40.7,431.3,40.7L431.3,40.7z M159.6,67.1c-4.6,0-7.8,5.6-10.8,18.8 c-1,4.4-2.1,8.7-2.4,9.6c-0.5,1.4-0.7,1.3-1.1-0.8c-2.5-11.3-7.2-20.1-12-22.3c-3.9-1.9-4.6-1.6-7.1,2.3c-2.8,4.6-2.7,6.2,0,8.8 c2.7,2.6,4.8,3.2,6.3,1.9c1.1-0.9,1.5-0.7,3.1,1.1c2.2,2.5,6.6,13.7,7.8,19.8l0.9,4.3l1.4-1.8c1.6-2,2.4-4.6,4.7-15.4 c1.6-7.6,3.6-13.8,5-15.6s4-1.1,5.9,1.2c1.5,1.8,2,2,3,1.2c1.8-1.5,2.4-5.3,1.3-7.5C163.9,69.4,161.4,67.1,159.6,67.1L159.6,67.1z M289.2,85.6c-0.4-0.2-4.8,8.8-6.6,13.9c-1.5,4.3-2.1,7.7-2.4,14.8c-0.3,8.5-0.2,9.4,1.4,11.4c2.2,2.8,5.8,2.9,8.4,0.3 c1.6-1.6,3.5-6.5,4.9-12.9c0.3-1.6,0.3-1.6-0.7-0.1c-4.6,6.8-7.6,7.9-9.9,3.6c-1.7-3.4-1.1-9.7,1.9-20.2c1.3-4.4,2.6-8.9,2.9-10 C289.3,85.8,289.3,85.6,289.2,85.6L289.2,85.6z M332.3,119.1c-4.9,0.1-6,0.5-8.2,1.7c-2.9,1.5-4.3,3.1-7.4,8.2 c-2.1,3.5-3.8,6.9-3.8,7.4c0,0.8,2.1,0.9,10.2,0.5c11.4-0.6,25.5,0.6,27.2,2.4c1.5,1.5-1.3,3.5-15.9,11.3c-11.8,6.3-20,11.2-20,12 s19.5-4.6,27.3-7.6s14-9,22.4-21.6c5.2-7.9,5.2-10,0.1-12.3c-3.4-1.5-5.5-1.8-20.2-2c-4-0.1-7-0.1-9.4-0.1L332.3,119.1z M137.1,148.7c-2.1,0.2-4.2,1-5.9,2.3c-4.9,3.3-8,8.2-8,12.7c0,4.6,0.8,6,5.4,9.1l3.7,2.6l-3.6,3.1c-5.2,4.5-16.2,11.9-30.7,20.4 c-7,4.1-13.3,8-14,8.6c-1.7,1.6-1.1,1.5,9.3-2.4c17.2-6.3,27.2-12.3,36.8-21.9c3.2-3.2,6.1-5.8,6.4-5.8c1.1,0.5,2.1,1.1,2.9,2l2.2,2 l1.6-2.6c2.6-4.1,2.9-6.4,1.1-7.6c-4.6-3-4.6-3-3.6-6.3c1.4-4.9,1.1-13.1-0.4-14.9C139.4,149.2,138.3,148.7,137.1,148.7L137.1,148.7 z M133.3,157c1.9,0.1,3.5,2.6,3.5,5.8c0,1.4-0.3,2.8-0.7,3c-0.8,0.5-4.9-1.9-6.8-4.1c-1.3-1.5-1.3-1.6,0-2.8c0.9-0.8,2-1.4,3.1-1.8 c0.1,0,0.3-0.1,0.4-0.1C133,157,133.2,157,133.3,157L133.3,157z M377.9,173.4c-0.9,1.2-1.6,2.5-2.2,3.8c-5.7,11.2-8.7,25.2-7,32.4 c0.3,1.8,1,3.6,1.9,5.2c0.6,0.7,2.1,1,4.1,0.9c4-0.3,5.8-2.5,7.8-9.9l1.5-5.5l-3.5,4c-3,3.4-3.8,3.9-5,3.1c-4.3-2.6-4.3-10,0-24.5 C376.4,179.8,377.3,176.7,377.9,173.4L377.9,173.4z M238.4,180.4c-0.5,0.1-2,3.1-4,7.9c-3.5,8.5-5,15.1-5.1,22.3s1.2,10.9,4.3,11.6 c3.7,0.9,6-0.6,8.1-5.2c1.4-3.2,3.2-10,2.6-10c-0.9,1-1.8,2-2.4,3.2c-2.6,4-4.7,4.8-6.9,2.6c-3.4-3.4-2.6-11.3,2.9-29.3 C238.6,181.3,238.7,180.4,238.4,180.4L238.4,180.4z M97.3,236.9c-0.2,0-0.5,0.6-1.1,1.7c-8.2,15.2-10.9,35.2-5.2,39.4 c2,1.2,4.5,1.3,6.6,0.2c1.7-0.9,4.5-7.1,5.3-11.6l0.6-3.2l-2.1,3c-1,1.5-2.3,2.9-3.8,3.9c-1.5,0.8-2,0.6-3.6-1.2 c-2.8-3.3-2.5-10,0.9-21.9C97,239.9,97.7,236.9,97.3,236.9L97.3,236.9z M345.1,261.9c-4.3,0-5.4,0.4-9.6,3.1 c-6.7,4.4-12.3,10.3-16.2,17.3c-3.2,5.8-4,8.9-2.7,10.9c1.8,2.8,11.2,3.4,22.2,1.5c7.7-1.4,14.4-1.5,18.1-0.3s5.3,2.8,4.2,3.9 c-0.5,0.5-7.3,2.1-15.2,3.7c-17.1,3.4-30.2,4.3-35.3,2.5c-2.7-1-3.4-1-3.4-0.1c0,1.8,4.2,6.1,7.5,7.7c2.8,1.3,4.5,1.5,11.6,1.1 c9.9-0.6,19.7-2.4,29.2-5.3c5.6-1.7,6.1-2,7.6-5.1c2.4-4.9,2.2-10.8-0.4-13.9c-3.1-3.7-8.5-4.6-18.4-3c-4.4,0.7-9.7,1.4-11.9,1.6 c-3.8,0.4-10.4-0.4-11.3-1.4c-1.4-1.4,8.4-10.2,15.8-14.1c5.1-2.8,7.5-3,9.6-1.1c1.4,1.2,1.5,1.2,2.4-1c0.6-1.6,0.9-3.4,1-5.1 l0.1-2.8L345.1,261.9z M208.8,301.4l-2.9,5.9l-2.9,5.9l-7.5-5.2c-4.1-2.8-8-5-8.7-4.9s-2.8,3.6-4.8,7.6l-3.5,7.4l7.1,4.9 c2.6,1.7,5.2,3.6,7.6,5.6c1.1,1.8,3,0.2,5.7-4.9c1.7-3.1,3.2-5.6,3.5-5.6c2.7,1.6,5.3,3.3,7.8,5.2c4.1,2.9,7.5,5.2,7.7,5.2 c0.9,0,6.9-11.3,7.3-13.7c0.4-2.6,0.1-2.9-5.4-6.8c-3.2-2.2-7-4.7-8.4-5.4L208.8,301.4z M257.5,302.3c-0.9,0-2.5,2.5-4.6,7.1 c-1.3,2.5-2.4,5.1-3.3,7.8c0,0.4,3.5,3.1,7.8,6s8.2,5.4,8.6,5.4c1,0,7.5-12.2,7.5-14.3c-0.2-1.2-0.9-2.2-1.8-3 C268.7,308.5,258.9,302.3,257.5,302.3L257.5,302.3z M290.3,337.9c-0.2-0.2-13.5,4.6-29.5,10.5s-34.4,12.7-40.8,15 c-12.3,4.5-13.4,5.3-14.9,11.1c-0.4,1.8-0.3,2.2,0.6,1.9c9.7-3.9,55.3-21.8,66.9-26.2c15.1-5.7,15.4-5.9,16.7-8.9 C290,339.6,290.5,338.1,290.3,337.9L290.3,337.9z"/>
</svg>