<svg xmlns="http://www.w3.org/2000/svg" width="461" height="323">
<path d="M78.4,0l-2,4.4c-3.2,7.2-4.8,12.8-4.3,15.1c0.2,1.2,1,4.5,1.7,7.3C74.5,30.9,75,35,75,39.2c0,6.6,1,21.5,4.4,65.2 c0.7,9,1.6,20.5,2.1,25.6c1.4,15.9,1.9,44.8,0.8,49.2c-0.9,3.9-4.2,8.5-13.7,19.4l-3.6,4.2l-7.2,1c-4.5,0.6-16.8,0.9-32.7,0.8 c-20-0.1-25.4,0-25.1,0.8c0.9,3,22.8,11.8,39.4,15.9c9.2,2.3,22.3,2.3,42.3-0.1c16.4-1.9,25.6-2.2,24.7-0.7 c-2.6,4.2-3.5,22.1-1.5,29.9c5,19.1,24.4,32.7,57.2,39.9c28.1,6.2,69.6,7.5,104,3.2c29.3-3.6,66.3-11.5,98.8-20.9 c26-7.5,30.1-8.5,31-7.3c0.4,0.5,0.5,10.4,0.3,22s-0.1,21,0.1,21c0.8,0,5.6-12.6,7.2-19.2c1.1-5.3,1.9-10.6,2.4-16 c0.5-5.5,1.1-10.2,1.4-10.4s10.4-0.5,22.5-0.6s22.3-0.4,22.8-0.6c1.2-0.7,8.8-16.3,8.3-17.1c-0.2-0.4-3.2-0.9-6.6-1.2 c-18.5-1.6-47.2-5.6-48.3-6.7c-0.3-0.3-0.9-6.1-1.4-13c-1.6-23.3-4.9-69.2-5.7-78.4c-0.4-5.1-0.8-11.6-0.8-14.6v-5.4l3.6,3.6 c3.8,3.7,6,4.5,6,2.2c0-2.5-12.6-36.9-15.8-43c-1.1-2.2-1.3-2.2-2.2-1c-1.4,2.8-2.6,5.6-3.6,8.6l-2.6,7.2l1.4,4.6 c0.8,2.8,1.6,10,2.1,19c0.8,13.9,5.8,89.4,6.8,102.2l0.5,6.2l-1.9-0.4l-16.7-3.7c-13.7-3-29.5-6.8-31.8-7.6c-0.7-0.2,0-1.6,1.9-4.1 c4.3-5.9,7.5-12.5,9.4-19.5c4.5-18.1,3.9-54.1-1.9-122.7c-0.4-5.2-0.6-9.7-0.4-9.9s2,1.1,3.8,2.9s3.9,3.3,4.4,3.3 c2.4,0,0.9-5.4-7-26.3c-6.3-16.7-7.8-20.1-8.7-20.1s-5.7,12.1-6.3,15.6c-0.1,2.3,0.2,4.6,0.9,6.8c0.8,2.8,1.6,10,2.1,20 c0.4,8.6,1.3,23.5,2,33.2c3.8,54.4,4.5,68.1,4.2,83.1l-0.2,15.9l-2.5,2.2c-2.4,2.1-13.1,5.9-39.7,14.1l-7,2.1l-3.6,7.1 c-2,3.9-3.4,7.4-3.2,7.8s3.8,0.9,7.9,1.1c7.9,0.5,22.3,3.3,45.8,8.9c7.9,1.9,17.9,4.2,22.3,5.2s7.6,2.1,7.2,2.4 c-2.3,2.2-33.6,10.3-57.1,14.7c-32.9,6.2-57.6,8.5-89.6,8.5c-59,0-91-7.6-108.5-25.8c-2.7-2.8-5.1-6-7.1-9.4 c-2.6-5.6-4.1-11.7-4.4-17.8v-2.9l5.8-0.4c3.2-0.2,9.4-0.7,13.8-0.9c30.9-5.4,59-3.8,83.3-19.7c2-1.4,4.1-2.7,6.2-3.9 c0.2,0,0.4,1.7,0.4,3.7c0,10.5,6.1,17.5,17,19.4c5.3,0.9,16,0.3,23.4-1.3c14-3.1,29.8-13.3,36.6-23.7c4.7-7.1,6.3-12.6,6.8-23 c0.5-12.3-1-20.2-6-30.4c-6.7-13.7-18.3-23.2-28.3-23.2c-4.1,0-8.5,2.3-12.1,6.2c-12,13.3-14,32.4-4.2,39.8c3,2.3,3.2,2.3,16.3,2.8 c11.1,0.4,14.1,0.8,18.1,2.3c5,1.9,10.8,6.8,10.8,9.1c0,0.7-1.9,2.8-4.2,4.6c-11,8.7-33.9,16.7-48.4,16.8 c-7.8,0.1-12.3-2.1-16.2-7.7c-2.6-3.9-2.7-4.1-2.2-10.2s0.4-6.2-1.2-6.2c-0.9,0-4.6,1.8-8.1,4.1c-16.8,8.7-40.6,22.1-57,19.8 c-0.2-0.2,1.6-1.7,3.9-3.3c8.3-5.8,15.8-14.2,19.7-22c4.3-8.6,4-12.7-1.4-20.9c-6.8-10.3-14.9-16-23.9-16.7 c-14.1-1.1-34.6,9.1-55.1,27.6c-4.3,3.9-9.3,8.3-11,9.8l-3.2,2.8l0.5-2.4c0.3-1.3,1.2-8.5,2.1-15.9c2.5-21.1,2.4-24.8-3.2-90 c-1-10.4-2-20.2-2.3-21.8c-0.8-4.8,0.2-5,4.7-0.9l4.1,3.8l0.2-2.6c0-2.5-0.5-4.9-1.3-7.2C90.3,28.8,81.5,6,79.9,3.1L78.4,0z M274.9,14.1c-0.4-0.2-39.9,14.4-87.6,32.4l-86.8,32.6l-1.2,2.8c-0.6,1.5-1.2,3.1-1.7,4.8c-0.3,1.1-0.2,1.8,0.2,1.6 c2.5-1.5,100.8-39.7,147.9-57.5L273,20.5l1.4-3C275.2,15.6,275.4,14.3,274.9,14.1L274.9,14.1z M444,46.2c-1.7-0.1-8,2.3-31.4,11 C397,63,379.2,69.6,373.2,71.8c-11.8,4.3-11.6,4.2-13.7,10.9c-0.3,0.9-0.3,1.7-0.1,1.7s9.2-3.4,19.9-7.7 c27.1-10.7,60.5-23.5,61.4-23.5s4-4.7,4-6.3C444.6,46.5,444.6,46.2,444,46.2L444,46.2z M251.9,70.1c-0.8,0-2.4,2.5-4.5,6.9 c-1.2,2.5-2.3,5-3.2,7.6c0,0.4,3.4,3.2,7.6,6.2s8,5.5,8.5,5.6c1.2,0.1,7.5-12,7.5-14.4c-0.1-1.1-0.6-2.2-1.4-2.9 C262.5,75.9,253.1,70.1,251.9,70.1L251.9,70.1z M313.2,73.2c-17.5,0-18.6,0.5-24,9.5c-2,3.4-3.9,6.8-4.2,7.4 c-0.4,1,1.9,1.2,15.4,1.2c16.9,0,23,0.9,22.5,3.3c-0.1,0.8-6.8,4.9-15.6,9.8c-8.4,4.7-16.7,9.5-18.4,10.7c-3,2.2-3,2.2-0.6,1.7 c14.5-3.2,29.6-8.6,33.8-12.1c7.7-6.3,19.1-22.7,18.3-26.2C339.4,74.7,331.6,73.2,313.2,73.2L313.2,73.2z M222.9,77.3 c-0.2,0-0.4,0-0.6,0c-4.5,0.5-8.4,9.4-11.8,26.9c-0.6,3.3-1.6,2.7-2.3-1.4c-1.2-7.5-6.1-16.8-10.3-19.5c-1.2-0.7-2.5-1.3-3.9-1.7 c-1.9-0.5-2.3-0.1-4.6,3.9c-2.9,5-2.7,6.3,1.6,9.4c2.1,1.5,2.9,1.7,4.9,0.9c2.2-0.8,2.4-0.7,3.9,1.7c2.1,3.5,6.2,14.1,7.2,18.9 c1.4,6.8,3.6,3.3,6.6-10.8c4-18.5,6-21.6,11.1-16.7c3,2.8,4.7,1.6,4.7-3.5c0-2.9-0.5-4-2.4-5.9C226,78.3,224.5,77.5,222.9,77.3 L222.9,77.3z M128.8,98.8c-0.9,0-2.5,2.3-4.8,7.4l-3.4,7.4l1.8,1.4c1,0.8,4.6,3.3,7.9,5.7c3.3,2.4,6.4,4.4,6.9,4.4 c1.1,0.1,7.2-11.4,7.6-14.3c0.2-1.7-0.8-2.7-7.1-7C133.5,101.1,129.6,98.9,128.8,98.8L128.8,98.8z M60.2,99.6 c-3.3,0-10.6,5.6-12.8,9.8c-0.7,1.8-1.1,3.7-1.1,5.7c0,4.1,1.7,6.7,6.1,9.4l2.9,1.8l-3.9,3.6c-5.2,4.7-14.4,10.8-31.4,20.8 c-7.6,4.5-13.8,8.3-13.8,8.6c0,0.8,1.8,0.2,11.1-3.2c16.7-6.2,26.2-12,35.9-21.8c6-6.1,6.3-6.1,9.5-3.2c1,0.9,1.9,1.5,2.1,1.3 c1.4-1.8,3.8-6.4,3.8-7.3c0-0.7-1.3-2.3-2.9-3.6c-2.8-2.3-2.9-2.4-2-5.5c0.6-2.7,0.9-5.4,0.9-8.2C64.6,102.6,63,99.6,60.2,99.6 L60.2,99.6z M56.1,108.4c2.4,0,3.9,2.1,3.6,5.7c-0.3,3.3-1.2,3.5-4.8,1c-3.3-2.2-3.9-4.6-1.5-5.9C54.2,108.8,55.1,108.5,56.1,108.4 L56.1,108.4z M264,135.6c5,0,13.5,5.2,15.9,9.7c0.8,1.4,0.5,1.5-3.8,1.4c-10.9-0.2-16.2-1.6-17.9-4.8S259.5,135.6,264,135.6 L264,135.6z M146.1,154.4c6.3-0.2,12.5,1.9,17.4,5.8c3.7,2.9,11.7,13,11.1,13.9s-10.6,5.9-19.3,9.4c-16.7,6.6-35.9,11.8-58.6,15.6 c-6.4,1.1-14.3,2.2-17.6,2.5l-6,0.5l10.8-10.5c16-15.7,27.5-24.5,39.6-30.6C132.1,156.7,139.5,154.5,146.1,154.4L146.1,154.4z M203.7,220.4c-1.1,0-2.2,1.5-3.9,5.4c-1.3,3-2.6,5.6-2.8,5.8s-1.1-0.4-2.1-1.3c-2.8-2.6-12.9-9.1-14-9.1c-0.6,0-2.7,3.5-4.8,7.7 c-3,6.3-3.5,7.8-2.6,8.3c0.6,0.4,4.2,2.8,7.9,5.5s7.2,4.8,7.8,4.9s2.3-2.5,3.8-5.6s3-5.6,3.3-5.6c2.8,1.6,5.5,3.4,8.1,5.3 c8.8,6.1,7.9,6.4,12.8-3.6c2.2-4.5,2.7-6.2,2-7.2C218,228.9,205.4,220.4,203.7,220.4L203.7,220.4z M281.1,231 c-0.2-0.2-17.4,5.9-38.2,13.6s-39.2,14.5-41,15.1c-2.5,0.9-3.4,1.8-4.6,4.6c-0.7,1.5-1.2,3-1.5,4.6c0,1,0.3,1,2.2,0 s44.9-17.9,70.2-27.6c9.7-3.7,10.5-4.2,11.8-7C280.8,232.7,281.3,231.2,281.1,231L281.1,231z M75.8,234c-1.4,0.1-2.8,0.6-4,1.4 c-2.5,1.5-5.5,6.8-5.5,9.7v1.8l2.7-2.1c3.7-2.8,6.6-2.7,8.1,0.3c1.7,3.3,1.6,4.9-1.4,14c-2.1,6.5-3.2,8.6-5.8,11.3 c-3.7,3.8-6.2,4.3-18.5,4.3c-4.9,0-7.3,0.3-7,0.8c0.7,1.2,6.6,4,11.6,5.7c9,2.9,24.5-0.3,36.1-7.4c5.9-3.7,10.4-12.2,8.1-15.6 c-0.9-1.4-5.5-3.5-7.7-3.5c-2.8,0-7,1.9-11.3,5.2c-3.4,2.6-3.7,2.7-3.2,1c0.5-1.4,1-2.7,1.7-4c1-2.4,1.8-4.8,2.3-7.3 C84.1,240.2,81.1,233.7,75.8,234L75.8,234z M88.4,262.8c2.6,0,5.2,1.5,4.5,2.5c-0.3,0.5-2.7,1.9-5.4,3.1c-5.9,2.6-13.3,5-13.3,4.1 C74.2,270.5,85.5,262.8,88.4,262.8L88.4,262.8z M372.5,275.6c-2.9,0-5.7,0.4-7.2,1.2c-1.7,1.1-3.1,2.6-4,4.4c-2,4-2,4.1,0.5,3.2 c3.9-1.5,15.5-0.5,15.5,1.4c0,0.2-3.3,4-7.3,8.5c-8.7,9.6-10.6,13-10.6,18.8c0,4.7,1.4,6.8,5.5,8.7c3.4,1.6,14.7,0.9,20.5-1.3 c4.9-1.8,14.1-8.2,12.6-8.7c-0.5-0.2-4,0.5-7.9,1.5c-8.3,2.1-20,2.5-24,0.9c-3-1.3-4-3.9-2.5-6.5c0.5-1,4.4-5.5,8.7-9.9 c11.9-12.5,14-18.2,7.7-20.9C377.7,276,375.1,275.6,372.5,275.6L372.5,275.6z"/>
</svg>