<svg xmlns="http://www.w3.org/2000/svg" width="466" height="342">
<path d="M238.2,0c-0.4,0-1.6,2.1-2.8,4.9c-6.8,15.2-8.4,30.5-3.5,35.3c1.5,1.5,5,1.5,6.9,0.1s4.3-7.1,5-11.3c0.4-2.7,0.4-3-0.4-1.6 c-4.8,8-10.4,6.5-10.4-2.7c0-4.5,1.3-10.5,4.1-19.2C238,2.8,238.5,0.3,238.2,0L238.2,0z M299.2,32.1c-2.7-2.2-2.8-2.4-2-5.5 c1-4.3,1-12.1,0-14.1c-0.6-1.1-2.1-1.6-4-1.6L293,11c-2,0.1-3.9,0.7-5.6,1.8c-4.8,3.2-7.4,7.3-7.8,12c-0.3,3.7-0.1,4.5,1.8,6.8 c1.3,1.5,2.9,2.8,4.6,3.9l2.5,1.3l-4.3,4c-5.4,5-12.2,9.5-29.4,19.7c-7.6,4.5-14,8.5-14.2,9c-0.8,1.2,0.2,1,9.4-2.4 c16.7-6.1,26.3-11.9,36.2-21.8c6.5-6.5,7.4-6.8,10.1-3.5c1.5,1.8,2,1.6,3.9-1.9C302.6,35.7,302.4,34.8,299.2,32.1L299.2,32.1z M288,25.8c-3.3-2.2-3.9-4.6-1.5-5.9c0.8-0.5,1.7-0.8,2.7-0.9c2.4-0.1,3.8,2,3.8,6C293,28.4,292.1,28.6,288,25.8z M195.7,25.6 c-2.2,0-4.7,1.6-6.4,4.3c-1.6,2.4-4.6,12.6-6,20c-0.5,2.8-1.2,5.2-1.4,5.2s-1.1-2.5-1.8-5.7c-2.6-11.1-8.4-19.1-13.7-19.1 c-2.5,0-2.9,0.4-5,4.4l-2.3,4.5l3,2.8c2.9,2.7,5.7,3.5,6.6,2c1.5-2.5,5.3,4,9.3,15.8l2.2,6.6l-1.9,1.9c-2.1,2.1-3.6,6.6-3.6,10.8 v2.8l2.3-2.7c2.1-2.5,2.5-2.7,4.5-2c2.3,0.8,3.6,2.8,1.9,2.8c-2.8,0-7.7,3.4-9.4,6.4c-2.5,4.5-2.4,9.7,0.6,24.8s4.1,23.9,4.2,32.8 l0,0c0,5.8,0.2,6.5,0.9,4.8c0.6-1.2,0.9-7,0.9-15.2c0-13.8-1-21.5-4.5-33.4c-1.4-4.9-1.5-6-0.6-7.1c1.4-1.7,6-3.6,12.8-5.4 c4.7-1.2,5.4-1.7,6.6-4.2c2.3-4.8,1.8-6.9-2.7-11c-2-1.9-4.3-3.4-6.8-4.6c-3.1-1.1-3.1-1.2-1.9-4.4c1.1-3.7,2.1-7.5,2.8-11.4 c2.1-10.1,4.7-16.2,7-16.7c0.8-0.2,2.5,0.7,3.9,2c2.3,2.2,2.4,2.2,3.5,0.7c2.6-3.5,0.1-11.1-4.1-12.1 C196.3,25.8,196,25.6,195.7,25.6L195.7,25.6z M340.4,31c-7.7,0-14.6,0.7-16.9,2C321,34.5,313,46.3,313,48.4c0,0.5,6.1,0.9,17,1.1 s17.8,0.7,19.3,1.3c2.2,1,2.2,1,0.8,2.6c-0.8,0.9-6.2,4.2-11.9,7.3c-12.6,6.8-20.3,11.3-22.5,13c-1.5,1.2-1.5,1.3,1.2,0.8 c4.3-0.8,20.7-5.7,26-7.7c6-2.3,13.5-9.6,20.3-19.8c5.9-8.9,6.4-11.3,2.2-13.2S350.3,31,340.4,31L340.4,31z M464.7,38.5 c-0.2-0.2-13.1,4.4-28.6,10.2s-33.9,12.5-40.7,15c-11.7,4.3-12.5,4.7-13.7,7.3c-0.7,1.5-4.4,9.9-4.7,10.9c3.8-0.7,2.7-6.2,6.6-6.2 c10.1-4.1,54.9-21.6,66.2-26c6.8-2.6,12.9-5.3,13.4-6C464.3,42.4,465.3,38.9,464.7,38.5L464.7,38.5z M114,47.1 c-0.3,0.1-1.5,2.3-2.8,5.2c-8,17.6-9.3,34.5-2.8,37.1c2.5,1,3.2,1,5.2-0.4c2.3-1.7,4.2-5.3,5.5-10.8c1-4.2,0.9-4.3-0.3-2.4 c-3.3,4.8-4.6,5.9-6.7,5.3c-4.8-1.2-4.9-9.4-0.3-24.5C113.2,51.6,114.3,47.3,114,47.1L114,47.1z M422.3,262.3 c-4.7-17.1-19.8-15.4-19.8-15.4c-4,0.2-8,0.9-11.9,2.1c-5.9,2.1-5.8,2.1-6.3-0.5c-0.3-1.2-1-4.9-1.8-8.1 c-2.9-13.8-5.3-36.1-7.5-70.9c-2.1-32.8-3.6-65.9-3-66.6c0.3-0.3,2.1,1,4,2.8c7.7,7.5,7.1,2.8-2.6-22.6c-4.6-12.7-7.8-20.1-8.5-20.1 c-0.9,0-6.4,14.8-6.4,17.1c0.2,2.2,0.6,4.4,1.1,6.6c0.8,3.1,1.4,13.9,2,31.3c1.5,45.7,6.4,99.9,11.5,128l1.8,9.9l-2.8,1.4 c-15.9,8.1-49.5,18.5-75.7,23.5c-36.8,7.1-77.7,9.3-110.2,6c-22.1-2.2-40.9-5.9-49.1-9.6c-10.2-4.6-21.2-14-25-21.4 c-3.5-6.8-5.5-19.4-3.1-19.4c0.6,0,6-0.7,12-1.6c25.9-3.8,57.8-14,92.4-29.5c5.3-2.4,9-3.6,9-3.1s0.4,3.4,0.8,6.5 c1.9,13.1,7.8,19.6,19.1,21.2c0,0,5.3,0.9,7.4,0.4c4.2-1.3,5.4-2,8.2-4.8c3.3-3.3,8-12.4,8.8-17.2c0.5-3,2-3.7,2-0.9 s4.8,11.3,8,14.6c2.4,2.2,5,4.1,7.9,5.5c4.1,1.9,5.3,2.1,12.9,1.9c15.3-0.2,30-5.7,41.6-15.6c11.1-9.4,15.2-17.9,15.9-33.1 c0.5-11.7-1.1-19.8-5.9-29.7c-7.6-15.7-20.6-25.2-31.9-23c-7.2,1.4-17.3,15.5-18.9,26.5c-1,7.4,0.8,14.8,4.5,18.1s6.1,3.7,18.7,4.1 c10.5,0.3,13.1,0.6,17.2,2.2c5,1.9,10.8,6.8,10.8,9.1c0,3.3-15.8,12.5-29,16.8c-12.7,4.2-27.4,5.8-33.1,3.7 c-7.7-2.9-12.4-12.6-16.3-34c-3.3-18.4-8.3-35.5-12.4-42.8l-1.1-2l-1.7,3.8c-1.3,3.4-2.1,7-2.6,10.6c-0.9,6.4-0.8,7.1,1.2,13.8 c5.1,16.9,9,36.8,8.1,41.8c-1.1,5.7-5.9,9.9-11.7,10.3c-4-0.2-15.2-2.6-17.2-5.1c-2.8-3.6-3.6-7.3-3.2-15.1c0.3-5.1,0.1-7.2-0.6-7.5 c-0.5-0.2-5.4,1.6-10.9,4c-44.2,19.2-79.9,29-109.6,29.9c-27.7,0.9-44.6-3.5-56.5-14.6c-10.6-9.9-11.5-20.4-3.5-41.9 c2.6-7,3.2-8.1,4.1-7c1.5,1.9,5.9,1.6,7.8-0.6c1.6-1.8,3.7-6.8,4.6-11.2c0.6-2.9,0-2.8-1.6,0.2c-2.9,5.6-7.4,5.8-9.2,0.4 c-1.2-3.8-0.4-9.4,2.6-18c3.5-10,3.7-11.7,1-14.4c-2.1-2.2-2.2-2.4-1.3-6.4c2-9.2,0.5-15.2-3.6-15.2c-6.8,0-14.7,8.9-14.7,16.7 c0,1.9,4.4,7,7.6,8.7c1.5,0.8,1.5,1-0.8,3.4c-4,4.3-11.1,9.1-28.5,19.6c-14.7,8.9-18.7,11.5-17.1,11.5c1.1,0,20.4-7.6,24.8-9.8 c7.9-4.1,15.1-9.4,21.4-15.7c6.2-5.9,6.2-5.9,8.2-4.6c1.1,0.7,2,1.6,2,1.9s-1.1,4-2.5,8.2c-1.6,4.9-2.6,10-2.9,15.2 c-0.3,5.8-0.8,8.1-2,9.9c-2.4,3.4-6.6,13.8-8.2,20.6c-2.2,8.9-2.1,24.9,0.2,32.4c6.3,20.3,24.2,30.7,53.2,31l10.2,0.1l-0.5,2 c-5.2,20.4,0.5,37.9,15.9,49.4c6.4,4.8,19.1,10.8,28,13.4s24.1,5.1,35.4,6c4.8,0.4,16.3,0.7,25.6,0.8c58.6,0.4,114.6-11,161.1-32.8 c4.6-2.1,8.4-3.9,8.5-3.9c1,1.4,2,2.9,2.8,4.5c6.1,10.7,17.5,19.5,25.2,19.5c7.3,1.7,9.5-2.8,9.5-2.8c1.2-0.8,3.2-3.7,4.5-6.5 c2.1-4.5,2.4-6.1,2.5-12.5C423.3,269.9,423,266.1,422.3,262.3L422.3,262.3z M329.5,158.1c-11.3-0.3-16.6-1.6-18.2-4.6 c-1.2-2.2-1-3,0.8-4.8c1.3-1.1,2.9-1.7,4.6-1.7c2.1-0.1,4.2,0.3,6.1,1.1c2.9,1.2,8.9,6.3,10.1,8.6 C333.6,158,333.4,158.1,329.5,158.1L329.5,158.1z M53.2,103.4c-0.3,1.1-0.7,2-1,1.9c-0.9-0.1-6.4-3.9-6.9-4.8 c-0.9-1.5,2.2-3.9,4.6-4.1c0.5-0.1,1.1,0,1.5,0.3C53,97.5,53.9,100.8,53.2,103.4z M408.3,275.8c-1.9-0.1-3.8-0.4-5.6-0.9 c-3.4-1.1-8.6-5.6-7.9-6.9c0.3-0.5,1.9-0.8,3.9-0.9c0.4,0,0.9,0,1.3-0.1c3.1,0,6.7,0.5,8.5,1.4c2.5,1.2,2.8,1.7,2.8,4.4 C411.3,275.8,411.3,275.8,408.3,275.8L408.3,275.8z M421,77.7c-0.9,0-6.4,14.8-6.4,17.1c0.2,2.2,0.6,4.4,1.1,6.6 c0.9,4.9,1.4,9.8,1.6,14.7c0.6,11,2.3,37.7,5.9,91.2c4.6,67.5,4.7,70.4,2.8,89c-0.7,6.4,0.6,5.9,3.6-1.2c7.5-18,8.6-33.2,5.7-75.4 c-1.7-24.7-6-84.4-6.9-95.4c-0.3-3.6-0.3-6.6,0.1-6.6s2,1.4,3.8,3.2c6,6,6.9,3.6,2.9-7.7C430.9,100.5,421.7,77.7,421,77.7L421,77.7z M319.5,83.2c-0.4,0-2.1,2.5-3.6,5.6c-0.9,2-1.9,3.8-3.1,5.6c-2.3-1.3-4.5-2.7-6.6-4.3c-10.5-7.2-9.3-7.3-13.4,1 c-1.4,2.6-2.6,5.4-3.6,8.2c0,0.5,3.5,3.4,7.8,6.4s8.1,5.2,8.6,5.1s2.1-2.6,3.6-5.5s3.1-5.3,3.5-5.4s3.8,2.2,7.7,4.8s7.4,4.8,7.9,4.8 s2.4-2.6,4.1-5.8c4.8-8.5,4.5-9.4-4.6-15.6C323.7,85.4,320,83.2,319.5,83.2z M231.8,89.6c-0.4,0-1.6,2.1-2.8,4.9 c-6.7,14.9-8.5,30.5-4,34.9c2,1.7,4.8,2,7.1,0.8c1.7-0.9,4.5-7,5.3-11.6l0.6-3.2l-1.9,2.7c-1,1.5-2.2,2.8-3.6,3.9 c-1.6,1.1-1.9,1-3.8-0.9c-1.7-1.7-2-2.8-2-6.6c0-4.7,1.3-10.6,4.1-19.4c0.9-2.8,1.4-5.3,1.2-5.5H231.8z M129.7,139.8 c-0.4,0-2.1,2.5-3.6,5.6c-0.9,2-1.9,3.8-3.1,5.6c-2.3-1.3-4.5-2.7-6.6-4.3c-10.5-7.2-9.3-7.3-13.4,1c-1.4,2.6-2.6,5.4-3.6,8.2 c0,0.5,3.5,3.4,7.8,6.4s8.1,5.2,8.6,5.1s2.1-2.6,3.6-5.5s3.1-5.3,3.5-5.4s3.8,2.2,7.7,4.8c3.9,2.6,7.4,4.8,7.9,4.8s2.4-2.6,4.1-5.8 c4.8-8.5,4.5-9.4-4.6-15.6C133.9,142,130.2,139.8,129.7,139.8L129.7,139.8z M363.8,233.6c-0.1-0.1-12.6,4.3-27.8,9.9l-41,15.2 c-14.4,5.3-14.8,5.6-16.5,11.8c-0.5,1.7-0.4,2.2,0.3,2c7.4-3,58.8-23.2,68.9-27c13.3-5.1,13.5-5.2,15-8.3 C363.3,236.1,363.6,234.8,363.8,233.6L363.8,233.6z M198.7,237.8c-3.9,0-6,1.7-7.8,6.5c-1.4,3.6-1.1,5.1,0.7,3.7 c3.6-2.8,8.4-0.5,7.4,3.6c-0.7,2.6-4.5,8.2-9.4,13.6c-1.4,1.5-2.7,3-3.9,4.7c0,1.1,4.1-2,8.4-6.4c6-6,9.9-13.5,9.9-18.8 C204.2,239.6,202.8,237.8,198.7,237.8L198.7,237.8z M263.6,240.6c-0.4,0-2,2.5-3.5,5.6c-0.8,2-1.8,3.8-3,5.6 c-1.1-0.7-2.2-1.4-3.2-2.3c-4-3.1-11.9-8.1-12.8-8.1c-0.4,0-2.4,3.5-4.4,7.8c-2.8,6-3.4,7.9-2.6,8.3c0.6,0.3,4.1,2.8,7.8,5.4 c2.4,1.8,5,3.5,7.7,4.9c0.5,0.1,2.4-2.5,4.1-5.6l3.1-5.6l5.5,3.8c3,2.1,6.4,4.4,7.5,5.2c0.8,0.6,1.6,1.1,2.5,1.5 c1,0,7-10.5,7.6-13.3c0.5-2.2,0.1-2.7-3.8-5.6C271.2,244.5,264.8,240.6,263.6,240.6L263.6,240.6z M89.4,244.8 c-0.9,0.4-7,14.5-8.2,19c-1.9,7.2-1.9,18.9,0,21.8c1.7,2.6,5.8,3,8.5,0.8c1.8-1.5,4.9-9.4,4.8-12.4c0-1.8,0-1.8-0.9-0.2 c-1.4,2.5-4.8,6-5.9,6c-0.6,0-1.8-1-2.8-2.2c-1.6-2-1.7-2.9-1.3-8.2c0.6-5.2,1.7-10.2,3.2-15.2C87.9,251.1,88.8,248,89.4,244.8 L89.4,244.8z M374.7,286.6c-1.2-1.2-2.9-1.9-4.6-2c-1.9,0-3.8,1.3-5.5,3.7c-1.3,1.8-3,3.5-3.7,3.7s-3,3.5-5.1,7.3 c-4.4,7.9-7.8,11.1-19,18c-7.2,4.5-24.6,12.8-41.4,19.9c-4.6,1.9-8.6,3.8-8.8,4c-0.6,0.7,4.5-0.3,20-3.8c15-3.4,20.9-5.8,32-13 c8.5-5.6,14.8-12.1,17.8-18.7c1.4-3,2.6-5.6,2.8-5.8s1.5,0.8,3.1,2.2c1.9,1.6,4,3,6.3,4.2c6.1,3,8.9,0.7,9.8-7.9 C378.9,293.4,377.7,289.4,374.7,286.6L374.7,286.6z M370,298.2c-4.4-2.5-4.8-3.1-3.2-4.6c0.4-0.6,1.1-0.9,1.8-0.9 c1.1,0,2.4,0.7,3.9,2.2c1.3,1.4,2.1,3,2,4C374.2,300.5,374.1,300.5,370,298.2z"/>
</svg>