<svg xmlns="http://www.w3.org/2000/svg" width="595.5" height="324">
<path d="M480,0c-1,0-3.4,5.2-5.5,11.8c-1.8,5.6-1.8,5.8-0.5,10c0.9,3.3,1.5,6.8,1.7,10.2c0.2,3.3,0.7,12.7,1.2,20.8 s1.5,25.1,2.4,37.6c3.4,49,3.5,52.2,3.3,72.2c-0.1,10.8-0.2,11-2.3,13.3c-2.7,2.9-8.8,5.2-28.6,11.2c-8.5,2.6-16.5,5.3-17.6,6 c-2.7,1.8-8.8,14.2-7.4,14.9c0.5,0.3,4.4,0.7,8.6,1c8.7,0.6,14.6,1.7,47.6,9.4c28.3,6.6,27.1,6.3,26.3,7.1 c-1.5,1.5-26.5,8.3-43.5,12c-34.2,7.5-69,11.2-104,11.2c-55.3,0-87.6-7.4-105.9-24.1c-8.1-7.4-12.5-16.8-12.5-26.6 c0.3-5,1.9-4.4,6.3-3.7c3.6-1,5.2-2.1,8.4-5.6c3.7-4.1,5.8-8.1,7.6-14.9l1.5-5.3l1,3.5c4.7,15.8,16,23.6,31.1,21.5 c11.4-1.6,19.4-6.6,30.5-18.8c6.3-6.9,8.6-8.9,9.4-8.1c0.6,1.8,0.9,3.7,1.1,5.6c1.6,13.1,8.9,18.8,23.1,17.9 c10.1-0.6,17.8-5.3,24.4-15.1l2.7-4l1.8,2.6c6.4,9.4,12.1,11.8,21.2,9.1c9.4-2.8,16.3-15.5,16.3-30c0-5.2-1.8-11.2-4-13.2 c-1.9-1.7-2-1.4-4.9,8.2l-2.3,7.6l2.1,2.8c1.9,2.4,2,2.9,0.9,3.9c-1.6,1.6-6.9,2.7-10.2,2.1c-4-0.7-6.6-2.2-9.6-5.6 c-2.3-2.7-2.5-3.3-2.1-6.2c1.5-9.6,1.6-11,0-10.8c-0.9,0.2-4.1,4.1-7.6,9.5c-9.8,14.8-15.7,18.8-27.5,18.8c-7,0-13.5-2.8-16.8-7.1 c-2.4-3.2-2.9-7.1-1.6-14.3c0.6-3.6,0.5-3.8-1-3.8c-1.1,0-5.6,3.8-12.8,10.6c-15.2,14.4-22.7,18.1-37.4,18.1 c-14.4,0-19-6.5-24.4-34.6c-3.8-19.9-7.9-34.3-11.8-41.8L257,94l-1.7,3.8c-3.9,8.6-4.1,15.8-0.9,26.4c2.5,8.4,6.8,27.2,7.6,34 c-1,16.7-7.1,15.2-18.2,16.2c-5.4,0-11.5-4.2-13.4-9.1c-1-2.6-1.2-12.5-0.4-15.9c0.4-1.5,0.2-2.2-0.7-2.6c-0.7-0.2-6.3,1.8-12.6,4.5 c-23.5,10.2-48.3,18.8-67.3,23.5c-37.2,9.1-72.6,7.9-90.3-3.1c-5.3-3.3-11-9.1-13.5-13.6c-1.9-3.6-2.1-4.8-2.1-12s0.3-8.8,3.1-16.4 c1.7-4.6,3.4-9.8,3.9-11.6s1-3.3,1-3.4c0.8,0.1,1.5,0.3,2.2,0.7c5.4,2.4,8.9-1.7,11.4-13.3c0.5-2.2,0.3-2.1-1.6,1 c-2.6,4.2-5.4,5.2-7.9,2.7c-2.7-2.7-2.3-10.5,1-19.7c1.3-3.4,2.3-6.8,3-10.3c0.3-2.7,0.1-3.4-1.8-4.9c-2.1-1.7-2.2-1.8-1.3-5.9 c1.2-5.9,1.1-11.4-0.4-13.5s-4.9-2.3-8.2-0.6c-5.7,2.9-10.5,11.4-9.3,16.2c0.5,2.1,3.3,5.2,6.8,7.6l2,1.4l-4,3.7 c-5.1,4.8-11.7,9.2-29.9,20c-8.1,4.8-14.3,8.8-13.8,9c1.1,0.4,15.5-4.8,22.9-8.3c7.8-3.7,18.8-11.7,24.3-17.7l4.7-5l2.2,1.8l2.2,1.9 l-2.6,8c-2.8,8.8-4,19.7-2.5,22.5c0.7,1.3,0.7,1.8-0.2,2.1c-1.7,0.6-8,14.3-10,21.3c-2.4,8.5-3,22.6-1.3,30.4 c3.6,16.7,15,28.4,32.2,32.8c31.3,8,79.8-1.7,138.3-27.6l11.2-5l0.9,6.1c1.2,8.4,2.5,11.8,5.8,15.4c2.8,3.1,11.3,6.5,13.5,6.5 c1.9,0-1.4,0.6-2.6,6.5c-3.8,19.4,1.7,34.8,16.3,45.8c13.5,10.2,33.8,17,61.4,20.8c15.2,2,64.8,2,81.1,0 c35.4-4.4,78.4-13.8,114.5-24.9c5.1-1.6,9.5-2.9,9.9-2.9s0.5,6.8,0.2,16.6l-0.5,16.6l1.9-3.6c2.5-4.8,5.8-15.7,7.2-23.9 c0.6-3.7,1.4-7,1.8-7.4c1.4-1.4,16.5-2.5,35.1-2.4l19.2,0.1l4.3-8.4c2.7-5.2,4-8.7,3.6-9.1s-7.8-1.5-16.3-2.4s-21.3-2.5-28.4-3.6 c-19.8-3.1-17.9-2.4-18.3-6.3c-0.8-6.4-8.3-116.1-8-116.4s2,1.2,3.9,3s4,3.3,4.4,3.3c1.7,0,0.7-5.1-2.8-15 c-6-16.7-11.6-30.5-12.4-31s-3.8,5.6-6,12.6c-1.4,4.4-1.4,4.8-0.1,9c0.9,3,1.6,9.4,2.2,20.2c0.4,8.7,1.7,28.6,2.8,44.2 s2.5,36.6,3.2,46.4s1.3,19.4,1.5,21c0.3,2.6,0.1,3-1.4,3s-30.9-6.6-38.8-8.8l-3.4-0.9l2.7-3.4c6.5-8,9.9-17,11.9-31.4 c1.3-9.4,1.3-41.3,0-57.6c-2.1-26.6-4.2-57-4.2-60.8v-4l3.8,3.7c2,2.1,4,3.8,4.4,3.8c1.8,0,0.2-6.8-5.2-21.3C481.9,3,480.7,0,480,0z M444.4,9.6c-17.6,0-18.9,0.5-24.5,10.4c-2.1,3.7-3.9,7-3.9,7.2s7.1,0.5,15.8,0.5c15.2,0,22.6,0.9,22.6,2.8c0,1.3-4.9,4.4-16.8,10.8 s-20,11.2-20,12c0,0.6-0.4,0.7,11.7-2.8c15.3-4.3,19.6-6.1,24.2-9.7s14.9-17,17.3-22.3l1.5-3.5l-2.1-1.8 C467.3,10.6,460.1,9.6,444.4,9.6L444.4,9.6z M170.3,16.9c-1.2,0.1-2.4,0.7-3.3,1.5c-3.8,3-4.6,5.2-9.9,27.1 c-0.4,1.8-0.6,1.7-1.2-1.2c-3.4-14.3-9-22.8-15.1-22.8c-1.7,0-2.6,0.8-4.3,3.7c-2.6,4.4-2.3,6.4,1.4,8.9c2.9,1.9,5,2.3,5.8,1 s2.6,0.6,4.7,4.8c1.9,3.8,6.1,15.3,6.1,16.8c-0.4,1.3-1.1,2.6-1.9,3.7c-1.9,2.8-4.2,11.3-3.4,12.2c0.2,0.2,1.5-0.8,2.8-2.2 c2.1-2.4,2.6-2.6,4.6-1.9c3.4,1.2,3.1,2.2-1.4,4c-3.7,1.4-4.4,2.1-6.4,5.9c-1.1,2.1-1.9,4.3-2.2,6.6c0,1.2,1.1,7.9,2.5,14.8 c3.1,15.8,4.7,27.6,4.8,35.8c0.1,5.5,0.2,6.1,0.9,4c0.5-1.3,0.9-7.8,0.9-14.4c0.2-11.5-1.4-23-4.6-34.1l-1.8-6.3l2.5-1.6 c3.1-1.5,6.3-2.7,9.5-3.7c7.6-2.3,9.1-3.6,9.9-8.8c0.4-2.8,0.2-3.2-3.7-6.8c-2-2-4.4-3.6-6.9-4.9c-3-1.1-3.1-1.2-2-4.1 c0.4-1,1.5-5.7,2.5-10.3c3.6-17.3,6.2-21.2,10.7-16.3c2.4,2.5,3.5,2.5,4.5,0c1.3-3.5,0.9-5.8-1.7-8.7c-1.6-1.8-2.8-2.7-4.1-2.7 L170.3,16.9z M579.6,17c-1,0-7.2,2.1-14.5,4.9c-7.8,2.9-26.1,9.7-40.6,15s-26.7,10-27,10.3c-0.9,1.5-1.6,3-2.2,4.7l-1.6,4.2l4.2-1.7 c17.1-6.8,56-22,66.5-26c12.2-4.6,12.7-4.9,14.2-7.8c0.9-1.7,1.4-3.3,1.1-3.5C579.7,17,579.7,17,579.6,17L579.6,17z M254,17.8 c-0.8,0.4-6.9,14.4-7.9,18.4c-2.7,10.5-2.6,20.1,0.4,23c2.2,1.9,5.6,2,7.9,0.2c1.8-1.5,4.9-9.3,4.9-12.4c0-1.6-0.1-1.6-1.5,0.7 c-1,1.5-2.2,2.9-3.7,4c-2.1,1.4-2.2,1.4-4.1-0.9s-2-2.7-1.6-8.3c0.6-5.2,1.7-10.3,3.2-15.2c1-3.1,1.9-6.2,2.6-9.4 C254.1,17.8,254.1,17.8,254,17.8L254,17.8z M334.4,30.5c-4.4,0.1-7.1,4.9-10,17.3c-1.1,4.7-2.2,9.5-2.5,10.6 c-0.4,1.6-0.8,0.7-2.2-4.4c-2.8-10.1-6.3-16-11.1-18.5c-3.5-1.8-4.9-1.4-7.2,2.5c-2.8,4.7-2.8,6.2,0.4,8.8c2.1,1.8,3.1,2.1,5.5,1.7 c2.7-0.4,3.1-0.2,4.5,2.2c2.3,3.8,6.5,15,7.1,18.9c1.1,6.8,3.4,2.6,6.7-12.1c2.6-11.5,3.6-14.7,5.5-16.8c1.6-1.9,2-1.8,5.2,1 c2.3,2,2.9,2.2,3.7,1.3c3.4-4,0.4-11.8-4.6-12.3C335.1,30.5,334.8,30.5,334.4,30.5L334.4,30.5z M49.4,57.9c1.6,0,2.5,1.1,3,3.6 c0.3,1.3,0.2,2.6-0.2,3.9c-0.5,1.4-0.9,1.6-2.2,0.8c-2.1-1.1-6-4.8-6-5.6c0-0.4,1.3-1.3,2.8-2C47.6,58.2,48.5,58,49.4,57.9 L49.4,57.9z M360.5,68.2c-0.8,0.2-6,11.8-7.7,17.6c-2.4,7.7-2.6,20-0.5,23.3c1.1,1.7,2,2.2,4.2,2.2c4.5,0,7.6-4.3,8.7-12.1 c0.4-2.9,0.4-3.2-0.4-1.9c-1.5,2.6-5,6-6,6c-0.5,0-1.7-0.9-2.6-2.1c-2.9-3.7-1.8-13.5,3.1-27.8c0.9-2.6,1.5-4.9,1.3-5.1 C360.6,68.2,360.5,68.2,360.5,68.2L360.5,68.2z M473.4,93.9c-0.2-0.2-18.4,6.3-40.5,14.5s-40.4,14.8-40.9,14.8 c-0.9,0-2.1,2.2-3.6,6.5c-0.9,2.4-0.9,3.2-0.1,2.9c8.8-3.6,55.2-21.8,66.9-26.2c15.1-5.7,15.5-5.9,17.1-9 C473.1,95.6,473.6,94.1,473.4,93.9L473.4,93.9z M197.2,103.2c-0.8,0-4.5,8.4-6.8,15c-4.1,12.3-4,24,0.2,27c0.9,0.6,1.9,1.1,3,1.2 c3.5,0,7.4-5.5,8.4-12l0.6-3.6l-2.5,3.4c-3.1,4.2-5.8,4.6-7.6,1.1c-2.3-4.4-1.2-11.7,3.9-28.2C197.1,104.9,197.4,103.2,197.2,103.2 L197.2,103.2z M387.5,198.6c-1.7,0.3-14.1,4.6-28.9,10.1c-15.7,5.8-34.1,12.6-40.9,15.1c-13.1,4.8-12.8,4.6-14.9,11.1 c-0.7,2.2,0,2.2,4.9,0.1s50.1-19.8,65.9-25.8c10.9-4.1,11.7-4.6,13.1-7.3c0.8-1.6,1.3-3.1,1-3.4 C387.7,198.6,387.6,198.6,387.5,198.6L387.5,198.6z M78.8,211.4c-0.8,0.4-6.9,14.5-7.9,18.5c-2.7,10.3-2.4,20.1,0.8,23.3 c2,2,5.7,1.5,8-0.9c1.9-2.1,4.3-8.6,4.3-11.7c0-1.2-0.4-1-1.8,1c-1,1.4-2.1,2.7-3.5,3.8c-1.5,1-1.9,0.9-3.6-0.4s-1.9-2.1-1.8-8.2 c0.1-5.2,0.7-8.7,2.9-15.9C77.3,217.7,78.2,214.5,78.8,211.4C78.9,211.4,78.9,211.4,78.8,211.4L78.8,211.4z M173.3,216.2 c-0.8,0-5.1,9.6-7.1,16.1c-2.3,7.4-2.5,19.8-0.4,23.1c1.5,2.3,4.9,2.9,7.7,1.4c1.7-0.9,4.5-7.1,5.2-11.6l0.6-3.2l-1.6,2.6 c-1,1.5-2.3,2.9-3.8,4c-2.1,1.4-2.2,1.4-4.1-0.8c-3.2-3.7-2.5-11.5,2.2-26C173.1,219,173.6,216.5,173.3,216.2 C173.4,216.3,173.4,216.3,173.3,216.2L173.3,216.2z M221.4,228c-0.6,0-2.2,2.5-3.7,5.6s-2.8,5.6-2.8,5.6s-3.6-2.3-7.9-5.2 s-8.1-5.2-8.5-5.2c-0.7,0-8.2,15.2-7.8,15.7c0.1,0.1,3.8,2.8,8.2,5.8s8.1,5.6,8.4,5.6s1.9-2.6,3.6-5.9l3.2-6l5.6,3.7 c3.1,2,6.4,4.4,7.3,5.3s2.3,1.4,2.9,1.1c1.8-0.7,7.1-10.6,7.2-13.5c0.1-2.3-0.5-2.9-7.3-7.6C225.8,230.2,221.9,228,221.4,228 L221.4,228z M117.7,234.7c-0.9,0.1-2,2.1-4.5,7.4c-1.3,2.6-2.4,5.3-3.4,8c0.1,0.1,3.8,2.8,8.2,5.9c2.7,2,5.5,3.9,8.4,5.7 c1,0,7.2-12.6,7.2-14.6c0-1.6-1.3-2.9-7.1-6.9c-2.7-1.9-5.5-3.7-8.4-5.4C118,234.7,117.9,234.6,117.7,234.7L117.7,234.7z M491,255.2 c-4.8,0-6.3,0.3-8,1.7c-2.1,1.7-4.9,6.2-4.3,6.8c0.2,0.2,2-0.1,3.9-0.6c2.7-0.7,4.6-0.7,8.1,0c2.5,0.5,4.8,1.3,5,1.7 s-2.8,4.2-6.8,8.5c-7.7,8.3-10.1,12.3-10.9,18c-0.8,4.5,2,8.9,6.5,10.1c1.7,0.5,3.4,0.8,5.2,1c4.6,0.1,12.7-1.7,17.2-3.9 c5-2.5,12.5-8.4,9.6-7.7c-12,3.1-16.4,3.8-23.7,3.5c-6.2-0.2-8.1-0.6-9.5-1.8c-3.1-2.8-2.2-4.7,7.1-14.9c4.8-5.3,9.5-11.1,10.5-12.9 C504.2,258.3,501,255.2,491,255.2L491,255.2z M454.5,271.2c-1.4,0-3.3,4.8-2.8,7.2c0.6,2.9-0.4,3.5-4.4,2.8l-3.2-0.5l0.5-3.4 c0.5-3,0.4-3.2-0.8-2.2c-1.2,1.2-2.2,2.5-3.1,4c-3.4,5.5-6.4,6.8-12.7,5.1c-11.5-3-19.2,1.4-37,21.5c-3.8,4.4-8.3,8.3-13.1,11.5 c-3.8,2.5-7.3,4.9-7.7,5.2c-2.4,2.1,8.9-1.7,12.6-4.2c1.4-1,6.9-6,12.2-11.1c14-13.6,18.4-15.5,32.8-14c5.5,0.6,5.6,0.5,9.9-2.4 c3.7-2.6,4.6-2.8,6.2-2.1c2.2,1,6.6,1.2,8,0.3C455.4,286.6,457.8,271.2,454.5,271.2L454.5,271.2z"/>
</svg>