<svg xmlns="http://www.w3.org/2000/svg" width="391" height="406">
<path d="M386.3,0c-0.4,0-15.4,5.4-33.3,12.1l-32.6,12.1l-1.2,2.9c-1.5,3.5-1.5,4.2-0.1,3.8c0.6-0.2,10.6-4.1,22.1-8.7 s21.1-8.2,21.2-8.1c-0.5,1.9-1.1,3.7-1.9,5.5c-2.4,5.9-2.5,7.9-1,14.1c0.6,2.7,0.9,5.4,1,8.1c0,4.1,1.5,26.3,4.2,61.9 c0.9,11.7,2.1,27.4,2.6,34.8s1.4,19.2,1.9,26.1c2.2,29.2,2.4,34.8,2,47.3c-0.3,8.2-0.2,12.7,0.2,12.4c1.1-0.7,4.6-10.7,6-16.8 c3-14,2.9-19.1-3-94.9c-4.8-61.3-4.8-62.2-4.8-65.1V45l3.2,3c3.5,3.3,4.8,3.3,4.2,0.2c-0.7-3.4-5.8-17.5-11-30.3 c-1-2.4-1.6-4.6-1.4-4.7s4.8-2,10.2-4.1c5.7-2.2,10.2-4.3,10.6-5C386.6,2,387,0,386.3,0L386.3,0z M328.9,42.7 c-9.2,0.1-11,1.7-14.6,8.1c-4.1,7.2-5,6.5,8.7,6.4c13.2-0.1,19,0.8,18.7,2.7c-0.1,0.6-3.1,2.7-6.6,4.7 c-13.5,7.5-19.7,10.9-20.2,10.9c-0.3,0-1.4-2.3-2.6-5.2s-2.3-5.2-2.6-5.2c-0.7,0-5.2,11.9-5.2,13.8c0.2,1.8,0.5,3.6,0.9,5.3 c0.7,4.1,1.2,8.3,1.3,12.5c0.5,10.6,1.9,32.6,3.2,50.3c3.8,51.6,4.6,76.7,2.6,80.6c-1.2,2.4-6.7,4.7-23.6,9.8 c-7.2,2.2-13.7,4.3-14.5,4.8c-1.8,1.1-6.6,15.1-5.5,15.8c0.4,0.3,8.7,0.7,18.3,0.9s22.7,0.6,29,0.8l11.5,0.4l-5.1,2.6 c-14.8,7.7-27.8,18.8-36,30.4l-3.3,4.7c-0.1,0.2-5.2-1.5-10-3.5h-0.1l-5.3-2.8c-5.7-3.2-12-9.9-13.7-14.3c-3.4-9.4-4.7-20-6.2-51.1 c-1.8-38.2-2.3-46.4-3.6-57.4c-2-17.6-3.4-25-6.8-36.6c-0.9-3.2-2.2-0.1-3.8,8.9c-0.9,5.4-0.9,6.2,0.3,12.8s3.3,24.6,4.1,35 c1.3,16,3.5,75.5,4,107.8l0.4,25.9l-2.2,2.2c-3.2,3.2-8.9,5.2-14.9,5.3c-4.8,0-5,0-7.2-2.2c-2.9-2.9-3.9-5.7-3.7-11.5 c0.1-4.3,0-4.7-1.2-4.7c-0.8,0-4.4,2.9-9.1,7.4c-3.4,3.3-6.9,6.5-10.7,9.4c-6.8,4.7-17.3,7.2-24.2,5.8c-2.9-0.6-4.1-1.3-5.9-3.2 c-5.6-6.2-6.9-14.9-8.2-59.1c-1-31.7-2.2-47.9-5.2-66.8c-1.2-7.7-3.3-18.1-4.5-22.2c-0.3-1.1-1-3.6-1.6-5.6s-1.3-3.7-1.6-3.7 c-0.8,0-1.8,3.3-2.9,9.7c-0.9,5.4-0.9,6.1,0.6,15.9c3.9,25.3,5.9,46.6,6.9,76c0.8,23.5,0.4,40.9-1.1,46.2 c-1.3,4.5-4.8,8.7-13.8,16.4c-16.6,14.2-36,25.6-51.2,30.1c-5.6,1.7-17.3,2.4-22.2,1.3c-11.5-2.6-19.6-11.1-22.2-23.7 c-1.8-8.8-1.1-16.7,2.7-28.9c2.1-6.7,2.5-7.4,3.2-6.4c1.4,1.8,3.9,2.2,5.8,1c2-1.3,3.8-5,4.4-8.7l0.5-2.9l-2,2.7 c-2.3,3.2-3.9,3.5-5.9,1c-1.2-1.5-1.4-2.3-1.1-6.3c0.4-3.8,1.3-7.5,2.6-11c1-2.5,1.7-5,2.3-7.6c-0.3-1.1-0.9-2.2-1.8-2.9l-1.8-1.8 l1-4.5c2.3-10.5-2.2-14.1-9.8-7.8c-4.5,3.7-6.2,10.2-3.6,13.6c1,1.2,2.3,2.2,3.6,3.1l2.3,1.4l-2.5,2.6c-3.2,3.3-10.9,8.5-24.5,16.5 c-10.1,6-12.8,7.9-11.4,7.9c1,0,15.9-5.8,19.7-7.7c6.6-3.6,12.6-8,17.9-13.3c3.9-4,4.3-4.2,6.5-2.4c0.9,0.8,0.8,1.5-1.1,8 c-1.5,5-2.2,8.4-2.2,11.4c0,3.2-0.3,4.6-1.3,6c-2,2.9-4.9,10.2-6.2,15.8c-1.7,7.4-1.7,28.9,0,35.5c3.6,13.6,11.9,22.9,22.8,25.4 c4.7,1.1,15.7,0.8,21.1-0.6c17-4.4,42-20,60.5-37.9c7.2-7,8.5-9.2,10.5-18.9c1.4-6.4,1.5-6.6,1.9-4.2c2.9,17.1,5.1,21.6,12.3,25.2 c6.9,3.4,15.7,2.8,24.4-1.4c3.9-1.9,6-3.7,12.6-10.4c8.4-8.6,9.9-9.3,9.9-5c0.3,3.6,1.4,7.1,3.4,10.1c2,2.7,6.7,4.5,12,4.5 c11.6,0,20.5-9.9,23.1-25.5c0.6-3.5,1.2-11.4,1.5-17.4l0.4-11l1.5,2.4c2.2,3.6,8.7,9.3,13.9,12.1c2.1,1.2,9.2,4.4,11.9,5.4L276,316 c-2.9,9.2-3.9,16.2-4.2,28.4c-0.4,13.1,0.5,21.6,3.1,29.1c5.4,15.8,16.8,25.1,33.8,27.6c23.1,3.4,45.4-5,62.7-23.5 c8.6-9.1,14-18.3,16.9-28.7c1.7-6.1,2.4-18.1,1.3-23.3c-2.1-10.3-9.5-18.4-18.9-20.9c-7-1.8-13.1-2.3-39.2-2.9 c-24.7-0.6-39-1.4-40-2.3c-0.7-0.8,9.8-10,16.5-14.5c16.4-10,38.9-18.2,52.4-21.8c8.9-2.4,15.5-4.5,15.9-5.1 c0.8-1,4.7-12.2,4.7-13.5c0-0.5-9.6-0.8-31.8-1.1c-17.5-0.2-33.3-0.6-35.1-0.8l-3.3-0.4l2.5-3.9c4.9-7.6,6.8-15.3,7.8-32.1 c0.8-12.9,0.6-17.4-3.4-72.5c-1.4-19.8-2.4-36.2-2.2-36.4s1.6,0.8,3.1,2.3c5.6,5.5,5.6,2.8,0.1-12c-1.3-3.3-2.5-6.7-3.4-10.1 c0.1-0.1,3.7-1.2,7.9-2.5c13.6-3.9,14.9-4.6,20.3-10c4.9-5,11.2-13.7,12-16.6c0.5-2.1-1-3.8-4.5-4.8c-1.5-0.4-8.1-0.9-14.7-1.1 C333.6,42.7,331,42.7,328.9,42.7L328.9,42.7z M294.9,89.8c-1.4,0.1-11.2,3.7-49.6,17.9l-16.7,6.2l-1.1,2.5c-0.5,1.1-0.9,2.2-1.2,3.3 c0,0.4,0.2,0.8,0.4,0.8s9.6-3.6,20.8-8c11.2-4.4,26-10.2,32.9-12.8c12.2-4.6,12.6-4.8,13.8-7.1c0.7-1.3,1-2.6,0.8-2.8 C295,89.9,295,89.9,294.9,89.8L294.9,89.8z M346.5,121.3c-0.8,0.1-4.9,10.4-6.1,15c-1.7,6.6-1.5,15.7,0.4,17.8c3.3,3.6,8.3,0,9.7-7 c0.2-1.2,0.6-2.8,0.8-3.6s-0.2-0.5-1,0.7c-0.8,1.3-1.8,2.4-3,3.4c-2.2,1.8-3.8,1-4.9-2.2c-1-3-0.5-6.8,2.2-16.3 C345.5,126.6,346.1,124,346.5,121.3C346.6,121.3,346.5,121.3,346.5,121.3L346.5,121.3z M282,154.9c-0.5,0.1-3.8,7.4-5.4,12.2 c-1.5,4.3-2.4,14.6-1.6,17.7c0.3,1.1,0.9,2.1,1.7,3c2.7,2.7,6.1,1.1,8.2-3.7c1.5-3.6,2.6-9.1,1.4-7c-1.3,2.3-4,4.8-5.1,4.8 c-0.9-0.2-1.7-0.7-2.3-1.4c-2-2.1-1.5-8.4,1.2-17.7C280.9,160.2,281.6,157.6,282,154.9L282,154.9L282,154.9z M210.5,182.9 c-0.4,0-0.8,0.1-1.2,0.2c-2.8,1.1-4.7,5-6.8,13.9c-1.1,4.6-2.1,8.8-2.4,9.4s-0.8-0.9-1.2-3.2c-1.2-5.8-5.2-13.4-7.9-15.3 c-3.7-2.5-5.3-2-7.5,2.1l-1.9,3.5l2.2,2.3c1.9,2,2.6,2.3,4.8,2.1c2.4-0.2,2.6-0.1,4.1,2.6c1.4,2.9,2.7,5.9,3.8,9l2.2,6.2l-1.6,1.7 c-2,2.3-3,5.3-3,8.4v2.3l1.9-2.1c1-1.1,2.3-2.1,2.8-2.1c1.3,0,3.5,1.9,2.7,2.3c-6.3,2.7-8.3,4.8-9.2,9.5c-0.6,3.2-0.5,4.2,2.8,21.4 c1.1,5.9,1.8,11.8,2.1,17.7c0.5,12.4,1.7,8.9,1.8-5.1c0-11.1-0.8-17.1-3.7-27l-1.4-4.8l1.4-1.1c1.6-1.3,5-2.6,10.5-4.1 c3.1-0.9,3.8-1.3,4.7-3.3c1.8-3.8,1.4-5.4-2.2-8.8c-1.6-1.6-3.5-2.9-5.5-3.9c-1.6-0.6-2.1-1.1-1.8-1.8c0.2-0.5,1.3-4.9,2.4-9.7 c2.1-9.5,4.1-14.4,5.8-14.7c0.6-0.1,1.9,0.7,3,1.8l1.9,2l1-1.4C217.7,188.9,214.5,182.7,210.5,182.9L210.5,182.9z M98.7,234.1 c-0.4,0-1.3,1.2-2,2.6l-1.3,2.6l2.5,2.9c6.5,7.6,8.8,13.1,8.8,20.6c0,4.4-0.4,6.6-2.9,14.2c-1.4,4.1-2.5,8.2-3.4,12.4 c-0.7,4.9,0.2,9.7,2,11.5c2.8,2.8,5.8,1.5,7.9-3.5c1.6-3.7,2.6-9.1,1.4-7c-1.4,2.4-4,4.8-5.2,4.8c-1.8,0-3.4-3-3.4-6.4 c0-1.9,1.1-6.3,3.1-12c2.7-7.8,3.1-9.9,3.4-15.5c0.6-10.8-1.9-18.6-7.8-25C100.5,235.1,99.1,234.1,98.7,234.1L98.7,234.1z M39.6,265.1c2.1,0,3,1.2,3,4.3c0,1.8-0.3,2.8-0.8,2.7c-1.2-0.1-4.9-2.7-5.3-3.8C35.9,267.2,37.9,265.2,39.6,265.1L39.6,265.1z M285.5,313.8c1.9,0.1,3.8,0.3,5.6,0.7c4.5,0.7,14.5,1.3,27.4,1.7c26.8,0.8,41.9,1.7,47.2,2.9c5.2,1.4,9.9,3.9,13.9,7.5 c3.3,3.6,5.5,8,6.4,12.8c0.7,6.3-2.5,12.8-10.4,21.2c-9.5,10.1-25.5,19.6-38.6,23c-13.9,3.6-30.1,2.4-41.5-3.1 c-5.4-2.6-12.1-9.1-14.5-14c-5.7-11.7-5.8-28-0.4-44.9C282.5,315.6,282.8,313.8,285.5,313.8L285.5,313.8z M316.7,323.9 c-5,0-7.1,1-9.1,4.5c-1.7,3-1.5,3.7,0.5,2.6c2.5-1.4,12.4-0.4,12.4,1.2c-1.8,2.3-3.7,4.6-5.7,6.7c-6.5,7-8.5,10.6-8.5,15.2 c0,3.6,1.2,5.7,4.1,7s11.9,0.8,16.6-1c4-1.5,11.6-6.6,10.4-7c-2.1,0.1-4.1,0.4-6.1,1c-10.6,2.6-17.8,2.5-20.9-0.1 c-2.5-2.1-1.6-3.8,6.2-12.2c7.3-7.9,9.3-10.9,8.9-13.8C325.2,325.3,321.9,323.8,316.7,323.9L316.7,323.9z M189.7,364.5 c-0.3,0-1.5,2-2.7,4.5c-0.7,1.5-1.5,3.1-2.3,4.5c-0.1,0-2.9-1.9-6.4-4.2c-2.2-1.6-4.5-3-6.9-4.2c-0.4,0-2,2.8-3.6,6.3l-2.9,6.3 l1.5,1c0.8,0.5,3.8,2.6,6.6,4.7s5.4,3.5,5.7,3.3c1.1-1.5,2-3.1,2.8-4.8c1.5-3,2.5-4.3,3-4c2,1.1,8.7,5.8,9.9,6.9 c0.6,0.6,1.5,0.9,2.4,0.9c1-0.4,6.2-10.3,6.2-11.7C203.1,372.7,191.4,364.5,189.7,364.5L189.7,364.5z M136.3,365.1 c-0.7,1-1.3,2-1.8,3.2c-6.4,12.6-8,25.9-3.8,30.5c2.7,3,7.1-0.2,8.9-6.2c1.4-4.7,1-5.7-1-2.6s-4.6,3.7-6.2,1.2s-0.9-9.9,1.9-18.9 C135.1,370,135.7,367.6,136.3,365.1L136.3,365.1z M253.9,374.4c-0.1-0.1-12.7,4.4-27.9,10.1s-30.2,11.2-33.3,12.3 c-5.5,2-5.5,2-6.6,5c-0.5,1.1-0.8,2.3-1.1,3.5c0,0.3,0.4,0.4,0.8,0.2c7.4-3,44.5-17.6,53.8-21.1l12.4-4.7l1-2.6 C253.4,376.3,253.7,375.4,253.9,374.4L253.9,374.4z"/>
</svg>