<svg xmlns="http://www.w3.org/2000/svg" width="501" height="323">
<path d="M275.9,320.6c0.9-3.1,2.6-5.2,4.5-5.7c1-0.3,19.3-6.9,40.6-14.8s38.9-14.1,39-13.7c-0.1,1.2-0.4,2.3-0.9,3.4 c-1.1,2.6-1.9,3-16.6,8.6c-8.5,3.2-25.9,10-38.6,15C280,322.8,274.8,324.1,275.9,320.6L275.9,320.6z M179.9,314.9 c-7.3-3.5-13.3-11.6-15.6-20.8c-1.4-5.4-0.5-19.5,1.6-27.4c2-7.2,7.3-20.6,11.6-29.3l2.9-5.8l-7.9,0.4c-12.4,0.7-24.2,5-34.3,12.2 c-5.7,4.1-12.2,10.7-34.3,34.8c-17.4,18.9-25,25.7-32.9,29.6c-15,7.4-28,2.5-35.3-13.3c-1.8-4-2.2-6.1-2.5-13.1 c-0.4-10,0.7-16.8,4.4-27.4c2.9-8.4,10-24.2,11.8-26.2c0.6-0.7,1.5-3.3,2-5.8s1.8-7.4,2.9-10.8c2.4-7.7,2.4-7.8,0-9.4 c-2-1.3-2-1.2-7.8,4.6c-9.6,9.7-20.1,16-36.4,22c-14.8,5.4-14,4.5,6.8-7.8c15.5-9.2,22.4-13.8,27.9-18.8l3.8-3.4l-3.6-2.1 c-5.9-3.4-7.4-8.8-4.2-15c1.2-2.3,5.6-6.6,8.1-7.9c2.9-1.5,7.3-1.1,8.2,0.6c1.1,2,1,10,0,13.9c-0.8,2.9-0.7,3.3,1.3,5.3 c2.7,2.8,2.5,5.3-1.1,15.4c-3.9,11-3.2,21.3,1.4,21.3c1.4,0,4.7-3.1,6.4-6c1.9-3.3,0,4.7-2.2,9.2c-2.6,5.4-5.4,6.8-8.7,4.3 c-1.4-1.2-2.4-2.7-3.1-4.4l-0.9-2.8l-0.6,2.6c-0.3,1.4-2.4,7.6-4.6,13.6c-8.9,24.4-9.6,37.3-2.5,44.6c4.8,4.9,12.2,5.5,20.8,1.6 c9.4-4.3,15.1-9.4,40.1-35.9c27.4-29,43.1-40.2,62.4-44c6.7-1.4,20.5-1.3,24.7,0c1.5,0.5,1.8,0.3,1.8-1.1c0-3.1,2.7-1.9,9.6,4.3 c3.7,3.3,8.3,6.8,10.2,7.7c6.6,3.2,16.4,1.3,20.1-4c2.2-3.1,1.8-4.8-4.1-15l-4.1-7.1l0.9-5.2c1.1-6.3,3-11.2,4.4-11.2 c1.6,0,7.5,11,9,16.8c1.7,6.5,1.2,24.7-0.7,30.9c-2.7,8.6-9.4,15.4-16.1,16.7c-3.1,0.6-3,0.6-2,7.6c1.1,8-1.3,19.9-4.4,21.1 c-1.9,0.7-10.5-4.3-15.2-8.9c-5.9-5.8-8.3-10.8-10.1-21c-1.8-10.4-2-11-4.8-12.4c-3.1-1.6-3.9-1.5-4,0.6s-1.1,5.8-6.2,20.2 c-4.9,13.9-6.7,21.6-6.7,28.9c0,16.6,12.4,23.1,28.2,14.6c6.8-3.6,10.1-6.8,21.6-20.3c18.4-21.7,26.9-27.3,68.8-45.2 c18.8-8,27.8-12.4,34.3-16.5c3.6-2.3,4.2-3,4.2-5.2c0-3.2-3.8-10.7-8.6-17c-6.9-9.1-21.4-22.5-44.2-40.8 c-12.5-10.1-28.3-22.8-35-28.2l-12.2-9.9v-6.2c0-7.9,1.8-19,3.8-23.5c1.1-2.6,3-4.6,7.1-7.6c26-19.2,101.8-54.6,133.5-62.3 c13.1-3.2,19.5-2.4,21.3,2.5l1,2.7l2.9-7.3c1.6-4,3.2-7.3,3.7-7.4c1.2-0.1,15.5,36.9,16.7,43.3c0.7,3.7-1.5,3.5-5.5-0.6 c-1.7-1.8-3.4-2.9-3.7-2.6s-0.2,4.6,0.1,9.4c1.3,16.5,5.4,75.2,6.4,90.8c1.6,25.3-0.2,44-5.4,56.4c-4.5,10.8-11.8,19.2-18.9,21.8 c-7.6,2.8-20.2-0.2-30.6-7.2c-1.7-1.1-9.5-8-17.3-15.4s-14.4-13.2-14.6-13s0.8,3.1,2.1,6.6c3,7.8,3.6,12.4,2.4,19.4 c-1.3,7.7-4.2,13.6-8.8,18c-3.7,3.5-16.8,10.8-27.6,15.4C261.7,261,248,268,240,274.8c-3.4,2.9-11.1,10.7-17.1,17.4 c-19.3,21.4-22.7,23.9-33,24.4C184.7,316.8,183.2,316.6,179.9,314.9L179.9,314.9z M391.5,202.3c6.1-2.7,9.5-5.5,10.6-8.6 c1.9-5.5,1.2-22.7-3.3-85.3c-2.4-32.9-3.2-45-4-61.6c-0.4-8.4-1.2-16.8-1.8-18.8l-1.1-3.6l-1,4c-2.2,8.8-8.2,18.3-20.4,32.2 c-10,11.4-12.4,14.5-15.7,20.2l-2.6,4.4l0.4-3.6c0.8-6.5,7.2-17.3,17.8-30c5.4-6.4,10.5-13.1,11.4-14.7c1.7-2.9,1.7-3,0.2-4.4 c-3.7-3.4-13.7-2.2-30.2,3.6c-20,7-69.4,30-93.5,43.5c-14.7,8.2-29.2,17.9-29.2,19.6c0,0.3,4.8,3.6,10.6,7.3 c40.6,25.6,77.7,53.2,109.7,81.4c15.1,13.4,23.5,17.4,34.1,16.5C386.2,204.1,388.9,203.4,391.5,202.3L391.5,202.3z M338.8,156.2 c3.1-2.3,5.3-3.6,16.7-9.7c16.1-8.6,18.8-10.4,17.4-11.8c-1.8-1.8-9.7-2.7-24-2.7c-7.7,0-13.4-0.3-13.4-0.8c0-1.1,5.6-10.5,7.5-12.7 c3.2-3.6,5.9-4.4,16.2-4.8c10.7-0.4,23.6,0.8,27.9,2.6c4.9,2.1,4.7,4.6-1.2,13.4c-6.3,9.4-13,16.3-18.7,19 c-4.9,2.4-26.1,8.9-28.9,8.9C337.1,157.6,337.2,157.4,338.8,156.2L338.8,156.2z M302,117.6c-4.4-4.4-2.6-20.2,4-35 c1.3-2.9,2.6-5.1,2.9-4.9s-0.3,2.7-1.2,5.5c-2.9,8.8-4.1,14.7-4.1,19.4c0,3.8,0.3,4.9,2,6.6c1.9,1.9,2.2,1.9,3.8,0.9 c1.4-1.1,2.6-2.4,3.7-3.9l1.9-2.7l-0.6,3.2c-0.8,4.6-3.6,10.7-5.3,11.6C306.7,119.6,303.9,119.3,302,117.6L302,117.6z M53,187.9 c0.6-5-2.3-7.6-6.3-5.5c-2.4,1.3-1.8,3.7,1.5,5.9C51.6,190.7,52.6,190.6,53,187.9L53,187.9z M264,300.8c-2.5-1.9-5.1-3.7-7.8-5.2 c-0.7-0.2-1.3-0.8-1.4-1.5c0-1.2,5.4-13.1,6.6-14.6c1-1.2,4.6,0.5,11.6,5.7c1.7,1.3,3.5,2.6,5.4,3.7c0.2,0,1.7-2.5,3.2-5.6 s3-5.6,3.3-5.6c0.9,0,7.8,4.2,12.1,7.5c4,3,4.2,3.4,3.8,5.9c-0.5,3.2-6.1,13-7.4,13c-1-0.3-2-0.8-2.8-1.5c-1-0.8-4.4-3.1-7.4-5.2 l-5.5-3.7l-3,5.7c-1.7,3.2-3.4,5.8-3.8,5.9S267.5,303.4,264,300.8L264,300.8z M405.2,283.6c1.1-1.8,2.4-3.5,3.9-5 c8.2-9.6,9.9-12.8,8.4-16.5c-0.6-1.5-4.4-1.7-6.8-0.4c-1.3,0.7-1.5,0.6-1.5-0.8c0-2.3,2.9-7.7,4.4-8.3c2.5-1,7.4-0.5,8.4,0.8 c3,3.6,0,13.7-6.2,21.5C412.8,278.5,405.2,284.8,405.2,283.6L405.2,283.6z M325.2,279.6c-3.3-1.4-6.1-3.8-7.8-7 c-1.1-2.2-1.1-2.3,0.3-1.7c7,2.9,18.2,2.4,38.7-1.8c15.7-3.2,17.4-4.1,12.4-6.5c-3.6-1.8-11.4-2-19.8-0.5 c-13.5,2.3-21.7,1.4-22.7-2.4c-0.7-2.9,0.2-5.8,4.2-12.1c4.2-6.7,9.9-12.3,16.6-16.4c5.2-3,12-3.4,12.9-0.7c0.3,0.9-0.1,3.2-0.8,5.2 c-1.3,3.3-1.5,3.5-2.7,2.3c-2.6-2.3-5.8-1.5-13.4,3.5c-6.7,4.4-12.3,9.5-12.3,11.2c0.1,0.5,0.4,1,0.8,1.2c1.6,1,12.6,0.6,22-0.8 c11.1-1.6,15.1-1,18.9,2.8c2.9,2.9,3.1,7.9,0.6,13.6c-0.5,1.4-1.2,2.7-1.9,4c-0.1,0-4.3,1.1-9.3,2.4 C344.2,280.7,330.7,282,325.2,279.6L325.2,279.6z M440.7,243.4c0-18.4-0.6-32.1-2.2-54.2c-4.3-59-6.2-87.5-6.9-102 c-0.5-9.2-1.2-16.8-2.1-20l-1.4-5.2l2.5-6.9c1-2.9,2.2-5.7,3.6-8.4c1-1.4,1.3-1.1,3.2,3.3c5,11.1,14.8,38.7,14.8,41.5 c0,1.5-2.9-0.1-6-3.1c-2-2-3.7-3.3-3.9-3s1.4,24.5,3.5,53.8c5.5,76.4,5.7,80.6,4.8,91.6c-1,11.7-2.6,19.5-5.7,28 C440.7,270.6,440.7,270.5,440.7,243.4L440.7,243.4z M263.4,221.5c-2.9-1.1-3.9-3.8-3.9-11c0-7.9,2.2-16.6,6.4-25.1 c3.6-7.3,3.6-6.8,0.5,3.8c-1.2,4-2.5,9.6-3,12.4c-0.8,4.7-0.7,5.6,0.6,8.4c0.9,1.7,2.2,3.3,3,3.4c1.7,0.3,4.2-1.8,5.9-4.9 c0.6-1.2,1.3-2.1,1.5-1.9c0.6,0.6-2,9.5-3.4,11.9c-1,1.8-4.4,4.2-5.3,3.9L263.4,221.5L263.4,221.5z M133.6,186 c-0.5-9.3-1.6-16.4-5.4-36.8c-2-10.6-1.8-13.8,1.1-18.1c1.8-2.7,3.8-4,8-5.5c1.8-0.6,2.1-1,1.4-1.9c-2-2.4-4.1-2.1-6.9,1 c-3,3.3-3.3,2.8-1.9-3.8c0.5-2.3,1.5-4.4,2.8-6.3c0.9-0.9,1.5-2,1.9-3.2c0-1.7-4.2-13.2-6.5-17.8c-2.3-4.5-3.3-5.4-4.3-3.8 s-3.5,0.8-6.4-1.7c-1.6-1.4-2.8-3-2.8-3.7c0-2.4,4.2-9,5.8-9c5.8,0,11.8,8.1,14.6,19.8c1.3,5.4,2.8,7.1,2.8,3.2s4.7-20,6.7-23 c3.4-5.1,7.9-5.3,10.9-0.3c1.8,2.8,1.8,6.3,0,9.1c-0.6,1-1.1,0.8-3-1c-5.6-5.3-7.8-2-11.8,17.4c-0.6,3-1.4,6-2.4,8.9 c-1,2.5-1,2.5,2.2,3.9c4.3,1.9,11,8.4,11,10.7c-0.2,1.7-0.7,3.3-1.6,4.8c-1.4,2.8-2,3.1-8.2,4.8c-3.3,0.9-6.6,2.1-9.6,3.7l-2.9,1.9 l1.2,3.8c3.9,13,6.4,31.7,5.5,42C134.9,196.1,134.2,196.5,133.6,186L133.6,186z M185.1,158.2c-6-3-4.9-19.9,2.4-35.5 c1-2.3,2.1-4.5,3.5-6.7c0.2,0-0.9,4.1-2.4,9c-4.4,14.5-4.4,23.7,0,25.1c1.3,0.4,2.3-0.2,4.7-2.9c3.3-3.7,3.6-3.2,1.8,3 C193.1,157,189.1,160.1,185.1,158.2L185.1,158.2z M77.6,137.2c-3.3-3.2-3.6-12.7-0.9-23.2c1.1-4.2,7.5-19.1,8-18.6 c-0.7,3.2-1.6,6.3-2.6,9.4c-1.6,5-2.7,10.1-3.2,15.3c-0.4,5.9-0.3,6.2,1.7,8.3c2,2,2.3,2.1,3.9,1c1.4-1.1,2.6-2.3,3.6-3.8 c1.4-2.1,1.8-2.3,1.8-1.1c0,3.2-2.6,10.1-4.4,12c-2.2,2.2-6,2.5-7.8,0.7L77.6,137.2z M203.1,59.8c1.5-4.8,3.3-7.3,6-8.3 c20-7.5,78.7-29.1,79.2-29.1s0.1,1.5-0.7,3.3l-1.4,3.3l-17.6,6.7c-15.8,6-56.6,22-63.4,24.8C202.6,61.6,202.6,61.6,203.1,59.8 L203.1,59.8z M414.7,37.4c0.3-1.5,0.8-2.9,1.5-4.2l1.5-3.2l40.4-15C480.3,6.7,498.9,0,499.4,0c1.2,0,1.1,0.2-0.5,3.6 c-1,2.2-2.2,3.2-5.4,4.4c-13.6,5.1-48.1,18.5-61.9,24c-8.9,3.6-16.4,6.5-16.6,6.5S414.7,38,414.7,37.4L414.7,37.4z"/>
</svg>