<svg xmlns="http://www.w3.org/2000/svg" width="466" height="311">
<path d="M245.8,308.5c-4.2-2-9.4-7-12.2-11.7s-4.2-11-4.2-18.6c0-12.6,3.7-25.5,12.5-43.6c6.4-13.2,6.6-9.4,0.3,8.6 c-6.4,18.3-8.2,25.4-8.2,32.8c-0.1,13.3,7.5,20.6,19,18.5c10-1.9,16.7-7,30.8-23.6c11.1-13.1,16.4-18.1,26.4-24.6 c6.9-4.6,22.1-12.1,37.5-18.5c12-5,16.1-7.6,20.8-12.9c4.4-5,5.8-9.4,5.8-18.7c0-7.2-1.8-36.4-4.4-71.2c-2.2-29.4-2.8-39.6-3.6-56.9 c-0.5-10.8-1.2-18.8-2-21.2c-0.6-2-1-4-1.2-6.1c0-2.5,5.5-17.4,6.4-17.4s3.8,7.1,10.4,24.7c8.1,21.8,8.3,25.9,0.9,18.4 c-1.8-1.8-3.5-3.1-3.7-2.9s1,20.3,2.8,44.7c4.9,67.9,5.2,73.9,4.1,83.5c-1.3,11.7-3.5,19.4-8.2,29.2c-3.4,6.9-5.1,9.4-9.8,14 c-5.3,5.3-6.5,6-18.1,11.1c-16.5,7.3-31.6,14.8-36.4,18.1c-5.7,3.9-14.6,12.6-25.4,24.8c-4.4,5.1-9.1,10-14.1,14.6 C263.6,310.4,253.9,312.3,245.8,308.5L245.8,308.5z M377.1,274.7c5.8-6.7,9.8-12.9,9.8-15.1c0-3.4-3.5-4.5-8.1-2.5 c-2.7,1.2,0.4-7.6,3.3-9.1c2.5-1.4,6.8-1,8.4,0.8c1.9,2.1,1.4,8.8-1.2,14c-2.2,4.6-9.8,12.9-13.7,15.2 C373.1,279.4,373.2,279.2,377.1,274.7L377.1,274.7z M80.6,275.6c1.6-2.3,3.4-4.6,5.3-6.6c5.6-6.5,8.6-12,7.8-14.1 c-0.9-2.4-3.2-3-6.3-1.7c-2.6,1.1-2.8,1.1-2.8-0.1c0-2.8,3.3-8.1,5.6-9c5-2.1,8.8,0.8,8.8,6.6c0,3.4-3.7,11.1-7.8,16.2 C88.3,270.4,80.6,276.8,80.6,275.6L80.6,275.6z M138.6,266.8c-2.5-1.9-5.1-3.6-7.8-5.2c-1.1,0-0.6-1.5,2.7-8.8 c1.9-4.1,3.8-7.2,4.4-7.2c1.3,0,8.7,4.6,13.2,8.2c1.7,1.4,3,3.1,3,4c0,2.1-6.4,14.2-7.6,14.2C146.2,272,142.5,269.7,138.6,266.8 L138.6,266.8z M247.6,262.6c-4.3-2.9-7.8-5.8-7.8-6.3c-0.1-1.9,6.7-14.6,7.8-14.6s11.6,6.5,14.2,8.9l1.7,1.6l2.9-6.1 c3.2-6.8,2.9-6.7,9.5-2.5l4.2,2.7l1.4-3.9c1.1-3,2-4.2,4-5.1c5-2.3,80.2-29.8,80.5-29.5s-0.3,1.7-1.1,3.4c-1.4,3-1.8,3.2-13.5,7.7 c-23.9,9.1-68.9,26.9-69.6,27.5c-0.4,0.4,0.4,1.4,1.8,2.4c1.7,1.2,2.5,2.4,2.5,3.9c0,2-5.6,13.2-7,14.1c-0.4,0.2-3.9-1.9-7.8-4.7 s-7.5-5.1-7.9-5.2s-2.1,2.4-3.6,5.3s-3.2,5.5-3.6,5.5S251.9,265.5,247.6,262.6L247.6,262.6z M196,262.2c8.7-10,10.9-14.3,8.6-17 c-1.2-1.4-4.2-1.6-6.5-0.4c-1.3,0.7-1.6,0.6-1.6-0.8c0-2.3,2.9-7.7,4.4-8.3c2.4-0.9,6.6-0.5,7.9,0.8c1.6,1.6,1.7,8.2,0.1,12 c-2,4.9-7.7,12.2-12,15.5c-1.5,1.2-3.1,2.3-4.8,3.2C191.9,267.2,193.6,264.9,196,262.2L196,262.2z M411.6,261.4 c-0.2-0.6-0.1-4.4,0.4-8.3c0.5-7.8,0.6-15.7,0.4-23.5c-0.4-15.2-1.3-29.2-6.5-103.7c-1.1-15.4-2.3-35.2-2.8-43.8 c-0.5-10.2-1.3-17.5-2.1-20.6c-1.3-4.6-1.3-5.1,0.1-9.4c2.3-7.2,5.2-13.3,6-12.5s6.1,14.1,11.7,29.3c6,16.5,5.8,19.9-1,13.2 c-1.9-1.8-3.6-3.2-3.8-3s1.4,24.8,3.5,54.8s4.2,60.3,4.6,67.6c1.1,20.8-0.4,35.6-5.1,49.6C414.4,258.9,412.2,263,411.6,261.4 L411.6,261.4z M77.6,230c-19.4-3.5-32.1-13.1-37.5-28.4c-5-14.1-2-37.8,6.7-52.9c2.6-4.5,3.1-6.2,3.5-11.6c0.5-4.8,1.5-9.6,3-14.3 l2.5-8l-2.1-1.8l-2.1-1.8l-4.1,4.6c-4.7,5.2-14.4,12.6-21.6,16.6C20,135.5,1.7,142.6,0,142.2c-0.6-0.1,4.9-3.8,12.3-8.2 c17.9-10.7,26.2-16.2,31.3-20.8l4.2-3.8l-3.6-2.3c-4.5-2.9-6.3-6.2-5.7-10.4C40.1,88,51.7,79.9,56,84.7c1.6,1.7,1.8,8.8,0.4,14.2 c-0.8,3.4-0.8,3.6,1.3,5.3c1.9,1.5,2.1,2.2,1.8,5c-0.7,3.6-1.7,7.1-3,10.5c-3.3,9.1-3.7,17.1-1.1,19.7c2.5,2.4,5.3,1.5,7.8-2.7 l2.1-3.4l-0.5,3.2c-0.8,4.6-3.5,10.7-5.4,12c-2.1,1.7-5.1,1.5-7-0.5c-0.9-0.9-1.8-1.6-1.9-1.4s-1.9,5.3-4,11.4 c-3.3,9.7-3.8,12.1-3.9,18s0.2,7.5,2.1,11.4c8.2,17.5,36.4,26.5,72.3,22.9c17.8-1.8,41.9-7.5,63.4-15.1c12.1-4.3,32-12.1,40.4-16 s8.6-3.9,8,5.1c-0.4,7-0.3,7.9,1.6,11.8c3.6,7.3,12.1,10.2,21.6,7.5c6.8-2,10.6-5.4,17.8-16c6.3-9.3,8.6-11.7,9.6-10.2 c0.3,0.4,0.1,2.4-0.5,4.4c-0.5,2-0.6,4.1-0.4,6.2c1.2,6,8.4,11.6,15.9,12.4c12.3,1.2,38.6-7.3,51.3-16.7l4.7-3.4l-0.5-4.4 c-2.1-18.3-18.1-36-32.3-36.1c-6.8,0-12,3.6-11,7.6c0.9,3.5,3.4,4,13.2,2.9c9.5-1.1,11.4-0.7,15,3.3c2.4,2.6,9.4,15.8,8.8,16.5 c-0.3,0.3-1.7,0.1-3.1-0.5l-4.8-1.9c-1.7-0.7-4.1-0.6-10.4,0.5c-14,2.4-19.6,1.8-24.1-2.5c-3.2-3.1-4.5-5.8-5-11.1 c-1.3-12.1,6.7-28.5,16.1-33c8.3-4,19.5-0.2,28.9,9.9c10.2,10.9,14.7,21.1,15.3,35c0.4,10-0.5,15.4-4.1,22.9 c-4.7,9.8-15,19.2-27.3,25.1c-9.9,4.7-15.4,5.9-26.4,6c-9,0-9.8-0.1-13.2-2.1c-4.7-2.7-8.4-6.8-10.8-11.7l-2.1-4.2l-4.7,7 c-5,7.6-9.1,11.4-15,14c-3.1,1.4-4.8,1.6-9.7,1.2c-13.6-1-20.4-8.2-21.7-23c-0.4-4-0.7-5.2-1.7-5.1c-0.7,0.1-8.2,3.2-16.8,6.9 c-43.5,18.8-79.2,27.9-109.2,27.7C88.3,231.1,83,230.7,77.6,230z M52.6,96.7c-0.1-1.4-0.6-2.8-1.5-3.9c-1.3-1.7-1.7-1.7-3.9-0.8 c-4.2,1.8-3.7,3.6,2.2,7.5C51.6,101,52.5,100.2,52.6,96.7L52.6,96.7z M102.9,179.3c-1.7-1.4-1.9-2.3-2.2-8.7 c-0.3-4.6,0.1-9.1,1.3-13.6c1.5-6.1,7.2-19.8,7.9-19.1c0.2,0.2-0.8,3.9-2.1,8.2c-4.6,15.2-5.1,21.6-1.7,24.6c2.2,2,4,1.3,7.1-2.8 c1.5-2,2.6-2.9,2.3-2s-0.7,2.9-1,4.4C112.8,179.1,107.5,183.1,102.9,179.3L102.9,179.3z M156.3,161.2c-0.8-10.9-1.8-17.8-4.5-32.2 c-2.7-13.9-2.9-18.4-1.1-22.1c1.4-2.8,4.2-6.2,5.1-6.2c1.2-0.3,2.4-0.7,3.6-1.2c2.8-1.2,2.9-1.3,1.5-2.4c-2.4-1.8-4.5-1.4-6.9,1.4 l-2.2,2.6v-2.4c0-3.9,1.3-7.7,3.7-10.8l2.1-2.4l-2.2-6.6c-2.1-6.2-5.3-13.5-6.9-15.5c-0.5-0.7-1.3-0.7-3,0c-2,0.8-2.7,0.6-5.2-1.3 c-3.5-2.7-3.7-4.8-0.8-9.5c1.2-1.9,2.2-3.5,2.4-3.7c1,0,2,0.2,2.9,0.6c5.2,1.7,10.5,9.5,12.6,18.5c1.6,7.1,2.1,7.1,3.6,0.3 c3.3-15.3,6.1-21.6,10.2-23c4.6-1.6,9.3,4.6,7.8,10.2c-0.9,3.4-2.1,3.7-4.8,0.9c-4.3-4.6-6.8-1.1-10.4,14.8 c-1.2,5.5-2.6,11.1-3.1,12.3c-0.8,2-0.6,2.3,1.3,3.1c3.7,1.4,10.3,6.8,11.3,9.3c0.8,2,0.7,2.9-0.6,5.9c-1.5,3.5-1.7,3.6-7.8,5.4 s-11.9,4.3-12.6,5.5c-0.2,0.3,0.6,4.6,1.9,9.4s2.7,11.8,3.2,15.4c1,7.6,1.1,23.9,0.2,28.6C156.9,168.9,156.8,168.3,156.3,161.2 L156.3,161.2z M210.4,149.8c-2.1-3.2-1.9-15.6,0.4-23c2.1-6.7,6.5-16.7,7.1-16.1c0.2,0.2-0.3,2.7-1.2,5.5c-4.7,14.5-5.4,22.3-2.2,26 c1.9,2.2,1.9,2.2,4,0.8c1.5-1.1,2.8-2.5,3.8-4l1.6-2.6l-0.5,3.2c-0.8,4.5-3.6,10.7-5.3,11.6C215.2,152.8,211.9,152.2,210.4,149.8 L210.4,149.8z M256.8,108.8c-2.8-1.1-4.3-5.1-4.8-12.9c-0.3-5-0.8-7.3-1.5-7.6c-1.8-0.7-1.2-4.7,1-7.4c3.8-4.5,4.4-3.5,4.2,6.6 c-0.2,7.6,0,9.4,1.2,11.2c2,3,4.9,2.8,8.3-0.6c3.1-3.1,3.2-4.3,1.5-12.6c-1-4.6-1-6.3-0.3-8.1c0.5-1.2,1.3-2.1,1.8-2 c1.1,0.4,2.8,6.9,3.4,13.7c0.8,7.9,5,12,9.1,8.7l1.8-1.5l-2.6-5.1c-3.4-6.7-4.1-13.2-1.7-16l1.7-2v2.2c0,1.2,1.2,5.2,2.6,8.8 c3,7.6,3.1,12.4,0.8,17.8c-2.8,6.4-8.2,6.9-12,1l-2-3l-1.6,3.3C265.2,108,260.7,110.4,256.8,108.8L256.8,108.8z M310.8,103.3 c-4.3-2.9-7.8-5.8-7.8-6.3c-0.1-2.1,6.8-14.6,8-14.6c0.7,0,4.4,2.2,8.3,4.8s7.2,4.8,7.3,4.8c1.2-1.8,2.2-3.7,3.1-5.6 c1.5-3.1,3.2-5.6,3.6-5.6s4.1,2.3,8.2,5c9.1,6.2,9.4,7,4.6,15.6c-1.8,3.2-3.6,5.8-4.1,5.8s-4-2.2-7.9-4.8s-7.3-4.8-7.7-4.8 s-1.9,2.4-3.4,5.4s-3.2,5.4-3.6,5.5S315.1,106.3,310.8,103.3L310.8,103.3z M227.8,74.5c1.3-4.1,2.7-7.3,3.3-7.3s13.1-4.6,65.7-24.1 c8.3-3.1,15.4-5.5,15.8-5.3c0.9,0.3-2.1,7-3.1,7s-29.9,11-60.2,23C228,76.2,227.2,76.5,227.8,74.5L227.8,74.5z M381.3,34.3 c0.5-1.5,1.1-2.9,1.8-4.3c0.7-0.7,80.7-30,81.8-30s1.1,0.4-0.5,3.3l-1.9,3.3l-23.6,9c-13,5-31.4,12.1-41,15.9s-17.6,6.9-17.8,6.9 S380.4,36.5,381.3,34.3L381.3,34.3z"/>
</svg>