<svg xmlns="http://www.w3.org/2000/svg" width="454" height="455">
<path d="M381.2,0c-0.8,0-3.4,5.7-5.7,12.3c-1.5,4.4-1.5,4.9-0.3,8.4c0.8,2.3,1.6,8.5,2,16.2c0.4,6.9,1.2,19.9,1.7,28.9 s0.8,16.8,0.5,17.5s-2.4,1.8-4.7,2.5c-3.9,1.2-4.5,1.7-5.7,4.8c-1.3,3.2-1.8,5.4-1.1,5.4c0.2,0,2.9-1.1,6.1-2.4 c3.7-1.5,6-2.1,6.4-1.6s1,7.4,1.5,15.4s1.7,24.8,2.5,37.4c1.8,25.9,2,36.6,0.8,42.3c-0.8,3.5-1.4,4.3-4.5,6.4 c-6.6,4.4-11.8,5.9-19,5.4s-9.5-1.2-15.6-5.8c-1.9-1.5-3.8-2.7-5.9-3.9c-2.2-0.8-6.2,3.7-18,20.2c-16.6,23.2-19.6,25.8-45.3,38.7 l-15.2,7.6l-2.6,7.3c-2.5,6.8-3.9,12.7-3.2,12.9c0.2,0.1,16.7,0.5,36.7,1l36.4,0.9l-4.4,2.3c-18.6,9.8-36.7,25.1-47,39.7l-3.9,5.5 l-7.8-3.1c-9.1-3.6-12.4-5.6-17.9-11.1c-4.9-4.9-6.9-9.7-6.4-15.3c0.7-7.4-1.8-6.2-8.2,3.9c-2.5,3.9-5.2,7.7-8.2,11.2 c-8.2,9.1-26.4,8.1-32.7-1.4c-1.3-2.9-1.5-4.9-1.3-11.2l0.3-7.7l-1.9,0.2c-3.2,0.9-6.2,2.1-9.2,3.5c-20.2,9.1-48.7,19.1-68.2,24 c-18.6,4.6-31.8,6.4-47.1,6.5C39.9,325,24,320.3,13,309.7c-10.4-9.9-11-19.8-2.7-42.9c1.6-4.4,2.6-8.2,2.4-8.6 c-1.3-2-8.4,12.9-11.1,23c-2.2,8.6-2.2,25.4,0.2,32.8c5.6,17.8,19.6,27.8,42.7,30.7c5.4,0.5,10.9,0.6,16.3,0.4 c30.8-1.1,65.9-10.6,109.6-29.8c6.1-2.7,11.4-4.9,11.7-4.9s0.8,2.1,1.1,4.6c1.7,14.6,8.2,22.1,20.6,23.7c8.6,0.7,18.2-3.5,26.3-15.5 c2.3-3.5,4.3-6.4,4.4-6.4s1.6,2.4,3.2,5.3c2,3.3,4.5,6.3,7.2,9c5.4,4.5,11.5,8,18,10.4c1.1,0.2,2.1,0.7,3,1.3c0,0.2-0.9,3.3-1.9,6.9 c-5.9,20.5-6.8,46.7-2.1,65c5.9,23.2,22.1,36.4,47.6,38.9c12.9,1.2,26.8-0.6,37.9-5c26.9-10.6,50.7-36.6,56.8-61.9 c4.6-19,2-34.2-7.6-44.5c-9.1-9.7-18.2-11.5-61.9-12.3c-27.5-0.5-49.5-1.7-50.6-2.8c-0.4-0.3,1.8-2.9,4.8-5.7 c19.2-18,41-28.7,79.9-39.2c10.1-2.7,18.9-5.2,19.6-5.6c1.4-0.7,7.4-17.5,6.6-18.3c-0.2-0.2-9.2-0.5-19.8-0.5s-32.5-0.3-48.7-0.7 l-29.4-0.7l8.2-8.5c6.7-7,9.6-10.9,16.1-21.6c7.9-12.9,11.5-18,12.2-17.3c0.8,2.8,1.4,5.7,1.8,8.6c0.7,4.2,1.8,8.3,3.3,12.3 c3.5,7.5,17,18.5,21.8,17.9c3.8-0.5,6.4-16.1,4.4-25.6c-0.6-2.8-0.5-3,1.3-3c7.4,0,16.2-7.5,21.8-18.6c2.6-5.1,5.6-15.9,6.7-23.9 c1.6-11.6,0.7-39.4-2.4-77.6c-0.4-5.1-0.7-10-0.8-10.9c0-1.8,6-4.4,45.8-19.5c13.3-5,13.4-5.1,14.6-8.2c0.5-1.1,0.8-2.2,1-3.4 c-0.1-0.1-13.4,4.6-29.4,10.6s-30,11-31,11.2c-1.4,0.3-1.8,0.1-1.8-1.1c0-0.8-0.5-8.7-1.2-17.5s-1.2-17.2-1.2-18.7V39l4,3.7 c5,4.7,6,4.8,5.3,0.3C396.8,37.2,382.5,0,381.2,0L381.2,0z M414.8,80.8c-0.7,0-5,10.2-6.3,14.8c-0.7,2.2-0.6,4.7,0.4,6.8 c0.8,2.3,1.5,8.7,2,17.2c0.4,7.5,1.6,26.6,2.8,42.4c7.3,105.8,7.7,114.1,6.5,132.2c-0.4,5.4-0.4,9.8-0.1,9.8c1,0,5.3-10.5,7.1-17.8 c2.8-10.8,4-23.7,3.4-37c-0.3-6.2-2.3-37.5-4.6-69.5s-4-58.4-3.7-58.7s1.9,1,3.7,2.8c3.5,3.5,5.7,4.2,5.7,1.7 C431.6,122.3,416.1,80.8,414.8,80.8L414.8,80.8z M307.8,82.5c-1.1,0-2.2,0-3.3,0.1c-13.5,0.4-14.9,1-20.2,9.5 c-6,9.5-6.8,8.8,9.7,8.8c14.1,0,22,0.8,23.6,2.5c1.2,1.2-1.3,3-13.5,9.7c-13.4,7.3-21.2,11.9-21.8,12.8c-0.7,1.1,0.8,0.8,11.2-2.1 c13.7-3.9,18.7-5.8,22.7-8.8c7.1-5.4,19.7-22.8,19.2-26.4S323.8,82.3,307.8,82.5L307.8,82.5z M210,124.2c-2.4-0.2-4.9,1.5-6.9,5.1 c-1,1.8-2.7,7.3-3.9,12.4c-3,13.3-3,13.3-5.1,5.4c-2.1-8-5.8-14.6-9.6-17.2c-4.1-2.8-5.7-2.4-8.3,1.8c-2.9,4.7-2.8,6.1,0.6,9.1 c3.1,2.8,3.7,2.9,6,1.5c1.3-0.8,1.8-0.7,2.8,0.6c1.6,2.1,6.3,13.3,7.6,18.1c0.9,3.4,0.9,3.9-0.4,5.2c-1.9,1.9-3.3,5.5-4,10.3l-0.6,4 l2.8-3c2.8-3,5.1-3.4,7-1c0.6,0.8,0,1.3-2.6,2.4c-4.4,1.8-6.1,3.3-7.9,7.2c-2,4.4-1.9,7.5,0.9,21.1c3.1,15.5,3.9,21.1,4.6,32.1 c0.5,7.8,0.7,8.8,1.3,6.4c0.4-1.5,0.7-7.7,0.8-13.6c0.1-11.2-1.4-22.3-4.5-33l-1.9-7l2.1-1.6c1.9-1.5,13.7-5.6,16.1-5.6 c1.5,0,4.3-7,3.8-9.2s-6.7-7.8-10.8-9.8l-2.9-1.4l1.1-3.1c0.6-1.7,1.9-7.1,2.9-12.1c2.3-11,4.5-15.7,7.2-15.7c1.4,0.2,2.7,0.9,3.5,2 c2.2,2.8,3.1,2.5,4.3-1.3c0.9-3,0.8-3.6-0.7-6.2S211.9,124.3,210,124.2L210,124.2z M299.2,151.1c-5.7,0.2-14,8.4-14,16 c0,2.4,3,6.2,7.2,9.1l2,1.4l-3.6,3.3c-5,4.5-14.8,11.1-31,20.6c-7.6,4.5-13.9,8.3-13.9,8.5c0,0.8,1.9,0.3,10.6-2.9 c16.4-6,27-12.4,36.3-22l5.7-5.9l2.6,1.9c1.5,1.1,2.9,1.8,3.3,1.5c0.9-0.5,3.9-6.4,3.9-7.5c0-0.4-1.4-1.8-3.1-2.9l-3.1-2l1.1-4.1 c1.4-5.5,1.4-11-0.2-13.2C302.3,151.7,300.8,151,299.2,151.1L299.2,151.1z M295.6,159.4c0.1,0,0.3,0,0.4,0c2.1,0.3,3.9,3.9,3.2,6.6 s-1.9,2.6-5.6-0.8l-3.1-2.8l1.9-1.6C293.3,160,294.4,159.5,295.6,159.4L295.6,159.4z M115.7,201.2c-2,0.1-4.6,1.3-7.5,3.7 c-5.8,4.8-7.9,12.7-4.5,16.9c1.3,1.5,2.8,2.8,4.4,3.8l2.9,1.8l-3.1,3.1c-4.1,4.2-13.8,10.8-29.9,20.2c-7.3,4.3-13.7,8.3-14.4,8.9 c-1.7,1.6-0.5,1.4,7.1-1.4c17.8-6.5,29.5-13.4,38.7-23c5.7-5.9,6.6-6.2,9.3-2.9c1.6,1.9,2.2,1.5,4-1.9c2.2-4.3,2.1-5.1-1.1-7.8 l-2.7-2.3l1.2-5.2C122.2,206.1,120.2,201,115.7,201.2L115.7,201.2z M112.5,209.6c1.9,0.1,3.1,2.1,3.1,5.9c0,3.4-1,3.6-5,0.7 c-3.4-2.4-3.7-3.7-1.2-5.4C110.3,210.1,111.4,209.7,112.5,209.6z M346.3,214.4c2.1,0,8.5,5.6,10.6,9.2c2.5,4.3,2.5,7.2-0.1,5.8 c-3.6-1.9-6.6-4.7-8.8-8.2C345.4,216.7,344.8,214.4,346.3,214.4L346.3,214.4z M344.3,300.4c-0.9,0-2.2,2-4.9,7.3 c-2.1,4.2-3.7,7.8-3.6,8s3.9,2.8,8.2,5.9s8.2,5.7,8.5,5.7c0.6,0,5.6-9.1,6.9-12.7c0.7-1.9,0.7-3,0.1-3.7c-1-1.2-13.5-9.7-15.2-10.3 C344.4,300.4,344.3,300.4,344.3,300.4L344.3,300.4z M275.3,344.4c1.2,0,2.4,0.2,3.6,0.5c9.3,1.8,26.6,3.2,40.4,3.2 c19.8,0,45.1,1.4,53.2,2.8c16.6,2.9,27.9,13.5,28.6,26.9c0.2,4.2,0,6-1.6,9.6c-7.8,17.3-32.5,36.3-57.2,43.7 c-6.1,1.8-8.7,2.1-20.2,2.4c-11,0.2-14.3,0-20-1.3c-18.6-4.3-30.3-15-34.9-32c-1.7-6.4-2-24.4-0.5-31.6c1.1-5.3,6.2-21.8,7.2-23.4 C274.2,344.6,274.8,344.3,275.3,344.4L275.3,344.4z M361.5,353.8c-1.9,0.1-9.2,2.8-33.4,11.8c-17.6,6.5-35.7,13.2-40.3,14.9 c-7.9,2.9-8.4,3.2-9.8,6.3c-0.7,1.4-1.2,2.8-1.5,4.3c0,0.5,0.1,1,0.3,1s11.6-4.5,25.4-9.9s31.7-12.5,39.9-15.5l16.1-6.1 c1-0.4,3.9-5.1,3.9-6.5C362.1,353.8,361.9,353.7,361.5,353.8L361.5,353.8z M214.1,365.2c0,0-0.1,0-0.1,0c-0.4,0.3-2,3-3.6,6.1 l-2.8,5.7l-1.8-1.6c-2.8-2.5-12.8-9-13.9-9c-0.6,0-2.7,3.4-4.8,7.6c-3.2,6.4-3.6,7.8-2.6,8.3c0.7,0.4,4.3,2.9,8,5.5s7.2,4.8,7.7,4.9 s2.2-2.5,3.9-5.5s3.1-5.6,3.4-5.6s3.9,2.4,8.1,5.3c8.8,6.1,7.9,6.4,12.8-3.6c2.2-4.5,2.7-6.2,2.1-7.2 C229.2,374.2,215.8,365.3,214.1,365.2L214.1,365.2z M101.8,367.2c-0.5,0-2.7,3.4-4.7,7.6l-3.8,7.5l7.2,4.9c2.7,1.7,5.2,3.6,7.7,5.7 c1,1.6,3.2,0,5.5-4.1c3.4-6,4.7-9.4,4.2-10.7S103.2,367.2,101.8,367.2L101.8,367.2z M336.3,374.6c-4.9,0.1-7.9,1.9-10.2,6.1 l-1.9,3.5l1.9-0.6c4-1.2,8.2-1.4,12.3-0.5c2,0.6,3.6,1.3,3.6,1.8s-3,4-6.6,7.9c-7.9,8.5-11,13.9-11,18.9c0,4.4,1,6.3,4.2,8.3 c5.3,3.3,19.5,1.5,27.9-3.5c3.5-2.1,7.9-6.2,6.6-6.1c-0.4,0-3.5,0.8-6.8,1.6c-7.6,2.1-20.3,2.9-24.3,1.6c-6.6-2.2-5.7-5.3,4.8-16.3 c9-9.6,11.7-13.8,11.4-17.5c-0.3-3.3-3-4.7-9.8-5.2C337.7,374.6,337,374.6,336.3,374.6L336.3,374.6z"/>
</svg>