<svg xmlns="http://www.w3.org/2000/svg" width="342" height="413">
<path d="M186.2,0c-0.5,0-1.1,1.3-2.5,4.7c-3.9,9.6-4.5,12.7-3.1,16.5c1.2,3.5,1.4,4.7,2.7,28.5c0.5,8.1,2.3,35,4,59.6 c5.1,73.7,5.8,87,4.8,99c-0.5,5.8-0.9,11.4-0.9,12.5c0,1.7,0.2,1.9,1.1,0.9c3.3-3.5,7.9-20.1,9.4-33.6c1.2-11.1,0.7-21.6-4.1-88.4 c-2.2-30.4-4-56.4-4-57.9v-2.7l4,3.7c4.4,4.1,5.6,4.5,5.6,1.9C203.2,41.4,189.5,4,187,0.6C186.7,0.2,186.5,0,186.2,0L186.2,0z M223.5,35.5c-4.3,0.1-5.3,0.5-7.5,1.7c-2.9,1.5-4.3,3.1-7.4,8.2c-2.1,3.5-3.8,6.9-3.8,7.5c0,0.9,1.6,1,9.4,0.6 c10-0.6,24.8,0.5,27.5,2c1.5,0.8,1.5,1,0.3,2.3c-0.7,0.8-5.5,3.7-10.6,6.5c-12.8,6.9-24,13.4-24.6,14.3c-0.3,0.4-0.2,0.8,0.1,0.8 c2.4,0,26.4-7.5,30.3-9.4c5.3-2.7,12.3-10,19-20.2c5.2-7.9,5.1-10.2-0.6-12.3c-3.3-1.3-6.7-1.6-20-1.9 C229.9,35.5,226.2,35.5,223.5,35.5L223.5,35.5z M131.1,54c-2,0-4.1,1.6-6.1,4.5s-2.7,5.1-5.2,16.7c-1,4.5-2,8.2-2.3,8.2 s-0.9-2.2-1.4-4.8c-0.9-3.6-2.2-7.2-3.9-10.5c-3.2-6.2-6.8-9.4-10.6-9.4c-1.8,0-2.6,0.7-4.5,4.5l-2.3,4.4l3.1,2.8 c2.7,2.5,3.4,2.8,5.8,2.3s2.9-0.2,4.3,2.1c2.5,4,6.6,15,7,18.8c0.8,7.2,3.6,2.2,6.7-12.2c2.4-11.1,5-17.4,7.2-17.8 c0.8-0.1,2.3,0.7,3.4,1.8c2.5,2.5,3.2,2.6,4.4,0.5c1.9-3.6,0-9.3-3.8-11.3C132.4,54.2,131.8,54,131.1,54L131.1,54z M240.1,77 c-0.8,0-6.5,14.9-6.5,17.1c0.2,2.2,0.6,4.5,1.1,6.7c0.9,5.1,1.5,10.3,1.6,15.5c0.7,14,2.3,39.2,4.8,73.6c4.5,62.5,4.6,68,1.4,74.3 c-2.5,4.9-7.9,9.8-14.1,13l-5.3,2.7l-1.4-1.8c-1.5-2.2-2.9-4.4-4.1-6.8c-3.4-6.1-11.5-14.6-15.5-16.3c-6.1-2.6-11.6-1.1-18.1,4.9 c-5.6,5.1-9.3,12-10.5,19.5c-2.1,13.3,3,19.8,17.1,21.6c5.8,0.7,21.1,0,23-1.2c0.9-0.6,2.3,3,2.3,5.9c0,3.5-2.8,7.2-13.1,17.4 c-26.3,25.9-55,41.5-74.1,40.2c-15.4-1-24.6-9-27.3-23.6c-1.1-6,0.2-16.4,3.8-30.5c2.9-11.2,3.4-14.6,1.9-13.2s-6.9,18-8.8,26.7 c-2.2,10.1-2.6,26.8-0.9,33.6c3.3,13.2,11.3,22.5,22.2,25.9c5.6,1.7,15.6,1.6,23-0.3c11.4-2.9,25.7-11.2,40.9-23.6 c10.4-8.5,28-26.8,31.5-32.6c3.4-5.7,8.1-19.1,8.1-23.1c0-3.3,1.1-4.7,6.4-7.8c7.3-4.3,13.4-11.8,18-22.3 c6.4-14.6,8.2-27.7,6.8-50.4c-0.9-15.4-3.6-54.2-6.1-87.6c-0.7-9.2-1.1-16.9-0.9-17.1s2,1.3,4,3.3c4.6,4.6,5.6,4.7,5.1,0.2 C256,115.9,241.4,77,240.1,77L240.1,77z M62.8,96.3c-1.9,0.3-3.6,1-5.2,2.2c-4.4,2.8-7.7,7.5-8.4,11.9s1.4,7.9,6.2,10.6l3.4,1.9 l-3.5,3.1c-5.7,5-15.1,11.3-30.4,20.3c-7.9,4.7-14.6,8.8-14.8,9.2c-0.7,1.2,0.4,0.9,9.6-2.5c16.9-6.2,27.2-12.4,36.9-22.2l5.9-6 l2.8,2.1L68,129l1.2-1.8c0.8-1.3,1.6-2.7,2.2-4.1c1-2.2,0.9-2.4-2-4.9l-3.1-2.6l0.9-4.2c1.4-6.6,1.1-11.8-0.7-13.7 C65.6,96.7,64.2,96.2,62.8,96.3L62.8,96.3z M173.4,99.7c-0.3-0.3-16.7,5.4-36.4,12.7S99,126.6,96.2,127.6c-5.2,1.9-6.3,3.2-7.8,9.1 c-0.4,1.5,1.4,1,16.6-5.1c9.4-3.7,28-11,41.5-16.2c23.5-9,24.5-9.5,26-12.2C173.3,101.6,173.8,100,173.4,99.7L173.4,99.7z M59.3,105 c1.5-0.1,2.5,0.8,3.2,2.8c0.5,1.4,0.6,2.9,0.4,4.4c-0.7,2.1-1.2,2.1-5.1-0.8s-4-3.4-1.5-5.2C57.1,105.6,58.1,105.1,59.3,105z M341.4,110.9C341,110.5,260.2,140,259,141c-0.9,1.5-1.7,3.1-2.2,4.8c-1.1,3-1.3,4.1-0.6,3.8c9.7-4,58.9-23.3,68.9-27.1 c13-4.9,13.5-5.2,15.1-8.2C341,112.7,341.6,111.1,341.4,110.9L341.4,110.9z M288.9,148.2c-0.9,0-5.7,12.2-6.2,15.9 c-0.2,2,0,4,0.5,5.9c0.5,1.5,1.6,13.6,2.5,27s2.8,42.4,4.3,64.4c5.6,79.4,5.7,82.7,4,104c-0.5,5.7-0.4,6.3,0.7,5.2 c1.9-1.9,5.9-13.3,7.9-22.5c3-13.8,2.5-33.8-2.4-101c-2.3-30.8-4.1-56.9-4.1-58c0-2,0.2-1.9,3.8,1.7c4.9,4.8,6.2,4.9,5.5,0.5 C304.4,185.5,290.2,148.2,288.9,148.2L288.9,148.2z M136.5,150.8c-0.8,0.2-6,11.7-7.8,17.6c-2.4,7.7-2.6,20-0.4,23.3 c1.1,1.7,2.1,2.2,4.2,2.2c4.5,0,7.6-4.3,8.7-12.1c0.4-2.9,0.4-3.2-0.4-1.9c-1.5,2.6-4.9,6-6,6c-0.6,0-1.7-0.9-2.6-2.1 c-2.9-3.7-1.8-13.5,3.1-27.8C136.1,153.3,136.7,151,136.5,150.8C136.5,150.9,136.5,150.9,136.5,150.8L136.5,150.8z M52.9,187.7 c-2.6,0-5.2,0.1-7.8,0.4c-14.8,1.7-33.4,8-35.6,12.2C7,205.1,3,221,4.3,221c0.2,0,2.7-1.3,5.6-2.8c3.5-1.8,6.5-2.8,8.6-2.8 c4.9,0,12.7,4.4,22.1,12.6l5,4.4l-5.6,6c-23.5,25.2-35.7,52.6-39.2,88.1c-1.7,17.7-0.8,31.7,2.8,43c7.7,24.2,28.4,37.7,64.8,42.2 c6.8,0.8,29.3,0.4,35.2-0.6c6.3-1.1,60.3-18.8,66.2-21.7c1.6-0.8,3-1.8,3-2.2c0-0.8-2.8-0.6-21.2,1.4c-32.2,3.5-74.8,4.4-88.8,1.8 c-33.5-6.1-51.6-22.4-55.7-50.1c-3.6-24.6,8.7-57,31.3-82.4c4.2-4.8,14.2-13.7,16-14.3c0.4-0.1,3.6,1.9,7.2,4.6 c11.4,8.6,23.3,14,32.6,15c5.2,1.2,8.9,0.4,13.9,0.1c10.4-0.9,20.6-7.9,33.7-22.9c2.1-2.4,4.2-4.1,4.8-3.9s1.3,2.4,1.6,5.1 c1.3,10.3,5,15.2,13.1,17.6c12.8,3.7,26.3-1.7,34.3-13.8l3-4.6l1.3,1.9c2.7,4.2,8.4,9.5,11,10.4c6.1,2,15.6-1.2,19.8-6.7 c5.8-7.6,8.8-21.2,6.6-29.7c-1.2-4.8-3.2-8.5-4.5-8.5c-0.8,0-5.6,14.3-5.6,16.7c0.2,1.1,0.7,2.2,1.6,2.9c2.1,1.9,2,3.3-0.4,4.9 c-5.2,3.4-15.9,0.4-19.6-5.6c-1.6-2.7-1.7-2.9-0.5-7.5c1.7-6.4,1.6-8.1-0.3-8.1c-1.1,0-3.6,3-8.6,10.6 c-9.5,14.3-14.6,17.7-26.3,17.7c-12.7,0-20.4-6.5-19.2-16.4c0.3-2.3,0.6-5.1,0.7-6.2c0.4-4-2.4-2.8-9.2,3.8 c-12.3,11.8-16.7,15.5-21.4,17.9c-8.6,2.6-17.7,5.4-26.7,4.5c-3.9-0.5-7.7-1.4-11.4-2.6c-6.2-2.1-13.8-6.3-13.8-7.7 c0-0.4,5.6-3.5,12.3-6.9l12.3-6.1l2.8-6c4-8.6,4.2-10.4,1.8-13.4C95.4,193.5,71.8,187.6,52.9,187.7L52.9,187.7z M52.8,208.7 c5.5-0.1,13.1,0.4,16.2,1.4c2.5,0.7,4.7,1.6,5,2s-2.8,2.5-6.8,4.8c-2.5,1.5-5.1,2.9-7.8,4c-1.5-0.2-13.6-10.8-13-11.4 S49.6,208.7,52.8,208.7L52.8,208.7z M177.6,261.1c-1.7,0.2-8.8,2.8-46.2,16.7c-38.7,14.4-35.9,12.9-38.1,19.9c-0.3,1-0.3,1.7,0,1.7 s9.2-3.5,19.8-7.7c15.3-6.1,57-22.2,61.9-23.9c1.3-0.4,3.9-5.8,3.2-6.5C178.1,261.1,178,261,177.6,261.1L177.6,261.1z M191.3,272.2 c4.8,0.3,9.3,2.8,12.2,6.6l2.1,2.8l-1.8,0.5c-3.3,0.9-14.5,0.5-17-0.6c-4.2-1.8-4.8-6.1-1.1-8C187.4,272.5,189.4,272.1,191.3,272.2 L191.3,272.2z M62,284.2c-2.8,0-7,3.2-11.6,8.9c-5.9,7.5-5.8,13.3,0.2,16.9l3.1,1.9l-1.7,2c-3.2,4.1-6.6,12.5-7,17.6 c-0.4,4.5-0.2,5.2,1.7,7.5c1.4,1.7,3.3,2.8,5.5,3.2c3.2,0.7,5.5,0.6,13-0.3c2.8-0.5,5.5-1.4,8-2.6c5.1-2.4,11.9-7.1,11.3-7.8 c-0.2-0.2-3.4,0.4-7.1,1.4c-8.1,2.1-20.9,2.9-24.8,1.6c-4.2-1.4-5.1-4.1-2.9-8.6c2.7-5.4,9.5-13.2,14.9-17.1s8.1-8.3,8.1-12.8v-2.7 l-3.4,3.2c-6.7,6.4-9.9,7.3-14.8,4.3c-3.2-1.9-3.3-3.6-0.5-6.5c2.6-2.7,4.5-2.9,6.2-0.6c1.2,1.7,1.2,1.6,3.4-1.6 c1.8-2.7,2.1-3.7,1.5-5.5c-0.3-1.5-1.7-2.5-3.2-2.5L62,284.2z M152.4,299.6c-0.8,0.9-1.4,1.9-1.9,3c-4.5,7.9-6.8,16.8-6.8,25.9 c-0.1,8.5-0.1,8.7,2.1,10.6c4.5,3.8,8.5,1.4,10.9-6.6c1.8-5.9,2.1-8.9,0.7-6.3c-1.6,2.9-4.9,6-6.4,6c-1.2-0.3-2.1-1-2.8-2 c-1.9-2.8-1.1-12.3,1.7-21.6C152,302.2,152.8,299.6,152.4,299.6L152.4,299.6z M279.6,322.1c-0.4,0-0.7,0.7-1.5,2.1 c-0.9,1.6-1.2,3.6-0.9,5.4l0.5,2.8l-3.9-0.2l-3.9-0.3l0.2-3c0.1-1.6-0.1-3-0.6-3s-2.1,2-3.6,4.4c-3.5,5.5-5.7,6.5-11.7,5.3 c-13.1-2.6-18.9,0.3-34.7,17.8c-9,10-9.7,10.6-18.9,16.9c-3.7,2.5-6.2,4.4-5.4,4.1s2.9-0.9,4.8-1.4c5.3-1.4,8.3-3.5,19.1-14 c14.3-13.7,21.3-17.1,30.7-14.8c5.4,1.3,9.2,0.6,13.4-2.6c3.4-2.5,3.5-2.6,6.9-1.5c4.7,1.5,7.3,0.6,9.2-3.5c2-4.3,2.6-11.5,1.1-13.5 C280.1,322.4,279.8,322.1,279.6,322.1L279.6,322.1z M250.6,357c-3.9,0-6.1,1.7-7.8,6c-1.6,4.2-1.3,4.8,1.5,3.5 c2.6-1.2,5.9-0.4,6.6,1.6c0.8,2.4-1.4,6.5-6.4,12.5l-5.9,7c-3,3.6,4.2-1.6,8.2-6c6-6.5,8.8-12.1,8.9-17.6S254.5,357,250.6,357 L250.6,357z"/>
</svg>