<svg xmlns="http://www.w3.org/2000/svg" width="474" height="410">
<path d="M92.9,408.5c2.3-1.3,4.6-2.4,7-3.3c12.8-5.5,34.7-15.7,38.9-18.1c12.7-7.5,16.8-11.1,21.8-19.6c2.4-4.1,4.9-7.4,5.5-7.4 s1.7-1,2.3-2.3c1.6-3,5-5.7,7.2-5.7c2.4,0,6.7,4.5,7.3,7.8c0.9,4.5-0.1,11.3-1.9,13.7c-2.6,3.4-7.3,2.1-14.3-4l-2.6-2.2l-2.9,6 c-4.5,9.4-12.1,16.2-27.7,24.6c-5.1,2.8-9.4,4.3-17.6,6.2C96.6,408.6,92.9,409.4,92.9,408.5L92.9,408.5z M180.1,367.2 c0-1.7-2-4.9-3.8-6.1s-2.1-1.2-3.9,0c-2.4,1.6-2,2.3,2.7,4.8C179.3,368.1,180.1,368.3,180.1,367.2L180.1,367.2z M52.7,406.4 c-3.5-1.1-7.4-3.8-11-7.7c-11.3-12.3-11.2-32,0.4-59.2c6.2-14.5,9.2-19.6,9.2-15.8c0,0.8-2.7,9.4-5.9,19c-9.1,27-9.7,36.4-2.6,44.2 c5.6,6.2,15.8,5.4,27.4-2.2c2.6-1.7,12.2-9.9,21.5-18.2c19.8-17.7,29-25.3,40.4-32.9c9.6-6.4,18.1-10.9,25.4-13.4l5.1-1.7l-3.7-1.4 c-1.4-0.5-2.8-1.1-4.1-2c-0.2-0.4,0.9-3.9,2.6-8l3-7.3l6.4-2.6c8.4-3.5,16.1-8.7,22.5-15.1c3.6-4.1,6.8-8.5,9.8-13.1 c11.4-17.7,13.1-19.4,17.4-18.6c1.5,0.3,3.9,4.5,6.4,11.3c6,16.2,26,19.5,41.5,6.8c5.2-4.3,5.6-5,4.3-9 c-4.2-12.8-20.9-29.4-65.1-64.9c-18-14.5-33.1-26.7-33.4-27.2c-0.9-1.2-0.7-13.6,0.2-19.2c1.7-10.4,2.9-13,7.8-16.9 c10.8-8.6,33.2-21.3,57.9-32.8c48.7-22.8,74.8-32.3,89.3-32.6c5.9-0.1,6.8,0.1,8.4,1.7s1.8,2.6,1.8,8s-0.3,6.9-3,12.5 c-3.7,7.8-8.2,14.1-17.1,24.3s-13,15.6-16.2,21.2c-0.8,1.6-1.8,3.1-2.8,4.6c0-1.3,0.2-2.6,0.5-3.8c1.2-6.8,7.6-17.9,15.8-27.7 c14.2-16.8,16.3-20.3,13-22.1c-7.2-3.9-24.6,1-61.3,17.2c-21.5,9.5-55.9,26.8-69.2,34.7c-12.7,7.6-21.8,14.2-21.4,15.4 c0.2,0.5,6.7,4.9,14.4,9.9c38.7,24.7,76.1,52.6,104.6,78c9.9,8.8,15.4,12.9,22.4,16.4c6.5,3.3,14.6,6.2,15.2,5.5 c0.3-0.4,2.6-3.4,5.1-6.8c10.6-14.3,25.1-26.4,43.5-36.4l5.9-3.2l-11-0.5c-6.1-0.3-21.9-0.7-35-1s-24.6-0.6-25.4-0.9 c-2-0.6-1.7-2.9,1.6-11.9l3-8l6.8-2.1c42.7-13.4,41.8-13,42.8-21.1c0.7-5.9-0.1-33.8-1.6-55.5c-1.5-20.9-4.2-62.4-5.1-78 c-0.5-7.4-1.2-13.1-1.9-14.9c-1.5-3.5-1-6.3,2.6-15.1c1.3-3.3,2.4-6.1,2.4-6.2s0.3-0.2,0.7-0.2c1.2,0,15.5,37.2,16.4,43 c0.8,4.5-0.5,4.5-5.3-0.4l-3.8-3.8v2.8c0,1.5,0.4,7.1,0.8,12.4c6.8,81.6,6.2,112.7-2.2,129.6c-1.2,2.3-2.5,4.5-4,6.6 c-1.1,1.5-1.8,2.9-1.5,3.1c0.8,0.8,57.4,2,58,1.3c0.3-0.4,0-9.9-0.8-21.1c-3.5-49.4-5.6-80.6-6.3-93.2c-0.5-8.6-1.2-14.9-2-17.1 c-1.5-4.1-1-6.4,2.9-16c2-4.8,2.6-5.7,3.4-4.8c1.9,2.1,16.4,40.9,16.4,44.1c0,2.3-2.4,1.6-5.8-1.8c-1.8-1.8-3.4-3-3.7-2.8 c-0.4,0.4,6.9,107.9,7.6,111.5c0.4,1.9,0.5,1.9,7.8,1.4c4-0.3,7.9-0.2,8.5,0.2c0.9,0.6,0.6,2.2-1.9,9.1c-1.7,4.7-3.4,8.8-3.9,9.2 c-1.5,0.8-3.2,1.5-4.9,1.9l-4,1.2l-1,10.3c-1.1,11.5-2.5,19.2-5.1,26.8c-2.2,6.6-4.9,11.8-5.3,10.5c-0.2-0.5,0-6.5,0.5-13.2 s0.6-16.4,0.4-21.6c-0.4-8.1-0.7-9.4-1.8-9.4c-1.7,0-17.8,4.7-25.2,7.4c-21.6,7.8-41.6,19.6-54.2,32l-5,4.9l3.5,0.6 c6.2,1.1,32.1,2.2,49.3,2.2c19.4,0,35.8,1.1,43.9,2.9c21.9,4.9,31.2,25.5,24.4,53.9c-6.4,26.8-32.7,54-61.6,63.5 c-9.4,2.9-19.3,4.1-29.2,3.4c-29.8-1.6-46.6-15.6-52.6-43.7c-1.3-6-1.6-10.7-1.6-22.4c0-15.8,0.9-23.2,4.7-37.5 c0.7-2.5,1.3-5.1,1.8-7.7c-0.1-0.1-2-0.8-4.2-1.6c-10.4-3.8-18.7-9.8-36.7-26.8c-6.1-5.8-11.3-10.3-11.5-10.1s0.8,3.3,2.1,6.8 c5.5,14.3,2,29.2-9.6,40.8c-2.3,2.2-4.8,4-7.5,5.6c-3.5,1.9-4.9,2.1-11.2,2c-5.7,0-8.1-0.5-11.4-1.9c-5.1-2.2-10.7-8.2-12.6-13.5 c-2.7-7.4-5.1-12.2-6.1-12.2c-2.2,0-9.4,9.1-14.9,18.9c-3.2,5.7-7.3,12.3-9.1,14.6s-3,4.5-2.7,4.8s4.3,3.4,9,6.9s9.2,7.6,10.1,9.1 c1.5,2.6,1.5,2.9,0.2,9.5c-1.4,7-3.1,11.4-4.5,11.4c-1.9-0.6-3.7-1.4-5.4-2.3c-10.2-4.9-21.8-6.2-32.8-3.6c-10.4,2.7-25.6,11-40,22 c-3.3,2.5-14.1,11.5-24,20s-20.7,17.3-24,19.7C66,406.3,59.1,408.4,52.7,406.4L52.7,406.4z M395.6,368.8 c18.1-4.8,34.7-14.3,47.9-27.5c9.5-9.5,14.3-18.2,14.4-25.4c0-10.9-9.7-22.6-22.2-26.5c-6.9-2.2-15-2.8-46.8-3.7 c-26.5-0.7-36.3-1.4-54.9-3.8l-3.3-0.4l-2.1,5.5c-10.7,28.3-8.5,55,5.7,69.4c7.5,7.6,17.6,12.1,31.5,14.1 C373.4,371.5,388.3,370.7,395.6,368.8L395.6,368.8z M370.6,349.4c-6.3-2.2-7.9-9.5-3.7-17.1c1.2-2.3,5.3-7.4,9.1-11.4 c4.3-4.6,6.5-7.6,6-8.1s-2.9-1.1-5.5-1.6c-3.8-0.7-5.5-0.6-8.1,0.3c-3.9,1.3-4.1,0.8-1.7-3.2c2.7-4.3,4.4-5.1,11.1-5.1 c4.7,0,6.6,0.4,8.7,1.6c2.5,1.5,2.6,1.9,2.2,4.5c-0.6,3.7-2.9,6.9-12.1,16.8c-4.2,4.5-7.8,9.2-8.1,10.3c-1.8,7.2,14.4,8.2,34.5,2.2 c1.3-0.4,1.2-0.1-0.7,2C395.6,347.7,378.8,352.3,370.6,349.4L370.6,349.4z M221.7,399.8c0.9-2.3,1.6-4.2,1.6-4.3s3-1.2,6.6-2.5 s22.2-8.2,41.3-15.3s34.8-12.7,35.1-12.5s-0.4,1.8-1.3,3.6c-1.4,2.7-2.4,3.5-6.1,4.9c-13.5,5-43.9,16.8-59.8,23.2 c-10,4-18.4,7.3-18.6,7.3S220.8,402.1,221.7,399.8L221.7,399.8z M206.1,371.5c-4-2.9-7.3-5.5-7.5-6c-0.4-1.2,6.4-15.1,7.5-15.1 c0.5,0,3.8,2,7.3,4.4c10.1,7,8.8,6.9,11.7,0.5c1.6-3.7,2.9-5.6,3.8-5.6c1.4,0,11.1,6.2,14.2,9c1,0.8,1.6,2,1.8,3.2 c0,1.8-6.4,14.2-7.3,14.2c-2.8-1.6-5.5-3.3-8-5.2c-2.5-1.9-5.2-3.6-7.9-5.2c-0.3,0-1.7,2.5-3.2,5.6c-1.7,3.5-3.2,5.6-4,5.5 S210,374.3,206.1,371.5L206.1,371.5z M260.4,354.5c-4.1-1-7.6-3.5-9.7-7.1l-1.8-3.1l3.4,1.2c5.5,2,16.1,1.5,31-1.3 c22.3-4.2,22.2-4.2,19.3-6.8s-9.6-3.3-19.5-1.7c-16.7,2.6-24,1.6-24.5-3.4s6.7-15.9,14.8-22.7c7.1-6,16.1-8.9,18.6-5.9 c1.1,1.3,0.4,6-1.2,8.2c-1,1.4-1.1,1.4-2.7,0c-2.2-2-4.6-1.3-11.7,3.1s-13.9,11.2-12.6,12.5c1.5,1.5,9.6,1.7,18.5,0.3 c14.3-2.2,20.6-1.4,23.5,2.8c1.8,2.5,1.6,9.1-0.2,13.2c-1.3,2.8-2.1,3.5-5.4,4.6c-8.2,2.5-16.7,4.4-25.2,5.7 C266,355.4,264.2,355.4,260.4,354.5L260.4,354.5z M94.7,331.2c-2.8-1.1-3.4-3.4-3.4-11.4c0-8.7,1.7-15.9,6.1-25 c3.1-6.6,4.3-7.6,2.3-1.9c-2.9,8.1-5.3,19.6-5,23.3c0.4,4,2.3,7,4.6,7c1.3,0,3.9-2.6,6.1-6.1c1.4-2.2-0.7,6.6-2.4,10.2 c-0.7,1.6-1.9,2.9-3.4,3.8C97.3,332.2,97,332.2,94.7,331.2L94.7,331.2z M53.1,322.1c-2.2-1.9-2.2-2.2-2.2-9 c0.1-5.5,0.7-8.9,2.6-15.2c1.4-4.5,2.5-8.5,2.5-8.9s-0.9-1.3-2-2c-2-1.3-2-1.2-7.8,4.6c-6.7,6.6-14.3,12.1-22.6,16.3 c-6.2,3.1-22.5,9.2-23.6,8.8c-0.5-0.2,7.1-5.1,16.9-11c15.8-9.5,27.3-17.5,30.2-21c0.8-1,0.3-1.5-2.5-3.4 c-7.2-4.6-7.6-11.8-0.9-18.8c3.2-3.5,6.1-4.9,9.6-4.9c2,0,3.1,0.5,3.6,1.5c1.1,2,1,10,0,13.9c-0.8,2.8-0.7,3.3,1.2,5.2 c2.7,2.8,2.6,4.9-0.7,14.6c-2.1,6.1-2.8,9.3-2.8,13.5c0,9.5,4.4,11.7,9,4.6l2.3-3.4l-0.6,3.2c-0.8,4.7-3.5,10.7-5.5,12 C57.4,324.4,55.7,324.2,53.1,322.1L53.1,322.1z M52.7,271.9c0.6-5-2.3-7.6-6.3-5.5c-2.4,1.3-1.8,3.7,1.4,6 C51.3,274.7,52.4,274.6,52.7,271.9L52.7,271.9z M109.4,264.4c-0.5-7-1.3-13.9-2.6-20.8c-4.2-21.8-4.6-25.4-3.7-29 c1-4.2,4-7.7,8.1-9.2c3.8-1.2,4.2-2.3,1.5-3.6c-1.8-0.9-2.2-0.7-5.1,2l-3.1,3l0.6-3.2c1-6.1,2-8.9,3.7-10.4c0.9-0.7,1.4-1.8,1.6-2.9 c0-2-3.8-12.2-6.5-17.7c-2.3-4.5-3.3-5.4-4.3-3.8s-3.5,0.8-6.4-1.7c-1.6-1.4-2.8-3.1-2.8-3.8c0-2.2,4.6-8.9,6.2-8.9 c2.4,0,6.4,2.9,8.8,6.5c2.8,4.2,3.9,6.9,5.8,14c0.8,3,1.6,4.9,1.8,4.2s1.5-5.8,2.9-11.5c2.7-11.2,5.2-16.1,8.6-17 c4.7-1.2,9.1,4,8,9.6c-0.7,3.9-1.8,4.3-4.4,1.8c-4.9-4.7-7.7-1.1-10.9,14.3c-1,4.9-2.3,10-2.8,11.5c-0.4,0.9-0.6,1.9-0.6,2.9 c0.2,0.1,1.9,1.2,4,2.3c4.5,2.6,9.5,8,9.5,10.2c-0.2,1.6-0.8,3.2-1.6,4.7c-1.4,2.8-2.1,3.2-7,4.5c-5.1,1.4-10.7,3.7-12.7,5.3 c-0.6,0.5-0.3,2.6,1,7.1c3.2,10.8,4.8,22,4.5,33.2C111.6,274.5,110.2,278.6,109.4,264.4L109.4,264.4z M168.3,250.7 c-2-2-2.1-2.2-1.7-11.4c0.3-7.3,0.8-10.6,2.4-14.9c2.1-5.8,7.5-16.8,6.5-13.2c-0.3,1.1-1.6,5.6-2.9,10c-3.1,10.6-3.6,15.9-2,19.8 c2.1,4.9,5.3,3.9,9.9-3.1c0.9-1.3,0.9-1.2,0.5,0.9C178.8,251,173.5,255.9,168.3,250.7L168.3,250.7z M272.9,176.1 c0.4-1.5,0.9-2.9,1.5-4.3c1.5-3.4,1.8-3.7,8.2-6c3.7-1.3,21.8-8,40.2-14.9c31.2-11.6,35.6-13.1,35.6-12.1c0,1.7-3.1,6.1-4.7,6.8 c-1.1,0.4-11.5,4.4-23.1,8.9s-29.1,11.3-39.1,15.2s-18.2,7.2-18.4,7.2S272.9,176.5,272.9,176.1L272.9,176.1z M251.3,168.6 c-2.1-3.5-2.1-12.6,0-21.1c1.5-6,7.1-19.1,7.8-18.4c0.2,0.2-0.6,3.3-1.8,7c-4.9,15.4-5.3,22.4-1.5,25.4c2.6,2,4,1.4,6.8-3.1l2.4-3.7 l-0.6,3.2c-1.6,8.8-4.5,13.2-8.9,13.2C253.4,171.2,252.5,170.7,251.3,168.6L251.3,168.6z M304.3,56.5c1.2-1,9-5.5,17.4-10.1 s15.8-8.9,16.5-9.7c1.2-1.3,1.1-1.5-0.5-2.3c-2.9-1.5-16.5-2.5-27-1.9c-8,0.4-9.8,0.3-9.8-0.6c0-0.6,1.7-4,3.8-7.5 c5.5-9.4,7.1-10,23.7-10c20,0,27.6,1.8,27.6,6.4s-13.2,22-19.9,26.4c-3.4,2.2-14.6,6.3-26.6,9.5C302.1,58.8,301.5,58.7,304.3,56.5 L304.3,56.5z M387.3,47c0.4-1.6,0.9-3.1,1.6-4.5c1.6-3.7,1.8-3.8,8.6-6.3c3.8-1.4,22.2-8.2,40.8-15.1s34.1-12.4,34.4-12.1 c0.9,0.9-2.1,6.1-4,6.9c-1,0.4-12.6,4.9-25.8,9.9s-31.1,12-39.8,15.5S387.2,47.4,387.3,47L387.3,47z"/>
</svg>