<svg xmlns="http://www.w3.org/2000/svg" width="453" height="315">
<path d="M15.3,313.7c-5-1.5-9-5.1-11.1-9.9C2,299.3,2,299.2,2,284c0-14.3,0.2-15.8,2.5-24.4c2.9-10.9,7.7-22.9,8.1-20.2 c0.1,1-0.6,5.1-1.7,9.2c-5.2,19.3-6.2,31.2-3.1,37.2c3.7,7.1,10.5,9.8,19.4,7.8c9.7-2.3,35.7-15.8,36.3-19c0.2-1,0.5-5.3,0.8-9.7 c0.6-11,6.3-33.2,9.7-37.7c1.1-1.4,1.2-1.4,1.2,0.5c0,1.1-1.3,7-2.9,13.2c-1.9,6.8-3.1,13.9-3.3,21c-0.3,7.3-0.2,9.8,0.5,9.8 c1.1,0,30.2-19.1,39.5-26c3.4-2.5,6.7-5.6,7.3-6.8c1-1.9,1-2.4-0.2-4.2c-3.1-4.7-8.2-7.9-29-18.4c-22.1-11-30.5-17.3-41.6-30.8 c-2.6-3.2-5.8-6.4-7.1-7.2c-1.4-0.9-2.5-2.2-3.2-3.8c-1-2.9-1.1-17.1-0.1-17.7c0.7-0.4,5.7,1.8,23.4,10.3c9.1,4.4,9.2,6.9,0.4,6.9 c-2.6,0-4.5,0.3-4.4,0.7c0.4,1.1,7.7,7.1,12.8,10.6c2.6,1.8,13.4,7.6,24,12.8c19.5,9.7,23.3,12.2,26.4,17.2c4,6.4,5,17.7,2.7,28.9 c-1.7,8.1-3.3,11.1-9.1,16.4c-4.7,4.3-19.4,15.4-29.1,21.8c-2.5,1.7-4.6,3.3-4.6,3.7c0,1.2,4.8,4,9.4,5.7c5.7,2,15.5,2.1,22.6,0.3 c6.6-1.7,17.5-6.9,27-12.8c11.4-7.1,11.4-7,13.1-15.7c1.7-8.4,6.6-23.9,8.3-26.1c1-1.4,1.1-1.3,1.1,0.3c-0.7,4.2-1.6,8.3-2.7,12.4 c-1.5,5.9-2.9,12.2-3.2,14.2c-0.5,3.4-0.5,3.4,1.1,2.3c4-2.8,18-15.6,21.1-19.3c4.4-5.2,5.2-6.9,4.4-8.9c-1.5-4-7.3-5.9-21-6.7 c-9.5-0.6-11.6-1-15.4-2.8c-5.1-2.5-7.5-5.8-8.1-11.4c-1-8.6,2.7-18.8,9.3-25.7c6.8-7.2,14-9.1,21.2-5.8c6.7,3,15.2,15.3,18.9,27.3 c2.5,8.1,2.7,26.7,0.4,33.6c-3.3,9.6-6,13.5-18.7,26.1l-12.1,12.1l1.7,2.1c2.4,3.1,7.2,5.3,11.7,5.3c7.1,0,17.3-4,33-12.9l8.6-4.9 l0.4-12.1c0.3-8.9,1-14.4,2.4-20.5c1.9-8,6.1-20.6,7.7-23.2c1.9-3,1.6,0.7-0.8,9.7c-4.8,18.3-5.8,28-4,36.6c0.5,2.2,1.3,4,1.8,4 c1.5,0,37.5-24.3,42-28.4s5.1-6,2.9-9.1s-12.5-9.3-27.9-17c-22.1-10.9-29.5-16.4-41.5-30.3c-3.8-4.4-7.5-8.1-8.3-8.4 c-2.4-0.8-3.3-4.1-3.3-12.5c0-5.9,0.3-8.1,1.1-8.4c1.5-0.6,29.1,13,29.7,14.6c0.7,1.9,0.2,2.2-5.6,2.6l-5.2,0.3l1.9,2 c4.9,5.3,15.3,11.8,33.9,21.1c25.2,12.6,28.1,15.1,30.7,26.2c1.2,5.3,0.7,16.9-1.1,23.7c-2.4,8.8-6.6,13.1-27.6,28.2l-11.4,8.3 l2.7,1.1c17.2,7.1,38.5,0.5,67.1-20.7c8.2-6.1,23.9-20.8,28.9-27.1c2.5-3.1,3.1-4.5,3.1-7.3c0-4-0.7-6.2-1.7-5.6 c-1.8,1.1-17.6,1.8-23.5,1.1c-7.2-0.9-11.4-2.7-14.4-6.3c-2.6-3.1-3.3-6.6-2.7-13.8c1.4-16.2,16.3-30.4,27.5-26.2 c6.1,2.3,14.3,11.1,19,20.6c1.9,3.9,2.3,4.2,4.2,3.8c6.1-1.5,15.2-9.1,18.1-15.1c3.5-7.3,3.5-8-1.2-73.5 c-2.7-37.9-3.9-56.5-4.7-72.2c-0.5-10-1.2-16.4-2-18.8c-0.6-1.5-1-3.1-1.3-4.6c0-1.4,5.6-16.4,6.5-17.3s3.1,4.1,10.6,24.3 c6.2,16.9,7.7,22.4,6.2,22.4c-0.5,0-2.6-1.7-4.8-3.7l-4-3.7V43c0,1.9,1.1,18.6,2.4,37.1c5.3,73.4,5.6,82.4,3.6,94.5 c-2.8,16.2-10,31.2-18.5,38.7c-2.2,1.8-4.6,3.5-7.1,4.9c-4.2,2.4-4.3,2.5-4.8,6.8c-1.5,11.9-6.9,22.9-16.7,33.9 c-15.5,17.4-35,32.9-51.4,40.9c-14.6,7.1-29.6,8.3-39.8,3.2c-5-2.6-9.3-6.5-12.4-11.2l-1.2-1.8l-9.6,6 c-11.9,7.5-27.2,15.2-32.8,16.4c-2.7,0.7-5.6,0.7-8.3,0c-8.6-1.9-13.8-7.4-15.5-16.8c-0.5-2.7-1.1-4.9-1.5-4.9 c-1.3,0.7-2.6,1.5-3.7,2.5c-1.7,1.4-6,4.4-9.6,6.7c-21.3,13.8-38,17.1-51.9,10.2c-4.9-2.4-10.6-8.2-13.1-13.3 c-0.6-1.3-1.3-2.6-2.2-3.7c-0.2,0-5.8,3.3-12.5,7.4C33.4,313,23.6,316.3,15.3,313.7L15.3,313.7z M168.1,211.9 c-1.4-2.6-6.9-7.3-10-8.6c-7.4-3.1-16.1,2.5-11,7.1c2.3,2.1,5.4,2.7,13.9,2.8C168.2,213.2,168.7,213.2,168.1,211.9L168.1,211.9z M318,204.2c0.8-0.8-5-6.6-8.1-8.2c-3.8-1.8-9.3-1.6-11.8,0.4c-1.2,0.9-2.1,2.1-2.1,2.7c0,1.7,3.1,5.1,5,5.5 C303.7,205.3,317.4,204.9,318,204.2L318,204.2z M349.9,272.8c6.4-7.4,8.9-12.3,7.7-14.6s-3.6-2.8-6.4-1.3c-2.3,1.2-2.4,1.2-2.4-0.1 c0-2.8,3.2-8.1,5.6-9.1c5-2.1,8.8,0.8,8.8,6.6c0,5.5-6.8,16.5-13.6,21.9C344.2,280.4,344.3,279.4,349.9,272.8L349.9,272.8z M395.8,264.1c1.1-18.3,0.6-29.6-5-108.4c-1.5-21.3-3.1-46.7-3.6-56.4s-1.4-20.1-2.1-23.2c-0.6-2.6-1-5.3-1.2-8.1 c0-2.9,5.1-16.5,6.3-16.9s17,40.8,17,44.6c0,2.6-2.2,1.8-6-2.2l-3.6-3.7v3.4c0,1.9,1.4,23.1,3.2,47.1c6.5,89.6,6.6,93.1,3.2,109.8 c-1.7,8.5-5.7,20.4-7.6,22.9C395.3,274.3,395.2,273.3,395.8,264.1L395.8,264.1z M37.8,257.2c-6.4-2.6-5.4-19.5,2.2-36.5 c1.3-2.9,2.6-5.1,2.9-4.9s-0.3,2.7-1.2,5.5c-4.5,13.9-5.4,23.3-2.5,26.2c0.7,0.8,1.6,1.3,2.7,1.6c1.1,0,4.5-3.3,6.1-6 c1.7-2.9,0.2,4.4-2,9c-1.3,2.8-2.6,4.5-4,5c-0.7,0.3-1.5,0.6-2.2,0.8L37.8,257.2z M1.5,175.1c-1.6-2-1.7-2.9-1.4-11 c0.2-6,0.9-10.3,2-13.6c2.1-6,6.5-15.9,6.9-15.5c0.2,0.2-0.9,4.5-2.4,9.7c-1.3,4.4-2.4,8.8-3.2,13.3c-0.9,6.7,2,12.2,5.7,10.8 c0.7-0.3,2.4-2.2,3.7-4.2l2.4-3.7l-0.6,3.2c-0.8,4.5-2.7,9.3-4.6,11.4c-2,2.3-5.5,2.5-7.8,0.4C2,175.6,1.7,175.4,1.5,175.1 L1.5,175.1z M242.1,164.2c-0.6-4-4.6-15-7-18.8c-1.2-2-2-2.5-3-2.1c-2.2,0.9-3.9,0.6-6.5-1.3c-3.5-2.6-3.8-4.3-1.1-8.6 c3.1-5,5.4-5.3,9.9-1.2c4.1,3.7,6.8,8.9,8.7,16.9c0.8,3.4,1.7,5.6,1.9,5s1.5-5.7,2.8-11.3c2.4-10.2,4.7-15.3,7.3-16.7 c2.7-1.4,5.3-0.9,7.6,1.8c1.8,2.2,2.1,3.1,1.8,6.1c-0.6,5.2-1.7,5.8-4.8,2.7c-1.7-1.6-3.1-2.4-3.9-2.1c-2.1,0.8-4.2,6.5-6.9,18.3 C245.7,167.1,243.1,171.5,242.1,164.2L242.1,164.2z M106,162.8c-0.6-3.8-5.4-16.5-7.3-19.5c-1.2-1.8-1.7-2-4.3-1.6s-3.4,0.1-5.5-1.7 c-3.1-2.6-3.2-4.1-0.4-8.8c2.3-3.9,3.7-4.4,7.2-2.5c4.8,2.5,8.3,8.4,11,18.5c1.3,5,1.8,6,2.2,4.4c5.5-24,7.6-28.4,13.4-27.9 c5.1,0.5,8,8.3,4.6,12.3c-0.8,0.9-1.4,0.7-3.7-1.3c-1.5-1.3-3.2-2.3-3.7-2.1c-2,0.6-4.5,7.1-6.8,17.6 C109.4,165.4,107.1,169.7,106,162.8L106,162.8z M291.5,158.1c0.9-0.8,5.7-3.8,10.8-6.5c18-9.8,23.6-13.2,23.8-14.5 c0.5-2.3-6.8-3.4-22.8-3.3c-10.9,0-14.6-0.2-14.6-0.9c0-0.5,1.7-3.8,3.8-7.3c3.1-5.1,4.5-6.7,7.4-8.2c3.5-1.8,4.1-1.8,19.2-1.5 c20.3,0.5,25.5,2,24.5,7.2c-1.1,5.6-16.1,24-22,26.9c-4.4,2.2-28.3,9.7-30.9,9.7C290.3,159.7,290.7,159,291.5,158.1L291.5,158.1z M40,123.4c0.6-0.6,6.9-4.4,14-8.5s15.6-9.3,19-11.7c6.6-4.5,14.2-10.8,14.2-11.7c0-0.3-0.7-0.8-1.5-1c-1.6-0.9-3.1-2-4.4-3.3 c-2.6-2.5-2.9-3.3-2.9-6.7c0-7.1,7.5-15.2,14.2-15.2c3.7,0,4.5,2,4,9.9c-0.1,2.7-0.4,5.4-0.9,8.1c-0.4,1.2,0.2,2,2.3,3.4 c1.6,1,2.8,2.4,2.8,3c0,1.5-3,7.6-3.7,7.6c-1.1-0.5-2.1-1.2-3-1.9l-2.5-1.9l-5.9,6c-6.7,6.6-14.4,12.2-22.8,16.5 c-4.5,2.2-21.5,8.6-23,8.6C39.2,124.5,39.2,124.1,40,123.4L40,123.4z M92,78.9c0.1-1.7-0.5-3.3-1.7-4.5c-1.5-1.4-1.8-1.4-3.8-0.3 c-1.1,0.5-1.9,1.5-2.1,2.7c0,1.6,5.9,6.2,7,5.5C91.7,82.1,92,80.6,92,78.9L92,78.9z M141.6,122.2c0-0.3,5.5-3.8,12.2-7.8 c19.9-11.7,35.9-22.8,35.8-25c0-0.3-1.5-1.4-3.3-2.5c-3.6-2.2-5.5-5.2-5.5-8.6c0.1-8,11-17.7,16.6-14.7c2.8,1.5,3.1,11.3,0.5,17.9 c-0.3,0.8-0.2,1.4,0.2,1.4c1.2,0.5,2.4,1.3,3.3,2.2l2.6,2.2l-2.1,4.2l-2.1,4.2l-2.6-2c-0.9-0.8-1.9-1.5-3-2 c-2.2,1.8-4.3,3.8-6.3,5.9c-7.1,7-15.3,12.7-24.2,17C156.2,117.9,141.6,123,141.6,122.2L141.6,122.2z M194.6,78.7 c0.5-2.6-0.8-6.8-2.2-7.3c-1.6-0.6-5.9,1.6-5.9,3.1c0,1.1,5.9,6,7.2,6C194,80.5,194.4,79.7,194.6,78.7L194.6,78.7z M248,103.5 c1.4-3.8,2.7-5.4,4.2-5.4c0.3,0,18.1-6.5,39.5-14.4s39.4-14.4,40.1-14.4c1,0,0.8,0.7-0.7,3.3l-1.9,3.3l-27.6,10.6 c-15.2,5.8-33.5,13-40.8,15.9s-13.4,5.3-13.8,5.3S247.1,105.8,248,103.5L248,103.5z M138.6,76.7c-5.6-2.2-4.2-21.3,2.6-36 c3.2-7,4.4-7.5,2.1-1c-2.9,8.4-5.1,19.3-4.6,22.8c0.6,3.7,2.7,6.2,4.9,5.8c0.8-0.2,2.6-1.8,4.1-3.7c3-3.9,3.1-3.8,1.6,1.9 C147,75.4,143.5,78.7,138.6,76.7L138.6,76.7z M244.1,70.4c-4.4-5.6-2.4-20.8,4.7-35.8c1.4-3,2.7-5.3,2.8-5.2s-1,4.4-2.5,9.4 c-4.6,15.1-4.4,24,0.6,24.6c2,0.2,4.1-1.6,6.8-5.9c1.1-1.7-0.5,5.8-2,9.5C252.3,72.5,247.1,74.2,244.1,70.4z M366.4,55.5 c0.3-1.5,0.8-3,1.5-4.4c1.2-2.6,2.2-3.6,5-4.6c39-14.6,78.8-29.1,79-28.8s-0.3,1.7-1.1,3.5c-1.4,3-1.8,3.2-13.5,7.7 c-9.2,3.5-63.6,24.8-69.9,27.3c-0.3,0.2-0.7,0.1-0.9-0.2C366.4,55.8,366.4,55.7,366.4,55.5L366.4,55.5z"/>
</svg>