<svg xmlns="http://www.w3.org/2000/svg" width="349" height="441">
<path d="M248,0c-0.9,0-6.4,14.8-6.4,17.1c0.2,2.2,0.6,4.5,1.1,6.6c0.8,3.1,1.5,13.7,2.1,31.3c1.5,45.8,6.4,100.1,11.6,128.1 c1.2,6.5,1.5,10.1,1,10.3c-2.8,1-64.6,32.3-74.2,37.5c-15.2,8.3-18,10.1-18.1,11.9c-0.8,3.1-1.7,6.1-2.9,9.1 c-2.3,6.2-2.9,7.2-3.2,5.6c-0.3-1.1-1.4-6.3-2.5-11.6c-4.6-21.8-11.7-40.7-20.8-55.3c-4-6.5-5.7-8.1-6.8-7c-0.9,0.9-3.2,13-3.2,17.1 c0,1.8,2.3,8,6,16.5c9.7,22.2,14.7,38.4,17.6,56.7c1.7,10.7,1.2,13.4-3.8,20.1c-19.5,26-56.9,48.3-80.9,48.2 c-17.6,0-21.2-9.6-14.4-38.4c3.2-13.4,3.2-13.6,6.3-13.6c3.5,0,6.1-3.1,8-9.6c0.8-2.7,1.2-5.1,1-5.3s-1.1,0.9-2,2.4 c-0.8,1.5-1.9,2.7-3.3,3.7c-1.4,0.8-2,0.6-3.7-1.1c-3.1-3.1-2.8-10.5,0.8-20.9c3.4-9.8,3.6-12.5,0.7-14.7c-2-1.6-2.1-1.8-1.2-5.2 c1.4-5.4,1.1-12.4-0.5-14.2c-4.2-4.7-15,2.5-17,11.4c-1.1,4.8,0.4,8.1,5,11.1l3.7,2.3l-3.8,3.5c-5.5,5.1-12.4,9.8-28.8,19.5 c-19.2,11.3-19.9,12.3-4.8,6.7c4.9-1.8,10.8-4.2,13-5.3c8.5-4.5,16.2-10.2,23.1-16.9l5.4-5.6l2,1.8l2,1.8l-2.5,8.4 c-2.9,9.6-3.9,17.8-2.5,21.6c0.8,2.2,0.5,3.8-2.6,13.1c-4.7,14-6.3,24.1-5.9,37.1c0.3,9,0.6,10.7,2.5,14.8 c4.6,9.7,11.7,12.9,24.7,11.1c21-2.8,45.1-16.6,65.8-37.5c9.4-9.5,13.8-16.2,16.9-25.6c1.4-4.2,2.6-7.2,2.6-6.5 c0.1,3.5,4.2,26.6,5.3,30.4c1.6,5.2,4,10.2,6,12.4c1.4,1.5,1.4,1.8-0.1,7.2c-4.5,16.1-5.2,41.9-1.6,56.4c6.1,24.5,22.3,38.3,48,40.8 c9,0.9,9.6,0.9,18.4,0c20.5-2.1,38.6-11.2,54.8-27.5c11.7-11.7,18.9-23.6,23-37.7c1.5-5.3,1.8-8.2,1.8-18.3 c0-10.6-0.2-12.5-1.9-16.6c-2.6-6.6-8.6-12.8-15.6-16.2c-6.5-3.2-11.8-4-29.9-4.8c-5.3-0.2-9.7-0.6-14.9-0.7c-2.9-0.5-6-3.4-8.1-7.6 c-1-2-1.3-4.2-1.1-8.8c0.3-5.8,0.2-6.1-1.5-6.4c-1.4-0.2-4.2,2.1-12.1,9.7c-5.7,5.5-12,11-14.1,12.2c-11,6.1-15.9,6.4-27.6,6.1 c0.3-1.6,7.6-10.2,14.4-17c10-10.1,19-16.6,30.8-22.4c12.9-6.3,21.7-9.4,44.6-15.5c10.6-2.8,19.6-5.5,19.9-5.8 c1.1-1.3,6.4-17.2,5.9-18c-0.3-0.5-6.2-0.7-15.4-0.5c-20,0.3-87.4-1-86.9-1.8c0.6-1,15.3-9,28.3-15.5c10.8-5.4,36.1-16.4,37.6-16.4 c0.3,0,1.8,2.2,3.3,5c3.4,6.2,10.5,13.2,16.1,16.1c5.8,2.9,13.5,3,17.6,0.2c4.3-2.9,7.3-9.7,7.8-17.8c0.8-12.5-3.1-22.7-10.2-26.5 c-3.3-1.8-4.3-1.9-11.6-1.5c-4.2,0.1-8.4,0.8-12.5,1.9l-4.6,1.6l-0.8-2.5c-2.2-6.9-5-23.9-6.8-42.9c-2.6-26.1-6.8-101.9-5.7-103 c0.3-0.3,2,1,3.9,2.8c6.2,6,6.8,4,2.6-8.3C256.8,19.4,248.9,0,248,0z M347.1,39.2c-0.5,0-19.1,6.7-41.3,15l-40.4,15l-1.5,3.5 c-0.6,1.4-1.2,2.8-1.5,4.3c0,1.1-0.7,1.3,26.4-9.4c13-5.2,31-12.1,40-15.5c15.3-5.8,16.5-6.4,17.8-8.9 C348.1,40,348.2,39.2,347.1,39.2L347.1,39.2z M204.1,47.2c-0.7,0-1.5,0.1-2.2,0.3c-2.8,0.7-9.1,6.7-10.5,9.8 c-2.4,5.7-0.8,10.6,4.4,13.8c1.8,1.1,3.2,2.3,3,2.8c-0.7,2.2-15,12.3-30.5,21.6c-9.5,5.7-17.3,10.6-17.3,10.9s3-0.5,6.6-1.8 s7.9-2.9,9.5-3.5c11.4-4.4,21.7-11.1,30.4-19.7l6.1-6.2l2.8,2.3l2.8,2.3l1.7-3c2.4-4.2,2.2-5.9-0.9-8.3l-2.6-2l1.2-6.1 C210.3,51.7,208.7,47.2,204.1,47.2L204.1,47.2z M200.6,55.5c2.1,0,3.4,2.1,3.4,5.8c0,2-0.3,3.5-0.6,3.5c-1.3-0.1-6.7-4.1-7.1-5.2 c-0.5-1.4,1-3.1,3.5-3.8C200,55.5,200.3,55.5,200.6,55.5L200.6,55.5z M315.1,71.2c-0.8,0-5.1,10.1-6.4,14.9 c-0.8,2.1-0.6,4.4,0.4,6.3c0.9,2.1,1.5,7.5,2,16.7c0.7,12.8,1.8,29.9,6.7,100.4c3.4,48.8,3.8,59.5,2.9,70 c-0.5,5.3-0.8,10.8-0.9,12.2s0.2,2.6,0.4,2.6c1,0,5.3-10.8,7.1-17.9c4.8-18.3,4.7-25-1.2-105.7c-2.2-30.4-4-56.4-4-58v-2.8l3.9,3.8 c4.8,4.7,6.1,4.9,5.5,0.8C330.8,109.2,316.3,71.2,315.1,71.2L315.1,71.2z M290.7,105.8c-0.6,0.2-5.1,10-6.9,15.2 c-1.3,4.1-2,8.4-2.1,12.8c-0.4,8.4,0,11.1,1.9,13s6.2,1.6,8.1-0.6c1.5-1.7,3.3-6,4.5-11.2c0.7-3,0.3-2.8-2.2,0.9 c-2.6,4-4.9,4.8-7.2,2.5c-2.7-2.7-2.2-10.9,1.3-22.9C289.2,112.3,290.1,109,290.7,105.8C290.8,105.7,290.8,105.7,290.7,105.8 L290.7,105.8z M205.9,126.8c-13.1,0.1-13.9,1.2-18.9,9.6c-2.1,3.5-3.8,6.8-3.8,7.4c0,0.8,3.6,1,15.2,1c15.6,0,22.4,0.9,22.4,2.9 c0,1.4-3.6,3.7-19.5,12.3c-6.9,3.7-13.6,7.6-14.8,8.6s-1.8,1.8-1.2,1.8c1.4,0,24.9-6.8,28.2-8.2c6.1-2.6,13.6-10.3,20.9-21.2 c4.2-6.3,4.7-8.7,2.5-10.7c-3-2.6-8.2-3.3-24.6-3.4C209.9,126.8,207.8,126.8,205.9,126.8L205.9,126.8z M114.3,144 c-4.9,0-8.7,7.5-11.8,22.9c-0.7,3.7-1.6,6.7-1.8,6.7s-1-2.3-1.5-5.1c-1.9-9.3-6.9-17.6-12.1-19.7c-3.2-1.4-4.1-0.8-6.7,4 c-2.1,3.9-2.2,4.2-1,6.1c1.9,2.9,6,4.8,7.8,3.6c0.6-0.5,1.5-0.7,2.2-0.4c2.1,1.3,8.8,18.2,8.8,22.2c-0.1,0.8,0.1,1.7,0.5,2.4 c1.6,1.6,3.8-4,6.7-16.9c3.5-15.5,5.8-18.6,10.6-14c2.3,2.2,2.4,2.2,3.5,0.7C122.7,152.3,119.2,144,114.3,144L114.3,144z M166.9,155.5c-1,0.2-6.3,12.9-7.8,18.7c-2.1,8.2-2.1,17.3,0.1,20.8c1.3,2.1,2.1,2.6,4.3,2.6c3.6,0,6.2-3.1,8-9.6 c1.6-5.6,1.2-7-0.7-3.3c-1.8,3.5-4.7,5.2-6.7,4.1c-4.2-2.3-3.7-11.9,1.6-27.9C166.5,158.2,167.1,155.7,166.9,155.5 C166.9,155.5,166.8,155.5,166.9,155.5L166.9,155.5z M284.9,204.3c1.8-0.1,3.6,0.1,5.4,0.5c3.9,1.1,7.5,4.2,7.1,6.2 c-0.2,1.1-1.2,1.4-4.2,1.5c-2.1,0.1-4.3-0.1-6.4-0.6c-2.5-0.8-8.4-5.2-8.4-6.4C278.3,204.9,281.5,204.4,284.9,204.3L284.9,204.3z M49.2,232c1.5,0,3.5,3.2,3.5,5.6c0,3.9-1,4.3-4.6,1.7c-1.4-0.9-2.6-2-3.8-3.1C43.9,235.2,47.6,232,49.2,232L49.2,232z M105.3,249.1 c-0.2,0-0.5,0.6-1.1,1.7c-8.2,15.1-10.8,35.2-5.2,39.4c2,1.2,4.5,1.3,6.6,0.2c1.7-0.9,4.5-7,5.3-11.6l0.6-3.2l-1.9,2.7 c-1,1.5-2.2,2.8-3.7,3.9c-1.6,1.1-1.9,1-3.9-1s-2.1-2.4-1.7-8.7c0.5-4.9,1.5-9.8,2.9-14.5C104.9,251.8,105.7,249.1,105.3,249.1z M162.6,261.9c4.7,0,15.5,0.2,27.8,0.5l36.3,1l6.4,0.2l-5.2,2.7c-20.6,10.8-37.8,27.1-49.6,47.1c-1.9,3.2-3.5,5.8-3.6,5.8 c-0.7-0.5-1.3-1.1-1.9-1.8c-2.5-2.6-4.7-8.1-6.1-15c-3-15.5-7.1-40.1-6.8-40.5C161,261.8,161.8,261.8,162.6,261.9L162.6,261.9z M267,270.4c-0.5,0-2.5,3.5-4.5,7.8l-3.6,7.8l1.9,1.2c1,0.7,4.8,3.3,8.3,5.8c7.3,5.2,6.8,5.4,11.2-2.8c4.3-7.9,4-8.7-5-14.8 C271.2,272.7,267.5,270.4,267,270.4L267,270.4z M231.6,316c0.8,0,1.1,0.9,1.1,2.6c0.3,4.6,1.7,9,4.1,12.9c2.2,3.1,7.7,5.8,11.5,6 c5.6,0.7,11.3,0.8,17.4,1c19.6,0.6,27.4,3.1,34.4,10.9c4,4.4,5.5,8.4,5.5,14.3c0,5.2-1.5,9.4-5.7,15.6 c-10.3,15.3-32.6,30.6-53.9,37.1c-6.6,2-8.3,2.2-20.8,2.2c-11.9,0-14.4-0.2-19.9-1.8c-9-2.6-15.3-6.2-21.2-12.1 c-8.4-8.4-12.6-18.1-14.4-33.2c-1.2-10.2,0.1-21.6,3.3-28.6c0.8-1.8,1-1.8,4.9-0.8c5.2,1.5,9.3,1.1,14.6,0.8 c10.6-0.8,20.7-7.6,31.1-19.6C227.8,318.2,230.3,315.9,231.6,316L231.6,316z M127.8,344.9c-5.7,0.1-8.2,1.5-10.2,5.5 c-0.6,1.1-1.2,2.3-1.6,3.5c0,0.2,1.7-0.2,3.7-0.9c3-1,4.5-1.1,8.2-0.3c2.5,0.5,4.8,1.2,5.2,1.6s-2.2,4-6.7,9 c-8.3,9.2-10.3,12.9-10.4,18.5c0,5,1,6.7,5.1,8.6c2.8,1.3,4.4,1.5,9.4,1.1c7.3-0.5,13.8-2.6,18.5-6c8.1-5.8,8.1-6.4,0.1-4 c-11.5,3.3-25.3,3.4-28.6,0.1c-2.5-2.5-1-5.4,7.1-13.8c15.7-16.4,16.4-22.4,2.8-23C129.4,344.9,128.6,344.9,127.8,344.9L127.8,344.9 z M217.3,345.6c-0.6,0-2.3,2.5-3.8,5.6s-2.9,5.6-3.2,5.6c-0.6-0.2-1.1-0.6-1.5-1.2c-1.2-1.5-13.3-9.2-14.4-9.2 c-0.5,0-2.5,3.5-4.4,7.8c-2.7,5.8-3.4,7.9-2.6,8.4c0.6,0.3,4.1,2.8,7.8,5.4s7.3,4.7,7.9,4.6s2.3-2.5,3.8-5.3s2.9-5.3,3.1-5.5 s3.8,2,8,5s7.8,5.3,8,5.3c0.8,0,6.9-11,7.3-13.3c0.4-2.2,0.1-2.8-2.6-4.9C226,350.2,218.6,345.6,217.3,345.6L217.3,345.6z M289.3,358.4c-1.2-0.1-7.6,2.1-31.8,11.1c-15.6,5.8-33.4,12.4-39.5,14.6l-11.1,4l-1.5,3.5c-0.6,1.4-1.1,2.8-1.5,4.3 c0,0.4,0.2,0.7,0.4,0.7s11.6-4.4,25.4-9.9c20.7-8.1,50.2-19.5,56-21.6c1.1-0.4,3.8-5.2,3.8-6.8C289.5,358.5,289.5,358.4,289.3,358.4 L289.3,358.4z"/>
</svg>