<svg xmlns="http://www.w3.org/2000/svg" width="465" height="382">
<path d="M464.1,0c-1.7-0.1-8,2.3-31.4,11c-15.6,5.8-33.3,12.4-39.3,14.6l-11,4l-1.6,3.9c-0.6,1.4-1.2,2.8-1.7,4.3 c0,0.8,0.4,0.7,20.2-7.2C426.5,19.8,459.8,7,460.8,7s4-4.8,4-6.3C464.8,0.3,464.8,0,464.1,0L464.1,0z M309.1,16.8 c-0.9,1.2-1.7,2.5-2.3,3.9c-7.3,13.9-9.7,30.5-5.2,36.3c2.7,3.4,7.6,2.5,9.9-1.9c1.5-2.9,3.9-13.2,2.5-10.8c-1,1.5-2.2,2.9-3.5,4.2 c-2.2,2.3-2.8,2.5-4.2,1.8c-2.1-1.1-3.2-4-3.2-8.3c0-2.7,3.3-16.3,6-24.9C309.2,16.8,309.1,16.8,309.1,16.8L309.1,16.8z M367,29.8 c-1,0.1-3.1,4.8-5.5,12.1c-1.5,4.7-1.5,5.1-0.3,9.2c0.9,2.8,1.6,9.6,2.1,19.1c0.8,15.3,2,33.6,4.7,71.2c5.5,77.1,5.5,77.8-3.2,83 c-8.9,4.8-22.2,6.9-26.4-4.3c-0.6-2.8-0.8-5.7-0.6-8.6c0.2-4.9,0.1-5.8-1.1-6c-0.8-0.2-5.1,3.2-11.2,9c-11.7,11-17.3,15-24.5,17.3 c-6.5,2-17.7,2.9-22.2,1.6c-8-2.2-13-12.1-13.7-27.4c-0.4-8.2-0.3-8.6,1.3-9.1c3.4-1.1,6.5-4.7,10.9-12.3s5.3-10.5,3.4-10.5 c-0.5,0-4.4,2-8.6,4.4l-7.6,4.4l-0.5-5c-0.3-2.8-0.9-19.2-1.4-36.6c-1.5-50.8-2.9-68.7-6.9-87.2c-2.1-9.6-5.6-19.2-7.2-19.8 c-1-0.3-3.9,6.6-5.1,12.5c-0.7,3.2-0.5,4.8,1.2,10.7c2.7,10.2,4.7,20.5,6,30.9c1.1,10,4,77.8,4,95.2v5.2l-6.9,4 c-8.8,5-19.1,9.2-25.5,10.3c-4,0.7-6.3,0.6-11.7-0.5c-13.3-2.7-24.9-10.7-32.2-22.1c-3.9-5.9-7.5-15-6.7-17.1c0.9-2.3,7.9-6,16.9-9 c18.5-6,34.2-6.7,48.8-2.1c4.9,1.5,8.2,2.2,8.7,1.8c1-1-7.3-7.4-14.8-11.3c-8.8-4.6-16.5-6.4-27.4-6.4c-9.8,0-15.3,1.1-21.6,4.4 c-9.5,4.9-16.1,11.9-19,20.1c-2.3,6.4-2.2,17,0.1,24.4c4.3,13.8,20.8,30.4,34.9,35.1c1.8,0.6,3.3,1.2,3.5,1.3s-3.6,4.3-8.4,9.2 c-4.6,4.7-8.8,9.7-12.6,15c-2.2,3.3-4,6.1-4.1,6.2c-0.5,0.6-19.4,6-28.7,8.1c-17.5,4-26.8,5.1-42,5.1c-20.9,0-34-2.8-45.3-10 c-10.1-6.4-14.7-13.9-14.7-24c0-6.2,1.1-10.9,6.1-25.3c2.2-6.5,2.3-6.6,4.9-6.4c4.5,0.2,7.5-4.2,9.3-13.4c0.4-2.1,0.3-2.2-0.5-0.9 c-4.5,6.8-7.2,7.6-9.6,2.9c-2-3.8-1.2-10,2.3-19.9c3.3-9.2,3.4-10.9,0.7-13.8c-2-2.1-2-2.4-1.2-6.3c1.4-6.6,1.2-11.8-0.7-13.6 c-2.2-2.2-4.7-2-9,0.8c-6.8,4.4-10.3,12.5-7.3,17.5c1.3,1.8,3,3.4,4.9,4.6l3.5,2.2l-3.5,3c-5.3,4.7-15.7,11.6-30.8,20.6 c-17.7,10.5-18.7,11.6-6.2,7c18.4-6.9,29.1-13.2,38.7-23c5.6-5.7,5.6-5.7,7.7-4.4c1.1,0.7,2,1.6,2,1.9s-1.1,4-2.4,8.2 c-2.7,8.5-3.8,18.5-2.5,22.4c0.8,2.2,0.6,3.1-1.8,7.5c-10.5,19.1-12.3,42.3-4.6,58.2c12.2,25,47,31.2,100.2,17.9 c5.9-1.5,13.1-3.4,15.8-4.2s5-1.3,5-1s-0.7,3-1.6,6.1c-5.6,19.3-5.6,50.2,0,66.4c6.5,18.8,20,29.9,40.8,33.7l0,0 c9.5,1.7,27.3,1,36.9-1.5c30.2-7.9,56.6-33.8,64.4-63.4c1.1-4.3,1.5-8.5,1.5-18v-12.4l-3-6.1c-3.4-6.9-7.2-10.6-14.4-14.3 c-6.5-3.3-10.5-3.9-30.6-4.6c-16.6-0.6-17.9-0.7-21.2-2.5c-2.3-1.3-4.2-3.2-5.5-5.5c-1.8-3.2-2-4.4-1.9-11.8 c0.1-9.6,0.1-9.6-7.5-6.1c-8.1,3.7-23.7,9.9-24,9.6c-0.8-0.8,15.2-13.9,27.8-22.7c10.5-7.4,26.4-17.2,26.9-16.7 c0.6,3.4,1,6.8,1.2,10.2c1.7,21.7,6.3,32.4,16.3,37.8c2.8,1.5,4.5,1.7,13.2,1.7h10l7-3.4c7.1-3.5,13.1-8.6,22.4-19.2 c2.1-2.4,4.2-4.1,4.7-3.9s1.5,2.8,2,5.8c1.8,9.9,6.1,14.5,14.9,16c3,0.6,3.2-0.2,6.4,0c12.7-2.7,21.9-15,26.6-36.1 c0.7-3.1,1.4-11.4,1.7-19.1c0.5-14.1,0-23-4.5-85.1c-1.3-18.2-2.4-34.7-2.4-36.7v-3.6l3.6,3.7c2,2,4.2,3.7,4.9,3.7 c2,0,0.9-4.1-6-22.8c-7.5-20-8.5-22.5-9.5-23.2C367.1,29.7,367.1,29.7,367,29.8L367,29.8z M403.8,34.7l-1.5,2.9 c-1.3,2.9-2.5,5.9-3.5,9c-2,5.9-2,6.2-0.8,10.3c0.8,2.6,1.6,9.8,2,18.6c0.8,15.2,3.3,52.7,6.9,101.2c1.6,22.6,2.2,35.2,2.2,55.4 c0,28.1,0.1,28.5,3.7,19c3.3-9.4,5.5-19.2,6.4-29.1c1.1-11.3,0.8-18.3-5.1-99.7c-1.9-25.7-3.2-46.8-3-47s2.1,1.3,4.2,3.2 c6.4,6,6.9,4.7,2.8-7.3c-3.3-9.7-11.5-31-13.1-34.2L403.8,34.7z M154.8,49.5c-4.4,0-7.6,5.7-10.5,18.2c-1.2,5.1-2.3,9.8-2.5,10.5 s-1.2-1.7-2.2-5.2c-1.9-6.9-3.5-10.5-6.7-14.7c-1.8-2.4-6-4.9-8.2-4.9c-1.1,0-5.6,7.1-5.6,8.9c0,0.8,1.3,2.5,2.8,3.9 c2.8,2.5,5.4,3.2,6.3,1.7c0.9-1.5,2-0.7,4.3,3.8c2.8,5.5,6.5,15.7,6.5,17.7c-0.2,1.1-0.7,2.1-1.6,2.9c-1.6,1.4-2.6,4.3-3.6,10.4 l-0.6,3.2l2.8-2.6c2.9-2.8,5.5-3.3,7-1.5c0.8,0.9,0.1,1.5-3.5,3.2c-2.9,1.3-5,2.9-6,4.7c-2.9,4.7-2.8,8.2,0.3,24.4 c3.3,17.2,4.4,26.2,4.6,34.2c0.1,5,0.2,5.4,1,3.2c0.5-1.3,0.9-7.8,0.9-14.4c0.1-11.7-1.6-23.4-5-34.7l-1.6-5.1l2.6-1.6 c3.1-1.5,6.3-2.8,9.6-3.7c6.5-2,7.2-2.4,8.6-5.2c0.8-1.4,1.3-3,1.5-4.6c0-2.4-4.5-7.1-9.4-9.8c-4.6-2.6-4.6-2.7-3.4-6 c1-3.2,1.8-6.5,2.4-9.8c2.4-12.1,4.9-17.6,7.8-17.6c0.7,0,2.2,1,3.5,2.2c2.6,2.5,3.6,2,4.4-2.4c0.6-3.6-2.1-8.3-5.1-9.1 c-0.5-0.1-0.9-0.2-1.4-0.2L154.8,49.5z M205.2,61.7c-0.7,0.3-5.8,11.8-7.2,16.5c-1,4.1-1.5,8.2-1.7,12.4c-0.4,7.1-0.2,8.3,1.2,10.6 c1.3,2.1,2.2,2.6,4.3,2.6c4.2,0,7.5-4.6,8.9-12.2c0.7-3.6,0.2-3.8-1.5-0.6c-0.8,1.5-1.9,2.7-3.3,3.7c-2,1.3-2.1,1.3-4.1-0.8 c-3-3-2.8-9.3,1-22.1c1.6-5.4,2.8-10,2.6-10.2C205.3,61.7,205.3,61.7,205.2,61.7L205.2,61.7z M331,73.6c-1.3,0-2.6,0.1-3.7,0.2 c-10.2,0.7-12.6,2-17.2,9.6c-1.5,2.3-2.8,4.7-3.9,7.3c-0.2,1.1,1.6,1.3,16.1,1.5c15.6,0.2,21.6,1,21.6,2.9c0,1.2-3.5,3.5-13.3,8.7 c-13.1,7.1-19.7,10.9-21.9,12.8l-2,1.6l2-0.4c6.4-1.4,25-7,28.5-8.6c6.5-2.9,17.6-15.4,22.8-25.5c2-3.9,1.4-5.7-2.5-7.3 S340.3,73.5,331,73.6L331,73.6z M101.9,108c-0.9,0.4-7,14.9-8,19.2c-1.4,5.8-1.6,17.2-0.4,20.2c0.5,1.2,1.4,2.2,2.6,2.8 c2.4,1,2.6,1,4.8,0c2.5-1.1,4.1-4,5.7-9.9c1.3-5.1,1.2-6.5-0.3-3.5s-4.1,5.5-5.6,5.5c-1.1-0.2-2.1-0.8-2.9-1.7 c-2.5-2.7-1.9-11.1,1.5-22.7C100.9,112.6,102.1,108.2,101.9,108C101.9,108,102,108.1,101.9,108L101.9,108z M351,134.3 c-0.4-0.1-19.1,6.5-41.5,14.8c-44.7,16.5-40.9,14.6-43.1,21.9c-0.6,2,0.2,1.7,18.6-5.6c10.6-4.2,29.5-11.6,41.9-16.4 c22.4-8.6,22.5-8.7,23.7-11.6C351.2,135.9,351.4,134.5,351,134.3L351,134.3z M49.6,142.3H50c2.5,0.3,4,3.4,3.2,6.7 c-0.3,1.1-0.8,2-1.2,2c-1,0-7.3-4.7-7.3-5.5C44.7,144.1,47.5,142.3,49.6,142.3L49.6,142.3z M327.4,153c-0.3-0.2-1.7,2.4-3.7,7.1 c-6.8,15.8-8,30.8-2.7,34.5c0.9,0.6,1.9,1.1,3,1.2c3.5,0,7.5-5.8,8.5-12.1l0.5-3.5l-2.5,3.4c-4.4,6-8.9,3.5-8.9-4.9 c0-3.3,2.4-13.6,5.1-22.4C327.4,154.2,327.6,153.1,327.4,153L327.4,153z M107.9,186.2c-0.8,0-8.1,14.4-7.7,15.4 c0.1,0.3,3.6,3,7.8,5.8s8.1,5.1,8.8,5c1.8-0.3,7.3-11,7.1-13.8c-0.2-2.1-1.3-3.1-7.7-7.4C112,188.4,108.3,186.2,107.9,186.2 L107.9,186.2z M125,211c-0.4,0-2,2.5-3.4,5.6s-2.9,5.6-3.1,5.6s-3.5-2.2-7.4-4.8s-7.6-4.8-8.3-4.8s-2.6,2.8-4.9,7.4l-3.7,7.4 l1.9,1.4l7.9,5.8c3.3,2.4,6.4,4.4,6.9,4.4s2.2-2.4,3.8-5.5s3.2-5.6,3.6-5.6c2.7,1.4,5.2,3.1,7.6,4.9c3.8,2.7,7.5,4.7,8.1,4.4 c1.3-0.5,6.5-9.6,7.2-12.8c0.4-1.7,0.2-2.5-1-3.4C137.2,218.6,125.7,211,125,211L125,211z M223.4,251c0.3,0,0.6,1.3,0.6,2.8 c0,7.8,3.8,17.4,8.2,20.8c5.4,4.2,7.9,4.7,25.4,5.4c24,0.9,31.9,3,39.2,10.3c4.2,4.2,6.5,9.9,6.3,15.8c0,5.7-3.1,12.5-9.3,20.2 c-14.3,17.9-37.7,31.2-60.6,34.4c-14.2,2-30-0.3-41.5-6.1c-5.5-2.8-14.3-11.4-17.2-16.9c-7-13.3-9.3-32.2-5.8-46.7 c1.3-4.8,3-9.5,5.2-14l3.5-7.3l8.2-3c4.5-1.7,14.8-5.9,22.7-9.4S223.1,251.1,223.4,251L223.4,251z M317.3,263 c-0.6,0-2.6,3.2-4.4,7.2c-3.4,7.3-3.8,8.8-2.7,8.8c2.7,1.6,5.3,3.3,7.8,5.2c4,2.9,7.6,5.2,8,5.2c1.1,0,7.5-12.1,7.5-14.3 c0-1.1-1.5-2.8-4.2-4.8C323.2,265.9,318.5,263,317.3,263L317.3,263z M206,270.4c-0.7,0.1-1.3,0.3-1.9,0.6c-2.8,1.2-10.6,9.3-12.6,13 c-2.8,5.4-1.3,10.5,3.9,13.2l2.2,1.1l-1.6,2.3c-3.1,4.3-6.4,12.4-6.9,16.9c-0.6,5.5,0.9,9.1,4.7,10.8s15.6,1,21.4-1.2 c4.5-1.7,14-7.9,13.2-8.6c-0.2-0.2-3.8,0.4-7.9,1.4c-9.8,2.4-22.5,2.6-25.7,0.5c-3-2-2.9-5.2,0.5-10.5c3.8-5.9,7.2-9.6,13.5-14.6 c6-4.8,7.8-7.6,7.8-11.9v-2.9l-4.2,3.8c-5.2,4.7-7,5.5-10.4,4.9c-2.9-0.5-6.2-3.1-6.2-4.8c0-1.2,4.6-6.1,5.7-6.1 c0.9,0.3,1.7,0.9,2.3,1.6c0.6,0.6,1.2,1.2,1.9,1.6c0.7,0,3.6-5.4,3.6-6.6c-0.2-1.1-0.7-2.2-1.5-3C207.2,270.8,206.8,270.3,206,270.4 L206,270.4z M371.6,276.6c-3.5,0-6.6,2.6-7.8,6.5c-0.5,1.7-0.8,3.3-0.6,3.5s1.5-0.1,3-0.6c5.3-2,7.3,2.5,3.8,8.5 c-1.7,2.7-3.7,5.3-5.9,7.8c-2.1,2.4-4.4,5-5,5.8c-2,2.7,5.8-3.1,9-6.6C378.6,289.9,380.5,276.6,371.6,276.6L371.6,276.6z M279.2,314.4c-0.4-0.1-7.5,2.2-15.8,5.3c-53.2,19.8-65.1,24.1-65.8,24.1s-1.8,2.5-3.2,7.3c-0.6,2-0.2,1.9,16.2-4.6 c22.9-9.2,64.3-25,65.4-25S280.1,314.7,279.2,314.4L279.2,314.4z"/>
</svg>