<svg xmlns="http://www.w3.org/2000/svg" width="402" height="317">
<path d="M135.4,315.1c0.4-0.4,8-5,16.8-10.1c13.4-7.9,30.8-19.6,30.8-20.8c-1.1-0.8-2.3-1.4-3.5-1.9c-1.9-0.9-3.9-2.3-4.4-3.2 c-1.2-2.3-1.1-8.6,0.3-11.3c0.9-1.8,1.1-3.9,0.7-5.9c-0.4-3.1-0.2-3.9,1.6-5.6c2.7-2.7,5.7-2.6,11.4,0.4c5.6,2.9,10.3,7.3,13.6,12.6 c1.7,2.8,1.9,4,1.5,6.9c-0.4,2.2-1.2,4.3-2.3,6.2c-1.8,2.6-1.8,2.6-8.2,2.6h-6.4l-4.2,4.5c-8.4,9.2-20.2,16.5-36.7,22.6 C136.7,315.8,133.8,316.5,135.4,315.1L135.4,315.1z M200.5,277.6c0-2.1-7-9.8-9-9.8c-0.2,0-0.7,1.9-1,4.2s-0.6,4.4-0.7,4.6 c-0.1,0.5,4.6,1.4,8.1,1.5C199.4,278.1,200.6,277.9,200.5,277.6L200.5,277.6z M186.9,272.8c0-3.4-1.8-6.6-3.8-6.6 c-1.8,0-5.8,4-5.8,5.7s3.6,3.8,7,3.8C186.8,275.8,186.9,275.7,186.9,272.8L186.9,272.8z M196.5,309.9c2.1-1.6,4.3-3.2,6.6-4.6 c4.6-3.1,8.8-6.7,12.6-10.7c12.8-13.8,18.9-19.5,23.1-21.6c5.5-2.8,10.6-3.4,15.9-1.8c6.5,1.9,8.7,0.9,13.1-6 c1.4-2.1,2.8-3.9,3.2-3.9s0.5,1.4,0.2,3.1c-0.5,3.1-0.5,3.1,2.4,3.7c4.4,0.8,5.2,0.2,4.8-3.4c-0.3-2.3,0-3.5,1.2-5l1.6-2l1,2.2 c0.8,1.7,0.8,3.3,0.1,7.2c-1.5,8.4-4.7,10.7-11.5,8.6c-2.8-0.8-3.2-0.7-6,1.5c-4.4,3.5-8.1,4.2-13.5,2.8c-4-1-5-1-9.4,0.1 c-6.6,1.7-11.1,4.9-22.7,15.9c-6.8,6.5-11.1,10-14,11.2C201.1,309.1,196.5,310.5,196.5,309.9L196.5,309.9z M129.5,297.8 c-19-12.5-23.7-33.3-15.3-67.8c1.3-5.2,2.3-9.6,2.3-9.8s-1.6,0.5-3.5,1.6c-12,7.1-28.9,7.9-41.1,2c-6.3-3.1-11.2-8.5-13.9-15 c-2.8-7.5-3-22.2-0.3-31.9c0.5-1.6-0.1-1.5-7.4,1.8c-10.5,4.7-19,6.8-27.9,7c-5.9,0.1-7.8-0.2-10.5-1.6C5.4,180.5,1.2,173.3,0.2,163 c-0.7-6.8,0.8-21.7,3.2-31.1c2.1-8.2,6.6-20.7,7.7-21.4s0.7,2.2-2.1,13.6c-5.6,22.2-5.6,32,0.1,37.6c1.7,1.7,3.8,2.9,6.1,3.7 c7.5,2.1,23.5-0.8,35.8-6.3c18-8.1,40.8-26.2,52-41.2l4.7-6.3v-6.1c0-6.5-2.6-20.5-6-32.3c-2.5-8.7-7.5-21.6-13.9-36.1l-4.9-11.1 l1.3-8.1c1.6-10.3,2.3-12.3,3.9-11c3.5,2.9,11.8,17.8,16.4,29.5c6.5,16.4,10,31.1,17.6,74.4c3.7,20.8,5.3,26,9.3,30.5 c3.3,3.7,6.8,4.9,13.8,5c9.1,0.1,16-4.6,14.9-10.2c-0.3-1.4-2.3-5.8-4.6-9.7c-4-7-4.1-7.2-3.6-12.2c0.5-5.8,3.2-12.5,4.7-12 s6.9,10,8.3,14.6c3.1,10.1,2.1,28.1-1.9,36.8c-4.3,9.1-9.6,12.8-18.5,12.8c-8.2,0-12.9-1.5-17.5-5.6c-6.6-5.9-9.1-12.7-12.5-34.3 c-1-6.6-2.1-11.5-2.3-10.8s-1.2,3.7-2.1,6.8c-1.2,3.7-2.7,7.3-4.7,10.6c-6.2,10.2-23.8,26.9-37.6,35.8l-5,3.2v5.4 c0,22.4,12.2,32.5,35.8,29.5c13.6-1.7,22.3-6.1,32.4-16.5c3.2-3.3,6.1-6,6.4-6c1.2,0,0.4,5.1-1.8,11.3c-1.3,3.7-5.1,13.1-8.5,21.1 s-6.8,17.1-7.7,20.4c-2.2,8.1-2.3,18.2-0.3,24.4l1.5,4.8l0.9-7.6c1.5-13.8,6.5-26.9,14.5-38.2c6.1-8.6,16.2-15.4,23-15.4 c4.4,0,7.2,2.2,13.3,10.5c6.6,8.9,13.2,11.7,21.7,9.2c6-1.8,11.4-6.9,19.3-18.5c4.6-6.8,7.1-9.7,8.4-9.9c2.2-0.3,2.2,0.5,0.5,7.5 c-1.2,4.9-1.2,5.3,0.2,7.7c1.3,1.9,3.1,3.4,5.1,4.5c4.6,2.5,11.3,2.2,17.3-0.9c5.2-2.7,12.3-10.3,16.4-17.9c2.3-4.2,3.7-5.9,4.6-5.7 s1.3,1.1,1.1,4.5c-0.9,17.3,15.6,24.3,31.5,13.4c7.5-5.2,7.6-6.4,1.6-90.4c-1.1-16-2.7-39.5-4.3-66.8c-0.5-7.4-1.3-13.8-2-15.9 c-1.2-3.3-1.2-3.7,0.7-9.2c2.7-7.9,4.4-11.7,5.1-11.7s3.7,6.6,10.5,24.7c5.9,15.7,7.4,21.7,5.7,21.7c-0.5,0-2.7-1.7-4.9-3.7l-4-3.7 v2.7c0,1.5,0.5,9.7,1.2,18.3c7.6,99.4,7.8,111.3,2.2,131.2c-1.9,6.7-7.1,16.2-11.5,20.8c-5.1,5.3-9.8,7.4-16.5,7.4 c-9.2-0.1-15.5-4.8-20-15c-1.2-2.8-2.5-5.1-2.7-5.1s-2,3-3.8,6.7c-3.8,7.7-9.9,14-15.1,15.5c-9.7,2.9-20.3-0.4-25.5-8 c-1.2-1.7-2.4-3.1-2.6-3.1s-1.2,1.3-2,2.9c-4.5,8.4-15.1,15.7-24.4,16.7c-8,0.9-11.9-1.7-21.5-14.3c-4.4-5.8-7.4-7.7-10.5-6.8 c-4.5,1.3-12.4,6.1-16.9,10.2c-6.3,5.8-8.7,10.8-8.7,18.2c0,8.8,4,20.1,9,25.7c1.7,1.9,1.7,5.4-0.3,16.8 C136.2,301.6,135.6,301.8,129.5,297.8L129.5,297.8z M340,275.2c1.8-19.9,1.8-22.3-4.3-108.6c-1.8-25.1-3.7-54.2-4.3-64.8 c-0.7-11.7-1.6-20.4-2.3-22.4c-0.8-2-0.9-4.2-0.4-6.3c0.9-4.2,5.4-14.9,6.2-14.9c1.4,0,15.5,37,16.5,43.1c0.7,4.3-0.3,4.2-5.3-0.4 c-3.8-3.6-4-3.6-4-1.7c0,1.1,1.8,27,4,57.5c5.8,79.7,5.9,87.5,1.5,105.5c-1.9,8-6.1,18.4-7.3,18.4 C339.7,280.6,339.6,278.8,340,275.2L340,275.2z M16.1,275.2c1-3.9,3.2-6.8,6-7.9c25.1-9.6,78.7-29.1,79-28.8s-0.2,1.8-1,3.4 c-1.3,2.9-1.8,3.2-13.9,7.8c-10.4,3.9-50.2,19.5-66.4,26l-4.3,1.7L16.1,275.2z M162.9,193.4c-3.7-2.6-7.4-5.2-8.2-5.8 c-1.2-1-1.1-1.6,2.1-8.4c2.4-5,3.9-7.4,4.9-7.4c0.7,0,4.5,2.2,8.4,4.8s7.3,4.8,7.5,4.8s1.7-2.6,3.3-5.7c2.1-4.1,3.2-5.5,4.1-5.2 c0.7,0.3,4.4,2.7,8.4,5.4c5,3.4,7.1,5.4,7.1,6.5c0,2.3-6.5,14.2-7.8,14.2c-0.6,0-3.5-1.8-6.5-3.9c-5.4-3.8-8.4-5.7-9.3-5.7 c-0.2,0-1.7,2.5-3.3,5.6s-3.1,5.6-3.4,5.6C167.8,196.8,165.3,195.2,162.9,193.4L162.9,193.4z M225.3,170.1c-3.7-2.6-7.3-5.1-7.8-5.4 c-0.8-0.4-0.1-2.5,2.7-8.3c2.1-4.3,4.1-7.8,4.6-7.8c1,0,11.2,6.6,13.9,9c1,0.9,1.9,1.5,2.1,1.3s1.6-3,3.2-6.2l2.9-5.8l3.4,2 c7.2,4.3,13.4,9.2,13.4,10.8s-5,11.8-6.8,13.6c-0.9,0.9-2.4,0.1-8.8-4.3c-4.3-2.9-7.8-5.2-8-5.1s-1.6,2.7-3.2,5.7s-3.4,5.4-3.9,5.3 S229.1,172.6,225.3,170.1L225.3,170.1z M231,144.2c-4.1-2.8-7.8-5.4-8.3-5.9c-1-1,6.2-15.4,7.7-15.4c0.6,0,4.5,2.3,8.6,5 c6.5,4.4,7.4,5.3,7.3,7.2c-0.2,2.2-6.3,14.2-7.3,14.1C236.3,147.8,233.6,146.1,231,144.2L231,144.2z M21.2,137.9 c0.5-0.6,7.8-5.1,16.2-10.1c15.4-9.1,25.7-16.2,29.4-20.3c2-2.1,2-2.2,0.4-3.1c-1.7-1.2-3.3-2.5-4.7-4c-3-2.9-3.1-3.2-2.6-6.8 c1-6.8,7.1-13.5,13.2-14.3c2.6-0.3,3.3-0.1,4.4,1.4c1.6,2.2,1.7,7.7,0.4,13.5l-1,4.1l3,2.5c3.2,2.7,3.3,3.2,0.3,8.3l-1.5,2.6l-2.4-2 c-0.9-0.8-1.9-1.5-3.1-2c-0.4,0-2.8,2.2-5.3,4.8c-8.9,9.4-19.5,16-34.3,21.6C22,138.7,20.1,139.3,21.2,137.9L21.2,137.9z M73.6,91 c-0.7-3.3-2.8-4.3-5.9-2.8c-3.4,1.7-3,3.3,1.4,6c3.7,2.3,3.8,2.3,4.4,0.8C73.8,93.7,73.9,92.3,73.6,91z M13.1,103.3 c-1.7-1.2-3.1-2.7-4-4.6c-1.5-2.9-1.7-4.6-1.7-12.6c0-9,1.5-18,4.3-26.5c2-6.1,10.2-23.5,10.8-22.9c0.2,0.2-1.4,6.3-3.5,13.5 s-4.4,15.9-4.9,19.2c-1.7,10.8-0.2,18.4,4.2,20.5c3.7,1.8,7.5-1.2,11.4-8.5c2.1-4,2.4-2.5,0.9,4.2C27.3,100.5,20.5,107.3,13.1,103.3 z M229.3,98.6c-2.1-2.2-3.1-6.7-3.2-13.8c0-3.6-0.4-5-1.2-5.4c-2.8-1.1,0.5-9.3,3.8-9.3c1.6,0,1.6,0.3,1.2,7.9 c-0.5,8.3,0.5,12.1,3.5,14c1.9,1.1,5.6-0.9,7.4-4.2c1.5-2.6,1.5-2.9,0.2-9.7c-1-5.4-1.1-7.5-0.5-9.5c0.5-1.4,1.2-2.5,1.5-2.5 c1,0,2.2,4.1,3.2,10.9c1.4,9.5,1.5,9.8,3.2,11.5c1.9,1.9,5.8,2.1,7.2,0.4c0.8-1,0.5-2.2-1.6-6.6c-3.3-6.7-3.9-11.7-1.9-15.5 c1.4-2.7,1.5-2.7,1.7-0.7c0.8,3.4,1.8,6.7,3,10c1.5,4.4,2.6,8.7,2.4,9.6s-0.5,2.9-0.8,4.5c-1.5,9-11,10.7-14.1,2.4l-0.8-2.2 l-1.4,3.2C239.3,100.3,233.1,102.6,229.3,98.6L229.3,98.6z M130.5,72.4c0.5-1.6,1.1-3.1,1.9-4.6c1.3-2.7,1.6-2.9,88.4-35.5 C268.7,14.4,308-0.2,308.2,0c0.7,0.7-2.1,6.2-3.5,6.9c-0.8,0.4-7.7,3.1-15.4,5.9C268.4,20.6,199.7,47,163,61.5 c-17.8,7-32.5,12.7-32.7,12.7S130.2,73.4,130.5,72.4L130.5,72.4z M315.7,51.7c0.3-1.5,0.7-2.9,1.3-4.3l1.2-3.3l35-12.9 c53.8-19.9,48.4-18.1,47.7-16c-0.7,2.5-2.7,5.4-3.8,5.8c-7.5,2.6-69.4,26.8-80.4,31.3c-0.3,0.2-0.7,0.1-0.9-0.2 C315.8,52,315.7,51.8,315.7,51.7L315.7,51.7z"/>
</svg>