<svg xmlns="http://www.w3.org/2000/svg" width="282" height="344">
<path d="M192.6,0c-0.8,0.2-1.8,2.2-3.9,7.8c-2.8,7.4-3.2,10.9-1.7,13.7c0.9,1.7,1.6,10.7,3.5,44.8c0.2,3.7,0.8,11.5,1.2,17.2 c3.5,42.9,5,82.9,3.4,88.9c-0.4,2.1-1.7,3.8-3.5,4.9c-3.3,2-13.4,5.5-29.2,10.2c-6.9,2-13.5,4.2-14.7,4.8c-1.5,0.8-2.8,2.9-4.6,7.6 c-1.4,3.6-2.4,7.1-2.3,7.9c0.2,1,1.6,1.5,5.8,1.9c3.1,0.4,19.8,2.6,37.2,5s32.1,4.4,32.6,4.4c2.9,0-1.7,2.4-24.2,10.4l-26.8,9.5 c-0.8-0.6-2.3-2.7-3.6-5.2c-3.7-7.1-8.9-13.3-14-16.9c-3.4-2.4-4.8-2.9-8.3-2.9c-5.3,0-9.5,2.2-14.4,7.5c-5.3,5.5-8.5,12.7-9.1,20.3 c-0.5,7.1,0.5,10.7,3.9,14.1c4.2,4.1,9.1,5.3,21.4,5.1c5.9-0.1,12.1-0.3,13.6-0.4l2.8-0.2l1.4,5.6c0.8,3.1,1.2,6.6,0.9,7.8 c-0.7,3.2-7.4,10.2-16,16.6c-34.7,26.1-80.2,39-107.6,30.5c-14.7-4.8-26.1-16.2-30.9-30.9c-2.5-8-2.5-13.2,0.5-29.6 c1.3-7.4,2.3-14,2.2-14.7c-0.5-2.4-2.9,2.5-5,10.4c-3.1,11.7-4.1,23.8-3,35.9c1.7,16.9,6.3,27.9,15.8,37.4 c7.9,8,16.6,12.1,29.4,13.9c6.5,0.9,20.5,0.3,28.8-1.3c25.3-4.8,60.5-23.9,78.8-42.9c9.3-9.6,11.6-15.9,13.1-35.1 c0.2-2.4,0.3-4.6,0.4-6.8c2.3-0.8,7.6-2.8,11.8-4.6c21.4-9,39.7-15.8,54.8-20.3c8.2-2.4,9.1-2.6,9.6-1.4c0.3,0.7,0.6,12.4,0.6,25.9 c0,13.5,0.2,24.4,0.5,24.2c0.9-0.6,4.6-10.4,6.2-16.7c2.1-8.1,3.2-16.6,3.6-27.6l0.3-9.2l2.3-0.6c3.3-0.6,6.5-1,9.8-1.1 c5.2-0.4,7.9-0.9,8.8-1.8c1.5-1.6,6.9-16.7,6.1-17.5c-0.3-0.3-6.5-0.9-13.9-1.2s-13.7-1-14.2-1.5c-0.8-0.8-8.6-103.8-7.9-104.8 c0.2-0.3,1.9,1,3.9,3s3.9,3.6,4.4,3.6c1.6,0,0.8-4.8-2.5-14.2c-4.9-13.9-12.2-31.7-13.1-32c-0.8-0.2-5.3,10.5-6.4,15.1 c-0.2,2.2,0.1,4.3,0.8,6.4c0.8,2.7,1.6,10.2,2.1,20.3c0.4,8.8,1.7,28.6,2.8,44c3.1,43.4,3.9,57.2,3.6,57.5c-0.9,0.9-47.8-6.3-49-7.5 c-0.4-0.4,0.6-2.3,2.2-4.3c5.9-7.8,9.3-17.7,10.9-32.1c1.3-12,0.8-39.9-1.1-66.8c-1-13.9-1.6-25.4-1.4-25.7 c0.5-0.6,29.4-12,54.4-21.5c15.1-5.7,16.4-6.4,17.8-8.9c1.7-3.2,1.8-3.9,0.6-3.9c-0.5,0-16.9,5.9-36.5,13.2S202.3,58.2,201.8,58 c-0.9-0.3-2.5-17.8-1.8-18.6c0.2-0.2,2,1.3,3.9,3.3c4.6,4.6,5.8,4.7,5.2,0.2c-0.5-3.6-14.4-41.2-15.8-42.5 C193.1,0.1,192.9-0.1,192.6,0L192.6,0z M142.6,54c-19.5,0-19.9,0.1-25.6,10c-2,3.5-3.7,6.7-3.7,7.2s5,0.8,14.7,0.8 c15.3,0,22.9,0.9,22.9,2.8c0,1.5-2.6,3.2-17.1,11.1C120.2,93.4,115,96.5,115,97.2s3.7-0.2,14.4-3.3c15.7-4.5,18-5.7,24-11.7 c6.1-6.2,15.2-19.1,15.2-21.8C168.6,55.4,162.8,54,142.6,54L142.6,54z M37.4,64.7c-1.5,0.1-3,1-4.6,2.8c-2.6,3-3.9,6.4-6.6,18.8 c-1,4.4-2,7.7-2.3,7.4c-0.7-1.6-1.2-3.3-1.5-5c-1.9-8.8-7.1-17.1-12.1-19.2c-3.3-1.3-4.1-0.8-6.7,3.9c-2.1,3.9-2.2,4.3-1,6.1 c1.9,2.9,6,4.8,7.8,3.7c0.6-0.5,1.5-0.7,2.3-0.4c2.1,1.3,8.8,17.9,8.8,21.9c-0.1,1,0.1,1.9,0.6,2.8c0.3,0.3,1.2-0.3,2-1.3 c1.3-1.8,1.9-3.9,5.5-19.5c1.8-7.9,4-12.3,6.1-12.3c0.8,0,2.4,1,3.7,2.2c2.2,2.2,2.3,2.2,3.4,0.7c1.9-2.5,1.4-7.2-0.9-10 C40.3,65.5,38.8,64.7,37.4,64.7L37.4,64.7z M71.5,105.4c-5.5,0.1-13.5,8-13.7,15.4c-0.1,4.2,0.9,5.6,6.8,9.6l2,1.4l-4,3.8 c-5,4.7-14.2,10.8-30.2,20.2c-6.9,4.1-13,7.9-13.5,8.6c-1.3,1.6,13.6-3.7,22-7.7c8.8-4,16.7-9.6,23.4-16.4l6.6-6.6l2.7,2.3l2.7,2.4 l1.6-2.7c2.9-5,2.9-5.7-0.3-8.4l-3-2.4l0.9-4.1c1.3-5.7,1.2-11.3-0.3-13.4C74.5,106.1,73,105.3,71.5,105.4L71.5,105.4z M68.4,113.8 c1.6,0,2.5,1.1,3,3.6c0.3,1.3,0.2,2.6-0.2,3.9l-0.7,1.8l-2.8-1.7c-2.8-1.7-4.8-3.7-4.8-4.9c0-0.4,1.2-1.2,2.8-2 C66.6,114.1,67.4,113.9,68.4,113.8L68.4,113.8z M185.1,114.7c-1.2,0.2-9.4,3-19,6.6c-65.8,24.4-62.6,23.1-64.1,25.6 c-0.8,1.4-1.4,3-1.9,4.6l-0.5,2.2l3.9-1.6c20.5-8.2,53.1-20.9,64.9-25.4c14.2-5.4,14.6-5.6,15.9-8.5c0.8-1.7,1.2-3.2,0.9-3.4 C185.3,114.7,185.3,114.7,185.1,114.7L185.1,114.7z M15.4,176.1c-1,0.2-7.3,13.4-9.9,20.7c-3.7,10.6-5.1,18.4-5.2,28.7 c0,11.3,1.7,16,6.6,17.8c7,2.6,13.4-4.4,16.5-18.3c1.5-6.7,1.2-8.2-0.9-4.2c-2.3,4.5-5.1,7.6-7.6,8.7c-2.1,0.9-2.7,0.8-4.5-0.6 c-6.1-4.5-5.6-16.4,1.8-40.5C14.2,181.9,15.7,176.4,15.4,176.1C15.5,176.1,15.5,176.1,15.4,176.1L15.4,176.1z M107,179.9 c-0.5,0-1.9,2.4-3.3,5.4s-2.6,5.5-2.8,5.7s-3.5-1.9-7.5-4.6s-7.7-5.1-8.4-5.4c-1-0.4-2.2,1.4-5.1,7.4l-3.8,7.8l2,1.4l8,5.8 c3.3,2.4,6.4,4.3,6.8,4.2s2.2-2.8,3.8-5.9l3.1-5.8l7.6,5.2c4.2,2.9,7.9,5.2,8.3,5.2c0.9,0,6.3-9.4,7.2-12.8c0.6-2.2,0.4-2.7-2.6-5.1 C116.2,185,108.2,180,107,179.9L107,179.9z M134.1,232c1.8,0,3.5,0.4,5.2,1.1c3.4,1.6,9,7.5,8,8.4s-7.9,1.3-13.4,0.7 c-3.8-0.4-5.1-0.9-6.6-2.6c-2.2-2.6-2.2-3-0.4-5.3C128.1,232.8,131.1,231.9,134.1,232L134.1,232z M76.7,238c-0.4,0-0.7,1-1.2,2.3 c-1.7,3.9-1.2,6.9,2.2,14.2c2.7,6,2.3,7.8-1.7,7.8c-3.7,0-5.6-2.9-6.4-10.1c-1-7.6-2.6-13.6-3.6-13.3c-1.7,0.4-2.2,4.6-1.3,10 c1.5,8.6,1.3,10-1.8,13.1c-3.5,3.5-5.6,3.5-7.8,0.1c-1.4-2.2-1.6-3.5-1.2-9c0.5-7.3,0-10.8-1.5-10.8s-3.5,2.5-4.5,5.6 c-0.8,2.4-0.8,2.8,0.8,3.9s1.7,1.9,1.7,7.4c0,6.5,0.8,9.7,3,12.1c1.8,1.9,6.7,1.8,9.3-0.2c1.4-1.2,2.4-2.7,3.1-4.4 c0.6-1.5,1.2-2.8,1.4-2.8c0.8,0.7,1.5,1.6,2.1,2.6c3.6,5.7,9,5.4,11.9-0.5c2.6-5.4,2.6-9.2-0.3-17.9C78,240.5,77.3,237.9,76.7,238z M193,259.3c-2,0-4.1,0.4-5.9,1.2c-4,2.1-8.6,9.3-5,7.9c4.3-1.7,12.2-1.4,15,0.7c1.3,1,0.8,1.6-5,7.8c-3,3.2-5.8,6.5-8.4,10 c-4.7,7.2-4.4,14.9,0.5,18c3.5,2.1,13.7,2.1,20.5,0c5-1.6,11.6-5.3,14.1-8.1c1.8-2,1.5-2-6,0.1c-4.7,1.1-9.5,1.8-14.4,2 c-7.1,0.4-8.8,0.2-11.2-1s-2.8-1.8-2.7-4.1s1.5-4.1,7.2-10.2c11.5-12.4,14-16.3,12.7-20.2C203.6,260.9,198,259.3,193,259.3 L193,259.3z"/>
</svg>