<svg xmlns="http://www.w3.org/2000/svg" width="471" height="332">
<path d="M246.6,330.2c-12.1-1.9-21.7-10.9-25.9-24.5c-0.9-3.7-1.4-7.4-1.6-11.2c-0.3-4.1-0.8-7.4-1.1-7.4c-2.2,0.7-4.3,1.5-6.4,2.4 c-1.9,0.9-3.9,1.6-6,2.2c-0.5-0.5,3.1-8.8,3.9-9l5.3-1.9l4.3-1.7l1.8-9c1.1-5.5,2.6-10.9,4.3-16.2c5.3-15.4,7.1-15.1,3,0.6 c-2.6,10-4.8,21.9-4.2,22.5c0.2,0.2,2.9-0.7,6.1-1.9c18.5-7.1,60.8-22.4,61.1-22.1s-0.4,1.8-1.2,3.5c-1.6,3.1-1.7,3.1-25.5,12.2 c-13.1,5-27.7,10.7-32.3,12.5l-8.4,3.4l0.3,2.6c1,8.7,6.3,16.2,14.2,20c6.8,3.3,17.2,4.1,26.1,1.9c12-2.9,26.9-10.9,42.7-22.7 c9.5-7.1,29.2-26.6,30.7-30.3c0.7-1.8,0.8-3.8,0.3-5.6l-0.7-3l-4,0.4c-8,0.8-22.4,0.4-26.3-0.7c-5-1.5-9.6-5.8-11-10.3 c-2.2-7.4,1.5-20.4,7.8-27.4c5.2-5.7,9.4-8,15.1-8c4.2,0,5.4,0.3,8.5,2.6c4.9,3.5,9.6,9.1,14,16.7l3.6,6.3l2.7-1.1 c4.4-1.9,11.4-6.8,13.9-9.9c1.7-2.2,3.1-4.7,4.1-7.3c1.5-4,1.6-5.4,1.2-16.8c-0.5-11.9-1.6-28.9-4.1-63.6c-1-13.6-1.9-26.9-4.7-73.2 c-0.2-3.2-0.7-6.3-1.6-9.3c-0.9-2-1-4.3-0.4-6.4c1.3-4.7,5.5-14.6,6.3-14.6c1.3,0,15.5,37.2,16.5,43.1c0.7,4.4-0.6,4.3-5.5-0.5 l-3.8-3.8v2.8c0,1.5,0.5,9.6,1.2,18s1.9,25.5,2.8,38c4.2,59,4.4,68,1.7,80.4c-2.2,10.2-6.9,21.5-11.7,28.1 c-4.1,5.4-9.3,9.9-15.3,13.2c-2.1,1.1-2.4,1.8-2.9,6.1c-0.7,6.9-4.9,17.9-9.4,24.6c-5,7.4-20.3,23.1-31.1,31.6 c-23.9,19-42.1,26.5-58.5,24L246.6,330.2z M327.1,228.8c1-0.6,0.6-1.3-2.4-4.1c-4.8-4.4-8.6-6-12.7-5.3c-4.7,0.8-6.1,1.8-6.1,4.4 c0,2.8,2,4.6,6,5.6C315.4,230.2,325.1,229.9,327.1,228.8L327.1,228.8z M169.8,327.1c-3.8-1.2-7.2-3.6-8.8-6.3 c-1.9-3.1-1.6-3.7,1.1-2.6c5,1.9,12.9,1.8,25-0.3c13.7-2.4,26-5,26.7-5.6c1.1-1.1-3.1-3.6-7.3-4.4c-3.7-0.7-6.6-0.5-15.7,0.8 c-16,2.4-22.5,1.2-22.5-4.1c0-6.6,13.3-22.9,22.4-27.3c4.8-2.4,9.7-2.8,11.2-1c1.1,1.4,0.6,5.8-1.1,8c-1,1.4-1.2,1.4-3.1,0.1 c-2.6-1.7-4.1-1.3-11.8,3.6s-13.5,10.7-12.1,12.1c1.5,1.5,10.3,1.7,19.3,0.3c13.9-2.1,19.8-1.3,22.9,3c1.8,2.5,1.5,9.2-0.6,13.3 c-1.7,3.4-2,3.6-8.2,5.4C192.3,326.1,174.3,328.6,169.8,327.1L169.8,327.1z M91.5,316.2c1.7-2.4,3.5-4.7,5.5-6.8 c2.6-2.9,4.9-6,6.9-9.2c2.7-5.6-0.6-9.1-6-6.4c-2.6,1.3-2.6,1.3-2-0.5c1.9-6.8,4.4-9.5,8.9-9.5c7.9,0,6.4,13.4-2.7,24 C99.1,311.2,91.5,317.3,91.5,316.2L91.5,316.2z M403,293.6c2-17.6,1.7-26.4-4.3-111.8c-1.7-24.6-3.5-52.2-4-61.2 c-0.5-9.4-1.4-18.9-2.2-22.3c-1.5-6.8-1.1-9.4,3.1-18.4l2.5-5.4l2,4.4c4,8.8,13.9,36,14.3,39.5c0.6,4.7-0.3,4.7-5,0 c-2-2-3.8-3.5-4-3.3s1.5,25.9,3.8,57.1c5.2,70.5,5.6,90.4,2.2,104.8c-2.3,9.6-6.7,21.1-8,21.1C402.8,298.2,402.7,296.6,403,293.6 L403,293.6z M127.8,290.1l-8.1-5.6l3.2-6.9c1.2-2.8,2.6-5.4,4.2-8c0.8-0.9,2.4-0.1,8.8,4.2c4.3,2.9,8,5.2,8.1,5.2 c1.1-1.8,2.2-3.7,3.1-5.6c1.6-3.1,3.2-5.6,3.6-5.6s4.1,2.3,8.2,5.1c7.1,4.9,7.4,5.2,7.3,7.9c-0.1,3.6-5.7,13.4-7.6,13.4 c-0.7,0-1.4-0.2-1.8-0.7c-0.8-1.3-12.5-9-13.2-8.7c-0.4,0.1-1.9,2.6-3.5,5.4s-3.1,5.2-3.4,5.4S132.2,293.1,127.8,290.1L127.8,290.1z M350.5,291.3c10.3-12.4,12.2-15.7,10.6-18.7c-1-1.9-5.5-2.3-7.1-0.7s-2-0.1-0.6-3.7c1.7-4.4,3.8-6,7.8-6c9,0,6.5,14.2-4.5,25.3 c-2.1,2.2-4.4,4.2-6.8,5.9C348.1,294.4,348.2,294.2,350.5,291.3L350.5,291.3z M37.9,291.3c-19.2-1.8-30.6-12.2-36.1-32.7 c-1.4-5.4-1.7-8.9-1.8-20.8c-0.1-17.8,1.2-25.4,6.5-37.5c2-4.6,2-4.7,0.6-7.6C3.9,186,5,168.5,9.6,154.3c2.1-6.6,10.5-24.6,11.1-24 c0.2,0.2-1.2,5.8-3.2,12.3c-4.5,14.9-6,22.1-6,28.5s1.2,10.7,3.4,12.2c3.9,2.8,7.9,0.6,11.9-6.5c1.4-2.4,2.6-4.2,2.8-4 c0.7,0.7-2.4,12.3-4.5,17c-2.9,6.5-5.6,8.6-10.6,8.2l-3.8-0.3l-2,6c-1.1,3.3-2.5,8.3-3.2,11.2c-1.6,7-1.6,21.9,0,28.2 c8,31,40.1,36.7,80.7,14.4c10.4-6,20.5-12.7,30.1-20.1c9.2-7.1,21.4-19,23.3-22.7c2.8-5.5,3.4-14.3,2.9-47.4 c-0.6-41.2-2.9-69.8-8.2-104.8c-1.4-8.8-1.9-15.3-1.7-18.4c0.6-7,3-16.5,4-16.2c2.5,0.8,8.5,28.6,11.8,54 c2.3,18.2,3.1,31.5,4.4,69.4c1.2,35.5,1.6,42.6,2.9,52.6c1.4,11.2,5.2,19.2,10.3,21.8c6.3,3.2,19,1.9,29.3-3.2 c4.4-2.1,8.3-5.2,16.8-13.2c13.5-12.6,14.4-12.9,14.1-4c-0.2,5,0.1,6.6,1.6,9.6c2.4,4.8,6.2,7.2,11,7.2c7.1,0,16.5-4.5,22.3-10.6 c1.8-1.9,1.8-2.1,0.5-4.7c-2.3-4.6-20.2-21.4-34.3-32.3c-27.4-21.1-33.9-26.5-45.7-38.3c-7-6.9-13.5-14.3-19.5-22l-7.4-9.9l0.5-8.8 c0.7-11,2.3-19.1,4.5-22.7c6-9.8,47.7-32.2,100.7-54.3C275,12.3,293.6,6,301.7,4.3c8.5-1.8,16.5-1.6,18.5,0.3 c2.3,2.3,2.9,8.2,1.3,13.8c-2.7,9.7-8,18-21.5,33.6c-8.3,9.5-11.4,13.7-15.1,20.3l-2.3,4l0.5-3.6c0.9-6.5,7.6-18.8,14.9-27.2 c8.9-10.4,15.9-19.9,15.9-21.5c0-3.5-9.3-4.3-19.3-1.7c-26.7,6.8-95.4,38.7-123.5,57.2c-13.5,8.9-13.5,7.6-0.6,16 c11.6,7.6,15.4,10.5,15.4,11.6c0,0.4-2.6,0.7-5.8,0.7h-5.8l6.8,6.9c8.7,8.9,23.5,21.6,43.6,37.5c17.8,14.1,32.4,26.8,35.9,31.2 c4.5,5.7,6.5,11.3,6.8,19.6c0.5,12.9-2.8,21.8-11.6,30.9c-5.4,5.6-11.1,8.2-17.7,8.3c-11,0-16.7-5.4-18.2-17.1 c-0.4-3.5-0.9-4.5-2-4.5c-0.8,0-4.4,3.4-8,7.6c-10.7,12.4-21,18.5-32.4,19.3c-18.5,1.5-28.5-8.8-30.5-31.3c-0.3-2.9-0.6-5.1-0.8-4.9 s-1.2,4.1-2.2,8.7c-2.5,11.1-4.2,14.1-12.2,22c-24.7,24.2-62.1,46.5-81.5,48.6C41.5,291.5,40.7,291.6,37.9,291.3L37.9,291.3z M41.1,223.8c0.7-0.4,8.1-5,16.6-10c15.1-9,23.7-14.9,28.8-19.7l2.5-2.5l-3.5-2.2c-3.3-2.1-6-5.7-6-8.1c0-4.9,4.9-12.2,9.7-14.7 c3-1.6,6.6-1.4,8.2,0.3s1.8,7.8,0.4,13.8c-0.8,3.6-0.8,4.2,0.3,4.8c1.1,0.7,2.1,1.4,3.1,2.2c1.7,1.4,1.8,1.7,0.9,3.8 c-0.6,1.4-1.4,2.8-2.2,4.1l-1.2,1.8l-2.9-2l-2.9-2l-3.9,4.4c-5,5.6-14.5,12.8-22.7,17C56.6,219.8,36.3,227.1,41.1,223.8L41.1,223.8z M93.6,180.3c0.7-2.6-1.2-6.4-3.3-6.7c-1.3,0-2.6,0.5-3.6,1.4l-1.9,1.6l3.1,2.8C91.5,182.7,92.9,182.9,93.6,180.3L93.6,180.3z M177.1,206.8c-5.7-2.9-5-17.9,1.6-33.7c3.2-7.7,5.2-10.5,3.5-4.8c-5.4,17.5-6.3,25.1-3.5,28.7c2.3,2.9,4.3,2.6,6.9-0.9 c1.2-1.6,2.5-3.3,2.8-3.7c1-1.2-1.4,7.8-2.8,10.5s-4.2,5.1-5.7,5C178.9,207.6,178,207.3,177.1,206.8L177.1,206.8z M303.5,162.7 c0-2.2-4.2-14.5-6.4-18.9c-1.8-3.5-3.6-5.2-4.3-4s-2.9,1-5.8-1c-3.7-2.5-4-4.6-1.5-9c1.6-2.8,2.6-3.6,4.1-3.6 c6.4,0,11,6.8,15.3,22.4c0.9,3.3,0.9,3.5,4.1-9.9c2.6-11.1,5-15.3,9.3-16.9c2-0.7,2.5-0.5,4.9,2.2c2.8,3.1,3.3,5.3,1.9,8.9 c-0.9,2.4-2.8,2.7-4,0.5s-3.8-2.8-5.3-1.6c-2,1.6-3.5,6.1-6,17.4c-2.3,10.6-4,15.4-5.5,15.4C303.8,164.6,303.5,163.7,303.5,162.7 L303.5,162.7z M59.2,147.4c-1.5-1.5-2.9-6.2-2.9-9.7c0-7,4.5-22.3,8.9-29.9c1.8-3.1,1.8-3.5-1.8,9c-3.9,13.7-4,20.2-0.3,22.7 c2.3,1.5,3.3,1,7-4.1c2.3-3.1,2.3-3.1,1.8-0.8c-1.2,5.2-3,10-4.5,12C65.6,149,61.2,149.4,59.2,147.4L59.2,147.4z M230,110.8 c0.9-2.3,1.7-4.3,1.8-4.4c0.3-0.3,78.4-29.2,80.7-29.9c1.2-0.4,2.2-0.4,2.2-0.1c-0.1,1.4-2.9,6.1-4,6.7c-0.7,0.4-8,3.2-16.4,6.4 s-26.5,10.2-40.2,15.6s-25.2,9.8-25.4,9.8S229.1,113.1,230,110.8L230,110.8z M82.4,94c-0.5-3.9-4.6-15-6.9-18.7 c-1.4-2.3-1.9-2.5-4.3-2.1c-1.9,0.4-3.8-0.1-5.2-1.4c-3.5-2.6-3.7-4.1-1.2-8.7c2.8-5,5.2-5.3,9.7-1.2c4.1,3.7,7,9.3,8.8,16.9 c0.8,3.4,1.7,5.9,1.9,5.5c0.6-1.8,1.1-3.7,1.4-5.5c1.7-8.7,4.2-16.8,5.8-19.4c3-5,7.3-5.6,10.7-1.6c1.8,2.2,2.1,3.1,1.8,6.1 c-0.5,4.8-1.9,5.5-5.1,2.4c-4.7-4.5-6.5-1.6-10.7,16.8C86,96.9,83.4,101.2,82.4,94z M385.9,66c0.5-1.6,1.3-3.2,2.2-4.7 c0.5-0.5,10.9-4.4,68.7-25.8c11.7-4.3,13.9-5,13.9-4c0,1.2-3.3,6.8-4,6.8c-1,0-43,16.1-65.4,25.1L384.4,70L385.9,66z M170.7,40 c-1.6-2-1.7-2.9-1.4-11c0.2-6.1,0.9-10.3,2.1-13.7c1.8-5.2,6.6-15.7,7-15.3c-0.6,3.2-1.5,6.4-2.5,9.6c-1.3,4.4-2.4,8.8-3.2,13.3 c-0.9,6.7,2,12.2,5.7,10.8c0.8-0.3,2.4-2.2,3.7-4.2l2.4-3.7l-0.6,3.2c-0.9,5-2.6,9.4-4.5,11.4c-2.1,2.3-5.6,2.5-7.9,0.4 C171.2,40.6,170.9,40.3,170.7,40L170.7,40z"/>
</svg>