<svg xmlns="http://www.w3.org/2000/svg" width="394" height="363">
<path d="M108.6,361.3c0.3-1.6,0.8-3.1,1.5-4.5c1.3-2.8,2.1-3.4,6.6-5c2.8-1,21.2-7.8,40.9-15.1s36-13.1,36.3-12.9s-0.2,1.8-1.1,3.4 c-1.5,3-1.8,3.1-31.1,14.4c-16.2,6.3-34.8,13.5-41.3,16.2C111.1,361.6,108.6,362.4,108.6,361.3L108.6,361.3z M16.1,357.6 c2.5-1.4,11.6-5.4,40.9-18c22.2-9.5,42.6-18.6,51.1-23l6.3-3.2L96.9,313c-9.6-0.3-23.5-0.5-30.9-0.5c-17.4,0-36-1.3-45.3-3.2 C8.7,306.8,3,302.3,3,295.2c0-8.6,5.5-20.9,13.1-29c4.9-5.2,9.2-7.7,30.9-17.5c20.4-9.2,25.7-13.9,36.7-32c2.6-4.4,5.7-8.4,9.2-12.1 c7.4-7,10.8-6.6,15,1.9c2.5,5,2.7,6,2.7,13.1c0.1,5.2-0.7,10.4-2.3,15.4c-3.5,11.9-4.4,12.4-4.2,2.2c0.1-7.3-0.1-8.9-1.7-12.2 c-2.1-4.2-4.1-5.8-6.9-5.1c-3.7,0.9-10.1,7.9-17.6,19.2c-11.6,17.5-16.8,21.6-36.5,28.9c-20,7.4-30.3,13.6-28.2,17 c1.2,1.8,6.1,3.2,17.1,4.6c16.2,2.1,37.1,2.7,80.4,2.2l42.4-0.5l6-4.1c4.1-2.9,8.1-6.2,11.7-9.7c6.2-6.1,7.6-9.3,6.1-14.2 c-0.7-2.4-0.9-2.5-3.9-2.1c-1.7,0.2-8.2,0.4-14.4,0.4c-10.6,0-11.4-0.1-15.8-2.2c-2.8-1.4-5.2-3.2-6.1-4.8 c-4.9-8.1-1.7-22.8,7.1-32.1c9.7-10.3,18.5-10.1,28.4,0.5c3,3.5,5.8,7.2,8.1,11.1c2,3.5,3.9,6.3,4.3,6.3c0.7,0,12.3-4.9,15.7-6.7 l2.4-1.2l-1.4-5.4c-1.8-6.8-2-22.4-0.4-30c3.4-16.2,13.8-23,22.2-14.6c3.4,3.4,7.2,10.3,8.9,16.3c3.3,11.2,0,28.7-7.3,38.2 c-1.1,1.3-2,2.7-2.6,4.1c0,1.1,5.2,4.8,9,6.5c7.7,3.4,17.5,2.5,25.3-2.2c6.8-4.2,6.9-4.6,6.9-22c0-8.4-0.5-21.3-1-28.5 c-2.8-36.8-5.8-81.4-6.5-96c-1-20-1.5-24.4-2.9-27.9c-0.6-1.5-0.8-3.2-0.6-4.8c0.9-3.7,6-16.1,6.7-16.1c0.8,0,2.7,4.5,9.9,23.8 c6.7,17.8,7.9,22.6,5.8,22.6c-0.7,0-2.8-1.5-4.6-3.3s-3.5-3.1-3.7-2.8s0.2,8.5,0.9,18.3c6,81.1,6.9,98.9,6,111.8 c-1.4,18.7-6.8,33.3-15.5,42.1c-6,6-10.8,8-18.6,7.3c-8.7-0.7-20.8-8.1-27.3-16.6c-1-1.4-2.2-2.7-3.5-3.9 c-0.8-0.3-19.1,7.3-22.1,9.2c-1.2,0.8-1.9,2.2-1.8,3.7c0,6.1-5.2,20.9-9.5,26.9l-1.6,2.3l4.9,0.5c2.7,0.3,11.8,0.5,20.2,0.5 c31.4,0,65.6,2.5,85.3,6c14.1,2.6,40.4,9.1,52.9,13.2c12.3,4,32.2,13.5,42.4,20.4c7.3,4.9,15.3,12.4,13.7,13 c-0.4,0.1-6.2-2.4-12.9-5.7c-12.8-6.4-26.1-11.8-39.7-16.2c-30.4-10-62-16.2-94-18.2c-10.2-0.6-5.7,0.7,10.8,3.1 c24.3,3.6,49.1,9.7,65.4,16.1c14.6,5.8,33.5,17,38.1,22.6c1.4,1.6,2.1,3.1,1.8,3.2s-3.4-1.2-6.6-3c-22.6-12.2-63.8-24.5-98.8-29.6 c-24.2-3.5-37.9-4.3-74.5-4.2l-34.6,0.1l-7,4.3c-20.3,12.6-41.3,23.4-48.3,24.9c-2.8,0.6-15.6,3.6-28.6,6.7c-32.9,8-37.6,9-44.2,9.4 C13.9,358.9,13.8,358.9,16.1,357.6L16.1,357.6z M165.9,242.6c0.8-0.8-2.6-5-6-7.3c-5.6-3.9-15.3-2.5-15.3,2.2c0,2.2,2.1,4.3,5.3,5.3 C152.3,243.6,165,243.4,165.9,242.6L165.9,242.6z M220.5,223.6c4.7-3.1,7.4-5.5,7.7-6.7c1.2-4.9-10.3-18.9-15.6-18.9 c-1.4,0-6.5,4.9-7.8,7.4c-0.8,1.7-1.1,3.5-0.9,5.3c0.5,3.9,6.9,17.6,8.2,17.6C212.8,228.4,216.6,226.2,220.5,223.6L220.5,223.6z M296.3,236c0.4-19.4,0.2-23.9-5.7-109.2c-1.5-22.2-3.1-47.1-3.6-55.2c-0.5-10.1-1.2-16-2.1-18.7c-1.3-3.7-1.3-4.2,0.1-8.4 c2-6.2,5-12.9,5.9-12.9c1.3,0,17,41.6,17,45c0,2.3-1.9,1.6-5.6-2.2c-1.9-2-3.8-3.3-4-3s1,21.7,2.9,47.4c5.7,78.2,6.2,87.4,5.2,98.9 c-1.2,13.4-5.6,30.3-9.2,35.2C296.1,254.2,296,252,296.3,236L296.3,236z M3.8,237.8c-4.7-2.4-5.1-14.3-0.8-27.1c2.1-6.4,6-15,6.7-15 c-0.7,3.2-1.5,6.3-2.5,9.3c-1.5,4.9-2.5,9.9-3.2,15c-0.4,5.1-0.2,5.9,1.5,7.9c2.4,2.9,4.7,2.3,7.2-1.7c2.3-3.7,2.8-2.3,1.1,3.3 C11.8,236.6,7.8,239.8,3.8,237.8L3.8,237.8z M40.8,206.7c-2.8-1.4-4.2-5.4-4.2-12.3c0-5.2-0.3-6.5-1.6-8c-1.1-0.9-1.5-2.4-1.1-3.8 c0.6-2.2,3.8-6.1,5-6.1s1.6,4.5,1.2,11.6c-0.3,5.7-0.2,6.6,1.4,8.6c2.4,3,5.2,2.9,8.2-0.4c2.6-2.8,2.6-1.9,0.9-15.5 c-0.5-4.3,0.8-8.4,2.2-6.9c1.1,1.1,3,9.5,3,13.2c0.1,6.8,4.2,11.4,8.6,9.4c2.4-1.1,2.3-2.4-0.5-7.9c-3.2-6.3-3.8-10.4-2-14.3 l1.4-3.1L64,174c0.4,1.5,1.8,5.8,3.1,9.5c2.6,7.6,2.8,9.8,1.1,14.6c-3,8.4-9.4,9.7-13.1,2.5l-1.5-2.9l-1.6,3.2 c-0.8,1.6-1.9,3.1-3.1,4.5c-2,1.8-5.9,2.4-8,1.3L40.8,206.7z M124.1,200.1c-1.8-1.8-2-2.6-2-9.2c0-9.5,1.7-16.4,6-25.2 c2-4,3.4-6.5,3.1-5.6c-5.9,19.8-6.9,26.6-4.7,30.8c2.2,4.3,5.7,2.8,9.7-3.7c0.6-1,0.6,0.2-0.2,3.6 C133.7,201.1,128.8,204.9,124.1,200.1L124.1,200.1z M199.4,162.4c-2.5-1.9-5.1-3.6-7.8-5.2c-1.2,0-0.6-2.1,2.7-9 c1.8-3.9,3.8-7,4.4-7c1.2,0,8.7,4.6,13.2,8.1l3,2.3l2.8-6c1.5-3.3,3-6,3.4-6c0.9,0,5.8,3.1,11.3,7.1c3.7,2.7,5,4.1,5,5.5 c0,2.1-3.8,10-6.1,12.8l-1.5,1.8l-7.2-5.2c-4-2.9-7.6-5.2-8-5.2s-2.1,2.5-3.6,5.5s-3.1,5.6-3.6,5.6S203.4,165.2,199.4,162.4 L199.4,162.4z M19,165.4c0-0.4,5.5-3.9,12.2-7.8c15.9-9.3,27.2-16.8,32.2-21.3l4-3.6l-3.7-2.6c-4.4-3-5.4-4.6-5.4-8.5 c0-4.1,2-7.9,6.2-11.5c8.8-7.7,14.4-3.9,12.3,8.3c-0.3,2.2-0.8,4.3-1.3,6.4c-0.3,0.7,0.7,1.8,2.4,2.9c3.3,2.1,3.6,3.7,1.1,8.1 l-1.7,3.1l-2.6-2c-0.9-0.8-1.9-1.5-3-2c-2.2,1.8-4.3,3.8-6.2,5.9c-6.3,6.2-13.5,11.5-21.3,15.7c-3,1.5-23.7,9.6-24.6,9.6 C19.2,166,19.1,165.7,19,165.4L19,165.4z M71.8,120.2c0-4.8-1.8-6.4-5.4-4.9c-1.4,0.6-2.6,1.6-2.6,2.2c0,1.6,5.3,6.1,7.4,6.2 C71.5,123.6,71.8,122.1,71.8,120.2z M135,145.4c1.9-6.4-0.5-5.2,42.9-21.3c22.1-8.2,40.9-14.9,41.6-14.9c1.1,0,1.1,0.4-0.5,3.3 l-1.9,3.3l-23.6,9c-13,5-31.4,12.1-41,15.9s-17.5,6.9-17.7,6.9S134.6,146.6,135,145.4L135,145.4z M128.6,114.1 c0-4.1-6.6-20.7-8.8-22c-0.8-0.2-1.7,0-2.3,0.5c-1.3,0.8-2,0.6-4.4-0.8c-4.7-2.9-5-4.3-2.2-9.1c2.1-3.7,2.6-4.1,4.9-4 c5.2,0.2,11.5,9.3,13.7,19.4c0.3,1.7,0.8,3.4,1.5,5c0.3,0.3,1.3-3,2.3-7.4c2.8-12.4,4-15.8,6.6-18.8c3.2-3.6,6.1-3.7,9-0.3 c2.4,2.8,2.8,7.4,0.9,10c-1.1,1.5-1.2,1.5-3.5-0.7c-4.9-4.7-7-1.7-10.9,15.3c-1.5,6.6-3.2,12.8-3.8,13.7 C130.2,117.2,128.6,116.9,128.6,114.1L128.6,114.1z M189,102.9c0.6-0.9,8.4-5.5,21.8-12.8c12.5-6.8,14.7-8.4,13.3-9.8 c-1.6-1.7-7.5-2.3-22.5-2.3c-10.5,0-14.6-0.3-14.6-1c0-0.5,1.6-3.7,3.7-7.2c5.4-9.2,6.7-9.8,20.9-10.2c19.2-0.5,29.9,1.8,30.4,6.3 c0.4,3.7-12.5,21.3-19.2,26.1c-4,2.9-8.7,4.7-22.3,8.6C189.9,103.7,188.3,104.1,189,102.9L189,102.9z M237.9,36.3 c1.8-5.6,2.8-7,6.1-8.2c57.1-21.3,78.7-29,78.9-28c0,1.2-0.3,2.3-0.9,3.4c-1,2-3,3-13.5,7c-15.1,5.7-63.2,24.5-67.3,26.3 C237.4,38.4,237.2,38.4,237.9,36.3L237.9,36.3z"/>
</svg>