<svg xmlns="http://www.w3.org/2000/svg" width="356" height="277">
<path d="M321,270.5c1.9-19.1,1.6-25.1-4-104.6c-1.5-22-3.5-51-4.3-64.4s-1.9-25.4-2.4-26.7c-0.5-1.5-0.8-3.2-0.8-4.8 c0-3.1,4.9-15.9,6.2-16.4c1.1-0.4,2.5,2.8,10.2,23.4c6.1,16.3,7.8,22.8,5.9,22.8c-0.5,0-2.6-1.6-4.6-3.6s-3.8-3.4-4-3.2 s1.5,26.4,3.9,58.2c6.4,86.7,6,98.7-3.5,120.9C321.3,277.6,320.3,277,321,270.5L321,270.5z M288.9,266.3 c-5.9-2.8-12.6-9.4-15.9-15.8c-1.2-2.3-2.4-4.3-2.7-4.3c-2.2,1-4.4,2.2-6.5,3.5c-14,8-27.4,11.5-38.2,10.2 c-15.1-1.9-24.5-9.4-28-22.3c-1.1-4,0-4.1-14,1.5c-5.2,2.1-9.7,3.8-9.8,3.6c-0.4-0.4,2.3-7.2,3.3-8.2c0.5-0.5,4.7-2.2,9.3-3.9 c3.2-1.1,6.4-2.3,9.4-3.8c0.6-0.4,1-2.5,1-4.6c0-7.3,3.2-18.9,8.7-31.8l2.5-5.9L206,182c-4.1-5.4-5.4-10.6-8.1-31.7 c-2.3-18.1-3.8-25.8-5.7-28.7s-2.9-1.1-5.1,7.9c-3.8,16-10.2,23.1-19.1,21.4l-2.2-0.4l-0.9,14.1c-1.4,22.1-4.4,30.9-13,38.8 c-28.2,25.7-66.7,43-96.1,43c-14.3,0-29.4-5.6-38.1-14.2c-9.6-9.4-16.4-23.7-17.4-36.6c-0.6-7.7,0.6-21,2.7-30 c1.4-5.8,1.4-6.2,0.1-7.8c-4.5-5.6-3.9-23.3,1.3-40.2c2.2-7,10.5-25.1,11.2-24.4c0.2,0.2-1.2,5.8-3.2,12.3 c-4.6,15-6.1,22.1-6.1,29.2c0,7.9,1.8,11.7,6.1,13.1c2.2,0.7,6.7-3.1,9.6-8.1c1.1-1.9,2.2-3.4,2.4-3.1c0.6,0.6-2.6,12.4-4.5,16.6 c-2.7,6-7.3,9.5-11.3,8.6c-2.3-0.5-5.3,14.1-4.4,22.1c2,18.4,14.7,33.9,32.4,39.6c26.4,8.2,65.8-2.3,100.2-26.7 c9.5-6.7,20.2-16.4,22-19.9c2.3-4.5-1.4-21-8.2-35.9l-3-6.6l2.3-8.5c1.6-6,2.7-8.5,3.5-8.5c0.7,0,2.3,2.1,3.7,4.8 c3,5.7,5.4,7.7,10.5,8.5c11,1.8,17.4-5.6,19-22.1c0.8-8.2,1.2-9.9,2.9-10.8c5.9-3.1,10.7,8.8,14.7,36.4c3.6,24.9,5.7,30.5,12.6,33.8 c7.3,3.5,18.4,1.6,22.5-4c1.4-1.9,1.4-2.5,0.6-5.2c-1.4-3.4-3-6.7-4.9-9.9l-3.9-6.8l0.7-4.9c0.8-5.7,3.6-12.6,4.8-11.9 c1.7,1.1,7.3,11.7,8.4,16.1c1.5,5.9,1.6,23.9,0.1,29.5c-2.8,10.6-8.5,17.1-16.3,18.9c-3.4,0.8-13.1-0.4-16.1-2l-2.3-1.2l-3.1,8.6 c-2.9,8-3.1,9.2-3.1,17.5c0,6,0.3,9.3,1,9.9s5.1-0.6,20-6.1c29.7-11,33.8-12.4,33.8-11.6c-0.2,1.2-0.6,2.4-1.1,3.5 c-0.9,2-1.9,2.9-4.6,3.9c-5,1.7-44.2,16.8-44.6,17.1c-0.9,0.7,5.5,6.1,9.5,8.1c6.3,3,16.5,3.5,24.8,1.1c6.7-1.9,22.4-9.4,22.4-10.7 c0-0.4-0.9-5.9-2-12.1C258,183.9,252,111.9,251.9,75.5c0.1-5.1-0.4-10.2-1.3-15.2c-0.7-2.8-1.1-5.6-1.3-8.4c0.1-3.2,5-16.1,6.3-16.6 c1.3-0.4,17.1,40.6,17.1,44.8c0,2.3-1.9,1.6-5.2-1.8c-1.7-1.8-3.5-3.2-3.9-3.2c-1.4,0,0.7,47.3,4,88.4c2,25.1,5,47,7.8,56.7 c0.7,2.6,1.1,3,2.5,2.6c8.5-2.5,17.3-3.4,22.8-2.3c3.7,0.7,9.2,6,11.4,10.9c1.7,3.7,1.9,5.4,1.9,14.2c0,9.4-0.1,10.3-2.3,14.6 c-3.1,6.3-6.5,8.6-12.9,8.6C295.3,268.8,291.9,267.9,288.9,266.3L288.9,266.3z M302.6,248.2c3-1.1,0.2-5.7-4.6-7.5 c-2.5-0.9-8.6-1-11.8-0.1l-2,0.6l2.2,2.2C290.6,247.5,298.4,249.8,302.6,248.2L302.6,248.2z M89.9,262.1c2.6-1.4,5.3-2.7,8-3.8 c10-4.1,32.4-14.5,36.8-17.1c12.8-7.5,17.8-12,22.4-20.3c2.2-4,4.5-7.1,5.4-7.3s1.5-0.7,1.5-1c0.7-1.3,1.6-2.5,2.7-3.5 c3.4-3.6,6.1-3.7,9.3-0.6c3.4,3.4,4.5,8,3.4,13.5c-1.7,8.2-4.9,9.3-12.8,4.3c-1.9-1.2-3.8-2.5-5.4-4.1c-0.4-0.6-1.7,1.3-3.4,4.9 c-4.6,9.6-14.5,18.1-29.8,25.6c-5.4,2.7-25.1,8-36.4,9.9C88.6,263.2,88.5,263.2,89.9,262.1L89.9,262.1z M175.9,220.8 c0-1.8-3.7-6.5-5.1-6.5c-1,0.2-2,0.7-2.8,1.3l-1.9,1.3l4.3,2.7C175.3,222.7,175.9,222.9,175.9,220.8L175.9,220.8z M181.1,204.3 c-3.5-1.9-6.8-3.6-7.2-3.8c-1-0.4,1.1-4.2,6.2-11.2c2.2-3,3.8-5.5,3.7-5.7s-2.7-1.6-5.7-3.2s-5.4-3.2-5.4-3.6c0-0.8,7.7-12,9.8-14.3 c0.7-0.8,1.5-1.4,2.5-1.8c1.5,0,9.5,4,12.3,6.1l2.6,2l-1.9,2.5c-1.1,1.4-3.6,4.9-5.6,7.8l-3.7,5.3l5.3,2.7c2.1,1,4.1,2.2,6,3.5 c0.8,0.9-10.3,17.1-11.6,17.1C185.9,206.8,183.5,205.6,181.1,204.3L181.1,204.3z M84.7,157l-7.9-5.7l-1.9-1.4l3.6-7.8 c2-4.3,3.9-7.8,4.1-7.8c0.5,0,12.6,7.9,14.9,9.8c0.8,0.8,1.3,1.8,1.4,2.9c0,2.4-6.3,14.4-7.5,14.4C91.1,161.4,88,159.4,84.7,157 L84.7,157z M35.1,132c0-0.4,7.8-5.3,17.2-10.9c15.4-9.2,29.8-19.4,30.5-21.6c0.1-0.4-1.2-1.7-3-2.8C72.3,92,72.5,84,80.4,76.7 c5.9-5.4,10.5-5.6,12.3-0.4c1,2.9,1,4.1-0.1,9.5L91.4,92l2.7,2c3.1,2.4,3.3,4.1,0.9,8.3l-1.7,3.1l-2.8-2.3l-2.8-2.3l-5.7,5.9 c-8.7,8.8-19.2,15.6-30.7,20c-1.6,0.6-6,2.2-9.6,3.5S35.1,132.3,35.1,132L35.1,132z M87.9,86.8c0-4.5-1.4-6.4-4.2-5.7 c-2.6,0.7-4.1,2.3-3.5,3.9c0.4,1.1,5.9,5.1,7.1,5.2C87.7,90.2,87.9,88.7,87.9,86.8z M219.7,106.5c-4.3-2.1-7.8-4-7.8-4.3 c1.6-2.9,3.3-5.7,5.2-8.4c1.8-2.6,3.5-5.2,5-8c-0.1-0.1-2.6-1.3-5.6-2.6c-3.7-1.7-5.4-2.8-5.4-3.8c0-2.1,9.8-16.2,11.2-16.2 s11.6,4.8,13.8,6.5c1.3,1,1,1.7-3.9,9c-2.9,4.3-5.1,8-5,8.1s2.9,1.6,6.1,3.2c3.6,1.9,5.6,3.4,5.3,3.9c-1,1.7-10.1,15.3-10.6,15.9 C227.7,110.1,224,108.6,219.7,106.5L219.7,106.5z M52.7,70.9c-1.1-4.9-5.9-17.1-7.5-19.2c-0.6-1-1.9-1.4-3-0.8 c-2.6,0.9-3.9,0.5-6.5-1.9c-2.7-2.6-2.7-4.3-0.1-8.7c2.3-3.9,4.1-4.4,8-2C48,40.9,52,48.8,54.8,60.3l0.6,2.4l0.6-2.4 c0.3-1.3,1.4-5.8,2.4-10c2.2-9.4,3.4-12.6,6.1-15.4c3.6-3.7,7.4-2.8,10.2,2.6c0.9,1.6,1,3.4,0.3,5.1c-1.1,4-2,4.2-4.7,1.4 s-3.3-3-5-1.1c-2.2,2.6-3,4.8-5.5,16c-2.4,10.8-4.3,16.2-5.6,16.2C54,75.1,53.2,73.2,52.7,70.9L52.7,70.9z M107.9,72.2 c0.3-1.5,0.8-2.9,1.3-4.3l1.3-3.7l21.7-8.1l53.2-19.8c17.3-6.5,31.7-11.5,31.9-11.3s-0.2,1.9-1,3.6c-1.2,2.7-2.1,3.4-6.7,5.1 C142.1,59,120.9,67.2,108.9,72.4C108.4,72.7,107.9,72.6,107.9,72.2L107.9,72.2z M269.9,47.8c2.1-6.9,2.2-7,16.8-12.3l41.1-15.2 c15.1-5.6,27.6-10,27.8-9.9c-0.2,1.2-0.6,2.4-1.2,3.4c-1.4,3.1-1.6,3.2-15,8.3c-10,3.8-58.4,22.8-69,27.1 C269.6,49.6,269.5,49.3,269.9,47.8L269.9,47.8z M211.9,43.4c0.9-1.1,6.7-4.5,24.8-14.3c9.5-5.2,12-7.2,10.7-8.5s-11.9-2.4-24.9-2.3 c-6.7,0.1-12.4,0-12.6-0.2s1.4-3.4,3.5-7.1c5.2-9,7.4-10.3,19.2-10.9c15.8-0.8,31.5,1.8,32.6,5.4c1.3,4.2-14.7,25.4-22.1,29.2 c-2.9,1.5-14.1,5.1-24.6,7.9C212.7,44.2,211.2,44.3,211.9,43.4L211.9,43.4z"/>
</svg>