<svg xmlns="http://www.w3.org/2000/svg" width="312" height="408">
<path d="M265,383c0-20-0.5-32.6-2.2-55.8c-3.7-51.3-6.1-86.2-6.9-101.2c-0.5-8.9-1.2-16-2.1-18.7c-1.2-4.1-1.2-4.4,0.5-9.6 c2.1-6.2,4.6-12.2,5.2-12.2c1.4,0,17.1,41.7,17.1,45.3c0,2-2.4,1.1-5.9-2.1c-1.9-1.8-3.6-3-3.8-2.8s1.2,21.3,3,47 c5.8,80.6,6.2,87.8,5.2,98.6c-1.1,11.8-2.7,19.5-5.8,28C265,411.4,265,411.4,265,383L265,383z M88.8,400.7 c-16.3-2-28-17.6-28.1-37.3c0-3.2-0.3-5.8-0.8-5.8c-1.5,0.4-3,0.9-4.5,1.6l-3.8,1.6l0.5-1.9c1.3-5.1,2.9-7.6,5.2-8.1 c3.1-0.7,3.8-1.6,4.4-6.4c1.3-9.3,8.4-31.6,10.1-31.6c1,0,1.1-0.1-2.4,13.6c-1.7,6.8-3.4,14.5-3.7,17l-0.6,4.6l5.1-1.9 c42.1-15.7,66.4-24.6,66.8-24.2s-0.2,1.8-1,3.5c-1.5,3-1.9,3.2-19.6,9.9c-34.5,13.1-50.5,19.5-50.9,20.5c-0.2,0.5,0.4,3.5,1.3,6.5 c5.9,19.3,28.8,24.1,54.9,11.4c15-7.3,31-19,46.1-33.8c9.3-9.1,11.9-12.9,11.9-17c0-5.2-0.5-5.6-7-4.6c-11.4,1.8-22.7,0.7-28.6-2.7 c-2.1-1.3-3.8-3.1-5.1-5.2c-1.7-3-1.9-4.1-1.5-10.4c0.2-6.9,2.6-13.5,6.9-18.9c5.1-6.9,13.8-10.8,20.2-9c4.6,1.2,13.1,9.9,17.9,18.2 c2.4,4.1,4.3,6.6,5.2,6.6c1.8,0,10.3-5.1,13.5-8.2c3.7-3.6,6.3-8.2,7.4-13.2c1-4.6,0.5-13.7-4.1-77.3c-1.3-18-2.6-37.4-2.9-43 s-0.8-10.2-1-10.2s-1.6,1.7-3,3.8c-4.5,6.8-11.2,14.2-15.1,16.8c-3.5,2-7.2,3.7-11.1,4.9c-9.1,3-22.3,6.5-22.8,6.1s7.1-5.2,21-12.7 c15.9-8.7,16.3-8.9,14.8-10.5c-1.8-1.8-15.7-3.1-27.4-2.5c-5.6,0.3-10.2,0.2-10.2-0.1c1.1-2.6,2.4-5,3.9-7.4 c5.7-9.9,6.8-10.4,24.5-10.4c12.2,0,19.1,0.6,23.9,2.1c1.4,0.4,1.5,0.1,1.1-6.2c-0.3-4-0.9-8-1.8-11.9l-1.4-5.2l3.1-8.2 c1.7-4.5,3.3-8.2,3.7-8.2c1.1,0,3.5,5.6,10.1,23.2c6.5,17.3,7.8,22.4,6,23c-0.5,0.2-2.6-1.3-4.5-3.3s-3.8-3.4-4-3.1 s-0.3,1.8-0.1,3.4c0.3,2.5,4.3,58.1,6.8,94.3c0.4,6.8,0.8,16.1,0.8,20.9c0,27.2-11,51.3-27.4,60c-3.5,1.8-3.6,2.1-4.2,6.3 c-0.7,5.8-4.4,16.5-7.5,22c-6.7,11.7-30.8,34.7-47.7,45.5C115.7,398.2,101.9,402.4,88.8,400.7L88.8,400.7z M168.6,299.2 c1.6-0.9-5.2-7.5-9.1-8.8c-5.1-1.7-12.4,0.6-12.4,3.9c0,2.1,3.2,4.8,6.8,5.7C157.2,300.7,166.6,300.3,168.6,299.2L168.6,299.2z M195.7,397.2c4.8-5.8,9.9-12.7,10.6-14.5c1.6-4.2-1.9-7.1-6.2-5.2c-1.1,0.5-2.2,0.8-2.5,0.5c-0.8-0.8,2.4-7.7,4.1-8.9 c2.3-1.6,7.3-1.5,8.7,0.1c2,2.4,1.3,9.7-1.3,14.6c-2.8,5.1-9.5,12.6-13.3,14.8l-2.7,1.6L195.7,397.2z M232.9,331.2 c-6.5-2.6-5.3-20.5,2.3-36.5c1.4-2.8,2.6-5,2.8-4.8s-0.4,2.6-1.3,5.4c-2.9,8.8-4.1,14.8-4.1,19.6c0,5.1,1.5,8.3,3.9,8.3 c1.4,0,4.8-3.2,6.4-6c1.5-2.6,1.1,0.4-0.7,6.2C240.2,330.2,237.1,332.8,232.9,331.2L232.9,331.2z M32,314.4c-3.4-1-6.8-2.2-10-3.8 c-8.8-4.7-17.1-15.9-20.1-27c-1-4.6-1.6-9.3-1.8-14c-1-18.1,3-38.1,10.5-53.2c3.9-7.9,4.3-8.9,3.1-9.6c-2.9-1.8-5-4.7-5.8-8 c-2-8.1-0.5-23.6,3.5-36c2.2-6.7,10.6-24.8,11.2-24.2c0.2,0.2-1,5-2.8,10.7c-6.3,20.7-7.9,29.2-6.5,35.9c1,5,2.7,7.4,5.7,8.1 c2.6,0.6,6.3-2.3,9.6-7.6c2-3.2,2.3-3.4,2.3-1.6c0,6.5-5.7,19.5-9.8,22.1c-2.2,1.4-3.3,3.3-6.5,11.5C2.4,248.9,3.7,269.8,19,284.8 c6.2,6.1,11.8,8.8,21.7,10.4c19.8,3.3,51.6-6.8,87.2-27.6c11.7-6.8,19.2-12.2,19.2-13.6c0-2.4-8.4-5.5-37.5-13.5 c-10.3-2.9-19.2-5.7-19.9-6.4c-1-1-1-1.9,0.2-7.4c0.8-3.4,1.9-6.9,2.6-7.6c1.7-1.9,6.5-3.4,20.2-6.2c15.3-3.2,17.2-3.8,19.8-6 l2.2-1.9l0.3-16.4c0.3-19.3-3.1-77.4-4.6-77.4c-0.3,0-6.6,2.5-14.1,5.5s-13.7,5.3-13.9,5.2s0.4-2.1,1.2-4.3 c1.6-4.5,0.2-3.8,18.2-10.1l8.7-3.1l-0.5-7.2c-0.2-4-1-15.1-1.7-24.8s-1.6-24.3-2-32.4c-0.5-9.9-1.2-16-2.1-18.5 c-1.3-3.6-1.2-3.9,0.7-9.6c2.7-8,4.4-11.9,5.2-11.9c1.1,0,15.5,37.7,16.5,43.4c0.5,2.5,0.3,3-0.8,3c-0.8,0-2.8-1.5-4.6-3.2 s-3.4-3-3.6-2.8c-0.4,0.4,2.8,50,3.6,56.3c0.4,2.8,0.7,3.3,1.8,2.9c12.9-5.1,44.4-16.3,44.8-16s-0.2,1.8-1.1,3.4 c-1.5,2.9-2.2,3.2-22.8,11l-21.2,8.1l-0.2,2.6c-0.1,1.4,0.3,11.3,1,21.9c2.2,33.8,1.4,62.8-2,75.7c-1.3,4.4-2.9,8.6-4.8,12.7 c-3.6,7.6-3.8,7.2,3.8,9.7c14.2,4.8,18.1,12.1,13.6,25.1c-4.3,12.2-12.2,21.4-26.4,30.8c-16.1,10.6-43.8,23.4-62,28.5 C54.9,316.1,40.5,316.6,32,314.4L32,314.4z M57.9,274.9c-4.9-4.9-3-20.7,4.4-36.1c1.4-2.9,2.6-5.2,2.8-5s-1,4.4-2.5,9.5 c-3.5,11.4-4.2,18.6-2.4,22.2c2.1,4.1,5.8,3.1,9.2-2.6c1.7-2.9,0.2,5-1.7,8.7C64.8,277.1,61.4,278.4,57.9,274.9L57.9,274.9z M170.8,243.9c-5.5-3.2-4.6-18.6,1.9-33.7c1.1-2.7,2.4-5.4,3.8-7.9c0.4-0.4-0.5,3.5-2,8.7c-3.4,11.6-4.1,18.9-2.3,22.5 c2.1,4,4.8,3.3,8.6-2.3c1.8-2.6,1.8-0.8,0.2,4.8c-1.4,4.6-4.9,8.8-7.3,8.8C172.8,244.7,171.8,244.4,170.8,243.9L170.8,243.9z M225.8,173.9c0.5-1.6,1.1-3.2,1.9-4.6c1.3-2.2,4.7-3.6,42-17.5c22.4-8.3,40.9-14.8,41.1-14.6s-0.2,1.8-1.1,3.4 c-1.5,2.7-2.4,3.2-14,7.7c-14.7,5.6-63.1,24.6-67.5,26.5l-3.1,1.3L225.8,173.9z M61.3,165.6c-2.5-1.9-3.8-6.9-3.8-14 c0-3.9-0.3-5.4-1.2-5.7c-2-0.8-1.4-4.8,1.1-7.6c3.6-4.1,4.4-2.7,3.8,6.4c-0.4,6.4-0.3,8.2,0.9,10.5c1.9,3.7,5.1,4.2,8.2,1.2 s3.4-5.2,1.9-12.5c-1.1-5.2-1.1-6.8-0.3-8.7c0.5-1.3,1.2-2.3,1.6-2.3c1,0,2.3,4.6,3.5,12.8c1,6.5,1.4,7.8,3.2,9.4 c2.6,2.2,3.7,2.3,6,0.4L88,154l-2.9-6c-3.4-7-3.8-12.3-1.3-15.3l1.6-1.9v2.1c0.5,3,1.3,5.9,2.4,8.7c2.8,7.6,3.1,13.2,0.8,18.1 c-2.4,5.2-6.1,6.5-10,3.4c-1.3-1-2.3-2.3-3-3.8c-0.8-2.1-0.8-2.1-2.8,1.8c-1.4,2.7-2.8,4.2-4.7,5C64.6,167.6,63.6,167.5,61.3,165.6 L61.3,165.6z M24.7,102.1c0.6-0.6,6.9-4.4,14-8.5s15.6-9.4,19-11.7c6.1-4.2,14.2-10.7,14.2-11.5c-0.9-0.9-1.9-1.7-3.1-2.3 c-6.3-3.9-7.5-10-3.1-16.5c3.1-4.7,7.9-7.6,11.8-7.3c2.4,0.2,2.9,0.6,3.9,3.2s1,3.8-0.1,9.2L80,62.8l2.7,2.4 c1.5,1.3,2.7,2.9,2.7,3.4c0,1.2-3.1,7.4-3.7,7.4c-1.1-0.5-2.1-1.2-3-2l-2.6-2l-5.9,6c-6.7,6.6-14.4,12.2-22.8,16.6 c-4.5,2.2-21.5,8.6-23,8.6C23.8,103.2,23.9,102.9,24.7,102.1z M76.7,57.9c0-5.5-2.5-7.3-6.2-4.7c-2.5,1.8-2.2,3.2,1.2,5.5 C75.8,61.5,76.7,61.4,76.7,57.9L76.7,57.9z"/>
</svg>