<svg xmlns="http://www.w3.org/2000/svg" width="436" height="396">
<path d="M322.9,395c-7-1.3-13.9-3.6-20.2-6.8c-5.2-2.9-13-10.8-16.2-16.3c-5.4-9.5-9-25.2-9-39.4c0-4.1-0.3-7-0.8-7 c-0.9,0-31,11.6-54,20.7c-8.8,3.5-16.1,6.2-16.3,6c-0.4-0.4,1.3-6,2.2-7.4c0.5-0.7,11.1-4.8,53.5-20.4c15.1-5.5,15.4-5.7,15.7-8.1 c1.5-10.6,3.3-20.1,4.9-25.5c1.3-4.5,1.6-6.4,0.9-6.6s-2.8-1-5.1-1.9l-4.2-1.5l-0.4,2.5c-0.2,1.4-0.5,4.5-0.7,6.9 c-0.5,6.3-2.6,11.2-4.8,11.2c-4.7,0-17.1-10-20.7-16.5c-1.9-3.4-3.7-10.4-5.1-19.7c-0.2-1.7-0.8-2.9-1.1-2.8c-2.4,2.4-4.7,5-6.8,7.7 c-9.1,11-14.6,14.1-25.4,13.9c-6.4-0.1-10.8-1.6-13.6-4.7c-2.1-2.3-4.6-8.4-4.6-11.1c0-3.4-0.8-6-1.9-6c-0.5,0-5.2,4.5-10.5,9.9 c-8.7,8.9-10.4,10.3-16.8,13.4l-7.1,3.5h-9.7c-8.9,0-10-0.2-13.8-2.2c-9.3-4.9-13.1-13.1-16.3-35c-0.9-6.4-1.9-12.1-2.1-12.8 s-1,1-1.8,3.8c-2.2,7.8-6.1,15-11.5,21.1c-13.2,15.4-29.5,28-47.9,36.7c-11.3,5.4-19,7.4-29.1,7.5c-6.9,0.1-8.5-0.1-11.4-1.7 c-9.2-4.9-12.9-17.8-10.7-37c1.2-10.3,3.8-20.4,7.5-30.1l2.6-6.4l-1.9-1.4c-3.5-2.7-4.5-6.4-4.4-16.8c0.1-10.1,1.2-17,4.7-27.3 c2.2-6.5,9.9-22.3,10.5-21.7c0.2,0.2-0.7,3.9-2.1,8.2c-4.4,13.8-6.6,23-7,30c-0.5,8,0.7,12.2,3.9,14.6s6.3,0.8,10.4-5.5 c1.8-2.8,3.5-4.9,3.7-4.7c0.7,0.7-2.5,12.1-4.8,17.1c-2.5,5.4-5.8,8.1-9.5,8.1c-2,0-2.2,0.4-5,11.8c-3.5,13.9-4.6,20.4-4.5,27 c0,7.5,3.4,13.4,9,15.5c4,1.5,14.9,1,23.3-1.1c21.9-5.5,50.6-25.5,66-45.9c4.1-5.4,4.5-6.3,4.8-10.8c0.3-5.4-1.1-14.4-4.7-28.8 c-2.8-11-6.5-21.3-14.4-39.4l-5.7-13.1l1.3-8.6c1.6-9.9,1.8-10.7,3.2-10.7c1.2,0,7.8,10.1,11.8,18c9.4,18.8,13.8,35.6,23,87 c5.5,31,8,34.6,23.6,34.6c15,0,22.4-3.7,38.6-19.1c5.7-5.4,10.4-9.3,11.4-9.3c1.4,0,1.6,0.5,1.4,6.6c-0.2,7.7,1.4,11.8,5.8,14.8 c4.9,3.3,16.7,2,24.3-2.8c4.7-2.9,8.7-6.8,15.5-15.4c3.3-4.2,6.4-7.9,6.9-8.2c1.9-1.3,3-0.3,6,6.1c3.6,7.6,8.1,12.2,16.8,17.2 c4.8,2.8,17.4,8.1,19.1,8.1c0.4,0,2-1.9,3.5-4.2c5.1-7.5,11.1-14.3,18-20.3c7.2-6.3,21.3-16,28.9-19.8c2.4-1.2,4.1-2.3,4-2.4 s-16.3-0.7-35.9-1.2s-35.9-1.3-36.3-1.6s0.6-4.5,2.4-9.6c3.7-10.6,3-10.1,20.3-15.1c16.6-4.8,27.9-9,30.5-11.4 c2.3-2.1,2.3-2.1,2.4-13.2c0.2-15.5-0.1-26.1-1-38.7c-2-27.8-4.8-72.2-5.5-84.8c-0.5-9.3-1.2-15.4-2.1-18.2 c-1.3-4.1-1.3-4.3,0.5-9.6c2.8-8.4,4.7-12.5,5.6-12c1.4,0.8,15.3,37.9,16.3,43.4c0.7,3.7-1.4,3.4-5.6-0.8l-3.4-3.4v3.2 c0,1.7,1.1,18.3,2.4,36.8c3.9,53.7,3.9,72.8,0.3,90.8c-1.3,6.4-5.5,16.3-8.8,20.6c-1.4,1.9-1.7,2.7-1,2.9c0.6,0.2,10.7,0.5,22.5,0.8 l21.5,0.4l-0.5-7.4c-4.7-67.7-7-102-7.6-113.8c-0.5-8.7-1.3-16-2-18.6c-1.2-4.1-1.2-4.3,0.8-10.3c1-3.1,2.2-6.1,3.6-9l1.5-2.9 l2.1,4.8c1.2,2.6,4.8,11.8,8,20.4c8.5,22.6,8.6,25.7,1.2,18.7l-4-3.8v3.5c0,1.9,1.6,26,3.6,53.5s3.8,53.3,4.1,57.4l0.5,7.4H398 c14.2,0,15.5,0.1,15.5,1.4c0,1.9-4.9,15.6-6,16.8c-0.8,0.9-5.6,2.3-22.1,6.6c-2.8,0.7-2.9,0.9-3.5,5.4c-1.2,10.3-7.1,29.7-9.4,31.1 c-0.6,0.4-0.7-2.2-0.3-8.6c0.7-12,0.8-23,0.2-23.6s-15.2,4.3-25.5,8.9c-5.1,2.3-13.1,6.4-17.9,9.3c-8.8,5.3-21.9,15.5-25.2,19.6 l-1.8,2.3l2.7,0.6c5.1,1.1,28.3,2.2,45.5,2.3c31.5,0,49.2,2,57,6.2c8.1,4.6,14,12.3,16.3,21.3c1.6,5.9,1.4,18.8-0.4,27.5 c-1.7,8.2-6.6,19.5-12.1,27.5c-4.8,7.1-17.1,19.5-24.5,24.9c-11.4,8.2-23.1,13.3-35.3,15.4C344,395.9,330.4,396.1,322.9,395 L322.9,395z M352,374.7c20.1-3.5,40.1-14.7,55.4-30.9c11-11.6,14.3-20.3,11.3-29.7c-2.8-8.7-10.9-16.5-20.7-19.7 c-7.6-2.5-16.9-3.3-49.7-4c-20.5-0.5-33.8-1.2-40.8-2.1c-15.7-2.1-14.9-2.2-16.6,2.5c-3.5,9.4-7.3,25.2-6,25.2 c1.3-0.3,2.5-0.7,3.8-1.2c3.3-1.2,3.3-1.2,2.8,0.6c-1,3.2-2.9,5.5-5.3,6.4l-2.5,0.9l0.5,7.7c0.9,14.2,4.4,23.1,12.6,31.3 c7.6,7.6,16.2,11.5,30.1,13.5C335.1,376.1,343.6,376,352,374.7L352,374.7z M339.4,352.7c-3.3-2-4.2-3.9-4.2-8.4 c0-5.4,2.6-10,10.5-18.5c3.9-4.2,7.1-8,7.1-8.4c0-2-10.8-3.1-14.9-1.6c-3,1.1-3.2,0.6-1.1-3.1c2.5-4.5,6-6,12.9-5.5 c8.8,0.6,11.1,3.2,8.4,9.6c-0.6,1.4-4.8,6.5-9.3,11.4c-9.5,10.2-11,12.6-9.8,15.3c1.8,4,14.6,4.5,27.6,1.1c3.5-0.9,6.7-1.5,7.1-1.4 c1.1,0.4-4.8,4.9-9.5,7.3C356.3,354.6,344.1,355.6,339.4,352.7L339.4,352.7z M265.9,278.3c-2.4-4.6-10.7-11.6-12.1-10.2 c-1.7,1.7,4.6,10.8,9.7,13.8c3.1,1.8,3.2,1.9,3.5,0.4C266.9,280.9,266.6,279.5,265.9,278.3L265.9,278.3z M169.9,324.5 c-1.8-1.4-5.2-3.7-7.6-5.3s-4.5-2.9-4.6-3c-0.7-0.5,7.1-15.6,8-15.6c1.2,0,11.1,6.4,14,9c1,0.9,1.9,1.5,2.1,1.3s1.6-3,3.2-6.2 l2.9-5.9l3.8,2.2c5.5,3.2,12.2,8.3,12.7,9.6c0.4,1.1-4.1,11.4-6.3,14.3c-1.1,1.5-1.5,1.3-8.6-3.8c-4.1-2.9-7.8-5.3-8.1-5.3 s-1.9,2.5-3.5,5.6s-3.3,5.6-3.8,5.6S171.6,325.9,169.9,324.5L169.9,324.5z M101,313.8c2.6-3,4.9-6.2,6.9-9.6 c1.6-3.3,1.6-3.7,0.4-5.5c-1.5-2.3-3.1-2.5-6.3-0.8c-2,1-2.2,1-2.2-0.1c0-2.5,3.2-8,5.2-8.9c7.7-3.5,11.6,3.5,7.2,13.2 c-2.8,6.1-7.6,12.2-12,15.4c-1.2,1-2.6,1.8-4,2.5C96.1,319.9,98.2,317.1,101,313.8L101,313.8z M21.5,253.2c0.6-0.6,7.5-4.8,15.2-9.3 c17.9-10.5,32-20.4,32-22.5c0-0.4-1.5-1.6-3.2-2.8c-1.8-1.2-3.3-2.7-4.5-4.5c-2.8-5.5,1.7-14.6,8.9-18.1c7.9-3.8,10.9,1.1,8.2,13.8 c-0.8,4.1-0.8,4.8,0.3,5.4c1.1,0.7,2.2,1.4,3.2,2.2c1.7,1.4,1.8,1.7,0.9,3.8c-0.6,1.4-1.4,2.8-2.2,4.1l-1.2,1.8l-2.8-2.1l-2.8-2.1 l-6.1,6.1c-10,10.1-18.8,15.3-37,22.2C21.4,254.5,19.6,254.9,21.5,253.2L21.5,253.2z M73.8,209.8c0.7-2.7-1.1-6.3-3.2-6.6 c-1.3,0-2.6,0.5-3.6,1.3c-1.7,1.4-1.8,1.7-0.7,3c1.2,1.4,5.5,4.4,6.5,4.4C73,211.9,73.5,211,73.8,209.8L73.8,209.8z M218.8,219.5 c-3.3-3.3-3.6-12.7-0.9-23.2c1.1-4.2,7.5-19.1,8-18.6c-0.7,3.2-1.6,6.3-2.6,9.4c-1.6,5-2.7,10.1-3.2,15.3c-0.4,5.9-0.3,6.2,1.7,8.3 s2.3,2,3.9,1c1.4-1.1,2.6-2.3,3.6-3.8c1.4-2.1,1.8-2.3,1.8-1.1c0,3.2-2.6,10.1-4.4,12C224.5,221,220.7,221.4,218.8,219.5 L218.8,219.5z M171.2,192.7c-0.2-8.8-1.5-19.1-4.5-34.4c-3.1-16.1-3.2-20.2-0.4-25c1.5-2.6,7.1-6.2,9.6-6.2c1.7,0,0.7-1.4-1.7-2.4 s-2.6-1-5.2,2c-3,3.4-3.2,2.9-1.8-3.7c0.5-2.5,1.5-4.9,2.9-7l2-2.7l-2.1-6.3c-1.2-3.7-2.7-7.4-4.4-10.9c-2.2-4.2-2.3-4.4-5.2-4.2 c-1.9,0.2-3.9-0.3-5.4-1.5c-3.4-2.4-3.7-4.8-1.2-9.1c2.7-4.6,5.3-4.9,9.5-1.2c4,3.5,6.6,8.5,8.8,16.5c1.5,5.5,2,6.6,2.4,5 c0.2-1.1,1.4-5.9,2.5-10.6c2.7-11.6,5-15.9,9.1-17.5c5.3-2,10.3,7.9,6.4,12.7c-0.8,0.9-1.4,0.7-3.6-1.5s-3-2.4-4.1-1.8 c-2,1.3-3.9,5.6-5.4,12.3c-0.7,3.3-2,8.8-2.9,12.3c-0.6,2.1-1.1,4.2-1.3,6.4c6.3,2.7,13.4,9,13.4,11.9c-0.3,1.7-0.9,3.4-1.8,4.9 c-1.6,2.9-2.3,3.3-8.5,5c-3.2,0.9-6.3,2.1-9.2,3.6l-2.7,1.9c0.2,1.3,0.5,2.5,1,3.7c0.7,1.9,2.2,8,3.3,13.5c1.7,8.2,2.1,12.2,2.1,22 c0,6.6-0.4,13.3-0.8,14.8C171.2,197.7,171.2,197.5,171.2,192.7L171.2,192.7z M229.1,150.2c2-6.7,2.6-7.2,13.6-11.2 c5.7-2.1,24-8.8,40.7-15s30.5-11.1,30.6-11c0.5,0.5-0.6,4-1.6,5.4c-0.5,0.7-9.2,4.4-19.4,8.3c-14,5.3-59,23-63.9,25.2 C228.8,151.9,228.8,151.2,229.1,150.2L229.1,150.2z M219.6,105.8c-5-5-2.6-23.2,5-37.6c1.4-2.6,2.3-4.1,2.1-3.2 c-2.7,8.5-6,22.2-6,24.9c0,4.4,1.1,7.2,3.2,8.3c1.4,0.8,2,0.5,4.2-1.8c1.3-1.3,2.5-2.7,3.5-4.2c1.4-2.3-1,7.9-2.6,10.8 C227,107,222.1,108.4,219.6,105.8L219.6,105.8z M261.1,64.8c0.9-0.9,5.4-3.7,10-6.2c19.8-10.9,24.4-13.7,24.6-14.9 c0.1-0.8-0.4-1.5-1.1-1.8c-3.1-1.2-18.1-2.1-26.9-1.6c-7.9,0.5-9.4,0.3-9.4-0.6c0-0.6,1.7-4,3.8-7.5c3.1-5.1,4.5-6.7,7.4-8.2 c3.5-1.8,4.1-1.9,19.6-1.5c13.5,0.3,16.6,0.6,20,1.9c3.8,1.5,4,1.7,3.9,4.4c-0.1,3.9-6.2,12.8-14.3,21.2c-5.2,5.3-7.3,6.8-11.2,8.3 c-4.6,1.7-20.5,6.4-25.6,7.6C259.5,66.4,259.5,66.4,261.1,64.8L261.1,64.8z M349.5,37.6c0.4-1.5,0.9-2.9,1.5-4.3 c1.5-3.5,1.7-3.6,9.8-6.6c4.5-1.7,22.7-8.4,40.3-14.9c29.8-11.1,34-12.5,34-11.5c0,1.3-2.9,6-3.9,6.5l-16.1,6.1 c-8.1,3.1-26.1,10.1-39.9,15.5s-25.2,9.9-25.4,9.9S349.5,37.9,349.5,37.6L349.5,37.6z"/>
</svg>