<svg xmlns="http://www.w3.org/2000/svg" width="451" height="442">
<path d="M356.9,0c-0.4,0.2-2.2,4-3.9,8.5l-3.1,8.2l1.6,6.5c1.2,5.1,1.8,10.4,1.6,15.7c0,35.7,5.9,108.6,11.2,138.9 c0.9,5.2,1.9,10.8,2.1,12.4l0.4,2.9l-6.7,3c-10.4,4.8-59,29.5-70.8,36c-16,8.9-15.8,8.6-18.3,15.1c-1.1,2.6-1.8,5.3-2.3,8.1 l-0.1,2.4l6.4,0.6c3.5,0.3,17.9,2.2,32,4.1s27.8,3.8,30.4,4.1c8.8,1,8.6,1.4-3.3,5.5s-37.6,13.6-51.2,19l-8.3,3.2v0.1 c-6.7,2.7-20.2,7.7-20.9,7.7c-0.5,0,1.3-2.5,3.9-5.6c8.2-9.8,11.3-17.5,11.3-28.2c0.1-3.1-0.5-6.3-2-9c-4-8.1-14.3-16.6-23.5-19.5 c-6-1.9-16.5-2.1-21.1-0.4c-15.3,5.5-29.8,23.2-50.6,61.9c-1.2,2.3-2.7,4.2-3.1,4.2c-1.7,0-9.1-8.4-13.5-15.3 c-2.4-3.8-5.7-7.9-7.3-9.1c-2.5-1.9-3.3-2.1-6.9-1.7c-5.4,0.6-11.9,4.2-20.5,11.3c-17.2,14.1-26,30-27.9,50.2 c-0.7,7.4,0.4,11.8,4.1,15.8c4.1,4.6,9.3,6.6,29.7,11.6c18.8,4.6,23.8,6.6,23.3,9c-0.7,3.4-22.5,17.6-41,26.5 c-43.2,21-73.7,23.2-90.4,6.8C2.6,395,2,372,16.3,338.5l2.3-5.5l4.3,0.3c3.7,0.2,4.7,0,6.9-1.9c3-2.5,5.3-7.4,7.4-15.5s1.9-9-1-4.4 c-4.9,7.7-7.9,9.7-11.9,7.6c-2.2-1.2-4-6.7-4-12.1c0-6.3,1.7-14.2,6.1-29c2-6.6,3.4-12.1,3.2-12.4c-0.7-0.7-9,17.4-11.2,24.5 c-4.2,13.5-5.5,30.2-2.8,37.2c0.9,2.2,0.6,3.1-3.6,10.8C3.3,354.6,0.1,368.5,0,389.4C0,405,0.6,409,4.8,417.9 c6.5,13.8,18.6,22,34.6,23.4c2.7,0.3,5.4,0.4,8.1,0.3c1.1-0.1,4.4-0.4,7.3-0.7c13-1.1,30.2-6.9,50.8-17.2 c14.4-7.2,24.6-13.6,35.1-22c13.2-10.6,17.3-17.4,17.8-30c0.3-6.8,0.1-8-1.6-11.2c-2.5-4.7-9-8-21.1-10.9 c-27-6.3-36.4-10.6-36.4-16.7c0-7.4,25.2-30.1,36.8-33.2c4-1.1,5.1-0.4,9.6,6.6c5.3,8.1,8.9,12.4,12.7,15l3.9,2.8 c-0.2,1.7-0.5,3.4-1,5c-2.7,10.3-0.8,12,3.2,2.9c2.3-5.3,2.5-5.6,4.4-4.9c5.1,1.9,13.7,3,23.1,3c25.4,0,50.6-4.8,74.2-14.1l10.3-4v0 c2-0.8,5.8-2.4,10.1-4.2c44.8-18.9,92.3-33.5,108.8-33.5c6.8,0,7.4-0.5,10.7-9.9c1.6-4.6,2.8-8.8,2.5-9.1s-5.6-1-11.9-1.2 c-17.9-0.8-55.1-5.5-76.6-9.8c-5.5-1.1-11-2-12.2-2s-2.2-0.3-2.2-0.6c0-2.4,55.8-29.7,65-31.8c1.5-0.4,2.1,0.2,3.8,3.6 c2.8,5.8,10.2,13.6,15.9,16.6c4.1,2.2,5.6,2.5,10.5,2.5c5.2,0,5.9-0.2,8.6-2.6c4.9-4.3,6.9-9.9,7-19.4c0.1-9.7-1.5-15.5-5.4-20.1 c-1.6-1.8-3.5-3.4-5.5-4.6c-3.9-1.8-13.1-1.7-21.3,0.4c-5.1,1.3-6.8,1.5-7.2,0.7c-1.8-2.9-5.5-27.5-7.5-49.2 c-1.5-16.1-4.5-63.4-4.5-70.5v-5l23.4-9.3c12.9-5.1,31.3-12.3,41-15.9c16.9-6.4,17.7-6.8,19.2-9.5c0.9-1.6,1.3-3.2,1-3.5 s-16.3,5.3-35.6,12.5l-40.6,15c-4.9,1.8-5.7,2.4-6.8,5.1c-0.7,1.7-1.5,3-1.9,3s-0.6-4.5-0.6-10.1v-10l3.6,3.3c3.7,3.4,6,4.2,6,2.1 C374,40.9,358.2-0.5,356.9,0L356.9,0z M425.1,59.8c-0.9,0-5.6,12.5-6.1,16.2c-0.2,1.9,0,3.8,0.5,5.6c0.5,1.5,1.5,11.3,2.1,21.8 s2.6,39.7,4.3,64.8c6,86.1,6.1,87.8,4.4,109.4c-0.5,5.8-0.5,5.9,1,4.1c1.9-2.1,5.9-14.2,7.9-23.5c2.6-12.1,2-33.8-2.9-99.9 c-2.3-31.8-4-58-3.8-58.3s1.9,1,3.7,2.8c4.3,4.4,6,4.4,5.3,0.1C440.7,97.5,426.3,59.8,425.1,59.8L425.1,59.8z M300.2,63.1 c-2.1,0-4.6,1.4-7.9,4.4c-4.2,3.8-5.6,6.5-5.6,10.9c0,4.1,1.7,6.7,6.1,9.4l3,1.8l-4,3.5c-5.4,4.8-14.9,11.2-31.4,20.9 c-7.6,4.5-13.8,8.3-13.8,8.5c0,0.8,1.9,0.2,12.7-3.9c16.2-6.2,28.3-13.8,35.9-22.6c2-2.4,4-4.3,4.3-4.3c1.1,0.5,2.2,1.2,3.1,2.1 c1.4,1.2,2.6,2,2.8,1.8c0.8-0.9,3.6-6.8,3.6-7.6c0-0.5-1.3-2-2.9-3.2c-2.8-2.2-2.9-2.4-2-5.5c0.6-2.7,0.9-5.4,0.9-8.2 c0-3.9-0.3-5.3-1.6-6.6C302.7,63.6,301.5,63.1,300.2,63.1L300.2,63.1z M296.6,71.8c2.4,0,3.9,2.1,3.6,5.7c-0.3,3.2-1.2,3.4-4.9,0.9 c-3.3-2.2-3.9-4.5-1.5-5.8C294.7,72.1,295.7,71.8,296.6,71.8L296.6,71.8z M398.5,83.2c-1,0.2-6.4,13.2-7.9,19.1 c-2.1,8.2-1.8,18.7,0.5,21.3c2.4,2.3,6.2,2.3,8.5-0.1c1.7-1.8,5.3-12.3,4.5-13.1c-0.2-0.2-1,0.7-1.7,2c-3.1,6-7.7,5.9-9.3-0.1 c-1-3.8,0.2-11,3.8-22.5C398,86.4,398.7,83.4,398.5,83.2C398.5,83.2,398.5,83.2,398.5,83.2L398.5,83.2z M213.5,142.2 c-11.3,0.1-12.7,1.7-17.3,9.4c-6,10-6.4,9.2,5.1,8.6c11.9-0.7,26.1,0.6,27.9,2.4c1.6,1.6,1.4,1.7-16.3,11.4 c-7.5,4.1-15.1,8.5-16.9,9.8s-2.8,2.3-2.4,2.3c1.7,0,25.7-7.1,29.4-8.8c5.1-2.2,13.1-10.4,19.5-19.9c5.3-7.9,5.8-9.6,3.6-11.5 c-3-2.6-7-3.3-23.1-3.6C219.2,142.3,216,142.2,213.5,142.2L213.5,142.2z M327.9,144.6c-0.9,0.2-6.1,12.7-7.5,18.2 c-1,4.2-1.5,8.6-1.5,12.9c0,5.9,0.3,7.3,1.7,9.1s2.2,2.1,4.6,1.9c4.2-0.4,6.2-3.6,8.5-13.9c0.5-2.1,0.3-2-1.9,1.3 c-1.4,2-3,3.9-3.7,4.2c-3.6,1.4-6.5-4.2-5.6-10.9c0.8-4.5,1.9-8.9,3.2-13.3C327,149.2,328.1,144.8,327.9,144.6 C327.9,144.6,327.9,144.6,327.9,144.6L327.9,144.6z M260.1,171.3c-0.7,0.3-5.8,11.5-7.4,16.5c-1,3.2-1.5,6.9-1.5,13.3 c0,7.7,0.2,9.1,1.5,10.6c2.3,2.3,6,2.2,8.3-0.1c0,0,0,0,0.1-0.1c1.8-1.9,3.5-6.2,4.4-10.8c0.6-3.2,0.1-3.3-1.5-0.2 c-2.9,5.6-7.4,5.8-9.2,0.3c-1.3-3.8-0.6-8.7,2.9-20.1C259.2,175.7,260.3,171.4,260.1,171.3C260.1,171.3,260.1,171.3,260.1,171.3 L260.1,171.3z M105.3,173c-0.6,0-1.3,0.2-1.9,0.4c-6.2,2-11.8,9.4-11.8,15.4c0,3.3,2,6.2,6.1,8.7l2.8,1.8l-3.1,3.1 c-4.1,4.2-13.8,10.8-29.9,20.2c-7.3,4.3-13.7,8.3-14.4,8.9c-1.7,1.6-0.5,1.4,7.1-1.4c17.9-6.5,29.4-13.4,38.8-23.1l5.6-5.7l2,1.5 c3.8,2.8,4,2.8,5.7-0.5c2.3-4.4,2.1-5.8-1.2-8c-1.9-1.3-2.7-2.3-2.3-3.2c1.2-3,2.1-10.7,1.6-13.3C109.8,174.6,107.9,172.9,105.3,173 L105.3,173z M101.9,181.4c2-0.2,3.3,1.7,3.3,5.4c0,1.9-0.3,3.4-0.6,3.4c-1,0-5.3-2.9-6.6-4.4c-1.1-1.3-1-1.6,0.7-2.9 C99.6,182.1,100.7,181.6,101.9,181.4L101.9,181.4z M394.9,204c1.1,0,2.1,0.1,3.2,0.2c4.4,0.8,9.4,5.3,7.9,7.2 c-1.3,1.6-7.5,1.5-11.2-0.1c-2.8-1.2-7.2-4.9-7.2-6C387.5,204.6,391.4,204,394.9,204L394.9,204z M176.4,207.7 c-2.4-0.2-4.9,1.7-6.8,5.5c-1.8,3.5-6.1,19.8-6.1,22.9s-1.4,1-2.2-3.6c-2.2-11.8-10.4-22.5-15.6-20.5c-0.6,0.2-2.1,2.1-3.3,4.2 c-2.6,4.4-2.2,6,2.3,9.1c2.2,1.5,3,1.7,4.4,0.9c0.7-0.5,1.6-0.6,2.5-0.4c2.2,1.3,8.8,17.9,8.8,22c0,3.3,1.9,3,3.4-0.6 c1.4-4.1,2.5-8.3,3.4-12.5c3.8-17.5,6.5-20.8,11.8-14.6c1.4,1.7,1.4,1.7,2.6,0.1c1.9-2.5,1.5-7.1-0.9-10 C179.7,208.8,178.1,207.9,176.4,207.7L176.4,207.7z M105.4,243c-1,1.5-1.9,3.1-2.7,4.8C95.1,262.9,93.3,281,99,285 c2.5,1.8,4.4,1.5,7-1.1c2.2-2.2,5.2-10.3,4.6-12.3c-0.2-0.5-1.1,0.4-2.1,2c-2.4,3.9-5.4,4.7-7.5,2c-2.3-2.8-1.5-12.2,2.1-23.7 C104,249,104.8,246,105.4,243L105.4,243z M227,256.7c5.2,0,10.4,1.3,15.1,3.7c7.4,3.6,17.3,12,19,16.1c1,2.3,0.9,2.7-1.4,5.5 c-4,4.9-13.7,11.8-24.3,17.3c-11.6,6-21.4,9.5-31.5,11.2c-4.2,0.7-8.5,1.1-12.8,1.2c-5.6-0.1-14.4-1.5-15.4-2.6 c-1.6-1.5,15.1-27.5,23.4-36.5C209,262.1,217.8,256.9,227,256.7L227,256.7z M414.8,298.2c-2.2,0-4.4,1.3-6,4c-1.1,1.8-2.5,3.2-3,3.2 s-2.8,3-4.8,6.8c-2,3.6-4.5,7-7.4,10c-8.3,7.6-24.8,16.5-53.4,28.6c-4.7,2-8.6,3.8-8.6,4c0,1.5,33.9-7.1,40-10.1 c14.9-7.5,25.3-16.6,29.7-25.9l2.5-5.2l3.6,2.8c8,6.1,11.7,6.6,14,1.9c2.1-4.3,1.9-12.6-0.4-16.1 C419.2,299.5,416.9,298.2,414.8,298.2L414.8,298.2z M413.9,306.2c1.1-0.1,1.7,0.5,3.3,2.3c1.3,1.5,2.3,3.2,2.3,3.8 c0,1.6-2.5,1.2-6-1c-3.8-2.3-4-3.6-0.9-4.8C413,306.4,413.5,306.3,413.9,306.2L413.9,306.2z M321.1,322.2c-3-0.1-6,0.2-7.5,0.9 c-1.9,0.9-4.2,3.9-5.4,7.2c-0.5,1.2-0.2,1.2,3.2,0.2c2.6-0.8,5.4-1,8-0.3c4.6,0.9,5.8,1.4,5.8,2.4c0,0.4-3.1,4-6.9,8.1 c-7.7,8.4-10.7,13.6-10.6,19.1c0,4.2,1.6,6.6,5.6,8.4c6,2.6,18.3,0.7,26.1-4c4.6-2.7,8.5-5.9,8-6.4c-2.1,0.3-4.2,0.7-6.2,1.4 c-17.8,4.9-31.9,3.1-29.5-3.9c0.5-1.3,4.6-6.4,9.2-11.3c9.2-9.9,10.8-12.2,10.8-16.3c0-2.3-0.4-3-2.7-4 C326.3,322.6,323.7,322.2,321.1,322.2L321.1,322.2z M253.8,344.1c-0.3-0.3-18.9,6.3-41.4,14.6c-40.8,15-40.9,15.1-42.1,17.8 c-0.6,1.5-1.2,3-1.6,4.5c-0.4,1.6,0.9,1.2,14.6-4.3c8.3-3.3,26.9-10.6,41.4-16.2c25.5-9.8,26.5-10.2,28-13 C253.6,346,254.1,344.4,253.8,344.1L253.8,344.1z M66.5,353.4c-0.2,0.1-0.3,0.2-0.5,0.4c-1.6,1.5-6.5,14.5-7.8,20.5 c-1.5,7.2-1.2,15.5,0.8,18.5c0.7,1.4,2.2,2.3,3.8,2.2c3.7,0,5.1-1.1,6.9-5.4c1.9-4.5,3.3-11.3,1.7-8.6s-5,6-6,6 c-0.6,0-1.8-1-2.8-2.2c-1.5-1.9-1.7-2.9-1.3-8.2c0.4-4.5,1.3-8.9,2.6-13.2C66.5,355,67,353.2,66.5,353.4L66.5,353.4z M270.1,355.8 c-3.2,0.1-7.2,2.9-13.3,8.7L250,371l-4.2-0.1c-2.1-0.1-4.2,0.1-6.2,0.5c-4.8,1.5-12.8,7.7-20,15.7c-11.2,12.3-13.4,14.3-20.6,19.1 c-2.3,1.4-4.5,2.9-6.6,4.6c0,0.6,4.6-0.8,8.6-2.6c3.1-1.4,7.2-4.8,15.2-12.5c6.4-6.2,12.8-11.6,15.4-13c4.3-2.4,4.5-2.4,14.9-2.2 c12.1,0.2,15.9-0.6,22.1-5.2c4.5-3.3,7.1-7.9,7.1-12.9c0-2.8-0.3-4-1.8-5.1C272.9,356.3,271.5,355.8,270.1,355.8L270.1,355.8z M267.4,362.3c2.6-0.1,5,1.1,5,2.6c0,0.6-2.3,2.2-5.2,3.6c-3.1,1.5-6.4,2.5-9.8,3l-4.6,0.5l1.6-1.8c2.9-3.3,9.1-7.3,11.9-7.8 C266.6,362.4,267,362.4,267.4,362.3L267.4,362.3z"/>
</svg>