<svg xmlns="http://www.w3.org/2000/svg" width="488" height="286">
<path d="M61.9,284.6c-34-0.8-45.1-2.1-53.8-6.1c-4.9-2.3-7.1-4.9-7.9-8.9c-1.4-7.6,4.4-22,12.5-30.8c5.3-5.8,9.3-8.1,27.4-16.1 c22.7-10,29.3-15.4,39.9-32.6c6.4-10.3,12.4-17,16.2-17.9c3.5-0.9,5.7,0.8,8.5,6.4c3.1,6.7,3.9,14.2,2.3,21.3 c-1.6,6.7-4.8,16.6-5.5,17c-0.4,0.2-0.6-3.3-0.6-7.8c0.1-7-0.2-8.8-1.7-12.2c-2.2-4.8-2.6-4.4-4.5,4.8c-2.2,10.4-2.5,19.7-0.9,23.9 c1.2,3.1,5.8,8.4,7.5,8.5c0.3,0,2.2,0.4,4.2,0.7c5.1,1,15.8-0.4,24.2-3.2c23-7.6,51-28.7,64.1-48.3c3.5-5.3,2.8-14.4-3.1-36.8 c-3.1-11.8-6.1-20.1-14.1-38.6L171,95l1.3-8.6c1.5-9.7,1.8-10.7,3.1-10.7c2.3,0,12.1,17.2,17.3,30.3c6,15.2,10.2,32.9,17.6,74.6 c3.6,20.6,5.4,26.2,9.6,30.4c3.8,3.9,8.2,5,16.9,4.4c13.4-0.9,20.7-4.8,35.8-19.2c6.2-6,10.4-9.3,11.5-9.3c1.6,0,1.7,0.2,1.2,5.4 c-0.8,8.2,1.6,13.9,7.1,16.8c5.1,2.6,18.4,0.6,26.3-4c1.9-1.1,6.3-5.1,9.7-8.9s6.9-6.9,7.7-6.9s3.6,1.7,6.4,3.7 c5.8,4.4,10.4,5.9,17.6,5.9c6.4-0.2,12.5-2.3,17.7-6c6.2-4.3,6.2-7.2,0.7-84c-2.2-31.3-3.8-55.3-4.7-71.2c-0.5-8.6-1.2-15-2.1-17.3 l-1.3-3.7l3.1-8.2c1.7-4.4,3.5-8.3,4-8.4c1-0.3,3.5,5.4,10.9,25.4c5.5,14.6,7,20.8,5.4,20.8c-0.5,0-2.7-1.7-4.9-3.7l-4-3.7v2.3 c0,1.3,1.1,16.9,2.4,34.7c5.4,74.3,6,90.2,3.7,103.3c-4,22.9-14.3,38-27,39.7l-3.1,0.4l0.6,3.7c1.7,10-0.8,24.2-4.4,24.8 c-4.2,0.6-16.7-8.8-20.6-15.4c-2.5-4.2-4-9.5-5.1-17.1c-0.4-3.2-1-6.1-1.3-6.4s-1.5,0.8-2.7,2.3c-6.4,8.2-11.9,13.9-15.5,15.9 c-9.5,5.4-22.5,4.8-28-1.3c-2-2.3-4.6-8.4-4.6-11.1c0-3.5-0.9-6-1.9-6c-0.5,0-4.6,3.9-9.1,8.7c-9.2,9.8-14.7,13.9-22.9,16.7 c-5,1.7-6.6,1.9-13.7,1.6c-8.9-0.4-12.2-1.5-16.7-5.4c-5.9-5.1-9-13.6-11.7-31.6c-2.4-16.1-2.4-16.1-3.7-10.7 c-2.4,10.1-6.5,17-16.5,27.5c-11.9,12.8-26.1,23.3-41.9,30.9c-11.6,5.6-19.2,7.8-28.9,8.5c-6.6,0.4-7.7,0.3-11.7-1.5 c-10.1-4.6-14.1-16.7-11.9-36.6c0.7-5.5,1.6-10.9,2.9-16.3c1.1-4.4,1.8-8.1,1.6-8.3c-0.8-0.8-6.7,3.8-10.2,8 c-2,2.4-6.3,8.4-9.7,13.5c-6.8,10.3-13,16.6-20.2,20.5c-2.6,1.4-10.5,4.7-17.4,7.4c-14.5,5.5-21,8.8-24.3,12.2 c-1.8,1.9-2.1,2.6-1.4,3.7c3,4.8,39.4,7.8,84.2,6.9l26.7-0.5l1.1-2.9c1.1-2.8,1.6-3,12.5-7c6.2-2.3,24.1-8.9,39.8-14.7 s29.2-10.8,30.2-11c1.7-0.4,1.8-0.3,0.9,1.9c-0.6,1.3-1.3,2.5-2.2,3.6c-0.7,0.7-9.7,4.6-20.1,8.5c-31.2,11.9-54.4,21.2-54,21.6 c0.2,0.2,61.3,0.7,135.8,1s136.4,0.8,137.6,1.2c7.1,1.9-1.9,4-49.8,11.6l-30.8,4.9l-46.8,1.1C215.5,284.8,96.2,285.5,61.9,284.6 L61.9,284.6z M355.1,228.2c0-2.4-2.3-5.8-6.8-9.8c-5.1-4.7-7.2-5.3-6.4-1.9s4.4,8.2,8,10.7S355.2,230,355.1,228.2L355.1,228.2z M416.3,260.1c0.3-6.5,0.6-12.2,0.8-12.7c0.5-1.8-1.3-31.8-7.2-116.4c-1.1-15.6-2.3-34.9-2.7-42.8c-0.5-9.6-1.2-15.7-2.1-18.2 c-1.3-3.7-1.3-4,0.5-9.2c2.5-7.5,4.6-12.2,5.4-12.2c1.3,0,16.9,41.5,17,45c0,2.4-2.3,1.5-6-2.3l-3.6-3.7v3.6c0,2,1.8,28.6,4,59.1 s4.2,60.3,4.5,66.3c0.6,11.7-0.3,23.5-2.9,35c-1.7,7.3-6,19.1-7.3,19.9C416.1,271.8,416.1,268,416.3,260.1L416.3,260.1z M268.7,252.6c-4.2-3-7.7-5.8-7.8-6.2c-0.3-0.9,6-14.4,7-15s15.3,9.1,16.4,11c0.7,1.1,0.1,2.9-2.8,8.3c-2,3.8-4,7-4.4,7.1 S272.9,255.6,268.7,252.6L268.7,252.6z M50.1,166.4c-2.5-2.8-3-5-3-11.6c0-6-0.2-6.9-1.7-7.9c-1.2-0.6-1.7-2-1.2-3.2 c0.7-2.6,3.5-6.3,5-6.3c1.2,0,1.3,0.2,1.4,11.7c0.1,6,0.4,7.6,1.6,9c2.2,2.4,4.2,2.1,7.4-1s3.3-4.5,1.8-13.2c-1-5.6-0.4-9.9,1.3-10 c1.1-0.1,2.7,6.1,3.6,13.4c0.8,7.1,2.8,10.1,6.5,10.1c4.1,0,4.5-1.8,1.5-8.2c-3.1-6.7-3.7-13.2-1.4-15.4c1.2-1.2,1.3-1.1,1.9,1.4 c0.8,3,1.7,6,2.8,8.9c2.6,6.8,2.8,8.6,1.5,13.7s-3.9,8-7.1,7.9c-3.1-0.3-5.7-2.3-6.9-5.1c-0.7-2.2-1.5-1.8-2.6,1.3 c-0.7,1.7-1.7,3.2-3.1,4.4C56.8,168.2,51.8,168.4,50.1,166.4L50.1,166.4z M323.1,146.2c1.1-0.9,6-3.8,10.8-6.5 c20.9-11.6,24.8-13.9,24.8-14.7c-0.1-2.6-12.8-3.9-37-3.6c-1.6,0-1.2-1.1,1.9-6.5c3.6-6.1,5.5-8.4,8.5-10c5.1-2.7,33.2-2,40.3,1 c4.9,2,4.6,4.5-1.5,13.7c-3.1,4.4-6.5,8.5-10.2,12.3c-5.7,5.7-6.5,6.2-13.6,8.6c-6.7,2.2-18,5.5-24,6.9l-2,0.5L323.1,146.2z M221.5,143.3c3.1-2.4,5.2-3.6,16.8-9.8c16.1-8.6,18.8-10.4,17.4-11.8c-1.8-1.8-9.7-2.7-24-2.7c-7.9,0-13.4-0.3-13.4-0.8 c0-1.1,5.6-10.6,7.5-12.7c3.3-3.6,5.9-4.4,16.2-4.8c10.7-0.4,23.6,0.8,27.9,2.6c4.9,2.1,4.7,4.6-1.2,13.4c-6.3,9.4-13,16.3-18.7,19 c-4.8,2.3-21,7.3-27.4,8.5l-3.1,0.6L221.5,143.3z M13.9,125.5c0.2-0.4,6.1-4.1,13-8.1C42.8,108,54.6,100,58.6,96l3.1-3.2L58.8,91 c-4.2-2.6-6.1-5.4-6.1-9.1c0-6.7,7.5-15,13.6-15c1.6,0,3.4,0.4,3.8,1c1.6,1.9,1.9,6.6,0.7,12.2l-1.2,5.6l2.8,2.3 c3.2,2.7,3.3,3.5,1.1,7.8c-1.8,3.5-2.5,3.8-4,1.9c-2.7-3.1-3.5-2.8-10.5,4c-10.2,10-18.2,14.8-35.5,21.3 C14.5,126.3,13,126.7,13.9,125.5L13.9,125.5z M66.3,80.9c0-5.5-2.5-7.3-6.2-4.7c-2.5,1.8-2.2,3.2,1.2,5.5 C65.4,84.5,66.3,84.4,66.3,80.9L66.3,80.9z M294.3,82.2c0.7-0.4,8.1-5,16.6-10c15.1-9,23.7-14.9,28.8-19.7l2.6-2.4l-3.6-2.4 c-3.4-2.2-5.9-5.7-5.9-8c0-4.8,4.9-12.2,9.7-14.7c3.3-1.7,7.7-1.5,8.7,0.4s1,8.5-0.1,13.7c-0.7,3.5-0.7,4.3,0.3,4.8 c1.1,0.7,2.1,1.4,3.1,2.2l1.9,1.5l-1.9,4.1c-1,2.2-2.1,4.1-2.3,4.1c-1.1-0.6-2.2-1.3-3.1-2.1l-2.7-2.1l-4.2,4.6 c-5.1,5.8-14.2,12.5-22.6,16.9C309.8,78.2,289.5,85.4,294.3,82.2L294.3,82.2z M346.8,38.5c0.7-2.7-1.1-6.2-3.4-6.5 c-1.3,0-2.6,0.5-3.5,1.3c-1.7,1.4-1.8,1.7-0.7,3c1.2,1.5,5.5,4.4,6.6,4.4C346,40.6,346.5,39.6,346.8,38.5L346.8,38.5z M401.8,43.5 c0.8-3.4,2.9-7.7,3.7-7.7c0.4,0,18.8-6.7,40.9-14.9S486.7,6.3,487,6.6s-0.2,1.8-1.1,3.4c-1.5,2.7-2.4,3.2-14,7.7 c-6.8,2.6-25.5,9.9-41.5,16.1C404.5,44,401.5,45.1,401.8,43.5L401.8,43.5z"/>
</svg>