<svg xmlns="http://www.w3.org/2000/svg" width="495" height="364">
<path d="M396.4,0c-0.2,0-0.4,0.2-0.6,0.5c-1.4,2.8-2.6,5.7-3.7,8.7l-2.8,7.4l1.4,5.3c0.9,3.5,1.7,10.6,2.1,20.5 c0.4,8.4,0.9,18,1.1,21.2c7.6,104.3,8.4,121.4,5.4,127c-1.2,2.3-7.9,6.2-13,7.8c-8.9,2.6-16.8,1.2-24.5-4.4c-3-2.2-6.1-3.9-6.9-3.9 s-5,3.6-9.6,8.3c-7.4,7.5-8.6,8.4-13.3,10c-3.3,1.1-6.7,1.8-10.2,2.2c-3.6,0.4-7.3,0.4-10.9,0c-9.6-1-26.6-8.2-25-10.6 c0.2-0.4,5.8-3.4,12.4-6.6l12-6l2.9-6c3.9-8.3,4.2-10.3,2-13.1c-6.6-8.4-38-15.2-58-12.6c-12.3,1.6-30.9,7.9-33.7,11.4 c-1.1,1.4-5.9,16.7-5.9,19s0.9,2.2,6.8-0.8c2.8-1.4,6.3-2.5,7.8-2.5c4.6,0,14.3,5.8,23.7,14.2l3.5,3.1l-3.8,3.1 c-5.5,4.5-17.6,18.3-22.2,25.4c-2.3,3.5-4.6,6.2-5.3,6.2c-2.3,0-17.6-7-23.5-10.7c-10.9-6.8-15.7-14-15.7-23.4 c0-2.8-0.3-3.5-1.4-3.4c-2.2,0-2.6,0.5-11.3,12.9c-4.5,6.4-9.6,13.1-11.4,14.7c-7.2,6.3-16.8,8.8-26.1,6.8c-2.8-0.6-5.4-2.1-7.2-4.4 c-4.1-4.4-5.8-10-9-28.1c-10.2-58.9-16.2-79-30-100.5c-5.7-8.8-6.3-8.6-8.2,4.2l-1.3,9.2l5.2,12c10.6,24.2,16.6,43.2,19.1,61 c1.4,9.7,0.8,12.1-5.2,19.7c-16.5,21.1-45.3,40.5-67.6,45.5c-9.2,2.1-17.5,1.9-22.1-0.4c-9.4-4.7-9.9-15.5-2.2-46.1l1.5-5.8h2.9 c3.5,0,7.2-2.8,9.5-7.2c1.9-3.6,4.8-14,4.8-16.8c0-1.7-0.4-1.4-2.4,2.1c-2.2,3.9-6.5,8.3-8,8.3c-2.5-0.3-4.7-1.7-5.9-3.9 c-3.1-6-2.2-16.5,3.1-34c4.5-15,5.2-17.3,4.8-17.3c-1.7,2.6-3.2,5.4-4.5,8.2c-7.8,15.4-11.1,28.4-11.1,42.9c0,8.8,1.3,13.6,4.2,16 c1.1,0.9,1,1.6-1,6.4c-7.2,17.1-10.1,41.9-6.3,54.1c2,6.6,7.4,12.6,12.4,14c16.5,4.5,46.9-8,71.2-29.3c15.4-13.5,22.7-23.9,26-36.9 c0.5-1.9,1-3.3,1.2-3.1s1.3,6.1,2.4,13.1c3.1,19.8,5.5,26.3,12,32.3c4.2,3.9,9.8,5.6,18,5.6c5.2,0,6.9-0.4,11.1-2.5 c6.4-3.2,10.5-7.9,18.4-21.1c3.4-5.7,6.5-10.4,7-10.6s1.3,1.1,1.9,2.7c2.3,6.3,6,12,10.8,16.8c4.3,4,17,11,23.2,13 c1.3,0.4,2.6,0.9,3.9,1.6c0.4,0.3-0.1,3.1-1,6.1c-6,19.5-7.1,47.4-2.5,65.6c3.9,15.5,12.9,27.5,24.8,33.3c5.7,2.8,11.8,4.7,18,5.7 c5.1,0.7,23.5,0.5,28-0.3c21.5-3.8,44.7-19.4,59.1-39.6c5.5-8.2,9.7-17.3,12.5-26.8c2.5-10,2.5-24,0-31.3 c-3.9-11.2-12.4-19.2-23.1-21.8c-9.7-2.3-18.7-2.9-53.6-3.8c-30.5-0.7-42.8-1.5-44-2.6c-0.8-0.8,14.8-16.1,21.2-21.1 c3.7-2.8,7-5.1,7.5-5.1s3.3,1.9,6.5,4.2c17.1,11.1,29,17.2,46.7,15.6c7.7-1.2,13.3-5,20.4-13.8c3.4-4.2,6.5-7.6,6.9-7.6 s0.9,2.2,1.2,5c0.8,7.1,2.7,14.1,4.9,17.8c2.6,4.5,9.1,10.6,14.6,13.7c7.2,4.1,8.2,3.7,10.3-4.6c1.3-5.1,1.3-17,0-20.1 c-0.5-1.1-0.2-1.4,1.4-1.4c7.8,0,16.5-7.4,22-18.4c6.9-14,9.1-30.8,7.5-58.2c-0.9-15.6-4.6-69-6.5-93c-0.4-5-0.5-9.5-0.3-9.8 s2.3,1.1,4.5,3.2l4.1,3.8l0.2-3c0.2-2.2-1.5-7.6-6.3-20.4C398.9,4.2,397.3,0,396.4,0L396.4,0z M494.2,18.4 c-0.1-0.1-15.7,5.5-34.6,12.5s-37.5,13.8-41.2,15.2c-6.5,2.3-6.9,2.6-8.2,5.8c-0.6,1.4-1.1,2.9-1.4,4.5c0,0.4,0.2,0.7,0.6,0.8 c0.1,0,0.3,0,0.4-0.1c9.1-3.7,55.2-21.8,66.8-26.1l15.4-5.8l1.3-3.2C493.7,20.7,494,19.6,494.2,18.4L494.2,18.4z M179.4,29.4 c-1.2,0.1-2.4,1-4.2,2.9c-3.2,3.2-4.4,6.6-7.3,19.8c-0.9,4-1.7,7.3-1.8,7.5s-0.9-2.4-1.7-5.6c-2.6-11-8.8-19.8-14-19.8 c-1.9,0-2.7,0.6-4.4,3.5c-2.7,4.6-2.6,6.4,0.5,9c2.1,1.8,3,2,5.6,1.7c3-0.5,3-0.5,5.4,4.1c1.7,3.6,3.2,7.4,4.5,11.2l2.2,6.6 l-1.8,1.9c-1.9,2-4.1,8.2-4.1,11.6v2l2.7-2.6c2.8-2.7,4.9-2.9,6.9-0.5c0.7,0.9,0.5,1.2-1.4,1.6c-6.3,1.4-10.6,6.9-10.6,13.8 c0,1.8,1.3,9.9,2.8,18s3.2,19.9,3.8,26.2c0.8,9.5,1.1,11.1,1.6,8.8c0.4-1.5,0.7-7.5,0.7-13.2c0-11.2-1.5-22.3-4.6-33l-1.9-7l1.8-1.4 c1-0.8,5.2-2.5,9.6-3.8c7.4-2.3,7.9-2.6,9.5-5.7c1-2,1.5-3.9,1.2-5.1c-0.7-2.6-6.5-8-10.4-9.7l-3.3-1.4l1.4-4.8 c0.8-2.7,2.2-8.5,3.2-13c1.8-8.3,3.8-12.7,6-13.5c0.8-0.3,2.3,0.5,4,2.2l2.8,2.6l1.3-3c1.6-3.7,1-6.3-2-9.4 C181.8,30,180.7,29.3,179.4,29.4L179.4,29.4z M353.7,39.2c-5.4,0-12.8,7.1-13.5,14c-0.5,4.8,0.8,7,5.5,10.2l3.3,2.2l-3.9,3.6 c-4.9,4.4-16.2,11.9-32.1,21.2c-6.7,3.9-12.2,7.4-12.2,7.8c0,0.9-0.2,1,10.4-2.9c16.6-6.2,26.2-12,35.9-21.8c6.1-6.1,7-6.4,9.7-3.1 c1.5,1.8,2,1.6,3.9-1.9c2.4-4.2,2.2-5.2-1.1-7.8c-2.8-2.3-2.9-2.4-2-5.5c0.6-2.8,0.9-5.7,0.9-8.5c0-4.9-0.2-5.5-2-6.7 C355.6,39.4,354.6,39.2,353.7,39.2L353.7,39.2z M257.9,46.9c-0.7,0.4-4.8,9-6.6,13.9c-1.6,4.3-2.1,7.7-2.4,14.9 c-0.4,9.2-0.4,9.4,1.7,11.4c5.3,5.3,10.1,0.7,13-12.7c0.3-1.5,0.3-1.6-0.7-0.1c-4.8,7.1-7.9,8-10,3.1c-1.6-3.8-1.1-9.2,2-19.8 c1.3-4.4,2.5-8.9,2.9-10C258,47.1,258,46.8,257.9,46.9L257.9,46.9z M349.8,47.6c2.4-0.1,3.8,2,3.8,6c0,3.4-0.9,3.5-5,0.7 c-3.3-2.3-3.9-4.5-1.5-5.8C348,48,348.9,47.7,349.8,47.6L349.8,47.6z M434.9,49.5c-1,0.3-3.7,6.2-5.7,12.5c-1.3,4.1-1.3,4.7-0.1,8.8 c0.9,2.8,1.6,9.9,2.1,20c0.4,8.6,2.2,36.1,4,61.2c5.7,82.2,5.9,84.4,5.3,102.6c-0.3,10.4-0.2,16.9,0.2,16.6 c1.3-0.8,5.7-13.2,7.3-20.5c2.5-11.7,3.2-23.5,2.3-39.5c-0.5-7.9-2.6-38.5-4.7-68s-3.6-54-3.2-54.3s1,0.1,1.5,1 c1.3,2.4,6.4,6.1,7.3,5.2c0.5-0.4,0.3-2.3-0.4-4.7c-2.4-8.9-14.4-40-15.8-40.8C435,49.6,435,49.6,434.9,49.5L434.9,49.5z M357.1,125.3c-0.6,0.2-4.9,9.6-6.8,14.9c-2.4,7.1-3.5,16.5-2.4,21.4c1,4.4,1.8,5.6,4.5,6.1c4.5,1,7.7-2.7,9.7-11.4l1-4.4l-1.8,2.4 c-4.1,5.6-5.7,6.3-8.2,3.5s-2-11.9,1.5-23.1C356.2,129.8,357.3,125.5,357.1,125.3C357.1,125.3,357.1,125.3,357.1,125.3L357.1,125.3z M75.9,155.6c-2.2,0.1-4.4,0.9-6.2,2.2c-4.6,3.1-7.5,7.6-8,12.3c-0.3,3.6-0.2,4,2.8,6.9c1.4,1.4,3,2.7,4.7,3.9 c1.4,0.8,1.3,1.1-1.9,4c-6.1,5.5-11.3,9-27.9,18.9c-8.9,5.3-16.4,10-16.6,10.4c-0.8,1.3,1.1,0.7,12.3-3.6 c15.4-5.9,30.3-15.6,36.5-23.8c0.8-1.2,1.8-2.3,2.9-3.2c1.1,0.5,2.1,1.2,2.9,2c0.8,0.8,1.8,1.5,2.8,2c0.7,0,3.7-6.1,3.7-7.5 c0-0.6-1.3-2.2-2.8-3.4c-2.7-2.1-2.8-2.4-1.9-4.7c1.4-3.5,1.4-13.4,0.1-15C78.4,156.1,77.2,155.6,75.9,155.6L75.9,155.6z M72.1,163.6c1.9,0.1,3.1,2.1,3.1,5.9c0,3.4-1,3.6-5,0.8c-3.4-2.3-3.7-3.8-1.2-5.5C69.9,164.1,71,163.7,72.1,163.6L72.1,163.6z M266.6,176.1c5.7-0.1,13.5,0.5,16.3,1.4c2.3,0.8,4.4,1.7,4.6,2.1s-2.9,2.5-6.9,4.8c-2.5,1.5-5.1,2.8-7.8,4 c-1.5-0.2-13.4-10.9-12.9-11.4S263.2,176.1,266.6,176.1L266.6,176.1z M409.1,234.2c-0.8,0-1.6,0.1-2.3,0.4c-2,0.8-4.3,5.9-4.9,10.8 l-0.5,4.3l2.5-3c2.8-3.4,3.6-3.6,6.2-1.7c1.8,1.3,1.8,1.3-2.9,3.5c-3.6,1.7-5,2.9-6,5.1c-2.5,5.2-2.4,9,0.2,22.2 c3.1,15.5,4.8,27.4,4.9,35.6c0.1,5.6,0.2,6.1,1,4c0.5-1.3,0.9-7.8,0.9-14.4c0.2-11.2-1.3-22.3-4.5-33l-1.9-6.6l1.9-1.5 c2.2-1.8,4.5-2.7,12-4.9c5.4-1.6,5.8-1.8,7-4.9c1.8-4.4,1.7-5.1-1.3-8.5C417.4,237,412.8,234.2,409.1,234.2L409.1,234.2z M107.9,250.8c-3.9,0-6.6,2.4-7.8,6.8c-1,3.6-0.8,4,1.4,2.8c2.8-1.5,5.7-1,6.6,1.1c1.2,2.7-1.1,7.2-7.8,15.1 c-2.9,3.4-4.8,6.2-4.4,6.2s3.3-2.4,6.4-5.3C114.5,266.1,117.7,250.8,107.9,250.8L107.9,250.8z M231.1,254.6c3.3,0.2,6.5,0.5,9.8,1.1 c8.4,1.3,17.3,1.8,40.8,2.3c31.5,0.7,43.8,1.6,51.6,3.6c17.2,4.5,28,21.6,22.1,35c-8,18.2-34,37.8-59.2,44.6 c-8.1,2.2-27.5,2.8-35.6,1.1c-21.2-4.4-32.4-14-37.4-32c-2.3-8.3-2.5-24-0.4-33.6c1.4-6.3,5.6-20,6.8-21.8 C229.7,254.7,230.1,254.6,231.1,254.6L231.1,254.6z M260.8,264.5c-1.9,0-4.7,1.9-8.4,5.7c-5.4,5.5-7.6,9.4-7.6,13.5 c-0.2,3.1,1.8,6,4.8,7c1.3,0.6,2.4,1.2,2.4,1.5c-0.7,1.5-1.5,2.8-2.4,4.1c-3.5,5-5.4,11-5.6,17.1c0,5.4,1.2,7.5,5.6,9.2 c4.6,1.8,17.3,0.3,23.4-2.8c3.5-1.8,10.3-6.8,9.9-7.2c-0.2-0.2-3.7,0.4-7.8,1.4c-8.9,2.1-20.6,2.5-24.5,0.9 c-3.6-1.5-4.1-4.2-1.7-8.8c2.9-5.5,8.7-12,14.5-16.5c2.9-2.2,5.8-5.1,6.5-6.5c1.5-3,2.6-8.3,1.8-8.3c-1.7,1-3.3,2.3-4.7,3.7 c-4.8,4.3-7.1,5.4-10.2,4.7c-2.4-0.5-6.3-3.3-6.3-4.4s4.8-6.4,5.8-6.4c1,0.3,1.9,0.9,2.6,1.6l1.8,1.6l1.7-2.7c2-3.2,2.1-5.2,0.6-7.3 C262.4,264.9,261.6,264.5,260.8,264.5L260.8,264.5z M188.4,283.6c-0.6,0-2.4,2.5-3.9,5.5l-2.8,5.5l-7.6-5.1 c-4.1-2.8-8.1-5.1-8.7-5.1c-1.2,0-8.4,14.8-7.6,15.6c0.2,0.2,3.8,2.8,7.9,5.6s7.9,5.2,8.3,5.2s2-2.4,3.5-5.4s2.8-5.5,3-5.7 c0.3-0.4,12.8,7.8,13.9,9.2c1.7,2.1,2.8,1.1,6.2-5.2c4.9-9.1,4.8-9.5-3.9-15.2C192.8,285.8,189,283.6,188.4,283.6L188.4,283.6z M347,301.6c-0.2-0.2-14,4.7-30.7,10.9s-35,13-40.7,15c-11,4-11.6,4.5-13.6,11.2c-0.3,1-0.2,1.8,0.1,1.6c4.6-2,53.5-21.2,66-26 c16.3-6.2,16.6-6.4,17.9-9.3C346.8,303.3,347.3,301.8,347,301.6L347,301.6z"/>
</svg>