<svg xmlns="http://www.w3.org/2000/svg" width="325" height="413">
<path d="M91.8,412.2c0.4-1.5,0.9-3.1,1.6-4.5l1.6-3.7l40.9-15.1c22.5-8.3,41.1-14.8,41.4-14.5s-0.2,1.8-1.1,3.4 c-1.5,2.8-2.3,3.2-20.8,10.2c-10.6,4-29.2,11.3-41.4,16.1S91.9,412.6,91.8,412.2L91.8,412.2z M36.6,406c-17.2-2.7-30-14.4-34.7-31.6 c-1.8-6.6-2.5-23.2-1.3-32.9c1.3-10.2,3.9-20.3,7.6-29.9c4.5-10.8,12.4-22.8,12.4-19c0,0.7-1.8,5.4-4,10.5 c-14.4,33.6-13.9,56,1.5,71.8c14.1,14.4,38.2,15.1,71.7,1.9c17.8-7,49.2-24.2,55.2-30.1l2.4-2.4l-1.9-1.5 c-2.3-1.9-13.8-5.6-35.3-11.5c-19.4-5.3-20.6-5.8-21.2-7.6c-0.8-2.4,2-12.7,3.8-14.4c3.4-3.2,17.8-7.8,55.8-18 c21.7-5.8,26.9-7.5,24-7.5c-2.1,0-22-3.1-44.8-6.8c-12.1-2-23.3-3.8-25-4.1c-3.8-0.6-3.8-1.8-0.3-10.3l2.6-6.4l16.2-8.2 c25.3-12.8,27.3-14.5,44.9-39c9.7-13.4,14.9-19.7,16.7-19.7c2.2,1.2,4.2,2.5,6.1,4c7,5.1,9.6,5.9,18,6c5.7,0,7.5-0.3,11.2-2 c9.5-4.5,11.2-7.6,11.2-20.9c0-7-1.7-34-4.4-71.8c-1.7-23-3.4-49.2-4.3-65.6c-0.5-8.9-1.2-15.3-2-17.5c-0.7-1.8-0.9-3.7-0.8-5.6 c1.1-4.6,6.1-16.2,6.8-15.8c1,0.6,2.2,3.6,9.5,23.2c6.3,16.8,8.1,23.5,6.6,23.5c-0.4,0-2.7-1.7-4.9-3.7l-4.1-3.7v2.4 c0,1.3,0.5,9.9,1.2,19.1c5.6,77.1,6.1,85.4,6.1,99.5c-0.1,23-5.1,40.4-14.8,51c-4.3,4.7-10.4,8.2-14.3,8.2c-2,0-2.2,0.3-1.9,1.8 c1.9,7.6,1.1,18.4-1.6,24.2c-1.2,2.6-1.6,2.8-3.7,2.4c-3.4-0.7-12.9-7.3-16-11.1c-4.3-5.4-6.2-10-7.8-18.8c-0.8-4.5-1.6-8.5-1.9-8.8 c-0.8-0.8-2.8,2-10.1,14.2c-8.9,14.8-11.1,17.7-19.4,26.2c-4,4.1-6.8,7.4-6.4,7.4s5.8,0.9,11.9,2c22.4,4,72.6,9.1,90.6,9.2 c3.1,0,3.4,0.2,3.4,1.9c0,2-4.5,14.6-5.8,16.3c-0.4,0.5-2.2,1-3.9,1c-5,0.5-10,1.3-15,2.4c-24.8,5-96.1,23.7-94.8,24.8 c2.4,1.1,4.9,2,7.4,2.8c7.4,2.4,13.9,5.5,16.3,7.5c2.6,2.7,4.2,6.2,4.5,9.9c0,8.9-7.5,22.8-17.1,31.6c-14.3,13.1-54,32.6-78.1,38.2 c-6.7,1.5-18.3,2.1-24,1.2L36.6,406z M238.3,378.4c-0.1-8.5-1-15.4-4.5-33.5c-2.6-13.6-2.8-15.6-2-19.6s4-8.9,5.7-8.9 c1.2-0.3,2.4-0.7,3.5-1.2c2.4-1,2.8-1.4,2-2.4c-1.6-1.9-4.1-1.4-7,1.4l-2.7,2.6l0.6-4c0.7-5.3,2.8-9.3,5.4-10.8 c2.1-1.1,2.5-1.1,6.6,1.1c5,2.6,10,7.7,10,10.1c-0.2,1.6-0.8,3.2-1.6,4.7c-1.4,2.8-2,3.2-7.2,4.5c-6.9,1.8-13.3,5.2-12.9,6.8 c0.2,0.6,1.3,5.1,2.5,10c2.9,11.3,4.4,25,3.7,34.3C239.8,383.9,238.4,386.9,238.3,378.4L238.3,378.4z M183.3,357.2 c-3.3-2-4.2-3.9-4.2-8.4c0-5.4,3-10.5,10.8-18.8c3.7-3.9,6.8-7.5,6.8-7.9c0-2.1-10.5-3.3-14.9-1.7c-3.2,1.2-3.3,0.4-0.6-3.4 c3.3-4.7,5.2-5.5,12.1-5.2c7.2,0.4,9.9,1.9,9.9,5.7c0,3.4-2.3,6.8-11.4,16.6c-10.4,11.2-11.3,13.7-5.9,16c4,1.7,16.5,1.2,24.8-0.9 c3.9-1,7.2-1.6,7.4-1.4c0.6,0.6-5.4,5.1-9.8,7.3C200.2,359.2,188,360.2,183.3,357.2L183.3,357.2z M266.8,275.2 c1.2-18.6,0.9-25.2-5.4-116c-1.7-25.1-3.5-51.7-3.9-59.2c-0.5-8.7-1.2-15-2-17.4c-1.2-3.6-1.2-4,0.4-8.8c2.3-6.9,4.8-12.6,5.6-12.6 c1.2,0,16.8,41.6,16.8,44.8c0,2.5-2.1,1.8-5.7-1.7c-1.8-1.8-3.5-3.1-3.7-2.8s1.5,27,3.9,59.5c5,69.1,5.5,86.1,2.4,100.1 c-1.9,8.7-5.6,19.4-7.7,22.1C266.4,284.7,266.3,283.9,266.8,275.2L266.8,275.2z M65.4,250.4c0-0.6,9.5-6.4,19.2-11.6 c18.5-9.9,19.9-11.1,15.4-13c-1.2-0.5-9.4-1.1-18.8-1.3c-9.9-0.2-16.6-0.7-16.6-1.2c1.1-2.4,2.3-4.8,3.8-7 c5.1-8.5,7.1-9.6,18.9-10.1c10.6-0.5,25.4,0.9,29.4,2.8c1.8,0.9,2.9,2,3.1,3.2c0.3,2.3-2.7,7.6-9.1,15.8 c-6.1,7.9-9.8,11.2-15.1,13.6C90.8,243.8,65.5,251.1,65.4,250.4L65.4,250.4z M91,168.4c0.7-0.4,8.1-5,16.6-10 c14.9-8.9,26.1-16.7,29.4-20.4l1.6-1.8l-2-1.3c-3.4-2.2-6.3-5.4-6.8-7.5c-0.8-3.2,1.1-8.4,4.2-11.9c3.4-3.8,6.4-5.5,9.7-5.5 c4.6,0,5.9,4.9,4,14.7c-0.8,4.2-0.8,4.7,0.6,5.7c5.2,3.7,5,3.1,2.4,7.9l-2.3,4.4l-1.7-1.7c-3.6-3.4-4-3.3-8,1.3 c-4.7,5.5-14.3,12.7-22.6,17C106.5,164.3,86.2,171.5,91,168.4L91,168.4z M143.5,124.9c0.6-2.6-1.3-6.4-3.3-6.7 c-1.3,0-2.6,0.5-3.6,1.4l-1.9,1.7l3.1,2.8C141.5,127.3,142.8,127.5,143.5,124.9z M162.2,113.7c0-0.6,9.5-6.4,17.2-10.5 c12.5-6.7,19.6-11.1,19.6-12.1c0-2.1-6.7-3-22.6-3c-13.8,0-15.8-0.2-15.4-1.2c0.2-0.7,2.1-4,4.2-7.4c5.4-9,6.5-9.4,24.3-9.4 c20.3,0,28,2.1,26.8,7.2c-0.6,2.6-6.2,11.1-11.6,17.5c-7.1,8.5-10.8,10.6-28.8,15.7C164.8,113.5,162.3,114.2,162.2,113.7 L162.2,113.7z M238.6,55.1c1.6-6.5,0.1-5.7,42.9-21.6c43.1-16,42.4-15.7,42.4-14.7c0,1.9-2.9,6.4-4.4,6.9 C315,27.1,253.4,51,239.1,57C238.2,57.4,238.1,57,238.6,55.1L238.6,55.1z"/>
</svg>