<svg xmlns="http://www.w3.org/2000/svg" width="389" height="323">
<path d="M289,0l-1.5,2.8c-1.4,2.9-2.6,5.9-3.6,9c-2.2,6.2-2.2,6.2-0.8,10.4c1.1,3.3,1.5,8.6,2,24.6c0.4,11.2,1.1,27.7,1.6,36.6 s0.8,16.4,0.6,16.6s-1.5-0.5-2.9-1.4c-1.9-1.3-2.4-2.2-2.1-3.4c0.5-2.8,0.8-5.6,0.9-8.4c0.4-5.7,0.2-7.1-0.9-8.2 c-5-5-17.2,4.9-17.2,13.9c0,4.3,1.6,6.9,5.9,9.2c1.6,0.8,2.9,1.8,2.9,2.1c0,0.8-9.6,8.4-15.6,12.4c-2.6,1.8-11,6.8-18.6,11.3 c-11.8,7-15.8,9.7-14.4,9.7c1.2,0,20.7-7.6,24.8-9.7c8.1-4.1,15.6-9.5,22.1-15.9c3-3.1,5.9-5.6,6.2-5.6c1,0.3,1.9,0.9,2.7,1.6 c0.8,0.7,1.6,1.2,2.6,1.6c0.3,0,1.3-1.5,2.2-3.3s1.8-3.2,1.9-3s0.7,5.9,1.2,12.7c1.5,20.1,4.8,48.2,7.3,63.2 c1.3,7.7,2.4,14.3,2.4,14.6s-4.5,2.9-10,5.6c-5.4,2.9-11.8,5.4-16.5,7.9c-10,5.3-17.1,14.9-18,24.2c-0.2,2.5-0.7,4.5-1.1,4.5 c-1.5,0-10.4-10.9-13.1-16c-4.2-8.1-5.8-13-9.2-30.4c-1.7-8.6-4.1-18.8-5.2-22.6c-2.3-8-6.4-17.4-7.5-17.4c-1.3,0-3.4,6.4-4.3,13.2 c-0.9,6.4-0.8,6.7,2.4,18.4c4.7,17.1,7.6,32.4,7,36.8c-3.5,9.5-9.7,11.4-17.8,10.8c-6,0-11.5-3.6-13.8-9.2 c-0.5-1.4-0.8-5.7-0.7-10.4l0.2-8l-1.9,0.2c-3,0.8-5.9,1.9-8.8,3.3c-30.9,13.9-66.7,25.1-92.2,28.9c-13.8,2.1-33.1,2.2-44.3,0.3 c-15.2-2.6-25-7.2-32.6-15.5c-8.6-9.3-9.1-19.8-2-38.5l2-5.2l3.6,0.3c3.1,0.2,4-0.1,6.4-2.2c4-3.5,8.6-14.9,8.6-21.3 c0-2.3-0.1-2.2-2.4,1.7c-3.2,5.5-6.8,8.6-9.5,7.9c-3-0.7-4.6-3.1-5.7-8.1c-1.4-6.7,0.3-16.3,6.7-37.1c1.5-5,2.7-9.3,2.5-9.5 c0,0,0,0-0.1,0c-0.4,0.3-2.6,4.4-5.1,9.6c-7.8,15.9-11,29.5-10.4,43.7c0.2,5.6,0.7,8.5,1.7,10c1.3,2,1.2,2.3-1.7,9.1 c-4.8,11.2-6,16.8-6,29.1c0,8.2,0.3,11.9,1.4,15.6c5.6,18.5,19.4,28.6,43,31.6c8.1,1,24.5,0.3,37.8-1.6 c24.2-3.5,54.7-13.2,88.1-27.9c6.1-2.7,11.4-4.9,11.7-4.9s0.8,2.1,1.1,4.8c1.7,14.7,7.9,21.7,21.1,23.6c12.7,1.4,19.2-10.6,22.2-20 l1.7-5.6l1.8,5.6c2.8,8.6,6.1,13.8,13.6,21.2c5.5,5.5,8.4,7.6,14.9,11c8.2,4.3,16.9,7.5,26,9.5c7.9,1.6,13.4,1.5,14.3-0.2 c0.4-0.8,1-4.8,1.3-9l0.5-7.6l-8.7-3.5c-19.8-8-31.2-14.8-30.5-18.2c0.2-0.9,3.2-2.9,8.5-5.4c7-4,15-6.7,20.8-9.2 c6.1-2.7,11.6-5,12.2-5.2s2.5,1.6,4.8,5.4c5.1,8,12.8,14.3,19.6,15.9c9.8,2.4,17.3-2.6,19.6-13.2c1.5-6.5,0.6-19.2-1.5-24 c-3.5-7.9-8-10.8-16.4-10.8c-6.2,0.4-12.4,1.6-18.3,3.6c-1.1,0.4-1.6-0.7-3-6.7c-4.6-20.1-9.4-74.3-11-125L296.1,40l3.7,3.4 c3.7,3.4,6.1,4.3,6.1,2.3c0-2.8-9.7-29.8-14.8-41L289,0z M388,18.2c-0.5-0.1-19.1,6.6-41.3,14.8c-40.1,14.9-40.4,15-41.7,17.8 c-0.7,1.5-1.3,3.1-1.9,4.6l-0.6,1.8l3.1-1.3c6-2.6,55.3-21.8,67.6-26.5s12.6-4.8,14.1-7.9C388.4,19.4,388.7,18.4,388,18.2L388,18.2z M253.2,23.7c-1.4,0-2.9,0-4.3,0.1c-13,0.5-15,1.5-20.1,10.1c-2,3.5-3.7,6.7-3.7,7.2c0,0.7,3.8,1,13.4,1c13.4,0,22.2,0.9,23.6,2.3 c1.6,1.7,0.6,2.4-24.2,16c-3.3,1.8-6.5,3.7-9.6,5.8l-2,1.6l3.2-0.5c3.8-0.6,19-5.2,25.6-7.7c5.9-2.2,13.3-9.5,20.3-20 c5.8-8.6,6-10.7,1.6-12.9C273.6,24.9,263.3,23.7,253.2,23.7L253.2,23.7z M145.1,38.8c-5.1,0.2-12.1,6-13.7,12.8 c-1,4.5,0.7,8.1,5.3,11l3.7,2.3l-4.2,3.8c-5.4,4.8-14.5,10.9-30.4,20.3c-6.9,4.1-12.8,7.8-13,8.2S92.6,98,93,98 c0.9,0,15.6-5.5,21.4-8c6.8-2.9,19-11.6,24.5-17.5l5.3-5.6l3,2c3.2,2.2,3.2,2.2,5.6-2.3c1.8-3.2,1.4-4.4-1.7-6.4 c-2.4-1.5-2.8-2.2-2.4-3.8c0.5-2.8,0.8-5.6,0.9-8.5c0.4-5.4,0.2-6.7-0.9-7.8C147.9,39.1,146.5,38.6,145.1,38.8L145.1,38.8z M141.6,46.9c0.8-0.1,1.2,0.4,2,1.4c0.9,1.1,1.4,2.5,1.5,4c0,3.5-1,4.3-3.2,2.8c-5.9-4-6.4-5.8-2.2-7.5 C140.3,47.3,140.9,47,141.6,46.9L141.6,46.9z M352.9,49.5c-1,0.3-3.7,6.1-5.8,12.6c-1.4,4.3-1.4,4.8,0,8.8c0.9,2.9,1.6,9.1,2.1,19.8 c0.4,8.6,2.2,36.1,3.9,61.2c5.7,82.2,5.9,84.4,5.4,103.2l-0.5,17.6l1.5-2.8c2.5-4.5,6.3-17,7.7-25.4c1-6.8,1.4-13.7,1.3-20.6 c0-12-0.8-24.5-6.5-102.8c-1.3-17.4-2.2-31.8-2-32.1s1.9,1.1,3.8,3c4.3,4.3,6.5,4.7,5.7,0.9c-1.5-6.7-15-42.6-16.4-43.4 C353,49.5,352.9,49.5,352.9,49.5L352.9,49.5z M275.1,85.5c0.7-0.1,1.2,0.2,2.1,0.9c1.1,1.2,1.7,2.8,1.5,4.4c0,1.7-0.3,3.2-0.7,3.5 s-2.2-0.7-4-2c-3.8-2.8-4-4.6-0.6-6.2C273.9,85.9,274.5,85.7,275.1,85.5z M110.8,128.3l-1.2,1.9c-1.1,1.9-2.1,3.9-3,6 c-1.9,4.4-2.4,4.9-3.9,3.1c-1.3-1.6-13.2-9.3-14.3-9.3c-0.9,0-6.5,10.3-7.7,14c-0.4,1.3,0.3,2.1,3.7,4.2c2.3,1.4,5.8,3.8,7.8,5.4 s4,2.8,4.6,2.8s2.3-2.5,3.8-5.6s3-5.6,3.3-5.6c2.8,1.6,5.5,3.4,8.1,5.3c4.2,2.9,7.9,5,8.3,4.6c1.2-1.2,7.1-13.1,7.1-14.2 s-7.2-7-13-10.3L110.8,128.3z M323,205.1c4,0,9.7,0.8,11.5,2.2c2.8,2.1,3.3,4.2,1.4,5.6s-3.9,1.3-9-0.4c-4.5-1.6-8.2-4.4-8.2-6.3 C318.8,205.5,320.6,205.1,323,205.1L323,205.1z M334.7,240.6c-0.6,0-1.2,0.2-1.8,0.4c-1.5,1-2.8,2.3-3.6,3.9 c-1.5,3.1-3,10.6-2.1,10.6c1-0.6,1.8-1.5,2.5-2.4c2.2-2.6,5-3.1,6.6-1.3c0.8,0.9,0.1,1.5-3.4,3.1c-5.1,2.3-6.6,4.3-7.7,10 c-0.8,4.3-0.8,4.1,4,29.4c1.1,6.3,1.8,12.7,2.1,19.1c0.7,15,2.2,10.4,2.2-6.8c0-13.7-1.3-22.3-5.1-34.4l-1.5-4.9l2.5-1.6 c3.1-1.5,6.3-2.8,9.6-3.7c6.5-2,7.2-2.4,8.6-5.1c0.8-1.4,1.3-3,1.5-4.6c0-2.4-5-7.5-9.9-10.1C337,241.1,335.7,240.6,334.7,240.6 L334.7,240.6z M181.2,248.4c-0.5,0-2.1,2.6-3.7,5.6c-1.6,3.1-3.1,5.5-3.4,5.2s-3.8-2.6-7.7-5.2c-2.5-1.8-5.1-3.4-7.8-4.9 c-0.7,0-7.9,13.8-7.9,15.2c0,0.4,1.5,1.8,3.4,3s5.5,3.8,8.1,5.7c5.5,4,5.1,4.1,9.3-4.1l2.4-4.6l2.2,1.4c1.2,0.8,4.6,3.1,7.6,5.2 s5.7,3.8,6.1,3.8c1.2,0,7.2-11.5,7.2-13.8c-0.1-1.4-0.8-2.7-1.8-3.6C192.9,255.2,182.2,248.4,181.2,248.4L181.2,248.4z M233,252.4 c-1.6-0.1-3.1,0.8-4.8,2.5c-1,0.9-1.8,2-2.3,3.2c0,0.4-0.8,1-1.9,1.4s-2.9,2.7-4.5,5.8c-1.4,2.6-2.9,5.2-4.6,7.6 c-2.3,3.1-9.1,8.4-16.6,13c-5.2,3.2-27.7,13.9-40.5,19.2c-2.5,1-4.9,2.1-7.2,3.4c-1.7,1.2,2.6,0.5,18.8-3.3 c15.5-3.6,24.5-7.6,34.8-15.2c7.8-5.8,11.4-10,14.6-16.6c1.4-3,2.6-5.5,2.8-5.7s1.5,0.8,3.1,2.2c3.6,3.2,8.6,5.7,11.1,5.7 s4.4-3.4,5-9.2c0.6-5.5-0.1-7.7-3.1-11.2C236.2,253.4,234.6,252.5,233,252.4L233,252.4z M231.7,260.7c1.7-0.1,3.2,1,4.7,3.4 c2.5,4,1.1,4.7-3.9,1.9c-4.6-2.6-5-3.5-2.6-4.8C230.5,260.9,231.1,260.8,231.7,260.7L231.7,260.7z M280.8,283.8 c-0.2-0.2-17.4,5.9-38.2,13.6s-39.2,14.5-40.9,15.1c-2.5,0.9-3.4,1.8-4.6,4.6c-0.7,1.5-1.2,3-1.5,4.6c0,1,0.3,1,2.2,0 c2.2-1.1,45.5-18.1,68.2-26.8c11.8-4.5,12.5-4.9,13.9-7.8C280.6,285.6,281.1,284.1,280.8,283.8L280.8,283.8z"/>
</svg>