<svg xmlns="http://www.w3.org/2000/svg" width="247" height="416">
<path d="M32.4,414.5c-10.2-2.5-18.6-8.3-23.9-16.4C1.6,387.5,0,381.1,0,364c-0.2-11.1,1.3-22.2,4.4-32.9c2-6.8,7.2-18.8,10.6-24 l1.5-2.4l-2.6-2.4c-5.9-5.6-5.7-23.5,0.6-42.8c1.9-5.9,10.2-23.5,10.8-22.9c0.2,0.2-1.1,5.2-2.9,11.1c-6.3,20.7-7.7,30.2-5.7,37.5 c2.3,8.4,9.3,7.3,15-2.3c1.1-1.9,2.2-3.3,2.4-3.1c0.6,0.6-2.6,12.5-4.5,16.6c-2,4.5-5.1,7.7-8,8.3c-1.6,0.4-2.6,1.3-3.5,3.5 c-9.6,23.5-11.9,32-12,44.8c0,7,0.3,9.6,1.9,14.6c10.9,33.4,47.2,36.7,101.7,9.4c14.3-7.2,32.3-18.1,35.7-21.8l1.9-2l-2.7-1.7 c-3.3-2-14.9-5.7-37.3-11.9c-9.4-2.6-17.5-5.1-18-5.6c-1.1-1.1,0.5-11.6,2.3-14.3c2.5-3.9,13.7-7.7,54.1-18.7 c15.3-4.1,27.3-7.8,26.8-8c-2-0.6-4.1-0.9-6.2-1.1c-2.9-0.3-17.1-2.5-31.6-4.8s-28-4.5-30.1-4.8c-5.7-0.8-5.9-1.2-4.4-5.7 c0.9-2.5,1.9-5,3.1-7.5l1.8-3.6l9.6-3l19.6-6.2c13.2-4.2,17.8-6.4,19-9.1c1.5-3.4,1.2-33.4-0.6-60.5c-4-59.2-4.8-71.1-4.8-76.8 c-0.1-3.9-0.5-7.8-1.3-11.6c-0.7-3.1-1.4-6.5-1.6-7.6c-0.4-2,3.8-14.6,5.7-17.2c1-1.4,1.1-1.3,2.3,0.9c2.7,5.3,14.5,37.8,14.8,41 c0.5,4.6-1,4.5-5.3-0.2c-1.8-2-3.4-3.3-3.6-3s0.7,14.2,1.9,31c3.4,46.2,4.2,63,3.6,74.4c-1.2,24.7-4.2,36.1-12,46.3 c-1,1.3-2,2.6-2.9,4c1.1,0.4,2.2,0.7,3.4,0.8l14.2,2.1c22.6,3.3,57,6.4,71.2,6.5c9.8,0,9.8-0.1,6.4,9.6c-1.5,4.4-3.1,8.4-3.6,8.7 c-1.5,0.6-3.2,1-4.8,1.2c-15.6,2.1-90.3,20.4-107,26.2l-3,1.1l9.1,3c10.3,3.4,15.8,6.5,18.2,10.4c1.4,2.1,1.6,3.6,1.3,8.2 c-0.5,9.6-5,18.5-14.1,27.9c-12.7,13.2-51.4,33-77.4,39.8c-7.7,2-10.7,2.4-18.2,2.3c-4.3,0-8.7-0.3-12.9-1.1L32.4,414.5z M184.4,372.1c-5.3-2.3-6.6-8.9-3.3-16.1c1.1-2.3,4.9-7.3,8.8-11.5s6.9-7.8,6.9-8.2c0-2.1-12.2-3.1-16.1-1.2c-2.1,1-1-2.1,2.1-5.6 c2.5-2.9,2.8-3,8.5-3.3c7.6-0.3,11.4,1.3,11.8,5.2s-1.3,6.3-10.6,16.4c-4.6,5-8.8,10.1-9.2,11.4c-1.2,3.3,1.6,5.8,7.2,6.5 c4.7,0.6,15.4-0.6,21.3-2.4c1.8-0.6,3.6-0.9,5.4-1.1c1.3,0,1.1,0.4-1.2,2.5C207.9,371.5,191.9,375.4,184.4,372.1L184.4,372.1z M59.2,368.4c-1.1-1.3-1.8-2.9-2.1-4.5c-0.8-4,0.1-14.2,1.7-19.5c1.4-4.8,6.8-17,7.3-16.5c0.2,0.2-1,4.8-2.6,10.2 c-1.9,6.4-2.9,11.7-3,15c-0.1,4.6,0.1,5.3,2.1,7c2.7,2.3,4.6,1.6,7-2.6c2.1-3.5,2.5-3.5,1.8,0.3C69.7,367.8,63.7,372.9,59.2,368.4 L59.2,368.4z M193.4,254.5c-0.3-0.7-0.1-4.3,0.3-7.9c1.6-14.1,1.3-21.9-4.8-109.8c-1.7-25.1-3.5-52.8-4-61.6 c-0.5-10-1.3-17.7-2.1-20.7c-1.2-4.4-1.2-5,0.1-9.2c2.3-7.2,5.2-13.3,6-12.5c1.8,1.9,15.1,37.7,15.8,42.5c0.6,4.5-0.6,4.5-5.1,0.1 c-1.9-1.8-3.6-3.2-3.8-3s1.4,25,3.7,55.2c3.3,44.5,4.1,58.8,4.2,76.4c0.1,23.6-0.5,28.7-5.1,41.2C195.4,253.5,194,256.1,193.4,254.5 L193.4,254.5z M61,240.2c-2.4-2.6-3.4-6.2-3.4-13.1c0-4.4-0.3-5.8-1.2-6.2c-2.1-0.8-1.5-5.2,1.2-7.8c1.3-1.3,2.8-2.1,3.2-1.9 s0.8,3.7,0.6,9.2c-0.2,7.8-0.1,8.9,1.5,10.9c2.1,2.8,4.5,2.7,7.6-0.2s3.3-5.1,1.8-12.4c-1.1-5.2-1.1-6.8-0.3-8.7 c0.5-1.3,1.3-2.3,1.6-2.3c0.9,0,2.3,5.4,3.5,13.2c0.3,2.8,1,5.6,1.9,8.2c1.6,3,7.3,3.4,8.4,0.6c0.2-0.6-0.7-3.3-2.1-6 c-3.2-6.3-3.9-13.1-1.6-15.9l1.6-1.9l0.5,3.5c0.6,3,1.4,5.9,2.5,8.7c2.3,5.9,2.6,11.5,0.8,15.8s-3.5,5.8-6.3,5.8s-4.6-1.1-6.6-4.6 l-1.5-2.6l-1.3,3.1c-1.8,4.1-3.8,5.8-7.5,6.2C63.3,242.1,62.5,241.8,61,240.2L61,240.2z M17.6,219.6c0-0.4,6.6-4.6,14.6-9.3 s16.9-10.2,19.8-12.2c6-4.2,13.6-10.5,13.6-11.2c0-0.3-1.3-1.2-2.9-2.1c-4.3-2.3-5.9-4.8-5.9-9.2c-0.1-2.6,0.7-5.1,2.3-7.2 c4-5.9,11-9.5,14.3-7.4c2.4,1.5,2.7,8.8,0.6,16.9c-0.4,1.7,0,2.3,2.3,3.9c1.6,1,2.8,2.4,2.8,3c0,1.5-3.1,7.5-3.8,7.4 c-0.9-0.4-1.8-0.9-2.6-1.6c-2.8-2.2-3.5-2-6.3,1.5c-5.1,6.5-18.1,15.8-28.5,20.3C30.2,216,17.6,220.4,17.6,219.6L17.6,219.6z M70.4,174c0.1-1.6-0.4-3.2-1.5-4.4c-1.3-1.2-1.8-1.3-3.8-0.3c-3.4,1.6-3.2,3.4,0.6,6.2c1.8,1.3,3.7,2.2,4.1,2S70.4,175.7,70.4,174 L70.4,174z M37.1,139.9c1.4-5.8,2.6-6.7,14.9-11.1c6.4-2.3,24.7-9.1,40.8-15s29.3-10.7,29.5-10.5s-0.3,1.7-1.1,3.4 c-1.3,3-1.7,3.2-14.7,8.1c-9.9,3.8-57.9,22.6-68.9,27C36.8,142.2,36.7,141.8,37.1,139.9L37.1,139.9z M105.6,86.8 c1.9-1.5,9-5.6,27-15.6c13.1-7.3,11.3-8.6-12.6-9c-10.2-0.2-16.5-0.6-16.7-1.1c-0.3-1,5-10.1,7.7-13c3.3-3.6,6.5-4.2,21-4.2 c18.2,0.1,26.4,2,26.4,6.3c0,3.8-11.1,19.2-18,25c-2.3,1.8-4.7,3.4-7.4,4.6c-3.7,1.4-27.7,8.6-28.8,8.5 C103.9,88.4,104.5,87.6,105.6,86.8L105.6,86.8z M130.8,37c0.3-1,1-2.9,1.6-4.3c1.2-2.8-4.7-0.4,63.9-25.9C207,3,215.7-0.1,215.9,0 c0,1.1-0.3,2.2-0.7,3.2c-1.1,3.5,0.1,2.9-26.8,13.1c-11.4,4.4-29,11.2-39.1,15.2s-18.4,7.3-18.6,7.3S130.5,38,130.8,37L130.8,37z"/>
</svg>