<svg xmlns="http://www.w3.org/2000/svg" width="378" height="298">
<path d="M45.2,296.9c-8.8-2-15.4-7.1-20.1-15.3c-4.2-7.4-5.1-11.6-5.1-25.2c0-13.3,1.4-22.2,5.5-34.2l1.9-5.6l-4.1-0.5 c-5.9-0.8-9.1-2.4-13.8-6.8c-2.9-2.8-5.2-6.1-6.9-9.7c-2.6-5.7-2.7-6.1-2.7-15.8c0-7.8,0.4-11.5,1.9-16.8 c2.9-9.5,6.5-18.8,10.8-27.8l1.9-3.8l-1.8-2.2c-4.7-5.5-4.7-21.4,0.1-38.1c1.8-6.5,11.1-27.1,11.9-26.3c0.2,0.2-0.9,4.5-2.5,9.5 c-6.5,21.1-8.2,33.2-5.6,39.5c1.1,2.7,4,5.3,5.8,5.3c1.6,0,6.6-4.8,8.8-8.6c1.1-1.9,2.2-3.4,2.4-3.2c0.6,0.6-2.3,12.1-4.1,16.1 c-1,2.3-2.4,4.4-4,6.2c-2.1,2.1-3.2,2.6-7.1,3.1c-1.1,0.2-2.5,3.1-5.9,12.6c-10,28.4-10.7,38.9-3.1,46.8c3.9,4,8.5,5.2,14.7,3.6 c9.9-2.5,13.3-5.4,47-40c17.3-17.8,41-33.7,62.6-42.1c3.2-1.2,5.7-2.5,5.6-2.7c-5.2-9.7-6.2-12.6-6.2-18.4c0-13,7.6-21,18.8-19.8 c9.6,1,30.5,15,33.6,22.6c1,2.4,0.9,3.3-0.9,9.6c-0.8,2.8-1.7,5.6-2.7,8.3c-0.5,0.9-5.7,2.9-14.8,5.7l-14,4.3v3.3 c0,6.6-2.2,7.9-4.3,2.6c-1.6-4.1-1.3-4.1-18,3.4c-30.3,13.7-36.9,18.9-78,61.6c-10.5,10.8-13.7,13.7-17.6,15.6l-4.9,2.4l-1.8,6.8 c-4.5,17-5.2,27.7-2.5,36.4c1.4,4.5,2.5,6.2,6.3,10c5.7,5.7,12.1,8,22.1,8.1c19.1,0.1,46.3-15.1,71.8-40.2 c11.6-11.4,14-15.2,12.6-20.3c-0.8-2.9-0.8-2.9-4.2-2.3c-4.7,0.5-9.5,0.7-14.2,0.6c-10.5,0-11-0.1-15.5-2.4c-3.7-1.9-5.1-3.2-6.6-6 c-1.7-3.2-1.9-4.3-1.6-10.2c1.1-19.5,18.5-33.9,31.1-25.9c4.5,2.9,10.8,10.3,14.7,17.5c1.6,3,3.1,5.6,3.2,5.7 c0.5,0.6,10.6-4.6,19.9-10.2c5.2-3.1,10.1-5.7,10.7-5.7c1,0,1.1,1,0.6,5.6c-0.5,4.9-0.3,6.1,1.2,9.2c3.1,6.2,9.6,10.1,16.6,10 c2.8,0,11.6-2.2,12.5-3.2c0.4-0.4,0.1-3.1-0.7-6.2c-3.8-15.1,1.9-32.1,15.2-45.6c5.9-6,9.7-7.5,14.1-5.6 c10.7,4.4,12.9,34.6,3.8,50.8c-1.4,2.4-2.3,4.5-2,4.8c1,1,19.5,1.8,23.7,1c5.3-1,11.9-4.2,14.8-7.2c3.1-3.2,3.8-10.5,2.8-28.8 c-0.7-12.2-5.1-76.6-6.8-100c-0.2-3.3-0.8-13-1.1-21.6c-0.5-10.9-1.1-16.8-2-19.5c-0.8-2.1-1.1-4.3-0.8-6.6c0.6-3,5-14,6-15 c0.4-0.4,1.2,0.3,2,1.7c2.4,4.6,14.8,38.3,15,41c0.4,4-1.4,3.9-5.3-0.2c-1.9-2-3.7-3.4-4-3.2s-0.3,2.1,0,4.1 c0.4,3.2,4.6,61.7,6.8,94.3c2.1,30.9,0.1,47.5-7.5,63c-4.6,9.4-10.9,15.6-17.9,17.6c-8.4,2.5-32.2-0.4-41.1-5c-2-1-2.5-0.9-7.8,2.4 c-8.5,5.3-15.4,7.2-23.5,6.7c-7.2-0.5-11-1.8-14.9-5.1s-5.7-7.6-5.7-13c0-2.6-0.2-4.9-0.5-5.2s-3.7,1.6-7.6,4.2 c-3.6,2.4-7.2,4.5-11,6.5c-3.9,1.9-3.9,1.9-4.5,6.4c-0.6,5.3-3.4,13.9-6.5,20c-7.7,15.4-38.8,43.4-60.2,54.1 C67.7,296.8,54.6,299.1,45.2,296.9L45.2,296.9z M128.1,196.1c1-1-4.2-6.2-8.1-8.1c-3.4-1.7-4.8-1.9-7.7-1.5c-4.2,0.7-6.7,2.9-6,5.4 s1.3,2.9,4.8,4.2C114.2,197.2,126.9,197.2,128.1,196.1L128.1,196.1z M225.7,190.6c4.3-2.4,9.7-6.9,11.2-9.1s0.6-6.9-3-14.5 c-2.8-5.9-4.5-7.2-7.7-5.5c-2.7,1.4-9.5,8.4-12.9,13.2s-3.2,7,0.8,11.2c2.6,2.7,7.5,6.5,8.5,6.5 C222.6,192.4,224.1,191.6,225.7,190.6L225.7,190.6z M158.2,108.2c3.6-1.4,6.2-2.8,6.2-3.5c0-3.6-22.5-11.5-24.3-8.5 c-0.2,0.3,1.2,4,3.1,8.1l3.5,7.4l2.6-0.6C152.3,110.3,155.3,109.4,158.2,108.2z M267,274.6c8.7-10,10.9-14.3,8.6-17 c-1.2-1.4-4.2-1.6-6.5-0.4c-1.3,0.7-1.5,0.6-1.5-0.8c0-2.3,2.9-7.7,4.4-8.3c2.4-0.9,6.6-0.5,7.9,0.8c1.6,1.6,1.7,8.2,0.1,12 c-2,4.9-7.7,12.2-12,15.5c-1.5,1.2-3.1,2.3-4.8,3.2C262.9,279.6,264.6,277.3,267,274.6L267,274.6z M220.5,274.7 c8.4-9.8,10.5-13.5,9.7-16.6c-0.6-2.1-3.7-3-6.4-1.8s-3.1,0.7-1.5-3.5s3.8-6,7.3-6c4.3,0,5.6,1.6,5.5,6.9c0,6.3-3.1,11.8-10.5,19.3 C218,279.7,215.4,280.8,220.5,274.7L220.5,274.7z M154,267.1c-4.2-2.9-7.7-5.5-7.8-5.9c-0.4-1.1,6.4-14.6,7.5-15 c0.6-0.2,4.5,2,8.7,4.8l7.6,5.2l2.8-5.6c1.5-3.1,3.3-5.6,3.9-5.6c1.6,0,15.6,9.5,15.7,10.6c0,0.9,0,1.7-0.1,2.6 c-0.2,2.1-6.5,13.2-7.5,13.2c-0.9-0.3-1.8-0.8-2.5-1.5c-2.2-2-12.5-8.9-13.1-8.9c-0.3,0-1.7,2.5-3.2,5.6s-3.1,5.5-3.6,5.5 S158.1,270,154,267.1L154,267.1z M316.9,248.8c0.6-18.4,0.4-21.3-4.9-98.4c-2-28.2-3.9-58.1-4.3-66.6c-0.5-10.5-1.2-16.7-2.1-19.8 c-1.4-4.3-1.3-4.5,0.3-9.5c2.7-8.2,5-13,5.8-12.2c1.5,1.5,15.2,37.7,16.4,43.3c0.8,3.8-1.4,3.5-5.7-0.8c-1.9-1.8-3.6-3.2-3.8-3 s1.4,24.5,3.5,54c5.5,76.7,5.7,81,4.8,92.1c-0.5,5.6-1.4,11.2-2.5,16.7c-1.7,7.2-5.7,18.5-7.1,20 C316.7,265.3,316.6,259.1,316.9,248.8L316.9,248.8z M69.9,241.8c-1.5-2.3-1.6-3.5-1.3-10.6c0.1-4.5,0.8-8.9,2.1-13.1 c2.1-6.3,6.3-15.6,6.8-15.2c0.2,0.2-0.9,4.7-2.5,9.9c-4.1,13.8-3.9,21.8,0.6,23.2c1.9,0.6,4.1-1.1,6.5-4.8l1.5-2.4l-0.5,3.2 c-0.8,4.6-3.5,10.7-5.2,11.6c-1.2,0.5-2.6,0.8-3.9,0.8C72.1,244.4,71.2,243.8,69.9,241.8L69.9,241.8z M147.5,166.2 c-2.5-2.9-3.1-5.1-3.1-11.7c0-6-0.2-6.9-1.7-7.9c-1.2-0.6-1.7-2-1.2-3.2c0.7-2.6,3.6-6.3,5-6.3c1.2,0,1.3,0.2,1.4,11.7 c0.1,6,0.4,7.6,1.6,9c2.2,2.4,4.2,2.1,7.4-1s3.3-4.5,1.8-13.2c-1-5.6-0.4-9.9,1.3-10c1.1-0.1,2.8,6.1,3.6,13.4 c0.8,7.1,2.8,10.1,6.5,10.1c4.1,0,4.5-1.8,1.5-8.2c-3.1-6.7-3.7-13.2-1.4-15.4c1.2-1.2,1.4-1.1,2.1,2.2c0.4,1.9,1.8,6.2,3.1,9.6 c2.1,5.7,2.2,6.4,1.3,10.6c-1.4,6.5-3.6,9.3-7.4,9.3c-2.4,0-3.5-0.5-5.1-2.5c-0.9-0.9-1.6-2-2.1-3.2c0-1.7-1.4-0.5-2.2,1.9 c-1.4,3.8-3.5,5.4-7.5,5.9C149.6,167.6,148.5,167.4,147.5,166.2L147.5,166.2z M20.4,156c0-0.2,6.7-4.4,14.9-9.2 c17.3-10.3,22.3-13.6,29.1-19.3l4.9-4.1l-3.9-2.7c-6.4-4.3-7.3-9.3-2.9-16c4.3-6.6,12.6-10,15.2-6.4c1.3,1.8,1.4,7.4,0.2,13.6 c-0.8,3.9-0.8,4.7,0.3,5.3c1.1,0.7,2.1,1.4,3.1,2.2c1.7,1.4,1.8,1.7,0.9,3.8c-0.6,1.4-1.4,2.8-2.2,4.1l-1.2,1.8l-5.5-4.2l-5.8,5.9 c-9.4,9.6-18.7,15.4-34.9,21.5C22.2,156.3,20.4,156.8,20.4,156L20.4,156z M73.6,112c0.7-2.6-1.2-6.4-3.3-6.7c-1.3,0-2.6,0.5-3.6,1.3 c-1.7,1.4-1.8,1.7-0.7,3c1.2,1.5,5.6,4.4,6.6,4.4C72.9,114,73.3,113.1,73.6,112L73.6,112z M216.8,129.2c-2.4-2-5-3.9-7.6-5.6 l-7.2-4.9l3.5-7.4c1.9-4.1,4.1-7.5,4.8-7.7s4.6,2.1,8.7,4.9l7.5,5.2l5.9-11.8l2.6,1.3c1.4,0.7,5.2,3.2,8.4,5.4 c5.6,3.9,5.8,4.2,5.4,6.8s-6.4,13.7-7.4,13.7c-1.2-0.6-2.3-1.4-3.4-2.3c-4.2-3.3-12.1-8.4-12.4-8c-0.1,0.2-1.6,2.8-3.2,5.7 c-2.7,5-4.5,6.5-5.6,4.7L216.8,129.2z M216,78.8c0.6-1,11.7-7.5,24.6-14.4c5.1-2.8,9.9-5.7,10.7-6.5c1.2-1.3,1.2-1.5-0.3-2.3 c-2.7-1.5-17.5-2.5-27.5-2c-7.8,0.4-9.4,0.3-9.4-0.6c0-0.6,1.7-4,3.8-7.5c5.6-9.3,7.1-10,23.8-10c13.6,0,21.6,0.9,25.3,2.8 c3.4,1.8,3,4.6-1.6,11.6c-6.7,10.1-13.6,17.4-18.9,20.1c-3.9,1.9-27.9,9.4-30.3,9.4C215.8,79.5,215.7,79.2,216,78.8L216,78.8z M68.7,78.1c0.2-0.4,6.1-4.1,13-8.1c15.9-9.4,26-16.1,30.8-20.6l3.8-3.6l-3-2c-4.6-3-5.8-4.9-5.8-9c0-4.6,2.5-9.1,7-12.6 c4.1-3.2,9.1-3.7,10.5-1.1c1.1,2,1.1,10.8,0,14.5c-0.8,2.6-0.7,2.9,2,5.2c1.6,1.3,2.8,2.9,2.8,3.4c0,1.2-3.1,7.4-3.7,7.4 c-1.1-0.5-2.1-1.2-3-2l-2.6-2l-6.8,6.6c-10.3,10-18.2,14.8-35.5,21.3C69.4,78.8,67.9,79.2,68.7,78.1L68.7,78.1z M121.2,33.5 c0-5.5-2.5-7.3-6.2-4.7c-2.5,1.8-2.2,3.2,1.2,5.5C120.2,37.1,121.2,37,121.2,33.5L121.2,33.5z M159.6,43.1c0-0.2,0.7-2.2,1.6-4.5 l1.6-4.2l40.6-15c22.3-8.2,41.1-15,41.6-15c1.6,0-2,6.3-4.1,7.2c-1,0.4-12,4.7-24.6,9.5s-30.4,11.8-39.8,15.5S159.6,43.3,159.6,43.1 L159.6,43.1z M291.6,43.1c0-0.2,0.7-2.2,1.6-4.5l1.6-4.2l40.6-15c22.3-8.2,41.1-15,41.6-15c1.6,0-2,6.3-4.1,7.2 c-1,0.4-12,4.7-24.6,9.5s-30.5,11.8-39.8,15.5S291.6,43.3,291.6,43.1L291.6,43.1z"/>
</svg>