<svg xmlns="http://www.w3.org/2000/svg" width="389" height="411">
<path d="M165,408.9c-10.3-3.6-17.6-12-21.1-24.5c-1.6-5.9-1.5-24.6,0.3-33.2c1.9-9,5-19.2,7.5-24.7c3-6.5,3.1-3.4,0.3,7.3 c-7,26.2-6.2,39,3.1,48.5c7.4,7.5,20.2,10,33.5,6.7c17.8-4.5,40.9-19.4,60.9-39.3c11.5-11.4,13.4-14.6,12-19.8l-0.9-3.3l-3,0.9 c-4,1.2-22.2,1.2-26.3,0c-5-1.5-8.5-4.2-10.6-8.2c-4.9-9.5,2-28.8,12.5-34.9c1.2-0.6,2.4-1.4,3.4-2.4c0-0.2-8.7,4.1-19.4,9.6 c-28.6,14.7-41.6,20-52.8,21.2c-4.8,0.5-4.8,0.5-6.1,4.1c-0.7,1.9-1.7,3.7-2.2,3.8c-1,0.3-1.9-2.2-1.9-5.4c0-1.7-1.2-2.6-8.2-6.2 c-19.7-10.1-26.8-21.6-31.7-51.4l-2.2-13.2l-1.8,6c-2.5,8.3-6.1,14.4-13.1,22.4c-18.2,20.6-46.5,38.2-66.9,41.5 c-15.4,2.5-23.2-0.7-28.1-11.5c-1.5-3.3-1.9-5.7-2.1-14.2c-0.4-15.1,1.7-24.7,8.9-40c3.8-8,3.9-8.7,2.7-10c-5.4-6-5.2-24.2,0.4-42.4 c1.9-6,10.1-23.7,10.8-23.1c0.2,0.2-1.2,6-3.3,12.9c-7.5,25.2-7.8,36.7-1,40.4c2,1.1,2.4,1.1,4.4,0c1.2-0.7,3.7-3.5,5.6-6.3 c3.8-5.7,4.2-5,1.9,3.5c-3.1,11.5-7.3,17.1-13,17.1h-2.8l-3.4,9.2c-8.9,24-9.7,34.2-3.3,40.9c3.4,3.5,7,4.6,14.7,4.5 c13.4-0.2,29.3-6.2,45.6-17c14.9-9.9,26.2-20,34.8-31.5c4.6-6.1,5.1-9.1,3.6-19.2c-2.8-18.6-6.8-31.5-17.7-57.1 c-3.8-8.9-5.9-14.9-5.9-16.8c0-4.4,2.2-16.3,3.2-17.3s2.9,1.1,8.4,10.4c11.3,19.1,15.9,34.2,23.9,77.3c6.1,32.7,8.2,40.8,13.5,49.7 c2.6,4.5,14.4,15.6,15.4,14.6c-0.1-1.8-0.5-3.5-0.9-5.2c-4.1-17.5-0.9-34.7,7.8-42.1c10.3-8.8,20.1-9.2,48.2-1.7 c7.5,2,19.7,5.2,27.2,7.2c13.2,3.5,26.6,5.9,40.2,7.3c3.4,0.3,5.8,0.9,5.8,1.4c-0.9,3-1.9,6-3.1,8.9l-3.1,8l-7.5,1 c-7.5,1-17,3.9-22.3,6.7l-2.8,1.5l3.6-0.5c6.3-0.8,11.9,2.4,18.6,10.8c2.5,3.1,4.7,6.5,6.7,9.9c1.3,2.5,2.9,4.6,3.5,4.6 c2.6,0,10.9-5.4,14.9-9.7c5-5.5,6.8-10.1,6.8-18.2c0-4.8-2.8-49.1-4.8-75.6c-1.3-16.8-3.1-45.4-3.9-60c-0.5-8.7-1.2-14.9-2-17.3 l-1.3-3.7l3.1-8.2c1.7-4.5,3.5-8.4,4-8.5c1-0.3,3.9,6.3,11,25.7c5.4,14.6,6.9,20.5,5.3,20.5c-0.5,0-2.7-1.7-4.9-3.7l-4-3.7v2.4 c0,1.3,0.5,9.8,1.2,18.7c7,95.4,7.3,102.6,4.9,115.4c-3.6,19.5-12.4,34.2-24.9,42.1c-4.3,2.7-5.1,3.6-5.1,5.5 c0,5.9-4.8,19.3-9.5,26.5c-3.8,5.7-19.4,21.9-28.8,29.8c-15,12.5-30,21.4-41.6,24.6C181.8,410.9,170.9,411,165,408.9L165,408.9z M247,309.6c1.1,0,2.3-0.3,3.3-0.8c1-0.6,0.6-1.3-1.9-4c-5.4-5.5-10.4-6.9-16.1-4.5c-2.3,1-2.8,1.6-2.8,3.5c0,1.4,0.6,2.7,1.5,3.7 c1.7,1.6,8.1,2.9,11.6,2.4C244.1,309.7,245.5,309.6,247,309.6L247,309.6z M175.2,291.3c3.3-0.8,9.6-2.9,13.9-4.5 c7.2-2.7,34.9-14.8,40.8-17.8l2.4-1.2l-2-0.8c-1.1-0.4-9.9-3-19.6-5.8c-28.9-8.2-42.5-10.2-49.5-7.2c-3.8,1.6-10.6,7.9-11.2,10.3 c-0.3,1.2,1.3,6.5,4.3,14.9c2.6,7.2,4.8,13.2,4.8,13.3C159.1,293.4,170.2,292.6,175.2,291.3L175.2,291.3z M342,399.8 c1.2-17.3,0.7-27.9-5-108.2c-1.5-21.6-3.2-47.1-3.6-56.8s-1.4-19.9-2.1-22.8c-0.6-2.5-1-5-1.2-7.6c0-2.9,5-16.6,6.3-17 c0.9-0.3,5.7,11,12,28.4c6.9,18.8,6.7,21.3-0.7,14l-3.8-3.8v3.2c0,1.8,1.8,28.2,4,58.8s4.2,60.8,4.5,67.2c0.8,17.9-1.5,33.9-6.9,48 c-1.4,3.5-2.9,6.4-3.3,6.4S341.5,406.4,342,399.8L342,399.8z M294.3,389.4c-2.1-3.5-2.1-12.6,0-21.1c1.5-6,7.1-19.1,7.8-18.4 c0.2,0.2-0.6,3.3-1.8,7c-4.9,15.4-5.3,22.5-1.5,25.4c2.6,2,4,1.4,6.8-3.1l2.4-3.7l-0.6,3.2c-1.6,8.8-4.5,13.2-8.9,13.2 C296.4,392,295.5,391.5,294.3,389.4L294.3,389.4z M154.3,380.1c0.4-1.4,0.9-2.9,1.5-4.2l1.5-3.5l40.9-15.1 c22.5-8.3,41.1-14.9,41.4-14.6s-0.2,1.8-1,3.5c-1.5,2.9-1.9,3.1-22.3,10.9c-11.4,4.3-29.8,11.5-40.8,15.9s-20.3,8-20.6,8 C154.5,380.8,154.2,380.5,154.3,380.1L154.3,380.1z M93,350.4c-3.3-2-4.2-3.9-4.2-8.3c0-5,3.1-10.3,11-18.9c3.6-3.9,6.6-7.5,6.6-7.9 s-1.8-1.2-4.1-1.8c-3.9-0.9-8-0.8-11.9,0.5l-1.9,0.6l1.9-3.5c2.7-4.9,6.1-6.5,12.6-6c7,0.6,9.3,1.8,9.6,5.1 c0.4,3.7-2.3,7.9-11.4,17.6c-4.2,4.5-8,9.1-8.5,10.2c-1.1,2.8,0.2,4.8,3.8,6c4,1.3,16.6,0.5,24.6-1.6c3.5-0.9,6.4-1.5,6.6-1.4 c0.6,0.6-5.2,5.3-8.8,7.1C110.9,352.3,97.8,353.4,93,350.4L93,350.4z M183.2,337.6c-4.2-3-7.7-5.8-7.8-6.2 c-0.3-0.8,5.1-12.8,6.4-14.4c1-1.1,3.4-0.1,9.8,4.4c5.6,3.9,7.7,5.9,7.6,7.3c0,1.7-6.6,13.9-7.6,14.1 C191.1,343,187.3,340.6,183.2,337.6L183.2,337.6z M230.6,225.5c2.1-16.7,1.8-25.4-4.3-112.3c-1.7-24.6-3.5-52.2-4-61.2 s-1.4-18.9-2.1-21.9s-1-6.5-0.8-7.8c0.7-3.7,5.4-15.1,6.1-15.1c1,0,3.1,5,10.1,23.6c6,16.1,7.8,22.8,6,22.8c-0.5,0-2.7-1.7-4.9-3.7 s-4-3.2-4-2.7s1.9,26.1,4.1,56.7c4.9,66.5,5.5,90.2,2.6,103.3C236,222.4,229.2,236.5,230.6,225.5L230.6,225.5z M136.2,193.9 c1.4-5.7,2.7-6.7,13.7-10.8c5.7-2.1,23.2-8.6,38.8-14.4c32-11.9,32.8-12.2,32.8-11.2c0,1.9-2.9,6.4-4.3,6.9 c-4.4,1.3-72,27.6-80.4,31.3C135.9,196.2,135.8,195.8,136.2,193.9z M303.1,186.5c0.4-1.5,0.9-2.9,1.5-4.2l1.5-3.5l12.3-4.5 c6.8-2.5,25.2-9.2,40.9-15.1s28.8-10.4,29.1-10.1s-0.2,1.8-1.1,3.4c-1.4,2.8-2.3,3.2-13.1,7.4c-16.6,6.4-61.4,23.9-65.9,25.8 C304.2,187.4,303.1,187.6,303.1,186.5L303.1,186.5z M20.8,146.1c0.6-0.6,7.1-4.6,14.4-8.9c16.1-9.5,25.8-16.1,29.9-20.2l3.1-3.2 l-3.6-2.4c-6-4.1-6.9-9.8-2.6-16.3c2.3-3.4,8.6-7.8,11.2-7.8c4.8,0,6.3,5,4.3,14.8l-0.9,4.7l3,2.5c2.7,2.3,2.9,2.7,2.2,4.7 c-0.6,1.5-1.3,2.9-2.1,4.2l-1.3,2l-2.8-2.1l-2.8-2.1l-5.8,5.8c-10.2,10.2-20.2,16.2-37.3,22.5C20.3,147.5,19,147.8,20.8,146.1 L20.8,146.1z M72.8,103.4c0.2-2.6-0.2-5.4-1.1-6.4c-1.2-1.5-4.2-1.2-5.8,0.6c-1.2,1.4-1.3,1.8-0.3,2.9c1.2,1.4,5.5,4.3,6.5,4.3 C72.4,104.8,72.8,104.2,72.8,103.4z M146.8,114.4c-0.4-7.1-1.3-14.2-2.5-21.2c-4.2-22.1-4.6-24.7-3.7-28.1c1.5-5.6,3.6-8.1,8-9.7 s4.7-2.6,1.3-3.8c-2-0.7-2.5-0.5-4.6,1.9c-1.3,1.5-2.6,2.5-2.8,2.2c-1.4-1.4,3.3-14.1,5.3-14.1c1.6,0-5-18.1-8.1-22 c-1.2-1.5-1.9-1.8-2.5-1.2c-0.6,0.5-1.4,0.8-2.3,0.9c-1.7,0-7.1-4.6-7.1-6c0.5-1.7,1.2-3.3,2.1-4.7c1.6-2.8,2.5-3.7,4-3.7 c6.2,0,12.3,8.5,14.8,20.5c1,4.7,2.3,6.1,2.3,2.5c0-2.8,4.1-18.5,5.7-21.6c1.7-3.3,5.1-6.3,7.1-6.3c1.6,0,5.3,3.5,6.1,5.8 s-0.3,7.1-1.7,7.6c-0.7,0.3-2-0.4-3.1-1.6c-4.6-5-6.7-1.9-10.8,15.9c-1.3,5.7-2.6,11.1-2.9,12c-0.4,1.3,0.1,1.8,2.3,2.6 c3.8,1.4,10.9,8.1,10.9,10.4c-0.2,1.7-0.6,3.3-1.2,4.8c-1.2,2.9-1.6,3.2-6.6,4.5c-3.3,0.9-6.5,2-9.6,3.4c-4.9,2.3-4.8,0.8-1.4,14.9 c2.8,11.9,4,23.3,3.5,32.4C148.4,125.9,147.5,126.6,146.8,114.4L146.8,114.4z M247.3,103c1.2-1,8.5-5.2,16.2-9.4 c15.7-8.5,18.9-10.6,17.6-11.9c-1.6-1.6-9.5-2.5-23.6-2.5c-16.5,0-15.6,0.7-9.7-8.8c5.7-9.1,6.1-9.2,24.9-9.2 c20.5,0,27.4,1.9,26.1,7c-0.9,3.7-8.9,14.7-15.2,21s-6.8,6.6-14.1,8.9c-9.4,3.1-22,6.6-23.4,6.6C245.6,104.8,246.1,103.9,247.3,103 L247.3,103z"/>
</svg>