<svg xmlns="http://www.w3.org/2000/svg" width="310" height="417">
<path d="M176.8,411.9c0.9-2.4,1.8-4.4,1.9-4.5s14.2-5.4,60.7-22.6c11.8-4.4,21.7-7.8,21.8-7.6s-0.3,1.7-1.1,3.4 c-1.4,3-1.6,3.1-21.9,10.9c-11.2,4.3-29.6,11.5-40.8,15.9l-21.4,8.5C175.5,416,175.7,414.8,176.8,411.9L176.8,411.9z M110.4,394.7 c1.3-1.9,2.7-3.8,4.3-5.5c8-9.2,10.1-13.8,7.6-16.4c-1.2-1.2-4.2-1.2-6.3-0.1c-3,1.6-1.7-3.9,1.9-7.8c2.3-2.5,8.1-2.6,9.4,0 c2.5,4.6-0.1,13.4-6.2,21C118.1,389.6,110.4,396,110.4,394.7L110.4,394.7z M229.9,372.6l-8.1-5.7l3.5-7.3c2.2-4.5,4.1-7.4,4.9-7.5 c1.5-0.2,14.4,8.3,15.7,10.4c0.7,1.1,0.1,2.8-2.7,8.3c-2,3.8-4,7.1-4.4,7.2S234.3,375.8,229.9,372.6L229.9,372.6z M262.1,375.5 c-3.5-1.8-4.4-3.5-4.5-8.2c0-6,2.6-10.6,10.8-19.2c3.8-3.9,6.8-7.4,6.8-7.7s-1.2-1.1-2.8-1.7c-3.2-1.4-9-1.5-12.1-0.3 s-3.3,0.5-0.8-3.3c2.8-4.3,6.6-5.9,12.5-5.3c2.4,0.2,4.8,0.8,7,1.7c2.1,1.1,2.5,1.8,2.5,4c0,3.4-2.3,6.8-12,17.3 c-8.3,9-9.4,11-8,13.5c2,3.7,15.6,4.2,28,0.9c7.5-2,7.8-2,6,0c-2.5,2.8-9,6.5-14.1,8.1C275.4,377.1,265.4,377.3,262.1,375.5 L262.1,375.5z M165.3,371.5c-0.3-1.2-0.5-2.5-0.5-3.8c0-2.3-0.4-2.7-4.6-4.5c-11.8-5.1-22.7-14.9-27.6-24.8 c-3.1-6.2-6.3-18.6-8.4-32.9l-1.4-9.2l-2.1,6.8c-2.7,8.7-6.3,14.5-14,23.1c-12.1,13-26.4,23.8-42.2,31.9c-11.8,5.9-19.9,8.3-30,8.8 c-8,0.4-8.6,0.3-12.6-1.7c-4.7-2.4-8-6.7-10.2-13.5c-1.1-3.2-1.2-6.1-0.9-15.7c0.5-14.1,2.6-22.5,8.7-35.4l4.1-8.6l-1.7-2.1 c-4.9-6.2-4-24.9,1.9-42.5c2.1-6.2,9.8-22.3,10.4-21.7c0.2,0.2-1.2,5.6-3.2,12c-7.5,24.6-8,36.3-1.9,40.9c2.1,1.5,2.3,1.6,4.9,0.3 c1.8-0.9,3.8-3,5.7-6.2c1.7-2.7,3.2-4.7,3.4-4.5c0.7,0.7-2.5,12.1-4.8,17.1c-2.7,5.7-5.8,8.1-10.3,8.1H25l-2.8,7.4 c-5.2,13.7-7.2,20.7-7.6,27.9c-0.6,8.9,1.2,13.2,6.9,16.5c3.4,2,4.3,2.2,11.7,2.1c16.8-0.2,36.4-8.9,57.6-25.5 c7.7-6,19.6-18.3,24-24.6c3-4.4,3.2-4.9,3.1-10.4c-0.3-14-6.7-36.8-17.5-62.2c-4-9.3-6.7-16.8-6.7-18.4c0-3.3,2.1-16.3,2.8-17.5 c0.2-0.4,0.7-0.7,1.2-0.8c1.3,0,7.5,10.2,12.5,20.4c8.8,17.9,12.1,30,19.6,70.4c5.9,31.8,9.3,42.9,15.8,51.4 c2.1,2.7,12,11,12.6,10.5c0.2-0.2-0.2-2.5-0.8-5.1c-2.7-11.7-2.1-25.7,1.6-33.6c2.8-5.7,7.4-10.3,13.2-13.1 c4.1-1.9,5.4-2.1,13.7-2.1c9.9,0,7.2-0.5,54,12c13.2,3.5,26.6,6,40.2,7.2c4,0.3,6.6,0.9,6.6,1.4c0,1.8-5.8,16.1-6.9,17 c-0.6,0.5-3.9,1.1-7.3,1.3c-4,0.3-8,1.1-11.8,2.2c-3.1,1-17.8,8-32.8,15.5c-31.7,16-40.6,19.5-54.9,21.6c-2.7,0.4-3,0.7-3.8,4 c-0.9,3.6-2.7,4.7-3.6,2.3L165.3,371.5z M194.2,340.9c5.4-1.8,17.4-6.8,26.8-11s18-8,19.2-8.5c2.7-1,2.8-1.9,0.4-2.5 c-1-0.2-9.4-2.6-18.8-5.3c-37.5-10.9-47.5-11.4-56.8-2.9c-5.6,5.1-5.7,5.9-1,18.3c2.2,6,4.1,11,4.1,11.2c0.2,0.9,0.5,1.7,0.8,2.6 l0.8,2.2l7.4-0.4C183,344.3,186.4,343.5,194.2,340.9L194.2,340.9z M292,334.1c0-8-1.4-17.9-4.7-34.9s-2.2-22.9,5.1-26.3 c1.4-0.7,2.9-1.3,4.4-1.7c1.6,0,0.2-2-2-2.8c-2-0.7-2.4-0.5-4.5,2c-1.2,1.5-2.5,2.6-2.7,2.3c-0.8-0.8,1-8.8,2.6-11.5 c2.1-3.6,6.5-3.8,11.5-0.4c4.8,3.2,7.8,6.8,7.8,9.3c-0.4,2.6-1.3,5.1-2.8,7.3c-0.1,0.1-2.8,0.9-6,1.8c-6,1.7-11.6,4.1-12.4,5.6 c-0.3,0.5,0.6,5,1.9,10.2c3.3,12.7,4.4,21.8,4,33.3C293.9,340.3,292.1,345,292,334.1L292,334.1z M72.5,289c6.9-8,9-12.1,7.7-15 c-0.8-1.8-1.4-2.1-3.5-1.8c-1.3,0.2-2.6,0.5-3.9,0.9c-1.2,0.5-1.2,0.2-0.5-2.7c1.2-4.8,3.9-7.3,7.8-7.3c7.8,0,7.7,10.5-0.3,21.2 c-3.3,4.4-10.3,10.8-11.8,10.8C67.4,295.2,69.5,292.4,72.5,289L72.5,289z M232.2,280c-5.6-2.8-12.8-10.1-15.8-16 c-0.6-1.4-1.4-2.8-2.4-4c-0.2,0-3.8,1.8-7.9,4c-27.4,14.6-47.4,13-55.4-4.4c-5-11-5.8-19.3-8.3-97.6c-1.6-48.2-2.7-59.9-7.6-80.1 c-1.2-4.4-2.1-8.8-2.8-13.2c0-2.7,4.2-14.5,5.2-14.8c1.7-0.6,6,11.5,8.3,23.3c3.5,17.9,5,39.1,6.5,90.9c1.9,64.4,2.5,70.8,7.5,78.3 c4.9,7.3,13.8,9.2,27.1,5.6c7.7-2.1,22.6-9.4,22.4-11.1c-0.1-0.6-1.2-7.8-2.6-16c-4.8-28.6-9.1-78.7-10.5-121.6 c-0.6-18.5-1.2-28.1-2-30.9c-0.6-2.1-1-4.4-1.2-6.6c0-3.2,5.5-17,6.7-16.7c1.8,0.6,16.6,40,16.6,44.2c0,2.9-1.1,2.5-5.6-1.7l-4-3.7 V92c0,13.2,3.9,78.1,6,99.5c1.9,20.3,5.7,42.9,7.4,44.5c0.3,0.3,3.1-0.1,6.2-0.9c7.5-2,16.6-2,20.9,0c7.1,3.2,11.1,12.3,10.9,24.8 c-0.2,10.9-3.3,18.2-9,21.2c-4,2.1-11,1.5-16.6-1.2L232.2,280z M247.1,261c1.9-3.5-4.3-7.4-11.7-7.4c-6.8,0-7.8,1-4,4.3 c3.1,2.9,7.3,4.5,11.6,4.3C245.5,262.3,246.6,262,247.1,261L247.1,261z M268.4,270.2c0.9-12.4,0.6-28.5-0.8-49.8 c-1.3-19.7-6.4-94.5-7.2-105.2c-0.2-3.3-0.8-12.3-1.2-20c-0.5-9.4-1.2-15.3-2.1-17.9c-1.3-3.7-1.3-4.1,0.3-8.8 c2.3-7,4.8-12.5,5.6-12.5c1.3,0,17,41.5,17,45c0,2.4-2,1.6-5.9-2.4l-3.7-3.8v3.7c0,2,1.8,28.8,4.1,59.6c5.3,72.8,5.4,85.2,1,103.1 c-1.6,6.5-5.9,17.2-6.9,17.2C268.1,278.4,268,275.4,268.4,270.2L268.4,270.2z M0,192.1c0-0.3,5.7-4,12.6-8.1s15.7-9.4,19.4-11.9 c6.7-4.4,16-11.9,16-12.9c0-0.3-1.3-1.2-2.9-2.1c-5.7-3.1-7.4-8.1-4.8-14.2c1.3-3.2,7.7-9.1,10.5-9.8c7-1.8,9,4.3,5.7,17.4 c-0.5,1.8-0.1,2.4,2.3,3.9c3.3,2.1,3.6,3.7,1.1,8.1l-1.7,3.1l-2.6-2c-0.9-0.8-1.9-1.5-3-2c-2.2,1.8-4.3,3.8-6.2,5.9 c-7.2,6.9-15.4,12.7-24.4,17C14.7,187.7,0,192.8,0,192.1z M52.8,146.4c0.1-1.6-0.4-3.2-1.5-4.4c-1.4-1.3-1.7-1.3-4-0.1 c-1.4,0.7-2.5,1.8-2.5,2.3c0,1.9,6,6.4,7.4,5.6C52.5,149.6,52.8,148.1,52.8,146.4L52.8,146.4z M178.6,180 c-6.4-2.6-5.4-19.5,2.2-36.5c1.3-2.9,2.6-5.1,2.9-4.9s-0.3,2.7-1.2,5.5c-4.5,14-5.4,23.3-2.5,26.2c0.7,0.8,1.6,1.3,2.6,1.6 c1.1,0,4.5-3.3,6.1-6c1.7-2.9,0.1,4.4-2,9c-1.3,2.8-2.6,4.5-4,5c-0.7,0.3-1.5,0.6-2.2,0.8L178.6,180L178.6,180z M236,174.1 c-6.3-3.2-4.7-21.5,3.3-37.6c0.7-1.6,1.6-3.1,2.6-4.6c0.1,0-1,4.2-2.5,9.4c-1.5,4.9-2.5,9.9-3.2,15c-0.4,5.1-0.2,5.9,1.5,7.9 c2.4,2.9,4.7,2.3,7.2-1.7c2.3-3.7,2.8-2.3,1.1,3.3C244,172.9,240.1,176.1,236,174.1L236,174.1z M92,139.5c0-2.5-5.6-18.1-7.7-21.3 c-1.6-2.6-2.2-3-3.1-2.2c-2.4,2-9.2-1.8-9.2-5.3c0-1.9,3.2-7.7,4.7-8.7c1.2-0.8,5.8,1.5,8.2,4.1c2.8,3.1,5.8,9.3,7.1,14.7 c1.3,5.9,2.2,7.4,2.7,4.8c1.8-8.6,4.8-19.9,6.1-22.4c2.8-5.5,7.1-7.1,10.2-3.8s3.6,5.1,2.6,8.6c-1,3.7-2.2,4-4.8,1.2 c-4.4-4.7-6.8-1.1-10.4,15.2c-2.6,11.4-3.5,14.3-5.2,15.7C92.3,140.8,92,140.6,92,139.5L92,139.5z M94.9,64.1c1-4.5,3-6.8,7.5-8.5 c20.5-7.9,76.9-28.5,77.3-28.2s-0.3,1.8-1.2,3.5c-1.6,3.1-1.7,3.1-24.6,11.8c-12.7,4.8-31.3,12-41.3,16.1 C94.8,66,94.4,66.1,94.9,64.1z M224,55c0.3-1.5,0.8-3,1.5-4.4l1.5-3.2l26.3-9.8l40.5-15.1c7.8-2.9,14.5-5,14.8-4.7s-0.1,1.9-1,3.5 c-1.5,2.8-2.4,3.2-25.2,11.8c-13,4.9-31,12-40,15.6l-17.4,7c-0.3,0.2-0.7,0.1-0.9-0.2C224,55.4,224,55.2,224,55L224,55z M177.2,42 c1.3-1.1,9.1-5.6,17.2-10.1c18.3-10,18.3-10,16.7-11.7c-1.8-1.8-15.3-3-26.9-2.4s-11.4,0.8-6.5-7.3c6.5-10.6,7.4-11,28.1-10.4 c15.1,0.4,19.1,1.1,22.4,3.8l1.9,1.6l-2.6,5.1c-3.2,6.3-12.2,17.6-16.7,21.1c-2.5,1.7-5.2,3.2-8,4.3c-4.3,1.6-20,6.3-25.4,7.5 l-2.4,0.5L177.2,42z"/>
</svg>