<svg xmlns="http://www.w3.org/2000/svg" width="394" height="404">
<path d="M167.1,402.8c-11.3-3.2-19.7-12.8-22.8-26.2c-2.4-10.1-1.2-27.5,2.9-42.2c2.3-8.1,6.3-18.4,7.2-18.4c1.1,0,0.9,1.1-1.6,10.7 c-6.9,25.9-6.2,39.5,2.5,48.5c10.3,10.6,27.8,11.3,47.9,1.9c16.2-7.7,30.8-18.2,46.6-33.8c11.9-11.8,13.8-14.7,12.7-19.6 c-0.2-1.1-0.6-2.2-1-3.3c-1.4,0-2.8,0.2-4.1,0.5c-2.1,0.5-8.6,0.7-14.4,0.5c-12.1-0.3-16.5-1.8-20.4-6.9c-2-2.7-2.2-3.4-2.2-10.5 c0-6.9,0.3-8.2,2.5-12.9c4.7-9.9,13.2-16.8,20.6-16.8c7,0,14.9,7,22.2,19.5c1.8,3.1,3.5,5.9,3.6,6.1c0.6,0.8,10.6-5,14.1-8.1 c2.3-2.1,4.2-4.6,5.6-7.3c3.6-7.4,3.6-7.9-1.2-74.6c-3-41.2-4.7-69.5-4.8-75.6c0-5.1-0.9-10.4-2.9-18.1c-0.4-1.6,4.7-16.7,6.1-18.2 c1-1.1,3.2,3.8,10.2,22.7c7.3,19.6,8.2,23.2,6.1,23.2c-0.8,0-3-1.5-4.8-3.4l-3.4-3.4v3.3c0,1.8,1.1,18.4,2.4,36.8 c5.2,72.1,5.7,83.6,3.6,95.5c-3.7,21.1-13.6,37.3-26.9,44c-2.7,1.4-3,1.8-3.5,6c-1.5,12-6.9,22.9-16.7,34 c-18.7,21-42.3,38.5-60.1,44.4C184.9,404,173.6,404.7,167.1,402.8L167.1,402.8z M251.6,302.2c0.7-0.7-2.3-4.1-6.4-7.1 s-10.5-3.2-13.8-0.4c-2,1.7-2.1,2.1-1.2,4c1.6,3.4,5.1,4.5,13.5,4.2C247.7,302.8,251.3,302.4,251.6,302.2L251.6,302.2z M329.2,362.6 c1.3-17.5,0.9-25.1-4.2-99c-4-58.3-4.3-62.7-5.1-77.2c-0.5-8.9-1.1-14.3-2-16.5c-1.3-3.2-1.3-3.5,0.7-9.2c2.8-8.2,4.4-11.9,5.2-11.9 c1.2,0,15.7,37.7,16.5,43.2c0.7,4.3-0.6,4.2-5.6-0.6l-3.9-3.8l0.5,8.4c0.3,4.6,2.1,30.9,4.1,58.3s3.8,55.5,4.1,62.4 c0.5,12.8-0.4,24.6-2.5,34.1c-2,8.8-6.8,21.2-8.1,21.2C328.8,372,328.8,367.8,329.2,362.6L329.2,362.6z M156.3,364.7 c1-3.3,3.6-7.9,4.4-7.9c0.4,0,18.8-6.7,40.9-14.8s40.2-14.7,40.4-14.6s-0.4,1.7-1.2,3.5c-1.4,3.2-1.5,3.2-17,9.1 c-11.6,4.4-56.8,22.1-67,26.2C155.9,366.5,155.8,366.2,156.3,364.7L156.3,364.7z M284.7,363.5c0.7-0.8,3.1-3.6,5.3-6.2 c2.2-2.5,4.2-5.2,5.9-8.1c3.1-5.9,0.4-10-4.9-7.4c-2.2,1.1-2.4,1.1-2.4-0.4c0-2.6,2.1-6.8,4.1-8.2c2.3-1.6,5.4-1.7,7.7-0.1 c2.7,1.9,2.5,8.6-0.4,14.6c-2.2,4.6-10.9,14.3-14.6,16.1C283.6,365,283.5,365,284.7,363.5L284.7,363.5z M100.2,340.5 c-3.5-1.5-5.1-4.2-5.1-8.5c0-5.3,2.9-10.5,10.8-18.9c3.8-4,6.8-7.7,6.8-8.1c0-2.1-10.5-3.4-14.8-1.8c-2.6,1-2.7-0.1-0.5-3.7 s5.5-5,11-5c6.6,0,10.2,1.9,10.5,5.6s-1.7,6.9-11.6,17.6c-9.2,9.9-10.1,12.3-6,15c3.2,2.1,16,1.9,25.3-0.5c3.9-1,7.2-1.6,7.4-1.4 c0.5,0.5-4,4.2-8,6.5C119.1,341.2,105.8,342.9,100.2,340.5L100.2,340.5z M155.4,311c-0.3-1.4-0.5-2.8-0.6-4.2c-0.1-2-0.7-2.6-4.2-4 c-11.1-4.6-22.5-14.3-27.3-23.2c-3.4-6.3-6.1-15.9-8.2-29.1c-2.6-16.2-2.4-15.6-4-9.3c-2.2,8.4-5.9,14.8-13.2,23.2 c-15,17-38.1,32.9-57.2,39.2c-6.8,2.2-19.2,4-23.2,3.2C4.2,304.2-2,290.7,0.6,270c1.1-9.3,3.5-18.3,7.2-26.9l3.1-7.1l-2.2-2.2 c-3.4-3.4-4.2-7.8-3.7-18.9c0.4-8.9,2.1-17.7,5.2-26c1.6-4.5,9.5-20.8,10.1-20.8c0.2,0-0.3,2.2-1.1,5c-5.9,20.2-7.2,24.9-8,30.4 c-1.9,12.8,2.8,21.8,9.6,18.2c0.8-0.4,3-3,4.8-5.7c3.7-5.5,4.1-4.7,2,3.4c-2.6,10.2-6.7,16.1-11.6,16.8c-1.7,0.2-2.4,1.3-4.5,6.7 c-6.6,16.7-8.8,30.3-5.7,36.1c3.4,6.3,9.3,8.7,19.6,8c15.8-1.1,32.6-8.5,52.4-23.1c8.4-6.2,19.4-16.9,25.3-24.6l4.5-5.9l-0.1-8.1 c-0.2-16.1-6.7-38-20.4-69l-4-9l1.3-8.3c1.6-10.1,1.9-11,3.2-11s7.3,9.1,12.3,18.9c8.1,16.2,12.6,32,18.9,66.3 c6.2,33.9,7.8,40.2,13,50.2c2.7,5.1,10.5,13.6,14.6,15.8c1.9,1,1.9,1.2,0.4-6.7c-2.5-12.9-1-27,3.7-34.2 c6.9-10.7,18.8-14.6,34.8-11.5c4,0.8,16.4,3.9,27.6,7s23.4,6.2,27,7.1c7.9,1.9,27.2,4.7,32.4,4.7c3.6,0,3.8,0.1,3.7,2.2 c0,1.2-1.4,5.4-3,9.4l-2.9,7.2l-6.1,0.5c-11.1,0.9-22.1,5.2-47.1,18.6c-22.8,12.2-39,18.8-50.7,20.6c-5,0.8-6.2,1.2-6.6,2.6 C157.7,312.7,156.2,314.3,155.4,311L155.4,311z M172.3,283.6c9.2-1.9,20.5-6.1,41.4-15.4c19.1-8.5,19.1-8.5,16.6-9.5 c-4.4-1.8-32.1-9.6-41.8-11.7c-19.8-4.4-26.2-3.6-34.1,4c-3.9,3.8-4.3,4.5-4,6.9c0.7,4.8,8.9,26.2,10.2,26.5 C163.1,285,166.5,284.8,172.3,283.6L172.3,283.6z M20.7,260.1c0-0.3,7.8-5.3,17.2-10.9c15.5-9.2,29.8-19.4,30.5-21.6 c0.1-0.4-1-1.5-2.6-2.4c-8-4.3-8-12.9,0.1-20.4c8.7-8,14.6-4,12.4,8.2c-0.5,2.9-1.1,5.7-1.3,6.3s0.9,1.8,2.4,2.8 c3.3,2.1,3.5,3.9,1.1,8.2l-1.7,3.1l-2.6-1.9c-0.9-0.8-1.9-1.4-3-1.9c-0.3,0-3.1,2.6-6.3,5.8c-7.4,7.2-16,13.1-25.5,17.4 C32.2,256.8,20.7,260.9,20.7,260.1L20.7,260.1z M73.5,214.9c0-4.2-1.7-6.4-4.3-5.6c-2.3,0.7-3.7,1.9-3.7,3.2c0,1.1,6,5.9,7.3,5.9 C73.2,218.4,73.5,216.8,73.5,214.9L73.5,214.9z M250,225.8c1.3-17.8,1-24.6-4.5-104.2c-1.7-24.9-3.5-51.9-4-60 c-1.3-22.5-1.4-24.3-2.8-28.1c-0.9-2.1-1.1-4.5-0.4-6.7c1.3-4.7,5.6-14.8,6.3-14.8s12.2,28.9,15.7,40c2.3,7.5,0.9,8.3-4.8,2.6 l-3.8-3.8l0.5,8.4c0.3,4.6,1.9,28.2,3.7,52.4c4.9,68,5.3,76.3,4.2,88.1c-0.6,5.9-1.6,11.8-3,17.6c-1.9,7.4-6.1,17.9-7.2,17.9 C249.5,235.2,249.6,231,250,225.8L250,225.8z M146.7,187c0.5-1.5,1.1-3,1.9-4.5c1.3-2.6,2.3-3,35.3-15.3c47-17.4,48-17.8,48-16.8 c-0.2,1.2-0.6,2.3-1.1,3.4c-1,2.4-2,2.9-11.4,6.5c-12.6,4.7-58.5,22.7-66.6,26.1c-3.2,1.3-6.1,2.4-6.2,2.4S146.4,188,146.7,187 L146.7,187z M308.3,143c0.5-1.5,1.2-3.1,1.9-4.5c1.4-3-4.8-0.4,64-26c10.3-3.8,18.9-6.8,19.1-6.5s-0.1,1.7-0.7,3.3 c-1.1,2.9-1.2,3-21.5,10.7c-11.2,4.3-28.3,10.9-38,14.8l-21.4,8.5l-3.9,1.5L308.3,143z M156.7,118c-0.1-8.5-1.2-17.3-4.2-32.4 c-2.9-14.9-3.1-20-0.7-24.7c1.4-2.7,2.6-3.8,6.2-5.4s4.3-2.2,3.4-3.1c-1.6-1.9-4.5-1.4-6.7,1.3c-1.2,1.4-2.3,2.3-2.5,2.1 c-0.6-0.6,1.3-8.7,2.6-11.2c0.5-1.1,1.3-2.1,2.3-2.8c1.1-0.6,1-1.5-0.9-7c-2.4-7.3-5.2-13.7-6.9-15.9c-1-1.3-1.4-1.4-2.9-0.4 s-2.1,0.9-3.9-0.1c-1.4-0.9-2.7-2.1-3.7-3.5l-1.6-2.2l1.8-3.4c2.7-4.9,3.6-5.7,6-5.1c5.4,1.3,10.6,9.1,13.1,19.5 c1.3,5.4,2.6,7.6,2.6,4.4c0-2.4,4.2-19,5.4-21.5c1.7-3.5,5.1-6.8,6.8-6.8c5.2,0,9,8.1,5.9,12.4c-1.1,1.5-1.2,1.5-3.5-0.7 c-1.3-1.3-3-2.2-3.9-2c-2.3,0.4-4.8,6.5-7.4,17.9c-1.3,5.7-2.6,11-2.9,11.8c-0.4,1,0.1,1.7,2.3,2.5c2.5,1.3,4.8,3,6.9,5 c4.4,4.2,5,6.3,2.7,11c-1.1,2.4-1.9,2.9-6.7,4.1c-6.4,1.7-13.6,4.8-13.6,6c0,0.5,0.9,4.2,2,8.4c3.2,12.4,4.7,24.5,4.2,34.9 C158.4,122.8,156.8,127.7,156.7,118L156.7,118z M199.9,110.2c-2.1-3.5-2.1-12.6,0-21.1c1.5-6,7.1-19.1,7.8-18.4 c0.2,0.2-0.8,3.9-2.1,8.2c-3.6,11.8-4.4,16.9-3.3,20.9c1,3.5,3,5.3,5.3,4.4c0.7-0.3,2.4-2.2,3.7-4.2c2.7-4.2,2.9-3,0.8,3.9 c-1.9,6.2-4.2,8.8-7.8,8.8C201.9,112.8,201.1,112.3,199.9,110.2L199.9,110.2z M95.1,105.7c-3.1-3.1-3.1-14.5,0.1-24.8 c1.7-5.4,7-17.2,7.5-16.7c0.2,0.2-0.4,2.4-1.3,5c-2.9,8.3-4.8,16.9-4.8,21.5c0,3.8,0.3,4.8,2,6.5c1.9,1.9,2.2,1.9,3.8,0.9 c1.4-1.1,2.6-2.4,3.7-3.9l1.9-2.7l-0.6,3.5c-0.7,4.5-2.4,8.5-4.4,10.5C100.8,107.6,97.4,107.6,95.1,105.7L95.1,105.7z M263.9,89.9 c0.9-1.1,5.4-3.7,25.1-14.6c8.2-4.5,10.8-6.3,10.8-7.5c0-1.7-5.6-2.5-21.4-3l-17-0.5l3.9-6.8c5.3-9.2,7.5-10.5,19.6-11 c15.9-0.7,31,1.9,32.1,5.4s-10.7,20.4-18.9,27c-3.3,2.6-13.8,6.5-27.8,10.2C264.7,90.7,263.2,90.9,263.9,89.9L263.9,89.9z"/>
</svg>