<svg xmlns="http://www.w3.org/2000/svg" width="386" height="278">
<path d="M225.5,276.1c0.6-0.7,6.3-4.3,12.7-8.1c36.8-21.7,43-26,53-37.1c12.4-13.6,14.7-19.2,13.9-33.1c-0.9-14.8-2.7-34.1-5.7-58.9 c-4.6-38.7-7.5-64.8-8-72.4c-0.1-2.8-0.4-5.6-0.9-8.3c-0.2-0.7-1.5,0.7-3.2,3.6c-7,11.6-16.1,20.9-23.1,23.5 c-4.9,1.8-21.6,6.8-26,7.6l-2.8,0.6l2.6-1.9c2.9-2,5.9-3.8,9-5.5c18.9-10.3,25.2-14.2,25.2-15.2c0-2.5-5.9-3.4-22.2-3.4 c-8.7,0-15.8-0.2-15.8-0.4c1.1-2.3,2.4-4.5,3.8-6.7c6.3-10.8,7.8-11.4,28.2-10.9c10.9,0.3,15.9,0.7,18.5,1.7c2,0.7,3.7,1.1,3.9,1 c0-1-0.2-2-0.6-2.9c-0.8-2.2-0.6-3.8,1.2-10.2c1.9-6.9,3.7-10.6,4.6-9.6s11.1,22,14.4,29.6c3.8,8.9,5.4,15.1,3.8,15.1 c-0.5,0-2.7-1.7-4.9-3.7l-4-3.7v3.9c0,2.2,1.1,13.3,2.4,24.7c6.3,54.7,7.2,63.2,8.1,74.8c2.9,37.5-4.6,62.8-24.8,82.9 c-5.5,5.4-11.8,9.8-18.8,13.1c-8.1,3.7-37.4,11.2-44,11.2C224.7,277.4,224.7,277.2,225.5,276.1L225.5,276.1z M97.8,273.5 c-4.6-2.8-5.5-9-2.3-15.7c0.8-1.6,4.8-6.7,8.9-11.3c7.1-7.8,7.4-8.3,5.8-9.2c-2.6-1.4-9.9-1.9-12.8-0.9c-3.5,1.2-3.9,0.6-1.8-3 c2.5-4.5,6-5.9,12.6-5.4c13.6,1,13.1,6.7-2,22.6c-9.4,9.9-10.4,12.1-7,15.2c2.5,2.3,17,2.1,26.1-0.3c8.5-2.3,9.1-2.2,5.8,0.6 c-4.3,3.5-9.3,6.2-14.7,7.7C110.2,275.5,100.8,275.3,97.8,273.5L97.8,273.5z M155.1,265.7c-0.5-1.3-0.7-2.6-0.8-3.9 c0-1.5-1-2.3-5.1-4.3c-12.3-5.8-22.3-14.8-27.2-24.8c-2.6-5.2-6.3-19.9-8.1-31.7c-0.4-3.1-0.9-6.1-1.6-9.1c-0.2-0.2-0.7,1.3-1.2,3.2 c-2.8,11-7.7,18.8-19.4,30.4c-16.1,16.1-36,28.6-54.1,34c-9.5,2.8-21.4,3.1-26.1,0.6c-4.3-2.3-6.3-4.6-8.9-10.3 c-2-4.2-2.3-5.9-2.5-14.4c-0.4-14.7,2.7-27.9,10.2-42.8c2.3-4.6,2.3-4.7,1-7.4c-1-2-1.4-5.2-1.6-12.1c-0.3-10.4,0.8-17.7,4.4-28.3 c2.3-6.8,9.7-22.3,10.4-21.6c0.2,0.2-0.9,4.5-2.4,9.5c-6.3,20.2-7.8,29.5-6.1,36.6c1.1,4.4,3.7,7.3,6.8,7.3c2.1,0,6-3.9,8.8-8.8 c2.4-4.2,2.6-2.9,0.9,4.5c-1.7,7.2-4.6,13.2-7.6,15.8c-2.3,1.9-3.2,2.2-6.7,2l-4-0.3l-3.5,9.6c-7.7,20.9-8.5,31.8-2.9,38.2 c7.7,8.6,33.2,4.8,54.5-8.2c17-10.4,34.6-25.8,42.2-37c3.1-4.6,3.2-4.9,3.1-11.2c-0.3-14.2-6.6-36.4-17.7-62.4 c-6.7-15.7-6.8-16-6.3-20.8c0.8-7.7,2.4-14.3,3.4-14.7c2.4-0.8,13.1,18.2,18.7,33.1c4.7,12.4,7.9,25.8,13.4,55.9 c6.5,35.3,10,45.8,17.8,54.4c3.8,4.1,11.1,9.9,11.1,8.7c0-0.4-0.4-2.2-0.8-4c-3-13.2-2.4-26.9,1.6-35.2c2.9-6.1,8-10.8,14.3-13.3 c3.6-1.4,6.1-1.8,12.1-1.7c8,0,7.7,0,54,12.2c13.8,3.6,28,6.2,42.2,7.6c3.6,0.4,4.6,0.8,4.6,1.8c-0.8,3.1-1.8,6-3.1,8.9l-3.1,7.6 L264,220c-12.1,1.2-21.2,4.8-45.8,17.9c-24.4,13-42.4,20.3-53.4,21.7l-5.1,0.6l-1.1,3.8C157.3,268.2,156.3,268.8,155.1,265.7 L155.1,265.7z M174.9,238.2c4.7-1.2,9.4-2.7,14-4.4c8.3-3.1,41.4-17.8,42.4-18.8s-26.1-9.1-44.4-13.1c-13.3-2.9-18.1-3.3-23.3-1.8 c-4.7,1.4-11,6.3-13,10.2c-1.1,2.2-1,2.8,2.3,11.7c1.9,5.2,4,10.8,4.5,12.6c0.4,1.5,1,2.9,1.8,4.2 C160.5,240.3,167.4,240,174.9,238.2L174.9,238.2z M338,238.6c0.5-19.7,0.3-22.2-5.4-104c-1.8-25.1-3.5-52.3-3.9-60.4 c-0.5-10-1.2-16-2-18.6c-1.2-3.5-1.2-4.2,0-8.3c1.8-6,4.9-13.1,5.9-13.1s7.2,15.8,13,32.4c5.4,15.5,5.2,16.8-1.7,10.4 c-2.1-2-4-3.4-4.2-3s1.2,21.5,3.1,47c5.8,79.2,6.3,87.9,5.2,99.4c-1.3,13.5-5.7,30.3-9.2,35.1C337.8,256.7,337.7,254.6,338,238.6 L338,238.6z M290.3,219.7c-2.8-17.1-5.8-25.1-13.5-36.7c-7.1-10.8-16.4-20.9-37-40.5c-37.1-35.3-42.6-41.6-58.6-67.7 c-1.7-2.9-3.8-5.7-6.1-8.1l-2.4-2V55c0-8.2,0.2-9.7,1.2-9.7c1.6,0,30.4,22,31.6,24c0.7,1.4,0.6,1.6-1.4,1.5 c-2.1-0.1-4.2-0.4-6.2-0.7c-1.4-0.3-2.8-0.5-4.3-0.4c-1.6,1.5,12.7,17.4,45.1,50c30.7,31,38.3,39.5,45.2,50.8 c9.8,16.1,12,26.7,9.5,45.7C292.2,226,291.5,226.8,290.3,219.7L290.3,219.7z M20.7,217.3c0.7-0.4,8-4.9,16.4-9.9 c14.9-8.9,26.3-16.8,29.8-20.6l1.8-1.9l-3.5-2.2c-5.7-3.6-7.1-8.9-4-15c1.2-2.3,5.6-6.6,8.1-7.9c2.9-1.5,7.3-1.1,8.2,0.6 c1.1,2,1,10-0.1,14c-0.9,3.1-0.8,3.2,2,5.6c1.6,1.3,2.9,2.8,2.9,3.2c-0.9,2.6-2.2,5.1-3.6,7.5c-0.1,0.1-1.6-0.7-3.1-1.9l-2.9-2.2 l-4.2,4.7c-5.2,5.9-15.1,13.2-23.2,17.3C35.2,213.6,16.1,220.4,20.7,217.3L20.7,217.3z M73.3,172.9c0.1-1.6-0.4-3.1-1.3-4.3 c-1.3-1.7-1.9-1.8-3.8-1.1c-3.3,1.2-3.1,4.1,0.5,6.6C72,176.2,73,176,73.3,172.9L73.3,172.9z M136.7,170.2c2-6.7,2.2-6.8,7.8-8.8 c3-1.1,21.2-7.8,40.6-15s35.6-13,36.1-12.9c0.7,0.2,0.6,1.1-0.3,3.2c-1,2.5-1.9,3.2-5.7,4.7c-12.4,4.6-49.5,19-63.4,24.6 C136.5,172.2,136.1,172.3,136.7,170.2L136.7,170.2z M127.1,135.8c0-8.4-1.3-18.2-4.5-34C119,84,120.3,78,128.5,74.2 c2.3-1.1,4.2-2.2,4.2-2.5s-1-1-2.1-1.5c-1.9-0.9-2.4-0.7-4.8,1.6l-2.7,2.6v-2.4c0-3.8,1.3-7.6,3.6-10.7l2-2.3l-2.5-7.1 c-2.7-7.7-5.8-14.3-7.1-15.1c-0.8-0.2-1.7-0.1-2.5,0.4c-1.4,0.7-2.2,0.5-4.8-1.1c-4.3-2.8-4.6-4.5-1.8-9.1c3.2-5.1,5.3-5.4,10.1-1 c4,3.7,7.4,10.5,8.7,17.7c0.8,4.4,2.2,6.6,2.2,3.4s4.4-19.3,6.1-22.8c3.1-6.1,7.4-7.2,11.1-2.9c1.8,2.2,2.1,3.1,1.8,6.1 c-0.6,5.2-1.6,5.7-5,2.6l-2.9-2.6l-1.8,1.7c-2.1,1.9-3.8,7.1-6,17.7c-0.6,3.3-1.5,6.7-2.4,9.9c-0.4,0.8-0.6,1.6-0.7,2.5 c0.1,0.1,1.5,0.8,3,1.6c4.2,2.1,8.7,5.9,9.9,8.3c0.9,1.8,0.9,2.6-0.2,5.6c-1.5,4.1-1.7,4.2-10.5,6.8c-3.7,1.1-7.7,2.7-8.8,3.5 l-1.9,1.5l1.7,5.9c3.6,12.4,4.6,19.7,4.6,33.9c0,9.3-0.3,14.1-1,15.2C127.3,143.1,127.1,142.1,127.1,135.8L127.1,135.8z M155.1,43.3 c0.5-1.5,1-2.9,1.7-4.3c1.5-3.4,2.1-4,5.4-5.2c2-0.7,20.4-7.4,40.7-15s37.3-13.5,37.6-13.1s-0.1,1.8-1,3.4 c-1.5,2.7-2.6,3.2-29.2,13.4c-15.2,5.8-33.5,13-40.8,15.9C156.4,43.7,155.1,44.2,155.1,43.3L155.1,43.3z M300,37.5 c0.3-1.5,0.8-3,1.4-4.4c1.3-3,1.7-3.2,12.9-7.3c6.4-2.3,24.4-9,40-14.8c34.4-12.8,31.5-12,30.8-9.5c-1.3,4.4-2.4,5.1-21.3,12.3 c-10.3,3.9-28.9,11.1-41.3,16.1C304.9,36.8,299.9,38.5,300,37.5L300,37.5z"/>
</svg>