<svg xmlns="http://www.w3.org/2000/svg" width="415" height="309">
<path d="M192.3,307.7c0.4-0.4,3.5-2.4,6.8-4.5c4.5-3.1,8.7-6.7,12.4-10.7c21.2-22.7,26.7-26,38.2-22.9c6.3,1.7,8.5,1,12-4l3.5-5 c1.4-2,2.2-0.5,1.2,2.2c-0.7,2.1-0.6,2.5,0.7,3.3c1.3,0.5,2.7,0.7,4.1,0.6c2.5-0.2,2.5-0.4,2.3-3.5c-0.3-1.8,0.2-3.7,1.3-5.2l1.6-2 l1,2.2c1.3,2.8-0.1,11.2-2.3,14.2c-1.7,2.3-6.2,3.1-9.8,1.6c-2.1-0.9-2.5-0.7-5.1,1.5c-3.6,3.2-8.3,4.5-12.2,3.4 c-2.3-0.5-4.6-0.8-7-0.8c-7,0-12.2,3.2-25.8,15.8c-10.7,9.9-12.7,11.4-17.1,12.9C192.8,308.5,191.1,308.8,192.3,307.7L192.3,307.7z M175.3,290.7c-10.1-2.8-19.9-6.6-29.3-11.3c-10.2-5.3-19.7-14.1-23.8-22.2c-3.2-6.3-6.7-19.7-8.5-32.8c-0.8-5.3-1.5-9.5-1.7-9.4 c-0.6,1.6-1.1,3.3-1.5,4.9c-2,7.5-5.9,14.5-12,21.5c-22.4,25.6-53.3,43.4-76.3,43.8c-10.8,0.2-15.6-2.6-19.7-11.6 c-2-4.4-2.2-5.9-2.5-15c-0.4-14.4,2-25.4,8.7-39.7c3.1-6.6,3.1-6.6,1.8-9.6c-2.9-6.6-1.2-25.8,3.3-39.2c1.9-5.6,10.7-23.6,10.8-22.1 c0,0.5-1.6,6.1-3.5,12.5s-4.1,14.4-4.8,17.7c-2.9,13.9-0.4,23.7,6,23.7c2.4,0,6.8-4.4,9.5-9.6c2-3.8,2-1.3,0.1,6.1 c-2.2,8.1-4.4,12.6-7.4,15.1c-2.3,1.9-3.2,2.2-7,1.9l-4.4-0.3l-3.1,8.3c-9.4,25.2-8,38.3,4.6,41.7c7.6,2.1,24.3-1,36.8-6.8 c18.3-8.5,39.5-25.2,50.7-40c5.3-7.1,6.1-9.8,4.9-18.3c-2.6-19.1-7.6-35.2-19.7-63.2c-4.4-10.2-4.4-10.3-3.9-16 c0.7-7.3,2.3-14.5,3.3-14.5c1.6,0,7.1,8.5,12.4,19.2c9.1,18.3,12.5,30.6,20,71.1c5,27.2,7.2,35.7,11.4,44.3 c2.3,4.8,10.3,14.6,11.2,13.8c0.2-0.2,0.1-2.2-0.4-4.4c-3.7-19.1,15.5-52.6,29.6-51.4c2.9,0.2,3,0.4,7.5,9.4s8.1,13.6,12.5,16.3 l2.3,1.4l7.4-13.4c11.1-20,20-33,28-41c11.7-11.6,20.3-15.3,32.3-13.7c8.7,1.2,15.4,4.5,22.4,11.2c9.4,9,11.7,16.1,8.9,28 c-1.6,7-5.1,13.1-11,19.6c-4.7,5.2-4.8,5.5-2.6,4.9c6.2-1.6,22.9-8.9,27.7-12.1c5.5-3.7,8.4-7.2,10.8-12.8c1.1-2.5,1.4-5.2,1.3-12.4 c-0.1-9.7-0.2-10.3-4.6-72.8c-1.5-21.8-3.1-46.8-3.5-55.7c-0.5-10.8-1.2-17.7-2.1-21.1c-1.3-4.7-1.3-5.2,0-9.5 c0.8-2.5,2.3-6.5,3.4-8.9c1.8-4,2-4.3,3-2.9c0.6,0.8,4.4,10.2,8.3,20.9c9.1,24.3,9.4,28.4,1.9,21c-1.9-1.8-3.6-3.2-3.8-3 s1,19.4,2.7,42.7c4.7,64.2,5.3,77.3,4.1,86.9c-1.1,9.1-3.5,18-7.2,26.4c-7.9,17.6-19.3,25.1-51.2,33.9c-25.5,7-57.3,9.5-71.4,5.6 l-5.4-1.5c-0.5-0.1-2.1,2.4-3.5,5.7c-4.1,9.4-6,8-3.5-2.6l1.1-4.7l-4.6-4.5c-3.4-3.4-6.2-7.4-8.2-11.7c-2-3.9-4.4-7.9-5.4-8.8 c-1.7-1.6-1.8-1.6-5.4,0.4c-6.6,3.5-16.2,16-16.3,21.1c0,8.5,13.8,19.8,34.2,27.8c2.4,0.9,4.7,1.9,6.9,3.1c0.6,0.5,0,7-1.5,17 c-0.4,2.8-0.7,3-3,3C180.7,292,178,291.4,175.3,290.7L175.3,290.7z M234.4,228.8c16.5-4.2,36.2-14.5,46-24c7.1-6.9,7.1-7.4-1.1-15.4 s-16.8-12.4-25.7-12.9c-7.9-0.5-12.4,0.9-19.9,6.2c-6.6,4.6-14,12.8-21.2,23.2c-4.6,6.7-13.4,21.6-13.4,22.6c0,0.3,4.6,1.4,11.2,2.5 C214.6,231.8,227.3,230.6,234.4,228.8L234.4,228.8z M286.6,274.5c0.6-3.1,4.1-8.2,7.1-10.5c2.1-1.6,2.2-1.6,6.5-0.2 c4.7,1.6,9.9,1.2,10.7-0.8c0.2-0.6-0.2-3.4-0.9-6.2c-1.3-4.8-1.3-5.2,0-7.7c1.5-2.9,1.9-2.7,4,2.4c1.5,3.8,5.7,8.8,7.2,8.8 c0.5,0,3.2-2.4,6-5.3c6.7-6.8,10.3-9.1,14.3-9.1c3.8,0,5.7,2.1,5.6,6.4c0,9-10.1,16.8-21.6,16.8c-3.8,0-4.2,0.2-5.7,2.8 c-2.1,3.6-2.5,3.5-2-0.2c0.4-2.5,0.2-3.2-1.5-4.4c-1.9-1.4-2-1.3-3.5,1.4c-3,5-6.6,5.9-16,4c-2.2-0.5-3.2-0.1-6.1,2 c-1.2,1-2.6,1.8-4,2.5C286.3,277.1,286.3,275.9,286.6,274.5L286.6,274.5z M335.3,259.5c4.5-1.7,7.5-4.1,6.6-5.4 c-0.7-0.7-1.6-1.1-2.5-1.3c-2.5-0.6-8.7,2.5-12.1,6l-2.2,2.3h2.9C330.6,260.9,333,260.4,335.3,259.5L335.3,259.5z M356.4,243.5 c0.5-18.8,0.3-22.3-5-98.8c-2-28.2-3.9-58-4.3-66.4c-0.5-10-1.2-16.4-2-18.7c-0.6-1.5-1-3-1.2-4.6c0-2.3,6-17.1,6.9-17.1 s6.2,12.6,12.6,30.4c5.9,16.5,5.8,18.7-1,12.4c-2.2-2-4.1-3.4-4.3-3s1.2,21.7,3.1,47.4c5.6,76.5,6.2,88,5.3,98.1 c-1.1,11.3-2.8,19.7-5.8,28C356.2,263.4,355.9,262.9,356.4,243.5L356.4,243.5z M25.1,238.9c0.9-0.8,7.9-5.2,15.6-9.8 c15.8-9.3,22.7-13.9,28.2-19.1l3.8-3.5l-3.6-2.2c-4.5-2.8-6.3-6.1-5.6-10.2c1.6-9,13.1-17.1,17.4-12.3c1.3,1.4,1.4,2.5,1,7.9 c-0.2,2.8-0.5,5.6-1,8.3c-0.4,1.8-0.1,2.4,2.4,3.9c1.6,1,2.9,2.4,2.9,3c0,1.8-4.1,8.5-4.7,7.7c-0.8-0.9-1.7-1.7-2.7-2.4l-2.2-1.7 l-4.6,4.9c-9.8,10.4-22.5,18-40.2,24.2C25.2,239.8,23.8,240.1,25.1,238.9L25.1,238.9z M77.5,193.9c0-2.4-2-5.6-3.5-5.6 c-1.2,0.3-2.3,0.9-3.2,1.7c-2.1,1.6-2.1,1.7-0.7,3.3c1.1,1.2,2.4,2.2,3.8,3.1C76.5,198.1,77.5,197.4,77.5,193.9L77.5,193.9z M140,170.9c0.3-1.5,0.8-3,1.4-4.4c1.3-3,1.7-3.2,12.9-7.3c6.4-2.3,24.4-9,40-14.8c34.4-12.8,31.5-11.9,30.8-9.5 c-1.3,4.4-2.4,5.1-21.3,12.3c-10.3,3.9-28.9,11.1-41.3,16.1C145,170.2,140,171.9,140,170.9L140,170.9z M151.7,129.6 c-0.5-10.7-1.6-17.9-4.6-32.4c-2.4-11.4-2.4-17.1,0-21.4c1.8-3.2,6.7-6.6,9.5-6.6c1.8,0,0.4-2-1.9-2.8c-2-0.7-2.5-0.5-4.4,1.8 c-2.8,3.4-3.4,3.3-2.8-0.4c0.8-4.8,2.8-9.7,4.4-10.8c1.4-1,1.4-1.3-1.1-8.6c-1.3-3.8-2.8-7.5-4.6-11.2c-1.9-3.4-2.2-3.6-5.4-3.6 c-2.7,0-3.9-0.5-6-2.6l-2.6-2.6l2.3-4.4c1.9-3.7,2.6-4.4,4.5-4.4c5.5,0,11.6,8.2,14.1,19c0.8,3.2,1.6,5.8,1.8,5.8s1.3-3.7,2.2-8.2 c2.5-11.5,3.2-13.6,5.2-16.7c2.6-3.9,5.5-5.4,8-4c3.2,1.9,4.8,5.6,4.2,9.2c-0.7,3.8-2.2,4.3-4.8,1.7c-1.2-1.2-2.7-2-3.5-1.9 c-2.2,0.4-4.7,6.6-7.3,17.9c-1.3,5.7-2.6,11.1-2.9,12c-0.4,1.3,0.1,1.8,2.3,2.6c2.5,1.2,4.8,2.9,6.9,4.8c4.5,4.2,5,6.1,2.8,10.8 c-1.2,2.5-2,2.9-9.4,5.2c-11.6,3.6-11.5,3.4-8.6,15.5c3.2,13,4.4,23.8,3.8,33.8C153.2,140.5,152.2,141.6,151.7,129.6L151.7,129.6z M257.4,121c-1.5-2.1-1.9-3.9-2.2-10.1c-0.2-5.4-0.6-7.6-1.4-7.9c-1.7-0.7-1.3-5.2,0.8-7.8c1.3-1.7,2.3-2.2,3.3-1.8 c1.3,0.5,1.4,1.3,0.9,8.3c-0.4,6.6-0.3,8.2,0.9,10.6s1.8,2.8,4,2.7c3.2-0.1,4.4-1.1,6.1-4.7c1.2-2.5,1.2-3.2,0-9.5 c-1.1-5.7-1.2-7.2-0.3-9.3c0.6-1.5,1.3-2.2,1.8-1.8c1.1,1.1,2.9,8.3,3.5,14.2c0.7,6.4,2.6,9.1,6.4,9.1c4.3,0,4.6-1.8,1.5-8.3 c-2.8-5.9-3.6-11.8-1.9-14.9c1.1-2.2,2.4-1.9,2.4,0.4c0,1.1,1.1,4.9,2.4,8.6c2.8,7.6,3,12.4,0.9,17.2c-3.4,7.5-10.1,7.3-13.3-0.4 l-0.9-2.1l-1,3c-1.4,4.2-5,7-8.9,7C259.7,123.6,258.9,123.1,257.4,121L257.4,121z M203.1,65.4c0.3-1.5,0.8-3,1.3-4.4 c1.2-3.5,1.6-3.8,6.3-5.5c2.7-1,21.3-7.8,41.3-15.2s36.4-13.4,36.6-13.2s-0.3,1.7-1.1,3.4c-1.4,3-1.8,3.3-13.5,7.7 c-9.2,3.5-63.6,24.8-69.9,27.3C203.6,65.9,203.1,65.8,203.1,65.4L203.1,65.4z M328.7,37.8c0-1.8,3.1-7.9,4.1-8.3 c0.6-0.2,19-7,41-15.1S414-0.2,414.2,0s-0.3,1.7-1.1,3.5c-1.4,3.1-1.6,3.2-16.7,8.9c-11.5,4.3-57.9,22.5-66.7,26.1 c-0.3,0.2-0.7,0.1-0.9-0.2C328.7,38.2,328.7,38,328.7,37.8L328.7,37.8z"/>
</svg>