<svg xmlns="http://www.w3.org/2000/svg" width="500" height="312">
<path d="M498.8,0c-1,0-81.3,29.4-81.9,30c-0.7,1.4-1.3,2.8-1.8,4.3c-0.9,2.2-1.3,4.1-1,4.1s9.2-3.5,19.8-7.7 c15.3-6.1,57.1-22.2,61.9-23.9c0.5-0.2,1.7-1.8,2.6-3.6C499.6,0.6,499.7,0,498.8,0z M361.5,36.8c-17.2,0-18.6,0.6-24.2,10 c-2.1,3.5-3.8,6.9-3.8,7.5c0,0.9,1.9,1,9.8,0.5c10.3-0.6,24.1,0.5,27,2c1.6,0.9,1.6,1,0.4,2.4c-0.7,0.8-5.5,3.7-10.7,6.5 c-13,7-24,13.4-24.6,14.4s0.6,0.7,13.2-2.9c12.9-3.7,17.8-5.6,21.6-8.6c6.9-5.4,18.4-21.4,18.4-25.4C388.6,38.6,381,36.8,361.5,36.8 L361.5,36.8z M392.7,41.6c-1,0-6.4,14.1-6.4,16.8c0.2,2.4,0.5,4.7,1.1,7c0.7,3,1.4,14.2,2,31.8c1,30.3,4.6,79.8,6.9,94.2l0.5,2.9 l-8.9,5.3c-7.6,4.6-10.7,6.9-9.4,6.9c0.2,0,4.2-1.4,9-3.2s8.9-3.2,9.2-3.2s1.2,4.4,1.9,9.8s2,13.1,2.8,17.2l1.4,7.4l-3.3,1.9 c-5.7,3.4-11.9,6.2-18.2,8.1c-6.6,2-7.7,2.1-19.3,1.9c-6.8-0.2-12.6-0.5-13-0.9s0.5-2.7,1.9-5.2c4.2-8,5.3-13.1,5.4-24.6 c0-8.9-0.2-11.2-1.8-15.8c-2.8-8.1-7.3-12-12.4-10.8c-7.9,2-19.7,16.8-23.8,30c-2,6.3-2.1,17.2-0.3,23.3c1,3.5,1.1,4.4,0.2,4.9 c-1.5,1-6.1,2.1-10.7,2.7c-9.6,1.2-16.4-7.3-14.8-18.6c0.5-3.2-0.2-5-1.8-5c-0.4,0-4.5,3.7-9.2,8.1s-10.4,9.6-12.6,11.3 c-6.7,5.4-17.3,8.8-24.8,9.4c-10.5,1-18.9-4.4-21.9-13.1c-0.9-2.7-3.1-13.2-4.9-23.3c-9-51-12.9-65.4-22.9-85.4 c-4.1-8.1-10.4-18.2-11.5-18.2s-1.6,1.3-2.8,8.2c-1.8,10.1-1.6,12.4,2,20c6.4,13.9,13.8,33.9,16.5,44.4c3.4,13.3,5.4,26.6,4.7,30.4 c-1.3,7-18.7,25.4-34.4,36.4c-15.7,11-29.1,17.1-43,19.5c-15.4,2.7-23.2-0.8-25.3-11.3c-1.2-5.7,0-15.1,3.7-29.9 c1.1-4.2,2-8.4,2.7-12.6c0-1.5,1.1-2.4,5.5-4.6c10.4-5.2,22-6.8,28.5-3.8c3.1,1.4,7.4,5.5,10.1,9.7l1.3,2l1.7-4.6 c2.4-6.5,2.4-15.8-0.1-19.9c-4.4-7.2-12.1-10-23.7-8.5c-14.5,1.8-31.2,11.6-49.4,29.2c-3.1,3-12.8,13.1-21.5,22.5 s-17.7,18.5-19.9,20.3c-8.8,7-18.4,10-24.8,7.9c-3.8-1.2-8.2-6.3-9.4-10.6s-0.6-14.4,1.2-21.1c0.7-2.6,3.4-10.9,6-18.4 s4.9-14.6,5.2-15.8c0.4-1.8,0.8-2.1,2.3-1.8c3.3,0.8,7.4-1.6,9.8-5.7c3.5-5.9,8.1-23.5,4.8-18.4c-4.6,7.2-5.8,8.7-7.8,9.7 c-7.2,3.7-11.4-7.2-8.4-21.9c0.7-3.6,3-12,4.9-18.6s3.5-12.2,3.2-12.5c-0.6-0.6-8.7,16.6-10.8,23c-4.5,14-5.7,31.7-2.6,38.8 c0.9,2,2.1,3.9,2.7,4.1c0.8,0.3-0.2,3-3.5,9.8C-3,243.2-4.1,266,9.2,279.6c5,5.2,9.2,7,15.9,7.1c5,0,6.4-0.3,11.9-3 c7.3-3.6,11.5-7.6,32.5-30.5c14.6-16,24.4-25.4,32.1-30.8l4.7-3.3l-1.5,3.6c-3.4,8.4-5.9,17.2-7.6,26.1c-1.7,9.7-1.7,24.8-0.1,30.2 c1.8,5.9,5.8,11.4,10,13.6c3.3,1.8,4.2,1.9,12.4,1.5c14.3-0.6,28.4-6.1,46.1-18c21.8-14.7,37.4-32.5,40.9-46.9 c0.3-1.6,0.8-3.1,1.5-4.6c0.3-0.3,1.3,4.9,2.4,11.6c3.1,20.4,6.1,28.5,12.4,33.9c7.7,5.5,14.6,5.2,23.4,5c9.7-1.2,19.6-7.1,28.4-17 c11-12.3,11.1-12.3,12-5.1c0.8,6.1,3.1,11,6.3,13.5c7.7,5.8,19.6,4.6,32.9-3.4l5.3-3.2l4.8,2c6.8,2.8,11,3.6,22.7,4.4 c15.9,1.1,25.1-1,41.3-9.7c2.5-1.4,5-2.7,7.7-3.8c0.1,0.1,1.2,2,2.5,4.2c6.3,10.9,16.5,18.1,25.5,18.1c10.5,0,15.8-7.7,15.9-23.2 c0.1-11.9-3.8-20.5-10.8-23.9c-4.3-2.1-11.3-2.2-19.4-0.4c-3.1,0.7-6.1,1.3-6.8,1.4c-0.9,0.1-1.6-1.4-2.5-5.2 c-1.9-8.1-3.3-16.4-4.2-24.7l-0.5-4.4l6.1-4c4.3-3,8.3-6.4,12-10.1l5.9-6.1l2.8,2.3l2.8,2.3l2-3.5c0.9-1.4,1.6-2.8,2-4.4 c0-0.5-1.3-1.9-2.9-3.2c-2.9-2.4-2.9-2.4-2-6c1.3-5.2,1.1-11.8-0.4-13.9c-3.7-5.3-16.1,3-17.5,11.8c-0.8,5,0.7,7.3,8.2,12.6 c0.2,0.1-1.1,1.7-2.8,3.5c-3.7,3.8-16.1,12.4-16.8,11.7s-1.7-11.2-3.5-39c-1.8-28.5-3.2-56.4-3.2-63.5v-4.8l4,3.7 c4.5,4.2,5.6,4.6,5.6,1.7C409.6,81.8,394.4,41.6,392.7,41.6L392.7,41.6z M454.4,48.8c-0.8,0-6.5,14.6-6.5,16.6 c0.2,1.8,0.7,3.6,1.2,5.4c0.7,2.4,1.5,10.2,2,20c0.8,15.7,2.6,42.8,6.9,102c1.6,22.7,2.2,35.9,2.2,54.2c0,13.3,0.1,24.2,0.2,24.2 c1.1,0,6.1-14.7,7.8-22.7c3.4-16.7,3.3-22.8-3.1-110.9c-1.9-26.6-3.3-48.7-3-49s2.2,1,4.1,3s3.9,3.6,4.3,3.6c1.8,0-0.5-8.7-6.5-24.4 C457.4,53.2,455.5,48.8,454.4,48.8L454.4,48.8z M171.1,52.8c-2.5,0-5,2.1-7.1,6.2c-1.4,2.9-5.7,19.3-5.7,22c0,3.2-1.4,0.9-2.4-3.9 c-1.9-9.8-7.8-18.6-13.3-20c-2.4-0.6-3.3,0.2-5.9,5c-1.7,3.2-1.8,3.5-0.5,5.4c2,3,6,4.9,7.9,3.8c0.6-0.5,1.5-0.7,2.2-0.4 c1.3,0.8,4.1,6.7,6.9,14.7l2.6,7.6l-1.9,2.3c-2.4,3.1-3.6,7-3.6,10.9v2.7l2.1-2.5c2.2-2.6,5.1-3.2,6.7-1.3c0.8,0.9,0.1,1.5-3.4,3.1 c-3.1,1.4-4.8,2.8-5.8,4.7c-2.7,5.2-2.8,8.3-0.3,21.1c3.3,17,4.7,27.6,4.8,36l0,0c0.1,10.6,1.7,6.7,2.2-5.3 c0.4-11.6-0.9-23.1-3.9-34.3c-1.3-5.1-2.3-9.5-2.3-9.8c0-1,7.6-4.3,13.4-5.8s8.2-4.1,8.2-8.9c0-3.1-4.2-7.6-9.9-10.7 c-2.5-1.3-3.5-2.3-3.2-3.1c0.6-1.6,2.3-8.5,3.9-16.1c1.5-7.2,4.2-13,6.3-13.4c0.8-0.2,2.6,0.7,3.9,2c2.3,2.2,2.4,2.2,3.5,0.7 c1.9-2.5,1.4-7.2-1-10C174.3,53.8,172.7,52.9,171.1,52.8L171.1,52.8z M275.8,61.7c-4.9,0.3-8,6.5-11.1,21.6 c-0.5,2.6-1.1,5.1-1.9,7.7c-0.2,0.2-1-2.3-1.8-5.5c-2.9-11.9-8.8-19.8-14.7-19.8c-1.8,0-5.7,5.9-5.7,8.6c0,0.9,1.1,2.6,2.6,3.8 c2.1,1.8,3.1,2.1,5.6,1.7l3.1-0.5l2.8,6c1.8,4,3.3,8.2,4.6,12.4c1,3.5,2,6.4,2.2,6.4c1.2,0,3.2-5.5,5.2-14.3 c2.5-11.4,3.9-15.8,5.8-17.8s2.1-1.8,5.3,0.9s4,2.3,4.9-2.4c0.8-4-2.2-8.3-5.9-8.7C276.4,61.7,276.1,61.7,275.8,61.7L275.8,61.7z M216.2,68.9c-0.7,0.1-4.9,9.7-6.8,15.7c-2.4,7.5-3,19-1.2,22.5c0.7,1.4,1.8,2.5,3.1,3.3c1,0.4,1.9,0.7,2,0.8 c0.9-0.3,1.7-0.6,2.5-1.1c2.5-1.3,5.2-6.7,6-12c0.4-2.7,0.4-3-0.4-1.6c-1.5,2.5-5,6-6,6c-1.9,0-3.7-2.2-4.4-5.4 c-0.8-3.7,0.1-9.2,3.6-21C215.6,72.3,216.4,69.1,216.2,68.9C216.2,68.9,216.2,68.9,216.2,68.9L216.2,68.9z M431.3,78.9 c-0.2,0-1.1,1.7-2.7,4.9c-4.2,8.5-6.4,17.2-6.4,25.1c0,7.2,1,9.9,3.9,11c1.1,0.4,2.2,0.8,2.3,0.8c0.9-0.3,1.7-0.6,2.5-1.1 c2.3-1.2,4.2-4.8,5.7-10.7c1.1-4.2,0.5-5.1-1.1-2s-4.2,5.3-5.9,5c-0.8-0.2-2.1-1.7-3-3.4c-1.4-2.8-1.5-3.7-0.6-8.4 c0.5-2.9,1.9-8.5,3-12.4C430.8,81.7,431.6,78.9,431.3,78.9L431.3,78.9z M320.2,96.1c-11.3,0.2-12.5,1.8-17.3,9.9 c-2.1,3.5-3.9,6.9-3.9,7.4c0,0.8,2.4,0.9,10.6,0.5c11.5-0.5,25.1,0.7,26.8,2.4c1.4,1.4,0,2.5-10.2,8.1 c-18.6,10.2-23.8,13.2-24.8,14.3c-0.5,0.7-0.9,1.2-0.7,1.2c1.8,0,26.8-7.7,30-9.2c7.6-3.7,23.5-23,23.5-28.6c0-1.9-0.6-2.6-3.8-4 c-3.4-1.6-5.4-1.8-20.6-2C326,96.1,322.9,96.1,320.2,96.1L320.2,96.1z M109.8,116.8c-3.6-0.1-9,2.9-12,7.2c-1.5,2.1-2.4,4.6-2.7,7.2 c-0.3,3.7-0.2,4.2,2.3,6.6c1.5,1.4,3,2.8,4.7,4l2,1.4l-3.2,2.9c-5.3,4.8-13.6,10.4-29.8,20c-8.5,5-15.4,9.3-15.4,9.5 c0,0.8,1.9,0.3,10.6-2.9c16.4-6,26.9-12.4,36.3-22.1l5.7-5.9l2.6,2.1c2.9,2.5,3.9,2,6-2.9c1.3-3.2,1.1-3.7-2.4-6.2l-2.5-1.8l1.2-5 c1.3-5.4,1-11.1-0.6-13C112,117.2,110.9,116.8,109.8,116.8L109.8,116.8z M303.7,121.2c-0.3-0.3-53.9,19.2-79.1,28.8 c-2.9,1.1-5.1,3.9-6,7.9l-0.6,2.2l4.3-1.7c16.2-6.5,56-22,66.5-26c12.1-4.6,12.6-4.8,13.9-7.8C303.5,122.8,304,121.3,303.7,121.2 L303.7,121.2z M105.1,124.8c2.5-0.3,4.1,2.5,3.7,7.4c-0.2,1.9-1.6,1.8-4.7-0.4c-3.4-2.4-3.9-3.9-1.8-5.6 C103.1,125.5,104.1,125,105.1,124.8L105.1,124.8z M343.7,149.6c-0.6,0-2.3,2.5-3.8,5.6s-3,5.6-3.2,5.6c-0.6-0.2-1.1-0.6-1.5-1.1 c-1.2-1.4-13.1-9.3-14.1-9.3c-0.7,0-8.7,15.2-8.2,15.6c0.1,0.1,2.2,1.5,4.6,3s5.8,3.9,7.6,5.3s3.7,2.4,4.3,2.3 c0.9-0.2,5.8-7.8,6.7-10.6c0.1-0.4,3.8,1.7,8.1,4.7c6.5,4.5,8,5.3,8.9,4.4c1.7-1.7,6.7-11.8,6.7-13.5 C359.9,159.5,346.5,149.6,343.7,149.6L343.7,149.6z M428.2,154.8c1.7-0.1,2.8,1.2,3.3,4c0.3,1.3,0.2,2.6-0.2,3.9 c-0.6,1.1-1,1-3.5-0.4c-5.3-3.1-5.6-5.4-0.9-7.2C427.4,154.9,427.8,154.8,428.2,154.8L428.2,154.8z M279.8,187.2 c-0.8,0-2.3,2.2-4,5.6c-1.5,3.1-3,5.6-3.2,5.6c-0.6-0.2-1.1-0.6-1.5-1.2c-1.3-1.6-13.3-9.2-14.4-9.2c-0.5,0-2.5,3.5-4.5,7.7 c-2.8,6-3.4,7.9-2.6,8.4c0.6,0.3,4.1,2.8,7.9,5.4c3.7,2.6,7.2,4.8,7.8,4.9s2.2-2.5,3.8-5.6s3-5.6,3.3-5.6s3.9,2.4,8.1,5.3 c8.9,6.2,8,6.4,12.9-3.6c2.1-4.4,2.6-6.2,2-7.2C294.2,195.9,281.4,187.2,279.8,187.2L279.8,187.2z M339.4,208 c2.5,0,5.5,4.6,8.1,12.3l2.1,6.2l-1.6,2.6c-1.2,1.7-2.6,3.3-4.2,4.6c-2,1.5-4.1,2.9-6.2,4.1c-3,1.7-3.9,1.9-5.2,1.1 c-3.5-2-6.5-4.6-8.8-7.8c-2-2.9-2-3.1-0.8-5.8C325.2,220,336.8,208,339.4,208z M427.5,246.4c3.2,0,7.1,0.6,9.2,1.6 c3.1,1.6,4.7,4.5,3.6,6.4c-0.7,1.2-6.6,1-10.4-0.4c-2.1-0.8-4-2-5.6-3.6c-2.1-2.1-2.3-2.6-1.3-3.2 C424.4,246.6,425.9,246.3,427.5,246.4z M212.4,272.4c-1.1,0.2-8.5,2.7-17.4,6c-9.4,3.5-27.8,10.3-40.8,15.1 c-22.7,8.4-23.6,8.8-24.9,11.4c-0.7,1.5-1.3,3.1-1.9,4.6c-0.4,1.5-0.4,1.8,0.5,1.5c4.6-2,45.5-18.1,60.7-23.9 c10.3-3.9,19.6-7.5,20.5-7.9c1.6-0.7,4.1-6,3.3-6.9C212.5,272.4,212.5,272.4,212.4,272.4L212.4,272.4z"/>
</svg>