<svg xmlns="http://www.w3.org/2000/svg" width="303" height="358">
<path d="M302.3,0c-0.2-0.2-40.8,14.6-79,28.8c-2.8,1-3.8,2-5,4.6c-0.7,1.4-1.2,2.8-1.5,4.3c0,1.3,0.2,1.3,3.8-0.2 c4.1-1.7,52.2-20.6,67.1-26.3c11.8-4.5,12.2-4.7,13.5-7.8C302,1.7,302.5,0.2,302.3,0z M271,26.4c-1,0-3.6,5.5-5.9,12.4 c-1.3,3.9-1.3,4.5,0,9.5c0.8,3,1.7,12,2.1,20.9c0.5,8.6,2.2,36.1,4,61.2c6,86.6,6.4,96,4.8,109.8c-0.4,3.6-0.5,7.2-0.2,7.9 c0.6,1.7,2.7-2.2,5.4-10.4c3.5-10.6,4.5-16.4,5-31.1c0.5-15.3,0.4-17.4-5-91.4c-1.9-26.8-3.3-48.9-3.1-49.2s1.9,1.1,3.8,3 s3.9,3.3,4.4,3.3c1.5,0,1.1-3.6-1-9.8c-3.1-9.3-13.3-35.3-14.1-36.1C271.2,26.4,271.1,26.4,271,26.4L271,26.4z M218.4,51.5 c-13.9,0-16.6,0.5-19.8,3.4c-1.6,1.5-9,13.2-9,14.3c0,0.2,7.1,0.4,15.8,0.4c16.2,0,22.6,0.9,22.6,3.1c0,1.2-4,3.7-21.2,13 c-5.7,3.1-11.6,6.6-13.1,7.7s-2.4,2-2,2s5.1-1.2,10.4-2.7c21.6-6,24.6-7.8,34.1-19.5c6.6-8.1,9.9-14,9.2-16.5 C244.4,53,236.6,51.5,218.4,51.5L218.4,51.5z M71.3,55.5c-4.5,0.1-7.6,5.9-10.5,18.8c-2.7,12-2.7,12-4.7,4.2c-2.9-10.9-8.8-19-14-19 c-1.8,0-6.1,6.1-6.1,8.7c0,2.9,7.1,7.8,8.4,5.8c2-3.2,6.7,5,10.2,17.5c1,3.5,2.1,6.4,2.4,6.4c1.3,0,3.1-5.3,5.3-15.4 c3.6-16.9,6.1-20.3,11.2-15.4c2.5,2.4,3.7,1.8,4.5-2.6c0.5-2.7-1.9-7.6-4.2-8.5C73.1,55.7,72.2,55.5,71.3,55.5z M170.2,61.5 c-0.2-0.2-15.4,5.2-33.9,12.1S99.6,87.2,95.6,88.7c-7.5,2.7-8.4,3.6-10.4,10c-0.4,1.5-0.3,1.8,0.5,1.4c4.6-2,45.5-18.1,60.7-23.8 c10.3-3.9,19.6-7.5,20.5-7.9C168.5,67.7,171.1,62.4,170.2,61.5L170.2,61.5z M235.5,78.2c-1-0.3-6.7,14.1-6.7,17 c0.2,2.1,0.6,4.2,1.2,6.2c0.8,2.8,1.4,12.3,2,30.5c1.4,43,5.8,93.6,10.6,122c1.4,8.1,2.5,15.3,2.6,16c0.1,1.5-11,7.5-19,10.1 c-3.7,1.2-7.4,2.1-11.2,2.7c-4.6,0.5-22.6-0.2-23.4-1c-0.2-0.2,0.9-2.9,2.5-5.9c3.5-6.9,5.2-14.5,5.2-23.6c0-15.8-5.3-27-12.8-27 c-4.3,0-12.3,6.7-18.2,15.4c-8,11.7-10.9,25.6-7.7,37.8c1.5,5.8,1,6.2-9.4,8.1c-2.5,0.5-5.1,0.4-7.6-0.1c-4.6-0.7-7.1-1.9-9.9-4.9 c-4.6-5-5.2-7.2-11.6-42.6c-4.3-24.1-8.4-43-11.1-50.4c-0.7-1.9-1-3.8-0.8-4.2c0.9-1.5,29.9-15.2,36-17c1.4-0.4,1.8,0.1,2.9,2.9 c1.8,4.8,3.4,4.5,3.7-0.7c0.1-2.3,0.7-4.5,1.2-4.9s6.5-2.4,13.4-4.6s13-4.1,13.7-4.5c1.4-0.7,5.6-13.4,5.6-16.8 c-0.3-1.8-1-3.5-2.1-5.1c-2.7-3.9-14.2-12.5-22.4-16.6c-6.1-3.1-6.7-3.2-12.5-3c-5.5,0.2-6.5,0.5-9.2,2.8c-4.8,3.9-7.1,9.1-7.1,16.3 c0,5.3,0.4,6.8,3,12.4c1.7,3.5,2.7,6.6,2.4,6.9c-2.5,1.3-5.1,2.5-7.8,3.5c-8.1,3.4-15.8,7.4-23.3,12l-3.3,2l-4.1-7.8 c-4.8-9.1-9.2-15.4-10.7-15.4c-1.2,0-2.6,6.1-3.4,14.7c-0.4,4.8-0.2,5.8,2.2,11.4l2.7,6.2l-3.9,3.3c-8.7,7.3-16.9,15.2-24.5,23.7 c-21.3,23.2-30.7,30.3-41,31c-10.9,0.7-16.4-5.6-16.4-18.6c0-7,2-15.4,6.8-28.9c2.1-5.7,4.4-12.6,5.1-15.2c1.1-4,1.7-4.8,3.3-5.1 c5.1-0.8,9.6-7.7,12.4-19.1c1.5-6.5,1.2-8.1-0.9-4.1s-5.8,8.6-7.6,9.1c-2.8,0.9-6.1-1.1-7.5-4.5c-2.7-6.7-1.2-17.7,5.1-38.2 c1.8-5.9,3.1-10.9,2.9-11.1c-0.6-0.6-8.8,16.7-10.8,22.8c-4,12.1-5.7,26.9-4.1,35c0.8,3.6,1.7,5.4,3.8,7.6l2.8,2.8l-4.4,9.2 C3.4,196.3,0,208.3,0,220.6c0,12,3.3,20.1,11,26.9c7.1,6.3,15.9,7.2,25.2,2.6c5.3-2.6,9.3-6.5,32.8-31.4 c12.2-13,26.8-26.2,27.8-25.1c2.6,2.8,10.5,31,12.6,44.6c1.4,9.4,1,12.4-2.1,16.9c-13.9,20.1-44.2,42.1-66.4,48.5 c-4.7,1.2-9.5,1.9-14.4,2.1c-7.8,0.4-8.7,0.3-12-1.5c-4.2-2.3-6.8-6.3-7.5-11.9c-0.7-4.9,1.2-17.6,4.3-29.5 c1.1-3.7,1.8-7.4,2.4-11.2c0-2-0.1-2-1.5,0.7c-2.2,4.1-6.2,16.5-7.8,24.1c-1,4.9-1.5,10.2-1.5,19.9c0,12.9,0.1,13.3,2.3,17.8 c2.6,5.2,7.3,9.7,11.6,10.9c4,1.1,14.8,0.4,22.3-1.5c8.2-2.1,26.6-11.3,36.2-18.1s28.3-25.4,32.2-31.8c1.9-3.3,3.4-6.8,4.6-10.4 c1-3.1,2-6.3,2.3-7.1s1.3,3.3,2.4,10.8c3.2,20.8,5.8,28.1,12.1,33.8c3.9,3.5,7.7,5.1,14.4,5.9c3.1,0.7,5.2,0.2,8.6-0.1 c4.2-0.6,12.2-4,17.9-7.7l3.6-2.3l5.1,2.1c7,2.8,16.2,4.3,28,4.5c12.9,0.2,18.4-1.2,32.2-8.1c5.8-2.9,10.8-5.4,11.1-5.5 s1.5,1.5,2.6,3.7c3.1,6,10.2,13.2,15.8,16.1s12.6,3.3,16.6,1.2c5.8-3,8.9-10.3,9.1-21.2c0.2-12.8-3.6-21.2-11.1-24.8 c-3.4-1.6-4.5-1.8-11.1-1.4c-3.8,0.2-7.5,0.8-11.2,1.8c-2.4,0.8-4.1,1.1-4.6,0.6c-1.8-1.8-5.5-23.6-7.5-44.7 c-2.6-26.7-6.7-101.5-5.7-102.6c0.3-0.3,2.1,1,4.1,2.8c4.2,3.8,5.2,4.1,5.2,1.3C252,118.3,237.2,78.7,235.5,78.2L235.5,78.2z M221.9,115.7c-1.8,0.1-3.5,0.6-5,1.6c-7.3,4.1-11.3,12.6-8.5,18.1c1.1,1.7,2.5,3.2,4.3,4.2c1.7,1,3.2,1.9,3.4,2.1 c0.8,0.6-6.4,7-12.8,11.4c-3.7,2.6-12.7,8.1-20,12.4s-13.7,8.3-14.4,8.9c-1.7,1.6-0.6,1.4,7.1-1.4c19.2-7,27.7-12,39-23.3l5.8-5.7 l2.8,2.1l2.8,2.1l1.3-2c0.8-1.3,1.5-2.7,2.1-4.1c0.7-2,0.6-2.4-2.1-4.7l-3-2.5l0.9-4.7C227.4,121,226,115.8,221.9,115.7L221.9,115.7 z M216.7,124.5c2.7-0.2,5.4,2.9,4.5,6.6c-0.3,1.1-0.7,2-1,2c-0.9,0-5.3-2.9-6.4-4.3c-1-1.2-0.9-1.6,0.4-3 C214.8,125.1,215.7,124.6,216.7,124.5L216.7,124.5z M143.3,132.4c1.7,0,4.1,0.7,8.6,2.2c7.2,2.5,13.2,6,12.8,7.4 c-0.2,0.5-2.6,1.8-5.4,2.8s-6.7,2.4-8.6,3l-3.5,1.1l-3.7-7.6c-3-6.2-3.5-7.7-2.5-8.3C141.6,132.6,142.4,132.4,143.3,132.4 L143.3,132.4z M71.6,137c-5.7,0.2-14,8.5-14,16.1c0,2.5,2.7,5.8,7.2,8.9l2,1.4l-4,3.6c-5.2,4.7-13.8,10.4-30,20 c-7.3,4.3-13.5,8.1-14,8.5c-1.5,1.4,1.7,0.6,10.3-2.5c16.4-6.1,29.7-14.4,37.9-23.7L71,165l2.8,2.5l2.8,2.5l2.2-4.1l2.2-4.1 l-3.2-2.9l-3.2-2.9l1-3.6c1.4-5.2,1.4-11.3-0.1-13.4C74.8,137.7,73.2,137,71.6,137L71.6,137z M68.3,145.1c2.2,0.2,3.4,2.9,3.1,7.4 c-0.2,1.9-1.6,1.8-4.7-0.4c-3.4-2.4-3.9-3.9-1.8-5.6C65.8,145.7,67,145.2,68.3,145.1L68.3,145.1z M191.7,179.5 c-0.8,0-2.4,2.2-4.1,5.6l-2.8,5.6l-5.4-3.8c-7.7-5.4-9.6-6.6-10.9-6.6c-0.6,0-2.6,3.4-4.6,7.8c-3.3,7.3-3.4,7.8-2,8.6 c0.8,0.5,4.4,2.9,8,5.4s6.9,4.6,7.3,4.6s2.1-2.5,3.6-5.6s3-5.6,3.3-5.6c0.5,0,3.4,1.9,11.3,7.4c2.5,1.8,4.7,3.1,4.9,2.9 c2.3-2.9,6.4-11.1,6.7-13.4l0.4-3l-7.2-4.9C196.2,181.8,192.4,179.5,191.7,179.5L191.7,179.5z M146.1,195.8c-0.6,0.2-5,9.7-6.9,15.4 c-1.8,5-3,18.5-2.1,22.3c0.4,1.4,1.1,2.6,2.1,3.7c1.9,1.9,4.9,2.1,6.9,0.4c1.8-1.2,4.4-7.5,5.3-12.4c0.4-2.4,0.4-2.6-0.5-1.3 c-3.9,6.2-6.4,7.3-9.1,4.4s-1.9-11.3,1.6-22.6C145.1,200.4,146.4,196,146.1,195.8C146.2,195.8,146.2,195.8,146.1,195.8L146.1,195.8z M221.9,214.8c-0.9,0.2-6.1,12.7-7.6,18.3c-2.8,10.9-1.7,22.5,2.3,23.5c5.3,1.4,7.9-1.3,10.3-10.2c1.5-5.6,1.4-5.7-1.6-1.9 c-3.2,4.2-5.5,4.8-7.5,1.8c-2.2-3.4-1.7-10.3,1.6-21.5C221,219.5,222.1,215,221.9,214.8C222,214.8,222,214.8,221.9,214.8 L221.9,214.8z M80.3,230.9c-2.8,0.1-5.1,1.8-6.7,4.9c-0.8,1.5-1.3,3-1.7,4.7c0,1.2,0.3,1.2,2.8,0.1c3.1-1.3,5.4-0.6,6.3,1.7 c0.8,2.1-2.2,7.6-7.8,14.1c-1.9,2.1-3.7,4.3-5.3,6.6c0,1.2,7.8-5.2,10.7-8.8c3.8-4.8,7.8-12.8,7.8-15.7c0-4.1-1.6-7-4.1-7.6 C81.6,231,81,230.9,80.3,230.9L80.3,230.9z M182.6,244.6c0.3,0,0.5,0,0.8,0.1c1.8,0.7,5.2,7,7.1,12.9l1.8,5.8l-1.7,2.4 c-1.6,1.9-3.4,3.7-5.5,5.1c-2,1.5-4.1,2.8-6.2,4c-2.3,1.2-2.6,1.2-4.9-0.2c-3.1-1.9-8.2-7.2-9-9.2c-0.9-2.4,1.6-6.8,7.8-13.2 C177.4,247.2,180.7,244.7,182.6,244.6L182.6,244.6z M271.8,282.9c7.2,0.1,13.9,4.4,11.3,7.7c-1.1,1.3-6.6,1.2-10.5-0.2 c-3.4-1.2-8.3-5.6-7.4-6.5c0.3-0.3,2.7-0.7,5.2-0.9C270.8,282.9,271.3,282.9,271.8,282.9L271.8,282.9z M247.6,300.4 c-2,0-4.1,1.4-6.1,4.1c-1.4,1.9-2.9,3.4-3.4,3.4s-2.8,3.2-5.1,7.2c-4.6,8-8.9,12.1-19.9,18.8c-5.9,3.6-24.5,12.4-41.4,19.6 c-2.4,0.9-4.7,2-7,3.3c0,0.9,3.7,0.2,23.2-4.5c8.4-2,12.5-3.4,18.2-6.5c15-8,23-15.2,27.7-24.9l2.6-5.4l1.9,2c2.5,2.7,11.3,7,13,6.3 c2.2-0.9,4.1-6,4.1-11.3c0-4-0.4-5.5-2.1-8.1S249.7,300.3,247.6,300.4L247.6,300.4z M246.6,308.3c1.3,0,5.4,4.9,5.4,6.5 c0,2-0.4,1.9-5.6-1l-4.4-2.5l1.9-1.5C244.7,309.1,245.6,308.6,246.6,308.3z M110.3,312c-0.2-0.1-8.9,2.9-19.5,6.9 c-68.7,25.4-62.8,23.1-63.9,25.9c-0.6,1.4-1.3,3.4-1.6,4.4c-0.4,1.4-0.3,1.7,0.5,1.4l18.7-7.4c9.7-3.8,27-10.6,38.4-14.9 c27.1-10.3,25.7-9.7,26.8-13.1C110,314.1,110.3,313.1,110.3,312L110.3,312z"/>
</svg>