<svg xmlns="http://www.w3.org/2000/svg" width="401" height="366">
<path d="M183.8,364.8c-6.7-1-12.9-4.4-17.5-9.4c-6.2-6.8-9.2-14.1-10.1-24.3c-0.3-3.4-0.8-6.2-1.1-6.2s-4,1.4-8.1,3.1 c-2.5,1.1-5.1,2.1-7.7,2.9c-0.3-0.3,2.3-7,3.2-8.1c0.4-0.5,3.6-1.9,7-3.1l6.3-2.2l0.5-3.7c1.6-11.4,6-27.4,9.4-34.1 c2.6-5.2,2.5-2-0.5,9.8c-2.9,11.3-5.2,24.6-4.4,25.4c0.2,0.2,14.5-4.8,31.7-11.2s31.6-11.6,32.1-11.6s0.2,1.4-0.6,3.3l-1.4,3.3 l-18.4,7c-35,13.4-42.4,16.4-42.6,17.9c-0.5,2.4,4,10.9,7.3,13.9c5.4,4.8,10.9,6.9,19.8,7.3c6.7,0.3,8.8,0.1,15-1.7 c17.7-5.1,39.6-19.4,59.1-38.6c10.8-10.7,13.4-14.7,12.3-19.6c-0.5-2.5-0.9-2.8-2.9-2.6l-10.4,0.7c-13.9,1-22.7-1.5-26.8-7.5 c-1.8-2.6-2-3.7-2-10.2c0-6.7,0.2-7.7,2.9-13.2c5.7-11.9,15.3-18.2,24-15.9c5.5,1.4,14.7,11.4,19.8,21.3c1,1.9,2.2,3.4,2.7,3.4 s5.8-2.2,11.6-5c11.9-5.6,11.4-4.8,9.5-14c-1.1-5.3-3.8-23.8-4.9-33.3c-0.4-3.8-0.8-4.6-1.8-4.2c-0.7,0.2-5.6,2.1-10.8,4.1 c-14.7,5.7-14.6,4.9,0.3-3.9c5.7-3.4,10.6-6.5,10.8-6.8s0-4-0.4-8.1c-2-18.3-4.1-50.3-4.8-74.3c-0.6-17.5-1.2-28-2.1-32 c-1.8-8.7-1.7-10.2,1.3-17.7c3.1-7.8,3.8-8.8,4.9-7.1c2.5,3.9,16,40.8,16,43.8c0,2.7-1.2,2.2-5.8-2l-4.1-3.8l0.5,16.4 c0.9,26.6,4.2,78.4,5,78.4s7.4-4.9,11.3-8.4l4.2-3.8l-3.7-2.5c-4.7-3.1-6.1-6.2-5-10.9c1-4.3,3.2-7.5,7.3-10.5s8.8-3.2,10.2-0.6 c0.9,1.7,0.6,11.3-0.5,15.9c-0.4,1.7,0,2.3,2.4,3.8c3.1,2,3.4,3.2,1.7,6.4c-2.5,4.6-2.5,4.6-5.5,2.3l-2.9-2.2l-5.1,5.6 c-3,3.1-6.2,6-9.7,8.6l-4.4,3.1l0.5,5.2c1.4,14,5.9,41,7.1,42.2c0.2,0.2,2-0.2,4-0.9c5.5-1.7,11.2-2.6,17-2.9 c5,0.3,9.6,2.8,12.5,6.8c3.6,5.4,4.9,11.1,4.6,20.5c-0.3,7.1-0.6,9-2.5,12.9c-3,6-5.9,8.1-12.2,8.5c-3.3,0.4-6.6-0.2-9.5-1.8 c-5.4-2.5-14.1-11-17.2-16.7c-1.1-2.1-2.2-3.7-2.5-3.6l-13.5,5.7c-12,5.2-12.9,5.8-12.9,7.7c0,3.5-3.1,14.4-5.6,19.7 c-3.5,7.5-6.7,11.6-16.8,22.1C232.2,353,204.6,367.8,183.8,364.8L183.8,364.8zM342.3,269.7c0.7-0.5,0.9-1.4,0.6-2.7 c-0.7-3-6.2-5.4-12.2-5.4c-6.6,0-7.3,0.7-4.1,3.8C330.7,269.5,339.1,271.7,342.3,269.7L342.3,269.7z
M264.3,263.2c1.1-1-3.9-6-8-7.9 c-3.7-1.8-6.2-2-9.9-0.7c-5.8,2-4.4,7.4,2.4,9.3C252.6,264.9,263,264.5,264.3,263.2L264.3,263.2z
M328,166.4 c-0.1-1.4-0.6-2.8-1.5-3.9c-1.4-1.7-1.7-1.8-4-0.8c-3.4,1.4-3,3.7,1.1,6.5C327.1,170.5,328,170.2,328,166.4L328,166.4z
M253.6,363 c0-0.2,3.5-1.9,7.8-3.8c29.8-13,41.5-19,50.8-26.1c5.2-4,7.1-6.4,11.3-14c1.6-3,3.5-5.4,4.1-5.4s1.9-1.3,2.8-2.8 c3.9-6.3,10-5.9,13.5,1c2.1,4,0.5,15.5-2.4,17.3c-2,1.2-6.8-0.5-11.6-4.2l-4.2-3.2l-2.4,5c-4.4,9.2-11.9,16.1-26.1,24 c-7.1,4-9.5,4.8-22.8,8C258.5,362.6,253.6,363.6,253.6,363L253.6,363z
M341.6,320.8c0-2-4.1-6.3-5.9-6.3c-2.5,0-4.5,2.3-2.8,3.2 c0.6,0.4,2.2,1.4,3.6,2.3C339.1,321.8,341.6,322.1,341.6,320.8L341.6,320.8z
M367.8,318.7c0.4-20,0.4-21-5.7-109 c-1.5-22.2-3.1-46.9-3.5-54.8c-0.5-9.3-1.2-15.7-2-18c-0.6-1.5-1-3.1-1.3-4.6c0-1.4,5.6-16.4,6.5-17.3s3.1,4,10,22.4 c5.1,13.5,7.5,21.1,7.5,23.3c0,1.8-1.6,1-5.5-2.6c-2.1-2-4-3.4-4.2-3s1.2,21.5,3.1,47c5.7,77.1,6.2,88,5.2,99.2 c-0.5,5.5-1.3,10.9-2.5,16.3c-1.7,7-6,19-7.2,19.7C367.7,337.5,367.6,329.1,367.8,318.7L367.8,318.7z
M294.1,318.7 c5.2-6.1,8.3-11.1,8.3-13.2c0-1.4-2.6-3.8-4.1-3.8c-1.2,0.2-2.3,0.6-3.4,1.2l-2.3,1.1l0.5-2.6c1.6-7.4,8.2-11.1,12.4-7 c3.3,3.3,1.6,11.3-4.4,19.6c-3,4.3-10.3,10.8-12,10.8C289,324.8,291.1,322,294.1,318.7L294.1,318.7z
M105.2,316.5 c-4.1-1.8-5.6-4.1-5.5-8.7c0-5.7,2.2-9.5,10.8-19c3.9-4.3,7.1-8,7.1-8.2c0-1.8-11.7-2.8-15.6-1.4c-2.6,1-2.7,0-0.4-3.7 s5.3-5.1,11.1-5.1c14.6,0,14.6,6.8,0,21.9c-8.1,8.4-9.6,10.5-9.6,13.2c0,4.8,13.9,5.9,28.2,2.2c4.3-1.1,7.8-1.9,7.8-1.7 c0,1-5.9,5.4-10,7.4C121.1,317.5,110.4,318.8,105.2,316.5L105.2,316.5z
M0,290.8c0-0.7,13.5-6.8,42.4-19.1 c44.4-18.9,71.1-31.9,70.5-34.2c-2.4-9.2-3.3-16.6-3.3-29c0-33.8,6.9-52.8,27.7-76.2c2.8-3.1,5.1-6,5.1-6.4c0-1.1-4.1-4.7-17.3-15.3 c-7.5-6-13.1-11.1-14.6-13.4c-7.6-11.5-0.8-27.4,13.8-32c8.9-2.8,32.7-2.2,84.5,2.2c10.8,0.9,23,2.1,27.2,2.6l7.6,0.9l0.2,2.4 c0.1,1.3-1,5.6-2.4,9.6l-2.6,7.2l-13.6,5.8c-15.9,6.8-42,19.5-56.6,27.5l-10.2,5.6l-0.2,5.4c-0.3,6.8-1.9,7.6-5,2.4l-2.1-3.4 l-8.2,8.4c-13.1,13.4-22.7,29.1-26.2,43c-1.8,7.2-2,19.3-0.4,28.2c1,5.8,5.5,18.8,6.8,19.5c0.7,0.4,14.6-8.2,25.1-15.5 c7.7-5.4,15-11.9,15-13.3c0-0.4-3.2-6.4-7-13.1s-7.2-12.9-7.5-13.5c-0.8-2.2,0.9-11.2,3-15.6c3.8-8.1,7.6-10.3,22.4-13 c11.2-2.1,37.5-1.9,47.9,0.4c21.5,4.6,32.9,16,34.9,34.7c2.4,22-6,43.9-23.9,62.1c-20.2,20.7-42.2,29.9-68.5,28.7 c-16.8-0.8-29.2-5.9-39.1-16.1l-4.8-4.9l-9.7,5.6c-12.5,7.2-28.1,14.8-31.7,15.4c-1.5,0.3-14,3.2-27.6,6.5 c-29.8,7.2-33.9,8-43.2,9.5C0.1,291.4,0,291.5,0,290.8L0,290.8z
M191.2,251.7c25.8-7,54.6-29.8,59.7-47.5c1.1-3.9,1.2-5.3,0.4-10 c-1.3-7.6-3.3-11.8-7.9-16.3s-10.8-7.6-20.2-10c-6.1-1.5-9.1-1.7-26.1-1.8c-15.2,0-20.8,0.3-26.8,1.4c-2.9,0.5-5.8,1.2-8.6,2.1 c-0.8,0.5,0.3,3.3,4.3,11.4l5.3,10.7l-0.3,6.4c-0.4,7.3-3.2,16.4-6.7,21.3c-2.7,3.9-13.7,13.6-22.9,20.1l-7,4.9l2.2,1.4 c4.2,2.8,13.7,6.3,20.3,7.4C166.7,255,181.5,254.3,191.2,251.7L191.2,251.7z
M193.1,223.2c-2.3-2.6-2.1-18.3,0.4-25.4 c2-5.6,6.5-15.6,6.9-15.2c0.1,0.1-0.9,4.4-2.4,9.4s-2.9,10.8-3.2,12.8c-0.7,4.9,0.7,10.2,3,11.1c2.6,0.9,3.7,0.3,6.3-3.9l2.4-3.7 l-0.5,2.8c-1,5.4-3.2,10.6-5.1,12.1C198.3,225.3,195,225.2,193.1,223.2L193.1,223.2z
M188.8,96.6c6.4-3.2,13.6-6.6,16-7.6 c5.8-2.4,4.8-2.9-8.8-4.4c-22.4-2.6-61.6-3.7-72.7-2.1c-6.2,0.9-7.6,1.9-5.2,3.9l14.4,11.3c7,5.5,14.8,12,17.4,14.4l4.8,4.5 l11.3-7.1C172.1,105.6,182.4,99.8,188.8,96.6L188.8,96.6z
M67.5,237.9c-2-1.4-2.7-4.5-2.7-11.2c0-8.2,1.7-15.3,6-24.7 c3-6.6,4.5-7.8,2.4-1.9c-2.2,6.1-5.2,18.6-5.2,21.7c0,3.9,1.1,6.8,3.1,7.8c2.3,1.2,3.7,0.4,6.5-3.8c2.2-3.3,2.4-3.5,1.9-1.3 c-2.3,10.2-4.3,13.5-8.4,13.8C69.9,238.4,68.7,238.3,67.5,237.9z
M273.6,195.8c-6-3-4.9-19.9,2.4-35.5c1-2.3,2.1-4.5,3.5-6.7 c0.2,0-0.9,4.1-2.4,9c-4.4,14.5-4.4,23.7,0,25.1c1.3,0.4,2.3-0.2,4.7-2.9c3.3-3.7,3.6-3.2,1.8,3 C281.6,194.7,277.6,197.8,273.6,195.8L273.6,195.8z
M47.2,173.4c0.7-0.6,7.5-4.8,15.2-9.3c14.4-8.5,23.6-14.6,29.2-19.6l3.2-2.9 l-2-1.3c-4.9-3.3-7.2-6.3-7.2-9.6c0-7,7.4-15.4,13.6-15.4c1.8,0,3.5,0.5,4.1,1.3c1.3,1.6,1.3,11.6-0.1,15.1 c-0.9,2.2-0.8,2.5,1.9,4.7c1.6,1.3,2.9,2.8,2.9,3.4c0,1.4-3,7.5-3.7,7.5c-1.1-0.5-2-1.2-2.9-2.1l-2.4-2.1l-5.3,5.4 c-9.9,10.2-18.9,15.8-35.2,21.9C47.4,174.7,45.3,175.2,47.2,173.4L47.2,173.4z
M99.1,128.4c-0.3-4.7-2-6.1-5.2-4.2s-3.1,3.6,0.3,5.9 C98.6,133,99.3,132.8,99.1,128.4z
M250.4,139.4c0-1.7,0.9-3.2,3.2-5.4l3.2-3l-2.8-1.5c-6.2-3.2-5.5-8.7,1.9-16.7 c6-6.5,10.6-8.5,13.3-5.8c1.6,1.6,1.6,5.3,0,8.5l-1.3,2.4l-1.8-1.7c-0.8-0.8-1.8-1.4-2.9-1.7c-2.2,0-6.4,3.1-6.4,4.8 c0,1.9,4.3,4.8,7.2,4.8c1.1,0,4.8-1.6,8.2-3.6c2.1-1.3,4.3-2.5,6.6-3.6c0.8,0,0.4,3.6-0.6,5.4c-0.8,1.4-26.3,19.4-27.5,19.4 C250.4,140.9,250.3,140.1,250.4,139.4L250.4,139.4z
M201.6,122.5c1.9-6,2.4-6.9,5.4-8c1.6-0.6,19.8-7.3,40.4-14.9s38-13.9,38.5-13.9 c1.4,0,0.1,4.1-1.9,5.8c-0.7,0.6-10.9,4.8-22.5,9.3s-30.1,11.6-40.9,15.9C202,124.1,201,124.4,201.6,122.5L201.6,122.5z
M314.4,118.3c0-2.8,2.7-7.8,4.7-8.6c1.2-0.5,8.4-3.2,16.1-6s25.3-9.3,39.1-14.4s25.3-9.1,25.5-9s-0.3,1.7-1.1,3.4 c-1.4,3-1.9,3.2-14.6,8.1c-15.1,5.8-62.1,24.2-66.6,26.1C315.2,118.9,314.4,119,314.4,118.3L314.4,118.3z
M340.6,85.5 c-5.6-4.3-2.9-24.3,5.3-39.5c1.9-3.5,1.6-1.7-1.1,7.2c-1.4,4.7-2.4,9.6-2.9,14.5c-0.4,6.3-0.4,6.6,1.7,8.6c1.8,1.8,2.4,2,3.8,1.2 c1.4-1,2.5-2.3,3.4-3.8c2.2-3.7,2.6-2.2,1,3.3C349.4,84.9,344.6,88.5,340.6,85.5L340.6,85.5z
M88.2,73.9C86.3,71,86,62.6,87.5,55.5 c1.3-6.1,6.2-19.1,7.8-20.6c1.1-1,1-0.7-2.1,9.5c-1.3,4.4-2.2,9-2.6,13.6c-0.3,5.7-0.2,6.6,1.3,8.2c0.7,0.9,1.7,1.5,2.7,1.8 c1.1,0,4.5-3.4,6.1-6s0.2,4.1-1.7,8.6c-1.8,4.2-3.3,5.4-6.9,5.4C90.5,76.1,89,75.3,88.2,73.9L88.2,73.9z
M253,72.1 c1.1-0.8,5.9-3.7,10.7-6.3c23.8-13.1,26.6-15,23-16.4c-3.2-1.2-17.5-2.1-26.5-1.6c-11.5,0.6-11.4,0.8-6.9-7c6.1-10.5,7.3-11,24.7-11 c19,0,27.6,1.8,27.6,5.8c0,3.7-9.8,17.6-17.2,24.5c-2.2,2-4.6,3.7-7.2,5c-3.4,1.5-27.7,8.7-29.4,8.7C251.4,73.7,251.9,73,253,72.1 L253,72.1z
M172,48.8c-4.2-3-7.6-5.8-7.6-6.2c0.9-2.6,1.9-5.2,3.1-7.7c2.2-5,3.5-7,4.5-7c0.8,0,4.1,1.8,7.3,4c8.3,5.7,8.7,6,8.7,8 c0,2.3-6.3,14.5-7.5,14.4C180,54.4,176.2,51.9,172,48.8L172,48.8z
M230.2,41.5c-0.4-3.8-4.5-14.8-7-18.8c-1.5-2.4-1.9-2.6-4.6-2.1 s-3.3,0.2-5.8-2.4l-2.8-2.9l2.3-4.4c1.9-3.7,2.6-4.4,4.5-4.4c3.8,0,7.4,3.2,10.6,9.4c1.7,3.4,3,6.9,3.9,10.6 c0.5,2.7,1.2,4.8,1.6,4.8s0.8-1.4,1.1-3c1.4-8,4.8-19.3,6.5-22c1-1.6,2.4-2.9,4-3.8c5.6-2.2,10.8,6.6,7.1,11.9l-1.3,1.9l-2.3-2.5 c-1.3-1.4-2.9-2.4-3.7-2.3c-2.2,0.4-4.6,6.5-7.3,18.6C233.7,44.2,231.1,48.8,230.2,41.5z
M130.9,33.3c-2.3-2.5-2.9-5.2-2.9-12.5 c0-4.3-0.3-5.7-1.5-6.8s-1.4-1.9-0.8-3.8c0.8-2.8,2.9-5.4,4.4-5.4c1.7,0,2.1,2.5,1.5,9.6s0.5,11.2,3.2,12.2c1.6,0.6,4.5-0.5,6.2-2.4 c2.5-2.8,2.8-5,1.6-12.2c-0.9-5.4-0.9-7.4-0.2-9.2c0.7-1.7,1.2-2.1,1.8-1.5c1.1,1.1,3.1,9.4,3.1,13.2c0,6.1,3.4,10.6,7.4,10 c3.3-0.5,3.5-2.5,0.8-8.4S152,5,153.7,1.3c1-2.3,2.3-1.4,2.3,1.6c0.5,2.7,1.3,5.3,2.4,7.8c3.3,8.6,3.1,14.1-1,19.9 c-2.8,4-9.1,2.4-11.3-2.9l-1-2.5l-1.6,3.6c-2,4.5-3.4,5.6-7.4,6.2C133.4,35.4,132.6,35.1,130.9,33.3L130.9,33.3z"/>
</svg>