<svg xmlns="http://www.w3.org/2000/svg" width="334" height="400">
<path d="M297.2,382.4c0.5-19.2,0.4-21.5-5.4-103.6c-1.8-25.1-3.5-52.4-3.9-60.8c-0.5-10.5-1.2-16.4-2.1-19.1 c-1.3-3.7-1.3-4.2,0.1-8.4c2-6.2,5-12.9,5.9-12.9c1.3,0,17,41.6,17,45c0,2.3-1.9,1.6-5.6-2.2c-1.9-2-3.8-3.3-4.1-3s1,21.7,2.9,47.4 c5.8,79.8,6.2,87.3,5.2,98.8c-1.2,13.5-5.6,30.5-9.2,35.2C297,400.2,296.9,398.2,297.2,382.4L297.2,382.4z M211.1,361.2 c1.3-1.9,2.7-3.8,4.3-5.5c7.8-8.9,9.5-12.4,8-16c-0.6-1.5-4.4-1.7-6.8-0.4c-1.8,1-2-0.2-0.7-3.8c1.5-4,3.9-5.9,7.6-5.9 c4.3,0,5.5,1.5,5.4,6.7c-0.1,4.8-2.5,10.1-7.3,16.2C218.8,356.1,211,362.4,211.1,361.2L211.1,361.2z M267.4,359.2 c-2.9-1.2-3.8-4.9-3.3-13.8s2.4-15.7,6.9-24.2c1.4-2.6,2.4-4.2,2.2-3.5c-5,17.1-5.7,20-5.7,24.8c0,5.6,1.5,8.7,4.4,8.7 c1.5,0,4.1-2.5,5.6-5.5s1.7-1.6,0.4,3.4c-1.5,5.8-3.3,8.8-5.8,10C269.9,360.2,269.7,360.2,267.4,359.2L267.4,359.2z M89.1,354.1 c-11.3-3.6-19-12.3-22.4-25.3c-1.7-6.5-1.2-27.8,0.8-35.9c0.6-1.9,0.9-3.8,1.1-5.8c-0.1-0.4-5.2,1.4-11.3,3.8S46,295.2,45.8,295 s0.3-2.1,1.2-4.3l1.5-3.9l11.5-4.3l11.5-4.2l1.7-4.3c0.6-1.4,1.1-2.9,1.5-4.4c-0.1,0-2.3,0.7-4.8,1.6c-8.5,2.9-17.4,4.2-26.4,3.7 c-13.1-0.8-20.6-3.9-28.5-11.7C5.3,253.6,0.8,241.7,0.1,224c-0.6-15.7,1.3-28.4,5.9-38.5l2-4.5l-1.7-2.4c-4.4-6-4.2-21.2,0.4-37.7 c1.9-6.5,11.2-27.1,11.9-26.3c0.2,0.2-1.1,5-2.9,10.7c-7.7,24.9-8.4,37.9-2.2,42.2c0.8,0.6,1.8,1.1,2.9,1.3c1.6,0,6.6-4.8,8.8-8.6 c1.1-1.9,2.2-3.4,2.4-3.2c0.6,0.6-2,10.8-3.9,15.1c-3.1,7.2-6.2,10.2-10.7,10.2c-2.5,0-2.6,0.2-4.6,6.2c-2.4,7.1-4.5,18.7-4.5,24.1 c0.1,3.1,0.5,6.1,1.2,9.1c5,23.6,26.2,36.8,52.3,32.6c18.4-3,43.9-15.7,68.9-34.3c9.6-7.2,18.7-15.2,19.8-17.5c0.5-1.2,1-5.3,1-9.2 v-7.1l-8.2-8.5c-13-13.5-19.2-21.6-28.5-37.1c-2.1-3.6-4.6-6.9-7.3-10l-3.2-3v-8.4c0-8.7,0.6-11,2.6-10.2c2.7,1,31,23.2,31,24.2 c0,1.3-3.2,1.5-8.6,0.4c-1.9-0.4-3.4-0.4-3.4-0.1c0,1.9,12.1,16.7,19.9,24.4l4.1,4v-2.8c0-1.5-1.1-18.1-2.4-36.8 c-2.2-30.5-3.1-45.2-5.6-85.2c-0.4-7-1.3-13.5-2-15.5c-1-2.1-1.1-4.6-0.4-6.8c1.3-4.6,5.6-14.9,6.3-14.9c1.3,0,16.9,41.7,16.9,45.1 c0,2.2-2.6,1.3-5.7-1.9c-1-1.2-2.2-2.3-3.6-3.2c-0.5,0-0.3,5.7,1.3,26c4.2,55.8,5.7,80.4,5.7,94.4v12l21,21.2 c23.6,23.8,31.6,33.8,38.6,47.6c6.1,12.1,7.1,16.7,6.5,29.2c-0.4,8.9-1.9,19.7-2.7,19c-0.1-0.1-1-4.7-1.9-10.2 c-3.2-19.3-11-33.6-28.2-51.8c-6.4-6.8-33.8-33.2-34.8-33.6c-0.3-0.1-1.1,2.4-1.9,5.7c-3.7,16.1-12.9,27.6-36.7,45.4 c-11.5,8.6-19.9,14-29.8,19.2l-8.9,4.6l-0.9,4.1c-0.8,3.7-0.8,4,0.4,3.6c6.3-2.5,51.3-19.1,52.7-19.4c2.2-0.5,2.3,0.9,0.4,4 c-1.2,2-4.7,3.5-25,11.3c-35.5,13.6-31.4,11.5-32.6,16.5c-0.8,4.5-1.3,9-1.5,13.5c-0.7,12.2,1,17.9,7.2,24.2 c12.3,12.7,32.8,11,58.9-4.9c14.2-8.6,37.8-28.6,43.6-37l2.3-3.3l-1.6-2.2c-2.8-3.8-6.8-5-18.6-5.9c-4.6-0.2-9.2-0.7-13.7-1.5 c-7-1.7-11.9-8-11.9-15.2c0-11.1,6.8-23.3,15.8-28.6c4.4-2.6,11.1-2.9,15.3-0.7c6.7,3.4,14.2,14.3,18.2,26.4c1.9,5.8,2.2,7.6,2.2,18 c0.1,19.4-2.8,25.6-19.7,42c-22.3,21.8-43.1,36-58.6,39.9C104.2,355.4,93.5,355.5,89.1,354.1L89.1,354.1z M170.3,254.4 c0-1.4-7.2-8-10-9.2c-6.1-2.6-13.2-0.6-13.2,3.7s4.8,6,17.8,6.3C168.1,255.2,170.3,254.9,170.3,254.4L170.3,254.4z M153.9,339.4 c0.9-0.8,10.6-6.8,21.6-13.3s22.5-13.5,25.6-15.6c7.2-4.8,16.7-13.7,22.8-21.3c9.1-11.3,9.9-14.5,8.8-32.1 c-1.1-16.4-2.5-30.1-6.8-67c-4.5-38-6.8-59.6-6.8-63.6c-0.3-3.2-1-6.5-2-9.6l-2-6.4l1.8-6.6c0.8-3,1.7-6,2.9-8.9 c1.1-2.3,1.2-2.3,2.4-0.8c2.8,3.7,14.1,27.7,17.1,36.3c2.9,8.3,1.7,9.3-4.2,3.5l-3.8-3.8v4.4c0,2.4,1.3,15.6,2.8,29.2 c9.3,80.6,9.8,89.2,6.4,107.6c-4.9,26.1-20.2,47.9-40.8,57.7c-9.8,4.7-36.8,11.9-44.5,11.9C152.4,340.8,152.4,340.8,153.9,339.4 L153.9,339.4z M101.8,307.3c-2.8-1.2-4.3-5.6-4.3-12.5c0-5.2-0.3-6.5-1.7-8c-1.1-0.9-1.6-2.4-1.2-3.8c0.5-2,4-6.2,5.2-6.2 s1.6,5.6,0.9,10.2c-1.6,10.1,4.1,15.7,9.8,9.6c2.2-2.3,2.4-2.9,2-6.6c-0.2-2.2-0.7-6.2-1-8.8c-0.4-3.6-0.2-5.2,0.7-6.3 c1.2-1.5,1.2-1.5,2,0c0.9,2.6,1.4,5.2,1.8,8c1.4,9.7,2.5,12.6,5.1,13.9c1.3,0.8,2.9,0.9,4.2,0.2c2.5-1.1,2.4-2.4-0.4-7.9 c-3.2-6.3-3.8-10.4-2.1-14.3c0.8-1.9,1.5-2.6,1.7-1.9s1.7,5.2,3.3,10.1c2.8,8.6,2.9,9.1,1.9,13.4c-2,8.9-7.4,11.9-12.2,6.8 c-1.3-1.4-2.3-3-2.3-3.6c0-2-1.3-1.2-2.2,1.5C111,306.1,105.9,309,101.8,307.3L101.8,307.3z M259.1,273.8c-1.6-2-1.7-2.9-1.4-11.4 c0.3-7.4,0.8-10.3,2.6-15.2c2.4-6.4,5.9-13.9,6.4-13.5c0.2,0.2-1,4.4-2.5,9.3c-3.3,10.9-4.1,16.5-2.8,20.5c1.8,5.5,4.7,5.3,9-0.6 c1.4-1.8,2.3-2.6,2-1.7s-0.7,2.9-1,4.4C269.6,274.8,263.2,279,259.1,273.8L259.1,273.8z M47.9,214.6c0-0.4,5.5-3.9,12.2-7.8 c19.9-11.7,35.9-22.8,35.8-25c0-0.3-1.5-1.4-3.3-2.5c-3.6-2.2-5.5-5.2-5.5-8.6c0.1-8,11-17.7,16.7-14.7c2.8,1.5,3.1,11.3,0.5,17.9 c-0.3,0.8-0.2,1.4,0.2,1.4c1.2,0.5,2.4,1.3,3.3,2.2l2.6,2.2l-2.1,4.2l-2.1,4.2l-2.4-2c-0.9-0.8-1.9-1.5-3-2c-0.3,0-3.3,2.6-6.5,5.9 c-7.1,6.9-15.3,12.6-24.2,17C63.5,209.9,47.9,215.3,47.9,214.6L47.9,214.6z M100.9,171c0.5-2.6-0.8-6.8-2.2-7.3 c-1.7-0.6-5.9,1.6-5.9,3.1c0,1.1,5.9,6,7.2,6C100.3,172.8,100.7,172,100.9,171L100.9,171z M202.2,201.5c-3.3-1.2-4.1-4.4-3.7-13.7 c0.4-8.8,2.3-15.4,6.8-24.2c3-5.8,3.2-5,0.6,2.6c-3.1,9-4.7,17.5-4.1,21.2s2.4,6.2,4.4,6.2c1.5,0,4.1-2.6,5.6-5.5s1.7-1.6,0.4,3.4 c-1.5,5.8-3.3,8.8-5.8,10c-0.7,0.3-1.4,0.6-2.1,0.8L202.2,201.5L202.2,201.5z M165,177.1c0.5-2.2,1.7-4.3,3.4-5.8 c2.2-2.1,2.6-2.9,1.8-3.4c-0.5-0.3-1-0.6-1.5-0.7c-0.8-0.4-1.6-1-2.2-1.6c-3.9-3.6-1.1-11.5,6.3-17.8c3.8-3.3,5.7-4,9.2-3.6 c2,0.2,2.3,0.6,2.6,3.4s-1.1,7.7-2,7.7c-0.7-0.4-1.3-1-1.9-1.6c-2.1-2.1-4.2-2-7.1,0.5c-3.1,2.6-3.1,3.8,0.2,5.9 c4,2.4,6.5,2.1,13.5-2c3.5-2,6.5-3.5,6.7-3.3c0.8,0.8-2,7.3-3.4,8.1c-0.8,0.4-7,4.5-13.8,9.1l-12.3,8.3L165,177.1z M247.9,175.8 c0.3-1.5,0.8-3,1.4-4.4c1.4-3.3,1.6-3.5,9.4-6.3c4.4-1.6,22.9-8.5,41.1-15.2s33.3-12.2,33.4-12s-0.2,1.7-0.9,3.4 c-1.2,3.1-1.4,3.2-13.8,7.9c-10.4,3.9-50.4,19.6-66.4,25.9C249.1,176.3,247.9,176.5,247.9,175.8L247.9,175.8z M66,133.2 c-0.8-10.9-2.3-21.8-4.5-32.5c-2.7-13.9-2.9-17.7-1.1-22.3c1.4-3.6,3.9-5.7,8.7-7.2l3.2-1l-1.8-1.5c-2.6-2.1-3.5-1.9-6.3,1.3 l-2.5,2.8v-2.3c0-3.9,2.3-10.5,4.2-11.7l1.7-1.2l-1.9-5.8c-1.3-4-2.9-7.9-4.6-11.7c-2.5-5.2-3-5.8-4.5-5.3c-1.1,0.3-2.1,0.5-3.2,0.5 c-2,0-6.1-4-6.1-6c0-2.7,3.9-8.5,5.7-8.5c5.1,0,11.5,8,13.9,17.4c2.2,8.5,2.5,9.2,3.2,5.4c1-5.6,4.5-19,5.4-20.8 c1.7-3.4,4.9-6,7.2-6c4.3,0,7.5,5.1,6.2,9.9c-1.1,4-2,4.2-4.7,1.3c-1.3-1.4-2.8-2.4-3.4-2.2c-2.1,0.7-4.6,5.7-5.8,11.7 c-1.6,7.3-4,16.8-4.7,18.5c-0.4,0.9,0.2,1.5,2.3,2.2c1.5,0.5,4.8,2.9,7.3,5.3c4,3.8,4.5,4.5,4,6.6c-1.3,5.3-2.9,6.8-9.2,8.7 c-3.2,0.9-6.4,2.1-9.5,3.5c-2.9,1.5-3.4,2.1-3,3.5c2,7.1,4.5,17.9,5.2,23c1,7,1.1,24.7,0.2,28.8C66.7,140,66.5,139.4,66,133.2 L66,133.2z M160.7,134.6c2.3-1.8,9.5-5.9,22.4-12.9c5.1-2.7,10.1-5.6,11.1-6.4c4.7-3.6-1.7-5.2-21.3-5.1c-8.5,0-15.4-0.2-15.4-0.4 c1.1-2.3,2.3-4.5,3.7-6.7c6.4-10.8,7.9-11.4,28.2-10.8c15.2,0.4,19.4,1.1,22.6,3.7c1.4,1.1,1.7,1.9,1.3,3.5 c-0.9,3.6-8.7,14.4-14.9,20.7c-4.8,4.8-7,6.4-10.8,7.9c-5.1,1.9-21.3,6.7-26,7.6l-2.8,0.6L160.7,134.6z M157.5,89.1 c0.3-1.5,0.8-3,1.5-4.4l1.5-3.5l40.9-15.1c22.5-8.3,41.1-14.9,41.3-14.7c0.9,0.9-2.1,6.2-3.8,7c-1,0.4-12.6,4.9-25.8,10 s-31.1,12-39.8,15.5C163.6,87.7,157.5,89.8,157.5,89.1L157.5,89.1z"/>
</svg>