<svg xmlns="http://www.w3.org/2000/svg" width="329" height="442">
<path d="M327.4,0c-1.7-0.1-8,2.3-31.4,11c-15.6,5.8-33.4,12.4-39.5,14.6c-11.8,4.3-11.6,4.2-13.7,10.9c-0.3,1-0.3,1.7-0.1,1.7 s9.2-3.5,19.9-7.7C289.7,19.8,323.1,7,324,7s4-4.8,4-6.3C328,0.3,328,0,327.4,0z M172,29.6c-1.8,0.2-7.6,2.1-18.8,6.2 C84.6,61.3,90.4,59,89.2,61.8c-0.6,1.4-1.3,3.4-1.7,4.4c-0.4,1.4-0.3,1.8,0.5,1.4l18.7-7.4c9.7-3.8,27-10.5,38.4-14.9 s21.8-8.4,23.1-8.8c2.3-0.9,4.8-4.7,4.4-6.6C172.7,29.7,172.4,29.6,172,29.6L172,29.6z M271.9,47c-0.8,0-3.2,5.2-5.6,12.3 c-1.5,4.4-1.5,4.9-0.3,8.4c0.9,3.2,1.4,6.4,1.6,9.7c0.2,3.3,0.7,12.3,1.2,20s2.3,34.5,4,59.6c5,72.6,5.7,85.8,4.8,97.2 c-0.4,5.5-0.8,11.2-0.8,12.6c0,4.2,1.2,3,3.9-3.8c5.5-13.9,7.8-29.9,7-48.4c-0.3-6.6-2.3-37-4.5-67.5s-4-56.7-4-58.3V86l4,3.7 c5,4.7,6,4.8,5.3,0.4C287.5,84.1,273.3,47,271.9,47L271.9,47z M230.9,47.3c-1,0-1.9,2.2-4,9.5l-2.1,7.1l1.9,6.9 c1.2,4.6,2,9.3,2.4,14.1c0.6,8,0.6,8.5,5.6,51.2c4.6,38.9,6.4,57.4,7.6,74.5c1.1,16.1,0.5,19.3-5,27.5c-3.4,5-17,20-18.3,20 c-0.4,0-0.3-1.1,0.2-2.4s0.7-2.6,0.5-2.8s-7,2.1-15.1,5.1c-8.1,3-26.2,9.7-40.3,14.9c-15,5.5-26.2,10.1-27,11 c-1.4,1.5-1.4,1.5-1.4-1.2c-0.1-1.5,0.4-2.9,1.4-4c3.9-3.5,36.5-19.5,60.8-29.9c7.8-3.3,15-6.5,15.9-7.1c2-1.3,7.2-16.1,6.4-18.1 c-0.6-1.4-2.3-1.7-25.8-3.8c-47.6-4.3-80.6-5.8-89.3-4.1C92.2,218.4,84,226.9,84,238.3c0,8.4,2.6,11.9,17.8,24.2 c6.3,5.1,12.8,10.5,14.6,12l3.2,2.8l-4,4.6C93,307.7,86.2,325.4,86.1,359c-0.1,18.6,1.1,25,7.3,39c0.6,1.4-12.4,7.4-53.5,25 C6.3,437.4,0,440.2,0,441.1c0,1.3,17.1-2,47.2-9.2c12.5-3,25.7-6.1,29.1-6.9c4.3-1,9.8-3.2,17.1-6.9l10.8-5.4l4.6,3.1 c9.6,6.6,18.6,9.4,32.1,10.1c26.1,1.4,49-8.4,69.1-29.4c17-17.8,24.4-36,23.4-58.1c-0.3-7.5-0.7-9.3-2.9-14 c-4.5-9.6-13.4-16.4-23.8-18.2c-6.2-0.9-12.4-1.4-18.6-1.4l-14.6-0.1l0,0l-3.2-0.5c-4.3-0.7-7.6-3.6-10.4-9.3 c-1.3-2.6-2.7-4.7-3.2-4.7c-1,0-1.9,2.4-4.1,10.7l-1.7,6.5l4.1,9.5c5.5,12.7,7.9,23.4,7.4,32.6c-0.1,2.3-11.9,14-21.3,21 c-9.5,7-19.5,13.5-29.8,19.2c-5.1,2.8-5.7,2.5-10.3-4.2c-6.2-9.2-9.2-20.3-9.4-34.6c-0.1-10.4,1.5-17.3,6.2-27.6 c5-10.9,18.7-29,26.8-35.5l3.1-2.5l2.1,3.2c1.1,1.7,2.7,3.2,3.4,3.2s9.9-3.5,20.5-7.6c32.6-13,63-24.5,63-24 c0,1-29.8,19.5-48.1,29.9c-2,1-3.8,2.3-5.5,3.8c-0.8,1-0.6,1.2,1.6,1.2c3.8,0,16.9-2.8,28.2-6c18-5.1,29.4-12.2,39-24.1 c12.6-15.6,18.6-32.2,19.7-54.7c0.6-11-0.4-25-3.3-51.2c-1.1-9.5-3.2-28.4-4.8-42c-2.8-24.5-3.3-31.6-2.3-31.6c1.5,0.9,2.8,2,4,3.2 c1.9,1.8,3.9,3.2,4.4,3.2c1.3,0,0.5-4.3-2.1-10.9c-3.1-7.8-15.2-32.8-16.2-33.4C231.2,47.4,231.1,47.4,230.9,47.3L230.9,47.3z M187.4,51.8c-7.7,0.1-13.7,1.1-16.1,2.9c-3.1,2.3-10.6,14-9.6,15c0.2,0.2,7.7,0.5,16.7,0.6c12.3,0.2,16.9,0.6,18.7,1.4 c1.3,0.6,2.4,1.5,2.4,2c0,0.8-3.9,3.1-24.8,14.7c-4.8,2.7-9.7,5.6-10.8,6.5l-2,1.6l3.2-0.7c8.5-1.9,23.7-6.7,28.1-8.8 c5.7-2.8,12.4-9.6,18.7-19c7.7-11.4,6.4-13.5-9.1-15.3C197.9,52.1,192.7,51.9,187.4,51.8L187.4,51.8z M111.5,63 c-0.9,0-1.1,2-1.1,9.7v9.7l3,2.9c1.7,1.6,5.8,7.7,9.3,13.4c10.7,17.8,18.9,27.1,52.1,58.9c26.8,25.7,35,34.9,43,48.5 c4.8,8.1,7.4,15.7,9.4,27.2c0.9,5.2,1.6,9.8,1.6,10.1s0.2,0.4,0.5,0.2c1-1,2.7-15.7,2.7-22.9c0-9.3-1.5-15.2-6.1-24.4 c-7.9-15.8-14.5-23.6-51.9-61.3c-28.4-28.6-42.8-44.6-42.8-47.2c0-0.3,1.5-0.3,3.4,0c2.1,0.4,4.2,0.6,6.4,0.7c2.4,0,2.9-0.2,2.5-1.2 C142.9,85.8,113,63,111.5,63z M213.3,104.1c-0.8,0.1-5.2,9.9-7.1,15.9c-1.4,4.4-1.8,7.8-1.8,14.1c0,8.1,0,8.3,2.2,10.2 c4.5,3.8,8.4,1.4,10.9-6.6c1.8-5.9,2.2-8.9,0.7-6.3s-4.9,6-6.3,6c-1.9,0-3.2-1.8-4-5.4s0.6-11.2,3.8-21.3 C212.8,107.3,213.6,104.3,213.3,104.1C213.4,104.1,213.3,104.1,213.3,104.1L213.3,104.1z M81.8,107c-5.2,0-10,10.2-12.7,27.1 c-0.3,1.9-0.7,3.3-0.9,3.1c-0.8-2.1-1.4-4.3-1.9-6.5c-2.7-10.9-8.4-18.8-13.6-18.8c-2,0-2.8,0.7-4.8,3.8c-1,1.4-1.8,2.9-2.4,4.4 c0,0.4,1.3,2,2.8,3.6c2.5,2.6,3.1,2.8,6,2.3c3.2-0.5,3.2-0.5,5.2,3.5c1.7,3.7,3.2,7.4,4.5,11.2l2.4,7.2l-2,2.4 c-2.4,3.1-3.7,6.9-3.7,10.8v2.4l2.3-2.8c2.1-2.5,2.5-2.7,4.5-2c3.3,1.2,3.1,2.2-0.9,3.9c-8.4,3.5-9.8,9.6-6.4,27.4 c3.3,17,4.4,24.8,4.4,32.4c0,3.8,0.3,7.1,0.6,7.5c1.2,1.2,1.9-6.7,1.5-18.3c-0.1-10.2-1.7-20.4-4.6-30.2c-0.9-3-1.3-5.8-1.1-6.2 c1-1.7,7.3-4.3,15.3-6.4c2.9-0.8,3.5-1.3,5-4.9c1.3-3,1.5-4.4,0.9-5.5c-1.3-2.4-8-8-10.9-9c-2-0.7-2.6-1.3-2.2-2.2 c0.5-1.2,2.2-8.2,4.7-18.8c2.5-10.8,5.4-13.8,9.2-9.7c3.3,3.4,4.9,2.3,4.9-3.6C88,111.6,84.5,107,81.8,107z M120.4,125.6 c-0.8,0.3-6,12-7.4,16.6c-3.2,10.3-3.2,21.7-0.1,24.8c2.4,2.2,6.1,2,8.2-0.4c0,0,0,0,0,0c1.9-2.1,4.5-8.9,4.5-11.9 c0-1.4-0.2-1.3-1.6,0.9c-1,1.5-2.3,2.9-3.7,3.9c-2.1,1.4-2.2,1.4-4.1-0.9s-2-2.8-1.6-8.4c0.6-5.2,1.6-10.3,3.2-15.2 C118.9,131.9,119.8,128.8,120.4,125.6L120.4,125.6L120.4,125.6z M176.8,170.2c-2.9,0-8.2,4-12.2,9.2c-5.1,6.7-4.9,11.7,0.5,14.3 l2.9,1.4l-3.2,2.9c-2.5,2.3-3.2,3.4-3.2,5.6v2.7l13-8.7c7.1-4.8,13.4-9.2,13.9-9.8c1.4-1.8,2.2-6.3,1.1-6.3c-0.5,0-3.2,1.4-6,3.1 c-6.4,4.1-8.3,4.5-11.9,2.8c-4-1.9-4.9-3.7-2.6-5.8c3.7-3.4,5-3.6,7.7-1.3l2.5,2.1l1.2-2.9C182.8,173.9,181.3,170.2,176.8,170.2 L176.8,170.2z M133.5,172.6c-0.7,0-2.6,3.1-4.6,7.7c-2.8,6.3-3.3,7.8-2.3,8.4c0.6,0.4,4.2,2.8,8,5.5s7.2,4.9,7.7,4.9 c1.1,0,7.5-12.1,7.5-14.2c-0.1-1.1-0.6-2.1-1.4-2.8C145.1,179.4,134.5,172.6,133.5,172.6L133.5,172.6z M117,233.4 c18.6-0.1,37.3,0.9,55.8,2.9c5.9,0.7,11.2,1.5,11.9,1.8s-1.6,1.8-6.8,4c-13,5.9-25.5,12.6-37.5,20.2c-2.9,2-5.9,3.8-9,5.5 c-1.6-1.1-3.2-2.3-4.6-3.7c-2.2-2-10.8-9.1-19.1-15.7c-9.1-7.3-14.7-12.3-14.3-12.7C94.9,234.2,104.2,233.4,117,233.4L117,233.4z M248.5,275.8c-2.8,0-3.9,0.4-5.1,2c-3,3.8-4.3,10.5-1.5,7.7c1.1-0.7,2.3-1,3.6-1c2,0,2.9,0.5,3.5,1.9c1.2,2.6-0.5,6-6.4,12.9 c-2.5,3-5.1,6.2-5.8,7.1c-2.1,3,5.9-3.1,9.5-7.1c6.5-7.4,9.7-17.3,7-21.5C252.2,276.1,251.4,275.8,248.5,275.8L248.5,275.8z M78.3,276.8c-1.4,0.1-2.7,0.4-3.9,1c-3.5,1.6-8.3,6.5-9.6,9.7c-1,2.6-1,7.2,0.1,9.1c1.3,1.6,2.8,3,4.5,4.1l3.8,2.6l-4,3.6 c-4.9,4.5-16.2,12-32.2,21.3c-6.7,3.9-12.2,7.4-12.2,7.8c0,0.9-0.6,1,10.2-2.9c16.6-6.1,25.6-11.5,35.7-21.4 c3.5-3.4,6.5-6.2,6.7-6.2c1,0.6,2,1.2,2.9,2l2.6,2l1.7-3.1c2.5-4.4,2.2-6-1.1-8.1c-1.8-1.1-2.7-2.2-2.4-2.9c0.6-2.1,1-4.2,1.3-6.4 C83.8,281.1,82.2,276.8,78.3,276.8L78.3,276.8z M74.6,285.2c2,0,3,1.9,3,5.5c0,1.9-0.3,3.5-0.6,3.5c-2.1-0.1-7.4-4.5-7.4-6.1 c0-0.6,1.2-1.6,2.6-2.2C72.9,285.5,73.7,285.3,74.6,285.2L74.6,285.2z M121.7,310.2c-6.2,0-8.3,0.9-10.8,4.5c-3,4.4-2.7,5,1.5,3.7 c2.8-0.9,4.4-1,7.8-0.3c7.3,1.5,7.3,1.5-0.8,10.2c-8.4,9-10.8,13.2-10.9,19.2c0,4.6,1.4,7,5.6,8.8c5.3,2.3,15.5,0.9,24-3.2 c5.5-2.7,12.3-8.4,8.8-7.4c-18.2,5.5-34.8,5.3-34.8-0.4c0-2,1.9-5.7,3.7-7.2c3.4-2.8,15.1-16.6,16.1-19 C134.2,313.3,130.7,310.2,121.7,310.2L121.7,310.2z M186.3,324.8c14.9,0.6,22.8,2.1,29,5.5c8.5,4.5,12.7,11.4,12.7,20.7 c0,7-4,14.2-12.9,23.6c-15.5,16.2-35.3,27-55.8,30.4c-11.2,1.9-26.1,0.8-35.2-2.5c-0.7-0.2,2.4-2.7,7.6-6.1 c11.2-7.3,20.9-14.8,25-19.6c3.8-4.3,7.6-11.6,9.3-18c0.9-3.4,2.5-23.2,2.7-33.6C170.6,323.2,183.9,324.7,186.3,324.8L186.3,324.8z M198.9,348.6c-4.6,0-7.4,2.8-8.9,9.1l-0.6,2.4l2.4-1.3c3.2-1.7,4.4-1.6,6.1,0.3c2.4,2.7,0.1,7.3-8.2,16.8c-1.5,1.6-2.9,3.3-4.1,5.2 c0,0.3,1.7-0.7,3.8-2.2c4.7-3.4,11.8-12.5,13.4-17.3C205.3,354.1,203.6,348.6,198.9,348.6L198.9,348.6z"/>
</svg>