<svg xmlns="http://www.w3.org/2000/svg" width="498" height="264">
<path d="M497.2,0c-1.6,0.3-13.5,4.6-27.7,9.8l-41,15.2c-14.4,5.3-14.8,5.5-16.5,11.8c-0.5,1.7-0.4,2.2,0.3,2 c7.8-3.2,55.2-21.8,66.8-26.2c15.1-5.7,15.5-6,17-9c0.9-1.7,1.4-3.3,1.2-3.5C497.4,0,497.3,0,497.2,0L497.2,0z M396.8,16.5 c-0.9,0-6.4,14.5-6.4,17c0.2,2.3,0.6,4.6,1.1,6.8c0.6,2.6,1.6,12.8,2,22.6s2.1,35.3,3.6,56.4c5.4,75.8,5.4,77.3,1.6,84.3 c-2.8,5.3-7.3,9.6-12.7,12.2c-13.2,6.1-28.1,9.3-42.8,11.5c-3.5,0.5-3.5,0.4,3.5-3.3c12.9-7.1,19.8-14.2,23.8-24.9 c2.2-5.9,2.4-13.2,0.4-17c-4.8-9.3-12.8-14.2-25.7-16.1c-10.8-1.5-22.1,1.9-33.4,10c-4.5,3.2-23,21.3-28.1,27.5 c-1.2,1.4-2.4,2.6-2.7,2.6s0-4.6,0.8-10.2c3.7-27.1,3.7-26.3-0.9-88.3c-1.3-17.5-2.4-32.7-2.4-34c0-2.2,0-2.2,3.8,1.5 c6.5,6.3,7.2,4.8,3.4-6.7c-3.8-11.2-13.7-36-14.4-36s-5,10-6.3,14.7c-0.7,2.5-0.6,4,0.6,7.6c1,3.2,1.6,8.1,2,17.3 c0.3,7,2,34.6,3.8,61.2c2.5,37.6,3.2,51.9,3,64l-0.3,15.6l-3.6,6.4c-2.1,3.6-4.5,7.1-7.2,10.3l-3.6,3.9l-9.1,1.6 c-29.1,4.9-106.4,9.2-141.3,7.8c-24.4-1-50.3-5.8-61-11.4c-6.6-3.5-15.5-11.3-18.3-16.2s-4.8-11.4-6.7-22.3c-2.2-12.7-3-25.2-4-57.6 c-1.6-55.2-2.7-68.6-7.4-87.6c-2-8-5.1-15.5-6.2-14.8C4.3,33.7,0,46,0,49.2c0.2,2.7,0.7,5.3,1.6,7.8c1.3,4.1,2.3,8.2,3.1,12.3 c2.7,13.7,3.1,19.6,5.7,87.3c1.4,35.9,3.3,56.2,6.4,65.3c2.4,6.8,6.4,12.9,11.5,17.9c3.6,3.6,6.8,5.8,13.6,9.1 c17.6,8.7,35,12.6,62.1,14c19.8,1,65.3-0.2,101.2-2.8c63.1-12.3,193.4,15.9,206-75.7c1.1-9.9,0.6-17.7-6-109.8 c-0.7-9.6-1.1-17.7-0.8-18s2,1,3.9,2.9c7.3,7.1,7.1,3.6-1-18.2C400.7,23.6,397.7,16.5,396.8,16.5L396.8,16.5z M373.5,18.5 c-0.2-0.2-18.7,6.4-41.1,14.7c-40,14.8-40.8,15.1-42,17.8c-0.7,1.5-1.3,3.1-1.9,4.6c-0.5,1.5-0.3,1.8,0.5,1.5 c2.3-1,60.1-23.7,71.1-28s11.6-4.5,12.7-7.4C373.4,20.2,373.8,18.7,373.5,18.5L373.5,18.5z M133.2,23.7c-5.3,0-7.4,3.7-11.2,19 l-2.7,11l-1-3.6c-3.1-11.9-6.9-18.9-11.3-21.2c-3.9-2-5.7-1.3-8.2,3.4l-2.3,4.2l2.9,2.9c2.6,2.6,3.2,2.8,6,2.4l3.2-0.5l2.4,5 c2.6,5.7,4.6,11.6,6.1,17.6c1.2,5.3,3.5,0.3,6.8-14.3c2.4-10.6,3.2-13,5.5-15.7c1.6-1.9,2.1-1.8,5.3,1c2.7,2.3,2.8,2.4,3.6,0.8 c1.3-2.5,1-6.6-0.7-9.5C136.3,24.2,135.5,23.7,133.2,23.7L133.2,23.7z M247.7,24c-0.8,0.2-5.8,11.6-7.3,16.5 c-1.6,5.3-2.5,15.5-1.7,19.5c0.3,1.7,1,3.2,2.1,4.5c2.3,2.3,5.8,2,8.1-0.8c1.8-2.1,5.2-11.8,4.4-12.6c-0.2-0.2-1.3,1.1-2.5,2.9 c-3.4,5.1-7.6,4-8.8-2.2c-0.6-3.1,1.1-12.1,4-21.2C247.2,27.2,248,24.2,247.7,24L247.7,24L247.7,24z M433.7,34.1 c-0.7,0-5.3,11.5-6.1,15.4c-0.3,1.2,0.1,4.5,0.8,7.2s1.6,12,2.1,21.4c0.5,9,2.1,34,3.6,55.6c6.2,89.4,6.8,100.4,5.1,114.4 c-0.5,3.9-0.6,7.7-0.3,8.4c0.8,1.8,4.7-7.2,7.1-16c4.9-18.1,4.7-30.6-1.1-110.6c-2.2-30.3-3.9-55.3-3.6-55.6s2,1.1,3.8,2.9 c7.4,7.2,7.1,3-1.4-19.5C436.9,39.4,434.7,34.2,433.7,34.1L433.7,34.1z M349,47.3l-1.4,3.2c-1.7,4-1.2,7.8,2.1,15 c2.8,6,2.4,7.8-1.7,7.8c-3.5,0-5.7-3.1-6.5-9.3c-1-7.5-2.4-13.8-3.2-14.3c-0.4-0.2-1.1,0.4-1.6,1.3c-0.9,1.7-0.8,4.5,0.5,14.5 c0.4,3.3,0.2,4.1-1.5,6.5c-2.3,3.1-5.7,4.3-7.5,2.8c-2.2-1.8-2.9-5-2.7-13.3c0.2-9.2-0.5-10.1-4.2-5.7c-2.5,3-2.7,5.9-0.5,7.1 c1.4,0.8,1.6,1.7,1.6,7.7c0,7.1,1.1,10.7,3.8,12.3c4,2.3,8.6,0.2,11-5c1.8-3.8,1.8-3.9,2.8-2c1.9,3.7,4.2,5.5,6.9,5.5 c3.4,0,5.6-2.3,7.1-7.5s1.5-6-0.9-12.7c-1.1-3.2-2.6-7.6-3.1-9.8L349,47.3z M221.3,56.7c-0.1,0-0.2,0-0.4,0 C219,57,213.5,72.4,205.6,99l-6.6,22.2l-8.9,2.9c-16.9,5.6-41,17-53.2,25.1c-8.9,5.9-15.2,12-26.7,25.8 c-12.4,14.8-19.8,19.9-30.4,21.2c-11.8,1.4-18.8-8.7-16.7-24.1c1.2-8.3,12.7-42.9,14.3-42.9c3.2,0,6.5-2.7,8.9-7.2 s6.2-17.3,5.4-18.1c-0.2-0.2-1.3,1.2-2.4,3.2c-2.2,3.8-7.1,8.6-8.8,8.6c-1.8,0-4.7-2.6-5.8-5.3c-2.6-6.3-1.1-17.5,5-37.4 c2-6.5,3.4-12.1,3.2-12.3c-0.7-0.7-9,17.5-11.2,24.5c-3.2,10.2-4.7,20.2-4.3,28.5c0.4,7.7,1.7,11.3,4.9,13.8l1.9,1.4l-3,6 c-8.4,16.6-12.9,32.1-13,44.1c0,8.4,0.8,12.7,3.8,18.5c3.8,7.6,10.2,12.8,17.2,14.1c5,1,9.2,0.3,14.8-2.4s9.5-6.3,23.4-21.8 c17.9-20,23.7-24.1,52.4-36.9c12.7-5.7,20.2-8.4,23.3-8.4c1.7,0,1.8,0.3,1.4,2.4s-0.3,2.4,1.6,2.4c2.6,0,2.7,0.2,4.1,7.3 c1.3,7.6,4.2,14.8,8.6,21.1c4.1,6.3,9.6,11.5,16.2,15.3c5.9,3.2,15.6,3.7,21,1.1c6.8-3.3,10-11,10.2-24c0.1-5.5-0.3-6.9-2.4-11.4 c-4.4-9-15-18.1-27.4-23.5c-2.9-1.2-5.3-2.4-5.5-2.5s0.5-2,1.5-4.1c2.8-5.8,3.9-10.9,4.8-21.5c0.8-9.1,0.7-10.5-1.6-24.8 c-1.3-8.3-2.6-17-2.9-19.4C222.5,57.8,222.1,56.7,221.3,56.7L221.3,56.7z M170.2,57.4c-0.9,0-2.2,0.5-4.2,1.4 c-3.4,1.6-8,6.3-9.2,9.5c-2.1,5.6-0.3,10.4,5.4,13.9l2.9,1.8l-3.9,3.5c-6,5.4-12.5,9.8-28.1,19c-7.8,4.6-14.8,8.9-15.4,9.6 c-1.7,1.7-1,1.6,8.9-2.1c16.6-6.1,29.3-13.9,38-23.4c4.4-4.8,5.5-5,8.2-1.8c1.5,1.8,1.9,1.6,3.9-1.8c2.4-4.2,2.2-5.2-1.1-7.8 c-2.8-2.3-2.9-2.4-2-5.5c0.6-2.7,0.9-5.4,0.9-8.2c0-3.9-0.3-5.3-1.6-6.6C171.8,57.9,171.2,57.4,170.2,57.4L170.2,57.4z M165.9,66.1 c2.4-0.1,3.8,2,3.8,5.9c0,3.4-0.9,3.6-5,0.8c-3.3-2.2-3.9-4.7-1.4-6C164,66.4,164.9,66.1,165.9,66.1L165.9,66.1z M216.9,81.7 c0.1,0,0.1,0,0.1,0.1c1.4,2.4,5.4,16.9,5.4,19.7c0,6-4.2,10.9-13,15.4c-1.5,0.8-3,1.5-4.6,1.9c-1.2,0-0.5-3.2,4.1-16.8 C213.1,89.1,216,81.8,216.9,81.7L216.9,81.7z M372.2,97.4c-0.9,0.2-6.1,12.7-7.5,18.3c-2.8,10.9-1.7,22.5,2.3,23.5 c5.3,1.4,7.9-1.3,10.3-10.2c1.5-5.6,1.4-5.7-1.5-1.8c-3,3.9-5.2,4.6-7.4,2.2c-2.5-2.7-1.9-10.4,1.5-22 C371.4,102,372.5,97.5,372.2,97.4C372.3,97.3,372.3,97.3,372.2,97.4L372.2,97.4z M316.9,114.9c-0.3,0-2.3,3.5-4.3,7.7l-3.7,7.7 l8.2,5.9c4.5,3.2,8.5,5.8,8.9,5.6s2.4-3.3,4.4-7.2c2.8-5.4,3.5-7.3,2.8-8.3C332.3,124.9,318,114.9,316.9,114.9L316.9,114.9z M217.5,152.6c1.7,0.2,3.3,0.6,4.9,1.2c13.6,4,30.5,17.7,25.6,20.7c-1.4,0.5-2.8,0.7-4.2,0.9c-8.9,1.1-19.9-6.9-25.8-18.6 C216.6,153.7,216.1,152.6,217.5,152.6L217.5,152.6z M333.3,185.4c4.1,0,8.2,0.7,12.1,2c6,1.9,14.5,6.8,17.4,10 c1.3,1.4,1.2,1.6-3.3,4.4c-13.2,8.4-40.8,18.4-73.1,26.3c-5.9,1.5-12.4,2.9-14.3,3.2l-3.5,0.6l1.6-2.3c3.1-4.3,19.2-21.3,24.7-26.1 C309.1,191.2,321.3,185.4,333.3,185.4L333.3,185.4z M251.1,198.1c-0.5,0-19.1,6.7-41.3,15l-40.4,15l-1.5,3.5 c-0.6,1.4-1.2,2.8-1.5,4.3c0,1.1-0.7,1.3,26.4-9.4c13-5.1,31-12.2,40-15.6c15.3-5.8,16.5-6.4,17.8-8.9 C252.2,198.8,252.3,198.1,251.1,198.1L251.1,198.1z"/>
</svg>