<svg xmlns="http://www.w3.org/2000/svg" width="473" height="334">
<path d="M161.3,0c-2.5,0.2-4.3,1.8-6.1,5.5c-1.5,3-5.6,18.7-5.6,21.5c0,3.8-1.4,2.1-2.7-3.2c-2.3-9.4-6.3-16.2-11.1-18.7 c-3.8-2-5.1-1.5-7.5,3.2c-2.2,4.2-2.2,4.4-0.9,6.4c2.1,3.1,5.7,4.8,7.8,3.5c1.4-0.9,1.8-0.8,3.2,1c1.7,2.2,5.9,12.3,7.3,17.8 c0.9,3.2,0.8,3.8-0.5,5.1c-2,2-3.4,5.5-4.1,10.3l-0.6,4l2.8-3c3.2-3.4,3.7-3.5,6.2-1.5l1.8,1.5l-3.6,1.4c-4.2,1.6-6.5,3.8-8.3,8.1 c-1.5,3.6-1.2,8,1.4,20.3c2.8,13.2,3.9,20.9,4.4,31.2c0.8,13.8,2.1,9.5,2.1-6.8c0.2-11.2-1.3-22.4-4.6-33.2l-1.9-6.4l2-1.6 c1.1-0.9,5.5-2.7,9.8-4c7.1-2.2,7.8-2.6,9.1-5.2c0.7-1.5,1.2-3.1,1.4-4.7c0-2.4-6.1-8.5-10.5-10.5c-2.6-1.2-3.1-1.8-2.8-3.1 c0.3-0.9,1.6-6.7,3.1-12.9c2.5-10.7,4.7-16.3,6.7-16.9c0.5-0.2,2.2,0.8,3.7,2.1c2.3,2,2.9,2.3,3.7,1.3c3.4-4,0.4-11.8-4.6-12.3 C162,0,161.6,0,161.3,0L161.3,0z M208.7,0c-0.8,0-1.7,2.2-4,8.5c-2.7,7.5-2.9,9.1-1.3,14.4c0.6,2.1,1.5,11,2,20.5 c0.5,9.2,2.4,35.5,4.1,58.4c3.7,47.5,4.6,69.1,3.2,75.5c-0.9,4.4-5.9,11.6-14.6,21.2l-3.6,3.9l-4.8-1.3c-8.3-1.7-7.2-2.4-12.6-5.2 c-8.1-4.3-16.9-13.5-21.7-22.7c-1.6-3-3.2-5.4-3.6-5.4c-1.4,0-3.1,4.5-4.4,11.5l-1.3,7l4.8,10.6c5.8,12.7,8.1,19.9,8.7,27.2l0.5,5.5 l-7.1,6.9c-4.2,4-8.7,7.8-13.4,11.2l-6.3,4.3l-8.5-1.4c-13.6-2.2-24.8-5.1-29.8-7.7c-6.5-3.4-14.8-10.5-17.7-15 c-6.6-10.3-9.8-31.1-11.1-70.6c-1.2-35.5-1.9-30.8,5.7-36c3.9-2.8,7.6-5.9,11-9.4c2.6-2.8,4.9-5,5.2-5c1.2,0.5,2.2,1.2,3.2,2l2.6,2 l1.8-3.1c2.5-4.4,2.2-6-1.1-8.1c-1.5-1-2.5-2.2-2.4-2.8c1.1-2.9,2.1-11.2,1.7-13.4c-0.7-3.1-2.5-5.3-4.5-5.3s-7.1,2.8-9.2,5 c-6.9,7.6-6.7,14.6,0.6,19.5l3.4,2.3l-4,3.6c-2.9,2.5-6,4.9-9.2,7.1l-5.2,3.5l-0.6-3.8c-0.3-2.1-0.9-10.3-1.4-18.2 c-0.9-15-2.9-29.3-5.7-39.5c-1.9-6.8-4.7-13.7-5.6-13.7c-0.8,0-4.3,9.2-5.6,14.5c-0.8,3.3-0.7,4.3,0.8,8.4 c3.7,9.9,6.3,26.5,7.1,45.3c0.5,10.7,0.4,12.8-0.7,13.7c-0.7,0.6-5.1,3.3-9.8,6.1s-8.6,5.4-8.6,5.7s12.3-3.6,18.6-6.2 c1.2-0.5,1.4-0.1,1.4,2.6c0,9.6,2.6,62.4,3.6,73.6c2.2,24.5,5.2,33,15.2,43.1c4.7,4.7,7.1,6.4,14.8,10.2c3.7,1.9,7.5,3.6,11.4,5 c1.2,0.3,2.2,0.8,2.2,1.2c0,0.9-15.8,6-24.8,8.1c-9.8,2.3-27.2,2.9-36,1.2C22.4,272.7,7,257,3.9,237.1c-0.9-5.5-0.4-10.4,2.2-22.2 l1.4-6.2h3.1c4.3,0,7.3-2.4,10-8.2c2.4-5.1,5.5-16.3,4.7-17.1c-0.2-0.2-1.2,1-2.1,2.8c-2.4,4.6-6.7,9-9,8.9C9.7,195,7,190,7,182 c0-7,1.1-12.5,5.7-27.7c2.2-7.2,3.8-13.3,3.5-13.5c-0.6-0.6-8.8,16.8-10.8,22.9C2.5,172.1,1,181,1.1,189.9c-0.1,8.8,0.1,10,1.9,13.5 l2,3.9l-2.3,8.9c-1.9,7.4-2.3,11-2.7,21.7c-0.4,14.8,0.4,19.2,5.4,29.1c8,15.9,18.4,24.7,33.9,29l0,0c4.8,1.3,7.6,1.5,18.5,1.2 c13.7-0.4,20.2-1.5,32-5.4c8.6-2.9,22.8-9.5,32-15.1l6.8-4l7.4,0.9c4.1,0.5,15.3,1.1,25,1.4c59.3,1.7,121.1-10.2,167.5-32.2 c5-2.4,9.4-4.3,9.7-4.3s0.9,2.1,1.1,4.7c0.8,6.5,4.7,14.1,9,17.4c4.1,3.1,7.9,4.3,13.8,4.2c14.6,0,26.8-17.1,30.4-42.4 c1.1-7.7,1.1-26.5,0-42.8c-1.1-15.7-3.6-52-5.2-73.6c-0.6-8.8-1.2-17.2-1.2-18.7v-2.7l4,3.7c5,4.7,6,4.8,5.3,0.3 c-0.6-3.6-12.4-35.6-15.1-41l-1.6-3.2l-1.9,4.3c-1,2.3-2.6,6.5-3.5,9.1c-1.5,4.5-1.5,5-0.4,8.5c1.3,3.9,1.5,5.6,2.9,29.7 c0.5,8.1,1.9,29.9,3.2,48.4c4.3,61.2,4.8,69.2,4.8,77c0,13.5-1.3,16-10.4,20.4c-4.5,2.2-6.1,2.6-11.4,2.6c-5.7,0-6.4-0.2-9.2-2.4 c-4.5-3.6-6-8.5-5.5-17.4c0.2-3.9,0.3-7,0.1-7s-4.9,2.2-10.5,4.8c-37.4,17.6-87.5,29-141.6,32.1c-14.1,0.8-42,0.4-42-0.6 c1-1.6,2.1-3.1,3.2-4.5c6.3-8,9.6-17.4,10.8-30.4c0.3-3.4,0.7-6.2,0.9-6.2s2.9,1.3,5.9,2.8c3.3,1.9,6.9,3.4,10.6,4.4 c2.8,0.7,5.7,1.2,8.6,1.6c7.1,0.9,27.5,0.2,37.2-1.2c23-3.5,48.3-12.2,63.6-21.8c12.6-7.9,20.8-21.3,20.8-33.8 c0-9.3-10.1-24.4-19.2-28.6c-5.3-2.4-9.5-2.8-16.7-1.6c-14.2,2.5-33.1,14.2-52.7,32.8c-3.7,3.5-6.9,6.2-7.1,6s0.4-5.7,1.2-12.3 s1.8-16.6,2.1-22.4c0.5-10.9,0.4-12.4-4.1-65.5c-1.6-18-2.6-32.9-2.4-33.2s2,1.1,3.9,2.9c6.2,6.1,6.9,3.9,2.5-8.8 c-3.5-10.1-12-31.8-13.1-33.5C209.2,0.3,209,0,208.7,0L208.7,0z M472.4,11.3c-0.2-0.2-15.2,5.2-33.4,12S402.2,37,397.7,38.7 c-2.8,0.9-5.5,2-8.2,3.3c0,0.2-0.7,2.1-1.6,4.3s-1.5,4-1.3,4s11.6-4.5,25.4-9.9s31.9-12.5,40.1-15.6s15.8-6.1,16.6-6.5 C470.2,17.4,473.1,12,472.4,11.3L472.4,11.3z M347.7,25.5c-13.9,0.1-15.9,1.6-22.1,12.8c-0.9,1.6-1.8,3.2-2.5,4.9 c0,0.2,7.8,0.6,17.4,0.7c16.9,0.3,21,0.8,21,3c0,0.9-6.3,4.7-20,12c-5.9,3.2-12.2,6.8-14,8.2l-3.2,2.4l2.8-0.6 c4.5-0.9,20.8-5.7,26-7.7c3.8-1.4,6-3,10.4-7.5c6.7-6.8,14.8-18.4,15-21.6c0.4-4.9-7.6-6.8-27.8-6.8L347.7,25.5z M275.4,36 c-0.7,0.1-4.9,9.8-6.8,15.7c-2.4,7.5-3,19-1.2,22.5c0.7,1.4,1.8,2.5,3.1,3.3l1.9,0.8c0.8-0.2,1.5-0.4,2.2-0.8c1.4-0.5,2.7-2.2,4-5 c2.1-4.6,3.7-11.9,2-9s-5,6-6.5,6c-1.7,0-3.5-2.7-4.1-6.2c-0.5-2.9,0.8-9.8,3.8-20.2c1.1-3.7,1.8-6.9,1.6-7.1 C275.5,36,275.5,36,275.4,36L275.4,36z M415.9,45.5c-0.8,0-5.1,10.1-6.4,14.9c-0.8,2.1-0.6,4.4,0.4,6.3c0.9,2.1,1.5,7.5,2,16.7 c0.4,7.5,2,31.8,3.5,54.1c6.5,93.9,7,104.1,5.7,121.8c-0.4,5.2-0.4,9.4-0.1,9.4c1,0,5.3-10.5,7.2-17.9c4.8-18.3,4.7-24.6-1.2-105.6 c-2.2-30.4-4-56.5-4-58v-2.8l3.8,3.8c4.8,4.7,6.2,4.9,5.5,0.8C431.5,83.6,417,45.5,415.9,45.5L415.9,45.5z M37.9,55.3 c-0.9,0.2-6.3,13.2-7.7,18.8c-1.7,6.7-2,17.4-0.6,20.4c0.6,1.2,1.5,2.1,2.6,2.8c2.2,1.1,2.4,1.1,4.8,0.2s4.3-4.3,5.8-10.1 s1.4-5.7-1.5-1.8c-3.4,4.5-5.9,4.7-8,0.7c-1.9-3.7-1.4-8.1,2.2-20.8C37,60.1,38.2,55.5,37.9,55.3C38,55.3,38,55.3,37.9,55.3 L37.9,55.3z M367,85.9c-0.2-0.2-18.9,6.6-41.6,15l-41.3,15.3l-1.3,3.7c-0.6,1.4-1,2.9-1.3,4.3c0,0.4,0.5,0.5,1,0.3 c8.9-3.6,55.2-21.8,66.7-26.2c15.1-5.7,15.3-5.8,16.7-8.9C366.7,87.7,367.2,86.2,367,85.9L367,85.9z M85,87.1c1-0.1,2,0.3,2.7,0.9 c0.5,0.5,1,2.5,1,4.4s-0.3,3.4-0.7,3.4c-1.2,0-5.9-3.5-6.8-5.1c-0.7-1.2-0.6-1.7,0.7-2.6C82.8,87.6,83.9,87.2,85,87.1z M346.8,134.5 c-0.8,0.2-6.1,11.9-7.8,17.4c-2.4,7.8-2.6,20.1-0.5,23.4c1.1,1.7,2,2.2,4.2,2.2c4.5,0,7.6-4.3,8.7-12.1c0.4-2.9,0.4-3.2-0.4-1.9 c-1.5,2.6-5,6-6,6c-0.5,0-1.7-0.9-2.6-2.1c-2.9-3.7-1.8-13.5,3.1-27.8c0.9-2.6,1.5-4.9,1.4-5C346.8,134.6,346.8,134.6,346.8,134.5 L346.8,134.5z M88,148.7c-0.5,0-2.5,3.5-4.5,7.8c-2.9,6.2-3.4,7.9-2.5,8.4c0.6,0.3,4.3,2.9,8.2,5.8c8.4,6.1,8.2,6.1,12.7-3.6 c3-6.3,3-6.4,1.5-8.1C101.5,156.9,89.2,148.7,88,148.7L88,148.7z M276.2,153.5c9.6,0,15.9,3.8,22.7,13.9c6.1,9,6,9.2-4.4,14.4 c-21.5,10.5-44.8,17.2-68.6,19.6c-12.4,1.2-22.8,1.7-22.8,1.1c0-1.2,13.2-14.8,21-21.7C244.4,162.8,262.2,153.5,276.2,153.5 L276.2,153.5z M298.8,209.8c-0.4-0.4-81.8,29.6-82.6,30.4c-0.8,1.5-1.5,3-2,4.6c-1.1,2.9-1.3,4-0.6,3.8c6.7-2.7,60.8-23.9,70.1-27.4 c11.8-4.5,12.3-4.8,13.9-7.8C298.5,211.6,299,210,298.8,209.8L298.8,209.8z M225.6,306.3c-0.6,0-7.1,13-7.5,14.9 c-0.1,0.5,3.4,3.5,7.8,6.6s8.3,5.5,8.7,5.4s2.4-3.4,4.4-7.2c2.8-5.4,3.5-7.3,2.8-8.4C241,316.3,226.7,306.3,225.6,306.3L225.6,306.3 z"/>
</svg>