<svg xmlns="http://www.w3.org/2000/svg" width="285" height="454">
<path d="M85.9,452.1c-11.4-2.6-19.9-11.3-23.9-24.4c-1.7-5.6-2.2-17.2-1.2-25.6c0.5-4.1,0.8-7.7,0.6-7.9s-4.3,1.3-9.2,3.2 s-8.9,3.2-8.9,2.8c0.4-1.6,0.9-3.1,1.6-4.6c1.6-3.7,1.7-3.8,9.2-6.4c3-1,5.9-2.2,8.7-3.6c0.6-0.5,2.3-4.3,3.7-8.5 c1.1-3.5,2.5-7,4.1-10.4c1.4-2.6,1.5-2.7,1.6-0.8c-0.4,3.1-1.1,6.2-2,9.2c-1.1,4-2,7.6-2,8.1s13.5-4.1,30-10.3s30.3-10.9,30.6-10.6 s-0.2,1.9-1,3.5c-1.5,2.8-2.4,3.2-16,8.4c-7.9,3-21.3,8.2-29.8,11.5c-17.7,7-16.6,5.7-16.5,17.9c0,8.9,1.8,14.5,6.4,19.8 c5.7,6.7,17.9,10.4,29,8.9c19.1-2.6,46.4-19.5,68.6-42.4c9.8-10.1,11.4-12.8,10.3-17.4l-0.7-2.9l-4,0.4c-7.6,0.8-23.2,0.4-26.8-0.7 c-4.9-1.7-8.7-5.5-10.5-10.4c-1.4-4.6-0.1-13.8,2.8-19.7s8.4-11.9,12.9-14.1c5.3-2.5,11.5-2,16.2,1.4c4.2,3.1,10.3,10.7,14.1,17.5 l2.9,5.2l2.9-1.2c7.3-2.9,13.3-8.2,17.1-15c1.7-3.1,1.8-4.4,1.8-16.2c0-7-0.5-18.9-1-26.4s-1.7-23.5-2.6-35.6s-1.9-26.7-2.4-32.4 s-0.8-10.9-0.8-11.5s-0.6-0.9-1.6-0.5c-1.9,0.6-2-0.2-0.3-4.4c1.1-2.8,1.2-5.3,0.7-17.3c-0.3-7.7-1.1-16-1.7-18.4 c-0.6-2.2-1-4.5-1.1-6.7c0-2.6,5.4-16.8,6.4-16.8c0.8,0,4.2,8.1,10.9,26.2c7.5,20.2,7.7,24.2,0.7,17c-1.7-1.8-3.5-3.2-3.9-3.2 c-0.7,0-0.3,10.1,0.5,10.9c0.5,0.5,17.2-5.8,19.6-7.3c0.9-0.6,1.9-1,3-1.1c0.7,0,11-3.6,23-8.1c25.1-9.3,26.2-9.7,26.2-8.7 c0,1.9-2.9,6.4-4.3,6.9c-2.2,0.7-36.7,13.9-37,14.2c-0.4,0.1,3.9,16.1,9.1,30.1c5.2,14,6.9,20.8,5.1,20.8c-0.5,0-2.6-1.6-4.6-3.7 s-3.8-3.5-4-3.3s1.1,20.3,2.9,44.7c4.9,67.8,5.6,79.3,5.6,91c0,16.6-2.6,31.1-7.8,42.7c-2.5,5.6-3.8,6-3.1,0.8c0.3-2.1,0.7-8.8,1-15 c0.6-12.1-0.1-23.5-5.3-98.4c-1.7-24.6-3.5-52.2-4-61.2s-1.7-32.6-2.4-35.3s5.2-12.7,5.2-12.7l-13,5.6c-0.3,0-3.7,1.2-7.4,2.6 c-6.6,2.6-6.8,2.7-7,5.5c-0.1,1.6,0.7,15.4,1.8,30.8c4,55,4.6,66.8,3.7,75.9c-2.5,24.6-12,42.3-27.4,51.2c-3.5,2-3.8,2.4-3.8,5.3 c0,4.3-4,16.3-7.5,22.6c-3.3,5.9-15,19.2-23.8,27c-28.6,25.5-51.6,35.8-70.1,31.6L85.9,452.1z M169,351c0.9-0.9-6-7.2-9.6-8.7 c-5-2.1-12.2,0.3-12.2,4c0,2.3,2.3,4.5,5.8,5.4C156.1,352.5,168,352,169,351L169,351z M204.8,409.7c1.3-1.9,2.7-3.8,4.3-5.5 c7.8-8.9,9.5-12.4,8-16.1c-0.6-1.5-4.4-1.7-6.8-0.4c-1.8,1-2-0.2-0.7-3.8c1.5-4,3.9-5.9,7.6-5.9c4.3,0,5.5,1.5,5.4,6.7 c-0.1,4.8-2.5,10.1-7.3,16.1C212.5,404.5,204.8,410.9,204.8,409.7L204.8,409.7z M33.2,361.7c-15.5-3.4-27.3-15.3-31.5-32.1 c-2-7.7-2.2-25.9-0.4-36.7c2.2-13.8,7-27,14.1-39l1.8-3l-1.6-1.8c-2.9-3.2-3.7-5.6-4.1-13c-0.6-12.6,3.3-29,10.6-43.9 c1.9-4,3.5-7.2,3.4-7.3s-3.9,1.3-8.4,3s-8.7,3-9.2,2.8s5.4-4,13.1-8.6C38,172,45.4,167,51.5,161.9l4.6-4l-3.9-2.6 c-3.5-2.4-5.8-5.4-5.8-7.8c0-2.9,2.1-7.5,4.7-10.4c5.2-5.8,12.5-7.5,14-3.4c0.8,2.1,0.6,8.7-0.4,13.2c-0.8,3.6-0.8,4.2,0.3,4.8 c1.1,0.7,2.2,1.4,3.2,2.3c1.7,1.4,1.8,1.7,0.9,3.8c-0.6,1.4-1.4,2.8-2.2,4.1l-1.2,1.8l-5.5-4.2l-5.8,5.9c-6.5,6.5-14,12-22.3,16.2 c-2.4,1.2-4.5,2.3-4.6,2.4c-0.6,0.5-6.8,21.4-8.2,27.6c-1.8,8-2,17.4-0.5,21.1c1.1,2.7,4,5.3,5.8,5.3c1.7,0,6.6-4.8,8.8-8.6 c1.1-1.9,2.2-3.4,2.4-3.2c0.6,0.6-2,10.8-3.9,15.1c-2.9,6.8-6.2,10.2-10,10.2c-1.5,0-2.2,0.9-3.9,4.6c-12.3,27.5-14.9,48-8,63.1 c6.3,13.8,17.9,21.6,34.2,23.1c19.8,1.8,52-9.3,86-29.6c4.8-2.8,9.4-5.8,13.8-9.1c3.7-3.2,3.4-4.2-2.4-6.7 c-3.2-1.4-25-7.8-42.8-12.6c-7.5-2-10-3.4-10-5.7c0.3-2.4,0.7-4.8,1.3-7.2c1.2-5.3,1.4-5.7,4.5-7.2c1.8-0.9,9.8-3,17.8-4.7 c16.7-3.5,19.8-4.6,21.3-8.2s1.3-33.9-0.4-57.7c-0.7-10.1-2.2-31.4-3.3-47.2s-2.2-30.7-2.4-33l-0.4-4.2l-5.3,2.2l0.7-2.1 c1.5-4.9,2.6-7.2,3.4-7.6c1.4-0.5,0.3-25.2-1.4-31.7c-0.6-2.2-1-4.3-1.3-6.6c0-2.1,5.6-16.7,6.5-16.7s3.1,5.1,10.4,24.5 c8.1,21.7,8.4,25.7,1,18.5c-1.9-1.8-3.6-3.1-3.9-2.8c-0.7,0.7,0.5,10.2,1.3,10.2c0.4,0,7.8-2.7,16.5-5.9 c35.9-13.4,51.4-19,52.1-18.8c0.4,0.2,0.2,1.6-0.4,3.2c-1.1,2.8-1.6,3.1-14.1,7.8c-7.1,2.7-22.2,8.6-33.6,13l-20.6,8.1v2.9 c0,1.6,0.5,9.9,1.2,18.5c1.5,19.5,4.2,60.3,4.9,73.6c0.6,12.5-0.8,41.9-2.5,50c-1.6,7-4.1,13.9-7.6,20.2c-0.6,0.9-1.1,1.9-1.6,2.9 c1.3,0.7,2.7,1.3,4.2,1.7c5.6,1.8,11.8,4.9,14.1,7c8.2,7.5,3.8,24.5-10,39c-13.5,14.4-58.2,36.5-83,41.3 C50.6,363.2,39.7,363.1,33.2,361.7L33.2,361.7z M60.5,146.6c0.7-2.6-1.2-6.4-3.3-6.7c-1.3,0-2.6,0.5-3.6,1.3c-1.7,1.4-1.8,1.7-0.7,3 c1.2,1.5,5.5,4.4,6.6,4.4C59.7,148.5,60.2,147.7,60.5,146.6L60.5,146.6z M177.4,298.7c0.4-19.9,0.3-22.3-5.4-104.2 c-1.8-25.1-3.5-52.1-3.9-60c-0.5-8.8-1.3-16.1-2.1-18.8l-1.3-4.4l3-7.9c1-3,2.2-5.9,3.6-8.7c0.9-1,3.5,4.8,10.8,24.3 c6.8,18.1,7.7,21.6,5.5,21.6c-0.8,0-3-1.5-4.8-3.3s-3.5-3-3.7-2.6s1.2,21.4,3,46.7c5.8,78.4,6.3,88.5,5.2,99.6 c-0.5,5.5-1.4,10.9-2.5,16.2c-1.7,7-6.1,19.1-7.2,19.8C177.3,317.1,177.2,308.9,177.4,298.7L177.4,298.7z M61.9,308.8 c-1.9-2.9-2.3-11.3-0.8-18.5c1.3-6.1,6.2-19.1,7.8-20.6c1.1-1,1-0.7-2.1,9.5c-1.3,4.4-2.2,9-2.6,13.6c-0.3,5.7-0.2,6.6,1.3,8.2 c0.7,0.9,1.7,1.5,2.7,1.8c1.1,0,4.5-3.4,6.1-6s0.2,4.1-1.7,8.6c-1.8,4.2-3.3,5.4-6.9,5.4C64.1,311,62.6,310.2,61.9,308.8L61.9,308.8 z M61.2,204.2c-2-3-2.8-6.8-2.8-12.7c0-4.1-0.3-5.5-1.2-5.9c-2.4-0.9-0.4-8.3,2.6-9.5c2.4-0.9,2.8,0.5,2.3,8.3 c-0.4,6.5-0.3,8.1,0.9,10.5c1.2,2.4,1.8,2.8,4,2.7c3.1-0.1,4.6-1.3,6.3-4.5c1.1-2.1,1.1-3-0.1-9.3s-1.2-7.2-0.2-9.7l1.2-2.8l1.2,2.9 c1.1,3.5,1.9,7,2.4,10.6c1.3,8.9,2.6,10.9,6.6,10.9c4.2,0,4.5-1.8,1.4-8.3c-2.9-6.1-3.6-12.4-1.6-15.1c1.5-1.9,2.1-1.8,2.1,0.6 c0,1.1,1.1,4.9,2.5,8.6c2.8,7.5,2.9,13.2,0.4,18.4c-2.7,5.6-8.6,5.8-11.8,0.2l-1.7-2.9l-2,3.6c-2.2,3.9-4.4,5.4-8.6,5.4 C63.2,206.1,62.1,205.6,61.2,204.2L61.2,204.2z M189.6,145.8c1.1-1.1,10.5-6.5,25.6-14.8c9.2-5,10.7-6.1,10-7.2 c-1.2-2-7.7-2.8-22.6-2.8c-8.5,0-15.4-0.2-15.4-0.5c1.2-2.5,2.4-4.9,3.9-7.2c5.6-9.9,6.9-10.4,24.1-10.4c17.6,0,26.1,1.6,27.5,5.2 c0.7,1.9-3.5,9.4-9.8,17.2c-9.1,11.3-11.3,12.6-33.3,18.8C188.9,147.2,187.9,147.4,189.6,145.8L189.6,145.8z M85.6,118.5 c-0.1-8.3-1.7-20.1-4.8-36c-2.7-13.8-2.7-17,0.2-22.1c1.5-2.7,6.8-6.3,9.4-6.3c2.3,0-1.1-3.1-3.4-3.2c-0.8,0-2.2,1.1-3.2,2.4 c-2.5,3.3-3.3,3-2.7-1c0.8-4.6,2.5-8.8,4.4-10.2c1.5-1.2,1.4-1.4-0.7-7.8c-1.3-3.8-2.8-7.6-4.5-11.2c-2.3-4.6-2.3-4.6-5.5-4.4 c-2.6,0.2-3.7-0.2-5.8-2.2c-3.2-2.9-3.2-3.8-0.4-8.4c3.1-5.1,5.6-5,10.7,0.3c3.9,4.1,6.6,9.8,8.1,17.5c0.8,4,2.2,5.1,2.2,1.7 c0-2.7,4.1-18.5,5.6-21.5c1.6-3.3,3.6-5.2,6.2-6c1.4-0.4,2.4,0.1,4.7,2.3c2.6,2.6,2.8,3.2,2.4,6.1c-0.2,1.6-0.6,3.1-1.4,4.4 c-0.9,1.1-1.3,0.9-3.3-1.3c-1.3-1.4-2.9-2.4-3.6-2.2c-2.3,0.4-4.4,5.6-7.1,17c-1.4,6.2-2.8,12-3,12.8c-0.3,1.3,0.2,1.9,2.7,3 c4.8,2.2,10.5,7.9,10.5,10.5c-0.4,2.7-1.3,5.3-2.8,7.5c-0.1,0.1-2.8,0.9-6,1.8C87.9,64,82.5,66.5,82,68c-0.2,0.6,0.5,4.6,1.7,8.9 c4.2,16,5.5,37.3,2.9,45.6C85.9,124.5,85.8,123.7,85.6,118.5L85.6,118.5z"/>
</svg>