<svg xmlns="http://www.w3.org/2000/svg" width="515" height="398">
<path d="M252.2,395.8c-20-4.4-32.9-17-38.2-37.5c-4.8-18.6-4-42.5,1.9-64.5c1.1-4,1.7-7.4,1.4-7.7c-1.2-0.6-2.4-1.1-3.7-1.5 c-4-1.5-7.8-3.3-11.6-5.3c-9.5-4.8-15.6-10.3-20.4-18.3c-6.5-10.8-8.2-24.2-10.4-80.4c-0.7-16.9-1.4-36-1.7-42.4 c-0.9-23.1-3.4-40.4-7.2-51.2c-1.7-4.7-1.9-6-1.1-9.1c1.1-4.9,4.8-14.1,5.7-14.1c2,0,6.3,13.8,8.7,27.9c2.3,13.4,3.1,25,4,56.1 c1.6,53.9,2.7,68.5,6.5,84.8c3,12.9,8.3,20.4,19.7,27.7c4.3,2.7,17,8.3,18.9,8.3c0.6,0,2.5-2.2,4.2-4.9c3.9-6.3,13-17.1,20.3-24.2 c3.1-3,5.6-6,5.4-6.5c-0.6-1.7-13.3-11.3-18.3-14c-6.1-3.3-9.2-3.3-15.6-0.1s-7.6,3.2-6.9,0.3c1.4-5.7,5.2-17.4,6.1-18.4 c2.9-3.5,18.4-9,30.9-11.1c25.4-4.2,64.3,6.2,62.2,16.7c-0.9,2.9-2,5.7-3.3,8.4l-2.9,6.2l-12.8,6.3c-9,4.5-12.5,6.6-12,7.2 c1.3,1.6,8.5,5.2,14.6,7.3c7.9,2.7,20.4,3.4,27.8,1.6c11.8-3,14.3-4.9,30.6-22.5c2.8-3.1,3.9-3.8,4.6-3.1s0.7,1.9,0,5.1 c-2.9,12.2,2.2,18.3,15.6,18.4c13,0,21-3.6,29.4-13.2c7.4-8.5,8.1-8.7,13.8-4.8c8.2,5.8,9.6,6.3,18,6.3c6.5,0,8.2-0.3,12-2.1 c9.4-4.4,11.2-7.7,11.2-20.5c0-6.4-3.6-63.7-5.6-88.2c-1.1-13.7-2.3-32.8-3.2-49.6c-0.5-9.1-1.2-15.3-2-17.7c-1.2-3.5-1.2-4,0.3-8.5 c0.9-2.7,2.5-6.8,3.5-9.1l1.9-4.3l1.6,3.2c2.7,5.4,14.5,37.4,15.1,41c0.7,4.4-0.3,4.4-5.3-0.3l-4-3.7v2.6c0,1.4,1.2,19.9,2.8,41.1 c4.1,56.5,4.5,63.7,4.5,77c0,23.4-5,40.7-14.8,51.4c-4.2,4.6-10.4,8.1-14.3,8.2H438l0.5,4.6c0.3,2.5,0.6,5,0.8,5.5 c0.5,1.8-1.2,12.8-2.5,15.7c-1,2.1-1.8,3-3.1,3c-2.5,0-10.6-5.1-15.1-9.5c-6.3-6.2-8.3-11.2-10.7-27.2c-0.2-1.5-0.7-2.5-1.1-2.4 s-3.7,3.8-7.4,8.2c-7.5,8.9-12,11.9-20.3,13.3c-9.1,1.6-18.5-1.6-23.3-7.8c-1.6-2.4-2.9-5.1-3.9-7.9l-1.7-5l-2.2,3.5 c-3.5,5.4-12.5,13.3-19.3,16.8c-5.7,2.9-6.7,3.1-14.1,3.4c-4.3,0.2-8.6,0-12.9-0.6c-10-1.9-21.6-7.7-32.2-16.1l-4.9-3.8l-6.7,5 c-6.6,4.9-22.9,20.9-22.1,21.7c1.2,1.2,14.2,2,44.2,2.7c50.6,1.1,58.4,2.5,68,11.8c7.1,6.9,10.3,15.8,10.2,28.6 c0.1,10.8-2.5,21.5-7.4,31.2c-11.3,23.1-34.7,42.9-59.2,50C282.9,397.5,262.2,398,252.2,395.8L252.2,395.8z M293.6,374.5 c19.6-5.9,37-16.9,49.4-31.2c6.6-7.6,9.6-13.6,10.1-19.7c0.6-8.6-4.1-17.4-12.6-23.4c-9-6.3-18-7.5-62-8.6 c-26.5-0.6-38.1-1.5-49.4-3.6c-2.8-0.5-2.8-0.5-4.5,4.1c-10.7,28.5-9.2,54.4,4.1,69.4c9.6,10.9,24.3,15.8,45.9,15.3 C284.7,376.7,287.5,376.4,293.6,374.5L293.6,374.5z
M250.3,357.2c-1.8-0.7-3.4-1.8-4.7-3.3c-2-2.4-2.1-2.9-1.6-7.4 c0.5-4.8,3.7-12.8,6.8-17.2c2.1-2.9,2.1-2.8-0.8-4c-3.2-1.4-4.8-3.7-4.8-7.4s1.2-6.2,5.4-11.2c6.1-7.4,11.3-9.7,13.1-5.8 c1,2.3,0.5,5-1.7,7.5l-1.6,1.9l-1.5-1.9c-1.5-1.8-1.7-1.8-3.7-0.7c-1.4,0.9-2.5,2-3.4,3.4c-1.2,2-1.2,2.3,0.2,3.8 c1.8,2,6.3,3.5,8.5,2.9c2.3-1.2,4.4-2.7,6.3-4.4c2.6-2.1,4.9-3.7,5.1-3.4c0.6,0.6-0.3,5-1.6,7.6c-0.6,1.2-3.1,3.8-5.7,5.7 c-9.2,7.2-17,17.2-17,21.9c0,2.1,0.5,2.9,2.6,4c3.8,2,15.6,1.7,25.7-0.8l7.9-1.9l-2.2,2.4c-2.4,2-5,3.8-7.9,5.1 C265.5,357.8,256.7,359.1,250.3,357.2L250.3,357.2z M432.5,259.2c0-2.4-2.3-5.8-6.8-9.8c-5.1-4.7-7.2-5.3-6.4-1.9s4.4,8.2,8,10.7 S432.5,261.1,432.5,259.2L432.5,259.2z M277.3,217.7l7.5-4.4l-3.1-1.4c-2.7-1-5.5-1.7-8.4-2.1c-5.4-0.8-17.9-0.1-17.5,0.9 c0.3,0.8,12.9,11.1,13.5,11.2C272.1,220.7,274.8,219.3,277.3,217.7L277.3,217.7z M394.8,362.5c0-7.8-1.2-16.8-4.4-32.5 c-3.7-18.6-2.7-24.1,5.4-28.1c3.7-1.9,4.4-2.5,3.7-3.4c-1.5-1.9-4.4-1.2-6.7,1.4c-1.2,1.4-2.3,2.3-2.5,2.1 c-0.7-0.7,1.2-8.9,2.7-11.4c3.1-5.3,7.9-4.5,15.5,2.5c3.8,3.5,4,4,3.6,6.8c-0.7,5.1-2.2,6.5-9,8.5c-6.5,1.9-12.3,4.5-12.3,5.5 c0,0.3,1,4.7,2.3,9.8s2.8,12.7,3.3,17.1c1.1,9,0.7,26.5-0.7,27.9C395.1,369.4,394.9,367.8,394.8,362.5L394.8,362.5z M64.1,354.9 c0.3-1,1.1-3,1.7-4.4c1.2-2.8-4.7-0.4,63.9-25.9c10.6-3.9,19.3-7,19.5-6.9c0,1.1-0.3,2.2-0.7,3.2c-1.1,3.5,0.3,2.8-26.8,13.1 c-11.4,4.4-28.7,11.1-38.4,14.9l-18.7,7.4C63.7,356.6,63.6,356.3,64.1,354.9L64.1,354.9z M150.1,351.3c1.2-1.7,2.4-3.2,3.9-4.7 c8.3-9.2,11.1-15,8.6-17.6c-1.6-1.6-3-1.7-6-0.2l-2.2,1.1l0.6-2.6c1.2-5.5,4.2-8.6,8.2-8.6c8.3,0,6.8,13.6-2.7,24.3 C157.4,346.6,150.1,352.3,150.1,351.3L150.1,351.3z M34.4,328.9c-15.9-3.5-27-15.3-32.5-34.4c-2.5-8.9-2.6-29-0.1-40.5 c1.7-7.7,4.8-15.9,7.6-20.1c1.4-2,1.4-2.4,0.2-6.3c-2.5-8.3-1.1-23.9,3.2-37.1c2.1-6.6,10.6-24.8,11.2-24.2 c0.2,0.2-1.5,6.4-3.7,13.9c-5.4,18-6.8,26.6-5.6,32.8c1.1,5.1,3.6,8.4,6.6,8.4c2.1,0,6.6-4.3,9.3-8.8c1.5-2.5,1.7-2.6,1.7-0.9 c0,4.8-4,16.3-7,19.8c-2.7,3.5-7.5,4.4-11.4,2.4c-2-1.1-2-1.1-4.2,5.4c-3.6,10.3-5.3,19.3-5.3,27.7c0,12.8,3.8,22.9,11.7,31 c7.6,7.7,16.1,11.3,28.7,12c20.2,1.1,45.5-9.3,77-31.6c9.6-6.8,22.2-17.3,23.9-20c2.2-3.4,1.9-15.7-2.2-73.4 c-3.3-46.7-4.7-69.3-5.6-85.9c-0.5-9.8-1.4-18.7-2-20.8c-0.6-1.9-1-3.9-1.1-5.8c0-2.2,3-10.9,5.3-15.3l1.3-2.5l1.1,2.1 c1.6,3,9.1,22.5,12.6,32.7c2.8,8.2,3.6,12.7,2.2,12.7c-0.4,0-2.3-1.7-4.4-3.8s-3.9-3.6-4.1-3.3s0.3,9.9,1.1,21.6 c5.3,71,5.9,80.5,5.9,98.3c0.1,36.5-3.8,50.8-17.8,65.7c-15.1,16-44.4,36.3-63.3,43.8C61.3,329.7,46,331.4,34.4,328.9L34.4,328.9z M82.6,278.8c-5.5-3.2-4.7-18.5,1.9-33.7c1.1-2.7,2.4-5.4,3.8-7.9c0.4-0.4-0.5,3.5-2,8.7c-4.5,15.5-4.3,24.3,0.8,24.9 c1.8,0.2,2.5-0.4,4.3-3.1c2.7-4.1,3.2-3.1,1.5,3C90.8,277.7,86.6,281.1,82.6,278.8L82.6,278.8z M486.6,262.6c-0.2-0.6,0-4.3,0.4-8.2 c0.5-7.8,0.6-15.7,0.4-23.5c-0.4-15.2-1.3-29.2-6.5-103.6c-1.1-15.4-2.3-35.2-2.8-44c-0.5-9.7-1.3-17.5-2-20c-0.6-1.7-1-3.5-1.2-5.4 c0-1.8,4.6-14.5,6-16.3c1-1.4,1.2-1.2,2.7,2.3c4.4,10.2,13.8,36.3,14.2,39.4c0.6,4.6-0.5,4.7-5.1,0.2c-1.9-1.8-3.6-3.2-3.8-3 s1.4,24.8,3.5,54.7s4.2,60.3,4.6,67.6c1.3,24.4-1,41.2-8.2,57.8C487.5,263.9,487.2,264.2,486.6,262.6L486.6,262.6z M77,214 c-0.5-7.1-1.3-14.1-2.6-21.1c-4.5-24.3-4.6-24.8-3.6-28.1c1.5-5.6,3.6-8.1,8-9.7s4.8-2.6,1.3-3.8c-2-0.7-2.5-0.5-4.6,1.9 c-1.3,1.5-2.6,2.5-2.8,2.2c-1.4-1.4,3.3-14.1,5.3-14.1c1.7,0-5-18.1-8.1-22c-1.2-1.5-1.9-1.8-2.5-1.2c-0.6,0.5-1.4,0.8-2.3,0.8 c-1.8,0-7.1-4.6-7.1-6.1c0.4-1.7,1.1-3.3,2.1-4.8c1.7-3,2.5-3.5,4.5-3.5c1.8,0.2,3.6,0.9,5.1,2c3.3,2.5,7.7,11.2,9.1,17.8 c1,4.9,2.4,6.7,2.4,3.2c0-3.1,4.5-19.5,6.1-22.2c2.4-4,5.5-6,8-5.1c3.2,1.1,5.5,5.7,4.8,9.4s-2.4,4.5-4.6,1.8 c-2.8-3.5-5.7-2.4-7.8,3.1c-0.5,1.3-2,7.1-3.3,12.8c-1.3,5.7-2.6,11.1-2.8,12c-0.4,1.3,0.1,1.8,2.5,2.7c2.6,1.3,5,2.9,7,4.9 c3.7,3.6,4,4.1,3.6,6.8c-0.8,4.8-2.4,6.5-7.5,7.9c-6.4,1.8-10.7,3.5-12.6,4.9c-1.5,1.1-1.5,1.3,0.6,9.8c3.4,13.8,4.1,19.1,4.1,31.8 C79.2,224.1,77.8,227.9,77,214L77,214z M332.9,203.6c-1.8-1.4-5.2-3.7-7.6-5.3s-4.5-2.9-4.6-3c-0.5-0.5,7.5-15.6,8.3-15.6 c0.5,0,4.3,2.3,8.4,5.2l7.6,5.2l2.8-5.6c1.7-3.4,3.3-5.6,4-5.6c1.3,0,11.1,6.2,14.2,9c2.4,2.2,2.3,3.5-1,9.9 c-4.4,8.5-3.8,8.4-12.8,2.2c-4.3-3-8-5.1-8.1-4.7c-1,2.8-5.8,10.4-6.7,10.6C336.6,206,334.7,205,332.9,203.6L332.9,203.6z M379.7,179.3c0-0.2,6.2-4,13.8-8.5s16-9.6,18.6-11.4c6.1-4.1,15.6-11.7,15.6-12.6c0-0.4-0.7-0.9-1.5-1.1c-1.6-0.9-3.1-2-4.4-3.3 c-2.5-2.5-2.9-3.3-2.9-6.6c0-5,3.4-10.4,8.2-13.2c8-4.7,11.7-1.5,10.2,8.9c-0.4,3-1,6.1-1.2,7c-0.3,1.2,0.3,2.1,2.4,3.4 c1.5,1,2.8,2.4,2.8,3c0,1.6-3,7.6-3.8,7.6c-1.1-0.5-2.1-1.1-3-1.9l-2.4-1.9l-5.3,5.5c-9.5,9.8-20.5,16.5-36.5,22.5 C382.1,179.4,379.6,180.1,379.7,179.3L379.7,179.3z M432.5,134.1c0.1-1.6-0.4-3.2-1.5-4.4c-1.4-1.2-1.8-1.3-3.8-0.3 c-3.2,1.5-2.9,3.8,0.9,6.4c1.8,1.2,3.5,2,3.8,1.8S432.5,135.8,432.5,134.1L432.5,134.1z M198.9,159.2c0.3-1.6,0.8-3.1,1.5-4.6 c1.1-2.5,2.2-3.8,3.8-4.4c1.2-0.4,39.7-14.9,85.5-32.2s84.2-31.7,85.4-32c2-0.6,2.2-0.5,1.7,1.1c-1.3,4.6-2.8,5.4-23.2,13.1 c-27.9,10.5-105.1,40.3-132.2,51.1C207,157.1,198.9,160,198.9,159.2L198.9,159.2z M299.3,154.7c1.5-4.8,2.9-6.9,4.9-7.7 c1.2-0.5,16.5-6.1,33.8-12.6s34.8-12.9,38.8-14.3s7.3-2.4,7.4-2c-0.1,1.2-0.4,2.3-0.9,3.4c-1.1,2.6-1.9,3-20.6,10.2 c-10.8,4.1-29.4,11.4-41.5,16.2s-22.1,8.7-22.2,8.7S299,155.7,299.3,154.7L299.3,154.7z M236.5,108.8c0-2.5-3.5-12.9-6-18 c-2.1-4.2-3.9-6.1-4.7-4.8c-0.9,1.5-3.5,0.9-6.4-1.6c-1.6-1.4-2.8-2.9-2.8-3.5c0.5-1.7,1.2-3.3,2.1-4.7c1.7-3,2.5-3.7,4.3-3.7 c5.6,0,11.7,8.3,14.2,19.3c1.3,5.7,2.6,7.6,2.6,3.7c0-2.8,4.1-18.5,5.7-21.6c1.6-3.3,5-6.3,7.1-6.3c1.6,0,5.3,3.5,6,5.8 s-0.4,7.1-1.8,7.6c-0.8,0.3-1.8-0.3-2.8-1.6c-2.6-3.6-5.6-2.4-7.7,3.1c-0.5,1.3-2,7.1-3.3,12.9c-2.3,10.4-4.2,15.5-5.7,15.5 C236.8,110.9,236.5,109.9,236.5,108.8L236.5,108.8z M390.5,107c0.9-0.8,5.7-3.8,10.8-6.5c23.6-12.9,26.4-14.9,22.7-16.3 c-3.1-1.2-18.1-2.1-26.9-1.6c-7.8,0.4-9.4,0.3-9.4-0.6c0-0.6,1.7-4,3.8-7.5c3.1-5.2,4.5-6.8,7.4-8.3c3.5-1.8,4.1-1.8,19.6-1.5 c13.3,0.3,16.7,0.6,20,1.9s4,1.9,4.2,3.9c0.3,3.3-6.4,13.4-14.6,21.7c-7.2,7.3-8.1,7.8-26.9,13.2C388.8,108.9,388.3,109,390.5,107 L390.5,107z M319.6,89.2c-1.3-0.6-2.3-1.5-3-2.8c-1.4-3.1-1.1-13.8,0.6-20.5c1.5-5.9,7.1-19.4,7.8-18.7c0.2,0.2-0.7,3.8-2.1,8 c-1.4,4.4-2.5,9-3.4,13.5c-0.9,5.3-0.9,6.1,0.5,9c0.8,1.7,2.2,3.3,3,3.4c1.7,0.3,4.2-1.8,5.9-4.9c0.6-1.2,1.3-2.1,1.5-1.9 c0.6,0.6-2,9.5-3.4,11.8c-1,1.8-4.4,4.2-5.3,3.9L319.6,89.2z M428.5,37.6c0.5-1.5,1-2.9,1.7-4.3l1.6-3.8l12.1-4.4 c6.7-2.4,25-9.2,40.8-15S513.5-0.3,513.8,0s-0.1,1.9-1,3.4c-1.5,2.6-2.5,3.2-13.2,7.2c-14,5.3-60.5,23.5-65.9,25.8 C429.8,38.1,428.5,38.4,428.5,37.6L428.5,37.6z"/>
</svg>