<svg xmlns="http://www.w3.org/2000/svg" width="343" height="314">
<path d="M1.1,311.9c0.9-0.8,17.1-8,36-16.1c62.6-26.7,88.7-40.7,111.5-59.7c9.2-7.7,13.5-13.3,13.5-17.7c0-8.1-4-22.6-9-32.6 c-1.9-3.8-2.3-5.5-2-8.4c0.6-5.4,3.8-15.2,5-15.2c0.6,0,1.8,1.6,2.7,3.6c2.7,5.7,6.1,9,10.1,9.9c3.8,0.8,7.8,0.3,11.4-1.3 c4.7-2.5,7.8-9.9,9-21.3c0.9-8.5,1.3-9.8,3.4-10.4c2.4-0.8,5.4,1.7,7.1,5.8c2.8,6.6,6.1,21.8,7.6,35.1c0.8,7.4,3.6,19.7,5.2,22.8 c2.9,5.6,8.3,8.8,15,8.8c8.5,0,18.5-4.9,20.8-10.2c1.6-3.6,1.7-19.2,0.3-38.6c-4.6-65.3-6.6-94.1-7.2-108 c-0.5-11.4-1.2-17.6-2.1-20.3c-0.8-2.1-1.1-4.4-0.8-6.6c0.7-3.8,5.3-15.4,6.1-15.4c1.1,0,3.1,4.6,10,23.1 c6.2,16.6,7.9,23.3,5.9,23.3c-0.5,0-2.4-1.6-4.4-3.6s-3.7-3.3-3.9-3s0.9,16.9,2.3,37c5.5,74.9,5.8,83.8,4.3,97.2 c-2.4,21.4-11.4,38.8-22.5,43.6c-10,4.3-24.4,0.7-29-7.4c-3.6-6.3-4.8-11.9-7.4-32.9s-5.4-30.9-8-26.8c-1,2.9-1.8,5.8-2.4,8.8 c-2.3,9.5-4.8,14.8-8.6,18.2c-2.8,2.7-6.7,3.8-10.4,3.1l-2.6-0.6l-0.5,14.6c-0.5,16-1.4,21-5.5,29.4c-6.2,12.9-28.9,29.4-67.6,49.3 c-7.1,3.6-14.3,6.9-16,7.2s-15.7,3.5-31.1,7.2c-25.6,6.1-36,8.3-44.8,9.5C-0.6,313.4-0.6,313.3,1.1,311.9L1.1,311.9z M244.6,286.5 c0.3-0.9,0.9-1.7,1.7-2.3c3-2.7,9.5-11.3,10.6-14c1.6-3.9,0.5-6.3-2.9-6.3c-1.3-0.1-2.5,0.3-3.6,1c-2.9,2.9-1.8-3.8,1.2-7.4 c1.6-2,2.6-2.4,5.4-2.4c3.8,0,5,0.9,5.7,4.7c1.1,5.6-5.1,17.3-12.3,23C244.8,287.2,244.6,287.3,244.6,286.5L244.6,286.5z M185.9,277.4c-4.4-3-8.1-5.7-8.2-5.9c-0.5-0.5,6.9-15.7,7.6-15.7c1,0,12.8,7.7,15.1,9.8c1.3,1.2,1.6,2,1.1,3.7 c-1.5,4.2-3.6,8.2-6.1,11.9l-1.5,1.7L185.9,277.4z M287.3,238.4c0-18.6-0.5-31.8-2.2-54.2c-4-55.9-6.2-87.2-7-102.7 c-0.5-10.4-1.2-16.9-2.2-19.8c-1.3-4.1-1.3-4.6,0.1-8.9c2.2-7,5.1-13.2,6-12.6c1.4,0.8,15.3,38,16.3,43.4c0.7,3.6-1,3.4-5.5-0.7 c-2-1.8-3.7-3.2-3.9-3s1.6,27.1,4,59.9c4.7,65,5.3,82.7,3.2,95.4c-1.4,8.1-5.1,20.7-7.5,25.2C287.4,262.9,287.3,262.3,287.3,238.4 L287.3,238.4z M96,238.5c-3.6-1.4-4.5-13.2-1.8-23.6c1.5-5.8,7.2-19.4,7.8-18.7c0.2,0.2-1,4.6-2.6,9.8c-3.6,11.5-4.1,19.8-1.6,22.6 c2.2,2.4,4.4,1.8,7.5-2.4c1.5-2,2.5-2.9,2.3-2s-0.7,2.9-1,4.4c-0.8,3.9-3.3,8.6-5.1,9.6C99.8,239.1,97.8,239.2,96,238.5L96,238.5z M55.8,201.8c0-8.3-1.5-19-4.8-36c-2.5-12.8-2.5-15.9,0.3-21.1c1-1.9,2.7-3.3,5.7-4.7c1.5-0.6,3-1.4,4.3-2.3c-0.6-0.7-1.2-1.2-2-1.7 c-2-1.3-2.1-1.3-4.8,1.3l-2.8,2.7v-2.4c0-3.8,1.3-7.5,3.6-10.6l1.9-2.3L55,118c-2.5-7.3-5.8-14.5-7.1-15.3c-0.8-0.2-1.6,0-2.3,0.4 c-1.9,1.2-6-0.8-7.9-3.8c-1.3-2-1.3-2.2,0.6-5.6c2.5-4.6,3.5-5.4,5.9-4.7c5.4,1.4,11.3,10.2,13.3,20c1,4.8,2.4,7.2,2.4,3.9 c0-2.7,4.2-19.2,5.7-22c3.4-6.7,7.8-8.1,11.5-3.7c1.8,2.2,2.1,3.1,1.8,6.1c-0.6,5-1.7,5.8-4.5,3.1c-1.3-1.2-3-2.1-3.8-2 c-2.3,0.4-4.8,6.5-7.4,17.9c-1.3,5.7-2.6,11-2.9,11.7c-0.4,0.9,0.4,1.7,2.7,2.7c2.5,1.3,4.9,3,6.9,5c3.5,3.3,3.7,3.8,3.3,6.7 c-0.7,5.1-2.2,6.6-8.3,8.3c-5.7,1.5-13.1,4.8-13.1,5.8c0,0.3,1,4.7,2.3,9.8c3.2,12.5,4.4,23.1,3.9,34.3 C57.6,208.5,55.9,212.5,55.8,201.8L55.8,201.8z M108.3,155.8c-2.6-2.1-3.7-6-3.7-13.4c0-4.4-0.3-5.9-1.2-6.3c-2-0.8-1.4-4.8,1.1-7.6 c3.6-4.1,4.4-2.7,3.8,6.4c-0.4,6.4-0.3,8.2,0.9,10.5c1.9,3.7,5.1,4.2,8.2,1.2s3.4-5.2,1.9-12.5c-1.1-5.2-1.1-6.8-0.3-8.7 c0.5-1.3,1.3-2.3,1.6-2.3c0.9,0,2.3,5.4,3.6,13.6c0.8,5.6,1.4,7.1,3.1,8.6c2.6,2.2,4.5,2.3,6.3,0.3c1.3-1.4,1.2-1.8-1.2-6.6 c-3.4-6.6-4-13-1.6-15.9l1.7-2v2.2c0,1.2,1.1,5.1,2.4,8.8c2.8,7.7,3.1,13.1,0.9,18c-2.4,5.2-6.1,6.5-10,3.4c-1.3-1-2.3-2.3-3-3.8 c-0.8-2.1-0.8-2.1-2.8,1.8c-1.4,2.7-2.8,4.2-4.7,5C111.7,157.8,110.8,157.7,108.3,155.8L108.3,155.8z M147.9,130.8 c0.4-1.5,0.8-3,1.5-4.4l1.4-3.5l21.9-8.2c53.9-20,60-22.2,60.4-21.9c0.9,0.9-2.1,6.2-3.8,7c-1,0.4-12.6,4.9-25.8,10 s-31.1,12-39.8,15.5C154.9,128.9,147.8,131.3,147.9,130.8L147.9,130.8z M95,109.9c0.7-0.6,7.1-4.6,14.4-8.9 c14.4-8.5,24.8-15.5,30.3-20.3l3.5-3.1l-3.6-2.3c-4.8-3.1-6.5-6-5.8-10.2c1-4.9,4-9.2,8.3-11.8c4.4-2.8,6.8-3,9-0.8 c1.9,1.9,2.1,7,0.7,13.7l-0.9,4.2l3.1,2.5c2.9,2.5,3,2.7,2,4.9c-0.7,1.4-1.4,2.8-2.2,4.1l-1.2,1.8l-2.4-2c-0.9-0.8-1.9-1.5-3-2 c-0.3,0-3,2.5-6,5.5c-9.6,9.8-20.2,16.2-37.2,22.4c-9.9,3.6-10.7,3.8-9,2.2L95,109.9z M147.4,67c1.2-3.9-1.4-8.3-4.4-7.4 c-1.6,0.5-4,2.7-4,3.5s6.3,5.5,7.3,5.5C146.6,68.6,147.1,67.9,147.4,67L147.4,67z M182.6,56.7c0.6-1,11.6-7.4,24.6-14.4 c5.1-2.8,9.9-5.7,10.7-6.5c1.2-1.3,1.2-1.5-0.4-2.4c-2.9-1.6-15.9-2.5-26.6-2c-8.3,0.4-10.2,0.3-10.2-0.5c0-0.6,1.7-4,3.8-7.5 c5.6-9.4,7-10,24.2-10c19.6,0,27.2,1.8,27.2,6.3c0,4-11.6,20-18.4,25.4c-3.8,3-8.7,5-21.6,8.6C183.2,57.3,182,57.6,182.6,56.7 L182.6,56.7z M256.6,36.9c1.6-5.4,2.6-6.6,7.2-8.3C294,17.2,341.6-0.2,341.9,0c-0.2,1.2-0.6,2.4-1.2,3.5c-1.4,3.2-1.5,3.2-17,9.1 c-11.6,4.4-58.5,22.8-66.8,26.2C256.1,39.1,256,38.6,256.6,36.9L256.6,36.9z"/>
</svg>