<svg xmlns="http://www.w3.org/2000/svg" width="606" height="473">
<path d="M165.24,411.21a9.61,9.61,0,0,0-14.49-0.72l-9.15,9.23a12.22,12.22,0,0,0-0.65,16l11.53,13.94a9.61,9.61,0,0,0,14.49 0.72 l9.15-9.23a12.22,12.22,0,0,0,0.65-16z
M203.34,154s3.18-2.47,3.18-18.71c0-9-7.57-24.14-18.77-21-11.78,3.26-13.16,21.11-9.16,30.3 0.79 ,1.81,9.46,12.36,8.87,13.68-15.72,35.12-81.9,67.43-81.9,67.43,73.78-14.83,90.73-60.37,90.73-60.37L210.05,172l2.12-18C206.52,155.42,203.34,154,203.34,154z
m-8.12-7.77c-8.12-7.77-11.65-18.71-3.53-19.06S195.22,146.24,195.22,146.24z
M237.34,273.94c0.59-2.44,7.28-28.32,7.28-28.32-0.29,1.12,9,10.56,9.88,11.8,6.15,8.59,11.58,18.45,13,29.06,3.13,23.1-18.5,45.76-35.91,58.25-22.55,16.18-50.35,26.34-77.5,31.42-69,12.93-100.36,0-100.36,0s-78.81-14.78-45.56-89.28c0,0,12.41,91.76,145.31,59.11S236.57,277.1,237.34,273.94z
M25.67,397.84l2.62,23.55S62.59,439,57.5,468.05l7.41-5.67s0.44-52.33,13.52-54.51,3.49,10.9,10,15.26,17.88-15.7,10.47-22.24S72.77,376,60.56,432.94C60.56,432.94,56.63,404.82,25.67,397.84z
M277.44,62.5s13.83,44.82,20,51c0,0-15.17 0.7 -13.79,7.6s22.67,171,20.16,206.9C300.66,373.54,257,402.54,257,402.54S287.34,388,286.58,297.69c-0.66-78.24-29.12-201.37-25-210.34S277.44,62.5,277.44,62.5z
M320.5,165.86c0.3 0.65 -0.16,1.56-0.25,2.26-0.65,5.09 0.37 ,11.06,6.73,14a18.07,18.07,0,0,0,6.57,1.39c5.16 0.24 ,9.83-1.7,11.8-5.11 0.76 -1.3,2.54-3.93,2-5.27 0.67 ,1.67,3.29,3.62,5.84,4.14,7.78,1.6,15.86-3.59,16.41-8.53 0.75 -6.64-5.18-12.67-7.89-18.55-0.22-0.47-1.27-1.86-1-2.29l-3.8,6.61c4.63,2.29,3.86,9.3,3.86,9.3 0.24 ,3.44-5.64,6.11-9.11,3.15-2.05-1.75-2.25-5.33-2.89-7.53a37.85,37.85,0,0,0-2.41-7.1c-1.06-2-2.8-2.46-3.91-0.09-1.54,3.28-0.44,7.36-0.26,10.56 0.16 ,2.93,2.38,7.28-2.36,9.69a16.49,16.49,0,0,1-7.76,1c-3.06-0.59-4.69-3.16-5.41-5-0.82-2.09-0.79-4.39-1.08-6.58a45.49,45.49,0,0,1-0.43-6.35c-0.06 0.83 -2.13,2.52-2.78,3.29-0.89,1-1.85,2.08-2.76,3.12-0.56 0.64 -2.21,2-1.83,2.65S320.1,165,320.5,165.86z
M335.41,59.82l10-8.4a9.76,9.76,0,0,0,0.71-14.56l-12.6-12.68a11.94,11.94,0,0,0-15.84-0.66l-10,8.4A9.76,9.76,0,0,0,307,46.48l12.6,12.68A11.94,11.94,0,0,0,335.41,59.82z
M320.63,37c-1.81-3.92,10.48-7.29,10.48-7.29s3.26,20-1.47,20.4S322.44,40.88,320.63,37z
M410.79,206.44a9.61,9.61,0,0,0-14.49-0.72L387.16,215a12.22,12.22,0,0,0-0.65,16L398,244.9a9.61,9.61,0,0,0,14.49 0.72 l9.15-9.23a12.22,12.22,0,0,0,0.65-16z
M450.6,197.2a9.61,9.61,0,0,0-14.49-0.72L427,205.72a12.22,12.22,0,0,0-0.65,16l11.53,13.94a9.61,9.61,0,0,0,14.49 0.72 l9.15-9.23a12.22,12.22,0,0,0,0.65-16z
M464.56,397.84l2.62,23.55s34.3,17.66,29.22,46.66l7.41-5.67s0.44-52.33,13.52-54.51,3.49,10.9,10,15.26,17.88-15.7,10.47-22.24S511.66,376,499.45,432.94C499.45,432.94,495.53,404.82,464.56,397.84z
M478.34,96.36c-4.62,4.43-105.24,47-105.24,47-0.38,1.38-4.21,12.16-4.2,13.47s109.48-48.1,109.48-48.1z
M482.22,19.45c-6.57,6.31-149.69,66.91-149.69,66.91-0.54,2-6,17.3-6,19.16S482.27,37.11,482.27,37.11z
M489.05,65.82s25.86,36.36,32,39.73c0,0-12.31,1.52-12.31,4.6,10.46,43.33,19.21,87.55,24,131.88,3.15,29.36,7.16,61.94-15.4,84.94-27.51,28.05-54.54,6.72-66.44-22.87,1.93,4.8-34.13,25.07-37.37,26.71-12.63,6.38-26.32,10.9-40.46,12.19-13.17,1.2-30.86,2.55-35.74-12.66-5.23-16.31,1.6-34.22,9.52-48.4,23.37-41.82,60.87,31.24,61,31.4,32.59,63.53-59.66,127.56-107.2,151.07-12.22,6-26.46,11.25-39.18,6.36s-20-18.73-22.23-32.21-0.55-27.28-1.36-40.92c1.63,14.08,7.33,28.22,18.25,37.25,17.32,14.33,37.43,7.44,54.33-3.38,31.84-20.39,94.08-53.25,85.69-99.7,0,0-12.51-35.71-27.19-33.86s-19,18.47-10.37,19.09,51.72-6.77,73.27-24.63,19.84-19.7,33-1.85,43.34,27.71,48.88-1.23S482.27,92.92,482.27,92.92z
M545.06,39l10-8.4A9.76,9.76,0,0,0,555.77,16L543.18,3.34a11.94,11.94,0,0,0-15.84-0.66l-10,8.4a9.76,9.76,0,0,0-0.71,14.56l12.6,12.68A11.94,11.94,0,0,0,545.06,39z
M530.28,16.13c-1.81-3.92,10.48-7.29,10.48-7.29s3.26,20-1.47,20.4S532.09,20,530.28,16.13z
M578.38,59.82s13.83,44.82,20,51c0,0-15.17 0.7 -13.79,7.6s22.67,171,20.16,206.9c-3.18,45.52-46.84,74.52-46.84,74.52S588.29,385.35,587.53,295c-0.66-78.24-29.12-201.37-25-210.34S578.38,59.82,578.38,59.82z"/>
</svg>