<svg xmlns="http://www.w3.org/2000/svg" width="424" height="347">
<path d="M32,345.8c0.2-0.2,6.9-3.3,14.8-6.8c38.2-16.8,47-22.6,54.2-35.6c2.1-3.8,4.3-6.9,4.9-6.9s2-1.4,3.2-3.2 c3.4-5.2,7.7-5.3,11.5-0.2c1.9,2.5,2.2,3.6,2.2,8.5c0,7.1-1.8,10.9-5,10.9c-2.4,0-9-3.6-12-6.4c-1-1-2-1.6-2.1-1.5s-0.8,1.9-1.6,3.8 c-3.9,9.9-14.3,19.3-30.1,27.3C66.3,338.5,30.1,347.7,32,345.8L32,345.8z M119.4,302.9c-0.6-1.4-1.6-2.7-2.7-3.7 c-2.1-2-2.5-2.1-4.4-1.3c-2.8,1.3-2.2,2.5,2.5,5.1C119,305.3,120,305.3,119.4,302.9L119.4,302.9z M16.4,333.7 C11,331.2,6.2,326,3.1,319.4c-5.6-12-3.6-30.4,5.6-51.3l2.1-4.8L9,259.7c-1.6-3.1-1.8-4.8-1.8-12.8c0-9.7,1.7-19.3,5-28.4 c2.2-6.3,10.1-22.2,10.2-20.5c-0.7,3.4-1.6,6.7-2.7,10c-5,16.3-6.3,22.1-6.4,29.7c0,5.4,0.3,7.8,1.4,9.8c1.5,2.8,4.7,4.5,7,3.7 c1.6-0.5,6.1-5.7,8.2-9.6l1.4-2.4l-0.4,3.7c-0.5,3-1.2,5.9-2.1,8.8c-3,9-6,12.4-11.7,13.4c-2.7,0.4-3,0.8-5.1,6.4 c-6.6,17.3-8.8,31.5-6,38.9s9.8,10.9,18.9,9.3c8.8-1.6,13.9-4.7,27.7-16.6c24.5-21.3,37-30.7,52.1-39l5.9-3.2l0.3-8.4 c0.3-9.5,1.6-14.2,5.9-20.7c4.8-7.3,10.8-11.2,28.8-18.6c5.7-2.4,6.6-2.9,6.2-4.3c-3.4-12-3.6-28.1-0.5-38.1 c5-16,16.3-19.1,24.5-6.9c4.5,6.6,6.9,14.5,6.8,22.5c0,11.3-3,21-9.1,29.2l-2.1,2.8l2.1,2.2c2.1,1.8,4.5,3.3,7,4.4 c4.3,2,5.8,2.2,12.5,2.2c8.8-0.1,17.5-2.5,23.8-6.5c2.1-1.4,7.2-6.3,11.4-11s8.2-8.8,8.9-9.2c1.8-1,2.4,0.8,1.4,4.6 c-1.4,4.9-0.5,11.9,1.8,14.4c3.3,3.6,6.3,4.6,12.8,4.7c7.8,0.1,11.7-1.8,14.2-6.8c1-2,1.6-4.2,1.8-6.5c0-4.2-3.5-21.2-6.9-33.3 c-1.6-5.6-3-11.2-3.2-12.3c-0.6-3.1,1.2-13.3,3.1-17.4c1.5-3.4,1.7-3.6,2.8-2.1c3.4,4.6,9.2,25.1,13.1,46 c3.2,17.2,7.8,26.9,14.2,30.1c2.3,1.1,4.7,1.5,9.5,1.5c8-0.1,15.4-2.2,26.1-7.7c7-3.5,7.9-4.3,7.5-5.8c-0.3-0.9-1.4-6.8-2.5-13 c-4.7-26.9-9.7-84.3-10.8-124.2c-0.5-19.7-1-26.5-2.1-31.1c-1.6-6.7-1.3-8.8,2.9-18.1c2.1-4.6,2.6-5.4,3.3-4.2 c1.5,2.6,9.6,23.3,12.8,32.5c4.7,13.5,4.1,15.8-2.2,9.6c-1.9-1.8-3.6-3.1-3.9-2.8c-1,1,3.2,77.4,5.7,103c1.9,19,4.6,36,6.8,42.9 l0.8,2.6l3.2-1.1c3.3-0.9,6.7-1.6,10.2-2.1c8.3-1.1,12.4-0.2,16.6,3.5c11.4,10,10.6,37.3-1.4,43.7c-9.2,5-23.8-2.6-32-16.5l-2.7-4.6 l-10.8,5.4c-21.4,10.7-34.7,11.3-45.1,2.1c-3.6-3.2-9.3-13-9.3-16s-1.4-2.2-1.9,1.1c-0.6,2.8-1.5,5.6-2.8,8.2 c-4.3,9-10.3,13.9-17.1,13.9c-9.8,0.2-18.6-6-21.8-15.3l-1.8-5.5l-2.4,3.5c-3.8,5.5-12.1,12.8-18.2,16c-13.7,7.2-25.8,5.8-39.2-4.3 c-3.7-2.8-9.7-9.4-11.2-12.4c-0.3-0.6-29.8,12.8-34.7,15.7c-7.2,4.3-7.7,5.2-5.6,10.6c0.9,2.3,1.8,4.3,1.9,4.4 c2.7-0.5,5.4-1.1,8-1.8c8.8-2.2,17.5-2.6,21.5-0.9c4.3,1.8,8.3,7,10.2,13.4c1.4,4.7,1.7,7.1,1.4,13.5c-0.3,6.8-0.7,8.4-3,12.6 c-3.4,6.4-7.1,8.6-13.6,8.1c-8.8-0.6-16.6-6.4-23.8-17.8c-2.1-3.3-4.1-6-4.5-6c-1.2,0-13.4,6.4-19.3,10.1 c-8.7,5.5-14.6,10.1-33.4,25.5c-9.4,7.7-18.5,15-20.1,16.1C34.3,335.8,23.8,337.4,16.4,333.7L16.4,333.7z M151.8,279.7 c0.1-1.2-0.3-2.4-1.1-3.4c-2.8-3.1-12.3-4.9-17.9-3.3c-1.9,0.5-1.9,0.6,1.1,3.2c4.5,4,8.9,5.7,13.6,5.5 C151.1,281.6,151.6,281.4,151.8,279.7L151.8,279.7z M372,231l1.9-1.5l-2.4-2.5c-1.6-1.5-3.5-2.6-5.5-3.3c-3.1-0.9-11.5-0.4-11.5,0.7 c0,1.6,6,6,9.4,6.9C369,232.7,369.9,232.7,372,231L372,231z M169.5,201.2c8-5.4,9.1-7.2,7.1-11.4c-3.1-6.5-10.9-14.1-14.4-14.1 c-2.3,0-7.7,5.5-8.7,8.8s-0.4,6,3.2,13.6c3.1,6.5,4,8,4.8,8C161.9,206.1,165.5,203.9,169.5,201.2L169.5,201.2z M128.3,328 c1.4-5.7,2.7-6.7,13.7-10.8c5.7-2.1,23.2-8.6,38.8-14.4c32-11.9,32.8-12.2,32.8-11.2c0,1.9-2.9,6.4-4.3,6.9 c-4.4,1.3-72,27.6-80.4,31.3C128,330.2,127.9,329.9,128.3,328L128.3,328z M249.6,311.5c0.2-0.2,5.5-2.6,11.8-5.3 c38-16.4,49.4-23.8,56.5-36.4c2.1-3.8,4.3-6.9,4.9-6.9s2-1.4,3.2-3.2c3.6-5.5,9-5.3,12.3,0.4c2.9,5.1,2.1,14.4-1.4,17.6 c-1.4,1.2-2,1.3-4.6,0.5c-2.6-1-5.1-2.4-7.3-4.2c-1.4-1.1-2.8-2.2-4.4-3l-2.7,5.7c-3.3,7-8.4,12.3-17,18 c-10.4,6.9-18.1,10.1-32,13.3C256.6,310.9,248.7,312.3,249.6,311.5L249.6,311.5z M336.8,270.2c0-1.7-3.8-6.1-5.5-6.4s-4.1,1-4.1,2.3 c0,0.3,1.5,1.5,3.4,2.7C334,270.8,336.8,271.5,336.8,270.2z M395.7,250.1c0.4-5.1,0.6-14.6,0.5-21.2c-0.2-13-0.4-16.4-5.1-84 c-1.7-25.1-3.7-54.2-4.3-64.8c-0.7-12.2-1.6-20.5-2.3-22.6c-0.8-2-1-4.1-0.6-6.2c0.9-4.1,5.7-15.5,6.4-15.5s12.2,29,15.6,40 c2.3,7.3,0.7,8.4-4.5,3.1c-1.8-1.8-3.5-3.1-3.7-2.8s1.5,26.7,3.8,58.7c5,68.9,5.5,87,2.5,101c-2,9-6,20.5-7.9,22.5 C395.2,259.2,395.1,258.2,395.7,250.1L395.7,250.1z M45.6,241.7c0-0.2,6.2-4.1,13.8-8.5c16.4-9.7,26-16.1,31.3-20.9l3.9-3.5 l-3.7-2.1c-8-4.7-7.9-12.8,0.2-20.1c5.2-4.7,8.6-5.6,11.2-2.9c1.9,1.9,2.2,8.2,0.7,14.1l-0.9,3.6l3.1,2.6c3,2.5,3,2.7,2.1,4.9 c-0.7,1.4-1.4,2.8-2.2,4.1l-1.2,1.8l-5.5-4.2l-5.8,5.9c-9.5,9.6-18.8,15.3-35,21.4C47.3,242,45.5,242.5,45.6,241.7L45.6,241.7z M98.8,197.7c1.3-5.1-2.4-8.3-6.5-5.7c-2.4,1.6-1.9,3.1,1.9,5.7C97.8,200.1,98.3,200.1,98.8,197.7z M66.1,190 c-0.7-10.4-1.3-14.6-4.6-31.8c-2.7-14.2-2.8-17.1-0.8-21.5c1.4-3,5-6.7,6.5-6.7c1-0.2,2-0.5,2.9-0.9c2.2-0.8,2.2-0.9,0.7-2 c-2.4-1.8-4.6-1.3-7,1.5l-2.2,2.6v-2.1c0-3.3,2.1-9.6,4.1-11.6c1.8-1.9,1.8-1.9,0.4-6.5c-2-6.5-5.9-15.5-7.4-17.2 c-1-1.1-1.6-1.2-2.8-0.6c-0.9,0.5-1.9,0.6-2.9,0.4c-2.2-0.7-5.8-4.4-5.8-6.1c0-2.1,4.2-8.8,5.5-8.8c5.1,0,11.8,8.2,14.1,17.3 c0.8,3,1.7,6.2,2,7.1c0.6,1.5,0.7,1.5,1.1-0.4c2.3-10.3,4.9-19.9,6.2-22.4c3-5.9,7.3-7.2,10.7-3.2c2.7,3.2,3.2,5.1,2.1,8.4 s-2.7,3.6-4.5,0.8c-0.7-1.1-1.9-1.9-3.2-2c-2.7,0-4.9,4.7-7.2,15.7c-1.1,5-2.4,10.5-3,12.2l-1.1,3.2l3.2,1.4c4.1,1.8,11,8.4,11,10.4 c-0.3,1.7-0.8,3.3-1.5,4.8c-1.4,3-1.8,3.3-7,4.7c-6,1.6-11.8,4-13,5.5c-0.5,0.6-0.2,3.1,1.1,7.3c3.1,10.8,4.7,22,4.6,33.2 c0,5.9-0.3,12.1-0.8,13.6C66.8,198.8,66.6,197.8,66.1,190L66.1,190z M208,183.5c-3.7-2.6-7.3-5.1-8-5.5c-1-0.6-0.6-1.9,2.6-8.3 c2.1-4.2,4.2-7.6,4.8-7.6c1.1,0,11.2,6.5,13.9,9l1.8,1.6l2.8-5.6c1.6-3.1,3.2-5.8,3.6-6.1c0.8-0.5,8.8,4.4,13.9,8.5 c2.5,2,2.9,2.7,2.5,4.5s-4.3,9.4-6.6,12.8c-0.6,0.8-2.4-0.1-8.3-4.2c-4.2-2.9-7.8-5.3-8.1-5.3s-1.8,2.5-3.5,5.6s-3.4,5.6-3.9,5.6 S211.7,186.2,208,183.5L208,183.5z M267.2,146.5c0-0.7,9-6.2,19.2-11.7c14.5-7.8,17.7-9.8,17.4-11.2c-0.4-2.1-4.8-2.7-21.4-2.9 c-12.9-0.2-16.3-0.5-16.1-1.3c1.2-2.5,2.5-4.9,4-7.2c4.6-7.7,7.1-9.2,17.4-9.9c8.8-0.6,25.6,0.8,30,2.6c5.9,2.4,5.1,5.4-4.9,18.7 c-8.9,11.8-12.4,14-32.2,19.6C267.4,147,267.3,147,267.2,146.5L267.2,146.5z M149.9,140.6c-3.5-2.5-7.3-5.1-8.4-5.9l-2-1.3l3.8-7.7 c2.1-4.2,4.1-7.7,4.6-7.7s4.2,2.3,8.4,5.2l7.7,5.2l2.8-5.6c1.5-3.1,3.3-5.6,3.9-5.6c1.2,0,11.8,6.9,14.6,9.5c2.1,2,1.7,4.2-2.6,11.7 c-2.7,4.8-4.5,6.2-5.6,4.4c-0.4-0.6-9.9-7.3-13-9.1c-0.6-0.4-1.9,1.3-3.8,5c-1,2.1-2.1,4.1-3.5,6C156.6,145,153.4,143.1,149.9,140.6 L149.9,140.6z M240.8,137.2c-3.7-2.7-7.3-5.1-7.9-5.5c-1-0.6-0.6-1.9,2.4-8.3c2.2-4.7,4-7.7,4.8-7.7c1.3,0,11.1,6.3,14.2,9 c0.9,0.8,1.6,1.9,1.8,3.2c0,2.1-6.4,14.2-7.5,14.2C248,142,244.5,139.8,240.8,137.2L240.8,137.2z M212,100c0-0.7,8.6-5.8,19.2-11.5 c13.8-7.4,17.6-9.8,17.6-11c0-2.2-4.6-2.8-21.2-3.2c-9.2-0.2-16.9-0.4-17-0.5c1.2-2.5,2.5-4.9,4-7.2c6-10.2,6.7-10.5,24.6-10.4 c19.3,0.1,27.2,1.9,27.2,6.3c0,2.7-8.9,15.7-14.9,21.8c-2.7,2.8-5.8,5.2-9.2,7C237,93.6,212,100.8,212,100z M116.7,91.7 c0.6-1.7,1.3-3.3,2.2-4.8c0.3-0.3,5.7-2.4,11.8-4.6s24.5-9,40.7-15s29.6-10.7,29.9-10.5s-0.4,1.8-1.2,3.5c-1.5,3-2,3.3-15.1,8.2 c-10,3.8-59.2,23.1-68.9,27C115.4,95.7,115.6,94.6,116.7,91.7L116.7,91.7z M254.7,91c0.2-0.4,6.1-4.1,13-8.1 c15.9-9.4,27.7-17.4,31.7-21.4l3.1-3.2l-2.9-1.8c-4.1-2.5-6.1-5.4-6.1-8.7c0-6,5.6-13.4,11.8-15.4c3.5-1.2,6.3,0.6,7,4.5 c0.5,2.6-0.5,10.3-1.6,13.3c-0.3,0.9,0.4,1.9,2.3,3.2c3.3,2.2,3.5,3.6,1.2,8c-1.8,3.5-2.5,3.8-4,1.9c-2.7-3.2-3.5-2.9-10.4,3.9 c-10.3,10.1-18.5,15-35.5,21.3C255.1,91.9,254,92.2,254.7,91L254.7,91z M307.2,45.9c0-5.2-2.7-6.9-6.4-4c-2.1,1.7-1.6,3.2,1.8,5.5 C306.5,50,307.2,49.7,307.2,45.9L307.2,45.9z M337.6,38c0.4-1.6,0.9-3.2,1.6-4.7c1.3-3.1,2.2-4,4.6-4.9c1.6-0.6,20-7.4,40.8-15 S422.7-0.3,423,0s-0.2,1.8-1,3.4c-1.5,2.7-2.5,3.2-14,7.6c-22.3,8.5-66,25.7-68.2,26.8C338.3,38.5,337.6,38.6,337.6,38L337.6,38z"/>
</svg>