<svg xmlns="http://www.w3.org/2000/svg" width="394" height="352">
<path d="M221,350.9c-20.2-3.9-33.3-15.9-39.1-35.8c-5.3-18.5-4.8-45.8,1.5-67.3c1-3.6,1.7-6.9,1.5-7.2c-0.5-0.4-1.2-0.7-1.9-0.6 c-2.8,0-15.7-7.1-20.3-11.3c-3.1-2.9-5.9-6.1-8.5-9.6l-3.8-5.4l-23.1,9.9l-0.9,5.2c-1.5,9.4-5.1,18.3-10.4,26.1 c-4.9,6.9-20.8,22.8-30.3,30.3c-19.9,15.8-34.8,23.1-49.2,24.1c-15.1,1-25.8-4.9-32.3-17.9c-3.7-7.4-4.7-13.6-4.2-26.2 c0.4-11.9,2.7-23.6,6.9-34.8l2.5-6.8l-1.6-3.5c-3.6-7.6-2.5-24.7,2.4-39.4c2.4-7.1,10.2-23.7,10.9-23c0.2,0.2-1.2,5.6-3.2,12 C9.7,196.7,9.7,209,18,211.5c2.2,0.7,6.7-3.1,9.6-8.1c1.1-1.9,2.2-3.4,2.5-3.1c0.6,0.6-2.3,11.7-4.2,16.1c-3,6.8-7,9.7-11.9,8.8 l-2.6-0.5l-2.6,10.3c-3.5,14.2-4.4,20.2-4,27.4c1,15.2,8.8,23.8,23.8,26.5c12,2.1,26.6-2.3,45.3-13.9c11.1-7,21.4-15.2,30.8-24.4 c13.4-12.9,15.8-17.1,13.9-23.2c-0.4-1.4-0.9-1.6-3.1-1.1c-1.4,0.3-8,0.6-14.6,0.6c-11,0-12.3-0.2-15.8-1.9c-2.3-1.2-4.3-2.8-6-4.7 c-2-2.7-2.2-3.4-2.2-10.5c0-6.9,0.3-8.2,2.5-13c2.7-6.1,7.3-11.2,13.1-14.6c5-3,11.4-2.6,16.1,0.8c4,2.8,11.3,11.8,14.7,18.2 c2,3.7,2.7,4.4,4,4.1c1.6-0.5,16.6-6.7,17-7.1c-0.3-2.5-0.8-4.9-1.5-7.3c-4.2-17.6-0.4-38,8.3-44.6c6.6-5,12.2-3.1,17.9,6.1 c6.7,10.9,8.3,21.4,5.2,33.6c-2,7.8-4.1,11.9-8.7,16.8l-3.7,4l3.2,2.7c2.7,2.1,5.5,4.1,8.4,5.9c5.1,3,16.6,8,18.6,8 c0.6,0,2.2-2,3.6-4.4c3.7-6.1,9.3-12.9,18.7-22.4l7.9-8.1l-4.2-4c-5.4-5.1-13.5-10.6-18.3-12.4c-3.3-1.3-4.2-1.3-7.2-0.4 c-2.2,0.7-4.3,1.6-6.2,2.8c-1.3,0.8-2.7,1.4-4.2,1.7c-1.7,0-1.7-0.4,1.9-12.2c2.7-8.7,4.1-10.3,12-13.5c13.9-5.7,28.9-7.9,43.8-6.6 c17.4,1.6,35.7,7.5,39.1,12.7c1.8,2.7,1.1,6.8-2.2,13.5l-2.7,5.5l-12.6,6.4c-11.8,6-12.5,6.5-11.4,7.8c2,2.2,10.9,6.3,17.6,8 c11.4,2.9,19.9,1.8,28-3.6c3.4-2.3,4.4-3.5,5.1-6.1c1.7-6.4,1-24.1-3.2-81.6c-2.6-34.9-3.2-44.4-4-62.4c-0.5-11.4-1.2-18.7-2.1-21.6 c-0.7-2.3-1-4.7-0.8-7.2c0.5-3.7,5.2-15.3,6.1-15.3c1.1,0,2.4,3.1,9.5,22c6.5,17.1,8.4,24.4,6.5,24.4c-0.5,0-2.6-1.6-4.6-3.6 s-3.9-3.5-4-3.3s0.4,10.1,1.3,22.2c7,95.2,7.3,102.7,4.4,119.6s-11.1,31.2-20.7,35.9c-3.6,1.8-5.4,2.1-10.6,2.1 c-7.9-0.3-15.6-2-22.8-5.2c-5-2.2-16.1-9.3-20.6-13.1l-2.8-2.4l-3.7,2.4c-7.6,5.4-14.6,11.5-20.9,18.4c-4.6,5.3-4.8,5.7-3.2,6.3 c2.9,1.1,23.9,2.3,40.9,2.3c33.6,0.1,54.1,2.1,62.2,6.1s14.9,13.2,17,22.8c1.4,6.5,0.6,22.6-1.6,30.3c-7.8,27.4-35.1,54.1-64,62.5 C251.4,351.8,229.9,352.5,221,350.9L221,350.9z M261,329.3c9.7-3.2,18.9-7.4,27.6-12.6c13-8.3,24.3-19.9,29.3-30 c2.6-5.3,2.8-6.2,2.5-10.8c-0.7-8.2-5.1-15.5-12.6-20.5c-10.3-6.9-16.3-7.8-62.5-8.9c-23.4-0.6-32.3-1.1-40.8-2.3 c-5.9-0.9-11-1.4-11.4-1.1c-1.3,1.3-6.3,17.9-7.5,25c-1,5.5-1.3,11.2-0.9,16.8c0.7,15.3,3.9,23.8,12,32.5c7,7.4,15.4,11.3,31,14.2 c1.1,0.2,7.4,0.3,14,0.1C252.1,331.5,254.8,331.1,261,329.3L261,329.3z M221.6,318.4c-3.8-0.9-6.5-3-7.1-5.3c-1.5-6,1.2-15.7,6.3-23 c1.6-2.2,1.6-2.3,0.1-3.1c-8.3-4.6-7.7-12,1.7-21.6c4.6-4.7,7.7-6.2,9.9-4.8c2,1.3,2,4.9-0.1,7.9l-1.9,2.7l-1.3-1.7 c-1.8-2.3-5.1-1.4-7.1,1.9c-1.8,3-1.4,4.3,1.6,5.9c4.2,2.2,7.1,1.5,12.5-2.8c1.7-1.5,3.5-2.8,5.5-4c0.8,0-0.4,5.6-1.7,8.1 c-1.3,1.9-3,3.6-4.9,5c-5.9,4.4-11,9.9-15,16.1c-3.3,5.5-3.5,7.6-1.2,9.7c1.5,1.3,2.9,1.5,11.4,1.5c9,0,11.7-0.5,21.7-3.3 c3-0.8-2.6,4.2-7.5,6.8C237.7,318,227.4,319.9,221.6,318.4L221.6,318.4z M108.4,207.7c0.7-0.7-5-6.7-7.9-8.2 c-3.6-1.9-9.8-1.5-12.4,0.8c-2.2,1.9-2.2,2-1,4.2c1.7,3.2,5.5,4.3,13.8,4C104.7,208.4,108.1,208.1,108.4,207.7L108.4,207.7z M159.9,191.5c5.5-2.9,10.3-7.3,10.3-9.5c0-4-8.4-17.4-12.2-19.3c-2.9-1.5-4.7-0.9-7.7,2.5c-3.5,4-4.5,8.1-3.4,13.7 c1,5.1,5.5,15.5,6.7,15.5C155.8,193.6,157.9,192.6,159.9,191.5L159.9,191.5z M244.3,172.6c4.1-2.3,7.3-4.4,7.1-4.8s-2.4-1.2-4.9-2 c-4.7-1.4-21.3-1.9-23.2-0.7c-0.6,0.4,0.8,1.8,3.7,4c2.3,1.7,4.5,3.5,6.6,5.6c0.7,0.9,1.6,1.6,2.7,2.1 C238.9,175.6,241.6,174.2,244.3,172.6L244.3,172.6z M139.4,293c8.5-10,10.3-15.5,5.5-16.7c-1.3-0.2-2.7-0.1-4,0.4 c-2.8,1.3-3.1,0.7-1.5-3.5s3.8-6,7.3-6c3.7,0,5.3,1.6,5.8,5.9c0.6,5.8-3.6,13.9-11,20.8c-3.1,2.9-6,5.3-6.4,5.3 S136.6,296.4,139.4,293L139.4,293z M338.5,273.1c0.3-2.1,0.7-9,1-15.1c0.5-12.1-0.1-23.2-5.3-98.4c-1.7-24.6-3.5-52.4-4-61.6 s-1.4-18.7-2-20.9c-0.6-1.9-1-3.8-1.2-5.8c0-2.7,5.7-17,6.7-16.6c1.6,0.5,15.5,36.9,16.3,42.6c0.6,4.6-0.3,4.6-5.4-0.2 c-2.2-2-4-3.4-4-3s1.8,25.6,4,55.9c5.8,78.8,5.9,91.5,1.5,109.2c-3.3,13.2-8.9,23.3-7.6,13.9H338.5z M59.2,261.1 c-3.6-1.5-4.5-13.2-1.9-23.5c1.5-5.7,7-18.9,7.6-18.2c0.2,0.2-1,4.6-2.5,9.9c-3.4,11.5-3.9,19.2-1.5,21.9c0.7,0.9,1.8,1.5,2.9,1.7 c1.5,0,6.3-5,6.3-6.6c0-0.5,0.2-0.7,0.4-0.5c0.6,0.6-1.2,7.8-3,11.2C65.7,261,62.7,262.5,59.2,261.1L59.2,261.1z M64.8,145.4 c-2.5-2.7-3.4-5.7-3.4-12.1c0-4.2-0.3-6.1-1.2-6.8c-2-1.7-1.5-5.5,1.3-8.2c2.1-2.1,2.6-2.3,3.2-1.2c0.4,0.7,0.6,5.1,0.5,9.7 c-0.2,7.9-0.1,8.5,1.8,10.5c2.1,2.2,4,2.2,6.7-0.2c3.4-3,3.8-5,2.4-12.6c-0.9-5.3-1-7.6-0.4-9.3c0.5-1.2,1.2-2.2,1.6-2.2 c0.9,0,3,8.5,3.8,15.2c0.4,3.8,1.1,5.6,2.4,7c2.2,2.1,4.8,2.4,6.8,0.6c1.3-1.2,1.2-1.6-1.3-7c-2.9-6.1-3.6-11.5-1.8-15.3 c1.1-2.4,2.3-2,2.3,0.7c0,1,1.1,4.9,2.5,8.6c2.1,5.5,2.4,7.5,2.1,11.2c-0.9,10.8-9.2,14.9-13.8,6.8l-1.7-3l-1.5,3.3 C74.4,146.7,68.2,149,64.8,145.4z M150.6,126c-2.5-1.9-5.1-3.6-7.8-5.2c-1.1,0-0.6-1.5,2.7-8.8c2.2-4.8,3.8-7.2,4.6-7.2 c1.4,0,11.1,6.2,14.3,9c1,0.8,1.6,1.9,1.8,3.2c0,2.1-6.5,14.2-7.6,14.2C158.2,131.1,154.6,128.8,150.6,126L150.6,126z M233.5,122 c1-1.2,6.7-4.5,24.8-14.3c3.4-1.8,6.7-3.8,9.9-6c1.5-1.4,1.5-1.5-0.2-2.4c-3-1.6-16-2.6-26.7-2.1c-8.1,0.4-10.2,0.3-10.2-0.5 c0-0.6,1.7-3.9,3.8-7.4c3.1-5.2,4.5-6.8,7.4-8.2c3.5-1.8,4.1-1.8,20-1.6c14.7,0.3,16.8,0.5,20.2,2s3.8,2,3.8,4 c0,5.9-15.8,25-23.6,28.7c-3.2,1.5-28.1,9.1-29.7,9.1C232.7,123.2,232.9,122.6,233.5,122L233.5,122z M26.2,111.3 c0-0.3,7.8-5.3,17.2-10.9C59,91.2,73.3,81,74,78.8c0.1-0.4-1-1.5-2.6-2.4c-5.7-3.1-7.4-8.1-4.8-14.2C67.9,59,74.2,53,77,52.3 c7-1.8,9,4.3,5.7,17.4c-0.4,1.8-0.1,2.3,2.3,3.9c3.3,2.1,3.6,3.7,1.1,8.1l-1.7,3.1l-2.6-1.9c-1-0.9-2.1-1.5-3.4-1.9 c-0.4,0-2.3,1.8-4.1,4c-4.4,5.2-15.8,13.7-23.7,17.6C43.3,106,26.3,112.3,26.2,111.3L26.2,111.3z M79,65.7c0.1-1.6-0.4-3.2-1.5-4.4 c-1.4-1.3-1.7-1.3-4-0.1c-1.4,0.7-2.5,1.8-2.5,2.3c0,1.9,6,6.5,7.4,5.6C78.7,68.9,79,67.4,79,65.7L79,65.7z M198.3,96.8 c-1.1-1.3-1.8-2.9-2.1-4.5c-0.8-4.1,0.1-14.2,1.7-19.5c1.4-4.8,6.8-17,7.3-16.5c0.2,0.2-1,4.8-2.6,10.2c-3.3,11.4-3.8,17.8-1.7,21 s4.9,2.8,7.5-1.1c0.7-1.2,1.5-2.2,2.4-3.2c0.6,0-0.7,5.9-1.9,8.8C206.4,98.1,201.7,100.2,198.3,96.8L198.3,96.8z M110.3,94.1 c0.7-0.6,7-4.6,14.2-8.8c15.8-9.2,26-16.2,30.1-20.4l3.1-3.2l-3.5-2.4c-4.5-3.1-5.8-5.6-5.2-9.8c0.8-6.2,7-12.8,13.1-14 c5-1,6.9,4.3,5,13.9l-1.2,5.8l3.1,2c3.4,2.2,3.4,3.2,0.4,8.2l-1.6,2.6l-2.8-2.1l-2.8-2.1l-5.7,5.7c-11.3,11.2-19.8,16.2-39,23.2 C109.7,95.5,108.6,95.7,110.3,94.1L110.3,94.1z M162.4,51.4c0.6-6.6-2.4-9.3-6.6-5.9c-1.7,1.3-1.7,1.7-0.7,2.9 c1.2,1.5,5.6,4.4,6.6,4.4C162,52.8,162.3,52.2,162.4,51.4L162.4,51.4z M308.6,56.8c0.6-1.7,1.3-3.3,2.2-4.8c3.2-1.5,6.5-2.8,9.8-4 c5.1-1.8,23.3-8.6,40.6-15s31.6-11.5,31.9-11.2s-0.3,1.8-1.2,3.5c-1.5,2.9-2.2,3.3-13.1,7.4c-9.9,3.7-68,26.5-70.9,27.8 C307.3,60.8,307.5,59.7,308.6,56.8L308.6,56.8z M116.3,51c-0.2-0.5-0.7-3-1.3-5.4c-1.2-5.4-6.1-17.2-7.6-18.4 c-0.8-0.7-1.5-0.6-2.7,0.1c-1.4,0.9-2,0.8-3.9-0.3c-1.4-0.9-2.7-2.1-3.8-3.4c-1.5-2-1.5-2.1,0.3-5.5c2.7-4.9,3.6-5.7,6-5.1 c5.4,1.4,11.4,10.4,13.4,20.3c0.9,4.6,2.3,6.8,2.3,3.7c0-2.4,4.2-19,5.4-21.5c1.7-3.4,5.1-6.8,6.8-6.8c5.2,0,9,8.1,5.9,12.4 c-1.1,1.5-1.2,1.5-3.5-0.7c-1.3-1.3-3-2.1-3.9-2c-2.3,0.4-4.9,6.6-7.3,17.9C119.8,48.2,117.3,54.4,116.3,51L116.3,51z M182.2,50.8 c0-0.2,0.7-2.2,1.6-4.5l1.6-4.2l8.2-2.9c4.5-1.6,22.9-8.4,40.9-15.1s32.9-11.9,33.2-11.6s-0.2,1.8-1.1,3.4c-1.5,2.8-2.3,3.2-30,13.8 c-15.6,6-34.2,13.3-41.4,16.2S182.2,50.9,182.2,50.8L182.2,50.8z"/>
</svg>