<svg xmlns="http://www.w3.org/2000/svg" width="540" height="311">
<path d="M538.9,0c-1.5,0.3-12.2,4.1-25,8.8l-41.2,15.3l-16.5,6l-1.3,3.7c-0.6,1.4-1,2.9-1.3,4.4c0,0.4,0.5,0.5,1,0.3 c12.5-5.2,75.7-29.9,80.3-31.3c1.5-0.5,5-6.4,4.2-7.2C539.1,0,539,0,538.9,0L538.9,0z M441.2,23.1c-0.4,0-2.1,3.8-3.9,8.4l-3.1,8.4 l1.4,4.3c0.9,3.4,1.5,6.9,1.7,10.4c0.9,17.1,2.9,48.7,3.9,62.5c3.1,40.6,5.3,77.7,5,82.6c-0.7,9.7-4.9,17.8-15.4,22.3 c-5.3,2.3-10.4,4.7-15.8,7.1c-33.1,14.5-42.5,21.2-61.1,43.3c-5.3,6.3-11.3,12.6-14.2,14.7c-11.7,8.8-24.5,9.6-30.1,2l-1.8-2.4 l2.2-1.8c9.6-7.9,18.7-16.3,27.4-25.1c9.9-10.6,13.1-18,14.1-32.1c1.2-16.6-5.3-35-16-44.7c-8.7-8-17.4-7.3-26.2,1.9 c-6.5,6.8-9.5,14.1-9.5,22.8c0,7.5,2.2,11.3,8.4,14.5c2.4,1.2,5.7,1.8,12.8,2.3c16.4,1.2,23.6,3.7,23.6,8.3 c0,4.4-18.6,22.4-35.9,34.7l-2.7,2l0.6-3.1c0.3-1.7,3.2-11.1,6.5-20.8s6-18.3,6-19.1c0-2.8-1.9-0.2-5.6,7.8 c-6.7,14.2-9,21.3-12.3,36.6c-0.3,1.6-2.1,3-8.1,6.3c-12,6.7-19.9,9.1-29.6,9.2c-9,0.1-14.1-1.3-19.5-5.2l-3.2-2.4l10.7-10.5 c12.3-12,15.6-16.4,18.6-24.8c2-5.5,2.1-6.9,2.1-18c0-10.7-0.2-12.7-2-18.1c-4-11.9-11.7-22.9-18.4-26.3c-5.1-2.4-11-2.1-15.9,0.7 c-7,4.6-11.9,11.7-14,19.8c-3.3,12.5-0.1,19.8,10,23.4c3,1.1,3.8,1.7,3.4,2.6c-3.2,7.7-6.6,23.5-7.2,34.8l-0.5,8.5l-5.7,3.5 c-8.1,5-17.6,9.7-24.1,11.9c-4.4,1.5-7.4,1.9-14,1.9c-10.2,0-15-1.5-20.3-6.1c-3.3-2.9-8.3-9.9-7.6-10.6c0.2-0.1,4-2.1,8.5-4.4 c10.4-5.2,15.3-8.7,19.9-14.4c5.7-7,6.8-10.2,7.3-21.1c0.7-16.3-2.5-28.7-10.1-39.5c-8.4-12-19.1-17.9-28.2-15.4 c-9.7,2.6-20.4,22.1-18.5,33.9c1.5,9.7,6.3,13.8,16.8,14.6c3.2,0.2,5.9,0.6,5.9,0.8s-0.9,2.8-1.9,5.7c-1.6,4.4-3.8,13.4-5.8,23.1 c-0.4,2.1-2.3,2.9-16,7.5c-53.9,17.9-99.7,17.5-120-1c-10.9-10-12.3-19.6-5.6-38.9l2.9-8.2h3c3.9,0,6.6-2.2,9.1-7.4 c2.2-4.5,4.5-12.5,4.5-15.7c0-1.6-0.6-1-3.1,2.9c-1.7,2.7-3.9,5.2-4.8,5.7c-7,3.7-11.7-5-9.7-18.1c0.8-5.5,2.1-10.2,8-30.4 c0.8-2.8,1.3-5,1.1-5c-0.7,0-8.7,16.7-10.5,22c-5.8,17-6.8,35.6-2.3,42.2c1.8,2.7,1.8,2.8,0.3,5.6c-1.5,3.4-2.8,6.8-4,10.3 c-2.1,6.5-2.4,8.8-2.8,18.4c-0.5,13.5,0.5,18.9,4.8,27.2c5.5,10.5,15.2,17.6,29.8,21.5c8.7,2.3,31.8,2.5,44.8,0.4 c19.6-3.3,38.9-8.4,57.5-15.4c6.6-2.4,12-4.3,12.2-4.3c0.3,0.7,0.4,1.5,0.3,2.2c0,5.4,4.5,16.2,9.1,21.9c3,3.7,8.9,7.6,13.9,9.1 c5.8,1.8,16.3,1.5,23-0.5c9.2-2.9,23.8-10.9,32.6-17.9c1.6-1.3,3.1-2.2,3.3-2s1.2,2,2.4,4c3.2,5.6,8,10.1,13.8,13 c3.8,1.8,6.2,2.4,11.6,2.7c11.5,0.7,20.9-2.2,34.9-10.7c2.8-1.8,5.7-3.4,8.7-4.9c0.1,0.1,1,1.9,2,3.8c3.6,7.1,8.7,12,14.8,14.2 c2.4,0.6,4.8,0.9,7.3,0.9c4.1,0,5.9-0.4,10.6-2.8s6.9-4.2,13-11c4.1-4.5,12.8-13.5,19.4-20.1c13.8-13.8,15.8-15.1,39.9-26.1 l13.4-6.1v0.1c7.7-3.1,14.5-8.3,19.4-15c4.9-6.9,9.7-18.6,11.7-28.4c2.7-13.5,2.5-21.4-3.3-101.3c-1.4-19.7-2.4-36-2.1-36.2 s1.9,1,3.6,2.8s3.9,3.2,4.6,3.2c2.2,0,1-4.3-6-23S442.2,23.2,441.2,23.1L441.2,23.1z M478.3,38.8c-0.8,0-5.3,11.4-6.2,15.8 c-0.5,1.9-0.3,4,0.5,5.8c0.8,1.8,1.5,9.5,2.2,22c0.6,10.6,2.6,39.7,4.3,64.8c4.8,69.4,5,71.8,5.1,85.6c0.1,7.1-0.2,16.6-0.5,21.2 c-0.6,8.3-0.6,8.4,0.9,6.7c1.8-2.1,5.9-14.2,7.9-23.4c2.6-12.1,2-33.8-2.9-99.8c-2.3-31.8-4-58-3.8-58.3s1.9,1,3.6,2.8 s3.8,3.3,4.5,3.3c1.2,0,1.3-0.5,0.9-3C494,76.8,479.5,38.8,478.3,38.8L478.3,38.8z M307.3,77.3c-4.3,0.4-10.3,5.2-12.5,10.4 c-2.4,5.8-1,10.4,4.1,13.5c1.7,1,3.2,2,3.4,2.1c0.7,0.6-4.6,5.4-10.8,9.8c-3.5,2.5-12.7,8.3-20.4,12.8s-14.7,8.9-15.6,9.7 s-1.4,1.5-1.1,1.5s4.9-1.6,10.4-3.6c16.6-6.1,28.2-13.2,37-22.8c2.4-2.6,4.7-4.8,5-4.8c1.2,0.5,2.3,1.2,3.2,2.1l2.7,2l2-4.2l2-4.2 l-2-1.8c-1-0.9-2.1-1.7-3.2-2.4c-1-0.5-1.1-1.1-0.5-2.7c2.7-7.1,1.6-16.3-2-17.2C308.5,77.3,307.9,77.2,307.3,77.3L307.3,77.3z M304.1,85.7c0.6,0.1,1.2,0.4,1.5,0.9c1.3,1.3,1.7,3,1.5,6.3c-0.1,2.4-0.8,2.2-4.8-0.6s-4.2-4.5-0.7-6 C302.5,85.9,303.3,85.7,304.1,85.7L304.1,85.7z M416.6,87.9c-0.7,0.1-1.4,0.2-2,0.4c-2.3,0.7-80.4,29.6-80.7,29.9 c-0.1,0.1-0.9,2.1-1.8,4.4s-1.5,4.2-1.3,4.2s10-3.8,21.8-8.5s29.8-11.7,40.1-15.7s19.4-7.5,20.2-7.9c1.1-0.6,3.8-5.4,3.8-6.8 C416.7,87.9,416.7,87.9,416.6,87.9L416.6,87.9z M237.6,88.3c-4.5,0.1-7.6,5.9-10.5,18.8c-2.7,12-2.6,11.9-4.7,4.2 c-2.1-8-5.8-14.6-9.6-17.2c-4.1-2.8-6-2.4-8.4,1.7c-1,1.5-1.7,3.2-2.1,5c0,2.9,7.1,7.9,8.4,5.8c2-3.2,6.7,5,10.2,17.5 c1,3.5,2.1,6.4,2.4,6.4c1.3,0,2.9-4.9,5.3-15.2c4-17.7,5.8-20.4,10.8-16c3.1,2.7,4.1,2.2,5-2.2c0.5-2.7-1.9-7.6-4.2-8.5 C239.4,88.5,238.5,88.3,237.6,88.3L237.6,88.3z M156.5,91.7c-1.1,0-2.2,0.2-3.2,0.6c-3,1-8.9,6.8-10.1,10.1 c-2.2,5.7-0.3,10.6,5.1,13.6c1.6,0.8,2.9,1.8,2.9,2.1c0,1-9,8.3-15.2,12.4c-3.3,2.2-12,7.5-19.4,11.9s-13.4,8.2-13.4,8.6 s0.6,0.5,1.4,0.2s5.8-2.2,11.2-4.2c14.6-5.4,27.6-13.7,35.3-22.4c2-2.3,4-4.2,4.4-4.2c1.2,0.5,2.3,1.1,3.3,2l2.6,2l1.7-3.1 c2.4-4.3,2.2-6-1.1-8.1c-1.9-1.1-2.7-2.2-2.4-2.9c0.6-2.2,1-4.4,1.3-6.7C162,95.8,160.6,91.9,156.5,91.7L156.5,91.7z M152.8,99.8 c0.5,0,0.9,0.3,1.6,1c1.1,1,1.5,2.5,1.5,4.9c0,1.9-0.3,3.5-0.6,3.4c-2-0.1-7.4-4.5-7.4-6.1c0-0.6,1.1-1.6,2.5-2.3 C151.1,100.3,151.9,100,152.8,99.8L152.8,99.8z M97.8,111.6c-2.3,0-4.9,2.2-6.7,5.7c-1.7,3.3-5,15.3-6,21.4 c-0.3,1.9-0.7,3.3-0.9,3.1c-0.8-2.1-1.4-4.3-1.9-6.5c-2.8-11-8.5-18.9-13.7-18.9c-2,0-2.8,0.7-4.8,3.8c-1,1.4-1.8,2.9-2.4,4.5 c0,0.4,1.2,2,2.8,3.6c2.6,2.6,3.1,2.8,6.1,2.3l3.2-0.5l2.7,5.8c1.5,3.2,3.4,8.2,4.4,11.2l1.8,5.4l-2,2.4c-2.4,3.1-3.6,6.9-3.7,10.8 v2.4l2.2-2.7c2.3-2.8,5-3.4,6.6-1.4c1.2,1.4,1.3,1.3-3.1,3.2c-8.2,3.6-9.5,9.5-6.1,27.2c3.3,17.4,4.4,25,4.4,32.4 c0,3.8,0.3,7.1,0.6,7.5l0,0c1,1,1.6-3.6,1.7-13.9c0.1-13.1-1.4-23-6.1-39.4c-0.6-1.9,3.5-4.2,11.9-6.8c6.8-2.1,7-2.1,8.7-5.9 c1.3-2.9,1.6-4.1,0.9-5.3c-1.4-2.5-6.7-7.3-10.3-9.1l-3.3-1.7l1.1-3c1-3.2,1.8-6.5,2.4-9.8c3.3-16.9,6.2-21.2,10.8-16.3 c3.3,3.5,4.8,2.3,4.8-3.7c0.1-2.1-0.7-4.2-2.3-5.6C100.3,112.6,98.6,111.6,97.8,111.6L97.8,111.6z M410.8,114.4 c-0.4,0.1-0.8,0.5-1.2,1.2c-1.6,2.9-0.6,10.2,2.1,15.6c2.9,5.7,2.5,7.5-1.7,7.5c-3.5,0-5.8-2.8-6.4-7.9c-1-8-2.2-13.7-3.1-15 s-1.1-1.1-2,1.2s-0.9,3.7,0.2,9.5c1.1,6.3,1.1,7.2,0,9.6c-1.2,2.6-4.5,5-7,5c-0.7,0-2-1.2-2.9-2.6c-1.5-2.3-1.6-3.4-1.1-9.6 c0.5-7.5,0.1-10.2-1.6-10.2c-3.1,0-6,8.8-3.2,9.9c0.9,0.4,1.2,1.9,1.2,6.3c0,6.6,0.9,10.5,2.9,12.7c1.7,1.9,6.5,2,9,0.2 c1.4-1.3,2.6-2.8,3.4-4.5l1.6-3.2l1.8,2.7c1.1,1.5,2.5,2.8,4.1,3.8c3.2,1.5,5.9,0,8.2-4.7c2.5-4.9,2.3-9.5-0.6-17.2 c-1.1-2.6-1.9-5.4-2.4-8.2C412,115.1,411.4,114.3,410.8,114.4L410.8,114.4z M142.4,142c-0.5,0-2.5,3.5-4.5,7.8 c-2.8,6-3.4,7.9-2.6,8.4c0.6,0.3,4.1,2.8,7.8,5.4s7.3,4.8,8,4.6s2.8-3.4,4.8-7.2l3.6-7l-1.9-2.1C155.5,149.7,143.8,141.9,142.4,142 L142.4,142z M301.6,152.4c-2.8-0.1-4.6,0.8-8,3.7c-8.8,7.6-10.8,16.7-4.1,19.4c0.9,0.3,1.7,0.7,2.4,1.3c-0.8,1.1-1.7,2-2.8,2.9 c-1.7,1.5-2.8,3.5-3.3,5.7l-0.5,3.1l12.3-8.4c6.8-4.6,13-8.7,13.8-9.1c1.4-0.8,4.2-7.3,3.4-8.1c-0.2-0.2-3.2,1.3-6.6,3.3 c-6.9,4.1-9.7,4.5-13.7,2.1c-3.2-2-3.3-3.3-0.1-5.9s5-2.6,7,0l1.6,2.1l1.3-2.5c0.8-1.8,1.2-3.8,1-5.9c-0.2-3-0.5-3.4-2.5-3.6 C302.4,152.5,301.9,152.5,301.6,152.4L301.6,152.4z M390.7,174c-0.7,0-4.6,8.7-6.7,15.1c-3.9,11.5-4.2,23.1-0.8,26.5 c2.1,1.8,5.1,2,7.4,0.4c1.7-1.3,4.3-7,5-11.3l0.5-3.2l-1.9,2.7c-1,1.5-2.2,2.8-3.6,3.9c-1.6,1.1-1.9,1-3.9-1s-2.1-2.4-1.7-8.3 c0.6-5.3,1.7-10.5,3.2-15.5C389.2,180.3,390,177.2,390.7,174L390.7,174z M153.7,195.2c2.8,0,5.5,0.7,7.9,2.1c3,1.8,8.7,7.6,8.7,9 c0,0.2-0.3,0.4-0.6,0.3s-4-0.4-8.2-0.7c-9.1-0.7-13.3-2.2-14.1-5.2C146.6,197.4,149.6,195.3,153.7,195.2L153.7,195.2z M318.1,195.6 c3.6,0,6.6,1.3,10,4.6c1.7,1.6,3.3,3.3,4.7,5.1c0.9,1.6,1.5,1.6-11.8,0.7c-8.2-0.5-10.7-1.9-10.7-5.7c0-2.7,1.4-3.9,5.1-4.5 C316.3,195.6,317.2,195.6,318.1,195.6L318.1,195.6z M238.8,197.2c1,0,2,0.1,3,0.2c2.8,0.5,10.2,6.4,11.8,9.4 c0.8,1.4,0.4,1.5-5.8,1.4c-11.6-0.2-16.6-1.9-16.6-5.9C231.1,199.5,234.5,197.4,238.8,197.2L238.8,197.2z M165.2,225.3 c8.8-0.4,18.3,4.6,20.4,10.7c0.4,1,0.6,2,0.6,3.1c-1.3,1.1-12.5,7.2-16.3,8.9c-2.6,1.2-7.3,3.2-10.3,4.5l-5.5,2.3l0.6-4.6 c0.3-2.5,1.7-9.1,3.1-14.6l2.5-10L165.2,225.3z M238.5,226.6l8.9,0.4c7.5,0.3,9.7,0.7,12.9,2.3c4.5,2.2,6.3,5,5,7.4 c-1.5,2.8-13.7,15-21.5,21.5c-10.6,8.9-10.1,8.7-10.8,3.1c-0.6-5.4,0.4-13.6,3.3-26L238.5,226.6z M444.7,252.4 c-3.9,0-6.6,2.4-7.8,6.9c-1,3.6-0.8,4,1.4,2.8c2.9-1.6,5.7-1,6.7,1.2c1.2,2.7-0.8,6.5-7.9,14.9c-2.9,3.4-4.9,6.2-4.4,6.2 s3.3-2.4,6.4-5.3C451.2,267.6,454.4,252.4,444.7,252.4L444.7,252.4z"/>
</svg>