<svg xmlns="http://www.w3.org/2000/svg" width="633" height="362">
<path d="M311,0c-1.4,0-2.7,0-3.9,0.1C295.8,0.7,293.5,2,288.4,11c-2.1,3.7-3.7,6.9-3.5,7.1s5.9,0.3,12.6,0.2 c12.2-0.1,23.5,0.9,24.9,2.3c1.6,1.6,0.1,2.6-24.3,15.9c-3.5,1.8-6.8,3.9-10,6.1c-2.3,1.9-2.3,1.9-0.4,1.5c6.3-1.4,25-7,28.4-8.6 c4.8-2.2,10.5-7.5,16.5-15.7c5.4-7.3,8.1-12.4,7.5-14.4c-0.3-0.8-1.9-2.1-3.7-2.8C332.5,1.1,320.6-0.1,311,0z
M252.8,7 c-2.2,0.3-4.3,1.2-6,2.7c-9.2,7-10.2,15.8-2.2,21.1c1.8,1.2,3.2,2.4,3.2,2.7c0,2.3-26.1,20.8-29.4,20.8c-0.4,0-1.5-2.6-2.3-5.8 s-2-5.9-2.5-6c-1.1-0.3-3,5.4-4.3,13.1c-0.9,4.9-1,5-5.4,7.8c-4.7,3-4.2,3.7,1.3,1.8c3.9-1.4,3.2-3.2,6.5,17.5 c4.6,29.4,6,45.2,7.4,82.2c1.4,40,0.4,56.6-4,65.4c-2.3,4.4-9,10.1-14.2,12.1c-4.9,1.8-15.8,3-20.5,2.1c-3.7-0.7-8.4-4.7-10.2-9 c-3.9-8.9-5-19.9-6.7-67.9c-1.4-40.2-2.2-53.2-4.4-70.1c-2.5-19.2-9.1-50.2-11.1-52.3c-1.1-1.2-2.2,2-3.7,10.8l-1.4,8.5l2.6,17.1 c5.6,37.3,7.6,63.2,7.7,98.7l0.1,23.2l-2.2,4.5c-2.9,6.3-6.3,10.2-13.4,15.8c-12.5,9.8-30.8,20-46.7,25.9 c-34.3,12.8-66.7,9.3-80.6-8.6c-6.9-9-7.1-18.7-0.4-36.2l2.7-7.1h3.9c5.2,0,7.6-1.7,10.5-7.6c2.4-4.8,5.5-16.5,4.7-17.3 c-0.2-0.2-1.1,0.8-1.8,2.2c-3.8,7.3-7.7,10.2-11.4,8.5c-2.9-1.4-4.4-4.8-4.8-10.8s1.2-14.2,5.9-30c2-6.6,3.4-12.3,3.2-12.5 c-0.6-0.6-7.3,13.3-9.9,20.7c-5.2,14.8-6.9,32-3.9,40.3l1.5,4l-2.5,5c-6.6,13.1-9.4,29.9-7,42.6c3.7,19.8,17.3,31.8,38.9,34.4 c12.1,1.4,29-0.8,43-5.6c11.1-3.8,31.8-14.3,42.6-21.6c17.3-11.6,23.9-19.1,28.5-32.8l1.5-4.4l0.6,7.2c1.4,17.3,4.5,29.9,8.9,35.8 c9.3,12.3,32.3,11.7,45.9-1.1c6.2-5.8,9.9-13.6,11.9-25c0.5-3,0.7-2.6,2.1,5.2c2.7,14.9,7.9,22.4,17.4,25.1c2.5,0.7,5.6,1.5,6.8,1.3 c8.7-0.4,17.3-2.4,25.2-6c3.2-1.5,6-2.8,6.1-2.8c-0.9,2.5-2,5-3.2,7.4c-4.7,9.4-7,19.8-6.8,30.3c0,11.5,0.9,16.2,4.7,23.5 c5.5,10.7,15.9,18.2,28.5,20.7c8.6,1.7,23.9,1.6,33.2-0.3c23.4-4.8,57-21.9,73.8-37.5c7-6.5,9.1-9.8,12.3-18.9l2.3-6.4l1,10 c2.9,29.5,8.8,39.2,24.9,41.5c9,1.2,17.2-2.4,22.8-10c7.9-10.8,11.8-23.7,13-43c0.6-9.1,0-20.3-4.5-82.4c-1.7-24.2-3-44.1-2.9-44.2 s2,1.3,4.1,3.4s4.1,3.6,4.6,3.6c1.8,0-0.2-7.5-6.5-24.4c-3.6-9.7-7.2-18.9-8-20.4l-1.5-2.8l-2,4.4c-2.7,6.1-4.6,11.7-4.5,13.8 c0.2,2,0.6,3.9,1.2,5.8c0.8,2.5,1.5,10.4,2,21.6c0.4,9.7,1.7,29.7,2.8,44.4c5.5,75.8,6.3,92.2,4.4,99.1c-0.8,2.8-1.6,3.9-5.1,6.1 c-8.3,5.3-18.6,6.6-24.7,3c-2-1.5-3.7-3.4-5-5.6c-4.7-7.9-6.1-19.7-7.5-63.1c-2-61.6-5.4-92.6-13.5-121.8c-2.8-10.1-3.7-9.4-6.1,4.3 l-1.4,8l2.9,19.6c3.2,21.5,4.1,29.4,5.3,43.2c1.5,17.8,2.6,46.2,2.3,61.2c-0.3,14.6-0.4,15.4-2.5,19.9c-2.6,5.6-5.8,9.4-12.2,14.7 c-16.9,14-44.6,27.4-68,32.7c-8.6,2-28,2-35.9,0c-12.3-3-23.1-10.7-27.4-19.4c-2-4.1-2.1-4.9-1.7-12.5c0.4-7.2,0.9-9.6,4.5-19.7 c3.9-11,4.2-11.6,7.2-13.4l3.2-1.9l2.1,4.2c2.9,5.7,10.8,13.8,16,16.3c6.1,3,12.6,3.3,16.7,1c6.4-3.8,9.8-13.1,9-24.6 c-0.8-10.4-4.2-17.4-10.3-20.9c-3-1.7-4.3-1.9-10.2-1.8c-4.1,0.1-8.2,0.7-12.2,1.7l-5.4,1.5l-0.8-2.9c-4.1-15.4-6.8-38.5-9.6-82.5 c-2.3-36.9-3.4-61.8-2.6-62.6c0.4-0.4,2.1,0.8,3.8,2.6c4,4.1,6.2,4.3,5.5,0.6c-1-5.2-14.7-41.5-16.4-43.3c-0.7-0.8-2.3,2.7-5.5,11.5 c-1.9,5.1-1.9,5.1-0.4,10.4c1.1,4.2,1.6,10.3,2.1,29.7c1.3,46.6,7.1,109.2,12.4,135.1c0.7,3.2,0.9,6.2,0.5,6.6 c-2.5,1.5-5.2,2.9-7.9,4.2c-10.2,4.6-19.3,8.8-30.1,7.1c-9.1-2.2-13.2-10.1-15-29.4c-0.5-4.8-1.2-19.8-1.6-33.2 c-1.1-34-2.3-56.8-3.6-70.4c-1.2-11.6-4.6-35.5-5.9-40.8c-1.9-7.8-2-7.1,2-8.8c6.8-2.9,17.4-10.5,23.7-16.8l6.2-6.3l2.8,2.4l2.6,2.4 l2-4c2.3-4.6,2.2-5.6-1.2-7.6c-2.1-1.3-2.4-1.8-2-4c1.4-7.3,1.5-13.3,0.2-15.3C256.1,7.7,254.5,6.9,252.8,7L252.8,7z
M187.3,13.1 c-19.4,0-19.8,0.1-25.6,9.9c-2,3.4-3.6,6.7-3.6,7.2c0,0.7,4.1,0.9,14.8,0.9c15.3,0,22.9,0.9,22.9,2.8c0,1.5-2.5,3.1-16.9,11 c-13.2,7.2-19.1,10.7-19.1,11.4s1.2,0.4,12.6-2.8c13.8-3.9,17.2-5.2,21.6-8.3c6.1-4.3,19.4-21.9,19.4-25.7 C213.3,14.6,207.4,13.1,187.3,13.1L187.3,13.1z
M249.9,15.3c1.6,0,2.5,1.1,3,3.6c0.3,1.3,0.2,2.7-0.2,4l-0.7,1.8l-3.1-2.1 c-5.2-3.5-5.5-4.6-1.6-6.5C248,15.7,248.9,15.4,249.9,15.3L249.9,15.3z
M338.9,40.6c-0.8,0-5.3,10.7-6.2,14.9 c-0.5,2.1-0.4,4.3,0.5,6.3c0.7,1.9,1.6,10.7,2.3,22.4c0.6,10.6,2.6,39.7,4.3,64.8c4.8,69,5,71.5,5.1,85c0.1,6.9-0.2,16.3-0.5,20.8 c-0.4,5.3-0.4,8.2,0.1,8.2c1.2,0,5.4-10.6,7.2-18.4c3.8-15.4,4.1-26,1.7-60c-2.2-31.6-2.6-28.2,3.4-30.4c17.6-6.3,30-13.6,39.4-23.1 c3.1-3.1,5.8-5.7,6.1-5.7c1.1,0.5,2.1,1.2,3,2l2.4,2.1l1.2-1.8c0.8-1.3,1.6-2.7,2.2-4.1c1-2.2,0.9-2.4-2-4.9l-3-2.6l0.9-4.2 c1.4-6.6,1.2-11.8-0.7-13.7c-2.2-2.2-4.6-2-9,0.8c-4.4,2.6-7.4,7-8.3,12.1c-0.4,3.1-0.2,3.9,1.6,6.1c1.5,1.6,3.2,3.1,5,4.3l2.9,1.8 l-3.5,3.1c-7.5,6.6-42,28.4-43.2,27.2c-0.5-0.4-5.5-65.9-5.5-71.6v-2.3l4,3.7c5,4.7,6,4.8,5.3,0.4c-0.9-5.9-15.2-43.1-16.5-43.1 L338.9,40.6z
M96.2,61.6c-1.3,0.2-2.6,0.9-3.5,1.8c-3.1,2.6-5.2,7.7-7.4,18c-0.6,3.1-1.4,6.1-2.4,9c-0.3,0.4-1.2-2.1-2-5.4 c-2.5-10.8-8.6-18.8-14.2-18.8c-1.7,0-2.6,0.7-4.2,3.5c-2.7,4.6-2.6,5.5,0.8,8.4c2.9,2.5,5.4,3.2,6.4,1.7c1.3-2.2,5.1,4.2,8.7,14.6 c2.6,7.5,2.6,7.4,0.2,10.5c-1.8,2.4-4.3,11.4-3.4,12.3c0.2,0.2,1.5-0.8,2.8-2.2c2.1-2.4,2.6-2.6,4.6-1.9c3.4,1.2,3.1,2.3-1.2,3.8 c-2.5,0.7-4.6,2.3-6,4.4c-3.2,4.8-3.2,8.5-0.1,24.5c3,15.4,4.4,26.6,4.6,35.3l0.1,5.4l1.2-5.6c2.1-10,0.2-30.3-4.2-45.4l-1.8-6.3 l2.5-1.6c2.1-1.3,5.3-2.4,15.2-5.2c1.7-0.5,4.6-5.8,4.6-8.4c0-2.3-7.1-9.1-10.8-10.4c-3.2-1.2-3.1-0.8-1.6-5.9 c0.6-2.2,1.7-7,2.5-10.8c2.8-14.2,6.8-19.5,10.4-14c1.7,2.6,3.4,2.6,4.3-0.1c1.3-3.5,0.9-5.8-1.7-8.7C98.8,62.3,97.6,61.4,96.2,61.6 L96.2,61.6z
M507.4,103.4c-1.2,0-4.6,9.1-5,13.3c-0.2,2.5,0.3,6.4,1.7,11.6c5.8,22.1,6.6,32.3,8.9,102.3c1.9,58.6,2.8,67.5,7.7,78.2 c4.1,8.8,9.8,13,19.4,14c10.7,1.2,19.9-2,28.6-10.1c5.9-5.8,10.6-12.5,14.1-20l2.2-4.8l6,3.9c7.5,4.9,15.9,8.2,24.7,9.7 c7.5,1.1,9.6,0.6,11.8-2.9c7.8-12.1,6.2-38.5-2.8-48c-8.1-8.5-20.7-4.8-30.3,9c-2,2.9-4.5,6.2-5.5,7.3s-4,6.5-6.7,12.1 c-6.8,14.1-12.2,18.8-26.3,22.4c-15.7,4-24.6,0.6-28.9-10.8c-2.6-6.9-3.1-12.5-4-40.8c-3-92.9-3.7-104.8-7.7-124.4 C513.1,114.2,509.2,103.5,507.4,103.4L507.4,103.4z
M398.7,105.1c2.7-0.3,5,3.8,3.9,7.5c-0.3,0.9-0.8,1.6-1.1,1.6 c-1,0-7.3-4.8-7.3-5.5s2.4-3,4-3.5C398.3,105.2,398.5,105.2,398.7,105.1L398.7,105.1z
M313.7,116.7c-0.7,0-4.5,8.7-6.7,15 c-4.2,12.4-4.1,24,0.2,27c2.5,1.8,4.4,1.5,7-1.1c2.2-2.2,5.3-10.3,4.6-12.2c-0.2-0.5-1.2,0.5-2.3,2.2c-2.5,3.9-5.6,4.5-7.6,1.5 s-1.1-11.5,2.2-23C312.2,123,313,119.9,313.7,116.7L313.7,116.7z
M259.3,119.9c-0.7,0-4.6,8.7-6.7,15.1c-3.9,11.6-4.2,21.6-0.7,26 s9.2,1.1,11.5-7c1.7-5.9,1.3-7-1.2-3.2s-5.6,4.5-7.6,1.5s-1.1-11.5,2.2-23C257.8,126.2,258.6,123,259.3,119.9L259.3,119.9z
M193,124.1c-0.8,0.3-5.9,12-7.2,16.6c-0.9,3.7-1.5,7.5-1.8,11.3c-0.5,7.6,0.3,11,3.2,13.1c0.9,0.6,1.9,1,2.9,1.2 c3.6,0,7.2-5.6,8.4-12.9l0.6-3.6l-2.3,3.4c-2.8,4.2-5.5,5.2-7.6,2.6c-2.4-2.9-1.9-10.3,1.4-21.7c1.6-5.4,2.7-9.9,2.5-10.1 S193.1,124.1,193,124.1L193,124.1z
M129,151.2c-8.4,0.7-25,21.2-25.9,34.2c-0.6,8.1,2.7,10.8,14.3,11.7c3.5,0.3,6.3,0.8,6.3,1.1 c0,1.4-5,4.3-17.4,10.4c-7.2,3.5-13,6.7-13,7.1c0,2.7,25.7-2.4,29.5-5.8c2.5-2.3,8.8-11.9,11.2-17.1c3.6-7.7,1.4-10-11-11.8 c-12.6-1.8-13.9-4.2-5.8-10.6c4.7-3.7,7-4.4,7.8-2.3c0.3,0.7,1.1,1.2,1.8,1.2c4.5,0,8.6-13.8,5.1-17.2 C131.2,151.5,130.1,151.1,129,151.2L129,151.2z
M548.8,188.7c-0.9,0.2-6.1,12.8-7.6,18.6c-2.1,8.2-1.8,19.5,0.5,22 c1.8,1.9,4.7,2.2,6.9,0.9c1.9-1,3.9-4.7,5.3-10c1.4-5.4,1.3-6-0.4-3.2c-1,1.5-2.2,3-3.5,4.2c-2.6,2.4-4.8,1.4-6.2-2.8 c-1.2-3.8-0.6-8.4,2.8-20.1C548,193.2,549.1,188.9,548.8,188.7C548.9,188.7,548.8,188.7,548.8,188.7L548.8,188.7z
M459.3,193.5 c-0.7,0.8-1.2,1.8-1.7,2.7c-7.6,14.1-10.4,31.7-5.8,37.6c2.7,3.4,7.6,2.4,9.9-1.9c1.5-3,3.9-13.1,2.5-10.9c-4,6.5-7.6,7.9-9.7,3.7 c-0.8-1.8-1.2-3.8-1.2-5.9c0-2.8,3.3-16.4,6-25C459.4,193.6,459.4,193.5,459.3,193.5L459.3,193.5z
M398.9,198.2 c-5.1,0.2-12,6.3-19.2,17.4c-5.6,8.6-8.3,18.5-6.2,22.7c1.6,3.1,7.3,5.6,13,5.6c5.9,0,7.7,0.8,6,2.8c-0.6,0.7-7.5,4.6-15.4,8.5 s-14.2,7.3-14.2,7.5c0,1.1,10,0.2,18.3-1.6c9.2-2,9.3-2.1,13-6.1c2.8-3.3,5.3-6.8,7.4-10.6c3-5.3,3.7-7.2,3.5-9.8 c-0.3-4.2-2.9-5.6-12.1-6.8c-7.4-0.9-10.9-2.4-10.9-4.6c0-1.6,5.5-7,9-8.8c2.4-1.2,2.6-1.2,4,0.6c1.1,1.5,1.7,1.7,2.9,1 c4-2.3,7.1-15.3,4.2-17.2C401.2,198.4,400.1,198.1,398.9,198.2L398.9,198.2z
M613.9,212.7c-0.5,0-19.1,6.8-41.3,15 c-40.1,14.9-40.4,15-41.7,17.8c-0.7,1.5-1.3,3-1.8,4.6l-0.6,1.9l3-1.3c5.6-2.4,37.2-14.8,57.9-22.8c11.2-4.3,21-8.1,21.7-8.4 C612.7,218.8,615.3,212.7,613.9,212.7L613.9,212.7z
M311.2,241.2c1.6-0.1,3.3,0.1,4.9,0.4c3.2,0.9,7.6,4.3,7.6,5.9 c-0.2,0.9-0.8,1.6-1.5,1.9c-2.3,1.2-7.1,0.6-11.2-1.6c-2.2-1.2-6.4-4.9-6.4-5.7C304.6,241.6,308,241.2,311.2,241.2L311.2,241.2z
M608.6,266.3c2.3,0,3,0.6,5.5,2.8c3.5,3.2,6.5,8,6.5,10.6c0,0.8-0.3,1.5-1,1.9c-2.4,0.9-16.7-5.1-21.4-8.9l-2-1.6l2.2-2.2 c1.8-1.9,3-2.2,7.3-2.5C606.9,266.4,607.9,266.3,608.6,266.3L608.6,266.3z
M150.1,273.1c-0.2-0.2-12.9,4.3-28.3,10 s-34,12.5-41.3,15.2l-13.3,4.9l-1.3,3.7c-0.5,1.4-1,2.8-1.3,4.3c0,0.9,0.2,0.8,4.5-1.1c5-2.2,55.2-21.8,68.4-26.8 c9.7-3.6,10.2-4,11.5-6.9C149.8,274.8,150.3,273.3,150.1,273.1L150.1,273.1z
M248.6,273.8c-2.1,0-4.2,1.5-6.1,4.4 c-1.2,1.8-2.6,3.2-3.2,3.2s-2.8,3.1-4.9,6.9c-4.2,7.5-7.5,10.9-16.6,16.9c-6.3,4.1-22.8,12.2-40.1,19.6c-6.2,2.6-11.4,5-11.6,5.1 c-1.1,1.1,6.1-0.1,17.4-2.9c7.2-1.8,13.5-3.2,14-3.2c1.7,0,15.1-7.2,21.2-11.4c7.5-5.1,13.1-11.3,16.1-17.8l2.4-5.1l5.3,3.5 c6,4,8.3,4.8,10.6,3.6c3.6-1.9,4.6-14,1.5-18.5C252.7,275.2,250.7,273.8,248.6,273.8L248.6,273.8z
M246.8,282.3 c1.8,0.1,3.4,1,4.5,2.4c1,1,1.7,2.3,2.1,3.6c0,1.8-1.7,1.4-5.9-1.3c-3.2-2-3.7-2.6-2.9-3.6C245.1,282.8,245.9,282.3,246.8,282.3 L246.8,282.3z
M598.2,302.2c-1.6,0.1-3.2,1-4.8,2.9c-1,1-1.8,2.2-2.5,3.4c0,0.3-0.8,0.9-1.8,1.4s-3.2,3.4-4.9,6.6 c-3.7,6.9-10.3,13.3-19.5,18.8c-6.6,4-27.8,14-41.8,19.8c-4.5,1.9-8.1,3.5-8.1,3.7c0,0.6,5.9-0.5,16.8-3c17.9-4.2,19.2-4.6,25.4-8 c14.9-8.1,23.2-15.5,27.6-24.6c1.7-3.5,3-5.4,3.3-4.8c1.7,1.6,3.5,2.9,5.4,4.1c7.8,5,11,3.9,12.8-4.3c1.2-5.5,0-10.2-3.4-13.5 C601.3,303,599.8,302.2,598.2,302.2L598.2,302.2z
M597.4,310.2c1.8,0,5.5,4.4,5.5,6.5c0,1.8,0.1,1.8-2.6,0.4 c-6.7-3.5-7.1-3.9-5.7-5.4C595.4,310.9,596.4,310.4,597.4,310.2L597.4,310.2z
M514.8,322.5c-0.7,0.1-1.3,0.2-2,0.5 c-2.9,0.9-80.5,29.7-80.8,30c-0.7,1.4-1.3,2.9-1.8,4.4c-0.9,2.2-1.4,4.1-1.1,4.1s8.4-3.2,18.2-7.1s27.9-11,40.2-15.7 s23-8.9,23.8-9.3c1.1-0.6,3.8-5.4,3.8-6.7C515,322.6,514.9,322.6,514.8,322.5L514.8,322.5z"/>
</svg>