<svg xmlns="http://www.w3.org/2000/svg" width="924" height="350">
<path d="M414.1,115.1c-2.9-0.5-4.2-4.1-4.2-11.6c0.1-8.6,2.2-17.1,6-24.8c1.6-3.4,3.1-6.1,3.2-6c-0.7,3.3-1.6,6.6-2.6,9.8 c-3.4,11.6-4,19.9-1.5,22.7c2.2,2.5,4.1,2.1,6.6-1.3c1.2-1.7,2.5-3.3,2.8-3.7c0.7-0.8-1.1,7-2.3,9.9 C420.7,113.7,417.5,115.6,414.1,115.1L414.1,115.1z
 M481.6,347.2c1.4-5.8,2.6-6.7,14.9-11.1c6.4-2.3,24.7-9.1,40.8-15 s29.3-10.7,29.5-10.5s-0.3,1.7-1.1,3.4c-1.4,3-1.7,3.2-14.7,8.1c-10,3.8-59.6,23.2-68.9,27C481.2,349.4,481.1,349,481.6,347.2 L481.6,347.2z
 M456.8,321.2c-22-3.7-35.5-21-37.6-48.4c-0.9-34.2,7.3-31.4,5.6-25.9c-3.9,20.1,2.4,38.1,16.9,48.1 c4.4,3,14,6.2,20.9,6.8c23.1,2.1,61.4-15.9,96-45.3c8.3-7,8.6-8.1,7.9-23.2c-0.6-11.8-2.5-42.7-3.3-53.8l-0.5-7l-20.2-20.2 c-24.1-24.2-34-35.4-45.6-51.6c-4.8-6.7-9.5-12.7-10.6-13.4c-1.8-1.2-1.9-1.6-1.9-11.2c0-7.9,0.2-10,1.1-10c1.5,0,31.4,22.8,32,24.4 c0.4,1-0.1,1.2-2.5,1.2c-2.1-0.1-4.3-0.3-6.4-0.7c-1.9-0.4-3.4-0.5-3.4-0.3c0,2.5,54.4,58.3,55.5,56.9c0.1-0.2-0.4-9.5-1.2-20.8 s-1.8-27.7-2.2-36.5C556.8,80,556,72.2,555.1,69c-1.3-5.1-1.3-5.2,0.5-10.7c2.4-7.2,4.8-11.9,5.6-11c2,2.1,16,40.1,16,43.6 c0,3.2-1.3,2.9-5.4-1c-1.9-1.8-3.6-3.2-3.8-3s0,4.3,0.3,9.2s1.4,19.2,2.3,32c2.6,36.6,1.7,32.4,7.9,39.1 c11.9,12.9,22.7,29.6,26.5,41c2.5,7.4,2.9,15.9,1.3,27.1c-0.7,5.3-1.6,9.9-1.9,10.2s-1.2-3.3-1.9-8.1c-2.9-18.9-8.7-30.5-25.6-50.7 l-1.8-2.2v22.2c-0.1,31.8-2.6,44.9-11.1,57.6c-11.3,16.9-51,45.5-74.4,53.5C478.7,321.6,466.5,322.8,456.8,321.2L456.8,321.2z
 M659.1,310.9c-4.1-1.9-5.1-3.6-5.1-9s2.3-9.6,11.1-19.1c4.1-4.5,6.4-7.6,6-8s-2.8-1.1-5.3-1.6c-3.7-0.7-5.2-0.7-8.2,0.3 c-2,0.7-3.6,1-3.6,0.7c0-1.5,3.9-7,5.6-7.9c3.1-1.6,14.6-1,16.7,0.9c3.8,3.5,1.3,8.4-10.6,21c-4.2,4.5-7.9,9.1-8.2,10.2 c-1.8,7.4,12,8.3,34.5,2.4c2.6-0.7-4.4,5.4-8.6,7.5c-5.6,2.4-11.6,3.8-17.8,4.1C663.4,312.3,661.2,311.7,659.1,310.9L659.1,310.9z
 M815.1,305.6c-4.8-2.4-7.8-6.5-9.4-12.6c-0.6-2.3-1.5-4.1-1.9-4c-2.2,1.1-4.3,2.3-6.3,3.7c-23.7,15.3-44.8,16.4-57.4,2.9 c-11.1-11.8-13.6-31.5-7.2-56.7c1-4.2,1.8-7.7,1.6-7.9c-0.6-0.6-9.7,1.6-18.3,4.4c-5.5,1.8-16.2,6.6-29.2,13.1 c-24.6,12.3-30,14.5-36.4,14.5c-7.8,0-13-2-17.7-6.8s-7-9.9-8.9-20.8c-0.7-4-1.4-7.4-1.5-7.6s-1.4,4.5-2.8,10.3 c-4.6,19-8.5,26.1-20.2,37.1c-6.8,6.3-15,11.1-23.9,13.9c-14.8,4.8-37.6,9.4-37.6,7.6c0-0.4,6.9-4.8,15.4-9.9 c29.2-17.4,36-21.8,42.5-28c14.1-13.5,20.5-27,23-48.3c0.8-6.4,0.8-14.7,0-37c-1.3-40.3-3.6-65.9-8.6-97.9c-2-12.9-2-13.3-0.8-20.4 c1.5-8.3,2.7-12.5,3.6-12.5c1.8,0,7.8,26.9,10.8,48.4c3.2,23,3.3,24,6.1,96c1.3,32.5,2.8,42.3,7.4,49.3c6.6,9.9,21.5,8.1,50.2-6.1 c11.4-5.6,13.7-7,12.4-7.6c-2.5-1.1-27.8-4.5-47.6-6.4c-9.9-1-18.3-2.1-18.8-2.4s0.6-3.5,2.8-8c4.2-8.6,2.8-7.8,23.5-13.9 c16.5-4.9,25.7-8.4,28.1-10.8c1.5-1.5,1.7-2.8,1.9-16.7c0.2-14.1-0.7-33.3-4.3-82.9c-0.7-9.2-1.5-24.2-2-33.3 c-0.5-10.1-1.3-18-2-20.4c-1.7-5.4-1.6-6.5,1.2-14.1c2.9-8.1,3.6-9.3,4.7-8.2c0.5,0.4,3.3,7.3,6.3,15.2c9.3,24.1,11.2,30.8,8.8,30.8 c-0.5,0-2.5-1.7-4.5-3.7s-3.7-3.5-3.9-3.3s0.2,7.5,0.8,16.3c3.2,40.9,4.6,64.4,4.5,79.3c0,30.7-2.8,44-11.8,56.4 c-1,1.2-1.8,2.5-2.5,3.8c0.2,0,7.8,1.1,17.1,2.4c25.9,3.6,34.7,4.4,35.8,3.4s-0.4-30-5-95.7c-1.7-24.6-3.6-52.5-4-62 s-1.4-19.6-2.1-22.5c-0.6-2.5-1-5.1-1.1-7.8c0.1-2.8,5.5-17,6.5-17c1.2,0,16.8,41.5,16.8,44.8c0,2.5-2.4,1.8-5.8-1.7 c-1.7-1.8-3.3-3.1-3.6-2.8s1.5,26.9,3.8,59.1c4.9,66.5,5.4,85.1,2.9,98.5c-0.8,4.3-1.3,8-1.1,8.3s7.4,0.8,15.9,1.2s15.6,1,15.8,1.1 c0.5,0.4-7.3,16.2-8.5,17.2c-0.5,0.4-6.7,1.1-13.8,1.6s-13.7,1.1-14.7,1.5c-2,0.7-3.6,6.3-5.4,18.4c-2.6,17.2,4.8,30.8,19.2,34.9 c10.7,3.1,23.8,0.7,38.5-7.1c10.7-5.7,11.8-6.6,12.5-10.1c2.2-13,6-26,9.2-32.2c1.4-2.6,1.5-2.7,1.5-0.8c0,1.1-1.2,6.9-2.7,12.8 s-3,13-3.3,15.6l-0.6,4.8l3.1-2.3c17.4-12.9,33.9-28.9,33.9-32.9c-0.2-1.3-0.8-2.5-1.8-3.4c-3.3-3.1-7.5-4.2-19.1-4.9 c-9.9-0.6-11.8-1-15.8-3c-6.7-3.4-8.3-6.6-7.9-15.5c0.4-7.9,2.5-13.3,7.6-19.8c8.9-11.2,21-12,29.8-1.9c4.4,5,9.1,13.5,11.7,21.3 c1.8,5.6,2.1,7.8,2.2,16.8c0,11.8-0.8,16.7-4.5,24.3c-2.1,4.4-4.6,7.3-14.6,17.3c-6.6,6.6-14.2,13.9-16.8,16.1l-4.8,4l3.4,2.3 c10.8,7.2,26.8,0.7,72.1-29.2c31-20.5,34.5-23.6,31.4-27.9c-3-4-9.6-8.1-27-17c-25-12.7-27.8-14.7-47.5-35.5l-6.8-7.1l-0.4-8.6 c-0.3-7-0.1-8.7,0.8-9.1c1.5-0.6,29.3,12.8,30,14.4c0.7,1.9,0,2.2-5.9,2.8l-5.3,0.5l4,3.5c6.7,6,15.2,11.1,33.6,20.2 c9.7,4.8,19.2,9.8,21,11.2c2.6,2.1,4.6,4.7,5.9,7.7c2.3,4.6,2.6,6.3,2.9,13.1c0.3,8.5-1.3,18-3.9,23.2c-2.9,5.6-15.5,15.8-41.4,33.1 c-18.9,12.6-28.6,18.5-39.1,23.5c-7,3.3-8.6,3.8-14.2,4s-6.9,0-10.5-1.8L815.1,305.6z
 M833.3,202.1c-4.2-5.9-10.4-9.3-15.5-8.4 c-4.1,0.7-6.1,2.4-6.1,5.3c0,3.8,4.3,5.3,15.5,5.4l7.9,0.1L833.3,202.1z
 M613.3,302c7.3-8.4,9.5-11.9,9.5-14.9c0-3.6-2.7-5-6.3-3.2 c-2.3,1.1-2.5,1.1-2.5-0.1c0-3.1,3-7.9,5.6-8.9c7.9-3.3,11.2,5.5,5.8,15.5c-2.5,4.7-10.1,13-13.8,15.2 C609.1,307,609.2,306.7,613.3,302L613.3,302z
 M697.7,279.7c-4.3-3.1-8-5.7-8.2-5.9s6.6-14.7,7.4-15.6c0.3-0.4,15.2,9.3,16.3,10.7 c0.6,0.7,0.5,1.8-0.2,3.7c-1.4,3.7-6.3,12.7-7,12.7C703.1,283.6,700.3,281.7,697.7,279.7L697.7,279.7z
 M781.8,263.5 c-5.5-3.2-4.7-18.6,1.9-33.7c4.4-10.2,5-10.1,1.8,0.4c-3.4,11.2-4.3,20.4-2.3,23.5s5.1,2.5,7.6-1.5s2.9-2.7,1.2,3.2 C790,262.5,785.7,265.9,781.8,263.5L781.8,263.5z
 M493,254.4c-0.3-0.3-0.6-3.9-0.6-7.9c0-7.2-1.7-19.4-4.8-34.4 c-2.1-10.2-2.1-15.1,0.1-19.6c1.5-3,2.5-3.9,6.5-5.8c4.5-2,4.7-2.3,3.1-3.1c-2.8-1.5-4.8-1-6.9,1.7l-2,2.6v-2.2 c0-4,1.7-9.2,3.7-11.4l2-2.1l-2.1-6.5c-2.3-7-6.2-15.3-7.6-16.1c-0.7-0.2-1.5,0-2.1,0.5c-1,0.8-1.7,0.8-4-0.5 c-1.6-0.9-2.9-2.1-3.9-3.6c-1-1.9-0.9-2.5,1.3-6.3s2.6-4.2,4.9-3.7c5.2,1,11.2,9.7,13.3,19.3c1.3,6.1,2.1,7,2.8,3.1 c0.9-5.3,4.4-18.9,5.3-20.6c1.7-3.3,4.9-6.1,7.1-6.1c4.8,0,8.2,8.3,5.2,12.4c-1.1,1.5-1.2,1.5-3.5-0.7c-4.8-4.6-6.9-1.8-10.8,14.7 c-1.5,6.4-3,12.1-3.2,12.8c-0.4,0.9,0.3,1.6,2.5,2.7c4.3,2.1,8.9,5.9,10.3,8.6c1.1,2.1,1,2.6-0.5,6.3c-1,2.2-2.1,4-2.6,4 c-2.5,0-14.4,4.3-16.1,5.8l-2,1.8l1.6,5.6c3.1,10.9,4.7,22.2,4.7,33.5c0,10.2-0.7,16.3-1.8,15.3L493,254.4z
 M772.6,183.8 c-2.9-0.5-4.2-4.1-4.2-11.6c0.1-8.6,2.2-17.1,6-24.8c1.6-3.4,3.1-6.1,3.2-6c-0.7,3.3-1.6,6.6-2.6,9.9c-3.4,11.6-4,19.9-1.5,22.7 c2.2,2.5,4.1,2.1,6.6-1.3c1.2-1.6,2.5-3.3,2.8-3.7c0.7-0.8-1.1,7-2.3,9.9C779.2,182.4,776,184.4,772.6,183.8L772.6,183.8z
 M788.9,138c-0.7-10.2-1.5-15.9-4.6-31.8c-2.7-14.1-2.8-17.8-0.8-22.2c1.8-3.9,2.6-4.7,7.6-6.6l3.9-1.5l-1.9-1.3 c-2.6-1.8-3.1-1.7-6.1,1.2l-2.6,2.6v-2c0-3.3,2.2-9.6,4-11.5l1.7-1.8l-1.8-5.5c-1-3-3-8.1-4.4-11.3l-2.7-5.8l-3.1,0.5 c-2.6,0.4-3.5,0.2-5.7-1.7c-3.1-2.6-3.2-4.4-0.5-8.9c2.4-4.1,4.3-4.4,8.5-1.6c3.8,2.6,7.5,9.1,9.6,17.2c1.6,6.2,1.9,6.7,2.4,4.5 c0.3-1.3,1.5-6.3,2.7-11.1c2.3-9.6,3.3-12,6.3-14.8c2.8-2.6,6-2.5,8.3,0.4c2.6,3.2,2.9,5.2,1.5,8.7l-1.2,3l-2.9-2.5 c-1.6-1.4-3.3-2.4-3.8-2.2c-2,0.7-4.5,5.8-5.8,11.6c-1.5,7.3-4,16.8-4.7,18.6c-0.4,0.9,0.2,1.5,2.2,2.2c3.5,1.3,10.7,7.7,11.3,10.1 c0.5,2-2.3,8.3-3.9,8.8c-10.3,3.1-14.9,4.7-16.3,5.8l-1.8,1.4l2.3,8.8c1.2,4.8,2.7,11.9,3.2,15.6c1.1,7.8,1.2,24.7,0.2,28.8 C789.6,146,789.4,145.1,788.9,138L788.9,138z
 M846.7,111.8c-4.3-3-7.8-5.8-7.8-6.4c-0.1-1.9,6.7-14.6,7.8-14.6s14,8.4,15.4,10.1 c0.5,1,0.7,2.2,0.4,3.3c-0.6,2.7-6.1,12.4-7.2,12.8C854.8,117.1,851,114.8,846.7,111.8z
 M803.2,103.6c0.3-0.4,6.7-4.5,14.2-8.9 s16.5-9.9,19.8-12.2c5.7-3.8,13.6-10.6,13.6-11.6c0-0.3-1.4-1.4-3.1-2.4c-1.8-1.1-3.3-2.6-4.5-4.3c-2.9-4.9,0.6-13.1,7.4-17.4 c4.4-2.8,6.8-3,9-0.8c1.9,1.9,2.1,7,0.7,13.7l-0.9,4.2l2.9,2.3c1.6,1.3,2.9,2.7,2.9,3.2c-0.5,1.5-1.2,3-2,4.3l-2,3.5l-2.4-2 c-0.9-0.8-1.9-1.5-3-2c-0.3,0-3.1,2.5-6.1,5.6c-9.8,9.8-19.7,15.8-36.6,22.1C802.6,104.8,802.5,104.8,803.2,103.6L803.2,103.6z
 M855.9,60.2c1-3.9-1.4-8.2-4.2-7.2c-1.7,0.6-4.1,2.7-4.1,3.5s6.3,5.5,7.2,5.5C855.2,62,855.7,61.2,855.9,60.2L855.9,60.2z
 M467.6,58.2c1.8-6.1,1.9-6.2,14.7-10.8c6.7-2.4,25-9.2,40.7-15c15.7-5.8,28.8-10.4,29.1-10.1c0.7,0.7-1.9,6.1-3.2,6.5 c-4.9,1.7-46.6,17.8-61.9,23.9c-10.6,4.2-19.5,7.7-19.7,7.7S467.2,59.4,467.6,58.2L467.6,58.2z
 M577.2,37.9c0.4-1.6,0.9-3.1,1.6-4.5 c1.6-3.7,1.7-3.8,9.8-6.7c4.5-1.6,22.9-8.4,40.8-15.1S662.4-0.3,662.7,0s-0.2,1.8-1.1,3.4c-1.5,2.8-2.3,3.2-30,13.9 c-15.6,6-34.2,13.3-41.4,16.2S577.2,38.3,577.2,37.9L577.2,37.9z
 M629.8,93.1c1.2-1,8.7-5.3,16.6-9.6c16.4-8.9,18.4-10.3,17-11.7 c-1.7-1.7-7.5-2.3-22.8-2.3c-17.3,0-16.4,0.7-10.4-8.8c5.7-9.1,6.1-9.2,24.9-9.2c20.5,0,27.4,1.9,26.1,7c-0.9,3.7-8.9,14.7-15.2,21 l-6.5,6.5l-10.4,3.3C639,92.4,629.7,95,628.3,95C627.9,95,628.6,94.1,629.8,93.1L629.8,93.1z
 M124.3,332.4c1.7-1,3.4-1.8,5.2-2.5 c8.4-3.3,36.1-16.2,41.4-19.4c7.6-4.5,14.8-10.1,17.2-13.3c1.7-2.5,3.2-5,4.6-7.6c1.6-3.1,3.4-5.4,4.5-5.8s1.9-1,1.9-1.4 c0.6-1.2,1.3-2.3,2.3-3.2c4-4.3,8.9-3.1,12,2.9c2.5,4.9-0.3,17.9-3.9,17.9c-2.5,0-6.4-1.9-10.6-5.1c-1.3-1.1-2.7-2-4.1-2.9 c-0.5,0.7-0.8,1.5-0.9,2.4c-1.3,6.1-9.1,15-18.4,21.4c-11.3,7.6-16,9.6-32,13.4c-8.4,2-16.5,3.8-18,4.1 C122.9,333.4,122.8,333.3,124.3,332.4L124.3,332.4z
 M211.1,291.1c-0.4-1.2-1.1-2.4-1.8-3.4c-2-3-5.3-4-7-1.9c-1.2,1.5-1.4,1.4,3.2,4 C209.1,291.9,211,292.3,211.1,291.1L211.1,291.1z
 M100.3,331.9c-6.7-1.8-12.6-7-16.5-14.7c-1.4-2.8-2.6-5.1-2.7-5.2 s-9.8,3.6-21.6,8.2s-21.6,8.3-21.8,8s0.3-2.1,1.1-4.2l1.6-3.8l39.1-14.4l0.5-7.2c0.4-7.2,1.7-14.2,4-21c0.6-1.5,1-3.1,1.3-4.7 c-0.5-0.5-15.2,14.3-27.1,27.3c-12.7,13.9-16.1,16.9-22.4,20.2c-3.5,1.8-5.2,2.2-10.2,2.2c-5.2,0-6.6-0.3-10.4-2.4 c-5.2-2.9-10.6-9.3-13-15.6c-5-13.2-1.2-34.3,10.4-57.3c4-8,5.7-10.4,5.7-7.9c0,1.3-4.5,15.2-7.7,23.6c-2.8,7.5-5.9,20.5-5.9,25.3 c0,8.2,4,16,9.4,18s15.2-0.3,22.8-5.4c4-2.7,13.5-12.1,29.2-28.9c5.9-6.3,12.1-12.3,18.7-18l7.2-5.8l-0.5-14 c-0.5-13.4-2.3-40.8-6.5-100.8c-1-15.1-2.3-35.1-2.8-44.4c-0.5-9.7-1.4-18.9-2.1-21.8c-0.7-2.4-0.9-4.9-0.8-7.3 c0.8-3.9,5.4-15.2,6.2-15.2c1,0,2.4,3.4,9.9,23.3c6.1,16.1,7.9,23.1,6.1,23.1c-0.5,0-2.7-1.7-4.9-3.7s-4-3.3-4-2.8s1.8,25.8,4,56.3 c4.5,61.6,5.5,83.8,4.1,94.1c-0.5,3.7-0.8,6.9-0.6,7.1s3.2-1.5,6.7-3.7c9.9-6.1,20.3-11.2,31.2-15.3l1.8-0.7l-3.2-6.6 c-2.7-5.7-3.2-7.3-3.2-11.9c0-12.5,6.2-19.9,16.6-19.9c6.3,0,10.9,1.7,19.7,7.5c8.5,5.6,13.8,10.3,15.8,14.4l1.6,3.1l-2.6,8.3 l-2.6,8.2l-3.7,1.2c-2,0.6-8.4,2.6-14.3,4.5l-10.6,3.3v3.7c0,6.8-2.8,7.5-4.8,1.3c-1.1-3.4-0.3-3.6-16.8,3.9 c-17.3,7.8-28.7,14.2-37.4,21.2c-2,1.6-6.7,14.1-8.6,23.3c-1.6,7.7-1.7,15.4-0.1,15.4c0.6,0,8.9-2.9,18.3-6.4s17.6-6.4,18-6.4 c1.1,0,1,0.7-0.6,3.9c-1.3,2.5-2.4,3.1-17,8.6L87.9,309c-0.8,0.3-0.6,1,1.2,2.9c4.6,4.9,11.2,6,19.2,3.1c7.7-2.7,14-8,25.2-21.2 c11.7-13.8,16.7-18.6,26-24.8c7.5-5,26.6-14.5,41-20.4c13-5.3,31.6-14.2,36.9-17.7c6.9-4.5,6.4-6.4-3.7-14.5 c-5.8-4.6-10-7.5-40.6-27.4c-6.6-4.3-14.9-10.1-18.5-12.9c-6.2-4.9-21.1-19.8-21.1-21.2c0-0.4-1.5-1.5-3.3-2.4l-3.3-1.7l0.5-9.4 c0.5-10.5,2.3-19.4,4.5-22.8c3.6-5.5,21.2-16.6,45.8-29l15.1-7.6l-1.8-2.9c-5.2-8.6-7.1-11.3-9.4-12.9l-2.5-1.8l0.2-9.3 c0.2-8.8,0.3-9.3,1.9-9.3c0.9,0,8.2,5,16.3,11.1c18,13.6,18.9,14.9,9.1,13.4c-1.9-0.4-3.8-0.5-5.8-0.5c-0.2,0.2,0.6,1.7,1.8,3.5 c2.1,3.2,2.1,3.2,4.7,2.1l13-5.7c20.8-9.1,41.1-16.5,53-19.3c3.7-0.7,7.5-1.1,11.2-1.2c5.7,0,6.3,0.1,8,2.2s1.9,2.8,1.6,8.3 c-0.5,10.1-6.3,20.3-21,37.1c-8.5,9.6-12.5,14.8-15.7,20.6l-2.5,4.3l0.5-3.6c1-7.3,7.2-18.3,16.1-28.5c7.2-8.2,14.7-18.1,14.7-19.3 c0-2-3.6-3.4-8.8-3.4c-6.4,0-14.4,2-28.3,7.2c-9.7,3.6-33.2,13.4-34,14.1c-0.2,0.2,13.7,14.5,30.9,31.7 c35.1,35.3,41.4,42.7,49.1,58.6c5.3,10.8,6.4,15.2,6.4,24.6c0,8.2-2,22.9-2.9,21.9c-0.8-3.1-1.5-6.3-2-9.5 c-1.9-10.9-3.2-15.2-7-22.7c-7.8-15.6-15.5-24.4-52-59.6c-17.8-17.1-27.5-27.2-34.3-35.7l-2.6-3.2l-21,10.6 c-25.5,12.8-48.4,26.9-47.6,29.2c0.1,0.5,5.4,3.2,11.6,6.1c13.5,6.3,15.1,7.3,14.4,9.1c-0.4,1.1-1.6,1.3-5.3,1.3 c-4,0-4.7,0.2-4.3,1.3c0.9,2.3,14.6,12.2,27.7,20.1c26.5,15.9,33.8,21,40.6,28.1c7,7.4,9.7,12.9,10.2,20.4 c0.7,12.4-3.5,22.8-11.9,28.9c-4.7,3.4-18.3,10.2-32.8,16.4c-17.7,7.5-36.6,17-42,21.1c-4.9,3.7-13.9,12.7-29.8,29.9 c-7.3,7.9-10,10.2-14.1,12.2C111.1,332,104.6,333,100.3,331.9L100.3,331.9z
 M155.3,216.3c11.6-4.2,10.6-3.6,8.6-5.7 c-2.8-3-16.2-8.3-21-8.4c-2.7,0-2.4,2.5,1.1,9.7c1.9,3.9,3.6,7.1,3.7,7.1S151.2,217.8,155.3,216.3L155.3,216.3z
 M213.9,324.7 c-4.7-2.1-11.3-10.2-7-8.5c3.9,1.5,9.9,2.2,15.4,1.7c6.2-0.5,33.4-5.5,36.6-6.7l1.8-0.7l-2.1-2c-1.8-1.7-3-2-8.3-2.2 c-4.8-0.1-9.5,0.3-14.2,1c-9.4,1.5-13.1,1.6-17.2,0.4c-6-1.7-5.8-5.9,0.9-16.2c11.2-17.1,33.2-25.2,28-10.3c-1,2.9-1.6,3-4.3,1.3 c-1.7-1.1-2.2-1.1-4.7-0.1c-4.2,1.8-12.3,7.5-16.4,11.5c-3.4,3.4-3.5,3.6-2.1,4.7c2,1.5,11.8,1.4,20.4-0.1c13-2.3,19.7-0.8,22.1,4.9 c2.1,5-0.5,13.9-4.4,15.4c-4.2,1.7-17.5,4.9-25.3,6C222.7,326.5,217.8,326.5,213.9,324.7L213.9,324.7z
M285.4,320.6 c6.4-7.5,9.2-12.2,8.6-14.8s-3.8-3.4-6.6-2.1c-2.6,1.2-2.8,1-1.8-2.5c1.2-4.5,4.1-7.1,7.9-7.1c10.4,0,5.8,17.7-7.5,28.7 c-2.2,1.8-4.3,3.3-4.7,3.3S282.7,323.7,285.4,320.6z
 M334.6,312.3c-11-2.7-19.1-11.4-23.2-24.9c-1.2-3.8-1.4-7.3-1.4-16.8l0.1-12.1 l-5.1,3.4c-5.7,3.9-10.4,5.8-23.6,9.5c-8.3,2.5-16.8,4.4-25.4,5.7c-3.4,0.5-4.1,0.3-3.8-0.5c0.3-0.6,10.8-7.2,23.3-14.7 s24.5-14.8,26.5-16.4c8.2-6.1,14.6-12.4,16.6-16.3c1.4-2.7,2.2-3.7,2.6-3s1.8-0.6,4.2-4.1c4.6-6.5,4.4-6.1,5.7-11.2 c1.9-7.3,0.3-28.6-6.3-84.3c-4.3-36.8-6.7-59.6-6.7-63.6c-0.3-3.3-1-6.5-2.1-9.6l-2.1-6.5l2.1-7.7c2.4-8.8,3-10.1,4.4-9.2 c1.1,0.7,13.1,25.2,16.4,33.5c2.6,6.6,3.4,10.9,2.1,10.9c-0.5,0-2.7-1.7-4.9-3.7l-4-3.7v4.3c0,2.4,1.3,15.5,2.8,29.1 c8.2,71.3,9.1,82.9,7.7,97c-1.3,12.9-4.1,23.7-8.9,33.4c-3.5,7.1-5.8,10.5-14.8,21.6c-2.2,2.7-2.3,3.3-2.3,10.6 c-0.1,19.5,10.3,30,29.9,30c6.5,0,8.7-0.3,15.2-2.6c14.3-4.9,33.8-17.5,51.4-33.3c9.1-8.1,15-15,15-17.6c0-4.6-7.1-7.6-19.6-8.1 c-10.8-0.5-15.1-1.4-19-4c-5.9-3.9-7.6-11.4-5-21.5c1.7-6.4,4.5-10.9,10-16c7-6.5,12.5-7.6,19.8-4s14.8,14.8,18.7,27.5 c1.6,5.1,1.9,7.7,1.8,16.8c0,12.1-1.1,17-5.4,25.2c-3.1,5.8-20.2,23.2-32.5,33.2C369.9,308.7,350.8,316.2,334.6,312.3L334.6,312.3z
 M415.1,212.9c0-1.4-4.6-6.3-7.9-8.4c-6.6-4.2-15.3-2.8-15.3,2.5c0,3.8,2.8,5,13.1,5.6c4.9,0.3,9.1,0.6,9.5,0.6 S415.1,213.2,415.1,212.9L415.1,212.9z
 M129.1,266.8c0.5-1.5,1.1-3,1.9-4.5c1.3-2.6,2.1-3,40.9-17.4c21.8-8.1,40.4-14.9,41.4-15.1 c1.8-0.5,1.8-0.4,0.6,2.6c-0.5,1.2-1.1,2.4-1.8,3.6c-0.3,0.3-7.2,3.1-15.4,6.1c-16.5,6.2-57.5,22.3-63.5,24.9 C128.4,269,128.4,269,129.1,266.8L129.1,266.8z
 M224.3,266.9c2.2-7.1-1.2-5.4,43-21.7c22.2-8.2,40.8-14.9,41.2-14.9 c1.1,0,1.1,0.3-0.2,3.5c-0.9,2.1-2,3-5.4,4.3c-13.7,5.2-48.2,18.5-62.1,24.1c-8.9,3.6-16.4,6.5-16.6,6.5S224,267.8,224.3,266.9 L224.3,266.9z
 M359.4,253.6c1.9-19.3,1.7-23.7-4.3-110.2c-1.8-25.1-3.7-54.1-4.3-64.4s-1.5-19.8-2-21c-0.5-1.5-0.8-3-0.9-4.6 c0-2.7,5.5-17.5,6.5-17.5c0.7,0,10.3,23.9,14.3,35.7c1.4,4,2.5,8.3,2.5,9.5v2.2l-2.2-1.4c-1.6-1.1-3.1-2.4-4.3-3.9 c-1.2-1.4-2.4-2.3-2.7-2s1.3,26.2,3.6,57.6s4.3,63.4,4.6,71.1c0.7,20.3-1.1,32.7-7,47.8C359.9,260.6,358.6,261,359.4,253.6 L359.4,253.6z
 M266.7,219.5c-4.9-4.9-3-20.5,4.4-36c1.4-3,2.7-5.3,2.8-5.2s-1,4.4-2.5,9.4c-3.5,11.4-4.2,18.6-2.4,22.2 c2.2,4.4,5.7,3.1,9.8-3.5c1.1-1.7-0.5,5.8-2,9.5C274.6,221.3,270.1,222.9,266.7,219.5L266.7,219.5z
 M38,208.6 c-0.6-10.3-1.6-17.6-4.5-31.6c-2.9-14.1-3-16.4-0.7-21.4c1.7-3.6,2.6-4.6,5.7-6.1c1.4-0.7,2.9-1.3,4.5-1.7c2.2,0-1-3.1-3.3-3.2 c-0.7,0-2.3,1.1-3.4,2.5s-2.3,2.3-2.5,2.1c-0.9-0.9,1.5-9.4,3.5-12.3l2.1-3l-2.6-7.7c-1.2-3.7-2.7-7.3-4.4-10.8 c-1.6-2.9-2-3.1-4.8-2.9c-1.9,0.2-3.8-0.3-5.4-1.5c-3.4-2.4-3.7-4.8-1.2-9.1c2.8-4.7,5.4-4.9,10-0.8c3.8,3.5,6.7,9.1,8.7,17.1 c1.2,4.7,1.6,5.6,2,4c0.3-1.1,1.4-5.9,2.5-10.6c2.3-9.7,4.2-14.1,7.3-16.5c2.9-2.3,4-2.1,7.2,1c2.8,2.8,3.3,5.1,1.9,8.8 c-1,2.6-2.2,2.6-5-0.1c-1.8-1.7-2.5-2-3.6-1.3c-2,1.2-3.9,5.5-5.4,12.3c-0.7,3.3-2,8.8-2.9,12.3c-0.6,2.1-1.1,4.2-1.3,6.4 c3.7,1.6,7.1,3.9,10,6.8c3.2,3.1,3.5,3.7,3.1,6.3c-0.8,5.1-2.3,6.4-9.9,8.7c-3.3,0.9-6.5,2.2-9.5,3.8l-2.4,1.6l2.6,10.1 c4.1,16.3,5.2,33.3,2.8,44.1C38.7,217.9,38.4,216.2,38,208.6L38,208.6z
 M243.9,178.3c0-1.8,0.9-3.2,3.2-5.4l3.2-3l-2.9-1.5 c-6.5-3.3-5.6-9,2.7-17.5c4.9-5,5.7-5.5,8.6-5.5c1.8,0,3.6,0.4,4.2,1c1.3,1.3,1.2,5.1-0.3,8l-1.3,2.4l-1.9-1.9 c-2.2-2.1-4.8-1.8-8.1,1.1c-1.9,1.7-2.1,2.1-1.1,3.2c2,2.1,4.7,3.4,7.6,3.6c1.1,0,4.8-1.6,8.1-3.7s6.3-3.5,6.5-3.2s0,1.9-0.5,3.6 c-0.8,2.8-2.2,3.9-13.9,11.8c-7.1,4.8-13.2,8.8-13.6,9S243.9,179.7,243.9,178.3L243.9,178.3z
 M217.6,167.8 c-2.8-1.1-3.6-4.3-3.2-13.6c0.1-4.5,0.8-9,2.1-13.3c1.8-5.1,6.6-15.7,7-15.3c-0.7,3.3-1.6,6.6-2.6,9.8c-4.4,14.9-3.9,24.4,1.4,24.4 c1.3,0,3.9-2.6,6.1-6.1c1.4-2.2-0.7,6.6-2.4,10.2c-0.7,1.6-1.9,2.9-3.4,3.8C220.3,168.8,220.1,168.8,217.6,167.8L217.6,167.8z
 M379.8,165.6c1.5-5.3,3-7,7.4-8.6c2.4-0.8,20.6-7.6,40.7-15s36.6-13.4,37-13.3s-0.1,1.6-0.9,3.4c-1.4,3.1-1.7,3.3-14.2,8 c-10.4,3.9-66.2,25.8-69.7,27.4C379.4,167.9,379.3,167.4,379.8,165.6L379.8,165.6z
 M116,149.8c-1.4-1.8-1.7-3.2-1.7-9.1 c0-4.3,0.5-8.7,1.5-12.9c1.5-5.7,7-18.9,7.6-18.2c0.2,0.2-0.9,4.5-2.4,9.7c-1.3,4.4-2.4,8.8-3.2,13.3c-0.9,6.6,2,12.2,5.6,10.9 c0.7-0.3,2.4-2.1,3.8-4.2c2.3-3.3,2.5-3.5,2-1.3c-2.3,10.1-4.4,13.5-8.6,13.8C118.2,151.8,117.4,151.5,116,149.8L116,149.8z
 M138,98.1c0.5-0.9,11.8-7.5,24.4-14.2c10.9-5.9,12.2-6.9,11.6-8.4c-0.7-1.8-4.1-2.2-21.3-2.6c-9-0.2-16.4-0.4-16.6-0.6 s1.6-3.4,3.8-7.1c5.3-9,7.3-10.1,18.4-10.7c9.6-0.6,25,0.8,29.6,2.6c5.9,2.3,5,5.4-4.9,18.6c-8.6,11.4-12.6,14-29.5,18.8 c-12.6,3.6-16.1,4.4-15.6,3.5L138,98.1z
 M232.8,66.5c0-0.7,8.6-5.8,19.2-11.5c13.8-7.4,17.6-9.8,17.6-11c0-2.1-4.7-2.8-21-3.2 c-10.3-0.2-16.6-0.7-16.6-1.2s1.7-3.7,3.8-7.2c5.1-8.6,7.1-9.6,19.4-10.1c11.1-0.4,24.8,0.9,28.7,2.9c4.4,2.2,4.2,4.3-1.5,12.7 c-10.1,14.9-15,18.9-28.5,23.1C244,64.1,232.7,67,232.8,66.5L232.8,66.5z"/>
</svg>