<svg xmlns="http://www.w3.org/2000/svg" width="437" height="317">
<path d="M407.7,315.9c-0.3-0.5-0.2-4.8,0.4-9.6c1.5-13.4,0.8-27.1-6.1-124.6c-1.1-15.4-2.4-35.2-2.8-44s-1.4-18.6-2.1-21.8 c-1.2-5.6-1.2-5.9,0.5-11.2c1-2.9,2.1-5.8,3.4-8.6l1.6-3.2l1.1,2.2c1.6,3,9,22.3,12.6,32.4c4.4,12.6,3.8,14.9-2.5,8.8 c-1.9-1.8-3.6-3.2-3.8-2.9s1.4,25.4,3.6,56c5.9,80.4,6,92.1,1.1,110.3C412.5,308.3,408.6,317.3,407.7,315.9L407.7,315.9z M362.4,296.6c-5.4-1.1-10.3-4.2-15.4-9.6c-2.7-2.8-5-5.8-6.9-9.2c-0.5-1.3-1.2-2.5-2-3.7c-0.1,0-2.7,1.4-5.6,3.1 c-8,4.7-17.9,8.7-25,10.2c-11.6,2.4-30.4-0.2-42.4-5.8c-3.1-1.5-5.9-2.7-6.1-2.7c-1.7,0.8-3.4,1.7-4.9,2.8 c-17.4,10.5-44.7,13.3-58.9,6c-7.4-3.8-13.5-12.5-14.7-21c-0.1-1.3-0.4-2.6-0.7-3.8c-0.1,0-5,2-10.9,4.3s-10.9,4-11,3.6 s0.3-2.3,1.1-4.3l1.4-3.5l9.7-3.5l9.7-3.5l1-6.9c1.3-8.8,5.4-21.2,11-33c2.4-5,4.3-9.1,4.2-9.1s-3.6,0.9-7.8,1.9 c-19.9,5-43.9,8-78,9.7c-13.2,0.7-28.5,1.7-34,2.3c-21.7,2.5-33.5,1.3-52.7-5.3C14,212.4,0,205.7,0,204.5s2.3-1.4,19.6-0.9 c16.4,0.5,30.6,0.1,41.3-1.1l4.5-0.5l7.9-9.5c4.3-5.2,8.3-10.9,8.9-12.5c1.8-5.1,0.7-35.7-3-83c-1.8-23.3-3.6-48.9-4-56.8 c-0.5-10.1-1.1-15.7-2.1-18.7c-1.3-4.1-1.3-4.4,0-8.8c2.2-7,5.1-13.1,6-12.6s6.3,14.4,12.4,31c5.3,14.8,4.8,18.4-1.5,11.9 c-1.7-1.8-3.4-2.9-3.7-2.6s0.7,14.1,2.1,30.6c4.4,49.5,5.1,61,4.3,70.8c-0.8,9.1-2.8,26.3-3.6,30.4c-0.4,2.1,0.6,1.4,8.6-5.9 c18.8-17.1,35-27.5,48-30.9c7.8-2,16.8-1.4,22.3,1.6c8,4.4,18.5,18.2,18.5,24.5c0,8.6-9.9,22.7-22.2,31.7c-1.7,1.1-3.3,2.4-4.8,3.9 c0.4,0.4,16.2-2.7,22.9-4.4c16.9-4.4,34.6-13.3,46.3-23.4c2.6-2.2,5.8-3,5.8-1.4c0,0.5-0.6,3.4-1.3,6.5s-1.1,6.8-0.8,8.3 c1.2,6.5,7.1,9.6,17,9.1c10.9-0.6,15.6-4.1,24.6-18.2c3.4-5.2,6.7-9.7,7.4-10c1-0.3,2,0.3,2.3,1.3c0.1,0.4,0.1,0.8-0.1,1.2 c-0.2,0.5-0.8,3.1-1.3,5.8c-0.8,4-0.8,5.1,0.2,7c2.6,4.9,11.1,7.9,17.1,5.9c4.3-1.4,4.8-3,2.1-7.4c-2.3-3.7-2.3-3.7-1.1-8.4 c1.8-7.3,3.6-12.3,4.2-12.3c0.7,0.3,1.4,0.8,1.8,1.4c6,6.8,6.1,22.2,0.3,33.7c-4.5,8.9-9.6,12.4-18.1,12.5c-4.6,0-5.6-0.2-8.3-2.3 c-2-1.7-3.8-3.7-5.3-5.9l-2.2-3.6l-3.2,4.8c-7.3,10.8-18.1,16.2-29.2,14.9c-9.5-1.2-14.9-6.7-16.5-16.8l-1-5.9l-3.5,3.2 c-5,4.4-10.6,8-16.6,10.9c-2.6,1.3-4.7,2.9-5,3.8s-2.4,6.7-4.7,12.8c-2,5.1-3.7,10.4-5.1,15.6c-0.9,4.3-0.8,15.3,0.1,16.3 c0.3,0.3,12.6-4.1,27.5-9.6s27.2-9.9,27.4-9.7c0.7,0.7-2.1,6-3.5,6.8c-0.8,0.4-9,3.7-18.3,7.2c-27,10.3-30,11.5-30,12.7 c0,1.9,6.4,7.6,11.1,9.7c8.6,4,27.3,3.1,40.9-2l5.8-2.1l-0.7-2.9c-0.5-4.1-0.7-8.3-0.6-12.5c0-8.5,0.3-10.2,2.1-14.6 c2.9-7.2,7.1-13.7,12.4-19.4c10.3-11.2,18.2-10.1,22.7,3c1.5,4.5,1.9,7,1.9,15c0,12.4-1.5,18-8.2,31c-0.8,1.5,9.4,3.3,18.2,3.3 c7.9,0,10.1-0.3,16-2.2c6.9-2.3,14.7-5.9,18.5-8.5l2.1-1.5l-1.4-7.4c-1.2-6.3-3.5-22-5.2-34.8l-0.4-3.4l-7.7,2.8 c-4.2,1.5-7.8,2.6-8,2.4c-0.4-0.4,5.8-4.4,11.7-7.7l3.5-1.9l-0.5-6c-2.8-31.8-4.5-58.4-5.3-81.2c-0.6-17.7-1.3-28.8-2-31.9 c-1.6-6.6-1.5-7.6,1.8-16.1c2.8-7.4,3.7-8.7,4.5-6.6c3.9,9.4,9.5,23.9,12.2,31.6c5.1,14.2,4.6,16.8-1.8,10.4c-1.9-1.8-3.7-3.1-4-2.8 c-0.8,0.8,1.3,44.1,4.2,87.2c0.3,4.3,0.9,8,1.3,8.3c1.5,1,22.2-14.3,22.2-16.4c0-0.3-1.4-1.4-3.1-2.4c-1.8-1.1-3.3-2.6-4.5-4.3 c-2.9-4.9,0.6-13.1,7.4-17.4c4.4-2.8,6.8-3,9-0.8c1.9,1.9,2.1,7,0.7,13.7l-0.9,4.2l2.9,2.3c1.6,1.3,2.9,2.7,2.9,3.2 c-0.5,1.5-1.2,3-2,4.4l-2,3.5l-2.4-2c-0.9-0.8-1.9-1.5-3-2c-0.3,0-3.1,2.6-6.1,5.7c-4.1,4-8.5,7.6-13.2,10.8 c-6.9,4.6-7.6,5.4-7.4,7.3c2.2,19.5,5.6,40.3,7.1,42.6c0.3,0.5,1,0.5,1.9,0c2.6-0.9,5.3-1.6,8.1-2.1c11.8-2.4,19.4-0.3,24,6.6 c3.2,4.8,4.5,10.5,4.4,19.6c-0.1,7-0.3,8.2-2.6,13C375.6,295.6,370.4,298.2,362.4,296.6L362.4,296.6z M371.1,275.4 c1.4-1.7-2.3-5.7-6.6-6.9c-3.5-1-11.7-0.5-11.7,0.7s4.4,4.8,7.2,6C363.6,276.8,369.9,276.9,371.1,275.4L371.1,275.4z M270.9,255.8 c6.7-4.4,8.7-6.8,8.6-10.4c-0.1-3.8-4.6-14.6-7-16.9c-1.8-1.7-2-1.7-4.5-0.4c-6.1,3.1-15.2,13.7-15.2,17.6c0,0.9,1,3.1,2.3,4.8 c2.4,3.2,8.7,8.4,10.2,8.4C265.8,258.9,268.3,257.5,270.9,255.8L270.9,255.8z M85.2,200c32.4-4.2,69.4-14.9,86.6-24.9l3.4-2 l-1.8-3.2c-3-5.3-11.8-13-17.1-15.1c-13.8-5.2-35.2,3.1-57.9,22.4c-7.7,6.5-24,22.4-24,23.3S74.1,201.4,85.2,200L85.2,200z M363.5,171.5c1-3.9-1.4-8.2-4.1-7.2c-1.7,0.6-4.1,2.7-4.1,3.5s6.3,5.5,7.2,5.5C362.8,173.3,363.2,172.5,363.5,171.5L363.5,171.5z M85.9,288.2c10.4-6.7,15.4-10.8,23.3-19.5c10.6-11.7,15.4-15.7,21.2-17.9c4.4-1.7,5.4-1.7,15.9-0.2c4.5,0.6,6.9-0.7,9.4-5 c0.9-1.6,2-3.1,3.2-4.4c1.1-0.9,1.2-0.7,1,2.1c-0.3,2.9-0.1,3.1,2.4,3.8c3.9,1,5.2,0.3,4.6-2.7c-0.6-2.8,1.4-7.4,2.9-6.9 s1.6,8.7,0,13c-1.8,4.8-4.1,5.9-9.4,4.5c-3.5-0.9-3.7-0.9-7.8,1.9s-4.3,2.9-9.4,2.3c-14.7-1.5-18.9,0.2-33.1,14 c-11.3,10.9-13.3,12.4-19.4,14.5C85.6,289.5,83.6,289.7,85.9,288.2L85.9,288.2z M58,273.3c-5.2-1.9-8.6-3.6-9.9-5.1 c-0.9-1,0-1.2,6.9-1.1c11.4,0.1,14.2-0.5,17.9-4.3c2.5-2.5,3.7-5,6-12.2l3-9l-1.5-3.1c-1.9-3.9-3.8-4.3-7.8-1.6l-3,2v-2.6 c0-6.1,6.9-11.5,11.8-9.2c3.4,1.6,4.4,4.3,4,10.6c-0.3,5.1-0.9,7.1-5.2,17.2c-0.3,0.7,0.9,0,2.6-1.5c3.6-3.1,10.3-6.5,13.1-6.5 s7.2,3,7.8,5.2c0.3,1.2-0.4,3.6-2,6.7c-2,4-3.2,5.3-7.1,7.6c-5.9,3.7-12.5,6.2-19.4,7.4C67.2,275.2,62.8,275.1,58,273.3L58,273.3z M87.2,262c2.6-0.9,5.2-2.1,7.6-3.5c1.5-1.2,1.5-1.2,0-2.5c-1.1-0.8-2.5-1.1-3.8-0.8c-2.8,0.5-9.9,5.1-12.6,8.1l-2,2.2l2.4-0.6 C80.1,264.6,83.9,263.3,87.2,262L87.2,262z M246.5,133.2c-4.5-3.1-8.1-5.9-8.1-6.2c0-1.1,6.4-14.4,7.2-14.9s12.8,6.8,14.4,8.8 s2.2,1.4,5.2-4.4c1.5-3.1,3.2-5.6,3.6-5.6c1,0,8.9,5,13,8.2c2.8,2.2,3,2.7,2.6,5.2c-0.5,2.9-6,13-7.1,13c-0.4,0-4.1-2.4-8.3-5.3 s-7.7-5.2-7.8-5s-1.4,2.8-3,5.8c-0.9,2-2,3.9-3.3,5.8C254.8,138.7,250.9,136.3,246.5,133.2L246.5,133.2z M202.9,118.1 c-0.7-10.2-1.5-15.9-4.6-31.8c-1.3-6.7-2.3-13.7-2.3-15.6c0-6.9,4.3-12.5,10.6-13.9c1.8-0.4,2.1-0.7,1.4-1.6c-2-2.4-4-2.2-6.8,0.5 l-2.7,2.6v-2c0-3.3,2.2-9.5,4.1-11.5l1.8-1.9l-2.2-6.7c-1.3-3.8-2.8-7.6-4.5-11.2c-2.3-4.6-2.3-4.6-5.4-4.1 c-2.5,0.4-3.5,0.1-5.6-1.7c-3.1-2.6-3.2-4.4-0.5-8.9c1.7-2.8,2.5-3.5,4.4-3.5c5.2,0,11.3,8.8,14,20c1.3,5.5,1.5,5.8,2.1,3.6 c0.3-1.3,1.5-6.4,2.7-11.2c2.4-10.2,4.4-14.1,8-16c3.1-1.7,5.3-0.8,7.7,3.1c1.9,3.1,1.9,3.8,0.3,7.5l-1.2,2.9l-2.7-2.6 c-1.7-1.6-3.2-2.5-4-2.2c-2.1,0.8-4.2,5.1-5.6,11.6c-2,8.8-4.1,17.2-4.7,18.6c-0.4,0.9,0.4,1.6,3,2.7c3.8,1.5,10.9,8.4,10.9,10.5 c-0.3,1.5-0.8,3-1.6,4.4c-1.5,2.9-2,3.2-9.4,5.6c-4.3,1.3-8.6,3.1-9.6,3.9l-1.8,1.4l1.9,7c3.1,10.7,4.6,21.8,4.6,33 c0,5.7-0.4,11.7-0.7,13.2C203.6,126.1,203.4,125.2,202.9,118.1L202.9,118.1z M165,119.3c-2.2-1.9-2.2-2.1-2.2-10.2 c0-6.3,0.5-9.7,1.8-14.1c1.9-6.2,6.5-16.5,7.1-15.9c0.2,0.2-0.6,3.2-1.6,6.6c-3.2,10-4.6,17.8-3.8,21.3s2.1,5.4,4,5.4 c1.4,0,4.8-3.2,6.3-6s1.1,0.4-0.7,6.3C173.5,120.7,169.5,123.2,165,119.3L165,119.3z M350.8,105.1c0.5-1.5,1.1-3.1,1.9-4.5 c1.4-3-4.8-0.4,63.9-26c10.2-3.8,19-6.9,19.4-6.9s0.1,1.5-0.7,3.3l-1.4,3.3L413.5,82c-16.9,6.5-35.8,13.8-59.4,23.3l-3.9,1.5 L350.8,105.1z M252.8,94.9c-1.1-1.3-1.8-2.9-2.1-4.5c-0.8-4.1,0.1-14.2,1.7-19.5c1.5-5,6.8-17,7.3-16.5c0.2,0.2-0.5,3.2-1.6,6.6 c-2.8,8.9-4.6,18.3-4,20.9c1.5,6.6,5.4,7.7,8.8,2.6c0.7-1.2,1.5-2.2,2.5-3.2c0.6,0-0.8,6-2.2,9.3C260.8,96.1,256,98.1,252.8,94.9 L252.8,94.9z M91.2,92.9c0-0.2,6.7-4.3,14.9-9.2c17.3-10.3,24.8-15.3,30.3-20.2l4-3.5l-2.8-1.7c-4.9-3-6.6-5.4-6.5-9.3 c0.1-4.3,1.5-7.2,5.5-11.1c4.9-4.7,8.8-5.7,11.5-3c1.3,1.3,1.6,2.7,1.6,6.6c0,2.7-0.3,5.5-0.9,8.1c-0.9,3.1-0.8,3.2,2.2,5.7l3,2.5 l-1.5,3.3c-1.9,4.3-3.1,5.3-4.5,3.7c-2.8-3.4-3.7-3.1-9.8,3c-9.5,9.6-18.7,15.2-34.9,21.3C92.9,93.2,91.2,93.7,91.2,92.9L91.2,92.9z M144.6,47.9c0.5-5.1-2.9-7.3-6.8-4.5c-2.2,1.5-1.6,3.1,2.1,5.6S144.3,51.1,144.6,47.9L144.6,47.9z M293.5,63.4 c1.4-1,6.2-3.8,10.6-6.2c13-7,24.3-13.8,24.3-14.7c0-2.1-6.6-3-22.2-3.1c-11.6,0-15.8-0.3-15.8-1c0-0.5,1.3-3.2,3-6 c6.1-10.5,7.3-11,24.6-11c18.6,0,27.6,1.8,27.6,5.6c0,2.4-2.5,6.9-7.8,14c-5.8,7.8-11.9,13.6-16.5,15.6c-3.5,1.5-27.7,8.7-29.4,8.7 C291.3,65.3,292.1,64.5,293.5,63.4L293.5,63.4z"/>
</svg>