<svg xmlns="http://www.w3.org/2000/svg" width="397" height="378">
<path d="M85.9,376.3c0.4-1.5,1-3,1.7-4.4c1.1-2.6,2.4-4.2,3.8-4.7c9.5-3.8,80.4-29.7,80.6-29.5c-0.2,1.2-0.6,2.4-1.2,3.5l-1.4,3.2 l-17.5,6.7c-9.6,3.7-27.9,10.8-40.7,15.9l-24.2,9.6C86.4,376.6,85.9,376.6,85.9,376.3L85.9,376.3z M222.4,367 c-22.5-2.9-38.2-16.8-43.7-38.5c-4.7-18.8-3.9-44.6,2.1-65.2c1.1-3.6,1.9-6.7,1.9-6.9c-1.1-0.6-2.2-1-3.4-1.3 c-6.4-1.9-17.2-8.1-22.4-12.9c-3.7-3.7-7.1-7.7-10.1-11.9c-3-4.4-5.6-7.4-6.7-7.7c-7-1.8-33.3,18.2-39.2,29.8 c-1.9,3.8-1.6,5.8,1.4,8.6c3.7,3.5,10.5,6.1,24.9,9.6c22.5,5.5,27.4,7.7,30.1,13.8c1.4,3,1.6,4.9,1.3,11c-0.6,13.3-5.6,20.7-23,33.6 c-18.9,14.1-46.4,27.4-68.1,33c-10.2,2.6-26.8,3.4-34.6,1.5C17.8,360,7.3,350.2,2.1,334.7c-2-6.1-2.1-7.3-2.1-21.7 c0-12.6,0.3-16.6,1.8-23.4c1.9-9.4,5.2-18.5,9.6-27l3.2-6.1l-2.2-1.9c-3.1-2.6-4.1-6.8-4.1-16.8c0-9.7,1.8-19.3,5.2-28.3 c2.5-6.9,9.1-20.4,9.7-19.8c0.2,0.2-1.2,5.8-3.2,12.4c-4.1,13.8-6.1,22.7-6.1,27.6c0,7.6,3.1,13.4,7.2,13.4c2.5,0,6.2-3.5,9.1-8.8 c1.8-3.1,2-3.3,2-1.6c0,3.3-3.1,13.7-5.5,17.9c-1.6,2.9-3,4.3-5.4,5.4c-3,1.3-3.6,2.1-6.1,8.1c-11.7,27.3-12.4,48-2.1,63.3 c10.9,16.2,30.1,21,56.9,14.2c12.6-3.2,22.4-7,38.1-14.5c16-7.7,32.1-17.4,38.9-23.4c5.8-5.1,3.2-6.6-21.4-12.6 c-9.2-2.2-18.8-5-21.4-6.2c-5.6-2.5-9.9-7-11.1-11.6c-2.5-9.4,3.2-31.6,11-42.1c11.2-15.2,29.3-29,38-29c5.2,0,7.3,1.7,13,10.7 c8.4,13.2,13.9,17.8,27.5,23.3c4.1,1.6,7.6,2.9,7.6,2.7l4.7-7.1c6.1-8.8,13.1-16.8,20.9-24.1l4.1-3.7l-3.2-3.3 c-6.3-6.5-19.2-14.4-23.6-14.4c-1.1,0-4.7,1.2-7.9,2.8s-6.1,2.6-6.5,2.4c-0.8-0.5-0.5-1.7,2.5-11.6c2.6-8.8,3.7-10.1,11.3-13.5 c14.5-6.6,34.8-8.9,53-6.1c15.4,2.4,28.8,7.8,31.3,12.6c1.4,2.7,0.9,4.8-3.1,13.3l-2.4,5l-12.4,6.2c-6.8,3.4-12.2,6.5-12.1,7 c0.5,1.6,6.5,5,12.3,7.1c8.8,3.2,18,4.2,23.7,2.7c6.7-1.8,13.3-5.9,14.8-9.3c2.2-5.1,1.7-20.9-3-86c-2.4-33-3.2-45-4-61.6 c-0.5-9.8-1.2-16.7-2.1-19.5c-0.7-2.1-1-4.4-0.9-6.6c0.6-2.9,5.1-14.4,6.1-15.4c0.5-0.4,1.5,1,2.6,3.6c3.1,7,13.9,36.9,14.4,39.7 c0.6,3.7-1.5,3.5-5.5-0.6c-1.7-1.7-3.4-3-3.7-2.8s-0.5,1.9-0.2,3.8c0.5,4,5.5,74.4,6.8,96.5c2,32.6-1.3,52.5-11.1,66.8 c-5.7,8.3-12.6,12.5-20.7,12.5c-12.4,0-27.2-5.9-41.2-16.4c-6.8-5.1-6-5.2-16.4,3.1c-5.9,4.8-18.6,17.7-18.6,18.9s29.8,3.1,54.4,3.1 c27.7,0,43.5,2,51.4,6.2c22.3,12,22.9,49.1,1.3,78.6c-4.8,6.5-17.1,18.6-23.9,23.4C265.4,364.8,244.6,369.8,222.4,367L222.4,367z M256.3,345.2c18.7-4.8,35.3-14.7,49.5-29.7c14.6-15.5,16.1-27.7,4.7-40.1c-4.9-5.5-11.5-9.2-18.7-10.6c-6-1.3-25.7-2.4-56.2-3.3 c-23.3-0.7-29.7-1.2-43.1-3.4c-4.2-0.7-11,28.1-10.2,42.7c1.1,18.9,8.3,32,21.7,39.5C217,347.6,238.9,349.7,256.3,345.2L256.3,345.2 z M218.2,324.3c-4.1-1.8-5.3-4.4-4.9-10.6c0.1-3.7,1.2-7.4,3-10.6c1.1-2.3,2.3-4.4,3.7-6.5c1.7-1.9,1.4-2.8-1.3-4 c-7.4-3.1-6.1-11.5,3.2-20.9c5.2-5.2,8.4-6.5,10.1-4.2c1.6,2.1,1.3,5-0.6,7.7l-1.7,2.4l-1.9-1.8l-1.9-1.7l-2.2,1.6 c-3.3,2.5-4.4,5.1-2.9,6.8s6.3,3.3,8.6,2.7c1-0.3,3.9-2.3,6.4-4.6s4.7-3.9,4.9-3.7c0.8,0.8-0.5,6.5-2,8.7c-1.8,2.1-3.8,4-6,5.7 c-5.5,4.3-12.1,11.8-14.8,16.7c-2.4,4.5-1.9,7.2,1.7,8.7c3.9,1.6,15.6,1.2,24.5-0.9c4.1-1,7.6-1.6,7.9-1.4c0.5,0.5-5.5,4.9-9.5,7 C235.4,325.2,223.4,326.6,218.2,324.3L218.2,324.3z M241,188.5c4-2.3,7.4-4.5,7.5-4.9c0.4-1.4-6.3-3.1-14.3-3.5s-13.9,0.1-13.9,1.2 c0,0.3,1.7,1.7,3.8,3.1c2.3,1.6,4.5,3.4,6.5,5.4c1.5,1.6,2.8,2.8,2.9,2.8S237,190.8,241,188.5L241,188.5z M336.8,295.3 c0.5-18.6,0.4-20.7-5.3-103c-1.8-25.1-3.5-52.4-4-60.8c-0.5-9.7-1.3-16.9-2.1-19.8c-1.3-4.4-1.3-4.8,0.3-9.6 c2.7-8.1,5-12.9,5.7-12.1s6.3,14.4,11.6,29.1c6.5,18,6.5,20.3-0.3,14c-2.2-2-4.1-3.4-4.3-3s0.6,14.7,1.9,31.8 c5.7,77.5,6.5,90.4,6.5,102.8c0,13.9-1.2,23.3-4.3,34c-1.8,6-5.1,14-5.8,14C336.5,312.7,336.6,304.9,336.8,295.3L336.8,295.3z M63.6,306.3c-3.1-3.1-3.1-14.5,0.1-24.8c1.5-4.8,7-17.1,7.5-16.6c-0.7,3.2-1.6,6.3-2.6,9.4c-1.6,5-2.7,10.1-3.2,15.3 c-0.4,5.9-0.3,6.2,1.7,8.3s2.3,2,3.9,1c1.4-1.1,2.6-2.3,3.6-3.8c1.5-2.2,1.8-2.3,1.8-1c0,2.9-2.6,9.8-4.5,11.8 C69.7,308.3,66,308.5,63.6,306.3C63.6,306.3,63.6,306.3,63.6,306.3L63.6,306.3z M64.6,204.5c-2.9-1.4-4.2-5.4-4.2-12.3 c0-5.2-0.3-6.5-1.6-8c-1.1-0.9-1.5-2.4-1.1-3.8c0.6-2.2,3.8-6.1,5-6.1s1.6,4.5,1.1,11.1c-0.3,4.8-0.2,6.4,1,8.6 c2,3.7,5.2,3.7,8.6,0.1c2.6-2.8,2.6-1.9,0.9-15.5c-0.5-4.3,0.8-8.4,2.2-6.9c1.1,1.1,3,9.5,3.1,13.2c0.1,6.8,4.2,11.4,8.6,9.4 c2.4-1.1,2.3-2.4-0.5-7.9c-3.2-6.3-3.8-10.4-2-14.3l1.4-3.1l0.8,2.8c0.4,1.5,1.8,5.8,3.1,9.4c2.5,7.2,2.7,9.4,1.5,13.9 c-2.5,8.9-10,10.4-13.9,2.7l-1.2-2.3l-1.6,3.1c-0.8,1.6-1.9,3.2-3.1,4.5C70.3,205.1,67.3,205.5,64.6,204.5L64.6,204.5z M131.1,184.5 c-4.3-3.1-8-5.8-8.2-5.9c-0.4-0.4,6.9-15.6,7.5-15.6c0.9,0,5.8,3.1,11.3,7.1c3.9,2.8,5,4.1,5,5.7c0,2-5.6,13.1-7.1,14 C139.3,190,135.4,187.7,131.1,184.5L131.1,184.5z M25.9,177.9c0-0.2,6.2-4,13.8-8.5c16.3-9.7,26-16.1,31.2-20.7l3.8-3.4l-3.6-2.4 c-3.4-2.3-6-5.7-6-8c0-4.8,4.9-12.2,9.7-14.7c3.1-1.6,7.1-1.5,8.4,0.2s1.4,8.4,0.2,13.8c-0.8,3.6-0.8,4.2,0.3,4.8 c1.1,0.7,2.1,1.4,3.1,2.2c1.7,1.4,1.8,1.7,0.9,3.8c-0.7,1.4-1.4,2.8-2.2,4.1l-1.2,1.9l-2.8-2.1l-2.7-2l-5.8,5.9 c-9.5,9.7-20,16-36.4,22.1C27.9,178.2,25.9,178.7,25.9,177.9L25.9,177.9z M79.2,133.9c0.6-2.6-1.2-6.4-3.3-6.7 c-1.3,0-2.6,0.5-3.6,1.3c-1.7,1.4-1.8,1.7-0.7,3c1.2,1.5,5.6,4.4,6.6,4.4C78.4,135.9,78.9,135,79.2,133.9L79.2,133.9z M97.9,159.7 c0-1.8,2.9-8,4-8.6c0.8-0.4,22.6-8.7,48.5-18.5s63.8-24,84.3-31.7C279,84.2,276.6,85,275.9,87.3c-1.3,4.4-3.1,5.6-16,10.4 c-19.2,7.1-98.5,37.6-130.8,50.4C100.4,159.4,97.9,160.3,97.9,159.7L97.9,159.7z M245.9,141.4c-3.7-2.7-7.3-5.1-7.8-5.4 c-0.8-0.4-0.1-2.5,2.7-8.3c2.1-4.3,4.1-7.8,4.6-7.8c1.2,0,12.8,7.8,15,10l1.9,2l-3.5,7c-2,3.9-4.1,7.1-4.7,7.2 S249.7,144,245.9,141.4L245.9,141.4z M101,130.3c-1.8-1.4-1.9-2-1.9-11c0-7.2,0.4-10.5,1.5-13.9c1.9-5.6,7-16.9,7.4-16.5 c0.2,0.2-1,4.6-2.6,9.8c-3.6,11.5-4.1,19.8-1.6,22.7c2.2,2.4,4.4,1.8,7.4-2.2l2.6-3.4l-0.5,2.7c-0.9,4.9-3.6,11-5.3,12.2 C106,132.3,103,132.1,101,130.3L101,130.3z M203.9,89.5c-2.9-1.2-3.8-4.8-3.3-13.8c0.4-8.8,2.3-15.4,6.8-24.2c3-5.8,3.2-5,0.6,2.6 c-3.1,9-4.7,17.5-4.1,21.2s2.4,6.2,4.4,6.2c1.5,0,4.1-2.6,5.6-5.5s1.7-1.6,0.4,3.4c-1.5,5.8-3.3,8.8-5.8,10 C206.4,90.4,206.1,90.4,203.9,89.5L203.9,89.5z M152.9,85.2c-0.5-4-4.6-15-6.9-18.8c-1.5-2.4-1.9-2.6-4.6-2.1s-3.3,0.2-5.8-2.4 l-2.8-2.9l2.3-4.4c1.9-3.6,2.6-4.4,4.4-4.4c5.8,0,12.1,8.7,14.6,20.2c0.6,2.5,1.2,4.6,1.5,4.6s1.1-3,1.9-6.7 c3-14.5,6.2-21.1,10.8-22.5c1.4-0.4,2.5,0.1,4.6,2.3c3.1,3.2,3.7,6.9,1.5,10l-1.3,1.9l-2.3-2.5c-1.3-1.4-2.9-2.4-3.7-2.3 c-2.3,0.4-4.8,6.8-7.4,18.6C156.4,88.1,153.9,92.5,152.9,85.2L152.9,85.2z M310.7,83.8c0.5-1.5,1.1-3,1.8-4.4 c0.3-0.3,10.6-4.2,64.9-24.3c9.6-3.6,17.6-6.4,17.8-6.2s-0.2,1.6-0.9,3.2c-1.5,3.5-0.5,3-27.2,13.2c-11.4,4.4-29,11.2-39,15.2 s-18.4,7.3-18.6,7.3S309.8,86,310.7,83.8L310.7,83.8z M228.4,42.6c0.9-1.1,6.3-4.2,24.7-14.3c10.3-5.6,11.6-6.7,10.2-8.2 c-1.7-1.7-12.8-2.8-25.3-2.5c-7.1,0.1-11.6-0.1-11.8-0.6s1.5-3.7,3.6-7.2c5.9-10,6.3-10.1,26.9-9.8c17.8,0.3,22,1,24.1,4.2 c1,1.4,0.8,2.1-0.9,5.6c-4.6,9.2-15.8,21.6-22.3,24.7c-5,2-10.1,3.7-15.3,5.1C227.2,44,227.2,44,228.4,42.6z"/>
</svg>