<svg xmlns="http://www.w3.org/2000/svg" width="374" height="433">
<path d="M91,432.1c0.3-1.5,0.8-3,1.3-4.4l1.3-3.7l16.5-6l41.3-15.2c13.6-5,24.9-9,25.1-8.8c0.8,0.8-2.7,6.8-4.2,7.2 c-4.6,1.4-67.8,26-80.3,31.3C91.5,432.7,91,432.5,91,432.1L91,432.1z
M224.6,431.8c-13.9-1.8-23.9-6.3-32-14.4 c-11.4-11.4-16.1-26.8-16.1-52.1c-0.2-12.1,1.4-24.1,4.5-35.8c1.1-4.1,2-7.7,2-8s-2.6-1.6-5.8-2.8c-13.2-5.1-22.4-12.4-29.7-23.5 c-5-7.6-6.7-8.7-11.1-7.4c-11,3.3-35.1,25.1-35.8,32.4c-0.3,2.8,0,3.5,1.8,5.3c3.4,3.3,11.8,6.4,27.1,10.3 c17.8,4.4,22.9,6.4,26.2,10.1c4.9,5.5,5.1,17.7,0.4,27.3c-5.6,11.5-25,26.3-51.9,39.5c-16.2,8-32.1,13.6-44,15.6 c-11.2,1.9-24.4,1.3-32-1.5C10.9,420.4,1.6,406,0.2,383.5c-1-15.1,2.7-36.1,8.9-50.5l3-6.8l-1.9-3c-3.6-5.8-3-22.5,1.4-37.8 c1.9-6.4,11.2-27,11.9-26.2c0.2,0.2-0.9,4.5-2.5,9.5c-6.9,22.3-8.5,33.2-6.1,40.2c1,2.7,4.1,5.4,6.4,5.4c1.6,0,5.9-4.4,8.1-8.3 s2.3-4,2.3-1.7c0,3.1-1.7,9.3-4,14.6c-2.2,5.1-6.4,9-9.5,9c-2.1,0-2.4,0.5-4.8,6.7c-10.7,28.5-9.1,49.2,5.1,63.4 c5.6,5.6,11.3,8.6,19.7,10.4c21.6,4.6,57.9-7,96-30.5c8.2-5.1,15.1-10.3,15.7-12s-1.9-4.1-6-5.4c-2-0.6-10.7-2.9-19.3-4.9 c-18.5-4.5-24.8-7.2-28.4-12.2s-3.8-13.9-0.9-25.6c3.4-13.7,8.3-22.2,18.8-32.7c11.3-11.2,22.1-17.9,29.1-17.9c5,0,7.3,2,13.5,12 c5,8.2,10.3,13.7,16.5,17.3c3.3,2,17.1,7.7,17.5,7.3c0.1-0.1,2.4-3.5,5.1-7.5c4.5-6.2,9.5-12.2,14.9-17.7l10-10.3l-4.6-4 c-5.7-4.9-13.4-10.2-17.2-11.8c-4.3-1.8-7-1.5-13,1.6c-6.5,3.3-6.7,3.3-6.7,1.1c0-2.7,4.9-17.8,6.3-19.4c2-2.3,11.7-6.6,20.6-9 c7.4-2,9-2.2,23.5-2.2c13.1,0,16.8,0.3,23.4,1.7c10,2.2,19.1,6,22.8,9.5c2.5,2.4,2.8,3,2.4,5.6c-0.8,3-1.9,6-3.3,8.8l-2.8,5.9 l-12.6,6.2c-6.9,3.4-12.4,6.5-12.4,6.8c0,1.2,7.8,5.6,13.6,7.5c15.5,5.2,27.6,3.8,44.9-5.3c6.3-3.3,6.5-3.5,6.1-5.9 c-2.9-16.6-3.9-22.8-5.2-34.1c-4.3-34.7-8-88.8-8.1-116c0.1-5.1-0.3-10.2-1.3-15.2c-1.9-7.6-1.6-10.8,1.4-18c0.9-2.4,2-4.8,3.2-7.1 c0.8-0.9,2.5,2.4,7.5,15.5c5.3,13.7,10,27.3,10,29.1c0,2.2-2.3,1.5-6-2l-3.6-3.3v9.1c0,13.6,3.1,67.5,5.2,89.9 c2,21.9,6.1,47.1,7.9,48.9c0.3,0.3,2.7-0.1,5.3-0.9c6.8-1.9,14.9-2.4,19.2-1.3c4.6,1.2,9.7,6.4,11.6,11.7c1.8,5.2,2.5,16.3,1.3,22 c-1.3,6.5-4.9,11.6-9.2,13.6c-3,1.3-4.2,1.5-8.3,0.8c-2.8-0.5-5.6-1.3-8.2-2.5c-4.5-2.3-11.8-9.8-15-15.4l-2.5-4.4l-9,4.7 c-13.8,7.2-20,9.1-30.2,9.1c-4.6,0.1-9.1-0.4-13.6-1.4c-7.5-2-18.5-7.7-26.7-13.8l-7.1-5.2l-4.1,2.8c-7.3,5.1-14,11.1-19.9,17.7 c-2.5,2.9-4.6,5.6-4.6,6c0,1.5,30.6,3.2,58.1,3.2c16.4,0,29.7,1,37.8,2.9c21.6,4.9,30.9,24.9,24.6,53.1c-1.7,7.6-8.6,22-14.1,29.1 c-14,18.4-34.1,32.1-54.4,36.8C247.1,432.1,231.7,432.8,224.6,431.8L224.6,431.8z
M257,409.8c24.7-6.3,51.2-25.7,59.5-43.6 c6.8-14.5-4-31.7-22.9-36.4c-7.2-1.8-20.9-2.7-47.8-3.2c-22.5-0.4-41.5-1.8-50.7-3.5l-3.5-0.7l-1.5,3.6c-2,4.7-5.2,16-6.4,22.6 c-2.4,13.4-0.4,30.9,4.7,40.4c3,5.7,10.9,13.4,16.7,16.3C219.2,412.4,239.9,414.2,257,409.8L257,409.8z
M229,397 c-4.7-1.7-6-3.7-6-9.2c0-5.3,2-11.3,5.6-17c1.3-2.1,2.4-3.9,2.4-4c-0.8-0.6-1.8-1.2-2.7-1.6c-4.7-2.5-5.7-7.1-2.9-13 c2.2-4.5,11.2-13.2,13.8-13.2c4.1,0,5,3.9,2.1,8.6l-1.7,2.8l-1.4-1.8c-1.8-2.4-4.9-1.6-7,1.8c-1.9,3-1.6,4.3,1.5,5.9 c4,2.1,7.4,1.5,11.8-2c1.6-1.2,3.1-2.5,4.5-4c0.9-1.5,2-0.9,2,1c0,3.8-3,8.4-7.8,12c-5.9,4.5-11.6,10.9-14.7,16.1 c-4.6,7.9-2.6,10.3,8.8,10.7c7.1,0.2,14.5-0.9,23.7-3.6c1.3-0.4,1.1,0-0.8,2.1c-3.3,3.5-12.5,7.8-18.8,8.8 C234.7,398.4,232.9,398.4,229,397L229,397z
M349.8,285.4c0-1.3-0.9-2.5-2.7-3.8c-3.5-2.4-7.3-3-12.3-2.1l-4,0.7l1.7,2.1 c2.7,3.5,7.8,5.6,12.9,5.3C349.5,287.4,349.8,287.3,349.8,285.4L349.8,285.4z
M245.2,251.2c2.3-1.2,4.1-2.5,3.9-3 c-0.6-1.7-6.9-3.1-15.8-3.4c-5.1-0.2-10.1,0-11.1,0.4c-1.9,0.7-1.9,0.8,1.6,3.2c1.9,1.4,5.2,3.9,7.1,5.6l3.6,3.2l3.2-2 C239.6,254.1,242.9,252.3,245.2,251.2L245.2,251.2z
M346.4,387c-0.5-6.4-2.2-18.3-3.8-26.4c-4.3-21.7-3.5-26.2,5-30.4 c2.3-1.1,4.1-2.3,4.2-2.6s-0.9-1-2-1.5c-1.8-0.8-2.3-0.6-4.9,1.8l-2.9,2.8l0.5-4.2c0.5-4.2,2.4-8.9,4.1-10s5.3-0.6,8.4,0.9 c3.3,1.7,9.7,8.2,9.7,9.9c-0.3,1.5-0.8,3-1.5,4.3c-1.4,3-1.9,3.4-6.2,4.6c-7,2-11.3,3.6-13,5.1c-1.6,1.3-1.6,1.4,0.4,8.5 c1.1,4,2.5,10.6,3.2,14.8c1.4,8.2,1.7,26.7,0.5,31.2C347.5,398.1,347.2,396.6,346.4,387L346.4,387z
M56,389.4 c-1.2-0.6-2.1-1.6-2.6-2.8c-1.4-3.6-0.9-15.5,0.8-21.7c1.5-5.3,7.1-18.3,7.6-17.7c-0.7,3.3-1.5,6.6-2.6,9.8 c-3.4,11.5-4,19.9-1.5,22.7c2.2,2.5,4.1,2.1,6.6-1.3c1.2-1.6,2.5-3.3,2.8-3.7c0.7-0.9-1.1,7-2.3,10c-0.9,2.2-4.6,5.5-6.1,5.5 C57.8,390,56.9,389.7,56,389.4L56,389.4z
M50,327.2c-2.2-2.4-3-5.7-3-12.2c0-5.6-0.2-6.4-1.7-7.2c-1.3-0.7-1.5-1.4-1.1-3 c1.1-4.7,4.6-7.9,6.1-5.6c0.4,0.6,0.5,4.5,0.3,8.7c-0.4,6.8-0.3,7.9,1.2,10.2c1,1.5,2.3,2.6,3.3,2.6c2.3,0,7.2-4.8,7.3-7.2 c-0.1-2.7-0.4-5.4-1-8.1c-0.9-5-0.9-6.5,0-8.6c0.6-1.4,1.3-2.3,1.7-2.1c0.8,0.5,3,10,3.5,15.5s2.8,8.1,6.6,8.1s4-1.6,1.1-8 c-2.8-6.2-3.3-12.9-1.3-15.7c1.1-1.5,1.2-1.4,1.7,0.9c0.3,1.3,1.6,5.5,3,9.4c2,5.7,2.3,7.8,2,11.1c-0.6,4.8-2.6,8.6-5.4,10.2 c-1.7,1-2.3,1-4.3,0c-1.6-0.9-3-2.2-4.1-3.8l-1.8-2.6l-1.6,3.2c-0.8,1.7-2,3.2-3.4,4.5c-2.4,1.7-7.3,1.6-8.8-0.1L50,327.2z
M21.8,290.2c0.3-0.4,6.7-4.5,14.2-8.9c15-8.9,25.5-15.8,30.8-20.5l3.4-3l-3.6-2.6c-4.8-3.4-6.5-6.8-5.3-11 c1.1-4.5,3.9-8.4,7.8-10.8c6.9-4.4,10.7-2.5,10.7,5.4c0,2.6-0.3,5.3-0.9,7.9c-0.9,3.6-0.9,3.6,2.2,6.2l3.1,2.7l-1.5,3.3 c-2.2,4.8-3,5.3-5.3,2.9c-0.7-0.9-1.7-1.6-2.7-2c-0.5,0-3.2,2.4-6.1,5.3c-9.5,9.8-19.7,15.9-36.9,22.3 C21.3,291.4,21.1,291.4,21.8,290.2L21.8,290.2z
M74.7,243.4c-0.7-3.5-2.1-4.7-4.6-3.7c-4.7,1.8-4.4,4.1,0.9,7.2 c2.5,1.5,2.9,1.5,3.5,0.4C74.9,246.1,75,244.7,74.7,243.4L74.7,243.4z
M105.7,253.6c-4-2.9-7.6-5.6-7.8-5.9s1-3.8,2.9-7.8 c2.4-5.2,3.8-7.3,4.8-7.3c0.8,0,4.1,1.8,7.3,4c8.3,5.7,8.7,6,8.7,8c0,2.3-6.4,14.4-7.6,14.4C113.4,259,109.7,256.5,105.7,253.6 L105.7,253.6z
M135.6,244.2c-0.6-9.9-1.1-13.8-5-34.4c-2.4-13-2.3-16.1,0.6-20.4c1.9-2.9,2.7-3.4,7.2-5.2c2.5-1,2.9-1.4,2.1-2.4 c-1.6-1.9-4.1-1.4-6.9,1.4s-3.2,2.4-1.8-4.1c0.5-2.3,1.5-4.4,2.8-6.4c0.9-0.9,1.5-2,1.9-3.2c0-1.9-4.2-13.3-6.6-17.8 s-3.2-5.3-4.2-3.8s-3.5,0.8-6.4-1.7c-1.6-1.4-2.8-3-2.8-3.7c0.5-1.8,1.2-3.6,2.2-5.2c2-3.7,2.3-3.9,4.5-3.5 c5.8,1.2,11.1,8.7,13.7,19.4c1.3,5.4,2.8,7.1,2.8,3.2s4.8-20,6.7-23c3.5-5.3,8.3-5.1,11.2,0.3c1.3,2.5,1.4,3.2,0.6,6.1 c-1.1,3.8-2.1,4.1-4.2,1.3c-0.8-1.1-2.1-1.8-3.4-2c-2.6,0-4.6,4.5-7.6,17.2c-1.3,5.7-2.6,11.2-2.9,12.1c-0.4,1.4,0.2,2.1,3.8,4.1 c4.9,2.8,9.4,7.5,9.4,9.9c-0.2,1.6-0.7,3.1-1.5,4.6c-1.4,2.7-2.1,3.1-8.6,5.1c-3.3,1-6.5,2.2-9.6,3.8l-2.5,1.6l1.2,3.9 c5.2,17.1,7.2,40.1,4.4,50.2C136.2,253.2,135.9,251.3,135.6,244.2L135.6,244.2z
M358.5,231.2c1.8-19.9,1.7-24.1-4.3-109.4 c-1.8-25.1-3.7-54.1-4.3-64.4c-0.7-11.7-1.5-20-2.3-22.1c-1-2.8-1-3.9-0.1-7.2c1.6-6.1,4.9-13.5,6-13.5s5.9,11.4,12.4,29.8 c6,16.9,5.8,19.4-1.1,12.6c-2-2-3.8-3.4-4-3.2s0.9,18.7,2.6,41c6.6,90.8,6.9,96.4,5.2,110.2c-1,8.6-3.1,17-6.3,25 C359.1,238.2,357.9,238.6,358.5,231.2L358.5,231.2z
M170.4,224.8c-2.2-3.3-1.9-15.6,0.5-23.4c2.1-6.8,6.3-16.4,6.9-15.9 c0.2,0.2-0.7,4-2.1,8.3c-1.4,4.7-2.4,9.5-2.9,14.4c-0.4,6-0.3,6.6,1.5,8.8s2,2.3,4.1,0.9c1.5-1.1,2.8-2.5,3.8-4l1.6-2.6l-0.5,3.2 c-0.8,4.5-3.6,10.7-5.3,11.6C175.3,227.7,172,227.1,170.4,224.8L170.4,224.8z
M223.1,195c-4.2-3-7.7-5.8-7.9-6.3 c-0.4-1.1,6.3-15.3,7.2-15.3c0.7,0,12.2,7.5,15.3,9.9c1.3,1.1,1.4,1.6,0.7,4c-1,3.4-6.5,13.3-7.3,13.2 C230.9,200.5,227.2,198,223.1,195L223.1,195z
M264.9,194.4c-2.1-3.2-1.9-15.6,0.4-23c2.1-6.7,6.5-16.7,7.1-16.1 c0.2,0.2-0.3,2.7-1.2,5.5c-4.7,14.5-5.4,22.3-2.2,26c1.9,2.2,1.9,2.2,4,0.8c1.5-1.1,2.8-2.5,3.8-4l1.6-2.6l-0.5,3.2 c-0.8,4.5-3.6,10.7-5.3,11.6C269.7,197.4,266.3,196.8,264.9,194.4L264.9,194.4z
M325.8,168.5c-2.3-2.6-2.6-13.8-0.5-22 c1.5-6,7-19.3,7.7-18.6c0.2,0.2-0.9,4.5-2.4,9.7c-3.4,11.7-4,16.4-2.8,20.2c1.9,5.6,5.2,5.4,9.1-0.6c2.4-3.7,2.5-3.3,1,2.3 c-1.4,5.2-3.4,9-5.3,10C330.5,170.8,327.6,170.4,325.8,168.5L325.8,168.5z
M169,165.6c1.8-1.3,9.3-5.7,16.8-9.8 c17.2-9.4,18.5-10.2,17-11.7c-1.7-1.7-12.7-2.8-25.4-2.6c-7.5,0.1-11.6-0.1-11.8-0.6c-0.4-1.3,7.1-13.2,9.4-14.9 c3.1-2.3,11.2-3.3,22.6-2.7c11.8,0.6,18.6,1.7,21.3,3.4c1.6,1,1.8,1.7,1.4,3.9c-0.6,3.8-7.8,13.9-14.9,21.2l-6,6.1l-10,3.2 c-5.5,1.8-12.3,3.8-15.2,4.5s-5.9,1.5-6.8,1.8S167.2,166.9,169,165.6L169,165.6z
M212.2,165.5c0.9-0.8,7.8-5.1,15.4-9.6 c15.5-9.1,22.4-13.8,27.9-18.8l3.8-3.4l-2.9-1.8c-5.7-3.5-7.5-8.3-5.4-14c1.2-3.2,6.1-8.1,9.7-9.7c3-1.3,3.5-1.4,5.4-0.3 c1.3,0.8,2.2,2.1,2.7,3.5c0.6,2.2-0.3,11.5-1.3,14.2c-0.3,0.8,0.5,1.9,2.4,3.1c3.3,2.2,3.5,3.8,1.1,8c-1.9,3.4-2.4,3.7-3.9,1.9 c-2.8-3.4-3.9-3.1-8.4,1.9c-8.5,9.4-20.3,16.7-37,22.9c-5.4,2-10.1,3.6-10.4,3.6S211.3,166.3,212.2,165.5L212.2,165.5z
M263.8,121.8 c0-5.4-3-7.6-6.8-4.9c-2.1,1.5-1.1,3.9,2.5,6C263.6,125.2,263.8,125.1,263.8,121.8L263.8,121.8z
M253.6,86c1.2-1,7.8-4.8,14.7-8.6 c15.8-8.6,19.5-10.9,19.5-12.3c0-2-6.7-2.9-22.4-2.9c-11.7,0-15.2-0.2-15.2-1c0-0.5,1.7-3.9,3.8-7.4c5.5-9.2,6.4-9.6,21.9-9.9 c13.2-0.3,22.3,0.7,26.8,2.8c3.6,1.7,3.5,4.3-0.6,10.8c-7.9,12.2-15.5,19.7-23,22.6c-4,1.6-25.5,7.7-26.8,7.7 C251.8,87.8,252.4,87,253.6,86L253.6,86z
M288.7,36.6c1.9-6,2.5-6.9,5.4-8c1.6-0.6,19.9-7.3,40.5-15s38-13.8,38.5-13.6 c0.7,0.2,0.6,1-0.2,3.1c-1.1,2.9-1.4,3-21.3,10.6C340.5,18,321.7,25.3,309.8,30C289.2,38.2,288.1,38.5,288.7,36.6L288.7,36.6z"/>
</svg>