<svg xmlns="http://www.w3.org/2000/svg" width="316" height="400">
<path d="M314.9,0c-0.3-0.3-43.2,15.4-78.2,28.5c-4,1.5-4.6,2-5.8,5.1c-0.6,1.4-1,2.8-1.3,4.3c0,0.5,13.1-4.3,29-10.5 s34.6-13.5,41.4-16.1c11.9-4.6,12.4-4.8,13.8-7.8C314.6,1.7,315.1,0.2,314.9,0L314.9,0z M193.7,6.2c-1.9,0-3.9,0.1-5.9,0.2 c-11.7,0.6-13.9,1.8-19.2,10.8c-2.2,3.7-3.7,6.9-3.5,7.1s6,0.4,12.7,0.3c12.2-0.1,23.5,0.9,24.9,2.3s-0.9,3-11,8.5 c-17.6,9.7-23.5,13.1-24.5,14.2c-0.7,0.9,0.9,0.7,6.5-0.8c14-3.7,24.1-7.5,27.6-10.2c8.3-6.6,20.2-23.4,19.1-26.9 C219.4,8.6,207.3,6.3,193.7,6.2L193.7,6.2z M215,25.7c-1,0-3.7,5.7-5.9,12.5c-1.3,4-1.3,4.5,0.1,9.5c1.1,4.2,1.6,10.3,2.1,29.7 c1.3,44.8,6.3,101.6,11.6,130.3c1.6,8.6,1.8,10.9,1,11.4c-12.3,6.9-24.8,12.3-38.4,11.1c-4.2-0.8-5.5-1.5-8.3-4.4 c-6.8-7.1-7.7-13.1-9.1-61.6c-1.8-60.4-3-83.5-5.3-99.6c-2.6-18-8-35.5-10.4-33.5c-1.6,1.3-4.6,11.1-4.6,15.1 c0.3,3.9,1.1,7.8,2.2,11.6c4.7,17.4,6.2,32,7.7,75.2c2.5,72.9,3.1,84.6,5.2,93.7c3.2,13.7,9.7,21.5,19.9,23.5 c5.4,1.2,11.4,0.6,16.2-0.4c6.8-1.4,16.1-5.1,24.1-9.7c3-1.7,5.7-3.2,5.9-3.3s1.7,1.8,3.1,4.4c3.7,6.5,9.8,12.7,15.4,15.5 c3,1.7,6.5,2.6,10,2.4c7,0,9.8-1.8,13-8.4c6.2-12.5,2.8-31.6-6.6-37.9c-7.6-3.3-14.5-3.3-23.3-0.7c-2.6,0.8-5,1.1-5.3,0.8 c-1.8-1.9-5.5-24.5-7.6-46.3c-2.3-24.7-6.6-100.1-5.7-101c0.2-0.2,2,1.1,4,2.9c4.5,4.1,6.2,4.4,5.5,0.7 c-1.1-5.8-14.6-41.6-16.3-43.3C215.2,25.8,215.1,25.7,215,25.7L215,25.7z M277.4,28.1c-0.9-0.1-3.1,4.6-5.6,12.2 c-1.6,4.8-1.6,5.2-0.3,9.6c0.9,3,1.6,10.1,2.1,19.8c0.8,15.2,2.9,47,7,102.4c1.6,22.4,2.2,35.6,2.2,54.2c0,13.5,0.1,24.6,0.3,24.6 c0.6,0,4.1-8.8,5.6-14.1c4.9-16.4,5.4-31.3,2.6-70.8c-1-13.4-3-40.8-4.4-60.8s-2.5-36.7-2.3-37s2.2,1,4.3,3c6.8,6.3,6.8,4,0.3-14 c-5.5-15.1-10.7-28.2-11.6-29.1C277.6,28.2,277.5,28.1,277.4,28.1L277.4,28.1z M95.1,32.5c-4.3,0-7.3,4.8-10.2,16.4 c-0.9,3.5-1.8,8-2.2,9.9c-0.7,4.3-1.4,3.6-2.8-2.7C78.1,47,72.3,38,67.4,36.8c-2.8-0.7-3.9,0.2-6.5,4.7l-2.1,3.8l2.8,2.8 c2.7,2.7,4,3.2,7.5,2.7c2-0.3,5.2,5.4,8.5,15.1l2.3,6.8L78,75c-2.3,3.1-3.6,6.8-3.6,10.7V88l2.6-2.6c2.4-2.3,3-2.5,4.8-1.8 c1.2,0.5,2.2,1.1,2.2,1.5s-1.9,1.5-4.2,2.6c-7.9,3.7-9.4,9.8-6.2,25.3c2.8,13.8,4.7,27.7,4.8,34.9c0,7.5,1.1,9.3,1.9,3.3 c1.5-11.2-0.1-29.2-4-43.4l-2.1-7.6l1.9-1.4c1.7-1.3,13.5-5.4,15.7-5.4c1.2,0,3.2-3.1,4.1-6.2c0.6-1.7,0.3-3.5-0.8-4.9 c-1.6-2.5-6.8-6.8-10.3-8.3c-1.1-0.5-2.1-0.9-2.2-1c0.2-1.1,0.5-2.3,0.9-3.3c1-3.3,1.8-6.6,2.5-9.9c1.7-8.8,3.4-13.8,5.3-16.3 s2.7-2.6,5.5,0.6c2.3,2.5,2.4,2.5,3.6,1C103.6,40.8,100.1,32.6,95.1,32.5L95.1,32.5z M124.7,66.7C124.7,66.7,124.7,66.7,124.7,66.7 c-1.8,1.7-7.4,16.2-8.4,21.7c-1.9,10-1.3,16,1.8,19.5s8.8-0.2,11-7.7c1.7-5.9,1.3-7-1.2-3.2s-5.7,4.5-7.7,1.5s-1.1-12.2,2.3-23.5 C124,70.4,124.9,66.8,124.7,66.7L124.7,66.7z M258,112c-0.9,0.4-6.9,14.4-8,18.4c-2.7,10.5-2.5,20.1,0.4,23c2.2,1.9,5.5,2,7.9,0.1 c1.8-1.5,4.9-9.3,4.9-12.3c0-1.5-0.2-1.4-1.8,0.9c-1,1.4-2.2,2.7-3.6,3.8c-1.6,1.1-1.9,1-3.9-1s-2.1-2.4-1.7-8.3 c0.6-5.2,1.7-10.3,3.2-15.3C256.4,118.3,257.3,115.2,258,112L258,112z M195.6,117.6c-0.1-0.1-1.4,2.2-2.8,5.2 c-7.1,15-9.1,30.2-4.7,35.8c2.1,2.7,5.7,2.8,8.2,0.1c1.9-2.1,4.5-8.9,4.5-11.9c0-1.5-0.2-1.4-1.4,0.7c-2,3.3-3.8,4.6-5.9,4.2 c-4.7-0.7-4.9-9.9-0.4-24.7C194.6,122,195.8,117.7,195.6,117.6L195.6,117.6z M104,118.2c-0.4,0-2.5,3.4-4.6,7.7l-3.8,7.7l2,1.3 c1.1,0.7,4.5,3.2,7.6,5.4s6.2,4.2,7,4.2c1.7,0.1,8-12,7.7-14.6c-0.2-1.1-2.8-3.4-7.7-6.7C108.1,120.4,104.4,118.2,104,118.2 L104,118.2z M52.6,120c-2.1,0.2-4.6,1.4-7.2,3.8c-4.2,3.7-6.2,7.5-6.2,11.8c0,3.7,1.8,6.4,6.1,9.1l2.9,1.8l-3.9,3.6 c-4.9,4.4-16.2,12-32.1,21.3c-6.7,4-12.2,7.5-12.2,7.8c0,0.9-0.3,1,10.5-3.1c16.8-6.3,26-11.9,35.7-21.6c3.2-3.2,6.1-5.9,6.5-5.9 c1,0.5,1.8,1.2,2.5,2c0.7,0.8,1.5,1.5,2.4,2c0.8,0,4-6.1,4-7.7c0-0.8-1.3-2.4-2.8-3.4c-1.8-1.2-2.7-2.3-2.4-3.1 c0.9-2.4,1.9-11.7,1.5-13.8C57.2,121.2,55.2,119.7,52.6,120L52.6,120z M49.1,128.6c1-0.1,2,0.3,2.7,0.9c0.5,0.5,1,2.5,1,4.4 s-0.3,3.4-0.7,3.4c-1.2,0-5.9-3.5-6.8-5c-0.7-1.1-0.6-1.7,0.7-2.6C46.9,129.1,48,128.7,49.1,128.6L49.1,128.6z M127.8,152.6 c-0.9,0.2-1.3,2.1-2.3,11l-1,8.9l2.5,2.4c1.4,1.3,2.6,2.9,2.6,3.7c0,3.2,4.2,11.6,18.2,35.9c0.7,1.2-6.6,7.3-12.2,10.3 c-8.7,4.6-13.8,5.7-22.7,5.2c-4.6-0.2-9.2-1-13.6-2.4c-6.3-2.2-12.9-5.9-13.5-7.5c-0.2-0.6,4.6-3.4,12.1-7.2l12.4-6.2l3-6.4 c4.9-10.6,4.1-13-5.7-17.6c-15.9-7.7-41.9-10.1-60.7-5.7c-7.4,1.7-16.2,4.9-20.3,7.3c-2.8,1.6-3.7,2.9-5,6.2 c-2.4,6.3-5.1,16.7-4.6,17.2c0.2,0.2,3-0.8,6.1-2.4c7-3.6,10.2-3.7,16.1-0.7c6.6,3.5,19.1,13.2,19.1,14.8c0,0.4-2.4,3.3-5.3,6.4 c-16.7,17.9-28,38-33.9,60.1c-4.2,15.7-5.1,23.1-5.1,42.8c0,16.5,0.1,18.5,1.8,24.4c8.2,28.2,31.6,43.3,71.8,46 c10.4,0.7,21.2,0.4,28.8-0.9c5.7-0.9,66.5-21.1,68.7-22.8c0.9-0.6,1.3-1.4,1-1.7s-5.7,0.1-12,0.8c-25.1,3-62.4,5-79.8,4.3 c-36-1.5-58.7-12.8-68.9-34.5c-6.8-14.4-7.3-33-1.4-51.6c6.6-20.9,22.6-45.2,38-57.8c1.9-1.7,3.9-3.2,6.1-4.6c2.5,1.6,5,3.3,7.3,5.2 c19.8,14.9,41.1,19.2,55.9,11.4c13-6.9,20.3-18.2,22.2-34.5c0.8-6.5,0.7-8.1-0.5-12.1c-1.5-5.2-6-14.5-10.9-22.4l-3.2-5.2l4.6,0.2 c3.7,0.2,4.6,0,4.9-1C148.7,170.5,129.5,152.6,127.8,152.6c0,0-0.1,0-0.1,0L127.8,152.6z M65.4,195.8c1.1,0,2.3,0,3.8,0 c8.7,0,15.2,1,17.6,2.7c1.2,0.9,0.9,1.3-3.3,3.6c-2.6,1.4-6.2,3.5-8,4.5l-3.2,1.9l-2.3-2.6c-2.2-2.1-4.5-4.1-6.9-5.9 C58.2,196.5,57.8,195.9,65.4,195.8L65.4,195.8z M251.8,230.3c2.1-0.1,4.1,0.4,5.9,1.3c4.2,1.9,6.1,4.4,4.6,6.2 c-1.4,1.6-7.7,1.4-11.6-0.4c-3.2-1.5-7.4-5.3-6.7-6.1c1.7-0.5,3.4-0.8,5.2-0.9C250.3,230.4,251.1,230.3,251.8,230.3L251.8,230.3z M198.6,277.6c-2,0.1-10.4,3-29,9.9c-16.1,6-34.4,12.7-40.8,15c-12.4,4.5-12.7,4.7-14.8,11.5c-0.4,1.5-0.3,1.8,0.5,1.5 c9.3-3.8,55.3-21.8,67-26.2c13.4-5.1,15.6-6.2,16.6-8.2c0.6-1,0.9-2.2,0.9-3.4C199.1,277.6,198.9,277.6,198.6,277.6L198.6,277.6z M97.6,281.5c-1.9,0-4.6,1.8-8.2,5.4c-9.3,9.5-10.5,17.8-3.1,20.8c1.3,0.5,2.4,1.2,2.4,1.5c-0.7,1.5-1.5,2.8-2.4,4.1 c-3.5,5-5.5,11-5.6,17.1c0,5.4,1.2,7.4,5.6,9.3c3.1,1.3,14.9,0.4,20.1-1.5c4.5-1.7,14-7.9,13.2-8.6c-0.2-0.2-3.8,0.4-7.8,1.4 c-8.9,2.1-20.6,2.5-24.5,0.9c-3.6-1.5-4.1-4.2-1.8-8.6c2.8-5.3,9.7-13.1,15.1-17.1c3.6-2.6,5.3-4.6,6.5-7.4c1.6-3.6,2.1-7,1.2-7 c-1.6,1.1-3.2,2.3-4.6,3.7c-4.8,4.3-7.2,5.4-10.2,4.7c-2.4-0.5-6.3-3.3-6.3-4.4s4.8-6.4,5.8-6.4c1,0.3,1.9,0.9,2.7,1.6l1.8,1.6 l1.7-2.7c2-3.2,2.1-5.2,0.6-7.3C99.3,281.9,98.5,281.5,97.6,281.5L97.6,281.5z M242.8,282.3c-0.8,0-1.6,0.1-2.3,0.4 c-1.9,0.8-4.5,6.3-5,11l-0.5,4.1l2.8-3c2.1-2.2,3.2-2.9,4.3-2.5c3.7,1.3,3.5,2.1-1.2,4.3c-8.1,3.9-9.5,9.4-6.2,25.6 c3.4,16.8,4.5,24,5.1,34c0.4,7.3,0.7,8.9,1.2,6.8c2.3-10.5,1.3-26.7-2.5-42.2c-1.3-5.2-2.5-9.9-2.8-10.6c-0.7-1.7,4.3-4.4,12.2-6.6 c5.6-1.6,6.3-2,8-5c2.4-4.2,2.3-5.4-0.8-8.9C251,285.1,246.4,282.4,242.8,282.3L242.8,282.3z M192.6,311c-3.8,0.3-7.9,4.2-7.9,9 c0,1.9,0,2,2.4,0.8c5.3-2.6,8,1.5,4.9,7.4c-1.7,2.9-3.7,5.6-5.9,8c-2.2,2.6-4.6,5.4-5.3,6.2c-2.8,3.4,2.8-0.6,7.7-5.6 c8.5-8.5,12.5-20.1,8.2-24.3C195.7,311.4,194.2,310.9,192.6,311L192.6,311z"/>
</svg>