<svg xmlns="http://www.w3.org/2000/svg" width="284" height="285">
<path d="M6,283.3c0.4-0.4,3.5-2.4,6.8-4.6c4.5-3.1,8.7-6.7,12.4-10.7c18.7-20,24.3-24.1,33.6-24.1h4.9l5.6-5.7 c6.2-6.3,10.2-8.7,14.3-8.7c3.8,0,5.3,1.7,5.3,6.1c0,10-11.3,18.5-24,18c-13.8-0.6-14.5-0.5-20,2.4c-3.6,1.9-8.4,5.9-16,13.2 c-11.5,11.1-12.4,11.7-18.2,13.5C6.2,284.1,4.9,284.2,6,283.3L6,283.3z M80.4,241.6c2.8-1.3,5.2-2.9,5.2-3.6s-1.1-1.6-2.4-2.1 c-3.3-1.4-8,0.5-13.2,5.2l-4,3.6l4.7-0.4C74,244,77.3,243.1,80.4,241.6L80.4,241.6z M122.6,279.9c-13.3-2.4-22.9-9.9-26.1-20.2 c-1.5-5-1.2-23.9,0.5-28.9l1.3-4l-2.2-1.6c-8.1-6-13.2-13.2-14.3-20.3c-0.3-1.8-0.8-3.3-1-3.3s-2.1,2.4-4.1,5.3 c-4.9,7.3-13.3,15.7-18.3,18.2c-9.1,4.6-18.5,5.4-27.5,2.4c-7.5-2.6-13.3-10.9-16-23.1c-1.7-7.9-2.8-23.9-4.1-66.4 c-1.6-47.3-2.6-68.4-4-78.7C5.6,51,2,34.1,0.7,30.6c-1.3-3.4-0.8-9.6,1.2-15.1c0.7-2.1,1.6-4.2,2.7-6.1c2.1-2.1,7,13.1,9.6,29.4 c2.9,18.3,4.1,38.7,5.7,94.8c1.2,43.4,2,54.7,3.9,60.7c3.3,10.5,8.5,14.7,18.4,14.7c12,0,20.1-4.1,33.5-17.1 c5.3-5.2,10.1-9.4,10.5-9.4c1.1,0,1.8,2,1.8,5.4c0,4.1,2.7,9.1,7.1,13.2c3.4,3.2,10.3,7.5,10.9,6.8c0.1-0.1,1.8-2.8,3.6-5.9 c8.4-13.9,21.7-32.5,27.2-38.3c17.3-18.1,33.4-22.3,50.7-13.1c6.5,3.5,16.4,13.3,19.2,19.2s2.9,10.3,0,18.6 c-4.9,14.2-9.3,19.7-22.4,27.6c-19.4,11.7-36.4,16.8-56,16.9c-8,0-10.7-0.3-16-1.9c-3.5-1.1-7-2.2-7.7-2.5c-1-0.4-1.6,0.4-2.6,4.1 c-1.6,5.9-1.7,8.5,0,13.2c3.7,10.8,20.5,16.4,42.9,14.4c6-0.6,11.9-1.6,17.7-3c9.3-2.4,44.8-16.4,50.3-19.8 c5.2-3.3,10.6-9.5,12.1-14c2.1-6.2,1.8-14.6-3.9-93.4c-1.1-15-2.4-35.3-2.8-45.2c-0.5-10.4-1.4-19.7-2-22.1c-0.6-2-1-4.1-1.1-6.2 c0-2.4,5.5-17.3,6.4-17.3c1.3,0,15.9,38.2,16.6,43.4c0.6,4.1-1.2,4-5.4-0.3c-1.8-1.8-3.4-3.1-3.6-2.9s0.3,10.4,1.2,22.7 c2.7,36.7,5.5,77.6,6.1,88.3c1,17.7-1.7,32.2-8.4,46.1c-4.3,8.9-10.6,16.5-16.3,19.9c-10.1,5.9-46.4,19.6-59.8,22.5 C144.8,280.3,128.4,280.9,122.6,279.9L122.6,279.9z M142.9,212.7c15.5-2.3,30.4-7.2,44.3-14.5c9.8-5.2,14.4-8.6,14.4-10.4 c0-2.2-6.4-8.7-13.3-13.4c-19.9-13.7-37.1-11.4-56,7.6c-6.4,6.4-20.4,25.4-20.4,27.6c0,0.9,2.1,1.6,9.2,2.9 C128.3,213.7,135.6,213.8,142.9,212.7L142.9,212.7z M262.9,240.5c0.5-18.9,0.2-24.7-5.7-108.9c-1.6-21.9-3.2-46.6-3.6-54.9 c-0.5-10.2-1.2-16.5-2.1-19.5c-1.4-4.3-1.4-4.5,0.5-9.8c2.9-8.7,4.8-12.6,5.6-11.8c1,1,10.8,26.1,14.3,36.5c3.6,10.8,3,12.1-2.9,6.6 c-2.2-2.1-4.2-3.4-4.4-3.1s1.2,21.9,3.1,47.8c5.7,77.5,6.2,87.1,5.2,97.6c-1,10.3-1.8,14.9-4.2,23.1c-1.7,5.9-5.1,14-5.8,14 C262.6,258.3,262.6,250.3,262.9,240.5L262.9,240.5z M45.2,175c-12.2-4.6-19.8-19.1-18.4-35.1c1-11.1,4.8-23.6,12-38.9 c4.1-8.8,6-11.4,6-8.6c0,0.8-2.5,8.8-5.6,17.8c-8,23.4-9.4,31.6-6.8,39.5s9.8,11.9,17.7,10.2c10.5-2.4,16.1-6.9,39.7-32.3 c26.2-28.2,40-39.2,56.3-45.3c6.2-2.3,8-2.6,15.4-2.7c7.2-0.1,8.9,0.2,11.7,1.7c4.3,2.3,8,6.6,9.2,10.7c1.2,3.9-0.1,13.6-2.2,17.8 l-1.2,2.5l-1.3-2c-5.3-8.1-10-10.8-18.9-10.8c-7.8,0-14.3,2.1-23.5,7.4c-10.9,6.3-20.8,15.3-39.9,36.2c-19.6,21.5-25.2,26.6-32,30 C58.3,175.6,49.4,176.5,45.2,175L45.2,175z M128.7,148.7c-2.4-1.8-6-4.3-8.1-5.7l-3.7-2.4l3.2-7c1.2-2.8,2.6-5.5,4.2-8 c0.9-0.9,2.3-0.2,8.5,4c4.1,2.8,7.8,5.7,8.3,6.4c0.7,1.1,0.1,2.9-2.7,8.4c-2,3.8-4,7.1-4.4,7.2S131.1,150.4,128.7,148.7L128.7,148.7 z M58.6,139.4c-3.6-1.4-4.6-13.2-1.9-23.5c1.5-5.7,7-18.9,7.6-18.2c0.2,0.2-1,4.6-2.5,9.9c-3.4,11.5-3.9,19.2-1.5,21.9 c0.7,0.9,1.8,1.5,2.9,1.7c1.5,0,6.4-5,6.4-6.6c0-0.5,0.2-0.7,0.4-0.5c0.6,0.6-1.2,7.8-3,11.2C65,139.3,62,140.8,58.6,139.4 L58.6,139.4z M60.6,83.3c-2.4-2.8-3-5-3-11.3c0-5.5-0.2-6.7-1.6-7.8c-0.9-0.7-1.4-1.8-1.6-2.9c0-2.5,3.2-6.9,5-6.9 c1.6,0,1.6,0.3,1.2,7.3c-0.5,8.1,0.2,11.7,2.6,13.9c1.5,1.4,1.8,1.4,4.4,0.1c1.8-0.9,3.2-2.4,4.1-4.2c1.3-2.6,1.3-3.3,0-9.7 s-1.2-7.1-0.1-9.3c1-2,1.4-2.2,2-1.2c1.2,2.1,3.1,11.2,3.1,14.8c0,6.1,6.5,10.8,9.7,7c0.9-1.1,0.6-2.1-1.6-6.5 c-3.3-6.8-4-11.8-2-15.5l1.4-2.7l0.6,3.2c0.8,3.4,1.8,6.7,3.1,9.9c2.6,7.1,2.7,10.1,0.4,15.7c-2.9,7.2-9.4,7-13.2-0.3 c-1-1.9-1-1.9-2.4,1.3C70.2,84,63.6,86.8,60.6,83.3L60.6,83.3z M132,70c-1.8-1.9-2-3-2.4-10.1c-0.3-6.5-0.7-8.2-1.8-8.8 c-2-1.1-1.7-4.2,0.7-7c3.8-4.5,4.4-3.5,4.2,6.3c-0.2,7.8-0.1,9,1.4,11c2.4,3.3,4.6,3.3,7.9,0s3.4-5,1.6-13.3c-1-4.5-1-5.5,0.1-8 s1.3-2.6,1.9-1.5c1.2,2,3.1,11.2,3.1,14.5s1.8,7.3,3.6,8.1c2.3,0.9,4.9,0.5,6-0.8c0.9-1,0.6-2.1-1.5-6.5c-3.1-6.2-3.9-11.3-2.5-14.7 c1.1-2.7,2.4-3.2,2.4-0.9c0,0.8,1.3,5.1,2.9,9.4c2.2,6.2,2.8,8.6,2.4,11.1c-0.8,5.2-3.3,10-5.6,10.8c-3,1.1-7.1-0.8-8.5-3.9 s-1.9-3.2-2.9-0.4c-1.4,4.1-3.6,5.9-7.4,6.4C134.5,72,133.8,71.8,132,70L132,70z M26,59.2c0.3-0.4,6.7-4.5,14.2-8.9 c17-10,26.4-16.4,30.6-20.7c3-3.1,3.1-3.4,1.7-4.2c-1.6-1-3.1-2.2-4.5-3.5c-2.6-2.4-2.8-3-2.8-6.6c0.1-5.1,3-9.7,8.1-13 C80.3-2.1,84-0.2,84,7.8c0,2.7-0.3,5.3-0.9,7.9l-0.9,3.6l3.1,2.6l3.1,2.6l-1.5,3.3c-2,4.3-3.1,5.3-4.5,3.7 c-2.9-3.5-3.8-3.2-10.6,3.4C61.2,45.1,53.1,50,35.9,56.4C25.4,60.3,25.2,60.4,26,59.2L26,59.2z M78.8,12.3c-0.8-4.1-3.7-5-7-2.2 c-1.8,1.6-1.1,3.1,2.8,5.4c2.9,1.7,3.4,1.8,4,0.7C79.1,15,79.1,13.6,78.8,12.3L78.8,12.3z M106.3,42.3c0.6-1.7,1.3-3.3,2.2-4.8 c1.2-1,81.9-30.5,82.3-30.1c0.2,0.2-0.3,1.8-1.2,3.5c-1.5,3-2,3.3-15.1,8.2c-10,3.8-59.2,23.1-68.9,27 C105,46.4,105.2,45.2,106.3,42.3L106.3,42.3z M197.2,39c0.5-1.6,1.2-3.1,1.9-4.6c1.2-2.6,2.2-3,23.3-10.8l41-15.2 c10.5-3.9,19.2-6.9,19.4-6.7c0.9,0.9-2.8,7-4.5,7.5c-4.8,1.5-69.1,26.5-80.6,31.3C196.8,40.8,196.7,40.5,197.2,39L197.2,39z"/>
</svg>