<svg xmlns="http://www.w3.org/2000/svg" width="379" height="408">
<path d="M377.3,0C377-0.2,363,4.7,346.2,11s-35.3,13.1-41,15.2c-10,3.7-10.4,3.9-11.8,6.9c-0.7,1.4-1.1,2.9-1.4,4.4 c0,1.1,2.5,0.3,13-3.9c7.1-2.9,25.8-10.2,41.4-16.2c28.3-10.9,28.4-11,29.9-14C377,1.8,377.5,0.2,377.3,0z M261.9,19.2 c-1.2,0.2-9.9,3.1-20.1,6.9l-40.6,15c-11.4,4.2-21.1,7.9-21.4,8.2c-0.9,1.5-1.7,3.1-2.2,4.8c-1.1,3-1.3,4.1-0.6,3.8 c11.5-4.9,75.8-29.9,80.5-31.3c1.7-0.6,5.5-6.6,4.7-7.4C262,19.2,262,19.2,261.9,19.2L261.9,19.2z M282.3,26.9 c-0.8,0-6.4,14.9-6.4,17.1c0.2,2.2,0.6,4.4,1.1,6.6c0.9,5.2,1.5,10.6,1.6,15.9c0.6,13.9,2.3,39.6,4.4,68.4 c5.5,75.2,5.4,81.7-0.6,85.9c-4.4,3.1-9.5,5.1-14.9,5.9c-5.8,0.6-9.4-1.2-12.3-6c-1.9-3.3-2.2-4.4-2.1-10.3c0.1-6.1,0-6.6-1.4-6.6 c-0.9,0-5.6,3.7-11.1,9c-14.4,13.6-20.6,17.2-32.9,19.1c-13.6,2.1-20.9-1.6-24.7-12.5c-2.4-6.7-3-13.7-3.9-43.6 c-2.7-88.7-4-106.8-8.9-126.8c-1.9-8-5.5-16.6-6.6-16.2s-2.7,3.6-4.3,9.6c-1.5,5.7-1.6,4.4,2.5,21.8c4.3,18.3,5.3,30.3,7.3,92.4 c1.8,55.7,2.8,67.8,6.1,77.5c3.3,9.5,8.6,15.2,16.5,17.4c5.9,1.7,17.1,0.9,23.2-1.6c7.2-2.9,14.2-8.2,20.9-15.9 c9.8-11.1,10.2-11.3,11.2-3.6c0.9,6.7,3.3,11.3,7.2,13.9c3.1,2,4.1,2.3,10.3,2.3c8.3,0,11.5-1.4,17-7.1c11.8-12.3,17-35.2,15-67.3 c-0.9-14.2-3.6-53.8-6.1-87.5c-0.7-9.4-1.1-17.2-0.9-17.4s2,1.3,4.1,3.2s4.2,3.6,4.6,3.6c1.8,0-0.2-7.4-6.9-25 C284,29.3,283,27,282.3,26.9L282.3,26.9z M319.2,33.5c-1.1,0.4-5.6,11-6.2,15.2c-0.2,1.9-0.1,3.8,0.5,5.6c0.5,1.5,1.5,11.1,2.1,21.4 s2.6,39.3,4.3,64.4c6,86.3,6.3,93,4.3,111c-0.3,3-0.2,4.6,0.3,4.6c1.2,0,5.3-10.3,7.3-18c4.4-17.4,4.3-28.1-1.5-107.2 c-2.2-30.4-4-55.9-4-56.7c0-1.2,0.8-0.7,4,2.2c4.5,4.2,5.6,4.6,5.6,1.7c0-3.8-14.9-43.7-16.6-44.2C319.3,33.5,319.3,33.5,319.2,33.5 L319.2,33.5z M36,47c-0.8,0.1-1.5,0.3-2.1,0.8c-4,2.1-7.1,10.1-10.5,27.1c-0.5,2.6-0.9,2-2.6-4.4C16.7,54.5,7.3,46.8,2.5,55.3 c-0.9,1.5-1.5,3.2-1.8,4.9c0,3.3,7.7,7.5,9.2,5c0.3-0.4,0.9-0.6,1.4-0.3c1.2,0.8,6.7,12.7,8.2,18.2c1.3,4.6,1.3,4.7-0.4,6.5 c-1.9,2-4,8.2-4,11.5v2l2.6-2.6c2.9-2.8,4.2-3.1,6.4-1.4c1.4,1,1.1,1.3-3.2,3.4c-3.8,1.8-5,2.9-6.4,5.8c-2.3,4.6-2.3,7.8,0.2,20.5 c3,15.1,4.2,23.7,4.8,33.6c0.5,7.4,0.7,8.4,1.3,6c1-4.1,1-21.8-0.1-29.2c-0.9-6-4.1-19.9-5.3-23c-0.9-2.2,4.7-5.1,15.5-7.8 c3-0.8,3.7-1.3,5.1-4.5s1.5-4,0.6-6c-1-2.5-7.6-8-11.2-9.3c-2.1-0.8-2.1-0.8-1-4.1c0.6-1.8,2-7.4,3.1-12.4c2-9.6,4.6-15.5,6.9-15.5 c1.3,0.3,2.4,1,3.2,2c2.6,2.8,3.8,2.5,4.9-1.2c0.8-2.7,0.7-3.5-0.6-5.8c-0.9-1.5-2.1-2.8-3.6-3.8C37.6,47.3,36.8,47,36,47z M238.2,51.3l-1.7,2c-2.4,2.8-1.7,9.2,1.7,16l2.6,5.1l-1.8,1.4c-2.4,2-3.8,1.8-6.3-0.8c-1.8-1.8-2.3-3.1-2.8-7.8 c-0.6-6.2-2.6-14-3.7-14c-0.4,0-1.1,1.1-1.6,2.4c-0.8,1.9-0.7,3.4,0.4,8.4c1.6,7.2,1.1,10.1-2.1,12.8s-6.2,2.4-8-1.2 c-1.2-2.3-1.3-4.1-0.9-10.5c0.6-9.1-0.2-10.5-3.9-6.5c-2.4,2.7-3.1,6.8-1.2,7.5c0.8,0.3,1.2,2.6,1.5,7.5c0.4,7.8,2,11.9,4.9,13 c2.4,1,2.7,1,5.8-0.3c1.9-0.8,3.3-2.3,4.6-4.9l1.9-3.8l1.7,2.9c3.5,6,8.9,5.9,12-0.3c2.5-5,2.4-10.4-0.6-18.4 c-1.1-2.8-1.9-5.7-2.4-8.7L238.2,51.3z M123.5,63.9c-0.8,0.2-6,11.7-7.8,17.5c-2.4,7.7-2.6,20-0.4,23.3c1.1,1.7,2.1,2.2,4.2,2.2 c4.5,0,7.6-4.3,8.7-12.1c0.4-2.9,0.4-3.2-0.4-1.9c-1.5,2.6-5,6-6,6c-0.6,0-1.7-1-2.7-2.1c-2.9-3.7-1.8-13.5,3.1-27.8 C123.2,66.4,123.8,64.1,123.5,63.9L123.5,63.9L123.5,63.9z M81.5,86.1c-3,0-9.1,4.1-11.2,7.6c-4.3,6.9-3.4,12.3,2.5,16.2 c1.9,1.2,3.6,2.3,3.8,2.5c0.6,0.5-6.5,6.4-13.5,11.2c-3.7,2.6-13,8.3-20.5,12.8s-14,8.5-14.2,8.9c-0.7,1.1-0.9,1.2,9.8-2.8 c17.1-6.3,27.4-12.5,37-22.3c2.8-2.9,5.5-5.3,5.9-5.3c1.1,0.5,2.1,1.2,2.9,2.1l2.2,2.1l1.7-2.7c2.6-4.2,3-6.4,1.2-7.6 c-4.7-3.1-4.7-3-3.7-6.9c0.6-2.7,0.9-5.5,0.9-8.2C86.3,88.3,84.9,86.1,81.5,86.1L81.5,86.1z M77.6,94.5c1.1-0.1,2.1,0.4,2.6,1.3 c0.7,1.2,1.2,2.5,1.2,3.8c0,3.5-1,4.1-3.6,2.5c-1.4-0.9-2.6-1.9-3.8-3.1c-1.3-1.5-1.3-1.6,0-2.8C75,95.4,76.3,94.7,77.6,94.5 L77.6,94.5z M238,107.2c-0.8,0.3-5.8,11.9-7.2,16.5c-1.6,5.3-2.5,15.5-1.7,19.5c0.3,1.7,1,3.2,2.1,4.5c4.6,4.6,10.7-0.8,12.2-10.8 c0.4-2.7,0.4-3-0.5-1.7c-2.8,4.1-4.1,5.3-5.8,5.3c-5.2,0-5.8-8.6-1.6-23.2C237.1,111.9,238.2,107.3,238,107.2 C237.9,107,238.1,107.2,238,107.2L238,107.2z M129.3,118.9c-1,0-7.8,12.7-7.8,14.7c0,0.6,3.1,3.1,6.8,5.7c2.5,1.6,5,3.4,7.2,5.4 c0.5,0.5,1.1,0.8,1.8,0.7c1.6,0,8.5-12.6,8-14.9C145.1,129,131.1,118.9,129.3,118.9L129.3,118.9z M125.7,157.5 c-2-0.1-3.4,0.4-6.2,1.8c-9.2,4.5-16.4,17.6-16.4,29.8c0,9.1,2.7,14.1,9.2,17.1c4.1,1.9,6.9,1.9,18.1-0.1c9.5-1.6,11.4-1.5,16.6,1.1 c1.4,0.8,2.8,1.2,3,0.9c1.1-1.1-6.3-14.8-9.6-18c-2.8-2.6-6.2-3.1-14.3-2c-8.3,1.1-11.5,0.5-12.3-2.7c-0.3-1.1-0.2-2.3,0.2-3.3 c3.3-5.2,11.8-6.1,19.9-2.1c11.9,5.8,22.8,22.4,22.8,34.8c0,3.5-0.2,3.8-4.2,6.8c-16.1,8.8-37.8,17.9-55.2,16.3 c-9.1-0.8-25.4-7.3-25.4-10.2c0-0.4,5.6-3.6,12.3-7l12.3-6.1l2.8-6.1c4.3-9.3,4.4-10.7,1-13.9c-8.3-7.8-35.2-13.6-54.5-11.7 c-16.9,1.6-35,8.2-37.2,13.6c-2.3,5.7-5.6,18-5,18.6c0.4,0.4,3.1-0.6,6.2-2.1c6.8-3.5,9.8-3.6,16-0.5c5,2.5,17.8,12.3,18.5,14.1 c0.2,0.6-1.9,3.6-5,6.9c-25.7,28-37.9,58.9-39.2,99.5c-0.3,11.3-0.2,16,0.9,21.9c5.6,32,29.9,49.2,73.6,52.1 c21.2,1.4,27.2,0.3,62-11.2c30.3-10,36.1-12.2,36.1-13.5c0-1.1-2.7-1-13.3,0.4c-23.7,3.1-73.4,5.2-87.9,3.7c-13.1-1.4-24.3-4.4-34-9 c-7.3-3.5-9.3-5-15.3-11c-10.5-10.5-14.6-20.3-15.6-37.3c-1.3-22.5,9.8-50.2,29.5-73.6c5.2-6.2,16-16.3,18.2-17.1 c0.4-0.1,3.9,2.1,7.8,5.1c11.5,8.7,23.4,13.7,35.7,15.2c21.7,1.7,50.1-12.4,60.2-28.7c9.7-16.5,6.9-40.3-6.7-57.2 c-7.2-9-14.4-13.6-23.1-14.8C127.2,157.6,126.4,157.5,125.7,157.5L125.7,157.5z M229.9,164.5c-0.6,0-2.8,3.2-4.9,7.4l-3.7,7.4 l1.9,1.4l7.9,5.7c3.3,2.4,6.4,4.4,6.9,4.4c1.6,0.1,8.8-14.5,7.9-16C245.1,173.6,231,164.5,229.9,164.5L229.9,164.5z M51.9,203.7 c5.4-0.1,13,0.2,15.9,0.8c1.9,0.3,3.6,1,5.3,1.9c1.2,0.9,0.9,1.3-3.3,3.6c-2.6,1.4-6.2,3.5-8.1,4.6c-2.7,1.6-3.5,1.7-3.8,0.8 c-0.2-0.6-3.1-3.2-6.4-5.8s-5.7-4.9-5.5-5.3S48.6,203.8,51.9,203.7L51.9,203.7z M177.2,261.4c-0.2,0-0.5,0-0.7,0.1 c-1,0.2-14.6,5.2-30.2,11S113,284.9,107,287.1l-10.9,4l-1.7,3.9c-0.6,1.4-1.2,2.8-1.7,4.3c0,0.8,0.3,0.6,18.2-6.5 c9.6-3.8,28-11,41-15.9c20.3-7.8,23.8-9.4,25-11.3C178.6,262.9,178.7,261.4,177.2,261.4L177.2,261.4z M61.2,275.9 c-0.4,0-0.7,0.1-1.1,0.2c-2.5,0.6-5.8,3.3-9.5,7.8c-6.2,7.4-7.1,12.9-2.8,16.8c1.4,1.3,3.1,2.3,3.8,2.3c1.6,0,1.6,0.2-1.5,5 c-7.6,11.9-8,22.8-1,25.8c3,1.3,11.5,1.5,16.5,0.3c2.6-0.7,5.2-1.6,7.6-2.8c4.1-1.9,10.5-6.7,9.8-7.3c-0.2-0.2-3.5,0.5-7.4,1.4 c-5,1.2-10,1.8-15.1,1.8c-8.4,0.1-10.8-0.6-12.5-3.6c-1.9-3.6,6.8-15.8,17-23.6c5-3.9,7-7.2,7-11.5V286l-4.2,3.5 c-5.6,4.7-7.5,5.6-10.5,5c-2.8-0.5-6-3.1-6-4.8c0-1.3,4.3-6,5.5-6c1,0.3,1.9,0.9,2.5,1.6c1.6,1.6,1.7,1.6,2.8,0.2 c2.6-3.4,3-5.7,1.6-7.9C62.7,276.4,62.1,275.9,61.2,275.9L61.2,275.9z"/>
</svg>