<svg xmlns="http://www.w3.org/2000/svg" width="279" height="338">
<path d="M37.9,336.6c-8.8-2-18-11.5-21.7-22.4c-4.9-14.5-2-39.1,7.5-62.4c0.4-1-0.3-1.5-3.2-2.2c-7.5-1.9-13.4-7.2-17.5-15.9 c-6.1-13.1-2.9-33.7,9.3-58.6c6.8-13.9,6.9-10.2,0.3,8.9s-8,25.4-7.6,34c0.3,5.9,0.7,7.2,2.7,10c3.4,4.9,6.8,6.4,13.1,6.1 c10.9-0.6,17-5.2,41.6-31.6C82.6,181,86.8,177,97.7,168.8c21.2-15.9,43.2-19.9,53.9-9.8c3.5,3.4,4.5,6,4.5,12 c0,7.4-3.2,17.9-4.5,14.7s-5.9-8-9.8-10c-7.1-3.6-16.5-2.7-27.9,2.6c-12.8,6-24.4,16.1-48.8,42.8c-10.9,11.9-19.5,20.6-22.5,22.7 c-4.7,3.3-12.1,6.5-15,6.5c-1.1,0-1.9,1.9-4,10.2c-5.1,19.7-5.9,28.2-3.8,36.6c3.1,12.2,12.3,19.1,26.8,20.1 c12.3,0.9,27.4-4.8,45.6-17c12.3-8.2,18.6-13.4,29.6-24.4c10.5-10.5,12.6-14.1,11.4-18.9c-0.4-1.8-1.2-3-1.8-2.8 c-5.2,1.2-18.1,1.7-23.6,0.9c-13.3-1.8-18.1-7.3-16.9-19.5c1.2-13.3,11.2-26,21.5-27.4c7.8-1.1,17.1,6.5,24.4,19.9 c1.6,3,3.4,5.4,4,5.4c1.5,0,9.7-4.2,19.4-10.1c11.1-6.7,11.5-6.6,10.9,0.3c-0.5,6.1,0.6,9.6,4.1,13.3c6.9,7.2,18.5,7.2,29.1-0.1 c3.1-2.1,3.8-3.1,4.6-6.7c1.1-4.5,0.7-23.1-0.8-43.8c-3.6-48-7.2-103-7.2-110c-0.1-3.2-0.5-6.5-1.3-9.6c-0.7-2.2-1.1-4.6-1.2-6.9 c0.1-2.8,5.2-16.1,6.3-16.5s3.5,5.6,10.9,25.4c7.9,21.1,7.9,24.5,0.3,17l-3.9-3.7v2.8c0,1.5,0.5,9.6,1.2,18c1.3,17.6,4,54.9,5.3,74 c1.8,26.9,0.9,43.9-3,57.6c-1.9,6.6-7.2,16.3-11.4,20.8c-5.3,5.6-10,7.6-18.3,7.5c-13.7-0.2-21.8-7.2-21.8-18.8 c0-2.5-0.2-4.6-0.6-4.6c-2.7,1.4-5.3,3-7.8,4.7c-4,2.6-9,5.6-11.1,6.6c-3.5,1.7-3.8,2.1-3.8,4.7c0,6-4.7,19-9.5,26.4 c-3.7,5.7-19.4,21.9-28.9,29.9c-14.9,12.5-31.9,22.3-43.2,25C53.5,337.7,43.1,337.9,37.9,336.6L37.9,336.6z M121.9,236 c1.3-0.5,0.9-1.1-2.6-4.4c-4.5-4.2-6.9-5.4-11.1-5.3c-4.7,0-6.9,1.6-6.9,4.8c0,4.1,3.4,5.6,12.4,5.5 C116.4,236.7,119.2,236.5,121.9,236L121.9,236z M156.2,305.4c8.3-9.8,10.8-13.9,9.9-16.8c-0.6-2-3.9-2.8-6.6-1.6 c-2.8,1.3-3.1,0.7-1.5-3.5c1.7-4.3,3.8-6,7.7-6c3.6,0,4.8,1.4,5.3,6c0.6,5.6-3.2,12.9-10.6,20.2C153.6,310.4,151,311.5,156.2,305.4 L156.2,305.4z M208.9,294.5c0.3-0.9,0.9-1.7,1.7-2.3c3-2.7,9.5-11.3,10.6-14c1.6-3.8,0.5-6.3-2.8-6.3c-1.4,0-2.7,0.3-4,0.8 c-1.8,1-2-0.2-0.7-3.8c1.5-4,3.9-5.9,7.6-5.9s4.9,1,5.6,4.7c1.1,5.6-5.1,17.3-12.3,23C209.1,295.2,208.9,295.3,208.9,294.5 L208.9,294.5z M67,286.1c-5.6-4.3-3-24.2,5.3-39.4c1.9-3.5,1.7-2.2-1.4,8.5c-3.5,12-3.8,18.7-0.9,22c1.6,1.9,2.1,2,3.6,1.2 c1.5-1.1,2.8-2.4,3.8-3.9l2.1-3l-0.6,3.2c-0.8,4.5-3.6,10.7-5.3,11.6C71.5,287.4,69,287.3,67,286.1L67,286.1z M241.3,256.6 c1.4-17.2,0.9-29.6-4.6-107.5c-1.3-18.9-3.1-45.4-3.9-58.8s-1.9-25.6-2.5-27c-0.6-1.8-0.7-3.7-0.6-5.6c0.5-3.6,5.3-16.1,6.1-16.1 s4.1,8,10.8,25.7c7.7,20.8,7.9,24.3,0.8,17.3c-1.9-1.8-3.6-3.1-3.9-2.8s1.4,26.3,3.6,57.9c5,69.8,5.5,82.1,3.7,94.5 c-1.4,9.6-4.1,19.8-6.8,26C241.2,266.6,240.6,265.9,241.3,256.6L241.3,256.6z M144.7,210.5c-4.3-2.9-7.8-5.8-7.8-6.3 c-0.1-2,6.8-14.6,7.9-14.6c1.4,0,12.9,7.4,14.9,9.6c0.9,1,1.3,2.4,0.9,3.8c-0.6,2.7-6.1,12.4-7.2,12.7 C152.8,215.7,148.9,213.4,144.7,210.5z M54.5,176.8c-1.1-1.3-1.8-2.9-2.1-4.5c-0.8-4.1,0.1-14.2,1.7-19.5c1.4-4.8,6.8-17,7.3-16.5 c0.2,0.2-1,4.8-2.6,10.2c-3.3,11.4-3.8,17.8-1.7,21s4.9,2.9,7.5-1.1c0.7-1.2,1.5-2.2,2.4-3.2c0.6,0-0.7,5.9-1.9,8.8 C62.6,178,57.9,180.2,54.5,176.8L54.5,176.8z M133.8,146.6c-2.9-2-4.1-5.9-4.1-13.1c0-5-0.3-6.6-1.2-6.9c-0.8-0.5-1.3-1.5-1.2-2.4 c0-3.6,3.9-8.6,5.5-7c0.3,0.3,0.5,4.6,0.5,9.5c0,7.8,0.2,9.3,1.5,10.7c2.8,3.1,7.7,1.4,9.7-3.4c0.9-2.1,0.8-3.6-0.2-9.1 c-1.3-6.7-0.9-10.5,1.1-11.2c1-0.3,3.5,8.7,3.5,12.7c0,5,1.5,8.6,4.1,9.9c1.9,1,2.9,1.1,4.4,0.4c2.4-1.1,2.4-2.1-0.5-8.2 c-2.5-5.4-3.2-12-1.6-15.2c1-2,2.4-1.2,2.4,1.3c0,1,1.1,4.9,2.5,8.6c2.8,7.6,2.9,12.7,0.2,17.9c-2.9,5.7-8.8,5.7-11.9,0l-1.7-3.1 l-1.8,3.8c-1.3,2.7-2.6,4.1-4.5,4.9C137,148.2,136,148.2,133.8,146.6L133.8,146.6z M19.2,132.3c0-0.2,6.2-4,13.8-8.5 s16-9.6,18.6-11.3c5.6-3.7,15.6-11.7,15.6-12.4c0-0.3-1.4-1.4-3.2-2.5c-6-3.7-7.2-10-3.2-16.5c3.4-5.5,12.5-9.5,15-6.5 c1.6,1.9,1.9,6.6,0.7,12.2l-1.2,5.6l2.8,2.4c1.5,1.3,2.8,2.9,2.8,3.4c0,1.2-3.1,7.4-3.7,7.4c-1.1-0.5-2.1-1.2-3-2l-2.6-2l-5.4,5.5 c-9.6,9.8-20.5,16.6-36.3,22.3C21.2,132.5,19.3,133.1,19.2,132.3L19.2,132.3z M72.1,87.5c0-5.5-2.5-7.3-6.2-4.7 c-2.5,1.8-2.2,3.2,1.2,5.5C71.1,91.1,72,90.9,72.1,87.5L72.1,87.5z M84.5,129.5c0.3-0.4,7.4-4.9,15.8-9.9s17.5-10.6,20.1-12.4 c5.1-3.6,12.5-9.8,12.5-10.4c-0.8-0.8-1.8-1.5-2.9-2c-4.3-2.3-5.9-4.8-5.9-9.2c0-9,12.2-18.8,17.2-13.8c1.1,1.1,1.3,2.5,0.9,8.2 c-0.1,2.8-0.4,5.7-0.9,8.4c-0.4,1.2,0.2,2,2.3,3.4c1.6,1,2.8,2.4,2.8,3c0,1.6-3,7.6-3.8,7.5c-0.9-0.4-1.8-0.9-2.6-1.6 c-0.8-0.7-1.8-1.3-2.8-1.6c-0.4,0-3.1,2.4-6,5.3c-9.2,9.4-20,16.1-35,21.6C86,129.7,83.9,130.3,84.5,129.5L84.5,129.5z M137.7,84.4 c-0.1-1.6-0.6-3.2-1.6-4.6c-1.5-1.8-1.7-1.8-3.8-0.7c-3.4,1.8-3.2,3.6,0.6,6.3c1.8,1.3,3.7,2.2,4.1,2S137.7,85.8,137.7,84.4 L137.7,84.4z M109.7,62.8c0-2.4-3.7-13.4-6-18.1c-2.1-4.2-4-6.1-4.7-4.8c-0.9,1.5-3.5,0.9-6.4-1.7c-1.6-1.4-2.8-3-2.8-3.7 c0.4-1.7,1.1-3.3,2.1-4.7c1.6-2.7,2.6-3.5,4-3.5c6.1,0,11.7,7.5,14.6,19.8c1.2,4.8,1.6,5.7,2,4.2l2.5-10.6 c2.2-9.7,4.2-14.1,7.3-16.5c2.8-2.2,4.5-2.1,7,0.4c2.5,2.5,3.2,4.5,2.6,8c-0.7,3.7-2.6,4.3-4.6,1.6c-2.6-3.6-5.6-2.4-7.7,3.1 c-0.5,1.3-2,7.2-3.3,13c-2.4,10.6-4.1,15.4-5.6,15.4C110,64.7,109.7,63.8,109.7,62.8L109.7,62.8z M192.5,36.5 c2-6.4,2.1-6.6,10.9-9.8c4.6-1.7,22.7-8.4,40.3-14.9c29.1-10.8,34-12.5,34-11.6c0,1.5-2,5.5-3.1,6.1c-0.7,0.4-8.2,3.3-16.5,6.5 s-26.5,10.2-40.3,15.7s-25.2,9.9-25.4,9.9S192.2,37.5,192.5,36.5z"/>
</svg>