<svg xmlns="http://www.w3.org/2000/svg" width="403" height="329">
<path d="M317.6,326.1c-2.3-1.8-4.5-3.7-6.5-5.7l-4.1-4l-8.6,3.1l-9.8,3.5c-3.1,1.1,0.8-1.9,7.6-5.9c4.1-2.4,7.5-4.5,7.5-4.7 s-1.5-3.4-3.2-7.2c-5.1-10.9-8.8-28-8.8-41.2c0-2.9-0.3-4-1.1-4c-0.6,0-4.8,1.8-9.4,3.9c-20.8,9.8-49,18.4-75.9,23.2 c-45.2,8.1-103,9.2-134.6,2.4c-17.2-3.7-34.2-11.4-42.1-19c-13.5-13.1-15.5-23.3-18.2-91.4c-1.9-48.7-2.7-62.9-4-71.4 c-1.3-8.7-3.7-18.8-5.6-23.2c-0.9-2-1.1-4.3-0.4-6.5C1.6,72.7,5.3,63,6.1,63c1.9,0,6.1,13.5,8.6,28c2.4,13.8,3.2,25.5,4.5,67.2 c1.5,48.6,2.6,61.2,6.8,76.7c2.9,10.5,5.8,14.9,14.7,22c8.3,6.5,16.3,9.4,35.6,12.5c42.4,6.9,89.7,5.5,138.4-4 c29.2-5.7,52.7-13,70.9-22l7.3-3.6l2.1-6.9c1.1-3.8,3.1-9.8,4.4-13.3c2.8-7.7,15.7-39.5,16.7-41.2c1.1-1.9,2.1,11.2,2.1,27.6 c0,16.6-1,21.5-6.1,32.4c-2.6,5.5-4.4,8-9.6,13l-6.4,6.2l0.9,6.2c0.9,4.7,2.1,9.3,3.8,13.8c2.7,7.3,5.8,13.9,6.4,13.3 c0.1-0.1,0.6-3.8,1.1-8.2c1.5-14.8,5.8-27.4,13.1-38.6c5-7.8,9.2-11.5,17.4-15.8s13.9-9.9,16.1-15.9c2.2-6.3,2-12.8-3.8-92.8 c-1.1-15-2.4-35.3-2.8-45.2s-1.4-20.1-2-22.7c-0.6-2.2-1-4.4-1.2-6.6c0-2.3,5.5-17.1,6.4-17.1c1.3,0,15.9,38.2,16.6,43.4 c0.5,4.1-1,4-5.3-0.3c-1.8-1.8-3.5-3.1-3.7-2.9s0.1,8.3,0.8,17.9c6.7,92.6,7.2,100.4,6.1,109.9c-2.2,19.4-9.3,36.1-19.3,45.1 c-3.2,2.7-6.7,5-10.5,6.9c-8.5,4.3-11.8,7.1-15,12.4c-6.3,10.5-6.6,25.2-0.7,36.9c0.9,1.8,1.7,3.3,1.9,3.5c0.3,0.4,6.3-3.8,9.9-6.9 l2.8-2.4l-3.7-1.6c-2-0.9-4.1-2.4-4.6-3.3c-1.1-2.1-1.1-7.4,0.1-10.3c0.7-2.3,1-4.6,1-6.9c0.1-3.9,0.4-4.9,2-6.2 c2.6-2.1,5.6-1.9,11,0.9c8,4.2,15.5,12.8,15.5,17.9c-0.3,2.3-1,4.6-2,6.8l-2,4.3l-6.3-0.5l-6.3-0.5l-6.9,6.7 c-6.6,6.6-6.7,6.8-5.3,8.2c2,1.8,4.9,6.5,4.5,7.2c-0.2,0.3-2.1,3.6-4.2,7.2C323.5,328.6,322.1,329.2,317.6,326.1L317.6,326.1z M352.4,284.8c0-2.2-8.1-10.9-9.1-9.7c-0.4,1.6-0.7,3.2-0.8,4.9l-0.5,4.5l2.6,0.3C349.4,285.5,352.4,285.4,352.4,284.8L352.4,284.8z M338.8,280c0-3.3-1.8-6.6-3.7-6.6c-1.6,0-5.9,4.3-5.9,5.9s3.8,3.6,7,3.7C338.7,283,338.8,282.9,338.8,280L338.8,280z M303.3,234.3 c3.9-2.8,7.4-6.9,8.8-10.3c1.7-4.2,1.1-14.5-1-15.2c-1.1-0.4-7.8,12.5-10.3,19.9C297.9,237.7,298.1,238.1,303.3,234.3L303.3,234.3z M157.2,256.8c-1.6-2-1.7-2.9-1.4-11c0.2-6,0.9-10.3,2-13.6c2.1-6,6.5-15.9,6.9-15.5c0.2,0.2-0.9,4.5-2.4,9.7 c-1.3,4.4-2.4,8.8-3.2,13.3c-0.9,6.7,2,12.2,5.7,10.8c0.7-0.3,2.4-2.2,3.7-4.2l2.4-3.7l-0.6,2.8c-1,5.1-2.9,10-4.6,11.8 c-2.1,2.3-5.6,2.5-7.9,0.4C157.6,257.4,157.4,257.1,157.2,256.8L157.2,256.8z M186,257.5c0.4-1.5,0.9-2.9,1.5-4.3 c1.5-3.5,1.7-3.6,9.8-6.6c4.6-1.7,22.7-8.4,40.3-14.9c29.8-11.1,34-12.5,34-11.5c0,1.3-2.9,6-3.9,6.5l-16.1,6.1 c-8.1,3.1-26.1,10.1-39.9,15.5s-25.2,9.9-25.4,9.9S186,257.9,186,257.5L186,257.5z M385.6,249.6c1.7-21.6,1.7-23.2-4.4-109.3 c-1.8-25.1-3.7-54.2-4.3-64.8s-1.6-20.4-2.1-21.8c-0.6-1.8-0.7-3.7-0.5-5.6c0.5-3.7,5.3-16.1,6.2-16.1c1.2,0,15.6,37.7,16.5,43.2 c0.7,4.3-1.1,4.2-5.3-0.1c-1.8-1.8-3.4-3.1-3.7-2.8s1.5,26.5,3.8,58.3c4.8,66,5.5,87.8,2.9,99.9c-2,9.3-6.1,21.4-7.9,23.5 C385.1,255.4,385.1,255.4,385.6,249.6L385.6,249.6z M213.5,221.1c-6.9-3.2-10.1-9.6-11.1-22.2c-0.3-8,0.3-16,1.8-23.8 c0.4-1.7-0.3-1.3-4.2,2.5c-10.6,10-24.4,18.9-43.9,28.4c-21.3,10.4-37.5,15.2-53.6,16.1c-24.8,1.3-41.8-10.5-47.6-33.1 c-3.1-12.1-1.8-36,2.8-51.5c3.4-11.4,14.2-31.3,16-29.5c0.3,0.3-1.6,5.7-4.2,12C58,147,56.4,165.1,64,180.4 c5.6,11.2,14.8,18.1,28,20.7c22.2,4.4,58.9-7.8,97.1-32.1c11.8-7.5,14.9-10.3,13.7-12.5c-1.2-2.3-5.1-3.6-23.5-8 c-22.5-5.3-28-8-31.8-15.3c-1.9-3.6-2-10.8-0.4-19.2c4.5-23.6,25.1-52.4,44.2-62c4.9-2.5,6.3-2.8,9.6-2.5 c6.5,0.7,10.6,6.9,10.6,15.8c0,6-3.2,14.4-5.6,14.4c-0.4,0-1.8-1.9-3.1-4.3c-4.1-7.3-9-7.7-18.3-1.6c-9,6-25.1,25.2-29.9,35.7 c-2,4.4-1.9,4.8,0.6,7.8c3.2,3.8,10.5,6.7,27.7,11.1c8.5,2.1,17.4,4.8,20,6c4.9,2.3,7.9,5.9,8.9,10.6c0.3,1.4,0.9,2.4,1.3,2.1 c1.2-0.8,0.8,2-2,13.3c-3.3,13.2-4.8,23.1-4,27.9c1.7,11.4,11,16.8,23.1,13.3c10.9-3.2,30.9-14.5,61.3-34.8 c26.8-17.9,28.8-19.9,24.8-25.1c-2.5-3.2-12.7-9.3-28.4-17.2c-7.9-3.9-15.9-8.1-17.6-9.2c-7.3-4.9-14.1-10.6-20-17.1 c-2.6-3-7-7.7-9.7-10.4l-5-4.9v-8.8c0-7,0.2-8.9,1.1-8.9c2.1,0,29.1,13.4,29.6,14.7c0.7,1.8-2.3,2.9-7.6,2.9h-4l4.6,4.1 c7.4,6.4,12.9,9.8,33.7,20.1c21.4,10.7,25,13.4,27.7,21.2c2.9,8.2,2.2,23.5-1.6,32.4c-2.6,6.3-15.8,16.9-44.8,36.1 C237,221.9,225.2,226.5,213.5,221.1L213.5,221.1z M117.5,173.1c0.3-1,0.5-2,0.5-3c0-0.9,1.3-2.9,3-4.5c1.9-1.8,2.6-3,2-3.2 c-1.2-0.6-2.4-1.4-3.4-2.3c-3.8-3.2-3-7.8,2.7-14.8c3.8-4.7,7.9-7.2,11.5-6.9c4.2,0.3,5.2,3,3.1,8.3l-1.4,3.8l-1.8-2.2 c-2.1-2.6-4.6-2.4-8.2,0.8l-2.2,2l2.1,2.1c1.4,1.4,3.3,2.3,5.2,2.5c2.7,0.4,4-0.1,9.4-3.4c3.4-2.1,6.4-3.6,6.7-3.3s0.1,1.9-0.4,3.6 c-0.8,2.8-2.2,3.9-13.9,11.8C115.6,175.6,116.9,174.8,117.5,173.1L117.5,173.1z M244.6,161c-3.9-2.7-4.3-14-0.9-24.9 c1.7-5.5,6.7-17.1,7.4-17.1c0.2,0-0.1,1.7-0.8,3.8c-3.2,10.3-5.1,18.6-5.1,22.2c0,9.2,5.1,11.3,9.8,4l1.5-2.4l-0.6,3.6 c-0.6,4.1-3.1,9.5-5.1,11C249,162.6,246.4,162.5,244.6,161L244.6,161z M93.2,150.4c0-7.8-1.3-17.8-4.5-33.4 c-3.5-17.4-1.9-24.1,6.5-27.3c4-1.5,4.4-2.3,2.1-3.5s-3.2-1-5.7,1.8l-2.3,2.6v-2.4c0-3.9,1.6-8.7,3.7-10.9l2-2.1l-2.1-6.3 c-1.3-3.8-2.8-7.6-4.5-11.3l-2.4-5l-3.1,0.5c-2.8,0.5-3.4,0.2-6-2.3c-1.5-1.5-2.8-3.1-2.8-3.5c0.6-1.6,1.4-3.1,2.4-4.5 c2.6-4.1,4.1-4.6,8-2.5c4.4,2.3,9.5,11.8,10.9,20.3c0.3,1.8,0.8,3.3,1,3.3s1.5-4.4,2.8-9.8c2.2-9.5,4.8-16.1,7-18c2.5-2,5.3-2,7.4,0 c2.4,2.4,3.2,5.2,2.5,9c-0.6,3.3-1.4,3.5-4.6,0.8c-1.3-1.1-3-1.9-3.7-1.8c-2.1,0.4-4.5,6.7-7.1,18.2c-1.3,5.9-2.7,11.3-2.9,12 c-0.3,0.9,0.3,1.5,2.3,2.2c3.3,1.2,10.5,7.5,11.1,9.6c0.2,0.8-0.3,3.2-1.2,5.2c-1.5,3.4-1.9,3.8-6.1,4.9c-6.8,1.9-11.1,3.6-13,5.1 l-1.7,1.4l2.1,7.6c3.9,14.2,5.5,32.2,4,43.5c-0.8,6.1-1.9,4.2-1.9-3.3L93.2,150.4z M286,98.6c0-0.7,6.1-4.2,19.9-11.8 s16.1-9,16.1-10.7s-7.8-2.7-22.8-2.7c-9.8,0-14.8-0.3-14.8-0.8s1.6-3.7,3.6-7.2c5.4-9.3,6.6-9.9,21.4-10.3c19.5-0.5,29.5,1.7,30,6.4 c0.3,2.8-8.1,15.3-15,22.2c-6,6-8.6,7.2-26.5,12.4C287.9,99,286,99.4,286,98.6z M154,54.5c0.3-1.5,0.8-3,1.3-4.4l1.3-3.7l40.5-14.9 c45.5-16.8,42.5-15.7,42.5-15.2c-0.3,1.2-0.7,2.3-1.2,3.4c-1.2,3-1.3,3.1-17.8,9.3c-12.7,4.8-62.5,24.4-66,26 c-0.2,0.1-0.4,0-0.5-0.1C154,54.7,154,54.6,154,54.5L154,54.5z M316.4,36.7c1.8-6.4,1.5-6.2,23.7-14.5C390.4,3.5,401.2-0.4,401.7,0 c0.2,0.2-0.3,1.8-1.1,3.5c-1.5,3-2.1,3.3-14.3,7.8c-10.3,3.9-48.3,18.6-66.4,26l-4.1,1.7L316.4,36.7z"/>
</svg>