<svg xmlns="http://www.w3.org/2000/svg" width="364" height="356">
<path d="M75.2,355c-39.9-2.6-64-17.4-72.3-44.5c-5.9-19.2-2.5-58.4,7.1-82.7c6.8-17.1,15.2-30.2,29.5-46.3l5.7-6.4l-4.1-3.8 c-8-7.4-18-13.3-22.9-13.4c-1.4,0-5,1.2-7.9,2.8c-1.9,1.1-4,2-6.1,2.8c-1.2,0-0.8-2.5,2.2-11.8c2.8-8.9,2.9-9.2,6.5-11.4 c4.4-2.8,16-6.8,24.5-8.4c12.4-2.4,32.9-1.2,46.1,2.5c6.5,1.9,15.3,6.1,17.5,8.5c2.5,2.7,2.1,6.1-1.6,13.8l-2.7,5.6l-12.6,6.4 c-6.9,3.5-12.6,6.6-12.6,6.8c0,1.1,8.3,5.8,13.3,7.5c11.7,4,19.9,4.3,29,1.2c8.7-3,20.1-10.5,20.1-13.3c0-0.7-3-6.5-6.7-13 c-7.3-12.7-8.7-15.7-10.9-22.4c-0.9-2.8-2-4.7-3.1-5.2c-0.8-0.4-1.5-0.9-2-1.7c-0.5-1.3,1.9-19,2.7-19.8s8,5.3,17.2,13.9 c5.8,5.4,5.6,6.8-0.9,6l-4.3-0.5l2.9,5c1.6,2.8,4.8,8.8,7.1,13.4c3.8,7.7,4.2,8.9,4.4,15c0.8,18.2-8,33.9-23.2,41.4 c-8.4,4.2-15.7,4.6-29.5,1.6c-2.1-0.4-2.1-0.4-5,11.5c-6.4,25.7-5.8,35.1,2.5,40.7c5,3.4,15.9,3.1,28.5-0.6 c21.8-6.5,51.8-28.6,64.6-47.6c2.7-4,3-5,3-9.7c0-7.1-4.2-27.2-8.1-39c-1.8-5.3-6.2-16.7-10-25.3l-6.8-15.7l0.9-5.5 c1.6-10.1,2.5-13.9,3.5-13.9c1.4,0,8.1,10.4,12.6,19.6c8.8,18,12.8,32.7,20.4,74.7c2.9,16.1,6,31.3,6.9,33.6 c2.1,5.5,6.1,10,10.1,11.2c4.4,1.3,14.1,1.2,19.8-0.3c9-2.3,14.3-5.7,25.1-16c14-13.5,15.9-14.2,15-6c-1,9.1,3.5,16.9,10.5,18 c6.3,1,17.6-3.5,21.4-8.6c1.5-2,1.7-3.6,2-12.8c0.3-11.8,0.1-16.2-6.3-104.5c-0.4-5.9-1.1-18.7-1.6-28.4c-0.5-11.2-1.2-19.1-2-21.6 c-0.6-2-1-4.1-1.2-6.2c0-2.5,5.5-17.4,6.4-17.4s4.1,7.5,10.4,24.4c8.1,21.8,8.4,25.8,1.1,18.7c-1.9-1.8-3.6-3.2-3.9-2.9 s0.3,10.3,1.2,22.3c2.5,34.3,4.7,65.3,5.7,82c2,32.9-2.8,54.3-15.1,67.6c-6.6,7.2-14.1,9.4-23.1,6.7c-6.5-1.9-10.2-7.1-11.4-15.6 c-0.2-1.8-0.5-3.6-1.1-5.3c-0.9-0.9-3.5,1.3-9.4,8c-11.9,13.7-21.7,18.9-35.7,18.9c-12.4,0-19-3.8-23.9-13.5 c-2.8-5.5-4.1-10.9-6.1-24.5c-0.9-6.2-1.9-11.9-2.1-12.5s-0.9,0.8-1.6,3.2c-2.8,11.1-10.7,22.5-23.9,34.6 c-14.9,13.6-34.2,25.2-49.2,29.4c-7.6,2.2-20.2,3-24.4,1.6s-9.5-6.9-11.4-12.1c-4.5-12.1-2.1-36.1,5.6-55.3l2.5-6.5l-7.6-3.7 c-5.1-2.6-10-5.6-14.7-9l-7-5.3l-3,2.2c-5.5,4.1-17.3,16.8-22.8,24.4c-9.9,13.9-18.1,31.9-21,45.9c-1.7,8.7-1.6,23.4,0.4,31.3 C11,300,15,307,22.3,314.4c9.4,9.4,20.1,14.6,37.3,18.1s65,2.5,101.8-2.2c12.1-1.5,14.3-0.8,7.1,2.4c-2.6,1.2-17.2,6.3-32.6,11.4 C102.2,355.2,95.9,356.4,75.2,355L75.2,355z M70.6,157.7c1.9-0.9,3.4-2,3.4-2.4s-1.3-1.3-3-2c-3.4-1.5-21-2.4-24-1.3 c-1.7,0.6-1.4,1,3.6,4.8c2.4,1.8,4.7,3.7,6.9,5.8l1.5,1.7l4.1-2.4C65.3,160.6,68.7,158.7,70.6,157.7L70.6,157.7z M108.4,315.6 c0.4-1.5,0.9-2.9,1.5-4.2l1.5-3.5l22.3-8.3l40.2-15c16.7-6.2,20.1-7.3,20.1-6.3c-0.4,1.1-0.8,2.2-1.3,3.2c-1.1,2.2-2.2,3.2-5.7,4.4 c-13.4,5-43.8,16.8-59.7,23.1c-10,4-18.4,7.3-18.6,7.3S108.4,316,108.4,315.6L108.4,315.6z M222.4,298.2c-4-2.9-7.5-5.5-7.9-5.9 c-0.9-0.9,6.4-15.2,7.7-15.2s11.4,6.7,14.3,9.4c1.9,1.8,2,2.2,1.3,4.5c-1.5,4.2-6.3,12.5-7.3,12.5 C230,303.5,226.3,301.1,222.4,298.2L222.4,298.2z M42.4,298.7c-4.3-1.4-6.1-4.1-6.1-9.1c0.1-6.1,1.1-9.5,4.9-16 c2.5-4.2,3-5.7,2.2-6.2c-0.5-0.3-1-0.5-1.5-0.7c-1-0.5-1.8-1.2-2.6-2c-4.4-4.1-2.1-11.6,6.2-19.5c5.4-5.2,8.4-6.2,10-3.3 c1.2,2.3,1,4-0.9,7l-1.7,2.8l-1.5-1.6c-2.5-2.6-4.6-2-7.2,2.1c-1.6,2.6-1.6,2.9-0.4,4.2c1.3,1.1,2.8,1.9,4.5,2.4 c3.8,1.1,5.6,0.4,11.3-4.6c1.3-1.3,2.7-2.4,4.3-3.3c0.8,0-0.3,5.5-1.7,8.1c-0.6,1.2-3.3,3.8-5.9,5.8c-8.8,6.8-17.3,18.1-16.7,22.2 c0.4,1.3,1.3,2.5,2.4,3.3c3.1,2.3,15,2.1,25.7-0.5c7.6-1.9,7.8-1.9,6.4-0.3c-2.2,2.5-9,6.6-13.4,8.1C56,299.1,45.7,299.8,42.4,298.7 L42.4,298.7z M341.7,260.2c-0.3-0.7-0.2-4.8,0.3-9c1.6-14,1.1-23.8-5.1-112.9c-1.5-21.6-3.1-46.8-3.6-56s-1.4-18.9-2-21.5 c-0.6-2-1-4.1-1.2-6.2c0-2,5.6-16.7,6.4-16.7c1.1,0,7.4,15.5,13.9,34.3c4.4,12.6,3.8,14.9-2.5,8.8c-1.9-1.8-3.6-3.2-3.8-2.9 s1.4,25.4,3.6,55.9c5.9,80.1,6,91.1,1.2,109.8C346.6,252.8,342.5,262.1,341.7,260.2L341.7,260.2z M98.4,239.4 c-1.8-1.4-5.2-3.7-7.6-5.3s-4.5-2.9-4.6-3c-0.7-0.5,7.1-15.6,8-15.6c1.2,0,11.1,6.4,14,9c1,0.9,1.9,1.5,2.1,1.3s1.6-3,3.2-6.2 l2.9-5.9l3.8,2.2c5.5,3.2,12.2,8.3,12.7,9.6c0.4,1.1-4.1,11.4-6.3,14.3c-1.1,1.5-1.5,1.3-8.6-3.8c-4.1-2.9-7.7-5.3-8.1-5.3 s-1.9,2.5-3.5,5.6s-3.3,5.6-3.8,5.6S100.1,240.8,98.4,239.4L98.4,239.4z M232.4,177c0-2.7-3-11.7-5.9-17.5c-2.5-5.1-2.6-5.2-5.5-4.9 c-3.3,0.2-7.4-2.1-8.2-4.8c-0.3-0.8,0.5-3.2,1.7-5.4c1.8-3.2,2.6-4,4.3-4c5.5,0,11.3,7.8,14.2,19.2c0.9,3.7,1.9,6.3,2.1,5.6 s1.4-5.5,2.6-10.8c2.9-12.9,5.1-16.9,9.8-18.4c1.4-0.4,2.4,0.1,4.6,2.2c3.1,3.1,3.7,6.9,1.5,10l-1.3,1.9l-2.3-2.5 c-1.3-1.4-2.9-2.4-3.7-2.3c-2.2,0.4-4.8,6.7-7.3,18c-2.3,10.4-4.2,15.5-5.7,15.5C232.8,178.8,232.4,178,232.4,177L232.4,177z M5.6,129.5c0.9-0.7,6.8-4.3,13.2-8.1c15.8-9.3,25.2-15.5,30.3-20.1l4.3-3.8l-2.9-1.8c-4.4-2.8-6.2-5.4-6.2-9.4 c0-4.5,1.4-7.1,5.9-11.2s8.6-5.2,11.1-3c1.5,1.3,1.6,2.1,1.2,8.3c-0.1,2.8-0.4,5.7-1,8.5c-0.4,1.3,0.1,2.1,2.3,3.6 c1.6,1.1,2.8,2.4,2.9,3c0,1.4-3.3,8.1-4,8.1c-0.9-0.5-1.7-1.2-2.4-2c-2.5-2.7-3.5-2.5-6.1,0.9c-6.5,8.5-21,17.9-37.3,24 c-11.8,4.4-14.1,5-11.4,3L5.6,129.5z M58,84.8c0-1.5-0.5-3.1-1.4-4.3c-1.3-1.5-1.6-1.6-4-0.5c-1.4,0.6-2.6,1.6-2.6,2.2 c0,1.9,6,6.5,7.4,5.7C57.7,87.6,58,86.2,58,84.8L58,84.8z M240.8,109.2c0.9-0.8,5.7-3.8,10.8-6.5c16.3-8.9,23.5-13.2,23.8-14.1 c0.8-2.4-3.4-3-20.8-3.3c-9.6-0.2-17.4-0.5-17.4-0.7c0-1.3,7.6-13.2,9.4-14.6c3.6-2.9,7.8-3.4,22.6-3c18.8,0.6,24.9,2.4,23.7,7.3 c-0.8,3.1-8,13.3-13.7,19.5c-6.5,7-10.8,9.2-26.7,13.7C239.4,111.2,238.7,111.3,240.8,109.2L240.8,109.2z M147.6,88.4 c2.2-7.3-1.6-5.4,43.2-21.9c22.4-8.3,41.1-15,41.5-14.8s0.2,1.6-0.4,3.2c-1.2,2.9-1.3,3-23.7,11.6c-12.4,4.8-31.2,12.1-41.8,16.3 C147.8,90.1,147,90.3,147.6,88.4L147.6,88.4z M278,38.2c0.3-1.5,0.8-3,1.3-4.4l1.3-3.7l10.9-4c6-2.2,23.6-8.7,39.3-14.5 c32-11.9,32.8-12.2,32.8-11.2c-0.3,1.2-0.7,2.3-1.3,3.4c-1.2,2.6-2.2,3.1-17.8,9c-13.3,5-61.4,23.9-65.5,25.7 C278.4,38.7,278,38.6,278,38.2L278,38.2z"/>
</svg>