<svg xmlns="http://www.w3.org/2000/svg" width="381" height="332">
<path d="M49.3,329.9c2-6.6,2.7-7.2,12.4-10.8c5.1-1.8,23.4-8.6,40.7-15s31.7-11.5,31.9-11.3s-0.2,1.8-1,3.4 c-1.3,2.9-1.8,3.2-13.9,7.7c-12.4,4.6-61.7,23.9-67.6,26.5l-3.1,1.3L49.3,329.9z M163.1,323.6c-4.3-3.1-7.8-5.9-7.8-6.2 c0-1.1,6.4-14.4,7.2-14.9s15.3,9.1,16.4,11c0.7,1.1,0.1,2.9-2.8,8.3c-2,3.8-4,7-4.4,7.1S167.4,326.6,163.1,323.6L163.1,323.6z M64.5,286.8c-29.2-2-37.8-7.5-34.7-22.1c0.4-2,0.9-3.9,1.6-5.8c0.4-0.7,2.3-4.7,4.3-9c4.2-8.9,8.4-14,14.5-17.9 c2.3-1.5,11.1-6.1,19.5-10.3s17.9-9.4,21.2-11.7c6.2-4.3,10.8-8.8,10.8-10.6c0-2.4-3.9-6.6-8-8.6c-6.1-3.1-10.6-3.8-21.8-3.9 c-11.6,0-15.2-1.2-18.5-6.1c-6.1-9.2-2.7-25.8,7.5-36.6c5-5.3,7.4-6.4,13.4-5.9c9.1,0.7,17,6.6,23.2,17.6 c6.9,12.2,9.4,23.5,8.9,41.4c-0.3,11.1-0.4,11.9-2.8,17c-5.2,10.9-10.9,15.3-38.4,29c-21.2,10.6-28,15.1-26,17.5 c3.4,4.1,34.9,7,76.9,7c27.5,0,81.1-1.8,170.4-5.7c39.3-1.7,92.1-2.5,93.3-1.3c0.3,0.3,0.4,0.8,0.2,1c-0.8,0.8-64.9,14.7-77,16.7 c-7.2,1.2-11.7,1.5-68.8,4.5c-77.5,4-100.1,4.8-132.8,4.7C86,287.5,69.4,287.2,64.5,286.8L64.5,286.8z M85,167 c-1.4-2.6-6.9-7.3-9.9-8.6c-6.3-2.6-13.1-0.6-12.5,3.7c0.6,3.9,6.3,5.7,19.3,6.1C85.4,168.4,85.7,168.3,85,167z M270.2,254.9 c-0.2-0.4,0-4.5,0.5-9c1.5-13.4,0.9-25.6-6.1-124.7c-1.1-15.6-2.4-35.6-2.8-44.4c-0.5-9.2-1.4-18.1-2.1-21s-1.1-6.1-0.8-7.3 c0.8-3.8,5.4-15.2,6.2-15.2c1.1,0,2.5,3.2,9.6,22c6.5,17.3,8.4,24.4,6.5,24.4c-0.5,0-2.6-1.6-4.6-3.7s-3.8-3.5-4-3.3 s1.1,20.1,2.9,44.3c5.7,78.1,5.9,81.5,5.4,96.3c-0.5,15.3-1.8,22.5-6.1,34.6C271.9,254.8,271,256.3,270.2,254.9L270.2,254.9z M140.3,251.6c-8.2-1.4-13.8-5.8-17.5-13.9c-5.1-11-5.8-19.3-8.3-97.6c-1.6-48.6-2.7-59.9-7.8-80.7l-2.9-11.9l1.3-4.9 c0.7-2.7,1.6-5.4,2.7-8.1l1.3-3.2l1.5,1.8c3.6,4.5,8.3,24.7,10.3,44.5c1.2,11.4,2.3,35.6,3.2,68.4c1.9,64.4,2.5,70.8,7.5,78.2 c4,6,5.8,6.9,14.3,7.2c15,0.7,23.1-2.9,37.8-16.7c5.7-5.3,11.2-10.2,12.1-10.9c2.8-1.9,3.7-0.6,3.1,4.5c-1,8.6,2.9,16,9.4,17.8 c5.1,1.4,14-1.1,19.6-5.4c6.8-5.2,6.8-7.1,0.1-99.1c-1.3-18-2.7-40.5-3.2-50c-0.5-10.3-1.3-19.1-2-21.8c-0.6-2.1-1-4.1-1.2-6.3 c0-2.1,5.7-16.7,6.6-16.7s2,2.8,9.9,23.7c8.5,22.5,8.8,26.6,1.4,19.3c-1.9-1.9-3.6-3.2-3.9-2.9s0.1,7.6,0.8,16.3 c2.2,29.2,5.1,70.9,6.1,87.9c1.9,33.1-2.6,54.1-14.6,67.1c-6.7,7.4-13.7,9.8-22.3,7.7c-7.4-1.8-11.5-6.9-12.7-16 c-0.2-1.8-0.5-3.5-1.1-5.2c-1-1-3.1,0.9-8.9,7.5c-10.1,11.7-19.6,17.7-30.6,19.3C146.2,252.5,146.1,252.5,140.3,251.6L140.3,251.6z M32.1,225.8c-4.7-2.4-5.1-14.3-0.8-27.1c2.1-6.4,6-15,6.7-15c-0.7,3.2-1.5,6.3-2.5,9.4c-3.2,10.8-4.1,18.2-2.7,21.7 c1.8,4.4,5.3,4.1,8.1-0.5c2.3-3.7,2.8-2.3,1.1,3.5c-1.3,4.5-4.8,9.1-6.9,9.1C34.1,226.7,33.1,226.4,32.1,225.8L32.1,225.8z M158.5,209.5c0-1.9-4.7-15.3-7-19.8c-1.7-3.3-2.2-3.8-3.7-3.3c-3,1-4.7,0.6-7.1-1.7c-2.8-2.7-2.9-4.4-0.2-8.8 c2.4-4.1,4.3-4.4,8.4-1.6c3.8,2.6,7.5,9.1,9.6,17.1c1.9,7.1,2.5,7.3,3.4,1.1c1.1-7.7,4.6-18.2,7-21.1c3.5-4.2,7.4-3.9,10.3,0.8 c1.2,1.5,1.6,3.5,1.1,5.3c-1,4.5-1.8,4.9-4.9,2.2s-3.6-2.9-5.3-1s-3.3,6.5-5.8,17.9c-2.2,10-3.8,14.3-5.2,14.3 C158.8,210.8,158.5,210.2,158.5,209.5L158.5,209.5z M171.7,151.8c0.9-0.9,5.4-3.6,10-6.2c19.8-10.9,24.4-13.6,24.6-14.8 c0.1-0.8-0.4-1.6-1.1-1.8c-3.1-1.2-18.1-2.1-26.9-1.6c-7.9,0.4-9.4,0.3-9.4-0.6c0-0.6,1.7-4,3.8-7.5c5.6-9.3,7.1-9.9,23.8-9.9 c13.7,0,21.6,0.9,25.4,2.9c2.1,1.1,2.3,1.5,1.9,4c-0.6,4-7.2,13.4-14.6,20.8c-5.2,5.2-7.3,6.8-11.2,8.3c-4.5,1.7-20.3,6.4-25.6,7.6 C170.1,153.4,170.1,153.4,171.7,151.8L171.7,151.8z M19.9,145.8c-0.5-2.6-0.7-5.2-0.6-7.8c0-7.3-0.8-13-4-30.1 c-2.8-14.3-2.9-19.1-0.8-23.3c1.9-3.8,2.7-4.4,7.6-6.3l3.9-1.5l-1.9-1.3c-2.6-1.8-3.1-1.7-6.1,1.2l-2.6,2.6v-2c0-3.3,2.2-9.5,4-11.5 l1.6-1.8l-2.1-6.3c-1.2-3.5-3.2-8.5-4.5-11.3l-2.4-5l-3.1,0.5c-2.8,0.5-3.4,0.2-6-2.4L0,36.5l2.3-4.2c2.5-4.7,4.3-5.5,8.2-3.4 c4.5,2.3,9,11.1,11.7,22.4l0.6,2.4l0.6-2.4c0.4-1.3,1.6-6.3,2.7-11.1c3-12.7,5.5-16.5,10.5-16.5c4.8,0,7.8,7,5.1,11.9l-0.9,1.7 L38,34.9c-3.2-2.8-3.7-2.9-5.3-1c-2.2,2.6-3.1,5-5.8,16.4c-1.5,6.2-2.9,11.9-3.2,12.6c-0.4,0.9,0.2,1.5,2.2,2.2 c3.2,1.2,10.6,7.5,11.3,9.8c0.6,1.8-2.2,8.7-3.8,9.1c-11.8,3.5-14.9,4.6-16.5,5.9l-1.9,1.5l1.6,5.5c3.2,10.9,4.3,18.4,4.7,30.7 S21,148.8,19.9,145.8L19.9,145.8z M51.3,116c-4.2-2.9-7.7-5.6-7.8-6c-0.5-1.4,6.5-15.2,7.6-15.2c0.6,0,4.5,2.3,8.7,5.2l7.5,5.2 l2.8-5.6c1.5-3,3.3-5.5,3.9-5.5s4.4,2.2,8.4,4.8c8.7,5.8,8.8,6.1,3.9,15.2c-3.2,5.9-4.7,7.4-5.8,5.5c-0.6-0.9-11.8-8.6-13.4-9.2 c-0.7-0.2-2,1.7-3.8,5.2c-1.5,3.1-3.1,5.6-3.6,5.6S55.5,118.8,51.3,116L51.3,116z M147.5,116.4c-1.2-0.6-2.1-1.6-2.6-2.8 c-1.2-3.1-0.9-14.5,0.4-20.2c1.1-4.5,7.5-19.7,8.1-19.1c-0.7,3.3-1.6,6.6-2.6,9.8c-3.4,11.6-4,20-1.5,22.7c0.7,0.9,1.7,1.5,2.9,1.7 c1.5,0,4.1-2.6,5.6-5.5s1.7-1.6,0.3,3.5c-1.5,5.9-3.2,8.8-5.7,9.9C150.1,117.4,149.9,117.4,147.5,116.4L147.5,116.4z M69.9,74 c-3.1-1.2-4.4-5.8-3.9-13.2c0.3-3.8,0.9-7.5,1.7-11.1c1.2-4.4,7.1-18.1,7.8-18.1c0.2,0-0.9,4.1-2.4,9c-4.4,14.3-4.4,23.7-0.1,25 c1.8,0.6,4.1-1.2,6.4-4.8c1.3-2,1.5-2.2,1.5-0.8c0,3-2.4,9.9-4.2,11.9C74.6,74.3,72.4,74.9,69.9,74L69.9,74z M123.7,66.3 c1.5-6,2.6-6.8,15.7-11.6c6.8-2.5,25.1-9.2,40.7-15s28.5-10.3,28.7-10.1s-0.2,1.8-1,3.4c-1.3,2.9-1.8,3.2-13.9,7.7 c-12.4,4.7-61.7,23.9-67.7,26.5l-3.1,1.3L123.7,66.3z M239.3,38.2c0.3-1.5,0.8-2.9,1.4-4.4l1.3-3.8l8.1-2.9 c4.4-1.6,23-8.5,41.2-15.3S324.5-0.2,324.8,0s-0.2,1.8-0.9,3.4c-1.3,2.9-1.8,3.2-13.9,7.8c-10.4,3.9-50.4,19.5-66.4,25.9 C241.2,38,239.3,38.5,239.3,38.2L239.3,38.2z"/>
</svg>