<svg xmlns="http://www.w3.org/2000/svg" width="361" height="405">
<path d="M142.4,403.2c-12.2-2.8-20.3-11.1-24.5-24.9c-1.8-6-1.9-23.5-0.1-32.2c0.6-3.2,0.8-5.8,0.4-5.8s-5.5,1.9-11.4,4.3 c-10.6,4.3-10.7,4.3-10,2.2c2.2-6.9,1.8-6.7,13.4-10.9l10.8-4l2.6-6.8c1.4-3.7,3-7.5,3.5-8.4c0.9-1.5,0.9-1.5,1,0.2 c-0.2,2.4-0.7,4.7-1.3,7c-0.7,2.9-1.1,5.4-0.9,5.6s12.6-4.1,27.5-9.6s27.5-10.1,28.1-10.1c0.8,0,0.7,0.7-0.2,3 c-0.4,1.1-0.9,2.2-1.5,3.2c-0.1,0.1-9,3.6-19.8,7.8c-38.4,14.7-36.5,13.9-37,16.3c-2.4,12-2.3,18.6,0.4,26.4 c5.4,15.4,23.5,21.1,44.5,14.1c16.4-5.5,36.4-18.9,54.2-36.3c12.3-12.1,14.5-15.4,13.8-20.5l-0.5-3.6l-3.7,0.6 c-5.9,1-23.3,0.8-27.1-0.4c-4.7-1.4-9.4-6.1-10.6-10.6c-0.8-2.8-0.8-5-0.1-9.4c1.6-10.2,7.5-19.5,15.3-23.7c5.2-3,11.6-2.7,16.5,0.6 c4.1,2.7,10.4,10.5,14.3,17.5c2.8,5.2,3,5.3,5.1,4.5c7.8-2.9,14.8-9,17.9-15.5c2-4.3,2.3-5.7,2.3-12.8c0-8.1-1.6-33.3-5.2-82.4 c-1.1-15-2.4-35.3-2.8-45.3c-0.5-11.4-1.3-19.5-2-22c-0.6-2-1-4-1.2-6.1c0-2.6,5.5-17.4,6.5-17.4s2,2.7,9.6,22.8 c8.8,23.4,9.2,27.6,1.7,20.2c-1.9-1.8-3.6-3.1-3.9-2.9s1,20.2,2.7,44.4c4.7,65.4,5.2,74.9,4.1,84.1c-2.8,23.9-12.8,42.5-26.8,49.9 c-2.2,1.1-3.8,2.6-4,3.6c-1.8,10-2.5,12.8-4.6,17.9c-3.7,8.9-7.9,14.6-19.4,26.2c-29.5,29.8-57.4,43.9-77.2,39.3L142.4,403.2z M225,302.1c1-1-5.7-7.1-9.5-8.7c-5-2.1-12.2,0.3-12.2,4c0,2.3,2.3,4.5,5.8,5.4C212.3,303.5,224,303.1,225,302.1L225,302.1z M302.2,370.4c-0.2-0.6-0.1-3.7,0.3-7c1.6-14,1.2-23.8-4.9-110.7c-1.7-25.1-3.5-52.8-4-61.6c-0.5-10-1.3-17.7-2.1-20.7 c-1.2-4.4-1.2-5,0.1-9.2c0.8-2.5,2.3-6.5,3.4-8.9l2-4.4l1.9,3.6c5.9,11.4,16.6,44,14.5,44c-1.6-1.1-3.2-2.3-4.5-3.7 c-2.2-2-4.1-3.6-4.3-3.4s0.9,17.3,2.4,37.9c6.9,95.3,7.2,103.1,4.8,117.7c-1.4,8.2-3.7,16.2-6.8,23.8 C303.1,371.8,302.8,372,302.2,370.4L302.2,370.4z M259.2,363.8c1.1-1.7,2.4-3.3,3.9-4.8c5.9-6.5,9-11.6,8.8-14.3 c-0.3-3.2-2.3-4.3-5.6-3.1c-1.4,0.5-2.7,0.8-2.9,0.6c-0.9-0.9,1.7-6.8,3.6-8.4c2.1-1.7,6.2-2.2,8.1-1c1.4,0.9,2.6,5.6,2.1,8.1 c-1.3,6.2-6.3,14.2-11.7,18.9C261.8,363,259.2,364.6,259.2,363.8L259.2,363.8z M119,310.4c-9.7-3.6-16.5-13-18.3-25.4 c-1.7-11.5,2.5-29,11.6-48.2c7.6-16,8.2-12.4,1.2,7.1c-8,22.3-9.9,32.4-7.5,40.5c0.7,2.9,2.3,5.4,4.5,7.3c3.8,3.4,5.9,4.1,11.9,3.5 c10.1-0.9,17-6.2,40-31.1c18.8-20.2,28.1-29.1,38.1-36.1c5.8-4.1,18.9-11,20.9-11c1.8,0,1.6-2.2-3.7-78.4 c-1.3-18.7-2.9-42.8-3.6-53.6s-1.4-22.1-1.6-25.2c-0.2-3.2-0.8-6.3-1.6-9.4c-1.2-3.6-1.2-4,0.4-8.8c2.4-7.1,4.8-12.6,5.6-12.6 c1.3,0,16.8,41.5,16.8,44.9c0,2.5-2.2,1.7-6.1-2.3l-3.7-3.8l0.5,8.4c0.3,4.6,2.1,30.9,4.1,58.4s3.9,56.7,4.1,64.9l0.5,14.9l5.3,0.3 c6.1,0.4,10.4,2.2,14.2,6.1c3.8,3.9,4.7,7.9,3.6,15.5c-0.4,3-1.1,6-2.2,8.8l-1.4,2.6l-1.3-2c-3.1-4.7-7.5-8.7-11.1-9.9 c-5.1-1.8-10.5-1.7-11.1,0.1c-2.5,7-5.3,13.8-6.3,15s-1.2,0.8-0.7-6.6c0.3-4.5,0.3-8.2,0-8.2c-1.6,0-11.2,4.7-16.1,7.8 c-10,6.4-18.4,14.3-37.5,34.9c-10.3,11.1-20.4,21.7-22.5,23.6C137.7,309.7,126.3,313,119,310.4L119,310.4z M68.3,297.5 c-2.2-1.9-2.2-2.1-2.2-10.2c0-6.3,0.4-9.6,1.8-14c2.2-6.9,6.5-16.7,7.1-16.1c0.2,0.2-0.5,3.5-1.7,7.1c-3,9.4-4.5,17.4-4,20.2 c0.7,3.4,2.5,6,4.2,6c1.5,0,4.8-3.1,6.4-6c0.8-1.4,0.9-1.4,0.9-0.2c0.1,3-3.3,11.5-5.3,13.2C73,299.9,71,299.9,68.3,297.5 L68.3,297.5z M138.5,258.7c-4.5-4.5-2.7-20.1,4-35c1.3-2.9,2.6-5.1,2.9-4.9s-0.3,2.7-1.2,5.5c-4.7,14.5-5.4,22.3-2.2,26 c1.9,2.2,1.9,2.2,4,0.8c1.5-1.1,2.8-2.5,3.8-4l1.6-2.6l-0.5,3.2c-0.8,4.5-3.6,10.7-5.3,11.6C143.2,260.7,140.4,260.4,138.5,258.7 L138.5,258.7z M170.5,238.2c0-2.2,3.5-13.1,5.5-16.9c2.2-4.4,10-15,15.6-21.4c10.5-11.9,12.9-16.5,9.2-17.4 c-3.9-1-10.9,1.2-51.3,16.5c-28.9,10.9-56.2,18.2-77.3,20.5c-11.1,1.2-30.5,0.6-37.8-1.2C17.4,214,5.4,202.7,1.3,187 c-2.6-10-1-29.2,3.3-40l2-5.1L4.9,138c-3.6-8.3-1.5-29,4.4-43.7c2.9-7.4,8.4-18.2,8.9-17.6c0.2,0.2-1.3,6.1-3.3,13 s-4.3,15.5-4.9,19.1c-2.2,12.4,0.6,21.2,6.7,21.2c1.8,0,6.7-5,8.7-8.8c1.1-2,1.5-2.4,1.7-1.4c0.5,2.2-2,11-4.7,16.4 s-5.2,7.4-9.8,7.4c-2.6,0-2.8,0.2-4.4,4.6c-4,11.2-4.7,21.2-1.8,27.9c2.3,5.3,10.1,12.8,16.7,16.1c14.5,7.3,37,9.9,60,6.9 c26.2-3.4,51.5-11,87.2-26.1c23.6-9.9,31.9-11.9,37.9-8.9c3.9,1.9,5.8,5.9,5.3,10.9c-0.9,8.5-7.7,19.1-23.9,37.6 c-4.5,5-8.5,10.4-12.2,16C170.5,240,170.5,240.1,170.5,238.2L170.5,238.2z M82.5,159.8c-4.2-2.9-7.7-5.5-7.8-5.9 c-0.4-1.1,6.4-14.6,7.5-15c0.6-0.2,4.5,2,8.7,4.8l7.6,5.2l2.8-5.6c1.5-3.1,3.3-5.6,4-5.6s4.5,2.3,8.6,5c6.9,4.6,7.4,5.2,7.2,7.4 c-0.3,2.9-6.5,14-7.8,14c-0.7-0.1-1.4-0.5-1.9-1.1c-1.1-1.4-13.6-9.6-13.9-9.2c-0.1,0.2-1.4,2.8-2.9,5.7s-3.2,5.3-3.6,5.3 S86.6,162.6,82.5,159.8L82.5,159.8z M152.9,159.1c-0.1-8.2-1.7-19.9-4.8-36c-2.6-13-2.6-16.8-0.4-21.2c1.5-2.9,3.6-4.6,7.2-5.9 s3.9-2.1,1.1-3.5c-1.8-0.9-2.2-0.7-5,2l-3.1,3l0.6-3.2c1.1-6.2,2.1-8.9,3.9-10.7s1.9-2,0.9-5.2c-1.9-6.2-6-16.1-7.5-18 c-1.2-1.6-1.7-1.8-3.2-1c-2.1,1.1-5.9-0.5-7.8-3.5c-1.5-2.3-0.8-4.7,2.4-8.7c1.5-1.9,2.2-2.2,4-1.8c5.4,1.4,10.5,8.9,13.2,19.7 c0.8,3.3,1.7,5.5,1.9,4.8s1.4-5.3,2.5-10.3c3.2-14,6.3-18.9,11.4-18.3c3.3,0.4,6.1,4.9,5.6,9c-0.6,4.6-1.7,5.2-4.4,2.7 c-4.7-4.5-7.4-1.6-10.1,11c-0.8,3.5-2.1,8.9-3,11.9c-0.6,1.8-1.1,3.7-1.4,5.6c0.1,0.1,2,1.2,4,2.3c5,2.9,9.4,7.5,9.4,9.9 c-0.2,1.7-0.7,3.4-1.5,4.9c-1.4,2.8-2,3.2-8.1,4.8c-7.3,2-11.9,4.4-11.9,6.3c0.4,2.2,0.9,4.4,1.6,6.5c3.3,11.1,4.4,19.3,4.4,32.5 c0,8-0.3,13.6-0.9,14.8C153,165.2,152.9,164.5,152.9,159.1L152.9,159.1z M274.5,152.4c1.8-6.2,1.8-6.3,20.1-13 c56.3-20.8,64.9-24,65.2-23.7s-0.4,1.7-1.2,3.5c-1.4,3.1-1.8,3.3-11.8,7.1c-12.6,4.7-58.5,22.7-66.6,26c-3.2,1.4-6,2.4-6.1,2.4 C274,153.9,274.2,153.1,274.5,152.4L274.5,152.4z M87.9,134c-4.3-2.9-7.8-5.8-7.8-6.3c-0.1-2,6.8-14.6,7.9-14.6 c1.4,0,12.9,7.4,14.9,9.7c1.2,1.3,1.3,2,0.5,4.6c-1.1,3.5-5.8,11.6-6.9,11.8C96,139.2,92.1,136.9,87.9,134z M52.5,114.8 c0.9-0.8,7.9-5.2,15.6-9.8c15.7-9.2,23.7-14.7,28.6-19.4l3.4-3.2l-3.5-2.2C92,77.4,90.2,74,90.9,70c1.6-9,13.1-17.1,17.4-12.3 c1.3,1.4,1.4,2.5,1,7.9c-0.2,2.8-0.5,5.6-1,8.3c-0.4,1.8-0.1,2.3,2.4,3.9c1.6,1,2.9,2.3,2.9,3c0,1.8-4.1,8.5-4.7,7.7 c-0.8-0.9-1.8-1.7-2.8-2.5l-2.3-1.7l-4.5,4.9C90,99.4,77,107.2,59.2,113.4C52.5,115.8,51.2,116,52.5,114.8L52.5,114.8z M104.8,69.8 c0-2.4-2-5.6-3.5-5.6c-1.2,0.3-2.3,0.9-3.2,1.8c-2.1,1.6-2.1,1.7-0.7,3.3c1.1,1.2,2.4,2.2,3.8,3.1C103.9,74,104.8,73.3,104.8,69.8 L104.8,69.8z M249.7,98.2c1-1.2,6.7-4.5,24.8-14.3c3.4-1.8,6.7-3.8,9.9-6c1.5-1.4,1.5-1.5-0.2-2.4c-3-1.6-16-2.6-26.7-2.1 c-7.9,0.4-10.2,0.3-10.2-0.5c0-0.6,1.7-3.9,3.8-7.4c6-10,6.4-10.2,27-9.8c15.1,0.2,17.2,0.4,20.6,2c3.2,1.5,3.8,2,3.8,4 c0,5.5-15.9,24.9-23.4,28.6c-3.2,1.6-28.2,9.2-30,9.2C248.8,99.4,249.1,98.9,249.7,98.2L249.7,98.2z M169.2,36.6 c1.6-6.4,0.6-5.9,37.3-19.5c46.7-17.3,48-17.8,48-16.9c0,1.9-2.9,6.4-4.3,6.9c-4.6,1.4-66.1,25.4-80.4,31.3 C168.9,38.8,168.8,38.5,169.2,36.6L169.2,36.6z"/>
</svg>