<svg xmlns="http://www.w3.org/2000/svg" width="460" height="325">
<path d="M267.4,323.6c-8.7-2.8-17.3-13.7-18.6-23.5c-1-7.6-0.7-7.3-5.2-3.9c-3.6,2.7-12.4,6.4-13.2,5.5c-0.2-0.2,2.5-2.2,6-4.5 c10.2-6.7,11.5-8.3,12.7-15.5c1.2-7.9,4.6-18,10.3-30.5c4.5-10,6.8-13.4,6.8-10.3c0,0.8-2.7,9.4-6,19.1s-6,18.3-6,19.2 c0,1.2,0.9,0.6,4.2-2.8c11.8-12.3,19.6-15.6,30.5-12.7c5,1.3,7.9-0.1,11.5-5.5c1.6-2.4,3.2-4.3,3.5-4.3s0.6,1.4,0.5,3l-0.2,3 l7.7,0.5l-0.5-2.8c-0.6-3.5,1.7-8.2,3.4-6.8c1.5,1.2,1.2,8.3-0.4,12.7c-2,5.1-4.3,6.3-9.3,4.6l-3.8-1.3l-3.5,2.7 c-4.2,3.2-7.9,4-12.6,2.9c-9.4-2.4-17.2,0.8-28,11.2l-4.7,4.6l0.5,4.5c0.6,5.5,2.8,9.9,6.1,12.7c3.2,2.7,5.4,3.2,11.5,2.7 c10.1-0.8,17.9-6.4,31.5-22.6c18.4-21.9,28.5-28.7,65.1-44.4c13.7-5.8,19.6-10.1,23.4-16.8l2.5-4.4l-0.1-12.8c0-7-0.5-18.6-1-25.6 c-1.2-16.6-3.9-54.4-4.9-69.2c-0.4-6.4-1.3-20.4-1.9-31.2c-0.7-12.7-1.6-20.8-2.3-23c-0.9-2-1-4.3-0.4-6.4 c1.3-4.7,5.5-14.6,6.3-14.6s3.9,7.5,10.7,25.7c7.7,20.8,7.9,24.3,0.7,17.3c-1.9-1.8-3.6-3.1-3.9-2.8s1,21.3,2.8,46.8 c3.5,49.5,4.8,72.1,4.3,77.8c-1.4,17.1-6.9,33.2-15,43.3c-4.1,5.2-12,10.6-20.1,13.9c-3.1,1.2-13,5.9-22,10.2l-16.4,8l-12.4,12.5 c-6.8,6.9-16,16.3-20.4,21c-9.5,10.1-13.9,12.8-22,13.2C272.3,324.2,269.8,324,267.4,323.6L267.4,323.6z M156,292.9 c1.4-4.6,3.3-7.3,6-8.3c49.7-18.5,78.7-29.1,78.9-28.8c0.5,0.5-0.5,4-1.6,5.4c-0.5,0.7-8.3,4.1-17.4,7.5 c-13.4,5.1-41.8,16.2-62.7,24.5l-3.9,1.5L156,292.9z M105.1,272.3c-2.4-1.8-6-4.3-8.1-5.7l-3.7-2.4l3.2-7c1.2-2.8,2.6-5.5,4.2-8 c0.8-0.8,2.5,0,8.8,4.2c4.3,2.9,8,5.2,8.1,5.2c1.2-1.8,2.3-3.6,3.1-5.6c1.6-3.1,3-5.6,3.3-5.6c0.8,0,5.9,3.2,11.3,7.1 c3.1,2.2,5,4.2,5,5.1c0,2.3-6.4,14.2-7.7,14.2c-0.6,0-4.1-2.2-7.8-4.8s-7.1-4.8-7.5-4.8s-2.1,2.4-3.6,5.4s-3.1,5.5-3.5,5.6 S107.6,274,105.1,272.3L105.1,272.3z M11.9,259.6c-4.2-1.9-8.7-7.2-10.5-12.4C0.3,244,0,240.6,0,231.5c0-13.4,1.3-20.5,6-34.4 c3-8.8,3.1-9.2,1.8-11.6c-1.7-3.3-2.3-16.4-1-24.3c0.5-3.4,1.9-9.1,2.9-12.9c2.1-7.1,10.4-25.4,11.2-24.7c0.3,0.3-1.1,6-3.1,12.7 c-5.8,19.7-6.8,25.5-5.4,32.3c1,5,3.6,8.4,6.3,8.4c2.2,0,7-4.4,9-8.3c4.1-8,2,4.6-2.2,13.5c-3.3,6.9-6,8.8-11.2,8.1 c-4-0.6-3.2-2.1-7.2,13.9c-2.5,10-3.5,23.2-2,27.5c3.2,9.8,13.8,12.4,31.5,7.7c21.9-5.8,50.7-25.8,65.7-45.8 c5.6-7.5,6.1-10.1,4.1-21.8c-3.2-18.8-8.6-35.4-19-59.1l-4.9-11.1l1-6.9c1.3-9.2,2.4-13.1,3.6-12.7c1.4,0.5,7.5,9.8,11.3,17.4 c10,19.9,14.2,35.6,22.8,84.8c1.8,10.3,4,21,4.9,23.8c3.5,10.9,8.4,14.2,20,13.7c12.5-0.6,17.5-4.4,30.9-23.5 c5.6-8,8.3-11.3,9.6-11.4c1.6-0.2,1.8,0.1,1.8,3.2c0,11.5,6.1,18.9,22.2,27.3c24.4,12.6,55.9,8.2,85.1-11.9c8-5.5,10.9-6.5,9.9-3.4 c-0.3,1-0.9,4-1.4,6.6c-0.8,4.3-0.7,5.2,0.6,8c2.2,4.6,6.2,6.3,14.8,6.3c6.1,0,7.4-0.2,12.2-2.6c6-3,8.3-5.5,16-17.7 c2.5-4,5.2-7.5,5.9-7.8c2.4-0.9,2.9,0.9,1.6,6.5c-1.5,6.6-1.1,8.5,2.8,12s10.2,5.1,14.7,3.6c4.4-1.5,5.3-3.3,3-5.7 s-2.2-3.1,0.4-11.9c1.6-5.4,2.5-7.1,3.4-7c2.2,0.4,4.3,6.1,4.7,12.7c0.7,11.3-3.7,23.1-10.3,27.9c-3.6,2.6-10.8,4.4-14.7,3.7 c-3.7-0.7-8.6-4.5-11.3-8.8c-0.7-1.3-1.6-2.6-2.7-3.7c-0.2,0-1.5,1.8-2.8,4c-3.4,5.6-8.3,10-14.2,12.8c-4.3,2-5.9,2.4-11.8,2.4 c-12.1,0-17.9-4.5-20.2-15.9c-0.3-1.8-0.8-3.6-1.5-5.3c-0.3-0.3-3.8,1.8-7.7,4.6c-7.9,5.7-20.9,12.3-29,14.8 c-17.5,5.4-31.6,4-50.1-5.1c-12.3-6-17.9-11.3-23.1-21.6c-1.2-2.6-2.5-5.1-4-7.6c-0.1,0-3.2,5-6.9,11c-7.6,12.7-12.7,18.5-18.8,21.5 c-3.7,1.8-5.3,2.1-10.9,2c-7.5-0.1-10.5-0.8-15.4-3.7c-7-4.1-10.8-12.6-13.7-30.4c-1.1-6.6-2.2-13.3-2.4-14.8 c-0.4-2.6-0.6-2.3-3,4.9c-3.4,10.2-6.8,15.2-18.8,27.1c-22.6,22.4-48.8,36-69.3,36C17.1,261.1,14.2,260.6,11.9,259.6L11.9,259.6z M424,260.3c-0.3-0.7-0.2-4.5,0.3-8.4c1.6-13.9,1.1-25.1-5.1-114.4c-1.5-21.5-3.1-46.5-3.6-55.6c-0.5-9.4-1.4-18.7-2.2-21.7 c-1.3-5.2-1.3-5.5,0.5-10.8s4.6-11.5,5.2-11.5c1.1,0,15.5,38.1,16.2,43c0.6,4.5-0.6,4.5-5.1,0.1c-1.9-1.8-3.6-3.2-3.8-2.9 s1.4,25.2,3.6,55.6c5.9,80,6,92,1.1,110.4C428.9,252.9,424.8,262.1,424,260.3L424,260.3z M26,206c0-0.4,7.4-5,16.4-10.4 c15.7-9.3,27-17.1,30.4-20.9c1.6-1.8,1.6-1.8,0-2.6c-1.7-1.1-3.2-2.4-4.6-3.8c-3.5-3.4-3.9-6.4-1.5-11.6c1.7-3.7,7.1-8.9,10-9.6 c5.8-1.5,8,1.4,7.3,9.4c-0.2,2.4-0.5,4.8-1.2,7.2c-0.6,1.6-0.3,2.3,2.5,4.7l3.2,2.9l-2.2,4.1l-2.2,4.1l-2.9-2.4l-2.9-2.4l-4.5,5 c-7.2,7.9-21,17.1-31.8,21c-1.6,0.6-6,2.2-9.6,3.5S26,206.4,26,206z M79,161.9c0.6-2.2-0.4-5.7-1.9-6.6s-5.8,0.9-6.1,2.8 c-0.2,0.8,0.9,2.1,2.8,3.4C77.4,163.9,78.4,164,79,161.9L79,161.9z M285.3,174.6c-4.5-3.1-8.2-6-8.2-6.4c0-1.4,6.7-15.2,7.4-15.2 c1,0,13.1,7.8,14.3,9.2c1.6,1.9,2.2,1.4,5.2-4.4c1.5-3.1,3.2-5.6,3.6-5.6c1,0,8.9,4.9,13,8.2c1.7,1.4,3,3.1,3,4 c0,1.9-6.4,14.2-7.4,14.2c-0.4,0-4.1-2.4-8.3-5.3s-7.7-5.2-7.9-5s-1.4,2.6-2.9,5.5c-1,2-2,3.9-3.2,5.8 C293.8,180,289.8,177.7,285.3,174.6L285.3,174.6z M224,177.5c-5-5-2.6-23.1,5-37.6c2.7-5.1,2.7-5.1-0.9,7.2 c-3.9,13.1-3.8,20.7,0.2,22.8c1.4,0.8,2,0.5,4.2-1.8c1.3-1.3,2.5-2.7,3.5-4.2c1.4-2.3-1,7.9-2.6,10.8 C231.5,178.6,226.6,180.1,224,177.5L224,177.5z M144.3,175.3c-1.5-2.3-1.6-3.5-1.3-11c0.1-4.6,0.8-9.1,2.1-13.4 c1.9-5.5,6.5-15.6,6.9-15.2c0.1,0.1-1,4.5-2.4,9.6c-3.4,11.8-4,16.1-2.6,20.2c0.9,2.7,1.4,3.2,3.6,3.4s2.8-0.2,5.1-3.6l2.6-3.8 l-0.5,2.8c-1,5.4-3.2,10.6-5.1,12.1C149.5,178.8,146.2,178.4,144.3,175.3L144.3,175.3z M347.1,169c-1.1-0.6-2-1.6-2.6-2.8 c-1.4-3.1-1.1-13.8,0.6-20.5c1.5-6,7.2-19.4,7.9-18.7c0.2,0.2-0.4,2.6-1.3,5.4c-3.1,9.4-5.1,19.2-4.5,22.6c0.6,3.6,2.4,6,4.4,6 c1.5,0,4.1-2.6,5.6-5.5s1.8-1.6,0.8,2.8c-1.4,5.7-3.7,9.9-6,10.7S349.3,170,347.1,169L347.1,169z M190,153.5 c0-8.3-1.4-18.8-4.5-33.6c-3.8-18.3-2.5-24.4,5.7-28.1c3.6-1.6,4.2-2.2,3.4-3.1c-1.6-1.9-4.4-1.3-6.7,1.3l-2,2.5v-2.7 c0-4.1,1.5-8.7,3.6-10.8l1.9-1.9l-2-6c-2.4-7.3-6.2-16-7.4-16.7c-0.9-0.2-1.8-0.1-2.5,0.5c-1.4,0.8-2,0.8-3.8-0.3 c-1.4-0.9-2.7-2.1-3.7-3.4c-1.5-2-1.5-2.1,0.3-5.5c2.7-4.9,3.6-5.7,6-5.1c5.4,1.3,11.4,10.4,13.4,20.3c0.9,4.6,2.3,6.8,2.3,3.7 c0-2.4,4.2-19,5.4-21.5c1.9-3.7,5.1-6.8,7.2-6.8c3,0,6.6,4.3,6.6,7.9c0,1.6-0.4,3.1-1.2,4.5c-1.1,1.5-1.2,1.5-3.5-0.7 c-1.3-1.3-3-2.2-3.9-2c-2.1,0.4-4.8,6.2-6.3,13.4c-1.7,7.8-3.3,14.5-4,16.3c-0.4,1,0.2,1.7,2.3,2.6c2.5,1.3,4.8,3,6.9,4.9 c4.5,4.2,5.1,6.9,2.5,11.2c-1.2,2-2.6,2.8-7.8,4.3c-6.9,2-12.3,4.5-12.3,5.7c0,0.4,0.9,4.2,2,8.3c3.1,11.5,4.6,23.4,4.3,35.3 C191.7,160.1,190,164.4,190,153.5L190,153.5z M290.8,148.7c-4.2-2.9-7.7-5.6-7.9-6.1c-0.5-1.3,6.5-15.1,7.6-15.1 c1.4,0,15.5,9.6,16,10.9c0.1,1.3-0.1,2.6-0.6,3.7c-1.5,3.7-6.3,11.8-7,11.8C296.1,152.3,293.3,150.6,290.8,148.7L290.8,148.7z M312.2,106.7c-2.7-1.7-3.8-5.2-3.8-12.3c0-6-0.2-7-1.6-7.8c-0.9-0.6-1.5-1.5-1.6-2.5c0-1.9,2.9-6.6,4.4-7.2 c1.8-0.7,2.2,1.3,1.8,8.6s0.5,11.3,3,13c2.4,1.5,6.4-0.5,8.1-4.1c1.3-2.7,1.3-3.3,0.1-9.6c-1-5.3-1.1-7.3-0.4-9.2 c0.5-1.3,1.3-2.3,1.8-2.2c1,0.3,2.6,6.5,3.6,14.1c0.6,5,1.1,6.3,2.9,7.8c2.4,2.1,4.3,2.3,6.4,0.7c1.5-1.1,1.4-1.3-1.2-6.9 c-3.4-7.3-3.9-11.6-2-15.3l1.4-2.7l1,4c0.5,2.2,2,6.7,3.1,10.1c2,5.6,2.1,6.4,1.2,10.6c-2.1,10.2-9.9,12.6-14.1,4.3l-1.3-2.5 l-1.4,3.1c-0.7,1.7-1.8,3.2-3,4.6C318.6,107.1,314.1,107.9,312.2,106.7L312.2,106.7z M277.2,81.8c0.3-1.5,0.7-3,1.3-4.4 c1.2-3.3,1.5-3.4,9-6.2c4.2-1.5,21.9-8.1,39.3-14.5c38.4-14.3,36.2-13.6,35.5-11.3c-0.7,2.4-2.7,5.4-3.8,5.8 c-6.4,2.2-73.9,28.5-80.4,31.3c-0.3,0.2-0.7,0.1-0.9-0.2C277.2,82.2,277.2,82,277.2,81.8L277.2,81.8z M372.4,38.2 c0.3-1.5,0.8-3,1.3-4.4c1.3-3.5,1.6-3.9,6.2-5.5c2.7-1,20.3-7.5,39.3-14.5C457.3-0.4,458-0.7,458,0.4c0,1.9-2.9,6.4-4.3,6.9 c-4.5,1.4-67.8,26.1-80.3,31.2C372.9,38.7,372.4,38.6,372.4,38.2L372.4,38.2z"/>
</svg>