<?xml version="1.0" encoding="UTF-8" standalone="no"?>
<svg
   id="svg"
   version="1.1"
   width="432"
   height="432"
   viewBox="0 0 432 432.00001"
   sodipodi:docname="image2vector (12).svg"
   inkscape:version="1.1.2 (b8e25be833, 2022-02-05)"
   xmlns:inkscape="http://www.inkscape.org/namespaces/inkscape"
   xmlns:sodipodi="http://sodipodi.sourceforge.net/DTD/sodipodi-0.dtd"
   xmlns:xlink="http://www.w3.org/1999/xlink"
   xmlns="http://www.w3.org/2000/svg"
   xmlns:svg="http://www.w3.org/2000/svg">
  <defs
     id="defs8">
    <linearGradient
       inkscape:collect="always"
       id="linearGradient15618">
      <stop
         style="stop-color:#002b00;stop-opacity:1;"
         offset="0"
         id="stop15614" />
      <stop
         style="stop-color:#002b00;stop-opacity:0;"
         offset="1"
         id="stop15616" />
    </linearGradient>
    <linearGradient
       inkscape:collect="always"
       id="linearGradient11300">
      <stop
         style="stop-color:#fdd644;stop-opacity:1;"
         offset="0"
         id="stop11296" />
      <stop
         style="stop-color:#ffb603;stop-opacity:1"
         offset="1"
         id="stop11298" />
    </linearGradient>
    <linearGradient
       inkscape:collect="always"
       xlink:href="#linearGradient11300"
       id="linearGradient11302"
       x1="15.934441"
       y1="275.6972"
       x2="384.06555"
       y2="275.6972"
       gradientUnits="userSpaceOnUse"
       gradientTransform="translate(16,-59.697205)" />
    <linearGradient
       inkscape:collect="always"
       xlink:href="#linearGradient15618"
       id="linearGradient15620"
       x1="-16"
       y1="275.6972"
       x2="416"
       y2="275.6972"
       gradientUnits="userSpaceOnUse"
       gradientTransform="translate(16,-59.697205)" />
  </defs>
  <sodipodi:namedview
     id="namedview6"
     pagecolor="#ffffff"
     bordercolor="#666666"
     borderopacity="1.0"
     inkscape:pageshadow="2"
     inkscape:pageopacity="0.0"
     inkscape:pagecheckerboard="0"
     showgrid="false"
     inkscape:zoom="0.38856034"
     inkscape:cx="119.67253"
     inkscape:cy="262.50749"
     inkscape:window-width="1920"
     inkscape:window-height="1017"
     inkscape:window-x="-8"
     inkscape:window-y="-8"
     inkscape:window-maximized="1"
     inkscape:current-layer="svg"
     fit-margin-top="0"
     fit-margin-left="0"
     fit-margin-right="0"
     fit-margin-bottom="0" />
  <g
     id="g16558">
    <circle
       cx="216"
       cy="216"
       r="210"
       fill="#ffffff"
       stroke="#000000"
       stroke-width="8"
       id="circle15702"
       style="fill:#007e00;fill-opacity:1;stroke:#ffb705;stroke-width:12;stroke-miterlimit:4;stroke-dasharray:none;stroke-opacity:1" />
    <circle
       cx="216"
       cy="216"
       r="210"
       fill="#ffffff"
       stroke="#000000"
       stroke-width="8"
       id="circle7297"
       style="fill:url(#linearGradient15620);fill-opacity:1;stroke:#ffb705;stroke-width:12;stroke-miterlimit:4;stroke-dasharray:none;stroke-opacity:1" />
    <path
       id="path0-4"
       d="m 188.10175,31.375516 c -0.15802,0.15687 -0.28721,1.70942 -0.28721,3.44998 v 3.16277 l 5.47198,5.410839 c 9.66016,9.55174 13.15974,17.66166 12.34078,28.59524 -0.32873,4.37965 0.37257,5.22629 0.95506,1.15345 1.45681,-10.18845 -0.32642,-20.23617 -4.99329,-28.13847 -2.30229,-3.89867 -12.70643,-14.415849 -13.48732,-13.633809 m 105.13833,22.964089 c -3.6922,1.50294 -18.97775,7.74543 -23.76112,9.70399 -4.88833,2.00124 -17.36638,7.22176 -24.45319,10.22997 -3.93327,1.66904 -8.60475,3.64029 -10.38107,4.37966 -1.77631,0.73821 -4.16396,1.74171 -5.30588,2.22962 -8.22988,3.51111 -25.52244,10.85975 -29.10621,12.36847 -9.58058,4.03361 -32.94145,14.179375 -40.22434,17.467875 l -7.73621,3.4938 -2.11889,3.88829 c -1.16614,2.1385 -2.02315,3.98518 -1.90435,4.10399 0.11765,0.1188 4.44887,-1.67597 9.62441,-3.98749 15.81613,-7.06374 26.76816,-11.8598 43.09067,-18.868175 4.82143,-2.0693 10.84245,-4.66455 13.38004,-5.76494 5.08673,-2.20771 23.04367,-9.84241 32.06598,-13.63381 3.17199,-1.33339 7.1168,-2.99321 8.76623,-3.68874 1.64944,-0.69553 5.59425,-2.34266 8.76624,-3.65875 3.17199,-1.31724 6.90918,-2.87325 8.30486,-3.45805 6.05101,-2.53298 12.07318,-4.94716 16.14833,-6.47202 6.46395,-2.41764 6.4651,-2.41879 7.70506,-5.74419 1.57331,-4.21933 1.44066,-4.33929 -2.86056,-2.5895 m -168.03493,-0.56981 c -1.34262,1.77862 -5.35432,12.76641 -6.57583,18.01116 -2.42686,10.41913 3.10971,15.99492 11.17695,11.25884 8.10416,-4.75683 6.99915,-14.93028 -2.20194,-20.26615 -1.77631,-1.03003 -3.28388,-1.91358 -3.34962,-1.96433 -0.0669,-0.0496 0.16148,-0.90085 0.50636,-1.89282 0.65862,-1.88935 1.368,-5.72343 1.06002,-5.72343 -0.0992,0 -0.37602,0.25953 -0.61594,0.57673 m 1.03696,16.90961 c 5.47428,3.36923 5.7834,3.826 3.59646,5.31165 -4.27354,2.90439 -8.46288,0.98274 -8.46288,-3.88137 0,-4.35197 0.0807,-4.37504 4.86642,-1.43028 m 206.96163,13.1309 c -0.89739,1.08079 -9.74321,19.178435 -9.74321,19.932805 0,0.91469 0.79357,2.46954 1.8709,3.66221 0.71629,0.79356 0.93429,2.66562 1.55485,13.38005 0.84548,14.57156 1.8386,29.51453 2.82365,42.44704 1.16384,15.29939 2.47993,31.53654 2.95284,36.43871 0.24569,2.54336 0.66785,7.84232 0.93776,11.77559 0.26991,3.93328 0.69784,9.33143 0.9516,11.99591 0.2526,2.66447 0.98389,12.52649 1.62406,21.91559 2.93553,43.02377 3.60453,58.70495 3.31386,77.74268 -0.24914,16.36403 -0.14879,17.76317 1.27803,17.76317 2.0716,0 6.81806,-12.9971 9.7732,-26.76009 l 1.28725,-5.99795 -0.0346,-19.14731 c -0.0392,-21.52919 -0.37949,-27.79705 -4.07976,-75.20509 -0.64363,-8.24718 -1.28264,-15.92918 -1.41875,-17.07109 -0.13726,-1.14192 -0.65631,-7.26675 -1.15576,-13.61074 -1.18344,-15.0514 -2.94937,-35.38446 -4.1282,-47.52224 -1.09347,-11.26115 -1.08079,-10.98317 -0.47522,-10.60945 0.25606,0.15918 2.14657,2.37957 4.20087,4.93562 10.16537,12.64991 10.26572,8.27718 0.43946,-19.12654 -8.22411,-22.937545 -10.69019,-28.485655 -11.97283,-26.938875 m -34.88847,9.29683 c -1.75671,0.80972 -2.87902,1.27802 -26.5294,11.092745 -18.9766,7.87346 -35.67628,14.87146 -38.52531,16.14371 -2.08775,0.93199 -11.19195,4.80529 -14.07212,5.98527 -8.53208,3.49957 -43.81388,18.88662 -48.2143,21.02859 -2.97591,1.44873 -8.49402,8.45826 -7.4663,9.48483 0.10035,0.10035 4.93562,-1.92626 10.74556,-4.50307 5.80879,-2.57797 13.15743,-5.82033 16.32943,-7.20677 16.21638,-7.08566 19.89013,-8.68435 23.06904,-10.04196 1.9032,-0.81203 10.10424,-4.32199 18.22455,-7.79734 8.1203,-3.4765 16.00992,-6.84804 17.53247,-7.49282 1.52256,-0.64478 3.39115,-1.44413 4.15243,-1.77632 6.19635,-2.706 39.28428,-16.48745 42.90843,-17.87159 1.68058,-0.641325 1.93433,-0.966595 2.84326,-3.646065 1.50294,-4.43155 1.4718,-4.53767 -0.99774,-3.39921 M 100.43361,122.316 c -0.664391,2.92169 0.2503,20.24192 1.30802,24.76808 0.7705,3.30001 2.09928,29.31613 1.64828,32.28396 -0.52598,3.4569 -2.71523,8.35792 -4.470781,10.00736 l -1.02658,0.96428 -0.23761,-1.09578 c -0.37833,-1.75093 -1.13845,-12.60954 -0.89969,-12.84829 0.38064,-0.38064 0.94352,0.90891 1.51794,3.47534 0.58711,2.62526 1.23881,3.51111 1.70019,2.31036 0.444081,-1.15806 -1.50756,-9.66707 -2.80404,-12.22658 -0.9689,-1.91242 -1.27341,-3.4073 -1.63098,-7.99804 -1.11539,-14.30512 -2.35651,-27.28491 -3.03358,-31.71302 -1.167295,-7.637 -1.320705,-8.34984 -1.810922,-8.38905 -0.598642,-0.0485 -2.053145,4.64956 -1.812073,5.85146 0.610176,3.03935 3.158155,32.94952 2.835185,33.27364 -0.10612,0.10611 -1.833989,-1.61138 -3.837535,-3.81562 -2.0047,-2.20425 -3.855991,-4.23202 -4.115518,-4.50654 -6.948397,-7.3671 -8.526319,-9.49407 -8.526319,-11.493 0,-1.11423 -0.131494,-3.0405 -0.291824,-4.28161 l -0.291823,-2.25616 1.582536,1.49949 c 0.870857,0.82472 1.71403,1.49949 1.87436,1.49949 0.530588,0 -2.995515,-10.98433 -4.364663,-13.59805 l -0.670156,-1.27918 -0.965439,1.56062 c -1.481033,2.39688 -1.998933,4.05208 -1.542166,4.9264 0.499445,0.95852 0.936603,8.85159 0.489064,8.85159 -0.3172,0 -4.124746,-4.83873 -4.124746,-5.24244 0,-0.11304 0.830486,-0.0946 1.845524,0.0415 1.015038,0.13611 1.845524,0.11766 1.845524,-0.0392 0,-0.35988 -8.810069,-7.67854 -9.242614,-7.67854 -0.990815,0 -0.836252,5.33126 0.18686,6.45703 0.577879,0.63555 1.75094,2.27576 2.605648,3.64376 0.855862,1.36799 2.968987,4.33698 4.695705,6.59659 l 3.14085,4.10744 0.690918,8.63013 c 0.379486,4.74531 1.000043,12.15854 1.378376,16.47245 1.281485,14.62924 2.13504,27.67248 1.992012,30.43846 l -0.141875,2.75559 -2.734835,1.39683 c -3.727958,1.90435 -10.081173,2.07045 -11.953226,0.31374 -2.399181,-2.25153 -3.667979,-6.9507 -4.219329,-15.62466 l -0.269908,-4.25047 1.889355,-1.97817 c 3.957495,-4.1409 4.150122,-6.2817 0.267601,-2.96438 l -2.509912,2.14427 -0.701299,-1.96317 c -0.386406,-1.07963 -0.888158,-2.58604 -1.115388,-3.34732 -0.927376,-3.09587 -2.666782,1.00119 -2.180025,5.13286 l 0.279135,2.36458 -3.10394,1.95971 c -9.055754,5.71997 -13.189726,16.61087 -6.303616,16.61087 1.42336,0 1.542165,0.0992 1.241114,1.03811 -5.010596,15.62005 3.039347,27.75898 17.057253,25.72083 11.233471,-1.63329 29.656411,-12.75142 33.062551,-19.95473 1.35877,-2.87324 1.53525,-2.90093 2.00009,-0.3195 0.23184,1.28956 -0.0565,2.44993 -1.353,5.44314 -3.876752,8.94387 -3.5261,16.41017 0.70707,15.06639 1.62867,-0.51674 4.152431,-6.05447 3.34962,-7.34864 -0.16955,-0.27452 -0.54097,0.33219 -0.82472,1.34723 -0.99889,3.57109 -4.36005,2.24808 -4.36005,-1.71518 0,-1.74748 1.37377,-6.33361 2.65756,-8.86774 l 0.6863,-1.35646 0.68861,1.35646 c 1.12116,2.2054 3.318491,4.2274 5.717671,5.25974 1.60099,0.68861 2.24577,1.22727 2.24577,1.87551 0,1.15345 0.77281,1.1869 1.13384,0.0496 0.20647,-0.65055 0.90546,-0.93545 2.87095,-1.16614 4.11782,-0.4833 10.36492,-2.46262 17.16337,-5.43622 9.92545,-4.34044 12.88983,-5.45583 14.50466,-5.45583 1.36915,0 1.62175,-0.233 2.75675,-2.54798 1.53294,-3.12585 1.53755,-2.98859 -0.098,-2.98859 -2.15927,0 -8.99924,-1.75555 -15.72387,-4.03593 -3.42575,-1.16153 -7.57818,-2.45455 -9.22646,-2.87325 -3.13739,-0.79703 -4.56421,-2.31844 -2.17426,-2.31844 3.43037,0 13.14244,-3.11663 21.5511,-6.91725 2.91824,-1.3184 5.92875,-2.67024 6.69003,-3.00474 1.86744,-0.81896 5.11556,-1.66098 5.81224,-1.50757 0.31144,0.0692 1.14769,-1.01619 1.85937,-2.41187 l 1.29302,-2.53759 -5.08557,-1.02542 c -2.79712,-0.56404 -7.82502,-1.94933 -11.17234,-3.07741 -14.13671,-4.76837 -17.89697,-5.36125 -21.54303,-3.40153 -4.57344,2.45801 -6.04755,7.13525 -4.18357,13.27277 1.19382,3.93212 1.09001,4.18704 -0.97121,2.37727 -3.56186,-3.12816 -3.68989,-3.79024 -5.24474,-27.0623 -1.19844,-17.93849 -3.12355,-36.26454 -4.14897,-39.49536 -0.50983,-1.60445 -1.05772,-0.90546 -1.77978,2.27 m 15.20135,-2.12005 c -1.04503,1.49142 -0.97698,2.58143 0.0992,1.60676 0.55943,-0.50637 1.0335,-0.60441 1.49949,-0.30912 1.01273,0.64131 1.37376,0.53981 1.37376,-0.38526 0,-1.93549 -1.85705,-2.5053 -2.97244,-0.91238 m -6.89765,1.08886 c -0.55135,1.43605 -0.25606,2.06468 1.32417,2.81788 1.28956,0.61479 1.75324,1.22497 2.36342,3.1074 0.96313,2.97014 1.43836,3.48228 1.82015,1.96087 0.20531,-0.81664 0.0646,-1.44643 -0.43601,-1.94587 -0.40601,-0.40602 -0.73821,-1.04272 -0.73821,-1.41644 0,-1.14076 -1.79592,-4.27239 -2.73945,-4.7776 -1.16614,-0.62402 -1.26418,-0.60787 -1.59407,0.25376 m 5.82494,4.34505 c 0,0.88816 0.0946,1.2515 0.21108,0.80742 0.11534,-0.44408 0.11534,-1.17075 0,-1.61483 -0.1165,-0.44408 -0.21108,-0.0807 -0.21108,0.80741 m 12.11932,2.04623 c -9.00385,3.64606 -16.59241,7.43285 -17.15414,8.55862 -0.64017,1.28379 -0.451,1.75324 0.41755,1.04041 0.65401,-0.53636 13.33391,-6.2794 17.65935,-7.99804 2.82365,-1.12346 3.44075,-1.58946 3.45344,-2.60911 0.009,-0.75551 -0.0646,-0.73821 -4.3762,1.00812 m -45.129976,6.06139 c -2.576812,5.25282 -2.666781,11.27038 -0.168404,11.27038 1.634442,0 4.376198,-4.3958 3.369234,-5.40277 -0.237611,-0.23876 -0.459074,0.21224 -1.00927,2.05776 -0.237611,0.79704 -1.373762,0.72206 -2.243465,-0.14879 -1.034647,-1.0335 -0.899693,-3.18238 0.430238,-6.84805 1.424513,-3.9275 1.273411,-4.29776 -0.378333,-0.92853 m 51.615836,-1.08424 c -0.39563,0.56403 -0.69438,1.65405 -0.66439,2.42225 l 0.0554,1.39683 0.29413,-1.37838 c 0.31835,-1.48449 1.75555,-2.14542 2.40033,-1.1027 0.29413,0.47753 0.44178,0.43716 0.68054,-0.18455 0.79704,-2.07506 -1.46142,-3.01628 -2.76598,-1.15345 m -78.666598,0.79472 c -0.492524,0.49253 -1.036954,1.64483 -1.208818,2.55836 -0.382947,2.04277 0.0519,2.69793 0.48445,0.73014 0.317199,-1.44413 2.098129,-2.05199 2.77982,-0.94814 0.447539,0.72437 1.148838,0.0554 1.148838,-1.09693 0,-2.0866 -1.701342,-2.74637 -3.20429,-1.24343 m 71.768958,0.29413 c -0.48445,1.26073 -0.32758,1.53525 1.55139,2.721 1.52371,0.96198 1.95972,1.59522 2.58835,3.75795 0.53405,1.8386 0.87431,2.41417 1.16037,1.96433 0.52367,-0.82703 0.5352,-2.71408 0.0162,-2.71408 -0.22031,0 -0.65055,-0.88239 -0.95506,-1.96087 -0.94122,-3.33232 -3.63568,-5.66114 -4.3612,-3.76833 m -80.700139,1.00005 c -1.209972,2.15695 -0.622865,3.24812 2.667935,4.9633 0.569805,0.29644 1.373761,1.82246 2.139654,4.06016 l 1.227273,3.58492 0.512133,-1.47065 c 0.615943,-1.76363 0.671309,-3.33117 0.106117,-2.98167 -0.223769,0.13841 -0.887004,-1.02888 -1.471805,-2.59412 -1.483339,-3.96556 -4.349668,-7.04297 -5.181307,-5.56194 m 71.321419,5.93451 c 0.0796,2.37957 -0.0623,3.15815 -0.64363,3.53418 -1.49718,0.97005 -2.25384,0.0807 -2.25384,-2.64833 0,-1.40375 -0.20763,-2.55259 -0.46139,-2.55259 -0.6194,0 -0.58826,4.11206 0.045,5.92875 0.68861,1.97586 2.41187,2.01046 3.41537,0.0692 0.85586,-1.65405 1.24458,-1.72787 1.85129,-0.34834 0.5329,1.21113 1.83284,1.58138 2.78444,0.79127 0.94698,-0.7855 0.83163,-3.67836 -0.24223,-6.04409 l -0.91238,-2.01162 0.006,1.61483 c 0.003,0.88816 0.30336,2.13389 0.66554,2.76829 0.96429,1.6875 0.83856,2.3069 -0.47176,2.3069 -1.26303,0 -1.6033,-0.5698 -2.54913,-4.26777 -0.79242,-3.1051 -1.35069,-2.71523 -1.23304,0.85932 m -64.153867,-0.2826 c 0,0.88816 0.09458,1.2515 0.211082,0.80742 0.115345,-0.44408 0.115345,-1.17075 0,-1.61483 -0.116499,-0.44408 -0.211082,-0.0807 -0.211082,0.80741 m 79.480937,5.77649 c -17.35023,7.79734 -20.89017,9.49407 -21.7172,10.4076 -1.586,1.75325 -0.26991,1.60561 3.97826,-0.44523 2.42456,-1.17075 5.33126,-2.52491 6.45933,-3.00936 16.74121,-7.18831 23.21784,-10.41913 22.97331,-11.4607 -0.11996,-0.50982 -2.9909,0.59749 -11.6937,4.50769 m -70.901559,0.35757 c -3.739492,2.84788 -3.899822,5.73151 -0.497138,8.94618 l 2.062373,1.94818 -0.922762,1.17191 c -1.542166,1.96087 -11.292298,10.03849 -17.216429,14.26474 -6.454719,4.60343 -6.583905,5.06481 -0.393327,1.41067 7.566647,-4.46501 9.307207,-5.77302 14.508123,-10.89551 2.790201,-2.74867 5.319722,-4.90332 5.620773,-4.78798 1.377222,0.52828 1.487953,1.91819 0.346036,4.30469 -1.681734,3.51457 -2.706,8.94848 -2.056606,10.91627 1.12923,3.42114 3.992098,2.21578 5.334717,-2.24808 0.701299,-2.32997 0.254913,-2.89055 -0.567499,-0.71399 -0.550196,1.45912 -1.815534,1.83169 -2.81673,0.83049 -1.056562,-1.05656 -0.61133,-4.72569 1.13269,-9.3372 l 1.686347,-4.46155 -0.915841,-1.22612 c -0.906613,-1.21458 -0.906613,-1.2538 -0.03691,-4.01286 2.060065,-6.53085 -0.625171,-9.64517 -5.267817,-6.10984 m 236.656109,0.12573 c -3.76948,2.46839 -5.24013,6.22403 -6.13521,15.65581 -0.73475,7.74774 -1.97586,15.95686 -2.49722,16.51628 -0.18802,0.20301 -0.70361,-0.8351 -1.14538,-2.3069 -3.0405,-10.13885 -4.75915,-14.30397 -7.67161,-18.5925 -5.68537,-8.3706 -11.85518,-9.35796 -12.63492,-2.02316 -0.15917,1.49372 -0.37487,3.25735 -0.47868,3.92059 -0.29875,1.89973 7.89999,8.23565 8.86774,6.85381 0.87316,-1.24573 1.14192,-0.99658 3.56186,3.30695 2.71523,4.8272 5.04174,11.1112 6.04178,16.31673 0.43947,2.28384 0.97582,4.34852 1.19267,4.58959 1.75325,1.93665 5.11441,-11.93708 6.78807,-28.01851 0.94583,-9.09497 4.37504,-11.53221 9.17456,-6.52277 2.43724,2.54336 2.11197,2.70023 3.57685,-1.71634 1.43836,-4.33698 1.30341,-4.74991 -2.49376,-7.66469 -2.32651,-1.78439 -3.78678,-1.85936 -6.14675,-0.31489 m -233.609841,1.54793 c 1.043874,1.15345 1.446429,4.22279 0.730135,5.5608 -0.523667,0.97928 -5.542338,-2.81789 -5.542338,-4.19511 0,-1.45104 3.767175,-2.52029 4.812203,-1.36569 m -20.45763,2.03585 c -3.866372,8.28063 -4.429257,15.071 -1.250342,15.071 1.508715,0 3.977103,-3.61607 3.977103,-5.82493 0,-0.71168 -0.817797,0.0854 -1.243421,1.21112 -0.605563,1.60561 -1.500642,1.76248 -2.671396,0.46831 -1.124616,-1.24227 -0.728982,-4.39466 1.137304,-9.0523 1.649437,-4.12013 1.682887,-5.36932 0.05075,-1.8732 m 101.692973,0.0934 c -0.76128,0.35757 -2.83749,1.30109 -4.61381,2.09813 -1.77632,0.79588 -4.06015,1.8236 -5.07519,2.28383 -1.01504,0.46023 -5.79033,2.59181 -10.61176,4.73838 -12.11817,5.39355 -12.99941,5.85493 -13.55999,7.0822 -0.67015,1.47065 -0.32296,1.39452 4.51346,-0.99428 2.31152,-1.14191 4.30122,-2.07621 4.42234,-2.07621 0.12226,0 1.83399,-0.73821 3.80639,-1.64021 4.71762,-2.15696 4.13974,-1.89743 14.19784,-6.38436 6.90918,-3.08318 8.79738,-4.11321 8.91388,-4.86411 0.17071,-1.10154 -0.0969,-1.13384 -1.99316,-0.24337 m -67.964875,1.53178 c 0.332194,0.47176 2.80981,3.22275 5.506581,6.1133 7.282898,7.80656 9.134193,10.11116 9.379873,11.68101 0.26645,1.70365 1.63444,21.13355 1.63444,23.21784 0,1.7048 -2.23885,3.41306 -10.56562,8.06263 -5.403924,3.01743 -5.43622,3.01859 -4.718773,0.17187 0.636706,-2.52837 0.670156,-10.6579 0.06575,-15.96148 -0.245686,-2.15695 -0.867396,-9.52751 -1.380683,-16.37902 -0.514439,-6.85151 -1.066943,-13.65111 -1.228426,-15.11022 -0.310279,-2.7879 0.158023,-3.43037 1.306861,-1.79593 m 71.609782,6.41666 c -0.79242,0.52943 -1.57101,2.24692 -1.55024,3.42344 0.0173,1.03119 0.0427,1.02427 0.70706,-0.2007 0.74513,-1.37376 1.52948,-1.59753 2.43148,-0.69553 0.45561,0.45561 0.66093,0.43254 1.00812,-0.11535 1.0208,-1.61598 -0.99082,-3.48458 -2.59642,-2.41186 m -8.34177,1.40375 c -0.49252,0.30566 -0.77512,1.48795 -0.66208,2.76482 0.0288,0.33104 0.77281,0.90085 1.65174,1.2688 1.78785,0.74628 2.35997,1.60676 3.51572,5.28281 0.82818,2.63218 1.88013,1.99663 1.7694,-1.0681 -0.0208,-0.60094 -0.13726,-0.75205 -0.28721,-0.37487 -0.13841,0.34834 -0.82241,-0.8351 -1.52025,-2.62756 -0.69784,-1.79362 -1.55485,-3.53187 -1.9055,-3.86291 -1.40375,-1.32763 -2.0716,-1.68866 -2.56182,-1.38299 m 6.42819,4.93331 c 0.005,1.01504 0.0992,1.37607 0.20993,0.80165 0.11073,-0.57326 0.10612,-1.40375 -0.009,-1.84552 -0.11535,-0.44062 -0.20647,0.0288 -0.2007,1.04387 m -111.190494,6.53431 c -4.889484,10.22189 -5.600011,18.37449 -1.685194,19.35608 2.253846,0.56635 5.561947,-3.95634 5.691134,-7.78119 0.0496,-1.45681 -0.679384,-0.84548 -1.370302,1.14884 -0.810877,2.33805 -1.91127,2.71177 -3.535331,1.19959 -1.878974,-1.74863 -1.362227,-6.49047 1.42336,-13.049 2.824805,-6.65542 2.500685,-7.19639 -0.523667,-0.87432 m 206.878584,-2.26077 c -1.3726,4.89064 -0.86624,7.1341 3.42806,15.17251 2.68178,5.01867 2.60796,4.57806 0.91008,5.45699 -5.18938,2.68293 -9.6371,-1.47873 -10.65675,-9.97044 -0.68515,-5.70498 -2.99667,-12.85638 -4.15473,-12.85638 -0.21108,0 -0.84433,1.43028 -1.40721,3.17891 l -1.02427,3.17776 1.02196,2.51914 c 3.50534,8.63474 0.72552,16.1887 -5.67037,15.40551 -3.62415,-0.44293 -4.40158,-2.47992 -4.42234,-11.59335 -0.0127,-5.80186 -0.54443,-9.45831 -1.37607,-9.45831 -1.11885,0 -2.43494,6.02794 -1.79592,8.22642 0.39102,1.34608 0.58595,3.97249 0.5202,6.99915 -0.18686,8.53209 1.19267,12.34771 4.82951,13.35121 4.68648,1.29418 9.11227,-2.60219 10.93819,-9.63017 l 0.53174,-2.04622 1.29532,3.55147 c 4.26432,11.6937 14.31204,8.83891 14.33626,-4.07284 l 0.0104,-5.07519 -2.14542,-4.6138 c -1.17998,-2.5376 -2.50299,-5.75573 -2.94015,-7.15141 -1.11885,-3.57109 -1.36914,-3.63453 -2.22847,-0.57096 m -158.640057,3.63338 c -3.629914,7.89307 -3.78563,14.44122 -0.329887,13.92909 1.430281,-0.21224 2.655247,-2.09698 2.947071,-4.53422 l 0.247992,-2.07622 -0.621711,1.61484 c -1.16614,3.0255 -3.756794,1.65981 -3.616073,-1.90666 0.07497,-1.91243 2.024309,-7.94844 2.913621,-9.02 0.26414,-0.3172 0.400248,-0.81434 0.303358,-1.10501 -0.09689,-0.29067 -0.927376,1.10386 -1.844371,3.09818 m 42.385917,4.03477 c 2.23885,0.60441 5.93912,1.76479 8.22296,2.57797 2.28383,0.81434 4.61957,1.58946 5.19053,1.72326 2.19848,0.51559 1.23074,1.12577 -6.89072,4.34505 -8.1676,3.23659 -16.69392,4.75453 -17.17952,3.0578 -0.62863,-2.19732 -2.21809,-9.04883 -2.27461,-9.80434 -0.20301,-2.71061 6.35783,-3.6749 12.93136,-1.89974 m -58.701499,7.0326 c -4.117825,9.16995 -4.286229,15.71348 -0.380639,14.7342 1.281485,-0.32297 2.933229,-3.35308 2.9067,-5.33356 -0.01384,-0.98851 -0.09458,-0.92392 -0.567499,0.45561 -1.098087,3.21006 -3.549173,1.91243 -3.549173,-1.87897 0,-1.53525 0.527128,-3.58724 1.611373,-6.27709 1.833989,-4.54806 1.818994,-5.79725 -0.02076,-1.70019 m 38.525307,2.38765 c 1.18921,3.94827 2.90324,6.12483 6.09599,7.74197 2.82712,1.43374 2.83058,2.0393 0.009,2.0393 -7.42246,0 -11.53221,6.90688 -8.80315,14.79303 1.2019,3.47304 0.99082,3.71758 -1.36914,1.586 -3.949431,-3.56763 -5.661151,-13.64534 -2.962071,-17.43098 2.399181,-3.36231 5.112101,-10.11462 5.232061,-13.02016 l 0.0381,-0.92277 0.37257,0.92277 c 0.20531,0.50751 0.82933,2.43839 1.38645,4.29084 m 79.38174,-3.22159 c 0,0.23645 -1.66789,3.87098 -3.70604,8.07532 -10.18383,21.01013 -11.04431,36.71669 -2.01393,36.75706 3.88713,0.0161 7.33941,-5.23091 8.88619,-13.50808 0.55597,-2.97706 -0.81318,-4.71762 -1.51448,-1.92396 -1.50525,5.99449 -2.9413,7.4167 -6.01641,5.95758 -4.97599,-2.36111 -4.22394,-11.14811 2.23655,-26.13953 2.60103,-6.03487 3.38999,-8.87005 2.60334,-9.35565 -0.26068,-0.16264 -0.47522,-0.10036 -0.47522,0.13726 m -132.235231,6.81228 c 1.532938,3.99556 -0.476376,7.1145 -5.358939,8.31986 -7.699294,1.89973 -7.829634,-1.32763 -0.251453,-6.27824 4.522686,-2.954 5.169773,-3.19045 5.610392,-2.04162 m 83.106231,3.86868 c -1.53524,3.02897 -1.55716,2.96092 1.45797,4.5942 3.29195,1.78324 3.07741,1.81669 4.49269,-0.71514 1.56409,-2.79942 1.61714,-2.64832 -1.59983,-4.53422 -3.42114,-2.0047 -2.96899,-2.07275 -4.35083,0.65516 m -82.694882,15.00992 c -1.84437,3.73949 -2.679469,9.65324 -1.470651,10.41913 1.724411,1.09117 3.448822,-0.40832 3.892901,-3.38538 l 0.22377,-1.49718 -0.504059,1.2688 c -1.025419,2.57912 -3.488039,1.09693 -3.07395,-1.85014 0.32066,-2.2896 2.136194,-7.03145 2.691004,-7.03145 0.241072,0 0.655161,0.57096 0.918148,1.2688 2.750984,7.2829 15.189813,7.07182 19.584466,-0.33104 0.752051,-1.26649 1.575616,-2.30806 1.829376,-2.31267 1.1696,-0.0231 12.652218,-3.45344 14.232446,-4.25163 2.19617,-1.11077 2.05891,-1.29878 2.18464,3.00129 l 0.10496,3.593 -1.80169,1.84552 c -4.636877,4.74877 -17.088394,11.8079 -25.471685,14.43892 -14.331645,4.50077 -24.482025,-3.96903 -21.451906,-17.90158 0.404862,-1.86629 0.551351,-2.00239 3.552633,-3.33578 1.060023,-0.47177 2.38534,-1.63098 3.2239,-2.82135 l 1.424513,-2.02085 0.753204,3.83639 0.752051,3.83753 -1.594071,3.22967 m 330.757052,-7.3348 c -4.74068,2.36227 -12.53571,10.72364 -12.53571,13.44579 0,2.15465 2.08198,4.82604 5.51119,7.07066 l 1.10616,0.72437 -1.48911,2.16388 c -3.81792,5.55156 -3.36,6.46164 1.42567,2.82826 3.1247,-2.37496 16.44938,-9.43985 17.80008,-9.43985 0.32988,0 1.21343,-1.36915 1.96433,-3.04166 1.22959,-2.7406 1.66905,-4.34044 1.19152,-4.34044 -0.58596,0 -4.36698,1.58023 -8.15953,3.41076 l -4.40965,2.12812 -2.37496,-0.70476 c -6.07523,-1.804 -8.06263,-5.13171 -3.97825,-6.66003 3.55609,-1.32993 4.89871,-1.13615 5.46505,0.78781 0.67939,2.31036 1.53179,1.81092 3.31387,-1.94126 2.91362,-6.13637 0.64363,-9.15957 -4.83066,-6.43165 m -260.29726,3.38999 c 8.85505,2.98052 8.74547,2.86518 4.5273,4.78683 -11.97515,5.45813 -22.05978,7.22868 -22.05978,3.87444 0,-0.58941 -0.51444,-2.82711 -1.14422,-4.97137 -1.43951,-4.90794 -1.5018,-4.4754 0.79819,-5.55503 3.51341,-1.65059 9.20224,-1.05656 17.87851,1.86513 m 12.90021,10.69596 c -4.03017,8.17452 -4.79721,14.91414 -1.80516,15.86343 1.99663,0.63325 4.68071,-3.157 4.55499,-6.4328 -0.0277,-0.73244 -0.14995,-0.63209 -0.52252,0.42793 -0.92045,2.61718 -1.95971,3.18238 -3.32886,1.81207 -1.51679,-1.51563 -0.44408,-7.39939 2.32421,-12.75372 0.38986,-0.7532 0.60094,-1.47988 0.46714,-1.61252 -0.13264,-0.1338 -0.89392,1.07963 -1.6898,2.69561 m 121.18746,3.74526 c -5.01406,13.80913 -5.52042,16.63625 -3.35424,18.73553 1.12692,1.09232 1.70711,2.21232 2.13504,4.12705 1.23535,5.53081 8.75355,24.72079 10.60945,27.08191 0.19955,0.25376 4.07861,7.83194 8.61975,16.8404 8.95541,17.76317 10.77671,22.302 11.11813,27.70246 l 0.22031,3.47997 -1.56985,1.19728 c -6.18366,4.71762 -18.31105,4.55614 -26.68973,-0.35526 -11.37765,-6.66811 -16.48629,-17.04456 -21.67222,-44.02035 -4.33928,-22.5673 -7.46514,-32.5931 -14.24167,-45.67671 -3.65644,-7.06028 -4.72339,-7.91499 -5.61962,-4.49847 -0.2826,1.07848 -0.80742,2.99898 -1.16729,4.26778 -2.34382,8.27832 -2.8721,12.91866 -1.85245,16.29251 0.35872,1.18921 1.72441,5.66922 3.03358,9.95545 13.04324,42.69965 11.38227,57.39809 -7.7166,68.26592 -25.74736,14.65115 -44.74356,-2.91478 -40.09169,-37.07196 0.39679,-2.91823 1.36223,-9.97736 2.14542,-15.68695 3.28734,-23.98489 0.75897,-32.78458 -6.80075,-23.66423 -5.40739,6.52508 -9.44216,19.16115 -15.58314,48.80949 -0.68285,3.29887 -1.52602,7.24368 -1.87321,8.76624 -0.34719,1.52255 -1.38991,6.09022 -2.31728,10.15038 -3.43614,15.04217 -9.41218,21.57993 -19.09425,20.88671 -13.29239,-0.95044 -21.30196,-21.27773 -20.0124,-50.78074 0.29182,-6.67387 0.32758,-6.85842 1.6206,-8.30485 0.72783,-0.81434 2.09698,-2.47993 3.04281,-3.70143 1.95856,-2.53183 1.45335,-2.5226 8.06032,-0.13034 7.99689,2.89516 9.67401,2.77982 11.49531,-0.79012 3.86868,-7.58395 -5.10518,-24.90534 -15.45396,-29.82943 -5.22168,-2.48453 -9.43408,2.25039 -7.20907,8.10185 0.41985,1.10501 0.30912,1.4349 -0.89624,2.68293 -5.0971,5.27705 -4.40157,12.35694 1.50757,15.35015 l 2.35419,1.19382 -3.66567,3.4569 c -5.95527,5.61846 -11.834421,10.55524 -22.847584,19.18537 -19.153075,15.00872 -21.411535,16.91191 -20.059689,16.91191 0.438312,0 14.187463,-8.39597 20.290379,-12.39038 6.621973,-4.33352 8.549393,-5.77995 13.513843,-10.14461 3.674901,-3.23082 4.197421,-3.33925 3.257351,-0.68054 -1.13499,3.21121 -0.85124,23.63424 0.41986,30.13625 4.21126,21.54649 15.07793,34.83426 28.48566,34.83426 10.69365,0 16.08604,-6.36014 19.36416,-22.83836 0.68169,-3.42575 1.63098,-8.20104 2.10851,-10.61176 1.26072,-6.35091 3.57454,-19.08617 4.15012,-22.83835 1.76939,-11.52415 5.22744,-21.52342 8.99231,-25.99882 2.77751,-3.30003 2.68293,0.0311 -0.49022,17.2568 -7.7685,42.17598 3.70835,65.43881 31.04287,62.91736 19.18075,-1.77055 32.72805,-17.43097 36.39257,-42.07102 0.87778,-5.90221 1.11539,-6.13406 1.99432,-1.95394 4.41311,20.9836 16.62816,36.89201 30.26197,39.41231 16.12296,2.98052 26.44059,-6.16636 30.92636,-27.41641 2.87671,-13.63035 0.86625,-20.99052 -13.7007,-50.15211 -10.23574,-20.48992 -12.31657,-25.28713 -10.6579,-24.56738 9.36026,4.05785 9.52175,2.47301 0.8697,-8.51824 -3.11432,-3.95634 -6.26671,-8.02341 -7.00376,-9.03845 -4.81105,-6.61967 -5.39585,-7.00953 -6.39128,-4.26778 m 51.07487,3.84792 c -5.4443,11.37765 -7.16294,16.56127 -7.80426,23.53389 -0.64363,7.0003 2.62987,11.30383 7.1687,9.4237 2.56644,-1.06233 5.59886,-7.17216 5.73036,-11.5449 0.0888,-2.95976 -0.68169,-2.81904 -1.77055,0.32181 -1.22958,3.54687 -1.44989,3.83062 -2.97706,3.83062 -6.0787,0 -5.88953,-8.91388 0.49829,-23.43123 3.63799,-8.26564 2.93553,-10.03619 -0.84548,-2.13389 m -191.17318,-0.84894 c -0.61595,1.20536 -1.18575,2.32536 -1.26765,2.488 -0.17302,0.34834 4.94831,3.62876 5.64846,3.61838 0.4014,-0.006 3.01397,-4.18127 3.01397,-4.81567 0,-0.21454 -5.69229,-3.48227 -6.06601,-3.48227 -0.11534,0 -0.71283,0.9862 -1.32877,2.19156 m -34.360196,25.56626 c -3.992098,2.19848 -5.429299,5.77995 -6.439724,16.04683 -0.741669,7.5505 -1.556007,12.48381 -2.058912,12.48381 -0.167251,0 -0.994276,-2.33574 -1.838603,-5.19053 -5.113254,-17.29487 -15.660421,-25.71853 -16.869239,-13.47233 l -0.32066,3.25159 3.511109,2.68985 c 3.326556,2.54797 3.556093,2.64832 4.364663,1.91703 1.719797,-1.556 7.034905,9.78935 8.405207,17.9408 0.35757,2.13158 0.803956,3.47535 1.152299,3.47535 1.500641,0 4.443098,-11.97859 5.27243,-21.45421 0.944677,-10.80207 3.238894,-13.38351 7.998038,-8.99693 2.547976,2.34958 2.39226,2.40956 3.542252,-1.37491 l 0.978125,-3.22159 -1.079629,-1.33109 c -2.329973,-2.87094 -4.65764,-3.8433 -6.617356,-2.76367 m 31.041706,4.42349 c 1.87898,2.69908 2.61834,7.81002 1.37031,9.47447 -0.52483,0.70013 -0.90316,0.59402 -4.21933,-1.18115 -4.8941,-2.61949 -5.82724,-3.84792 -4.51923,-5.94835 2.13158,-3.42114 5.80417,-4.59074 7.36825,-2.34497 m 10.54486,8.05687 c 2.78559,3.46958 4.1582,5.75457 3.7222,6.19173 -0.91815,0.91814 -12.27966,-3.11894 -11.53222,-4.09706 0.5675,-0.74282 1.34262,-2.8248 1.97932,-5.31511 l 0.50291,-1.96894 1.49949,1.14423 c 0.82472,0.62863 2.54797,2.44878 3.8283,4.04515 m 111.11898,102.86142 c -3.16161,2.77636 -4.00132,5.40046 -5.06827,15.84612 -0.74628,7.31288 -1.75094,12.47113 -2.20078,11.30383 -0.14649,-0.38064 -1.00812,-3.0382 -1.91358,-5.90683 -4.56306,-14.4493 -14.41354,-23.73344 -16.14026,-15.21288 -0.94929,4.68187 -0.77396,5.78803 1.1869,7.4663 4.09476,3.50419 5.412,4.2078 6.10638,3.2585 1.48795,-2.03353 7.34288,10.93012 8.46749,18.74706 1.04734,7.27483 4.58613,-3.55609 6.32208,-19.34454 0.94006,-8.55863 1.71633,-10.21036 4.80528,-10.2242 1.20305,-0.006 1.97125,0.41062 3.39922,1.8386 2.2723,2.27229 1.94126,2.39341 3.11778,-1.14308 1.97817,-5.94605 -3.6253,-10.5414 -8.08224,-6.62889"
       stroke="none"
       fill="#f3f4cb"
       fill-rule="evenodd"
       style="fill:url(#linearGradient11302);fill-opacity:1;stroke-width:1.15345" />
  </g>
</svg>
