<?xml version="1.0" encoding="UTF-8" standalone="no"?>
<!-- Created with Inkscape (http://www.inkscape.org/) -->

<svg
   xmlns:dc="http://purl.org/dc/elements/1.1/"
   xmlns:cc="http://creativecommons.org/ns#"
   xmlns:rdf="http://www.w3.org/1999/02/22-rdf-syntax-ns#"
   xmlns:svg="http://www.w3.org/2000/svg"
   xmlns="http://www.w3.org/2000/svg"
   xmlns:sodipodi="http://sodipodi.sourceforge.net/DTD/sodipodi-0.dtd"
   xmlns:inkscape="http://www.inkscape.org/namespaces/inkscape"
   id="svg2985"
   version="1.1"
   inkscape:version="0.48.4 r9939"
   width="195"
   height="195"
   sodipodi:docname="Allah1.svg">
  <metadata
     id="metadata2991">
    <rdf:RDF>
      <cc:Work
         rdf:about="">
        <dc:format>image/svg+xml</dc:format>
        <dc:type
           rdf:resource="http://purl.org/dc/dcmitype/StillImage" />
      </cc:Work>
    </rdf:RDF>
  </metadata>
  <defs
     id="defs2989" />
  <sodipodi:namedview
     pagecolor="#ffffff"
     bordercolor="#666666"
     borderopacity="1"
     objecttolerance="10"
     gridtolerance="10"
     guidetolerance="10"
     inkscape:pageopacity="0"
     inkscape:pageshadow="2"
     inkscape:window-width="1366"
     inkscape:window-height="706"
     id="namedview2987"
     showgrid="false"
     inkscape:zoom="2.3538462"
     inkscape:cx="97.5"
     inkscape:cy="97.5"
     inkscape:window-x="-8"
     inkscape:window-y="-8"
     inkscape:window-maximized="1"
     inkscape:current-layer="svg2985" />
  <path
     style="fill:#000000"
     d="m 85.568866,191.88959 -1.66115,-2.53524 -2.79319,1.98893 -2.79318,1.98892 -1.94456,-2.60453 c -1.73764,-2.32738 -2.19413,-2.47096 -4.28991,-1.34934 -2.10132,1.1246 -2.5726,0.97018 -4.52961,-1.48415 -1.87418,-2.35044 -2.48536,-2.5782 -4.30503,-1.60434 -2.97942,1.59453 -3.23183,1.49198 -4.37107,-1.77604 -0.94126,-2.7001 -1.24496,-2.84502 -4.19137,-2 -1.74713,0.50107 -3.25631,0.91103 -3.35374,0.91103 -0.0974,0 -0.4828,-1.39166 -0.85639,-3.09257 -0.62924,-2.86495 -0.92,-3.0474 -3.95024,-2.47893 -3.0124,0.56513 -3.31772,0.38004 -3.86197,-2.34122 -0.49234,-2.46172 -1.13975,-3.00763 -3.87921,-3.27107 -2.74905,-0.26436 -3.34013,-0.76715 -3.60467,-3.06621 -0.26323,-2.28776 -0.79887,-2.75 -3.18664,-2.75 -2.50725,0 -2.90985,-0.411 -3.18358,-3.25 -0.27543,-2.85662 -0.70616,-3.28789 -3.55862,-3.56301 -2.97734,-0.28716 -3.22501,-0.57611 -3,-3.5 0.21591,-2.80558 -0.0839,-3.22486 -2.50474,-3.50341 -2.40888,-0.27717 -2.75,-0.74541 -2.75,-3.77475 0,-2.79678 -0.49322,-3.64585 -2.57834,-4.43862 -2.22328,-0.84529 -2.48817,-1.39089 -1.9235,-3.96183 0.56223,-2.5598 0.28097,-3.15189 -1.98836,-4.18587 -2.5727202,-1.17221 -2.7150702,-1.96026 -1.0711002,-5.92959 0.48073,-1.16072 -0.17365,-1.95471 -2.35603,-2.85868 -2.98783,-1.2376 -3.00414,-1.28542 -1.45784,-4.27562 1.63575,-3.1632 1.64606,-3.13987 -2.49249,-5.64271 -1.12707,-0.68161 -1.05059,-1.31103 0.43471,-3.57788 1.77331,-2.70642 1.76416,-2.77959 -0.56705,-4.53803 -2.31883998,-1.74911 -2.33163998,-1.84491 -0.5995,-4.48848 1.7127,-2.61391 1.70308,-2.77235 -0.29753,-4.90191 L 0.03552582,97.833753 2.1752158,95.694067 c 2.066,-2.065997 2.07967,-2.231281 0.39703,-4.799312 -1.68463998,-2.57108 -1.66966998,-2.737311 0.44949,-4.993053 2.05294,-2.185259 2.09039,-2.478696 0.58973,-4.621191 -1.52017,-2.170338 -1.46705,-2.395695 1.03479,-4.390595 2.57233,-2.051106 2.59501,-2.16722 0.92214,-4.720353 -1.69648,-2.589157 -1.68158,-2.634834 1.37506,-4.215487 2.58901,-1.338829 2.92524,-1.906067 2.07334,-3.497862 -1.55214,-2.900194 -1.24523,-3.970173 1.4972102,-5.219711 2.12549,-0.96844 2.42444,-1.622845 1.93448,-4.234592 -0.51122,-2.724994 -0.23609,-3.218768 2.33397,-4.188859 2.5009,-0.943985 2.85113,-1.524677 2.47308,-4.100481 -0.39647,-2.701355 -0.12375,-3.064092 2.7334,-3.63552 2.91231,-0.582463 3.1202,-0.878824 2.5232,-3.596956 -0.5967,-2.716747 -0.37558,-3.032982 2.66863,-3.816515 2.59165,-0.667054 3.38859,-1.444457 3.63566,-3.546532 0.2614,-2.224132 0.81545,-2.692211 3.18664,-2.692211 2.50725,0 2.90984,-0.410996 3.18358,-3.25 0.28955,-3.003136 0.56203,-3.230577 3.58721,-2.994294 2.941,0.229707 3.33716,-0.06078 3.89642,-2.857082 0.57528,-2.876387 0.87243,-3.072239 3.91275,-2.578863 3.0016,0.487093 3.34715,0.27464 3.93946,-2.422122 0.60292,-2.745093 0.8929,-2.910339 4.06338,-2.315552 1.87778,0.352272 3.41413,0.226422 3.41413,-0.279666 0,-0.506089 0.57588,-1.707719 1.27973,-2.670289 1.04935,-1.4350735 1.77444,-1.5620364 4.02788,-0.705279 2.44773,0.930624 2.87199,0.77309 3.88079,-1.4410022 1.26967,-2.7866057 2.0114,-2.9844748 5.06384,-1.3508585 1.81272,0.9701354 2.42541,0.7529183 4.21821,-1.4954739 1.98955,-2.4951248 2.21517,-2.5480199 4.38523,-1.028055 2.14666,1.5035801 2.43688,1.4623186 4.70557,-0.6689963 2.26786,-2.1305462 2.53186,-2.1681855 4.25702,-0.6069377 2.3932,2.165818 3.47859,2.0989224 5.69578,-0.3510475 l 1.82402,-2.01551779 2.23611,2.10072129 c 2.138044,2.0085841 2.349824,2.0262145 4.828734,0.4019727 2.50024,-1.6382202 2.65936,-1.6163276 4.46571,0.6144238 1.83991,2.2721897 1.9219,2.2811912 4.62803,0.5080682 2.87221,-1.8819437 2.87344,-1.8814294 5.37992,2.2600872 0.68058,1.1245265 1.33581,1.0872974 3.86284,-0.2194802 3.01413,-1.5586692 3.0552,-1.5448235 4.29483,1.4479076 0.90397,2.1823788 1.69796,2.8367573 2.85868,2.3560267 3.96933,-1.6439658 4.75738,-1.501615 5.92959,1.0711086 1.03725,2.27651 1.62181,2.551522 4.2135,1.98229 2.66566,-0.585477 3.12232,-0.336354 4.00034,2.182337 0.81005,2.3237 1.57222,2.841645 4.17092,2.834417 2.56217,-0.0071 3.30098,0.47672 3.80388,2.491156 0.5106,2.045335 1.19283,2.474277 3.75122,2.358562 2.81039,-0.127113 3.15802,0.176729 3.43237,3 0.26596,2.737023 0.72365,3.181778 3.55526,3.454796 2.83523,0.273368 3.25,0.677998 3.25,3.170545 0,2.36156 0.5204,2.971485 3,3.516097 2.50521,0.550236 3,1.144719 3,3.604455 0,2.477393 0.48016,3.041576 3.02107,3.549759 2.79393,0.558786 2.97494,0.85015 2.40743,3.875213 -0.56977,3.037164 -0.38974,3.320175 2.51835,3.958899 3.18695,0.699972 3.26441,1.047502 1.36378,6.118754 -0.22821,0.608895 0.92146,1.660627 2.55481,2.337184 2.79287,1.156844 2.90522,1.415179 1.88643,4.33768 -0.73102,2.096995 -0.75033,3.218568 -0.0594,3.44888 0.56315,0.187716 1.87522,0.96978 2.91572,1.737919 1.51616,1.119291 1.6436,1.648266 0.64181,2.663936 -1.84541,1.870982 -1.5275,3.822033 0.94963,5.827886 2.1078,1.706798 2.12935,1.888402 0.51617,4.350431 -1.6339,2.493647 -1.60493,2.631052 0.98413,4.667607 l 2.66759,2.098325 -2.166,2.165994 -2.16599,2.165994 2.15655,2.295542 2.15655,2.295542 -2.34863,2.5 -2.34863,2.500003 2.17992,2.32041 2.17992,2.32042 -2.44918,2.30088 c -2.33453,2.19318 -2.37295,2.41721 -0.82089,4.78596 1.55328,2.37061 1.51832,2.56801 -0.7592,4.28595 -2.17162,1.63805 -2.27205,2.05423 -1.11077,4.60297 1.11094,2.43825 1.04753,2.96968 -0.48835,4.09275 -0.9708,0.70986 -2.18156,1.29065 -2.69058,1.29065 -0.8968,0 -0.63684,1.76528 0.75556,5.13082 0.498,1.2037 -0.11399,1.90576 -2.33665,2.68059 -2.79873,0.97564 -2.94779,1.27139 -2.11115,4.18859 0.8361,2.9153 0.68666,3.21327 -2.0985,4.18418 -2.58219,0.90016 -2.95723,1.48082 -2.7001,4.18059 0.26332,2.76478 -0.0263,3.17262 -2.4514,3.45165 -2.38213,0.2741 -2.75,0.75902 -2.75,3.625 0,2.8762 -0.39205,3.38699 -3,3.90858 -2.52297,0.50459 -3,1.07093 -3,3.56164 0,2.6104 -0.38545,2.99881 -3.25,3.275 -2.80647,0.2706 -3.29066,0.72872 -3.54796,3.35696 -0.27642,2.82352 -0.54207,3.0151 -3.67388,2.64948 -3.0799,-0.35956 -3.40451,-0.14417 -3.70204,2.4564 -0.28889,2.52511 -0.72315,2.85052 -3.80402,2.85052 -2.68818,0 -3.56173,0.45414 -3.84707,2 -0.56921,3.0838 -1.6123,3.66445 -4.56574,2.54155 -2.50379,-0.95194 -2.79979,-0.79352 -3.78202,2.0241 -0.58609,1.68127 -1.5745,2.86605 -2.19645,2.63283 -3.69771,-1.38654 -5.63468,-1.73403 -5.66262,-1.01587 -0.0175,0.44957 -0.64003,1.61915 -1.38341,2.59907 -1.16291,1.53294 -1.72987,1.60934 -4.06095,0.54723 -2.43927,-1.11141 -2.89105,-0.99355 -4.53235,1.18238 -1.67724,2.22356 -2.02997,2.30607 -4.41087,1.03185 -2.32956,-1.24673 -2.81207,-1.17581 -4.83424,0.7106 -2.23498,2.08494 -2.25856,2.08564 -4.64732,0.1384 -2.39258,-1.95036 -2.40911,-1.94949 -4.749994,0.24966 l -2.34907,2.20683 -2.33096,-2.18983 -2.33097,-2.18984 -1.82402,2.01552 c -2.35557,2.60288 -2.93938,2.54152 -4.94518,-0.51972 z m 25.997474,-7.51574 c 31.22735,-5.53104 57.4779,-27.34727 68.09247,-56.59008 5.56791,-15.33942 6.69874,-36.17446 2.78754,-51.358933 C 180.33216,68.21691 174.43989,55.43369 169.25485,47.806004 160.30908,34.645918 143.63127,21.562567 128.61543,15.925321 108.66022,8.4337397 84.221616,8.5217834 65.049886,16.154325 c -27.37822,10.899663 -47.40069,34.655869 -53.68006,63.690164 -3.0414102,14.062725 -1.36789,35.828411 3.76506,48.968221 13.27045,33.97098 45.11337,56.21216 80.93146,56.52781 5.261484,0.0464 12.236484,-0.38863 15.499994,-0.96667 z M 78.999996,181.04894 C 61.162036,176.91721 46.996066,168.69887 34.560876,155.26772 -3.7610942,113.87645 8.7946358,46.409237 59.460886,21.469451 c 13.3737,-6.583022 21.75951,-8.431644 38.03911,-8.385583 12.272864,0.03472 15.104224,0.373252 22.950664,2.744059 23.87136,7.212752 42.27432,22.518551 53.02001,44.09691 14.65914,29.43693 10.9196,64.503113 -9.74058,91.338683 -9.01667,11.71178 -24.36595,22.28253 -39.73009,27.36134 -8.68923,2.87233 -10.78016,3.16414 -24.500004,3.41918 -9.58709,0.17822 -16.98473,-0.18087 -20.5,-0.9951 z m 29.133094,-2.62329 c 33.04143,-4.7799 59.2693,-28.24578 68.07636,-60.90743 3.16993,-11.75589 2.88555,-29.697722 -0.65924,-41.593383 C 171.5725,62.576396 165.8098,52.475324 156.60599,42.718707 147.20288,32.750827 136.70927,25.593614 125.61711,21.582606 85.972216,7.2467153 42.606236,24.545377 24.483266,61.924837 c -6.71127,13.842299 -7.95214,19.572448 -7.90409,36.5 0.0373,13.137553 0.30474,15.298663 2.84636,22.999993 3.2962,9.98777 5.43315,14.40045 10.83133,22.36611 16.97922,25.05486 48.17926,38.93078 77.876224,34.63471 z M 80.025736,170.9177 c -8.18125,-1.84336 -20.70341,-7.86486 -28.7154,-13.8083 -12.25587,-9.09162 -23.24557,-25.89493 -26.93552,-41.18457 -2.21838,-9.19205 -2.24346,-26.723692 -0.0511,-35.72997 9.57691,-39.342557 47.95298,-63.560096 88.454334,-55.819849 18.30152,3.497617 38.46566,17.521715 48.07658,33.437109 8.30438,13.751789 11.5498,26.752821 10.88698,43.61272 -0.7905,20.1073 -7.12025,34.37459 -21.74159,49.00563 -9.62889,9.63527 -17.88355,14.85935 -29.5,18.66951 -10.02138,3.28698 -29.975964,4.18315 -40.474264,1.81772 z M 103,153.83121 c 0,-2.77662 0.46399,-3.71496 2.04089,-4.12732 2.24057,-0.58593 2.14253,-2.77906 -0.12422,-2.77906 -0.77917,0 -1.95377,1.575 -2.61023,3.5 -0.65645,1.925 -1.21895,2.86043 -1.25,2.07874 -0.0641,-1.6155 -2.935964,-5.07874 -4.211424,-5.07874 -1.6549,0 -0.81111,2.94778 1.14318,3.99368 1.0935,0.58523 2.267284,2.17606 2.608404,3.53518 0.92323,3.67843 2.4034,2.98713 2.4034,-1.12248 z m -35.443894,-6.40638 c 1.32048,0 3.5599,-7.0561 4.91801,-15.49601 0.8666,-5.38539 2.47018,-11.63941 3.5635,-13.89781 1.09333,-2.2584 1.76909,-3.31302 1.50169,-2.34361 -1.12113,4.06445 -1.74649,14.87015 -1.10727,19.13275 0.93244,6.21795 5.89578,11.60624 10.68604,11.60094 6.5263,-0.007 12.12947,-5.46166 13.864244,-13.49626 l 0.64774,-3 2.11694,4.72333 c 2.34312,5.22798 7.00982,8.76688 11.56874,8.77293 9.71571,0.0129 12.45291,-11.31217 6.68426,-27.65598 -3.35339,-9.50087 -3.5117,-10.25198 -1.8,-8.54028 2.81512,2.81512 2.69644,0.78566 -0.28068,-4.79999 -1.75889,-3.300003 -3.56944,-6.000003 -4.02346,-6.000003 -0.45402,0 -1.32788,0.938723 -1.94191,2.086051 -1.37122,2.562152 0.72755,13.031242 5.27736,26.324592 2.94883,8.61572 2.98785,8.95593 1.17869,10.27882 -2.07493,1.51722 -6.56575,0.96397 -10.04909,-1.23801 C 107.65735,132.16724 105,124.48745 105,118.38318 c 0,-5.81069 -1.45008,-13.67292 -3.33884,-18.10295 l -1.43057,-3.355393 -1.562134,3.590653 c -1.37992,3.17182 -1.39753,4.27993 -0.15092,9.49999 1.876694,7.85845 1.890174,19.72025 0.0265,23.32416 -1.80261,3.48587 -7.78838,6.49167 -11.21492,5.63166 -1.37576,-0.34529 -3.65378,-1.78021 -5.06228,-3.18871 l -2.56091,-2.56091 0.67241,-13.39842 c 0.57092,-11.37612 0.45246,-13.39843 -0.78487,-13.39843 -3.40065,0 -7.90971,10.08326 -9.61445,21.5 -1.9045,12.75462 -3.7904,15.88377 -7.99167,13.26003 -3.59857,-2.24734 -6.10458,-10.06777 -5.78045,-18.03883 0.29025,-7.13784 0.32205,-7.21268 3.28088,-7.72215 1.76157,-0.30332 3.12414,-1.22248 3.32003,-2.23961 0.35405,-1.83845 -4.26344,-6.75944 -6.34255,-6.75944 -1.73651,0 -2.96813,7.07118 -1.40038,8.0401 1.33418,0.82457 -4.7773,5.7093 -11.41179,9.12113 -2.1158,1.08806 -3.60005,2.22515 -3.29833,2.52687 0.30171,0.30171 3.54943,-1.10091 7.21715,-3.11694 6.39171,-3.51332 6.64456,-3.56981 6.09006,-1.36049 -0.90486,3.60522 0.97457,14.40708 3.36635,19.34783 2.18275,4.50898 6.33177,7.76287 8.80346,6.90418 0.73249,-0.25448 1.50843,-0.46268 1.72432,-0.46268 z m -8.05611,-35 c -0.33991,-0.55 -0.14147,-1 0.44099,-1 0.58246,0 1.05901,0.45 1.05901,1 0,0.55 -0.19844,1 -0.44098,1 -0.24254,0 -0.7191,-0.45 -1.05902,-1 z m -4,-1 c -0.33991,-0.55 0.0835,-1 0.94099,-1 0.85746,0 1.55901,0.45 1.55901,1 0,0.55 -0.42344,1 -0.94098,1 -0.51754,0 -1.2191,-0.45 -1.55902,-1 z m 85.366364,29.25308 c 0.58703,-2.61419 1.34091,-7.22808 1.67529,-10.25308 0.50089,-4.53136 -1.64561,-36.231834 -4.06272,-59.999993 l -0.55932,-5.5 1.9718,2.48506 c 1.08449,1.366782 2.2035,2.253365 2.48668,1.970182 0.4113,-0.411301 -3.10073,-12.114266 -5.98852,-19.955242 -0.3897,-1.058129 -1.07429,-0.468969 -2.32395,2 -1.49971,2.962979 -1.64535,4.727475 -0.94922,11.5 1.44094,14.018603 3.84527,49.433463 4.52924,66.714083 0.36385,9.19275 0.99721,16.50664 1.40747,16.25308 0.41026,-0.25355 1.22622,-2.59989 1.81325,-5.21409 z M 51.027496,101.77148 c 1.35988,-0.90935 3.71,-2.793544 5.2225,-4.187095 1.5125,-1.393552 2.75,-2.091065 2.75,-1.55003 0,0.541035 0.75501,1.914205 1.6778,3.05149 l 1.67779,2.067795 5.74047,-3.364404 c 3.15726,-1.85042 6.25554,-3.364399 6.88507,-3.364399 0.62952,0 1.01504,-0.7875 0.85669,-1.75 -0.15834,-0.9625 0.0166,-2.234275 0.38872,-2.826166 0.79485,-1.264191 -11.36994,-3.966518 -13.7479,-3.054007 -0.83968,0.322213 -1.93735,1.608316 -2.43927,2.858007 -0.71817,1.788092 -0.9261,1.076891 -0.97598,-3.338263 -0.0821,-7.263909 -1.13695,-14.889571 -2.05973,-14.889571 -0.39847,0 -0.6748,4.547624 -0.61407,10.105831 l 0.11041,10.10583 -3.91661,3.39417 c -4.02967,3.492155 -3.90106,4.330755 0.30654,1.998662 1.31446,-0.728549 2.98602,-2.400104 3.71457,-3.714564 1.02626,-1.851606 1.33262,-1.997161 1.36007,-0.646201 0.0195,0.95905 -1.83208,3.09655 -4.1146,4.75 -6.20671,4.496115 -11.84997,3.745065 -11.84997,-1.577097 0,-2.695243 3.60717,-3.941003 4.8712,-1.682301 0.61005,1.090091 1.64519,1.352881 3.49765,0.887944 2.31558,-0.581173 2.63115,-1.16077 2.63115,-4.832456 0,-3.883093 0.1017,-4.037622 1.4682,-2.230948 0.94682,1.251805 1.47949,1.464469 1.5,0.598859 0.0175,-0.738249 -0.8847,-2.50742 -2.00488,-3.931492 -1.45435,-1.848913 -1.97258,-3.827538 -1.81249,-6.920221 0.12929,-2.4976 -0.31955,-4.854862 -1.06027,-5.568508 -1.04081,-1.002763 -1.21724,-0.336004 -0.93011,3.514959 0.40013,5.366299 -0.88818,5.78102 -2.87008,0.923916 -1.15764,-2.83706 -1.09385,-3.364216 0.58057,-4.797905 1.0963,-0.938678 1.67557,-2.396636 1.38846,-3.494566 -0.70008,-2.677101 -2.2594,-2.336414 -2.2594,0.493643 0,2.343873 -2.18119,5.107917 -3.215,4.074106 -0.29204,-0.292043 -0.76699,0.371477 -1.05543,1.474489 -0.28845,1.103012 -0.22291,1.908361 0.14563,1.789663 0.36854,-0.118697 2.29218,1.584187 4.27476,3.784187 4.31556,4.788819 6.16133,12.059581 3.33665,13.143515 -2.19693,0.84304 -3.64202,-1.385368 -3.18567,-4.912496 0.19704,-1.522939 -0.24007,-3.265539 -0.97134,-3.872444 -1.0295,-0.85441 -1.3296,-0.659405 -1.3296,0.863993 0,1.082101 -0.9,2.781946 -2,3.777432 -1.43759,1.301004 -2,3.079967 -2,6.326247 0,7.376726 4.43462,10.260336 10.0275,6.520396 z m 11.9725,-4.765835 c 0,-0.541787 6.65772,-3.580808 7.84463,-3.580808 0.33021,0 -0.28724,0.614385 -1.37212,1.3653 -2.30053,1.59235 -6.47251,3.020396 -6.47251,2.215508 z m -1,-3.964177 c 0,-0.887734 4.04569,-1.351727 4.55803,-0.522751 0.308,0.498366 -0.59155,0.90612 -1.99901,0.90612 -1.40746,0 -2.55902,-0.172516 -2.55902,-0.383369 z m -18.8125,-2.679131 c 0.24063,-0.721875 1.02813,-1.509375 1.75,-1.75 0.75,-0.25 1.125,0.125 0.875,0.875 -0.24062,0.721875 -1.02812,1.509375 -1.75,1.75 -0.75,0.25 -1.125,-0.125 -0.875,-0.875 z m 18.81522,-1.339671 c 0.5359,-0.53622 2.64497,-0.489407 5.19946,0.115408 l 4.29782,1.017579 -5.19945,-0.115408 c -3.08999,-0.06859 -4.83366,-0.481428 -4.29783,-1.017579 z m 91.681564,12.312964 c 4.98682,-2.414081 5.45375,-3.434126 1.56572,-3.420459 -1.5125,0.0053 -2.7633,-0.440334 -2.77955,-0.990334 -0.0163,-0.55 0.54624,-0.867773 1.25,-0.706163 1.41873,0.325799 1.7761,-2.368915 0.42491,-3.204 -1.45551,-0.899556 -5.46149,4.143945 -4.75462,5.98603 0.35407,0.922696 0.1309,2.295596 -0.49593,3.050886 -1.59213,1.91839 -0.23256,1.71515 4.78947,-0.71596 z M 58.604166,99.69567 c -1.01651,-1.016515 -1.85525,0.51389 -1.02122,1.86338 0.63004,1.01942 0.86558,1.02021 1.20431,0.004 0.23159,-0.69479 0.1492,-1.53513 -0.18309,-1.86742 z m 12.39583,0.67015 c 0,-0.517541 -0.675,-0.940983 -1.5,-0.940983 -1.54641,0 -1.9867,1.179963 -0.86052,2.306153 0.79894,0.79893 2.36052,-0.10419 2.36052,-1.36517 z m 28,-10.170417 c 0,-0.59888 0.59739,-0.519672 1.456204,0.193079 0.8009,0.664694 1.9259,0.918237 2.5,0.563428 1.28945,-0.796929 1.34152,-5.50789 0.0829,-7.498113 -1.50266,-2.376054 -2.47311,-0.277013 -1.18201,2.556644 0.93869,2.060205 0.92067,2.508 -0.0876,2.175898 -0.69822,-0.229987 -1.42009,-1.50791 -1.60417,-2.83983 -0.618304,-4.473969 -2.165324,-4.50136 -2.165324,-0.03834 0,4.949196 -2.09827,5.307096 -3.13168,0.534169 -0.61726,-2.850857 -0.63439,-2.836409 -0.75,0.632498 -0.0651,1.9525 0.38652,4.054835 1.00354,4.671855 1.2566,1.256597 3.87814,0.613545 3.87814,-0.951289 z m -54,-9.44488 c 0,-0.729127 -0.72314,-1.325686 -1.60698,-1.325686 -0.9584,0 -1.39246,0.559074 -1.07544,1.385198 0.29235,0.761858 -0.18582,2.449358 -1.06261,3.75 l -1.59416,2.364802 2.6696,-2.424314 c 1.46828,-1.333373 2.66959,-3.020873 2.66959,-3.75 z m 27.67535,5.016323 c -0.3619,-0.361895 -0.17788,-1.23649 0.40892,-1.943545 0.81466,-0.981608 0.57618,-1.248588 -1.00867,-1.129205 -1.14158,0.08599 -2.0756,0.248783 -2.0756,0.361758 0,1.22734 1.44535,3.368983 2.27366,3.368983 0.58282,0 0.76358,-0.296096 0.40169,-0.657991 z m 49.095484,-1.154509 c 0.21771,-0.653125 -0.31666,-1.1875 -1.1875,-1.1875 -1.94684,0 -1.94965,-0.187503 -0.0702,-4.685659 0.83222,-1.991782 1.28812,-3.846421 1.01312,-4.121421 C 120.8488,73.940305 118,80.894805 118,83.226052 c 0,3.204909 2.81915,4.241324 3.77083,1.386285 z m -54.270834,-2.66564 c 2.75,-1.295468 4.49471,-2.392851 3.87712,-2.438628 -1.31754,-0.09766 -10.37712,3.79918 -10.37712,4.463562 0,0.811198 1.41575,0.370152 6.5,-2.024934 z m -1.00012,-4.064223 c 3.1618,-1.3983 5.51282,-2.778279 5.22447,-3.066621 -0.28834,-0.288341 -3.15677,0.834078 -6.3743,2.494264 -7.18074,3.705139 -6.59417,3.997121 1.14983,0.572357 z m 19.46975,-0.442143 c 2.13948,-1.091478 11.23405,-4.714623 20.210164,-8.051433 21.41207,-7.959792 19.63816,-7.19564 17.76814,-7.654026 -3.14863,-0.7718 -41.963614,14.170358 -42.705824,16.439965 -0.55516,1.697651 0.18574,1.582539 4.72752,-0.734506 z m -21.97798,-2.989166 c 1.21394,-0.767481 1.25273,-1.181953 0.20835,-2.226328 -1.04437,-1.044375 -1.45884,-1.005586 -2.22632,0.208359 -1.82476,2.886269 -0.8683,3.842728 2.01797,2.017969 z m -5.8549,-5.096089 c 2.23138,-1.138369 3.83207,-2.294762 3.55707,-2.569762 -0.53856,-0.538551 -8.69382,3.363608 -8.69382,4.159847 0,0.835395 0.97249,0.534361 5.13675,-1.590085 z m 49.104614,-14.3569 c 18.77262,-6.265687 23.79996,-8.469244 16.25864,-7.126399 -12.06259,2.147924 -50.500004,16.78616 -50.500004,19.232067 0,0.743307 2.96876,-0.145698 7.72559,-2.313456 4.24907,-1.936365 16.18117,-6.34286 26.515774,-9.792212 z M 71.537306,54.307305 c 0.46162,-1.45443 0.0302,-2.759441 -1.37778,-4.167392 l -2.04987,-2.04986 -1.18628,2.603622 c -0.65246,1.431992 -0.91626,3.307319 -0.58622,4.167392 0.88286,2.300693 4.41351,1.924715 5.20015,-0.553762 z m -4.03731,-0.882468 c -0.33991,-0.55 0.0835,-1 0.94099,-1 0.85746,0 1.55901,0.45 1.55901,1 0,0.55 -0.42344,1 -0.94098,1 -0.51754,0 -1.2191,-0.45 -1.55902,-1 z m 28.10699,-4.581787 c -0.33384,-0.869984 -0.60699,-1.960457 -0.60699,-2.423275 0,-1.228824 -5.01923,-6.994938 -6.08889,-6.994938 -1.70906,0 -0.91494,1.842319 2.08889,4.846154 1.65,1.65 3,3.709615 3,4.576923 0,0.867308 0.49815,1.576923 1.10699,1.576923 0.60885,0 0.83385,-0.711804 0.5,-1.581787 z"
     id="path2995"
     inkscape:connector-curvature="0" />
</svg>
